solid OpenSCAD_Model
  facet normal -1 0 0
    outer loop
      vertex 0 0 0
      vertex 0 0 5
      vertex 0 70 0
    endloop
  endfacet
  facet normal -1 0 0
    outer loop
      vertex 0 70 0
      vertex 0 0 5
      vertex 0 70 5
    endloop
  endfacet
  facet normal 0 -1 0
    outer loop
      vertex 0 0 5
      vertex 0 0 0
      vertex 80 0 0
    endloop
  endfacet
  facet normal 0 -1 0
    outer loop
      vertex 80 0 5
      vertex 0 0 5
      vertex 80 0 0
    endloop
  endfacet
  facet normal 0 0 -1
    outer loop
      vertex 50 57 0
      vertex 0 70 0
      vertex 80 70 0
    endloop
  endfacet
  facet normal 0 0 -1
    outer loop
      vertex 0 0 0
      vertex 0 70 0
      vertex 20 35 0
    endloop
  endfacet
  facet normal 0 0 -1
    outer loop
      vertex 0 0 0
      vertex 20 35 0
      vertex 20.437 30.8418 0
    endloop
  endfacet
  facet normal 0 0 -1
    outer loop
      vertex 0 0 0
      vertex 20.437 30.8418 0
      vertex 21.7291 26.8653 0
    endloop
  endfacet
  facet normal 0 0 -1
    outer loop
      vertex 0 0 0
      vertex 21.7291 26.8653 0
      vertex 23.8197 23.2443 0
    endloop
  endfacet
  facet normal 0 0 -1
    outer loop
      vertex 0 0 0
      vertex 23.8197 23.2443 0
      vertex 26.6174 20.1371 0
    endloop
  endfacet
  facet normal 0 0 -1
    outer loop
      vertex 0 0 0
      vertex 26.6174 20.1371 0
      vertex 30 17.6795 0
    endloop
  endfacet
  facet normal 0 0 -1
    outer loop
      vertex 0 0 0
      vertex 30 17.6795 0
      vertex 30 12 0
    endloop
  endfacet
  facet normal 0 0 -1
    outer loop
      vertex 0 0 0
      vertex 30 12 0
      vertex 80 0 0
    endloop
  endfacet
  facet normal 0 0 -1
    outer loop
      vertex 50 17.6795 0
      vertex 80 0 0
      vertex 50 12 0
    endloop
  endfacet
  facet normal 0 0 -1
    outer loop
      vertex 56.1803 23.2443 0
      vertex 80 0 0
      vertex 53.3826 20.1371 0
    endloop
  endfacet
  facet normal 0 0 -1
    outer loop
      vertex 21.7291 43.1347 0
      vertex 0 70 0
      vertex 23.8197 46.7557 0
    endloop
  endfacet
  facet normal 0 0 -1
    outer loop
      vertex 50 17.6795 0
      vertex 53.3826 20.1371 0
      vertex 80 0 0
    endloop
  endfacet
  facet normal 0 0 -1
    outer loop
      vertex 59.563 30.8418 0
      vertex 80 70 0
      vertex 58.2709 26.8653 0
    endloop
  endfacet
  facet normal 0 0 -1
    outer loop
      vertex 80 0 0
      vertex 56.1803 23.2443 0
      vertex 58.2709 26.8653 0
    endloop
  endfacet
  facet normal 0 0 -1
    outer loop
      vertex 80 0 0
      vertex 58.2709 26.8653 0
      vertex 80 70 0
    endloop
  endfacet
  facet normal 0 0 -1
    outer loop
      vertex 23.8197 46.7557 0
      vertex 0 70 0
      vertex 26.6174 49.8629 0
    endloop
  endfacet
  facet normal 0 0 -1
    outer loop
      vertex 30 57 0
      vertex 0 70 0
      vertex 50 57 0
    endloop
  endfacet
  facet normal 0 0 -1
    outer loop
      vertex 26.6174 49.8629 0
      vertex 0 70 0
      vertex 30 52.3205 0
    endloop
  endfacet
  facet normal 0 0 -1
    outer loop
      vertex 59.563 30.8418 0
      vertex 60 35 0
      vertex 80 70 0
    endloop
  endfacet
  facet normal 0 0 -1
    outer loop
      vertex 60 35 0
      vertex 59.563 39.1582 0
      vertex 80 70 0
    endloop
  endfacet
  facet normal 0 0 -1
    outer loop
      vertex 59.563 39.1582 0
      vertex 58.2709 43.1347 0
      vertex 80 70 0
    endloop
  endfacet
  facet normal 0 0 -1
    outer loop
      vertex 30 52.3205 0
      vertex 0 70 0
      vertex 30 57 0
    endloop
  endfacet
  facet normal 0 0 -1
    outer loop
      vertex 58.2709 43.1347 0
      vertex 56.1803 46.7557 0
      vertex 80 70 0
    endloop
  endfacet
  facet normal 0 0 -1
    outer loop
      vertex 56.1803 46.7557 0
      vertex 53.3826 49.8629 0
      vertex 80 70 0
    endloop
  endfacet
  facet normal 0 0 -1
    outer loop
      vertex 53.3826 49.8629 0
      vertex 50 52.3205 0
      vertex 80 70 0
    endloop
  endfacet
  facet normal 0 0 -1
    outer loop
      vertex 50 52.3205 0
      vertex 50 57 0
      vertex 80 70 0
    endloop
  endfacet
  facet normal 0 0 -1
    outer loop
      vertex 20.437 39.1582 0
      vertex 0 70 0
      vertex 21.7291 43.1347 0
    endloop
  endfacet
  facet normal 0 0 -1
    outer loop
      vertex 20 35 0
      vertex 0 70 0
      vertex 20.437 39.1582 0
    endloop
  endfacet
  facet normal 0 0 -1
    outer loop
      vertex 50 12 0
      vertex 80 0 0
      vertex 30 12 0
    endloop
  endfacet
  facet normal 0 1 0
    outer loop
      vertex 0 70 0
      vertex 0 70 5
      vertex 80 70 0
    endloop
  endfacet
  facet normal 0 1 0
    outer loop
      vertex 80 70 0
      vertex 0 70 5
      vertex 80 70 5
    endloop
  endfacet
  facet normal 0 0 1
    outer loop
      vertex 50 12 5
      vertex 0 0 5
      vertex 80 0 5
    endloop
  endfacet
  facet normal 0 0 1
    outer loop
      vertex 26.6174 20.1371 5
      vertex 23.8197 23.2443 5
      vertex 30 12 5
    endloop
  endfacet
  facet normal 0 0 1
    outer loop
      vertex 0 70 5
      vertex 0 0 5
      vertex 20.437 30.8418 5
    endloop
  endfacet
  facet normal 0 0 1
    outer loop
      vertex 0 70 5
      vertex 20.437 30.8418 5
      vertex 20 35 5
    endloop
  endfacet
  facet normal 0 0 1
    outer loop
      vertex 0 70 5
      vertex 20 35 5
      vertex 20.437 39.1582 5
    endloop
  endfacet
  facet normal 0 0 1
    outer loop
      vertex 50 17.6795 5
      vertex 50 12 5
      vertex 80 0 5
    endloop
  endfacet
  facet normal 0 0 1
    outer loop
      vertex 0 70 5
      vertex 20.437 39.1582 5
      vertex 21.7291 43.1347 5
    endloop
  endfacet
  facet normal 0 0 1
    outer loop
      vertex 0 70 5
      vertex 21.7291 43.1347 5
      vertex 23.8197 46.7557 5
    endloop
  endfacet
  facet normal 0 0 1
    outer loop
      vertex 53.3826 20.1371 5
      vertex 50 17.6795 5
      vertex 80 0 5
    endloop
  endfacet
  facet normal 0 0 1
    outer loop
      vertex 30 52.3205 5
      vertex 0 70 5
      vertex 26.6174 49.8629 5
    endloop
  endfacet
  facet normal 0 0 1
    outer loop
      vertex 30 57 5
      vertex 0 70 5
      vertex 30 52.3205 5
    endloop
  endfacet
  facet normal 0 0 1
    outer loop
      vertex 53.3826 49.8629 5
      vertex 56.1803 46.7557 5
      vertex 50 57 5
    endloop
  endfacet
  facet normal 0 0 1
    outer loop
      vertex 80 70 5
      vertex 0 70 5
      vertex 30 57 5
    endloop
  endfacet
  facet normal 0 0 1
    outer loop
      vertex 58.2709 43.1347 5
      vertex 59.563 39.1582 5
      vertex 80 0 5
    endloop
  endfacet
  facet normal 0 0 1
    outer loop
      vertex 60 35 5
      vertex 59.563 30.8418 5
      vertex 80 0 5
    endloop
  endfacet
  facet normal 0 0 1
    outer loop
      vertex 56.1803 23.2443 5
      vertex 53.3826 20.1371 5
      vertex 80 0 5
    endloop
  endfacet
  facet normal 0 0 1
    outer loop
      vertex 50 57 5
      vertex 50 52.3205 5
      vertex 53.3826 49.8629 5
    endloop
  endfacet
  facet normal 0 0 1
    outer loop
      vertex 59.563 39.1582 5
      vertex 60 35 5
      vertex 80 0 5
    endloop
  endfacet
  facet normal 0 0 1
    outer loop
      vertex 80 70 5
      vertex 50 57 5
      vertex 56.1803 46.7557 5
    endloop
  endfacet
  facet normal 0 0 1
    outer loop
      vertex 80 70 5
      vertex 58.2709 43.1347 5
      vertex 80 0 5
    endloop
  endfacet
  facet normal 0 0 1
    outer loop
      vertex 80 70 5
      vertex 56.1803 46.7557 5
      vertex 58.2709 43.1347 5
    endloop
  endfacet
  facet normal 0 0 1
    outer loop
      vertex 59.563 30.8418 5
      vertex 58.2709 26.8653 5
      vertex 80 0 5
    endloop
  endfacet
  facet normal 0 0 1
    outer loop
      vertex 58.2709 26.8653 5
      vertex 56.1803 23.2443 5
      vertex 80 0 5
    endloop
  endfacet
  facet normal 0 0 1
    outer loop
      vertex 30 12 5
      vertex 0 0 5
      vertex 50 12 5
    endloop
  endfacet
  facet normal 0 0 1
    outer loop
      vertex 23.8197 23.2443 5
      vertex 0 0 5
      vertex 30 12 5
    endloop
  endfacet
  facet normal 0 0 1
    outer loop
      vertex 26.6174 20.1371 5
      vertex 30 12 5
      vertex 30 17.6795 5
    endloop
  endfacet
  facet normal 0 0 1
    outer loop
      vertex 21.7291 26.8653 5
      vertex 0 0 5
      vertex 23.8197 23.2443 5
    endloop
  endfacet
  facet normal 0 0 1
    outer loop
      vertex 20.437 30.8418 5
      vertex 0 0 5
      vertex 21.7291 26.8653 5
    endloop
  endfacet
  facet normal 0 0 1
    outer loop
      vertex 23.8197 46.7557 5
      vertex 26.6174 49.8629 5
      vertex 0 70 5
    endloop
  endfacet
  facet normal 0 0 1
    outer loop
      vertex 30 57 5
      vertex 50 57 5
      vertex 80 70 5
    endloop
  endfacet
  facet normal 1 0 0
    outer loop
      vertex 80 0 5
      vertex 80 0 0
      vertex 80 70 0
    endloop
  endfacet
  facet normal 1 0 0
    outer loop
      vertex 80 70 5
      vertex 80 0 5
      vertex 80 70 0
    endloop
  endfacet
  facet normal 0.994522 -0.104528 0
    outer loop
      vertex 20.437 39.1582 0
      vertex 20.437 39.1582 5
      vertex 20 35 5
    endloop
  endfacet
  facet normal 0.994522 -0.104528 0
    outer loop
      vertex 20 35 0
      vertex 20.437 39.1582 0
      vertex 20 35 5
    endloop
  endfacet
  facet normal 0.994522 0.104528 0
    outer loop
      vertex 20 35 5
      vertex 20.437 30.8418 5
      vertex 20.437 30.8418 0
    endloop
  endfacet
  facet normal 0.994522 0.104528 0
    outer loop
      vertex 20 35 0
      vertex 20 35 5
      vertex 20.437 30.8418 0
    endloop
  endfacet
  facet normal 0.951057 -0.309017 0
    outer loop
      vertex 21.7291 43.1347 0
      vertex 21.7291 43.1347 5
      vertex 20.437 39.1582 5
    endloop
  endfacet
  facet normal 0.951057 -0.309017 0
    outer loop
      vertex 20.437 39.1582 0
      vertex 21.7291 43.1347 0
      vertex 20.437 39.1582 5
    endloop
  endfacet
  facet normal 0.866025 -0.5 0
    outer loop
      vertex 23.8197 46.7557 0
      vertex 23.8197 46.7557 5
      vertex 21.7291 43.1347 5
    endloop
  endfacet
  facet normal 0.866025 -0.5 0
    outer loop
      vertex 21.7291 43.1347 0
      vertex 23.8197 46.7557 0
      vertex 21.7291 43.1347 5
    endloop
  endfacet
  facet normal 0.743145 -0.669131 0
    outer loop
      vertex 26.6174 49.8629 0
      vertex 26.6174 49.8629 5
      vertex 23.8197 46.7557 5
    endloop
  endfacet
  facet normal 0.743145 -0.669131 0
    outer loop
      vertex 23.8197 46.7557 0
      vertex 26.6174 49.8629 0
      vertex 23.8197 46.7557 5
    endloop
  endfacet
  facet normal 0.587785 -0.809017 0
    outer loop
      vertex 30 52.3205 0
      vertex 30 52.3205 5
      vertex 26.6174 49.8629 5
    endloop
  endfacet
  facet normal 0.587785 -0.809017 0
    outer loop
      vertex 26.6174 49.8629 0
      vertex 30 52.3205 0
      vertex 26.6174 49.8629 5
    endloop
  endfacet
  facet normal 1 0 0
    outer loop
      vertex 30 57 0
      vertex 30 57 5
      vertex 30 52.3205 5
    endloop
  endfacet
  facet normal 1 0 0
    outer loop
      vertex 30 52.3205 0
      vertex 30 57 0
      vertex 30 52.3205 5
    endloop
  endfacet
  facet normal 0 -1 0
    outer loop
      vertex 50 57 0
      vertex 50 57 5
      vertex 30 57 5
    endloop
  endfacet
  facet normal 0 -1 0
    outer loop
      vertex 30 57 0
      vertex 50 57 0
      vertex 30 57 5
    endloop
  endfacet
  facet normal -1 0 0
    outer loop
      vertex 50 57 5
      vertex 50 57 0
      vertex 50 52.3205 5
    endloop
  endfacet
  facet normal -1 0 0
    outer loop
      vertex 50 52.3205 5
      vertex 50 57 0
      vertex 50 52.3205 0
    endloop
  endfacet
  facet normal -0.587785 -0.809017 0
    outer loop
      vertex 53.3826 49.8629 0
      vertex 53.3826 49.8629 5
      vertex 50 52.3205 5
    endloop
  endfacet
  facet normal -0.587785 -0.809017 0
    outer loop
      vertex 50 52.3205 0
      vertex 53.3826 49.8629 0
      vertex 50 52.3205 5
    endloop
  endfacet
  facet normal -0.743145 -0.669131 0
    outer loop
      vertex 56.1803 46.7557 5
      vertex 53.3826 49.8629 5
      vertex 56.1803 46.7557 0
    endloop
  endfacet
  facet normal -0.743145 -0.669131 0
    outer loop
      vertex 56.1803 46.7557 0
      vertex 53.3826 49.8629 5
      vertex 53.3826 49.8629 0
    endloop
  endfacet
  facet normal -0.866025 -0.5 0
    outer loop
      vertex 58.2709 43.1347 5
      vertex 56.1803 46.7557 5
      vertex 58.2709 43.1347 0
    endloop
  endfacet
  facet normal -0.866025 -0.5 0
    outer loop
      vertex 58.2709 43.1347 0
      vertex 56.1803 46.7557 5
      vertex 56.1803 46.7557 0
    endloop
  endfacet
  facet normal -0.951057 -0.309017 0
    outer loop
      vertex 59.563 39.1582 5
      vertex 58.2709 43.1347 5
      vertex 59.563 39.1582 0
    endloop
  endfacet
  facet normal -0.951057 -0.309017 0
    outer loop
      vertex 59.563 39.1582 0
      vertex 58.2709 43.1347 5
      vertex 58.2709 43.1347 0
    endloop
  endfacet
  facet normal -0.994522 -0.104528 0
    outer loop
      vertex 60 35 5
      vertex 59.563 39.1582 5
      vertex 60 35 0
    endloop
  endfacet
  facet normal -0.994522 -0.104528 0
    outer loop
      vertex 60 35 0
      vertex 59.563 39.1582 5
      vertex 59.563 39.1582 0
    endloop
  endfacet
  facet normal -0.994522 0.104528 0
    outer loop
      vertex 60 35 5
      vertex 60 35 0
      vertex 59.563 30.8418 5
    endloop
  endfacet
  facet normal -0.994522 0.104528 0
    outer loop
      vertex 59.563 30.8418 5
      vertex 60 35 0
      vertex 59.563 30.8418 0
    endloop
  endfacet
  facet normal -0.951057 0.309017 0
    outer loop
      vertex 59.563 30.8418 5
      vertex 59.563 30.8418 0
      vertex 58.2709 26.8653 5
    endloop
  endfacet
  facet normal -0.951057 0.309017 0
    outer loop
      vertex 58.2709 26.8653 5
      vertex 59.563 30.8418 0
      vertex 58.2709 26.8653 0
    endloop
  endfacet
  facet normal -0.866025 0.5 0
    outer loop
      vertex 58.2709 26.8653 5
      vertex 58.2709 26.8653 0
      vertex 56.1803 23.2443 5
    endloop
  endfacet
  facet normal -0.866025 0.5 0
    outer loop
      vertex 56.1803 23.2443 5
      vertex 58.2709 26.8653 0
      vertex 56.1803 23.2443 0
    endloop
  endfacet
  facet normal -0.743145 0.669131 0
    outer loop
      vertex 56.1803 23.2443 5
      vertex 56.1803 23.2443 0
      vertex 53.3826 20.1371 5
    endloop
  endfacet
  facet normal -0.743145 0.669131 0
    outer loop
      vertex 53.3826 20.1371 5
      vertex 56.1803 23.2443 0
      vertex 53.3826 20.1371 0
    endloop
  endfacet
  facet normal -0.587785 0.809017 0
    outer loop
      vertex 53.3826 20.1371 5
      vertex 53.3826 20.1371 0
      vertex 50 17.6795 5
    endloop
  endfacet
  facet normal -0.587785 0.809017 0
    outer loop
      vertex 50 17.6795 5
      vertex 53.3826 20.1371 0
      vertex 50 17.6795 0
    endloop
  endfacet
  facet normal -1 0 0
    outer loop
      vertex 50 17.6795 5
      vertex 50 17.6795 0
      vertex 50 12 5
    endloop
  endfacet
  facet normal -1 0 0
    outer loop
      vertex 50 12 5
      vertex 50 17.6795 0
      vertex 50 12 0
    endloop
  endfacet
  facet normal 0 1 0
    outer loop
      vertex 50 12 5
      vertex 50 12 0
      vertex 30 12 5
    endloop
  endfacet
  facet normal 0 1 0
    outer loop
      vertex 30 12 5
      vertex 50 12 0
      vertex 30 12 0
    endloop
  endfacet
  facet normal 1 0 0
    outer loop
      vertex 30 17.6795 0
      vertex 30 17.6795 5
      vertex 30 12 5
    endloop
  endfacet
  facet normal 1 0 0
    outer loop
      vertex 30 12 0
      vertex 30 17.6795 0
      vertex 30 12 5
    endloop
  endfacet
  facet normal 0.587785 0.809017 0
    outer loop
      vertex 30 17.6795 5
      vertex 30 17.6795 0
      vertex 26.6174 20.1371 5
    endloop
  endfacet
  facet normal 0.587785 0.809017 0
    outer loop
      vertex 26.6174 20.1371 5
      vertex 30 17.6795 0
      vertex 26.6174 20.1371 0
    endloop
  endfacet
  facet normal 0.743145 0.669131 0
    outer loop
      vertex 23.8197 23.2443 5
      vertex 26.6174 20.1371 5
      vertex 26.6174 20.1371 0
    endloop
  endfacet
  facet normal 0.743145 0.669131 0
    outer loop
      vertex 23.8197 23.2443 0
      vertex 23.8197 23.2443 5
      vertex 26.6174 20.1371 0
    endloop
  endfacet
  facet normal 0.866025 0.5 0
    outer loop
      vertex 21.7291 26.8653 5
      vertex 23.8197 23.2443 5
      vertex 23.8197 23.2443 0
    endloop
  endfacet
  facet normal 0.866025 0.5 0
    outer loop
      vertex 21.7291 26.8653 0
      vertex 21.7291 26.8653 5
      vertex 23.8197 23.2443 0
    endloop
  endfacet
  facet normal 0.951057 0.309017 0
    outer loop
      vertex 20.437 30.8418 5
      vertex 21.7291 26.8653 5
      vertex 21.7291 26.8653 0
    endloop
  endfacet
  facet normal 0.951057 0.309017 0
    outer loop
      vertex 20.437 30.8418 0
      vertex 20.437 30.8418 5
      vertex 21.7291 26.8653 0
    endloop
  endfacet
endsolid OpenSCAD_Model
