solid OpenSCAD_Model
  facet normal -0.707107 -0.707107 0
    outer loop
      vertex -56.5685 83.2352 8
      vertex -56.5685 83.2352 0
      vertex 0 26.6667 0
    endloop
  endfacet
  facet normal -0.707107 -0.707107 0
    outer loop
      vertex 0 26.6667 8
      vertex -56.5685 83.2352 8
      vertex 0 26.6667 0
    endloop
  endfacet
  facet normal 0 0 -1
    outer loop
      vertex -15.3043 52.4586 0
      vertex 0 26.6667 0
      vertex -16.0867 53.0064 0
    endloop
  endfacet
  facet normal 0 0 -1
    outer loop
      vertex -16.7984 55.6627 0
      vertex -42.4264 97.3773 0
      vertex -25 79.9509 0
    endloop
  endfacet
  facet normal 0 0 -1
    outer loop
      vertex 9.52247 72.7082 0
      vertex -25 80 0
      vertex 20 80 0
    endloop
  endfacet
  facet normal 0 0 -1
    outer loop
      vertex 12.75 10 0
      vertex 20 80 0
      vertex 20 0 0
    endloop
  endfacet
  facet normal 0 0 -1
    outer loop
      vertex -56.5685 83.2352 0
      vertex -42.4264 97.3773 0
      vertex -45.0827 83.947 0
    endloop
  endfacet
  facet normal 0 0 -1
    outer loop
      vertex -56.5685 83.2352 0
      vertex -45.0827 83.947 0
      vertex -45.1659 82.9955 0
    endloop
  endfacet
  facet normal 0 0 -1
    outer loop
      vertex -56.5685 83.2352 0
      vertex -45.1659 82.9955 0
      vertex -44.9188 82.073 0
    endloop
  endfacet
  facet normal 0 0 -1
    outer loop
      vertex -56.5685 83.2352 0
      vertex -44.9188 82.073 0
      vertex -44.371 81.2907 0
    endloop
  endfacet
  facet normal 0 0 -1
    outer loop
      vertex -56.5685 83.2352 0
      vertex -44.371 81.2907 0
      vertex 0 26.6667 0
    endloop
  endfacet
  facet normal 0 0 -1
    outer loop
      vertex -42.6661 80.4957 0
      vertex 0 26.6667 0
      vertex -43.5886 80.7429 0
    endloop
  endfacet
  facet normal 0 0 -1
    outer loop
      vertex -41.7147 80.5789 0
      vertex 0 26.6667 0
      vertex -42.6661 80.4957 0
    endloop
  endfacet
  facet normal 0 0 -1
    outer loop
      vertex -16.8817 54.7113 0
      vertex -42.4264 97.3773 0
      vertex -16.7984 55.6627 0
    endloop
  endfacet
  facet normal 0 0 -1
    outer loop
      vertex -40.4819 85.1798 0
      vertex -42.4264 97.3773 0
      vertex -39.9341 84.3974 0
    endloop
  endfacet
  facet normal 0 0 -1
    outer loop
      vertex -14.3818 52.2114 0
      vertex 0 26.6667 0
      vertex -15.3043 52.4586 0
    endloop
  endfacet
  facet normal 0 0 -1
    outer loop
      vertex -41.7147 80.5789 0
      vertex -40.8491 80.9825 0
      vertex 0 26.6667 0
    endloop
  endfacet
  facet normal 0 0 -1
    outer loop
      vertex -42.1867 85.9747 0
      vertex -42.4264 97.3773 0
      vertex -41.2642 85.7276 0
    endloop
  endfacet
  facet normal 0 0 -1
    outer loop
      vertex -40.8491 80.9825 0
      vertex -40.1737 81.6579 0
      vertex 0 26.6667 0
    endloop
  endfacet
  facet normal 0 0 -1
    outer loop
      vertex -41.2642 85.7276 0
      vertex -42.4264 97.3773 0
      vertex -40.4819 85.1798 0
    endloop
  endfacet
  facet normal 0 0 -1
    outer loop
      vertex -40.1737 81.6579 0
      vertex -39.7701 82.5235 0
      vertex 0 26.6667 0
    endloop
  endfacet
  facet normal 0 0 -1
    outer loop
      vertex -39.9341 84.3974 0
      vertex -42.4264 97.3773 0
      vertex -39.6869 83.4749 0
    endloop
  endfacet
  facet normal 0 0 -1
    outer loop
      vertex -39.7701 82.5235 0
      vertex -39.6869 83.4749 0
      vertex 0 26.6667 0
    endloop
  endfacet
  facet normal 0 0 -1
    outer loop
      vertex -43.1382 85.8915 0
      vertex -42.4264 97.3773 0
      vertex -42.1867 85.9747 0
    endloop
  endfacet
  facet normal 0 0 -1
    outer loop
      vertex -44.0037 85.4879 0
      vertex -42.4264 97.3773 0
      vertex -43.1382 85.8915 0
    endloop
  endfacet
  facet normal 0 0 -1
    outer loop
      vertex -44.6791 84.8125 0
      vertex -42.4264 97.3773 0
      vertex -44.0037 85.4879 0
    endloop
  endfacet
  facet normal 0 0 -1
    outer loop
      vertex -45.0827 83.947 0
      vertex -42.4264 97.3773 0
      vertex -44.6791 84.8125 0
    endloop
  endfacet
  facet normal 0 0 -1
    outer loop
      vertex -16.3948 56.5283 0
      vertex -16.7984 55.6627 0
      vertex -25 79.9509 0
    endloop
  endfacet
  facet normal 0 0 -1
    outer loop
      vertex -39.6869 83.4749 0
      vertex -42.4264 97.3773 0
      vertex -16.8817 54.7113 0
    endloop
  endfacet
  facet normal 0 0 -1
    outer loop
      vertex -39.6869 83.4749 0
      vertex -16.8817 54.7113 0
      vertex -16.6345 53.7887 0
    endloop
  endfacet
  facet normal 0 0 -1
    outer loop
      vertex -39.6869 83.4749 0
      vertex -16.6345 53.7887 0
      vertex 0 26.6667 0
    endloop
  endfacet
  facet normal 0 0 -1
    outer loop
      vertex -16.6345 53.7887 0
      vertex -16.0867 53.0064 0
      vertex 0 26.6667 0
    endloop
  endfacet
  facet normal 0 0 -1
    outer loop
      vertex -11.8895 53.3736 0
      vertex 0 26.6667 0
      vertex -12.5648 52.6983 0
    endloop
  endfacet
  facet normal 0 0 -1
    outer loop
      vertex 0 26.6667 0
      vertex -14.3818 52.2114 0
      vertex -13.4304 52.2946 0
    endloop
  endfacet
  facet normal 0 0 -1
    outer loop
      vertex 0 26.6667 0
      vertex -13.4304 52.2946 0
      vertex -12.5648 52.6983 0
    endloop
  endfacet
  facet normal 0 0 -1
    outer loop
      vertex -12.9799 57.4433 0
      vertex -25 80 0
      vertex -12.1976 56.8955 0
    endloop
  endfacet
  facet normal 0 0 -1
    outer loop
      vertex 10.4775 67.2918 0
      vertex 0 54.9509 0
      vertex 0 55 0
    endloop
  endfacet
  facet normal 0 0 -1
    outer loop
      vertex -14.8539 57.6072 0
      vertex -25 79.9509 0
      vertex -25 80 0
    endloop
  endfacet
  facet normal 0 0 -1
    outer loop
      vertex 10.4775 67.2918 0
      vertex 0 55 0
      vertex -0.0490621 55 0
    endloop
  endfacet
  facet normal 0 0 -1
    outer loop
      vertex -13.9025 57.6905 0
      vertex -25 80 0
      vertex -12.9799 57.4433 0
    endloop
  endfacet
  facet normal 0 0 -1
    outer loop
      vertex 10.4775 67.2918 0
      vertex -0.0490621 55 0
      vertex 9.52247 67.2918 0
    endloop
  endfacet
  facet normal 0 0 -1
    outer loop
      vertex -12.1976 56.8955 0
      vertex -25 80 0
      vertex -11.6498 56.1131 0
    endloop
  endfacet
  facet normal 0 0 -1
    outer loop
      vertex 7.41585 69.0594 0
      vertex -11.4858 54.2392 0
      vertex -11.4026 55.1906 0
    endloop
  endfacet
  facet normal 0 0 -1
    outer loop
      vertex -14.8539 57.6072 0
      vertex -25 80 0
      vertex -13.9025 57.6905 0
    endloop
  endfacet
  facet normal 0 0 -1
    outer loop
      vertex -15.7195 57.2036 0
      vertex -25 79.9509 0
      vertex -14.8539 57.6072 0
    endloop
  endfacet
  facet normal 0 0 -1
    outer loop
      vertex -16.3948 56.5283 0
      vertex -25 79.9509 0
      vertex -15.7195 57.2036 0
    endloop
  endfacet
  facet normal 0 0 -1
    outer loop
      vertex 9.52247 7.29178 0
      vertex 20 0 0
      vertex 8.625 7.61843 0
    endloop
  endfacet
  facet normal 0 0 -1
    outer loop
      vertex 0 26.6667 0
      vertex -11.8895 53.3736 0
      vertex -0.0490621 55 0
    endloop
  endfacet
  facet normal 0 0 -1
    outer loop
      vertex 0 26.6667 0
      vertex -0.0490621 55 0
      vertex 0 54.9509 0
    endloop
  endfacet
  facet normal 0 0 -1
    outer loop
      vertex 12.75 70 0
      vertex 20 80 0
      vertex 12.5842 69.0594 0
    endloop
  endfacet
  facet normal 0 0 -1
    outer loop
      vertex 7.41585 9.05944 0
      vertex 0 0 0
      vertex 7.25 10 0
    endloop
  endfacet
  facet normal 0 0 -1
    outer loop
      vertex 7.89338 8.23233 0
      vertex 0 0 0
      vertex 7.41585 9.05944 0
    endloop
  endfacet
  facet normal 0 0 -1
    outer loop
      vertex 8.625 7.61843 0
      vertex 0 0 0
      vertex 7.89338 8.23233 0
    endloop
  endfacet
  facet normal 0 0 -1
    outer loop
      vertex 20 0 0
      vertex 0 0 0
      vertex 8.625 7.61843 0
    endloop
  endfacet
  facet normal 0 0 -1
    outer loop
      vertex 10.4775 7.29178 0
      vertex 20 0 0
      vertex 9.52247 7.29178 0
    endloop
  endfacet
  facet normal 0 0 -1
    outer loop
      vertex 11.375 7.61843 0
      vertex 20 0 0
      vertex 10.4775 7.29178 0
    endloop
  endfacet
  facet normal 0 0 -1
    outer loop
      vertex 12.5842 9.05944 0
      vertex 20 0 0
      vertex 12.1066 8.23233 0
    endloop
  endfacet
  facet normal 0 0 -1
    outer loop
      vertex 20 0 0
      vertex 11.375 7.61843 0
      vertex 12.1066 8.23233 0
    endloop
  endfacet
  facet normal 0 0 -1
    outer loop
      vertex 12.5842 10.9406 0
      vertex 20 80 0
      vertex 12.75 10 0
    endloop
  endfacet
  facet normal 0 0 -1
    outer loop
      vertex 11.375 12.3816 0
      vertex 0 26.6667 0
      vertex 12.1066 11.7677 0
    endloop
  endfacet
  facet normal 0 0 -1
    outer loop
      vertex 12.1066 11.7677 0
      vertex 20 80 0
      vertex 12.5842 10.9406 0
    endloop
  endfacet
  facet normal 0 0 -1
    outer loop
      vertex 0 26.6667 0
      vertex 20 80 0
      vertex 12.1066 11.7677 0
    endloop
  endfacet
  facet normal 0 0 -1
    outer loop
      vertex 10.4775 12.7082 0
      vertex 0 26.6667 0
      vertex 11.375 12.3816 0
    endloop
  endfacet
  facet normal 0 0 -1
    outer loop
      vertex 9.52247 12.7082 0
      vertex 0 26.6667 0
      vertex 10.4775 12.7082 0
    endloop
  endfacet
  facet normal 0 0 -1
    outer loop
      vertex 7.25 70 0
      vertex -11.6498 56.1131 0
      vertex 7.41585 70.9406 0
    endloop
  endfacet
  facet normal 0 0 -1
    outer loop
      vertex -43.5886 80.7429 0
      vertex 0 26.6667 0
      vertex -44.371 81.2907 0
    endloop
  endfacet
  facet normal 0 0 -1
    outer loop
      vertex 12.75 10 0
      vertex 20 0 0
      vertex 12.5842 9.05944 0
    endloop
  endfacet
  facet normal 0 0 -1
    outer loop
      vertex -11.4026 55.1906 0
      vertex -11.6498 56.1131 0
      vertex 7.25 70 0
    endloop
  endfacet
  facet normal 0 0 -1
    outer loop
      vertex 12.1066 71.7677 0
      vertex 20 80 0
      vertex 12.5842 70.9406 0
    endloop
  endfacet
  facet normal 0 0 -1
    outer loop
      vertex -0.0490621 55 0
      vertex -11.8895 53.3736 0
      vertex 7.41585 69.0594 0
    endloop
  endfacet
  facet normal 0 0 -1
    outer loop
      vertex -0.0490621 55 0
      vertex 7.41585 69.0594 0
      vertex 7.89338 68.2323 0
    endloop
  endfacet
  facet normal 0 0 -1
    outer loop
      vertex -0.0490621 55 0
      vertex 7.89338 68.2323 0
      vertex 8.625 67.6184 0
    endloop
  endfacet
  facet normal 0 0 -1
    outer loop
      vertex -0.0490621 55 0
      vertex 8.625 67.6184 0
      vertex 9.52247 67.2918 0
    endloop
  endfacet
  facet normal 0 0 -1
    outer loop
      vertex 0 26.6667 0
      vertex 0 54.9509 0
      vertex 10.4775 67.2918 0
    endloop
  endfacet
  facet normal 0 0 -1
    outer loop
      vertex 0 26.6667 0
      vertex 10.4775 67.2918 0
      vertex 11.375 67.6184 0
    endloop
  endfacet
  facet normal 0 0 -1
    outer loop
      vertex 0 26.6667 0
      vertex 11.375 67.6184 0
      vertex 12.1066 68.2323 0
    endloop
  endfacet
  facet normal 0 0 -1
    outer loop
      vertex 0 26.6667 0
      vertex 12.1066 68.2323 0
      vertex 20 80 0
    endloop
  endfacet
  facet normal 0 0 -1
    outer loop
      vertex 12.1066 68.2323 0
      vertex 12.5842 69.0594 0
      vertex 20 80 0
    endloop
  endfacet
  facet normal 0 0 -1
    outer loop
      vertex 12.5842 70.9406 0
      vertex 20 80 0
      vertex 12.75 70 0
    endloop
  endfacet
  facet normal 0 0 -1
    outer loop
      vertex 11.375 72.3816 0
      vertex 20 80 0
      vertex 12.1066 71.7677 0
    endloop
  endfacet
  facet normal 0 0 -1
    outer loop
      vertex 10.4775 72.7082 0
      vertex 20 80 0
      vertex 11.375 72.3816 0
    endloop
  endfacet
  facet normal 0 0 -1
    outer loop
      vertex 7.41585 69.0594 0
      vertex -11.8895 53.3736 0
      vertex -11.4858 54.2392 0
    endloop
  endfacet
  facet normal 0 0 -1
    outer loop
      vertex 9.52247 72.7082 0
      vertex 20 80 0
      vertex 10.4775 72.7082 0
    endloop
  endfacet
  facet normal 0 0 -1
    outer loop
      vertex 8.625 72.3816 0
      vertex -25 80 0
      vertex 9.52247 72.7082 0
    endloop
  endfacet
  facet normal 0 0 -1
    outer loop
      vertex 7.41585 70.9406 0
      vertex -11.6498 56.1131 0
      vertex 7.89338 71.7677 0
    endloop
  endfacet
  facet normal 0 0 -1
    outer loop
      vertex -11.6498 56.1131 0
      vertex -25 80 0
      vertex 8.625 72.3816 0
    endloop
  endfacet
  facet normal 0 0 -1
    outer loop
      vertex -11.6498 56.1131 0
      vertex 8.625 72.3816 0
      vertex 7.89338 71.7677 0
    endloop
  endfacet
  facet normal 0 0 -1
    outer loop
      vertex 7.41585 69.0594 0
      vertex -11.4026 55.1906 0
      vertex 7.25 70 0
    endloop
  endfacet
  facet normal 0 0 -1
    outer loop
      vertex 0 26.6667 0
      vertex 9.52247 12.7082 0
      vertex 8.625 12.3816 0
    endloop
  endfacet
  facet normal 0 0 -1
    outer loop
      vertex 0 26.6667 0
      vertex 8.625 12.3816 0
      vertex 7.89338 11.7677 0
    endloop
  endfacet
  facet normal 0 0 -1
    outer loop
      vertex 0 26.6667 0
      vertex 7.89338 11.7677 0
      vertex 7.41585 10.9406 0
    endloop
  endfacet
  facet normal 0 0 -1
    outer loop
      vertex 0 26.6667 0
      vertex 7.41585 10.9406 0
      vertex 7.25 10 0
    endloop
  endfacet
  facet normal 0 0 -1
    outer loop
      vertex 0 26.6667 0
      vertex 7.25 10 0
      vertex 0 0 0
    endloop
  endfacet
  facet normal -0.707107 0.707107 0
    outer loop
      vertex -56.5685 83.2352 0
      vertex -56.5685 83.2352 8
      vertex -42.4264 97.3773 0
    endloop
  endfacet
  facet normal -0.707107 0.707107 0
    outer loop
      vertex -42.4264 97.3773 0
      vertex -56.5685 83.2352 8
      vertex -42.4264 97.3773 8
    endloop
  endfacet
  facet normal 0 0 1
    outer loop
      vertex -43.5886 80.7429 8
      vertex -56.5685 83.2352 8
      vertex 0 26.6667 8
    endloop
  endfacet
  facet normal 0 0 1
    outer loop
      vertex 12.5842 10.9406 8
      vertex 12.75 10 8
      vertex 20 0 8
    endloop
  endfacet
  facet normal 0 0 1
    outer loop
      vertex 8.625 72.3816 8
      vertex 20 80 8
      vertex -25 80 8
    endloop
  endfacet
  facet normal 0 0 1
    outer loop
      vertex -15.7195 57.2036 8
      vertex -25 79.9509 8
      vertex -42.4264 97.3773 8
    endloop
  endfacet
  facet normal 0 0 1
    outer loop
      vertex 20 0 8
      vertex -25 80 8
      vertex -25 79.9509 8
    endloop
  endfacet
  facet normal 0 0 1
    outer loop
      vertex -45.0827 83.947 8
      vertex -56.5685 83.2352 8
      vertex -45.1659 82.9955 8
    endloop
  endfacet
  facet normal 0 0 1
    outer loop
      vertex -39.9341 84.3974 8
      vertex -39.6869 83.4749 8
      vertex 0 26.6667 8
    endloop
  endfacet
  facet normal 0 0 1
    outer loop
      vertex -42.4264 97.3773 8
      vertex -56.5685 83.2352 8
      vertex -45.0827 83.947 8
    endloop
  endfacet
  facet normal 0 0 1
    outer loop
      vertex -42.6661 80.4957 8
      vertex -43.5886 80.7429 8
      vertex 0 26.6667 8
    endloop
  endfacet
  facet normal 0 0 1
    outer loop
      vertex -40.8491 80.9825 8
      vertex -41.7147 80.5789 8
      vertex 0 26.6667 8
    endloop
  endfacet
  facet normal 0 0 1
    outer loop
      vertex -42.4264 97.3773 8
      vertex -44.6791 84.8125 8
      vertex -44.0037 85.4879 8
    endloop
  endfacet
  facet normal 0 0 1
    outer loop
      vertex -40.1737 81.6579 8
      vertex -40.8491 80.9825 8
      vertex 0 26.6667 8
    endloop
  endfacet
  facet normal 0 0 1
    outer loop
      vertex -42.4264 97.3773 8
      vertex -44.0037 85.4879 8
      vertex -43.1382 85.8915 8
    endloop
  endfacet
  facet normal 0 0 1
    outer loop
      vertex -39.7701 82.5235 8
      vertex -40.1737 81.6579 8
      vertex 0 26.6667 8
    endloop
  endfacet
  facet normal 0 0 1
    outer loop
      vertex -42.4264 97.3773 8
      vertex -43.1382 85.8915 8
      vertex -42.1867 85.9747 8
    endloop
  endfacet
  facet normal 0 0 1
    outer loop
      vertex -16.8817 54.7113 8
      vertex -16.7984 55.6627 8
      vertex -42.4264 97.3773 8
    endloop
  endfacet
  facet normal 0 0 1
    outer loop
      vertex -42.4264 97.3773 8
      vertex -42.1867 85.9747 8
      vertex -41.2642 85.7276 8
    endloop
  endfacet
  facet normal 0 0 1
    outer loop
      vertex -42.4264 97.3773 8
      vertex -41.2642 85.7276 8
      vertex -40.4819 85.1798 8
    endloop
  endfacet
  facet normal 0 0 1
    outer loop
      vertex -16.0867 53.0064 8
      vertex -39.9341 84.3974 8
      vertex 0 26.6667 8
    endloop
  endfacet
  facet normal 0 0 1
    outer loop
      vertex -42.4264 97.3773 8
      vertex -40.4819 85.1798 8
      vertex -39.9341 84.3974 8
    endloop
  endfacet
  facet normal 0 0 1
    outer loop
      vertex -41.7147 80.5789 8
      vertex -42.6661 80.4957 8
      vertex 0 26.6667 8
    endloop
  endfacet
  facet normal 0 0 1
    outer loop
      vertex -0.0490621 55 8
      vertex 0 55 8
      vertex -25 80 8
    endloop
  endfacet
  facet normal 0 0 1
    outer loop
      vertex -44.371 81.2907 8
      vertex -56.5685 83.2352 8
      vertex -43.5886 80.7429 8
    endloop
  endfacet
  facet normal 0 0 1
    outer loop
      vertex -44.9188 82.073 8
      vertex -56.5685 83.2352 8
      vertex -44.371 81.2907 8
    endloop
  endfacet
  facet normal 0 0 1
    outer loop
      vertex -45.1659 82.9955 8
      vertex -56.5685 83.2352 8
      vertex -44.9188 82.073 8
    endloop
  endfacet
  facet normal 0 0 1
    outer loop
      vertex -16.3948 56.5283 8
      vertex -15.7195 57.2036 8
      vertex -42.4264 97.3773 8
    endloop
  endfacet
  facet normal 0 0 1
    outer loop
      vertex -42.4264 97.3773 8
      vertex -39.9341 84.3974 8
      vertex -16.8817 54.7113 8
    endloop
  endfacet
  facet normal 0 0 1
    outer loop
      vertex -15.3043 52.4586 8
      vertex -16.0867 53.0064 8
      vertex 0 26.6667 8
    endloop
  endfacet
  facet normal 0 0 1
    outer loop
      vertex -16.3948 56.5283 8
      vertex -42.4264 97.3773 8
      vertex -16.7984 55.6627 8
    endloop
  endfacet
  facet normal 0 0 1
    outer loop
      vertex -14.3818 52.2114 8
      vertex 11.375 12.3816 8
      vertex 12.1066 11.7677 8
    endloop
  endfacet
  facet normal 0 0 1
    outer loop
      vertex -14.8539 57.6072 8
      vertex -25 79.9509 8
      vertex -15.7195 57.2036 8
    endloop
  endfacet
  facet normal 0 0 1
    outer loop
      vertex -13.9025 57.6905 8
      vertex -25 79.9509 8
      vertex -14.8539 57.6072 8
    endloop
  endfacet
  facet normal 0 0 1
    outer loop
      vertex -12.9799 57.4433 8
      vertex -25 79.9509 8
      vertex -13.9025 57.6905 8
    endloop
  endfacet
  facet normal 0 0 1
    outer loop
      vertex -12.1976 56.8955 8
      vertex -25 79.9509 8
      vertex -12.9799 57.4433 8
    endloop
  endfacet
  facet normal 0 0 1
    outer loop
      vertex -11.6498 56.1131 8
      vertex -25 79.9509 8
      vertex -12.1976 56.8955 8
    endloop
  endfacet
  facet normal 0 0 1
    outer loop
      vertex -11.4026 55.1906 8
      vertex -11.4858 54.2392 8
      vertex 20 0 8
    endloop
  endfacet
  facet normal 0 0 1
    outer loop
      vertex 20 0 8
      vertex -25 79.9509 8
      vertex -11.6498 56.1131 8
    endloop
  endfacet
  facet normal 0 0 1
    outer loop
      vertex -11.4858 54.2392 8
      vertex -11.8895 53.3736 8
      vertex 20 0 8
    endloop
  endfacet
  facet normal 0 0 1
    outer loop
      vertex -11.8895 53.3736 8
      vertex -12.5648 52.6983 8
      vertex 20 0 8
    endloop
  endfacet
  facet normal 0 0 1
    outer loop
      vertex -12.5648 52.6983 8
      vertex -13.4304 52.2946 8
      vertex 20 0 8
    endloop
  endfacet
  facet normal 0 0 1
    outer loop
      vertex -13.4304 52.2946 8
      vertex -14.3818 52.2114 8
      vertex 20 0 8
    endloop
  endfacet
  facet normal 0 0 1
    outer loop
      vertex -11.6498 56.1131 8
      vertex -11.4026 55.1906 8
      vertex 20 0 8
    endloop
  endfacet
  facet normal 0 0 1
    outer loop
      vertex -14.3818 52.2114 8
      vertex 12.1066 11.7677 8
      vertex 20 0 8
    endloop
  endfacet
  facet normal 0 0 1
    outer loop
      vertex -16.6345 53.7887 8
      vertex -39.9341 84.3974 8
      vertex -16.0867 53.0064 8
    endloop
  endfacet
  facet normal 0 0 1
    outer loop
      vertex -16.8817 54.7113 8
      vertex -39.9341 84.3974 8
      vertex -16.6345 53.7887 8
    endloop
  endfacet
  facet normal 0 0 1
    outer loop
      vertex 20 0 8
      vertex -0.0490621 55 8
      vertex -25 80 8
    endloop
  endfacet
  facet normal 0 0 1
    outer loop
      vertex 20 0 8
      vertex 0 54.9509 8
      vertex -0.0490621 55 8
    endloop
  endfacet
  facet normal 0 0 1
    outer loop
      vertex 11.375 67.6184 8
      vertex 10.4775 67.2918 8
      vertex 0 54.9509 8
    endloop
  endfacet
  facet normal 0 0 1
    outer loop
      vertex 0 0 8
      vertex 7.41585 9.05944 8
      vertex 0 26.6667 8
    endloop
  endfacet
  facet normal 0 0 1
    outer loop
      vertex 7.41585 9.05944 8
      vertex 7.25 10 8
      vertex 0 26.6667 8
    endloop
  endfacet
  facet normal 0 0 1
    outer loop
      vertex 7.25 10 8
      vertex 7.41585 10.9406 8
      vertex 0 26.6667 8
    endloop
  endfacet
  facet normal 0 0 1
    outer loop
      vertex 10.4775 7.29178 8
      vertex 9.52247 7.29178 8
      vertex 20 0 8
    endloop
  endfacet
  facet normal 0 0 1
    outer loop
      vertex 7.41585 10.9406 8
      vertex 7.89338 11.7677 8
      vertex 0 26.6667 8
    endloop
  endfacet
  facet normal 0 0 1
    outer loop
      vertex 7.89338 11.7677 8
      vertex 8.625 12.3816 8
      vertex 0 26.6667 8
    endloop
  endfacet
  facet normal 0 0 1
    outer loop
      vertex 8.625 12.3816 8
      vertex 9.52247 12.7082 8
      vertex 0 26.6667 8
    endloop
  endfacet
  facet normal 0 0 1
    outer loop
      vertex 12.1066 8.23233 8
      vertex 11.375 7.61843 8
      vertex 20 0 8
    endloop
  endfacet
  facet normal 0 0 1
    outer loop
      vertex 9.52247 12.7082 8
      vertex 10.4775 12.7082 8
      vertex 0 26.6667 8
    endloop
  endfacet
  facet normal 0 0 1
    outer loop
      vertex 10.4775 67.2918 8
      vertex 9.52247 67.2918 8
      vertex 0 55 8
    endloop
  endfacet
  facet normal 0 0 1
    outer loop
      vertex 12.75 10 8
      vertex 12.5842 9.05944 8
      vertex 20 0 8
    endloop
  endfacet
  facet normal 0 0 1
    outer loop
      vertex 20 0 8
      vertex 12.1066 11.7677 8
      vertex 12.5842 10.9406 8
    endloop
  endfacet
  facet normal 0 0 1
    outer loop
      vertex 12.5842 9.05944 8
      vertex 12.1066 8.23233 8
      vertex 20 0 8
    endloop
  endfacet
  facet normal 0 0 1
    outer loop
      vertex 11.375 7.61843 8
      vertex 10.4775 7.29178 8
      vertex 20 0 8
    endloop
  endfacet
  facet normal 0 0 1
    outer loop
      vertex 10.4775 72.7082 8
      vertex 11.375 72.3816 8
      vertex 20 80 8
    endloop
  endfacet
  facet normal 0 0 1
    outer loop
      vertex 8.625 72.3816 8
      vertex 9.52247 72.7082 8
      vertex 20 80 8
    endloop
  endfacet
  facet normal 0 0 1
    outer loop
      vertex 0 0 8
      vertex 20 0 8
      vertex 9.52247 7.29178 8
    endloop
  endfacet
  facet normal 0 0 1
    outer loop
      vertex 0 0 8
      vertex 9.52247 7.29178 8
      vertex 8.625 7.61843 8
    endloop
  endfacet
  facet normal 0 0 1
    outer loop
      vertex 0 0 8
      vertex 7.89338 8.23233 8
      vertex 7.41585 9.05944 8
    endloop
  endfacet
  facet normal 0 0 1
    outer loop
      vertex 0 0 8
      vertex 8.625 7.61843 8
      vertex 7.89338 8.23233 8
    endloop
  endfacet
  facet normal 0 0 1
    outer loop
      vertex 0 55 8
      vertex 7.41585 69.0594 8
      vertex -25 80 8
    endloop
  endfacet
  facet normal 0 0 1
    outer loop
      vertex 7.41585 69.0594 8
      vertex 7.25 70 8
      vertex -25 80 8
    endloop
  endfacet
  facet normal 0 0 1
    outer loop
      vertex 9.52247 67.2918 8
      vertex 8.625 67.6184 8
      vertex 0 55 8
    endloop
  endfacet
  facet normal 0 0 1
    outer loop
      vertex 7.25 70 8
      vertex 7.41585 70.9406 8
      vertex -25 80 8
    endloop
  endfacet
  facet normal 0 0 1
    outer loop
      vertex 7.41585 70.9406 8
      vertex 7.89338 71.7677 8
      vertex -25 80 8
    endloop
  endfacet
  facet normal 0 0 1
    outer loop
      vertex 7.89338 71.7677 8
      vertex 8.625 72.3816 8
      vertex -25 80 8
    endloop
  endfacet
  facet normal 0 0 1
    outer loop
      vertex 9.52247 72.7082 8
      vertex 10.4775 72.7082 8
      vertex 20 80 8
    endloop
  endfacet
  facet normal 0 0 1
    outer loop
      vertex 12.5842 70.9406 8
      vertex 12.75 70 8
      vertex 20 80 8
    endloop
  endfacet
  facet normal 0 0 1
    outer loop
      vertex 12.1066 71.7677 8
      vertex 20 80 8
      vertex 11.375 72.3816 8
    endloop
  endfacet
  facet normal 0 0 1
    outer loop
      vertex 12.5842 70.9406 8
      vertex 20 80 8
      vertex 12.1066 71.7677 8
    endloop
  endfacet
  facet normal 0 0 1
    outer loop
      vertex 10.4775 67.2918 8
      vertex 0 55 8
      vertex 0 54.9509 8
    endloop
  endfacet
  facet normal 0 0 1
    outer loop
      vertex 20 0 8
      vertex 20 80 8
      vertex 12.75 70 8
    endloop
  endfacet
  facet normal 0 0 1
    outer loop
      vertex 20 0 8
      vertex 12.75 70 8
      vertex 12.5842 69.0594 8
    endloop
  endfacet
  facet normal 0 0 1
    outer loop
      vertex 20 0 8
      vertex 12.1066 68.2323 8
      vertex 0 54.9509 8
    endloop
  endfacet
  facet normal 0 0 1
    outer loop
      vertex 20 0 8
      vertex 12.5842 69.0594 8
      vertex 12.1066 68.2323 8
    endloop
  endfacet
  facet normal 0 0 1
    outer loop
      vertex 12.1066 68.2323 8
      vertex 11.375 67.6184 8
      vertex 0 54.9509 8
    endloop
  endfacet
  facet normal 0 0 1
    outer loop
      vertex 8.625 67.6184 8
      vertex 7.89338 68.2323 8
      vertex 0 55 8
    endloop
  endfacet
  facet normal 0 0 1
    outer loop
      vertex 0 55 8
      vertex 7.89338 68.2323 8
      vertex 7.41585 69.0594 8
    endloop
  endfacet
  facet normal 0 0 1
    outer loop
      vertex -45.0827 83.947 8
      vertex -44.6791 84.8125 8
      vertex -42.4264 97.3773 8
    endloop
  endfacet
  facet normal 0 0 1
    outer loop
      vertex -39.6869 83.4749 8
      vertex -39.7701 82.5235 8
      vertex 0 26.6667 8
    endloop
  endfacet
  facet normal 0 0 1
    outer loop
      vertex -14.3818 52.2114 8
      vertex 10.4775 12.7082 8
      vertex 11.375 12.3816 8
    endloop
  endfacet
  facet normal 0 0 1
    outer loop
      vertex -14.3818 52.2114 8
      vertex 0 26.6667 8
      vertex 10.4775 12.7082 8
    endloop
  endfacet
  facet normal 0 0 1
    outer loop
      vertex -14.3818 52.2114 8
      vertex -15.3043 52.4586 8
      vertex 0 26.6667 8
    endloop
  endfacet
  facet normal -1 0 0
    outer loop
      vertex 0 0 0
      vertex 0 0 8
      vertex 0 26.6667 0
    endloop
  endfacet
  facet normal -1 0 0
    outer loop
      vertex 0 26.6667 0
      vertex 0 0 8
      vertex 0 26.6667 8
    endloop
  endfacet
  facet normal 0 -1 0
    outer loop
      vertex 0 0 8
      vertex 0 0 0
      vertex 20 0 0
    endloop
  endfacet
  facet normal 0 -1 0
    outer loop
      vertex 20 0 8
      vertex 0 0 8
      vertex 20 0 0
    endloop
  endfacet
  facet normal 1 0 0
    outer loop
      vertex 20 0 8
      vertex 20 0 0
      vertex 20 80 0
    endloop
  endfacet
  facet normal 1 0 0
    outer loop
      vertex 20 80 8
      vertex 20 0 8
      vertex 20 80 0
    endloop
  endfacet
  facet normal 0 1 0
    outer loop
      vertex -25 80 0
      vertex -25 80 8
      vertex 20 80 0
    endloop
  endfacet
  facet normal 0 1 0
    outer loop
      vertex 20 80 0
      vertex -25 80 8
      vertex 20 80 8
    endloop
  endfacet
  facet normal -1 0 0
    outer loop
      vertex -25 79.9509 0
      vertex -25 79.9509 8
      vertex -25 80 0
    endloop
  endfacet
  facet normal -1 0 0
    outer loop
      vertex -25 80 0
      vertex -25 79.9509 8
      vertex -25 80 8
    endloop
  endfacet
  facet normal 0.707107 0.707107 0
    outer loop
      vertex -42.4264 97.3773 0
      vertex -42.4264 97.3773 8
      vertex -25 79.9509 0
    endloop
  endfacet
  facet normal 0.707107 0.707107 0
    outer loop
      vertex -25 79.9509 0
      vertex -42.4264 97.3773 8
      vertex -25 79.9509 8
    endloop
  endfacet
  facet normal 0.996195 -0.0871555 0
    outer loop
      vertex -45.0827 83.947 0
      vertex -45.0827 83.947 8
      vertex -45.1659 82.9955 8
    endloop
  endfacet
  facet normal 0.996195 -0.0871555 0
    outer loop
      vertex -45.1659 82.9955 0
      vertex -45.0827 83.947 0
      vertex -45.1659 82.9955 8
    endloop
  endfacet
  facet normal 0.906308 -0.422619 0
    outer loop
      vertex -44.6791 84.8125 0
      vertex -44.6791 84.8125 8
      vertex -45.0827 83.947 8
    endloop
  endfacet
  facet normal 0.906308 -0.422619 0
    outer loop
      vertex -45.0827 83.947 0
      vertex -44.6791 84.8125 0
      vertex -45.0827 83.947 8
    endloop
  endfacet
  facet normal 0.707107 -0.707107 0
    outer loop
      vertex -44.0037 85.4879 0
      vertex -44.0037 85.4879 8
      vertex -44.6791 84.8125 8
    endloop
  endfacet
  facet normal 0.707107 -0.707107 0
    outer loop
      vertex -44.6791 84.8125 0
      vertex -44.0037 85.4879 0
      vertex -44.6791 84.8125 8
    endloop
  endfacet
  facet normal 0.422619 -0.906308 0
    outer loop
      vertex -43.1382 85.8915 0
      vertex -43.1382 85.8915 8
      vertex -44.0037 85.4879 8
    endloop
  endfacet
  facet normal 0.422619 -0.906308 0
    outer loop
      vertex -44.0037 85.4879 0
      vertex -43.1382 85.8915 0
      vertex -44.0037 85.4879 8
    endloop
  endfacet
  facet normal 0.0871555 -0.996195 0
    outer loop
      vertex -42.1867 85.9747 0
      vertex -42.1867 85.9747 8
      vertex -43.1382 85.8915 8
    endloop
  endfacet
  facet normal 0.0871555 -0.996195 0
    outer loop
      vertex -43.1382 85.8915 0
      vertex -42.1867 85.9747 0
      vertex -43.1382 85.8915 8
    endloop
  endfacet
  facet normal -0.258819 -0.965926 0
    outer loop
      vertex -41.2642 85.7276 0
      vertex -41.2642 85.7276 8
      vertex -42.1867 85.9747 8
    endloop
  endfacet
  facet normal -0.258819 -0.965926 0
    outer loop
      vertex -42.1867 85.9747 0
      vertex -41.2642 85.7276 0
      vertex -42.1867 85.9747 8
    endloop
  endfacet
  facet normal -0.573577 -0.819152 0
    outer loop
      vertex -40.4819 85.1798 0
      vertex -40.4819 85.1798 8
      vertex -41.2642 85.7276 8
    endloop
  endfacet
  facet normal -0.573577 -0.819152 0
    outer loop
      vertex -41.2642 85.7276 0
      vertex -40.4819 85.1798 0
      vertex -41.2642 85.7276 8
    endloop
  endfacet
  facet normal -0.819152 -0.573577 0
    outer loop
      vertex -39.9341 84.3974 8
      vertex -40.4819 85.1798 8
      vertex -39.9341 84.3974 0
    endloop
  endfacet
  facet normal -0.819152 -0.573577 0
    outer loop
      vertex -39.9341 84.3974 0
      vertex -40.4819 85.1798 8
      vertex -40.4819 85.1798 0
    endloop
  endfacet
  facet normal -0.965926 -0.258819 0
    outer loop
      vertex -39.6869 83.4749 8
      vertex -39.9341 84.3974 8
      vertex -39.6869 83.4749 0
    endloop
  endfacet
  facet normal -0.965926 -0.258819 0
    outer loop
      vertex -39.6869 83.4749 0
      vertex -39.9341 84.3974 8
      vertex -39.9341 84.3974 0
    endloop
  endfacet
  facet normal -0.996195 0.0871555 0
    outer loop
      vertex -39.6869 83.4749 8
      vertex -39.6869 83.4749 0
      vertex -39.7701 82.5235 8
    endloop
  endfacet
  facet normal -0.996195 0.0871555 0
    outer loop
      vertex -39.7701 82.5235 8
      vertex -39.6869 83.4749 0
      vertex -39.7701 82.5235 0
    endloop
  endfacet
  facet normal -0.906308 0.422619 0
    outer loop
      vertex -39.7701 82.5235 8
      vertex -39.7701 82.5235 0
      vertex -40.1737 81.6579 8
    endloop
  endfacet
  facet normal -0.906308 0.422619 0
    outer loop
      vertex -40.1737 81.6579 8
      vertex -39.7701 82.5235 0
      vertex -40.1737 81.6579 0
    endloop
  endfacet
  facet normal -0.707107 0.707107 0
    outer loop
      vertex -40.1737 81.6579 8
      vertex -40.1737 81.6579 0
      vertex -40.8491 80.9825 8
    endloop
  endfacet
  facet normal -0.707107 0.707107 0
    outer loop
      vertex -40.8491 80.9825 8
      vertex -40.1737 81.6579 0
      vertex -40.8491 80.9825 0
    endloop
  endfacet
  facet normal -0.422619 0.906308 0
    outer loop
      vertex -40.8491 80.9825 8
      vertex -40.8491 80.9825 0
      vertex -41.7147 80.5789 8
    endloop
  endfacet
  facet normal -0.422619 0.906308 0
    outer loop
      vertex -41.7147 80.5789 8
      vertex -40.8491 80.9825 0
      vertex -41.7147 80.5789 0
    endloop
  endfacet
  facet normal -0.0871555 0.996195 0
    outer loop
      vertex -41.7147 80.5789 8
      vertex -41.7147 80.5789 0
      vertex -42.6661 80.4957 8
    endloop
  endfacet
  facet normal -0.0871555 0.996195 0
    outer loop
      vertex -42.6661 80.4957 8
      vertex -41.7147 80.5789 0
      vertex -42.6661 80.4957 0
    endloop
  endfacet
  facet normal 0.258819 0.965926 0
    outer loop
      vertex -42.6661 80.4957 8
      vertex -42.6661 80.4957 0
      vertex -43.5886 80.7429 8
    endloop
  endfacet
  facet normal 0.258819 0.965926 0
    outer loop
      vertex -43.5886 80.7429 8
      vertex -42.6661 80.4957 0
      vertex -43.5886 80.7429 0
    endloop
  endfacet
  facet normal 0.573577 0.819152 0
    outer loop
      vertex -43.5886 80.7429 8
      vertex -43.5886 80.7429 0
      vertex -44.371 81.2907 8
    endloop
  endfacet
  facet normal 0.573577 0.819152 0
    outer loop
      vertex -44.371 81.2907 8
      vertex -43.5886 80.7429 0
      vertex -44.371 81.2907 0
    endloop
  endfacet
  facet normal 0.819152 0.573577 0
    outer loop
      vertex -44.9188 82.073 8
      vertex -44.371 81.2907 8
      vertex -44.371 81.2907 0
    endloop
  endfacet
  facet normal 0.819152 0.573577 0
    outer loop
      vertex -44.9188 82.073 0
      vertex -44.9188 82.073 8
      vertex -44.371 81.2907 0
    endloop
  endfacet
  facet normal 0.965926 0.258819 0
    outer loop
      vertex -45.1659 82.9955 8
      vertex -44.9188 82.073 8
      vertex -44.9188 82.073 0
    endloop
  endfacet
  facet normal 0.965926 0.258819 0
    outer loop
      vertex -45.1659 82.9955 0
      vertex -45.1659 82.9955 8
      vertex -44.9188 82.073 0
    endloop
  endfacet
  facet normal 0.996195 -0.0871555 0
    outer loop
      vertex -16.7984 55.6627 0
      vertex -16.7984 55.6627 8
      vertex -16.8817 54.7113 8
    endloop
  endfacet
  facet normal 0.996195 -0.0871555 0
    outer loop
      vertex -16.8817 54.7113 0
      vertex -16.7984 55.6627 0
      vertex -16.8817 54.7113 8
    endloop
  endfacet
  facet normal 0.906308 -0.422619 0
    outer loop
      vertex -16.3948 56.5283 0
      vertex -16.3948 56.5283 8
      vertex -16.7984 55.6627 8
    endloop
  endfacet
  facet normal 0.906308 -0.422619 0
    outer loop
      vertex -16.7984 55.6627 0
      vertex -16.3948 56.5283 0
      vertex -16.7984 55.6627 8
    endloop
  endfacet
  facet normal 0.707107 -0.707107 0
    outer loop
      vertex -15.7195 57.2036 0
      vertex -15.7195 57.2036 8
      vertex -16.3948 56.5283 8
    endloop
  endfacet
  facet normal 0.707107 -0.707107 0
    outer loop
      vertex -16.3948 56.5283 0
      vertex -15.7195 57.2036 0
      vertex -16.3948 56.5283 8
    endloop
  endfacet
  facet normal 0.422619 -0.906308 0
    outer loop
      vertex -14.8539 57.6072 0
      vertex -14.8539 57.6072 8
      vertex -15.7195 57.2036 8
    endloop
  endfacet
  facet normal 0.422619 -0.906308 0
    outer loop
      vertex -15.7195 57.2036 0
      vertex -14.8539 57.6072 0
      vertex -15.7195 57.2036 8
    endloop
  endfacet
  facet normal 0.0871555 -0.996195 0
    outer loop
      vertex -13.9025 57.6905 0
      vertex -13.9025 57.6905 8
      vertex -14.8539 57.6072 8
    endloop
  endfacet
  facet normal 0.0871555 -0.996195 0
    outer loop
      vertex -14.8539 57.6072 0
      vertex -13.9025 57.6905 0
      vertex -14.8539 57.6072 8
    endloop
  endfacet
  facet normal -0.258819 -0.965926 0
    outer loop
      vertex -12.9799 57.4433 0
      vertex -12.9799 57.4433 8
      vertex -13.9025 57.6905 8
    endloop
  endfacet
  facet normal -0.258819 -0.965926 0
    outer loop
      vertex -13.9025 57.6905 0
      vertex -12.9799 57.4433 0
      vertex -13.9025 57.6905 8
    endloop
  endfacet
  facet normal -0.573577 -0.819152 0
    outer loop
      vertex -12.1976 56.8955 0
      vertex -12.1976 56.8955 8
      vertex -12.9799 57.4433 8
    endloop
  endfacet
  facet normal -0.573577 -0.819152 0
    outer loop
      vertex -12.9799 57.4433 0
      vertex -12.1976 56.8955 0
      vertex -12.9799 57.4433 8
    endloop
  endfacet
  facet normal -0.819152 -0.573577 0
    outer loop
      vertex -11.6498 56.1131 8
      vertex -12.1976 56.8955 8
      vertex -11.6498 56.1131 0
    endloop
  endfacet
  facet normal -0.819152 -0.573577 0
    outer loop
      vertex -11.6498 56.1131 0
      vertex -12.1976 56.8955 8
      vertex -12.1976 56.8955 0
    endloop
  endfacet
  facet normal -0.965926 -0.258819 0
    outer loop
      vertex -11.4026 55.1906 8
      vertex -11.6498 56.1131 8
      vertex -11.4026 55.1906 0
    endloop
  endfacet
  facet normal -0.965926 -0.258819 0
    outer loop
      vertex -11.4026 55.1906 0
      vertex -11.6498 56.1131 8
      vertex -11.6498 56.1131 0
    endloop
  endfacet
  facet normal -0.996195 0.0871555 0
    outer loop
      vertex -11.4026 55.1906 8
      vertex -11.4026 55.1906 0
      vertex -11.4858 54.2392 8
    endloop
  endfacet
  facet normal -0.996195 0.0871555 0
    outer loop
      vertex -11.4858 54.2392 8
      vertex -11.4026 55.1906 0
      vertex -11.4858 54.2392 0
    endloop
  endfacet
  facet normal -0.906308 0.422619 0
    outer loop
      vertex -11.4858 54.2392 8
      vertex -11.4858 54.2392 0
      vertex -11.8895 53.3736 8
    endloop
  endfacet
  facet normal -0.906308 0.422619 0
    outer loop
      vertex -11.8895 53.3736 8
      vertex -11.4858 54.2392 0
      vertex -11.8895 53.3736 0
    endloop
  endfacet
  facet normal -0.707107 0.707107 0
    outer loop
      vertex -11.8895 53.3736 8
      vertex -11.8895 53.3736 0
      vertex -12.5648 52.6983 8
    endloop
  endfacet
  facet normal -0.707107 0.707107 0
    outer loop
      vertex -12.5648 52.6983 8
      vertex -11.8895 53.3736 0
      vertex -12.5648 52.6983 0
    endloop
  endfacet
  facet normal -0.422619 0.906308 0
    outer loop
      vertex -12.5648 52.6983 8
      vertex -12.5648 52.6983 0
      vertex -13.4304 52.2946 8
    endloop
  endfacet
  facet normal -0.422619 0.906308 0
    outer loop
      vertex -13.4304 52.2946 8
      vertex -12.5648 52.6983 0
      vertex -13.4304 52.2946 0
    endloop
  endfacet
  facet normal -0.0871555 0.996195 0
    outer loop
      vertex -13.4304 52.2946 8
      vertex -13.4304 52.2946 0
      vertex -14.3818 52.2114 8
    endloop
  endfacet
  facet normal -0.0871555 0.996195 0
    outer loop
      vertex -14.3818 52.2114 8
      vertex -13.4304 52.2946 0
      vertex -14.3818 52.2114 0
    endloop
  endfacet
  facet normal 0.258819 0.965926 0
    outer loop
      vertex -14.3818 52.2114 8
      vertex -14.3818 52.2114 0
      vertex -15.3043 52.4586 8
    endloop
  endfacet
  facet normal 0.258819 0.965926 0
    outer loop
      vertex -15.3043 52.4586 8
      vertex -14.3818 52.2114 0
      vertex -15.3043 52.4586 0
    endloop
  endfacet
  facet normal 0.573577 0.819152 0
    outer loop
      vertex -15.3043 52.4586 8
      vertex -15.3043 52.4586 0
      vertex -16.0867 53.0064 8
    endloop
  endfacet
  facet normal 0.573577 0.819152 0
    outer loop
      vertex -16.0867 53.0064 8
      vertex -15.3043 52.4586 0
      vertex -16.0867 53.0064 0
    endloop
  endfacet
  facet normal 0.819152 0.573577 0
    outer loop
      vertex -16.6345 53.7887 8
      vertex -16.0867 53.0064 8
      vertex -16.0867 53.0064 0
    endloop
  endfacet
  facet normal 0.819152 0.573577 0
    outer loop
      vertex -16.6345 53.7887 0
      vertex -16.6345 53.7887 8
      vertex -16.0867 53.0064 0
    endloop
  endfacet
  facet normal 0.965926 0.258819 0
    outer loop
      vertex -16.8817 54.7113 8
      vertex -16.6345 53.7887 8
      vertex -16.6345 53.7887 0
    endloop
  endfacet
  facet normal 0.965926 0.258819 0
    outer loop
      vertex -16.8817 54.7113 0
      vertex -16.8817 54.7113 8
      vertex -16.6345 53.7887 0
    endloop
  endfacet
  facet normal 0 -1 0
    outer loop
      vertex -0.0490621 55 8
      vertex -0.0490621 55 0
      vertex 0 55 0
    endloop
  endfacet
  facet normal 0 -1 0
    outer loop
      vertex 0 55 8
      vertex -0.0490621 55 8
      vertex 0 55 0
    endloop
  endfacet
  facet normal 0.707107 0.707107 0
    outer loop
      vertex -0.0490621 55 0
      vertex -0.0490621 55 8
      vertex 0 54.9509 0
    endloop
  endfacet
  facet normal 0.707107 0.707107 0
    outer loop
      vertex 0 54.9509 0
      vertex -0.0490621 55 8
      vertex 0 54.9509 8
    endloop
  endfacet
  facet normal -1 0 0
    outer loop
      vertex 0 54.9509 0
      vertex 0 54.9509 8
      vertex 0 55 0
    endloop
  endfacet
  facet normal -1 0 0
    outer loop
      vertex 0 55 0
      vertex 0 54.9509 8
      vertex 0 55 8
    endloop
  endfacet
  facet normal 0.984808 -0.173648 0
    outer loop
      vertex 7.41585 10.9406 0
      vertex 7.41585 10.9406 8
      vertex 7.25 10 8
    endloop
  endfacet
  facet normal 0.984808 -0.173648 0
    outer loop
      vertex 7.25 10 0
      vertex 7.41585 10.9406 0
      vertex 7.25 10 8
    endloop
  endfacet
  facet normal 0.984808 0.173648 0
    outer loop
      vertex 7.25 10 8
      vertex 7.41585 9.05944 8
      vertex 7.41585 9.05944 0
    endloop
  endfacet
  facet normal 0.984808 0.173648 0
    outer loop
      vertex 7.25 10 0
      vertex 7.25 10 8
      vertex 7.41585 9.05944 0
    endloop
  endfacet
  facet normal 0.866025 -0.5 0
    outer loop
      vertex 7.89338 11.7677 0
      vertex 7.89338 11.7677 8
      vertex 7.41585 10.9406 8
    endloop
  endfacet
  facet normal 0.866025 -0.5 0
    outer loop
      vertex 7.41585 10.9406 0
      vertex 7.89338 11.7677 0
      vertex 7.41585 10.9406 8
    endloop
  endfacet
  facet normal 0.642788 -0.766044 0
    outer loop
      vertex 8.625 12.3816 0
      vertex 8.625 12.3816 8
      vertex 7.89338 11.7677 8
    endloop
  endfacet
  facet normal 0.642788 -0.766044 0
    outer loop
      vertex 7.89338 11.7677 0
      vertex 8.625 12.3816 0
      vertex 7.89338 11.7677 8
    endloop
  endfacet
  facet normal 0.34202 -0.939693 0
    outer loop
      vertex 9.52247 12.7082 0
      vertex 9.52247 12.7082 8
      vertex 8.625 12.3816 8
    endloop
  endfacet
  facet normal 0.34202 -0.939693 0
    outer loop
      vertex 8.625 12.3816 0
      vertex 9.52247 12.7082 0
      vertex 8.625 12.3816 8
    endloop
  endfacet
  facet normal 0 -1 0
    outer loop
      vertex 10.4775 12.7082 0
      vertex 10.4775 12.7082 8
      vertex 9.52247 12.7082 8
    endloop
  endfacet
  facet normal 0 -1 0
    outer loop
      vertex 9.52247 12.7082 0
      vertex 10.4775 12.7082 0
      vertex 9.52247 12.7082 8
    endloop
  endfacet
  facet normal -0.34202 -0.939693 0
    outer loop
      vertex 11.375 12.3816 0
      vertex 11.375 12.3816 8
      vertex 10.4775 12.7082 8
    endloop
  endfacet
  facet normal -0.34202 -0.939693 0
    outer loop
      vertex 10.4775 12.7082 0
      vertex 11.375 12.3816 0
      vertex 10.4775 12.7082 8
    endloop
  endfacet
  facet normal -0.642788 -0.766044 0
    outer loop
      vertex 12.1066 11.7677 0
      vertex 12.1066 11.7677 8
      vertex 11.375 12.3816 8
    endloop
  endfacet
  facet normal -0.642788 -0.766044 0
    outer loop
      vertex 11.375 12.3816 0
      vertex 12.1066 11.7677 0
      vertex 11.375 12.3816 8
    endloop
  endfacet
  facet normal -0.866025 -0.5 0
    outer loop
      vertex 12.5842 10.9406 8
      vertex 12.1066 11.7677 8
      vertex 12.5842 10.9406 0
    endloop
  endfacet
  facet normal -0.866025 -0.5 0
    outer loop
      vertex 12.5842 10.9406 0
      vertex 12.1066 11.7677 8
      vertex 12.1066 11.7677 0
    endloop
  endfacet
  facet normal -0.984808 -0.173648 0
    outer loop
      vertex 12.75 10 8
      vertex 12.5842 10.9406 8
      vertex 12.75 10 0
    endloop
  endfacet
  facet normal -0.984808 -0.173648 0
    outer loop
      vertex 12.75 10 0
      vertex 12.5842 10.9406 8
      vertex 12.5842 10.9406 0
    endloop
  endfacet
  facet normal -0.984808 0.173648 0
    outer loop
      vertex 12.75 10 8
      vertex 12.75 10 0
      vertex 12.5842 9.05944 8
    endloop
  endfacet
  facet normal -0.984808 0.173648 0
    outer loop
      vertex 12.5842 9.05944 8
      vertex 12.75 10 0
      vertex 12.5842 9.05944 0
    endloop
  endfacet
  facet normal -0.866025 0.5 0
    outer loop
      vertex 12.5842 9.05944 8
      vertex 12.5842 9.05944 0
      vertex 12.1066 8.23233 8
    endloop
  endfacet
  facet normal -0.866025 0.5 0
    outer loop
      vertex 12.1066 8.23233 8
      vertex 12.5842 9.05944 0
      vertex 12.1066 8.23233 0
    endloop
  endfacet
  facet normal -0.642788 0.766044 0
    outer loop
      vertex 12.1066 8.23233 8
      vertex 12.1066 8.23233 0
      vertex 11.375 7.61843 8
    endloop
  endfacet
  facet normal -0.642788 0.766044 0
    outer loop
      vertex 11.375 7.61843 8
      vertex 12.1066 8.23233 0
      vertex 11.375 7.61843 0
    endloop
  endfacet
  facet normal -0.34202 0.939693 0
    outer loop
      vertex 11.375 7.61843 8
      vertex 11.375 7.61843 0
      vertex 10.4775 7.29178 8
    endloop
  endfacet
  facet normal -0.34202 0.939693 0
    outer loop
      vertex 10.4775 7.29178 8
      vertex 11.375 7.61843 0
      vertex 10.4775 7.29178 0
    endloop
  endfacet
  facet normal 0 1 0
    outer loop
      vertex 10.4775 7.29178 8
      vertex 10.4775 7.29178 0
      vertex 9.52247 7.29178 8
    endloop
  endfacet
  facet normal 0 1 0
    outer loop
      vertex 9.52247 7.29178 8
      vertex 10.4775 7.29178 0
      vertex 9.52247 7.29178 0
    endloop
  endfacet
  facet normal 0.34202 0.939693 0
    outer loop
      vertex 9.52247 7.29178 8
      vertex 9.52247 7.29178 0
      vertex 8.625 7.61843 8
    endloop
  endfacet
  facet normal 0.34202 0.939693 0
    outer loop
      vertex 8.625 7.61843 8
      vertex 9.52247 7.29178 0
      vertex 8.625 7.61843 0
    endloop
  endfacet
  facet normal 0.642788 0.766044 0
    outer loop
      vertex 8.625 7.61843 8
      vertex 8.625 7.61843 0
      vertex 7.89338 8.23233 8
    endloop
  endfacet
  facet normal 0.642788 0.766044 0
    outer loop
      vertex 7.89338 8.23233 8
      vertex 8.625 7.61843 0
      vertex 7.89338 8.23233 0
    endloop
  endfacet
  facet normal 0.866025 0.5 0
    outer loop
      vertex 7.41585 9.05944 8
      vertex 7.89338 8.23233 8
      vertex 7.89338 8.23233 0
    endloop
  endfacet
  facet normal 0.866025 0.5 0
    outer loop
      vertex 7.41585 9.05944 0
      vertex 7.41585 9.05944 8
      vertex 7.89338 8.23233 0
    endloop
  endfacet
  facet normal 0.984808 -0.173648 0
    outer loop
      vertex 7.41585 70.9406 0
      vertex 7.41585 70.9406 8
      vertex 7.25 70 8
    endloop
  endfacet
  facet normal 0.984808 -0.173648 0
    outer loop
      vertex 7.25 70 0
      vertex 7.41585 70.9406 0
      vertex 7.25 70 8
    endloop
  endfacet
  facet normal 0.984808 0.173648 0
    outer loop
      vertex 7.25 70 8
      vertex 7.41585 69.0594 8
      vertex 7.41585 69.0594 0
    endloop
  endfacet
  facet normal 0.984808 0.173648 0
    outer loop
      vertex 7.25 70 0
      vertex 7.25 70 8
      vertex 7.41585 69.0594 0
    endloop
  endfacet
  facet normal 0.866025 -0.5 0
    outer loop
      vertex 7.89338 71.7677 0
      vertex 7.89338 71.7677 8
      vertex 7.41585 70.9406 8
    endloop
  endfacet
  facet normal 0.866025 -0.5 0
    outer loop
      vertex 7.41585 70.9406 0
      vertex 7.89338 71.7677 0
      vertex 7.41585 70.9406 8
    endloop
  endfacet
  facet normal 0.642788 -0.766044 0
    outer loop
      vertex 8.625 72.3816 0
      vertex 8.625 72.3816 8
      vertex 7.89338 71.7677 8
    endloop
  endfacet
  facet normal 0.642788 -0.766044 0
    outer loop
      vertex 7.89338 71.7677 0
      vertex 8.625 72.3816 0
      vertex 7.89338 71.7677 8
    endloop
  endfacet
  facet normal 0.34202 -0.939693 0
    outer loop
      vertex 9.52247 72.7082 0
      vertex 9.52247 72.7082 8
      vertex 8.625 72.3816 8
    endloop
  endfacet
  facet normal 0.34202 -0.939693 0
    outer loop
      vertex 8.625 72.3816 0
      vertex 9.52247 72.7082 0
      vertex 8.625 72.3816 8
    endloop
  endfacet
  facet normal 0 -1 0
    outer loop
      vertex 10.4775 72.7082 0
      vertex 10.4775 72.7082 8
      vertex 9.52247 72.7082 8
    endloop
  endfacet
  facet normal 0 -1 0
    outer loop
      vertex 9.52247 72.7082 0
      vertex 10.4775 72.7082 0
      vertex 9.52247 72.7082 8
    endloop
  endfacet
  facet normal -0.34202 -0.939693 0
    outer loop
      vertex 11.375 72.3816 0
      vertex 11.375 72.3816 8
      vertex 10.4775 72.7082 8
    endloop
  endfacet
  facet normal -0.34202 -0.939693 0
    outer loop
      vertex 10.4775 72.7082 0
      vertex 11.375 72.3816 0
      vertex 10.4775 72.7082 8
    endloop
  endfacet
  facet normal -0.642788 -0.766044 0
    outer loop
      vertex 12.1066 71.7677 0
      vertex 12.1066 71.7677 8
      vertex 11.375 72.3816 8
    endloop
  endfacet
  facet normal -0.642788 -0.766044 0
    outer loop
      vertex 11.375 72.3816 0
      vertex 12.1066 71.7677 0
      vertex 11.375 72.3816 8
    endloop
  endfacet
  facet normal -0.866025 -0.5 0
    outer loop
      vertex 12.5842 70.9406 8
      vertex 12.1066 71.7677 8
      vertex 12.5842 70.9406 0
    endloop
  endfacet
  facet normal -0.866025 -0.5 0
    outer loop
      vertex 12.5842 70.9406 0
      vertex 12.1066 71.7677 8
      vertex 12.1066 71.7677 0
    endloop
  endfacet
  facet normal -0.984808 -0.173648 0
    outer loop
      vertex 12.75 70 8
      vertex 12.5842 70.9406 8
      vertex 12.75 70 0
    endloop
  endfacet
  facet normal -0.984808 -0.173648 0
    outer loop
      vertex 12.75 70 0
      vertex 12.5842 70.9406 8
      vertex 12.5842 70.9406 0
    endloop
  endfacet
  facet normal -0.984808 0.173648 0
    outer loop
      vertex 12.75 70 8
      vertex 12.75 70 0
      vertex 12.5842 69.0594 8
    endloop
  endfacet
  facet normal -0.984808 0.173648 0
    outer loop
      vertex 12.5842 69.0594 8
      vertex 12.75 70 0
      vertex 12.5842 69.0594 0
    endloop
  endfacet
  facet normal -0.866025 0.5 0
    outer loop
      vertex 12.5842 69.0594 8
      vertex 12.5842 69.0594 0
      vertex 12.1066 68.2323 8
    endloop
  endfacet
  facet normal -0.866025 0.5 0
    outer loop
      vertex 12.1066 68.2323 8
      vertex 12.5842 69.0594 0
      vertex 12.1066 68.2323 0
    endloop
  endfacet
  facet normal -0.642788 0.766044 0
    outer loop
      vertex 12.1066 68.2323 8
      vertex 12.1066 68.2323 0
      vertex 11.375 67.6184 8
    endloop
  endfacet
  facet normal -0.642788 0.766044 0
    outer loop
      vertex 11.375 67.6184 8
      vertex 12.1066 68.2323 0
      vertex 11.375 67.6184 0
    endloop
  endfacet
  facet normal -0.34202 0.939693 0
    outer loop
      vertex 11.375 67.6184 8
      vertex 11.375 67.6184 0
      vertex 10.4775 67.2918 8
    endloop
  endfacet
  facet normal -0.34202 0.939693 0
    outer loop
      vertex 10.4775 67.2918 8
      vertex 11.375 67.6184 0
      vertex 10.4775 67.2918 0
    endloop
  endfacet
  facet normal 0 1 0
    outer loop
      vertex 10.4775 67.2918 8
      vertex 10.4775 67.2918 0
      vertex 9.52247 67.2918 8
    endloop
  endfacet
  facet normal 0 1 0
    outer loop
      vertex 9.52247 67.2918 8
      vertex 10.4775 67.2918 0
      vertex 9.52247 67.2918 0
    endloop
  endfacet
  facet normal 0.34202 0.939693 0
    outer loop
      vertex 9.52247 67.2918 8
      vertex 9.52247 67.2918 0
      vertex 8.625 67.6184 8
    endloop
  endfacet
  facet normal 0.34202 0.939693 0
    outer loop
      vertex 8.625 67.6184 8
      vertex 9.52247 67.2918 0
      vertex 8.625 67.6184 0
    endloop
  endfacet
  facet normal 0.642788 0.766044 0
    outer loop
      vertex 8.625 67.6184 8
      vertex 8.625 67.6184 0
      vertex 7.89338 68.2323 8
    endloop
  endfacet
  facet normal 0.642788 0.766044 0
    outer loop
      vertex 7.89338 68.2323 8
      vertex 8.625 67.6184 0
      vertex 7.89338 68.2323 0
    endloop
  endfacet
  facet normal 0.866025 0.5 0
    outer loop
      vertex 7.41585 69.0594 8
      vertex 7.89338 68.2323 8
      vertex 7.89338 68.2323 0
    endloop
  endfacet
  facet normal 0.866025 0.5 0
    outer loop
      vertex 7.41585 69.0594 0
      vertex 7.41585 69.0594 8
      vertex 7.89338 68.2323 0
    endloop
  endfacet
endsolid OpenSCAD_Model
