solid OpenSCAD_Model
  facet normal -1 0 0
    outer loop
      vertex 0 25.8817 4.21352
      vertex 0 26.4266 12.5365
      vertex 0 26.4266 3.46352
    endloop
  endfacet
  facet normal -1 0 0
    outer loop
      vertex 0 25.8817 4.21352
      vertex 0 25.8817 11.7865
      vertex 0 26.4266 12.5365
    endloop
  endfacet
  facet normal -1 0 0
    outer loop
      vertex 0 25 4.5
      vertex 0 25.8817 11.7865
      vertex 0 25.8817 4.21352
    endloop
  endfacet
  facet normal -1 0 0
    outer loop
      vertex 0 25 4.5
      vertex 0 25 11.5
      vertex 0 25.8817 11.7865
    endloop
  endfacet
  facet normal -1 0 0
    outer loop
      vertex 0 24.1183 4.21352
      vertex 0 25 11.5
      vertex 0 25 4.5
    endloop
  endfacet
  facet normal -1 0 0
    outer loop
      vertex 0 24.1183 4.21352
      vertex 0 24.1183 11.7865
      vertex 0 25 11.5
    endloop
  endfacet
  facet normal -1 0 0
    outer loop
      vertex 0 20 5
      vertex 0 24.1183 4.21352
      vertex 0 23.5734 3.46352
    endloop
  endfacet
  facet normal -1 0 0
    outer loop
      vertex 0 24.1183 4.21352
      vertex 0 20 5
      vertex 0 24.1183 11.7865
    endloop
  endfacet
  facet normal -1 0 0
    outer loop
      vertex 0 26.4266 3.46352
      vertex 0 30 0
      vertex 0 26.4266 2.53647
    endloop
  endfacet
  facet normal -1 0 0
    outer loop
      vertex 0 30 0
      vertex 0 25.8817 1.78647
      vertex 0 26.4266 2.53647
    endloop
  endfacet
  facet normal -1 0 0
    outer loop
      vertex 0 30 0
      vertex 0 25 1.5
      vertex 0 25.8817 1.78647
    endloop
  endfacet
  facet normal -1 0 0
    outer loop
      vertex 0 20 5
      vertex 0 23.5734 3.46352
      vertex 0 23.5734 2.53647
    endloop
  endfacet
  facet normal -1 -0 0
    outer loop
      vertex 0 24.1183 11.7865
      vertex 0 20 5
      vertex 0 23.5734 12.5365
    endloop
  endfacet
  facet normal -1 0 0
    outer loop
      vertex 0 20 16
      vertex 0 23.5734 12.5365
      vertex 0 20 5
    endloop
  endfacet
  facet normal -1 0 0
    outer loop
      vertex 0 24.1183 1.78647
      vertex 0 20 5
      vertex 0 23.5734 2.53647
    endloop
  endfacet
  facet normal -1 0 0
    outer loop
      vertex 0 0 0
      vertex 0 25 1.5
      vertex 0 30 0
    endloop
  endfacet
  facet normal -1 0 0
    outer loop
      vertex 0 0 0
      vertex 0 24.1183 1.78647
      vertex 0 25 1.5
    endloop
  endfacet
  facet normal -1 0 0
    outer loop
      vertex 0 0 0
      vertex 0 20 5
      vertex 0 24.1183 1.78647
    endloop
  endfacet
  facet normal -1 -0 0
    outer loop
      vertex 0 20 5
      vertex 0 0 0
      vertex 0 0 5
    endloop
  endfacet
  facet normal -1 0 0
    outer loop
      vertex 0 30 0
      vertex 0 26.4266 3.46352
      vertex 0 30 16
    endloop
  endfacet
  facet normal -1 0 0
    outer loop
      vertex 0 26.4266 12.5365
      vertex 0 30 16
      vertex 0 26.4266 3.46352
    endloop
  endfacet
  facet normal -1 0 0
    outer loop
      vertex 0 26.4266 13.4635
      vertex 0 30 16
      vertex 0 26.4266 12.5365
    endloop
  endfacet
  facet normal -1 0 0
    outer loop
      vertex 0 25.8817 14.2135
      vertex 0 30 16
      vertex 0 26.4266 13.4635
    endloop
  endfacet
  facet normal -1 0 0
    outer loop
      vertex 0 25 14.5
      vertex 0 30 16
      vertex 0 25.8817 14.2135
    endloop
  endfacet
  facet normal -1 0 0
    outer loop
      vertex 0 25 14.5
      vertex 0 20 16
      vertex 0 30 16
    endloop
  endfacet
  facet normal -1 0 0
    outer loop
      vertex 0 24.1183 14.2135
      vertex 0 20 16
      vertex 0 25 14.5
    endloop
  endfacet
  facet normal -1 0 0
    outer loop
      vertex 0 23.5734 13.4635
      vertex 0 20 16
      vertex 0 24.1183 14.2135
    endloop
  endfacet
  facet normal -1 0 0
    outer loop
      vertex 0 23.5734 12.5365
      vertex 0 20 16
      vertex 0 23.5734 13.4635
    endloop
  endfacet
  facet normal -0 0 1
    outer loop
      vertex 6.21352 5.88168 5
      vertex 10 0 5
      vertex 10 20 5
    endloop
  endfacet
  facet normal 0 0 1
    outer loop
      vertex 10 0 5
      vertex 6.21352 5.88168 5
      vertex 6.5 5 5
    endloop
  endfacet
  facet normal 0 0 1
    outer loop
      vertex 10 20 5
      vertex 5.46352 6.42658 5
      vertex 6.21352 5.88168 5
    endloop
  endfacet
  facet normal 0 0 1
    outer loop
      vertex 10 20 5
      vertex 4.53647 6.42658 5
      vertex 5.46352 6.42658 5
    endloop
  endfacet
  facet normal -0 0 1
    outer loop
      vertex 0 20 5
      vertex 4.53647 6.42658 5
      vertex 10 20 5
    endloop
  endfacet
  facet normal 0 0 1
    outer loop
      vertex 0 0 5
      vertex 3.78647 5.88168 5
      vertex 0 20 5
    endloop
  endfacet
  facet normal 0 0 1
    outer loop
      vertex 4.53647 6.42658 5
      vertex 0 20 5
      vertex 3.78647 5.88168 5
    endloop
  endfacet
  facet normal -0 0 1
    outer loop
      vertex 6.21352 4.11832 5
      vertex 10 0 5
      vertex 6.5 5 5
    endloop
  endfacet
  facet normal -0 0 1
    outer loop
      vertex 5.46352 3.57341 5
      vertex 10 0 5
      vertex 6.21352 4.11832 5
    endloop
  endfacet
  facet normal -0 0 1
    outer loop
      vertex 4.53647 3.57341 5
      vertex 10 0 5
      vertex 5.46352 3.57341 5
    endloop
  endfacet
  facet normal 0 0 1
    outer loop
      vertex 4.53647 3.57341 5
      vertex 0 0 5
      vertex 10 0 5
    endloop
  endfacet
  facet normal 0 0 1
    outer loop
      vertex 3.78647 4.11832 5
      vertex 0 0 5
      vertex 4.53647 3.57341 5
    endloop
  endfacet
  facet normal 0 0 1
    outer loop
      vertex 3.5 5 5
      vertex 0 0 5
      vertex 3.78647 4.11832 5
    endloop
  endfacet
  facet normal 0 0 1
    outer loop
      vertex 3.78647 5.88168 5
      vertex 0 0 5
      vertex 3.5 5 5
    endloop
  endfacet
  facet normal 1 -0 0
    outer loop
      vertex 10 25.8817 11.7865
      vertex 10 26.4266 3.46352
      vertex 10 26.4266 12.5365
    endloop
  endfacet
  facet normal 1 0 0
    outer loop
      vertex 10 25.8817 11.7865
      vertex 10 25.8817 4.21352
      vertex 10 26.4266 3.46352
    endloop
  endfacet
  facet normal 1 -0 0
    outer loop
      vertex 10 25 11.5
      vertex 10 25.8817 4.21352
      vertex 10 25.8817 11.7865
    endloop
  endfacet
  facet normal 1 0 0
    outer loop
      vertex 10 25 11.5
      vertex 10 25 4.5
      vertex 10 25.8817 4.21352
    endloop
  endfacet
  facet normal 1 0 0
    outer loop
      vertex 10 24.1183 11.7865
      vertex 10 25 4.5
      vertex 10 25 11.5
    endloop
  endfacet
  facet normal 1 0 0
    outer loop
      vertex 10 24.1183 11.7865
      vertex 10 24.1183 4.21352
      vertex 10 25 4.5
    endloop
  endfacet
  facet normal 1 0 0
    outer loop
      vertex 10 20 5
      vertex 10 24.1183 11.7865
      vertex 10 23.5734 12.5365
    endloop
  endfacet
  facet normal 1 0 0
    outer loop
      vertex 10 24.1183 11.7865
      vertex 10 20 5
      vertex 10 24.1183 4.21352
    endloop
  endfacet
  facet normal 1 0 0
    outer loop
      vertex 10 26.4266 12.5365
      vertex 10 30 16
      vertex 10 26.4266 13.4635
    endloop
  endfacet
  facet normal 1 0 0
    outer loop
      vertex 10 30 16
      vertex 10 25.8817 14.2135
      vertex 10 26.4266 13.4635
    endloop
  endfacet
  facet normal 1 0 0
    outer loop
      vertex 10 30 16
      vertex 10 25 14.5
      vertex 10 25.8817 14.2135
    endloop
  endfacet
  facet normal 1 0 0
    outer loop
      vertex 10 20 16
      vertex 10 23.5734 12.5365
      vertex 10 23.5734 13.4635
    endloop
  endfacet
  facet normal 1 0 0
    outer loop
      vertex 10 24.1183 4.21352
      vertex 10 20 5
      vertex 10 23.5734 3.46352
    endloop
  endfacet
  facet normal 1 0 0
    outer loop
      vertex 10 23.5734 12.5365
      vertex 10 20 16
      vertex 10 20 5
    endloop
  endfacet
  facet normal 1 0 0
    outer loop
      vertex 10 24.1183 14.2135
      vertex 10 20 16
      vertex 10 23.5734 13.4635
    endloop
  endfacet
  facet normal 1 0 0
    outer loop
      vertex 10 25 14.5
      vertex 10 20 16
      vertex 10 24.1183 14.2135
    endloop
  endfacet
  facet normal 1 -0 0
    outer loop
      vertex 10 20 16
      vertex 10 25 14.5
      vertex 10 30 16
    endloop
  endfacet
  facet normal 1 0 0
    outer loop
      vertex 10 30 16
      vertex 10 26.4266 12.5365
      vertex 10 30 0
    endloop
  endfacet
  facet normal 1 -0 0
    outer loop
      vertex 10 26.4266 3.46352
      vertex 10 30 0
      vertex 10 26.4266 12.5365
    endloop
  endfacet
  facet normal 1 -0 0
    outer loop
      vertex 10 26.4266 2.53647
      vertex 10 30 0
      vertex 10 26.4266 3.46352
    endloop
  endfacet
  facet normal 1 -0 0
    outer loop
      vertex 10 25.8817 1.78647
      vertex 10 30 0
      vertex 10 26.4266 2.53647
    endloop
  endfacet
  facet normal 1 -0 0
    outer loop
      vertex 10 25 1.5
      vertex 10 30 0
      vertex 10 25.8817 1.78647
    endloop
  endfacet
  facet normal 1 0 0
    outer loop
      vertex 10 23.5734 3.46352
      vertex 10 20 5
      vertex 10 23.5734 2.53647
    endloop
  endfacet
  facet normal 1 0 0
    outer loop
      vertex 10 20 5
      vertex 10 24.1183 1.78647
      vertex 10 23.5734 2.53647
    endloop
  endfacet
  facet normal 1 0 0
    outer loop
      vertex 10 0 0
      vertex 10 20 5
      vertex 10 0 5
    endloop
  endfacet
  facet normal 1 0 0
    outer loop
      vertex 10 20 5
      vertex 10 0 0
      vertex 10 24.1183 1.78647
    endloop
  endfacet
  facet normal 1 0 0
    outer loop
      vertex 10 24.1183 1.78647
      vertex 10 0 0
      vertex 10 25 1.5
    endloop
  endfacet
  facet normal 1 0 0
    outer loop
      vertex 10 25 1.5
      vertex 10 0 0
      vertex 10 30 0
    endloop
  endfacet
  facet normal 0 0 -1
    outer loop
      vertex 6.21352 5.88168 0
      vertex 10 0 0
      vertex 6.5 5 0
    endloop
  endfacet
  facet normal 0 0 -1
    outer loop
      vertex 10 0 0
      vertex 6.21352 4.11832 0
      vertex 6.5 5 0
    endloop
  endfacet
  facet normal 0 0 -1
    outer loop
      vertex 10 0 0
      vertex 5.46352 3.57341 0
      vertex 6.21352 4.11832 0
    endloop
  endfacet
  facet normal 0 0 -1
    outer loop
      vertex 10 0 0
      vertex 4.53647 3.57341 0
      vertex 5.46352 3.57341 0
    endloop
  endfacet
  facet normal -0 0 -1
    outer loop
      vertex 3.78647 4.11832 0
      vertex 0 0 0
      vertex 3.5 5 0
    endloop
  endfacet
  facet normal -0 0 -1
    outer loop
      vertex 4.53647 3.57341 0
      vertex 0 0 0
      vertex 3.78647 4.11832 0
    endloop
  endfacet
  facet normal 0 0 -1
    outer loop
      vertex 0 0 0
      vertex 4.53647 3.57341 0
      vertex 10 0 0
    endloop
  endfacet
  facet normal 0 0 -1
    outer loop
      vertex 10 0 0
      vertex 6.21352 5.88168 0
      vertex 10 30 0
    endloop
  endfacet
  facet normal 0 0 -1
    outer loop
      vertex 5.46352 6.42658 0
      vertex 10 30 0
      vertex 6.21352 5.88168 0
    endloop
  endfacet
  facet normal 0 0 -1
    outer loop
      vertex 4.53647 6.42658 0
      vertex 10 30 0
      vertex 5.46352 6.42658 0
    endloop
  endfacet
  facet normal 0 0 -1
    outer loop
      vertex 0 30 0
      vertex 4.53647 6.42658 0
      vertex 3.78647 5.88168 0
    endloop
  endfacet
  facet normal 0 0 -1
    outer loop
      vertex 0 0 0
      vertex 3.78647 5.88168 0
      vertex 3.5 5 0
    endloop
  endfacet
  facet normal -0 0 -1
    outer loop
      vertex 3.78647 5.88168 0
      vertex 0 0 0
      vertex 0 30 0
    endloop
  endfacet
  facet normal 0 0 -1
    outer loop
      vertex 4.53647 6.42658 0
      vertex 0 30 0
      vertex 10 30 0
    endloop
  endfacet
  facet normal 0 -1 0
    outer loop
      vertex 0 0 0
      vertex 10 0 5
      vertex 0 0 5
    endloop
  endfacet
  facet normal 0 -1 -0
    outer loop
      vertex 10 0 5
      vertex 0 0 0
      vertex 10 0 0
    endloop
  endfacet
  facet normal 0 -1 0
    outer loop
      vertex 0 20 5
      vertex 10 20 16
      vertex 0 20 16
    endloop
  endfacet
  facet normal 0 -1 -0
    outer loop
      vertex 10 20 16
      vertex 0 20 5
      vertex 10 20 5
    endloop
  endfacet
  facet normal -0 0 1
    outer loop
      vertex 0 30 16
      vertex 10 20 16
      vertex 10 30 16
    endloop
  endfacet
  facet normal 0 0 1
    outer loop
      vertex 10 20 16
      vertex 0 30 16
      vertex 0 20 16
    endloop
  endfacet
  facet normal 0 1 -0
    outer loop
      vertex 10 30 0
      vertex 0 30 16
      vertex 10 30 16
    endloop
  endfacet
  facet normal 0 1 0
    outer loop
      vertex 0 30 16
      vertex 10 30 0
      vertex 0 30 0
    endloop
  endfacet
  facet normal -0.951056 -0.309018 0
    outer loop
      vertex 6.5 5 0
      vertex 6.21352 5.88168 5
      vertex 6.21352 5.88168 0
    endloop
  endfacet
  facet normal -0.951056 -0.309018 0
    outer loop
      vertex 6.21352 5.88168 5
      vertex 6.5 5 0
      vertex 6.5 5 5
    endloop
  endfacet
  facet normal -0.587785 0.809017 0
    outer loop
      vertex 6.21352 4.11832 0
      vertex 5.46352 3.57341 5
      vertex 6.21352 4.11832 5
    endloop
  endfacet
  facet normal -0.587785 0.809017 0
    outer loop
      vertex 5.46352 3.57341 5
      vertex 6.21352 4.11832 0
      vertex 5.46352 3.57341 0
    endloop
  endfacet
  facet normal 0.587785 -0.809017 0
    outer loop
      vertex 3.78647 5.88168 0
      vertex 4.53647 6.42658 5
      vertex 3.78647 5.88168 5
    endloop
  endfacet
  facet normal 0.587785 -0.809017 0
    outer loop
      vertex 4.53647 6.42658 5
      vertex 3.78647 5.88168 0
      vertex 4.53647 6.42658 0
    endloop
  endfacet
  facet normal -0.587785 -0.809017 0
    outer loop
      vertex 5.46352 6.42658 0
      vertex 6.21352 5.88168 5
      vertex 5.46352 6.42658 5
    endloop
  endfacet
  facet normal -0.587785 -0.809017 -0
    outer loop
      vertex 6.21352 5.88168 5
      vertex 5.46352 6.42658 0
      vertex 6.21352 5.88168 0
    endloop
  endfacet
  facet normal 0.951057 -0.309017 0
    outer loop
      vertex 3.5 5 5
      vertex 3.78647 5.88168 0
      vertex 3.78647 5.88168 5
    endloop
  endfacet
  facet normal 0.951057 -0.309017 0
    outer loop
      vertex 3.78647 5.88168 0
      vertex 3.5 5 5
      vertex 3.5 5 0
    endloop
  endfacet
  facet normal 0 -1 0
    outer loop
      vertex 4.53647 6.42658 0
      vertex 5.46352 6.42658 5
      vertex 4.53647 6.42658 5
    endloop
  endfacet
  facet normal 0 -1 -0
    outer loop
      vertex 5.46352 6.42658 5
      vertex 4.53647 6.42658 0
      vertex 5.46352 6.42658 0
    endloop
  endfacet
  facet normal 0.951057 0.309016 0
    outer loop
      vertex 3.78647 4.11832 5
      vertex 3.5 5 0
      vertex 3.5 5 5
    endloop
  endfacet
  facet normal 0.951057 0.309016 0
    outer loop
      vertex 3.5 5 0
      vertex 3.78647 4.11832 5
      vertex 3.78647 4.11832 0
    endloop
  endfacet
  facet normal -0.951056 0.309017 0
    outer loop
      vertex 6.21352 4.11832 0
      vertex 6.5 5 5
      vertex 6.5 5 0
    endloop
  endfacet
  facet normal -0.951056 0.309017 0
    outer loop
      vertex 6.5 5 5
      vertex 6.21352 4.11832 0
      vertex 6.21352 4.11832 5
    endloop
  endfacet
  facet normal 0 1 -0
    outer loop
      vertex 5.46352 3.57341 0
      vertex 4.53647 3.57341 5
      vertex 5.46352 3.57341 5
    endloop
  endfacet
  facet normal 0 1 0
    outer loop
      vertex 4.53647 3.57341 5
      vertex 5.46352 3.57341 0
      vertex 4.53647 3.57341 0
    endloop
  endfacet
  facet normal 0.587785 0.809017 -0
    outer loop
      vertex 4.53647 3.57341 0
      vertex 3.78647 4.11832 5
      vertex 4.53647 3.57341 5
    endloop
  endfacet
  facet normal 0.587785 0.809017 0
    outer loop
      vertex 3.78647 4.11832 5
      vertex 4.53647 3.57341 0
      vertex 3.78647 4.11832 0
    endloop
  endfacet
  facet normal 0 -0.309017 0.951057
    outer loop
      vertex 0 25.8817 1.78647
      vertex 10 25 1.5
      vertex 10 25.8817 1.78647
    endloop
  endfacet
  facet normal 0 -0.309017 0.951057
    outer loop
      vertex 10 25 1.5
      vertex 0 25.8817 1.78647
      vertex 0 25 1.5
    endloop
  endfacet
  facet normal 0 -0.309018 -0.951056
    outer loop
      vertex 0 25 4.5
      vertex 10 25.8817 4.21352
      vertex 10 25 4.5
    endloop
  endfacet
  facet normal -0 -0.309018 -0.951056
    outer loop
      vertex 10 25.8817 4.21352
      vertex 0 25 4.5
      vertex 0 25.8817 4.21352
    endloop
  endfacet
  facet normal 0 -0.809017 0.587785
    outer loop
      vertex 0 25.8817 1.78647
      vertex 10 26.4266 2.53647
      vertex 0 26.4266 2.53647
    endloop
  endfacet
  facet normal 0 -0.809017 0.587785
    outer loop
      vertex 10 26.4266 2.53647
      vertex 0 25.8817 1.78647
      vertex 10 25.8817 1.78647
    endloop
  endfacet
  facet normal 0 -0.809017 -0.587785
    outer loop
      vertex 0 26.4266 3.46352
      vertex 10 25.8817 4.21352
      vertex 0 25.8817 4.21352
    endloop
  endfacet
  facet normal 0 -0.809017 -0.587785
    outer loop
      vertex 10 25.8817 4.21352
      vertex 0 26.4266 3.46352
      vertex 10 26.4266 3.46352
    endloop
  endfacet
  facet normal 0 1 -0
    outer loop
      vertex 10 23.5734 2.53647
      vertex 0 23.5734 3.46352
      vertex 10 23.5734 3.46352
    endloop
  endfacet
  facet normal 0 1 0
    outer loop
      vertex 0 23.5734 3.46352
      vertex 10 23.5734 2.53647
      vertex 0 23.5734 2.53647
    endloop
  endfacet
  facet normal 0 -1 0
    outer loop
      vertex 0 26.4266 2.53647
      vertex 10 26.4266 3.46352
      vertex 0 26.4266 3.46352
    endloop
  endfacet
  facet normal 0 -1 -0
    outer loop
      vertex 10 26.4266 3.46352
      vertex 0 26.4266 2.53647
      vertex 10 26.4266 2.53647
    endloop
  endfacet
  facet normal -0 0.309016 0.951057
    outer loop
      vertex 0 25 1.5
      vertex 10 24.1183 1.78647
      vertex 10 25 1.5
    endloop
  endfacet
  facet normal 0 0.309016 0.951057
    outer loop
      vertex 10 24.1183 1.78647
      vertex 0 25 1.5
      vertex 0 24.1183 1.78647
    endloop
  endfacet
  facet normal 0 0.809017 0.587785
    outer loop
      vertex 10 24.1183 1.78647
      vertex 0 23.5734 2.53647
      vertex 10 23.5734 2.53647
    endloop
  endfacet
  facet normal 0 0.809017 0.587785
    outer loop
      vertex 0 23.5734 2.53647
      vertex 10 24.1183 1.78647
      vertex 0 24.1183 1.78647
    endloop
  endfacet
  facet normal 0 0.309017 -0.951056
    outer loop
      vertex 0 24.1183 4.21352
      vertex 10 25 4.5
      vertex 10 24.1183 4.21352
    endloop
  endfacet
  facet normal 0 0.309017 -0.951056
    outer loop
      vertex 10 25 4.5
      vertex 0 24.1183 4.21352
      vertex 0 25 4.5
    endloop
  endfacet
  facet normal 0 0.809017 -0.587785
    outer loop
      vertex 10 23.5734 3.46352
      vertex 0 24.1183 4.21352
      vertex 10 24.1183 4.21352
    endloop
  endfacet
  facet normal 0 0.809017 -0.587785
    outer loop
      vertex 0 24.1183 4.21352
      vertex 10 23.5734 3.46352
      vertex 0 23.5734 3.46352
    endloop
  endfacet
  facet normal 0 -0.309017 0.951057
    outer loop
      vertex 0 25.8817 11.7865
      vertex 10 25 11.5
      vertex 10 25.8817 11.7865
    endloop
  endfacet
  facet normal 0 -0.309017 0.951057
    outer loop
      vertex 10 25 11.5
      vertex 0 25.8817 11.7865
      vertex 0 25 11.5
    endloop
  endfacet
  facet normal 0 -0.309018 -0.951056
    outer loop
      vertex 0 25 14.5
      vertex 10 25.8817 14.2135
      vertex 10 25 14.5
    endloop
  endfacet
  facet normal -0 -0.309018 -0.951056
    outer loop
      vertex 10 25.8817 14.2135
      vertex 0 25 14.5
      vertex 0 25.8817 14.2135
    endloop
  endfacet
  facet normal 0 0.309017 -0.951056
    outer loop
      vertex 0 24.1183 14.2135
      vertex 10 25 14.5
      vertex 10 24.1183 14.2135
    endloop
  endfacet
  facet normal 0 0.309017 -0.951056
    outer loop
      vertex 10 25 14.5
      vertex 0 24.1183 14.2135
      vertex 0 25 14.5
    endloop
  endfacet
  facet normal 0 -0.809017 0.587785
    outer loop
      vertex 0 25.8817 11.7865
      vertex 10 26.4266 12.5365
      vertex 0 26.4266 12.5365
    endloop
  endfacet
  facet normal 0 -0.809017 0.587785
    outer loop
      vertex 10 26.4266 12.5365
      vertex 0 25.8817 11.7865
      vertex 10 25.8817 11.7865
    endloop
  endfacet
  facet normal 0 -0.809017 -0.587785
    outer loop
      vertex 0 26.4266 13.4635
      vertex 10 25.8817 14.2135
      vertex 0 25.8817 14.2135
    endloop
  endfacet
  facet normal 0 -0.809017 -0.587785
    outer loop
      vertex 10 25.8817 14.2135
      vertex 0 26.4266 13.4635
      vertex 10 26.4266 13.4635
    endloop
  endfacet
  facet normal 0 -1 0
    outer loop
      vertex 0 26.4266 12.5365
      vertex 10 26.4266 13.4635
      vertex 0 26.4266 13.4635
    endloop
  endfacet
  facet normal 0 -1 -0
    outer loop
      vertex 10 26.4266 13.4635
      vertex 0 26.4266 12.5365
      vertex 10 26.4266 12.5365
    endloop
  endfacet
  facet normal 0 0.809017 0.587785
    outer loop
      vertex 10 24.1183 11.7865
      vertex 0 23.5734 12.5365
      vertex 10 23.5734 12.5365
    endloop
  endfacet
  facet normal 0 0.809017 0.587785
    outer loop
      vertex 0 23.5734 12.5365
      vertex 10 24.1183 11.7865
      vertex 0 24.1183 11.7865
    endloop
  endfacet
  facet normal -0 0.309016 0.951057
    outer loop
      vertex 0 25 11.5
      vertex 10 24.1183 11.7865
      vertex 10 25 11.5
    endloop
  endfacet
  facet normal 0 0.309016 0.951057
    outer loop
      vertex 10 24.1183 11.7865
      vertex 0 25 11.5
      vertex 0 24.1183 11.7865
    endloop
  endfacet
  facet normal 0 1 -0
    outer loop
      vertex 10 23.5734 12.5365
      vertex 0 23.5734 13.4635
      vertex 10 23.5734 13.4635
    endloop
  endfacet
  facet normal 0 1 0
    outer loop
      vertex 0 23.5734 13.4635
      vertex 10 23.5734 12.5365
      vertex 0 23.5734 12.5365
    endloop
  endfacet
  facet normal 0 0.809017 -0.587785
    outer loop
      vertex 10 23.5734 13.4635
      vertex 0 24.1183 14.2135
      vertex 10 24.1183 14.2135
    endloop
  endfacet
  facet normal 0 0.809017 -0.587785
    outer loop
      vertex 0 24.1183 14.2135
      vertex 10 23.5734 13.4635
      vertex 0 23.5734 13.4635
    endloop
  endfacet
endsolid OpenSCAD_Model
