solid OpenSCAD_Model
  facet normal -1 0 0
    outer loop
      vertex 0 55.0245 37.7629
      vertex 0 62.5 50
      vertex 0 62.5 0
    endloop
  endfacet
  facet normal -1 0 0
    outer loop
      vertex 0 62.5 50
      vertex 0 55.3798 38.8565
      vertex 0 55.5 40
    endloop
  endfacet
  facet normal -1 0 0
    outer loop
      vertex 0 62.5 50
      vertex 0 55.0245 37.7629
      vertex 0 55.3798 38.8565
    endloop
  endfacet
  facet normal -1 0 0
    outer loop
      vertex 0 62.5 0
      vertex 0 54.4496 36.7672
      vertex 0 55.0245 37.7629
    endloop
  endfacet
  facet normal -1 0 0
    outer loop
      vertex 0 62.5 0
      vertex 0 53.6802 35.9127
      vertex 0 54.4496 36.7672
    endloop
  endfacet
  facet normal -1 0 0
    outer loop
      vertex 0 62.5 0
      vertex 0 52.75 35.2369
      vertex 0 53.6802 35.9127
    endloop
  endfacet
  facet normal -1 0 0
    outer loop
      vertex 0 62.5 0
      vertex 0 51.6996 34.7692
      vertex 0 52.75 35.2369
    endloop
  endfacet
  facet normal -1 0 0
    outer loop
      vertex 0 62.5 0
      vertex 0 50.5749 34.5301
      vertex 0 51.6996 34.7692
    endloop
  endfacet
  facet normal -1 0 0
    outer loop
      vertex 0 37.5 10
      vertex 0 50.5749 34.5301
      vertex 0 62.5 0
    endloop
  endfacet
  facet normal -1 -0 0
    outer loop
      vertex 0 50.5749 34.5301
      vertex 0 37.5 10
      vertex 0 49.4251 34.5301
    endloop
  endfacet
  facet normal -1 -0 0
    outer loop
      vertex 0 49.4251 34.5301
      vertex 0 37.5 10
      vertex 0 48.3004 34.7692
    endloop
  endfacet
  facet normal -1 -0 0
    outer loop
      vertex 0 48.3004 34.7692
      vertex 0 37.5 10
      vertex 0 47.25 35.2369
    endloop
  endfacet
  facet normal -1 -0 0
    outer loop
      vertex 0 47.25 35.2369
      vertex 0 37.5 10
      vertex 0 46.3198 35.9127
    endloop
  endfacet
  facet normal -1 -0 0
    outer loop
      vertex 0 46.3198 35.9127
      vertex 0 37.5 10
      vertex 0 45.5504 36.7672
    endloop
  endfacet
  facet normal -1 0 0
    outer loop
      vertex 0 37.5 50
      vertex 0 44.6202 38.8565
      vertex 0 37.5 10
    endloop
  endfacet
  facet normal -1 -0 0
    outer loop
      vertex 0 44.9755 37.7629
      vertex 0 37.5 10
      vertex 0 44.6202 38.8565
    endloop
  endfacet
  facet normal -1 -0 0
    outer loop
      vertex 0 45.5504 36.7672
      vertex 0 37.5 10
      vertex 0 44.9755 37.7629
    endloop
  endfacet
  facet normal -1 0 0
    outer loop
      vertex 0 -80 0
      vertex 0 37.5 10
      vertex 0 62.5 0
    endloop
  endfacet
  facet normal -1 -0 0
    outer loop
      vertex 0 37.5 10
      vertex 0 -80 0
      vertex 0 -80 10
    endloop
  endfacet
  facet normal -1 0 0
    outer loop
      vertex 0 55.3798 41.1435
      vertex 0 62.5 50
      vertex 0 55.5 40
    endloop
  endfacet
  facet normal -1 0 0
    outer loop
      vertex 0 55.0245 42.2371
      vertex 0 62.5 50
      vertex 0 55.3798 41.1435
    endloop
  endfacet
  facet normal -1 0 0
    outer loop
      vertex 0 54.4496 43.2328
      vertex 0 62.5 50
      vertex 0 55.0245 42.2371
    endloop
  endfacet
  facet normal -1 0 0
    outer loop
      vertex 0 53.6802 44.0873
      vertex 0 62.5 50
      vertex 0 54.4496 43.2328
    endloop
  endfacet
  facet normal -1 0 0
    outer loop
      vertex 0 52.75 44.7631
      vertex 0 62.5 50
      vertex 0 53.6802 44.0873
    endloop
  endfacet
  facet normal -1 0 0
    outer loop
      vertex 0 51.6996 45.2308
      vertex 0 62.5 50
      vertex 0 52.75 44.7631
    endloop
  endfacet
  facet normal -1 0 0
    outer loop
      vertex 0 50.5749 45.4699
      vertex 0 62.5 50
      vertex 0 51.6996 45.2308
    endloop
  endfacet
  facet normal -1 0 0
    outer loop
      vertex 0 49.4251 45.4699
      vertex 0 62.5 50
      vertex 0 50.5749 45.4699
    endloop
  endfacet
  facet normal -1 0 0
    outer loop
      vertex 0 37.5 50
      vertex 0 49.4251 45.4699
      vertex 0 48.3004 45.2308
    endloop
  endfacet
  facet normal -1 0 0
    outer loop
      vertex 0 44.6202 38.8565
      vertex 0 37.5 50
      vertex 0 44.5 40
    endloop
  endfacet
  facet normal -1 0 0
    outer loop
      vertex 0 49.4251 45.4699
      vertex 0 37.5 50
      vertex 0 62.5 50
    endloop
  endfacet
  facet normal -1 0 0
    outer loop
      vertex 0 47.25 44.7631
      vertex 0 37.5 50
      vertex 0 48.3004 45.2308
    endloop
  endfacet
  facet normal -1 0 0
    outer loop
      vertex 0 46.3198 44.0873
      vertex 0 37.5 50
      vertex 0 47.25 44.7631
    endloop
  endfacet
  facet normal -1 0 0
    outer loop
      vertex 0 45.5504 43.2328
      vertex 0 37.5 50
      vertex 0 46.3198 44.0873
    endloop
  endfacet
  facet normal -1 0 0
    outer loop
      vertex 0 44.9755 42.2371
      vertex 0 37.5 50
      vertex 0 45.5504 43.2328
    endloop
  endfacet
  facet normal -1 0 0
    outer loop
      vertex 0 44.6202 41.1435
      vertex 0 37.5 50
      vertex 0 44.9755 42.2371
    endloop
  endfacet
  facet normal -1 0 0
    outer loop
      vertex 0 44.5 40
      vertex 0 37.5 50
      vertex 0 44.6202 41.1435
    endloop
  endfacet
  facet normal -0 0 1
    outer loop
      vertex 12.5842 -59.0594 10
      vertex 40 -80 10
      vertex 12.5842 -30.9406 10
    endloop
  endfacet
  facet normal 0 0 1
    outer loop
      vertex 40 -80 10
      vertex 12.5842 -59.0594 10
      vertex 12.75 -60 10
    endloop
  endfacet
  facet normal -0 0 1
    outer loop
      vertex 12.1066 -31.7677 10
      vertex 12.5842 -59.0594 10
      vertex 12.5842 -30.9406 10
    endloop
  endfacet
  facet normal 0 0 1
    outer loop
      vertex 12.1066 -31.7677 10
      vertex 12.1066 -58.2323 10
      vertex 12.5842 -59.0594 10
    endloop
  endfacet
  facet normal 0 0 1
    outer loop
      vertex 12.1066 -31.7677 10
      vertex 11.375 -57.6184 10
      vertex 12.1066 -58.2323 10
    endloop
  endfacet
  facet normal -0 0 1
    outer loop
      vertex 11.375 -32.3816 10
      vertex 11.375 -57.6184 10
      vertex 12.1066 -31.7677 10
    endloop
  endfacet
  facet normal -0 0 1
    outer loop
      vertex 10.4775 -32.7082 10
      vertex 11.375 -57.6184 10
      vertex 11.375 -32.3816 10
    endloop
  endfacet
  facet normal 0 0 1
    outer loop
      vertex 10.4775 -32.7082 10
      vertex 10.4775 -57.2918 10
      vertex 11.375 -57.6184 10
    endloop
  endfacet
  facet normal -0 0 1
    outer loop
      vertex 9.52247 -32.7082 10
      vertex 10.4775 -57.2918 10
      vertex 10.4775 -32.7082 10
    endloop
  endfacet
  facet normal 0 0 1
    outer loop
      vertex 9.52247 -32.7082 10
      vertex 9.52247 -57.2918 10
      vertex 10.4775 -57.2918 10
    endloop
  endfacet
  facet normal 0 0 1
    outer loop
      vertex 9.52247 -32.7082 10
      vertex 8.625 -57.6184 10
      vertex 9.52247 -57.2918 10
    endloop
  endfacet
  facet normal 0 0 1
    outer loop
      vertex 8.625 -32.3816 10
      vertex 8.625 -57.6184 10
      vertex 9.52247 -32.7082 10
    endloop
  endfacet
  facet normal 0 0 1
    outer loop
      vertex 7.89338 -31.7677 10
      vertex 8.625 -57.6184 10
      vertex 8.625 -32.3816 10
    endloop
  endfacet
  facet normal 0 0 1
    outer loop
      vertex 7.89338 -31.7677 10
      vertex 7.89338 -58.2323 10
      vertex 8.625 -57.6184 10
    endloop
  endfacet
  facet normal 0 0 1
    outer loop
      vertex 7.41584 -30.9406 10
      vertex 7.89338 -58.2323 10
      vertex 7.89338 -31.7677 10
    endloop
  endfacet
  facet normal 0 0 1
    outer loop
      vertex 7.41584 -30.9406 10
      vertex 7.41584 -59.0594 10
      vertex 7.89338 -58.2323 10
    endloop
  endfacet
  facet normal 0 0 1
    outer loop
      vertex 0 -80 10
      vertex 7.41584 -30.9406 10
      vertex 7.25 -30 10
    endloop
  endfacet
  facet normal 0 0 1
    outer loop
      vertex 7.41584 -30.9406 10
      vertex 0 -80 10
      vertex 7.41584 -59.0594 10
    endloop
  endfacet
  facet normal 0 0 1
    outer loop
      vertex 32.9393 1.31802 10
      vertex 12.1066 -1.76767 10
      vertex 40 -10 10
    endloop
  endfacet
  facet normal 0 0 1
    outer loop
      vertex 40 -10 10
      vertex 12.5842 -29.0594 10
      vertex 12.75 -30 10
    endloop
  endfacet
  facet normal 0 0 1
    outer loop
      vertex 12.1066 -28.2323 10
      vertex 40 -10 10
      vertex 12.1066 -1.76767 10
    endloop
  endfacet
  facet normal 0 0 1
    outer loop
      vertex 40 -10 10
      vertex 12.1066 -28.2323 10
      vertex 12.5842 -29.0594 10
    endloop
  endfacet
  facet normal 0 0 1
    outer loop
      vertex 12.1066 -1.76767 10
      vertex 11.375 -27.6184 10
      vertex 12.1066 -28.2323 10
    endloop
  endfacet
  facet normal -0 0 1
    outer loop
      vertex 11.375 -2.38157 10
      vertex 11.375 -27.6184 10
      vertex 12.1066 -1.76767 10
    endloop
  endfacet
  facet normal -0 0 1
    outer loop
      vertex 10.4775 -2.70822 10
      vertex 11.375 -27.6184 10
      vertex 11.375 -2.38157 10
    endloop
  endfacet
  facet normal 0 0 1
    outer loop
      vertex 10.4775 -2.70822 10
      vertex 10.4775 -27.2918 10
      vertex 11.375 -27.6184 10
    endloop
  endfacet
  facet normal -0 0 1
    outer loop
      vertex 9.52247 -2.70822 10
      vertex 10.4775 -27.2918 10
      vertex 10.4775 -2.70822 10
    endloop
  endfacet
  facet normal 0 0 1
    outer loop
      vertex 9.52247 -2.70822 10
      vertex 9.52247 -27.2918 10
      vertex 10.4775 -27.2918 10
    endloop
  endfacet
  facet normal 0 0 1
    outer loop
      vertex 9.52247 -2.70822 10
      vertex 8.625 -27.6184 10
      vertex 9.52247 -27.2918 10
    endloop
  endfacet
  facet normal 0 0 1
    outer loop
      vertex 8.625 -2.38157 10
      vertex 8.625 -27.6184 10
      vertex 9.52247 -2.70822 10
    endloop
  endfacet
  facet normal 0 0 1
    outer loop
      vertex 7.89338 -1.76767 10
      vertex 8.625 -27.6184 10
      vertex 8.625 -2.38157 10
    endloop
  endfacet
  facet normal 0 0 1
    outer loop
      vertex 7.89338 -1.76767 10
      vertex 7.89338 -28.2323 10
      vertex 8.625 -27.6184 10
    endloop
  endfacet
  facet normal 0 0 1
    outer loop
      vertex 7.41584 -0.940555 10
      vertex 7.89338 -28.2323 10
      vertex 7.89338 -1.76767 10
    endloop
  endfacet
  facet normal 0 0 1
    outer loop
      vertex 7.41584 -0.940555 10
      vertex 7.41584 -29.0594 10
      vertex 7.89338 -28.2323 10
    endloop
  endfacet
  facet normal 0 0 1
    outer loop
      vertex 7.25 0 10
      vertex 7.41584 -29.0594 10
      vertex 7.41584 -0.940555 10
    endloop
  endfacet
  facet normal 0 0 1
    outer loop
      vertex 7.41584 -29.0594 10
      vertex 7.25 0 10
      vertex 7.25 -30 10
    endloop
  endfacet
  facet normal 0 0 1
    outer loop
      vertex 30.818 3.43934 10
      vertex 12.5842 0.940555 10
      vertex 12.75 0 10
    endloop
  endfacet
  facet normal 0 0 1
    outer loop
      vertex 37 20 10
      vertex 12.1066 1.76767 10
      vertex 12.5842 0.940555 10
    endloop
  endfacet
  facet normal 0 0 1
    outer loop
      vertex 37 20 10
      vertex 11.375 2.38157 10
      vertex 12.1066 1.76767 10
    endloop
  endfacet
  facet normal 0 0 1
    outer loop
      vertex 25 37.5 10
      vertex 10.4775 2.70822 10
      vertex 11.375 2.38157 10
    endloop
  endfacet
  facet normal -0 0 1
    outer loop
      vertex 0 37.5 10
      vertex 10.4775 2.70822 10
      vertex 25 37.5 10
    endloop
  endfacet
  facet normal 0 0 1
    outer loop
      vertex 10.4775 2.70822 10
      vertex 0 37.5 10
      vertex 9.52247 2.70822 10
    endloop
  endfacet
  facet normal 0 0 1
    outer loop
      vertex 9.52247 2.70822 10
      vertex 0 37.5 10
      vertex 8.625 2.38157 10
    endloop
  endfacet
  facet normal 0 0 1
    outer loop
      vertex 8.625 2.38157 10
      vertex 0 37.5 10
      vertex 7.89338 1.76767 10
    endloop
  endfacet
  facet normal 0 0 1
    outer loop
      vertex 0 37.5 10
      vertex 7.25 -30 10
      vertex 7.25 0 10
    endloop
  endfacet
  facet normal 0 0 1
    outer loop
      vertex 7.25 -30 10
      vertex 0 37.5 10
      vertex 0 -80 10
    endloop
  endfacet
  facet normal 0 0 1
    outer loop
      vertex 7.41584 0.940555 10
      vertex 0 37.5 10
      vertex 7.25 0 10
    endloop
  endfacet
  facet normal 0 0 1
    outer loop
      vertex 7.89338 1.76767 10
      vertex 0 37.5 10
      vertex 7.41584 0.940555 10
    endloop
  endfacet
  facet normal 0 0 1
    outer loop
      vertex 30.818 3.43934 10
      vertex 37.2732 17.4011 10
      vertex 37 20 10
    endloop
  endfacet
  facet normal 0 0 1
    outer loop
      vertex 37.2732 22.5989 10
      vertex 25 37.5 10
      vertex 37 20 10
    endloop
  endfacet
  facet normal 0 0 1
    outer loop
      vertex 37.2732 17.4011 10
      vertex 35.0607 7.68198 10
      vertex 37.182 5.56066 10
    endloop
  endfacet
  facet normal 0 0 1
    outer loop
      vertex 25 37.5 10
      vertex 35.0607 32.318 10
      vertex 30.818 36.5607 10
    endloop
  endfacet
  facet normal 0 0 1
    outer loop
      vertex 11.375 2.38157 10
      vertex 37 20 10
      vertex 25 37.5 10
    endloop
  endfacet
  facet normal 0 0 1
    outer loop
      vertex 38.0807 25.0842 10
      vertex 35.0607 32.318 10
      vertex 37.2732 22.5989 10
    endloop
  endfacet
  facet normal 0 0 1
    outer loop
      vertex 25 37.5 10
      vertex 37.2732 22.5989 10
      vertex 35.0607 32.318 10
    endloop
  endfacet
  facet normal 0 0 1
    outer loop
      vertex 61.7268 22.5989 10
      vertex 68.182 36.5607 10
      vertex 63.9393 32.318 10
    endloop
  endfacet
  facet normal 0 0 1
    outer loop
      vertex 68.182 36.5607 10
      vertex 62 20 10
      vertex 68.182 3.43934 10
    endloop
  endfacet
  facet normal -0 0 1
    outer loop
      vertex 61.7268 17.4011 10
      vertex 68.182 3.43934 10
      vertex 62 20 10
    endloop
  endfacet
  facet normal 0 0 1
    outer loop
      vertex 57.8641 29.2893 10
      vertex 63.9393 32.318 10
      vertex 61.818 34.4393 10
    endloop
  endfacet
  facet normal 0 0 1
    outer loop
      vertex 68.182 36.5607 10
      vertex 61.7268 22.5989 10
      vertex 62 20 10
    endloop
  endfacet
  facet normal 0 0 1
    outer loop
      vertex 75 62.5 10
      vertex 68.182 36.5607 10
      vertex 75 -10 10
    endloop
  endfacet
  facet normal 0 0 1
    outer loop
      vertex 75 62.5 10
      vertex 66.0607 38.682 10
      vertex 68.182 36.5607 10
    endloop
  endfacet
  facet normal -0 0 1
    outer loop
      vertex 25 62.5 10
      vertex 66.0607 38.682 10
      vertex 75 62.5 10
    endloop
  endfacet
  facet normal 0 0 1
    outer loop
      vertex 63.9393 32.318 10
      vertex 60.9193 25.0842 10
      vertex 61.7268 22.5989 10
    endloop
  endfacet
  facet normal 0 0 1
    outer loop
      vertex 63.9393 32.318 10
      vertex 59.6127 27.3473 10
      vertex 60.9193 25.0842 10
    endloop
  endfacet
  facet normal 0 0 1
    outer loop
      vertex 63.9393 32.318 10
      vertex 57.8641 29.2893 10
      vertex 59.6127 27.3473 10
    endloop
  endfacet
  facet normal 0 0 1
    outer loop
      vertex 66.0607 38.682 10
      vertex 50.8066 32.4315 10
      vertex 61.818 34.4393 10
    endloop
  endfacet
  facet normal 0 0 1
    outer loop
      vertex 61.818 34.4393 10
      vertex 55.75 30.8253 10
      vertex 57.8641 29.2893 10
    endloop
  endfacet
  facet normal 0 0 1
    outer loop
      vertex 61.818 34.4393 10
      vertex 53.3627 31.8882 10
      vertex 55.75 30.8253 10
    endloop
  endfacet
  facet normal 0 0 1
    outer loop
      vertex 61.818 34.4393 10
      vertex 50.8066 32.4315 10
      vertex 53.3627 31.8882 10
    endloop
  endfacet
  facet normal 0 0 1
    outer loop
      vertex 66.0607 38.682 10
      vertex 25 62.5 10
      vertex 50.8066 32.4315 10
    endloop
  endfacet
  facet normal 0 0 1
    outer loop
      vertex 50.8066 32.4315 10
      vertex 25 62.5 10
      vertex 48.1934 32.4315 10
    endloop
  endfacet
  facet normal -0 -0 1
    outer loop
      vertex 37.182 34.4393 10
      vertex 48.1934 32.4315 10
      vertex 32.9393 38.682 10
    endloop
  endfacet
  facet normal 0 0 1
    outer loop
      vertex 45.6373 31.8882 10
      vertex 37.182 34.4393 10
      vertex 43.25 30.8253 10
    endloop
  endfacet
  facet normal 0 0 1
    outer loop
      vertex 39.3873 27.3473 10
      vertex 35.0607 32.318 10
      vertex 38.0807 25.0842 10
    endloop
  endfacet
  facet normal 0 0 1
    outer loop
      vertex 41.1359 29.2893 10
      vertex 35.0607 32.318 10
      vertex 39.3873 27.3473 10
    endloop
  endfacet
  facet normal -0 0 1
    outer loop
      vertex 35.0607 32.318 10
      vertex 41.1359 29.2893 10
      vertex 37.182 34.4393 10
    endloop
  endfacet
  facet normal 0 0 1
    outer loop
      vertex 43.25 30.8253 10
      vertex 37.182 34.4393 10
      vertex 41.1359 29.2893 10
    endloop
  endfacet
  facet normal 0 0 1
    outer loop
      vertex 48.1934 32.4315 10
      vertex 37.182 34.4393 10
      vertex 45.6373 31.8882 10
    endloop
  endfacet
  facet normal 0 0 1
    outer loop
      vertex 32.9393 38.682 10
      vertex 25 37.5 10
      vertex 30.818 36.5607 10
    endloop
  endfacet
  facet normal 0 0 1
    outer loop
      vertex 25 37.5 10
      vertex 32.9393 38.682 10
      vertex 25 62.5 10
    endloop
  endfacet
  facet normal 0 0 1
    outer loop
      vertex 48.1934 32.4315 10
      vertex 25 62.5 10
      vertex 32.9393 38.682 10
    endloop
  endfacet
  facet normal -0 0 1
    outer loop
      vertex 68.182 3.43934 10
      vertex 75 -10 10
      vertex 68.182 36.5607 10
    endloop
  endfacet
  facet normal -0 0 1
    outer loop
      vertex 66.0607 1.31802 10
      vertex 75 -10 10
      vertex 68.182 3.43934 10
    endloop
  endfacet
  facet normal 0 0 1
    outer loop
      vertex 40 -10 10
      vertex 66.0607 1.31802 10
      vertex 61.818 5.56066 10
    endloop
  endfacet
  facet normal -0 0 1
    outer loop
      vertex 59.6127 12.6527 10
      vertex 63.9393 7.68198 10
      vertex 60.9193 14.9158 10
    endloop
  endfacet
  facet normal -0 0 1
    outer loop
      vertex 57.8641 10.7107 10
      vertex 63.9393 7.68198 10
      vertex 59.6127 12.6527 10
    endloop
  endfacet
  facet normal 0 0 1
    outer loop
      vertex 63.9393 7.68198 10
      vertex 57.8641 10.7107 10
      vertex 61.818 5.56066 10
    endloop
  endfacet
  facet normal -0 0 1
    outer loop
      vertex 55.75 9.17468 10
      vertex 61.818 5.56066 10
      vertex 57.8641 10.7107 10
    endloop
  endfacet
  facet normal -0 0 1
    outer loop
      vertex 53.3627 8.11179 10
      vertex 61.818 5.56066 10
      vertex 55.75 9.17468 10
    endloop
  endfacet
  facet normal -0 0 1
    outer loop
      vertex 50.8066 7.56848 10
      vertex 61.818 5.56066 10
      vertex 53.3627 8.11179 10
    endloop
  endfacet
  facet normal 0 0 1
    outer loop
      vertex 61.818 5.56066 10
      vertex 50.8066 7.56848 10
      vertex 40 -10 10
    endloop
  endfacet
  facet normal 0 0 1
    outer loop
      vertex 40 -10 10
      vertex 50.8066 7.56848 10
      vertex 48.1934 7.56848 10
    endloop
  endfacet
  facet normal 0 0 1
    outer loop
      vertex 40 -10 10
      vertex 48.1934 7.56848 10
      vertex 45.6373 8.11179 10
    endloop
  endfacet
  facet normal 0 0 1
    outer loop
      vertex 37.182 5.56066 10
      vertex 45.6373 8.11179 10
      vertex 43.25 9.17468 10
    endloop
  endfacet
  facet normal 0 0 1
    outer loop
      vertex 66.0607 1.31802 10
      vertex 40 -10 10
      vertex 75 -10 10
    endloop
  endfacet
  facet normal 0 0 1
    outer loop
      vertex 37.182 5.56066 10
      vertex 43.25 9.17468 10
      vertex 41.1359 10.7107 10
    endloop
  endfacet
  facet normal 0 0 1
    outer loop
      vertex 37.182 5.56066 10
      vertex 41.1359 10.7107 10
      vertex 39.3873 12.6527 10
    endloop
  endfacet
  facet normal 0 0 1
    outer loop
      vertex 45.6373 8.11179 10
      vertex 37.182 5.56066 10
      vertex 40 -10 10
    endloop
  endfacet
  facet normal 0 0 1
    outer loop
      vertex 37.182 5.56066 10
      vertex 39.3873 12.6527 10
      vertex 38.0807 14.9158 10
    endloop
  endfacet
  facet normal 0 0 1
    outer loop
      vertex 37.182 5.56066 10
      vertex 38.0807 14.9158 10
      vertex 37.2732 17.4011 10
    endloop
  endfacet
  facet normal -0 0 1
    outer loop
      vertex 32.9393 1.31802 10
      vertex 40 -10 10
      vertex 37.182 5.56066 10
    endloop
  endfacet
  facet normal 0 0 1
    outer loop
      vertex 30.818 3.43934 10
      vertex 12.5842 -0.940555 10
      vertex 32.9393 1.31802 10
    endloop
  endfacet
  facet normal 0 0 1
    outer loop
      vertex 12.5842 -0.940555 10
      vertex 30.818 3.43934 10
      vertex 12.75 0 10
    endloop
  endfacet
  facet normal 0 0 1
    outer loop
      vertex 37.2732 17.4011 10
      vertex 30.818 3.43934 10
      vertex 35.0607 7.68198 10
    endloop
  endfacet
  facet normal 0 0 1
    outer loop
      vertex 12.5842 0.940555 10
      vertex 30.818 3.43934 10
      vertex 37 20 10
    endloop
  endfacet
  facet normal 0 0 1
    outer loop
      vertex 12.1066 -1.76767 10
      vertex 32.9393 1.31802 10
      vertex 12.5842 -0.940555 10
    endloop
  endfacet
  facet normal 0 0 1
    outer loop
      vertex 12.5842 -30.9406 10
      vertex 40 -10 10
      vertex 12.75 -30 10
    endloop
  endfacet
  facet normal 0 0 1
    outer loop
      vertex 40 -10 10
      vertex 12.5842 -30.9406 10
      vertex 40 -80 10
    endloop
  endfacet
  facet normal -0 0 1
    outer loop
      vertex 12.5842 -60.9406 10
      vertex 40 -80 10
      vertex 12.75 -60 10
    endloop
  endfacet
  facet normal -0 0 1
    outer loop
      vertex 12.1066 -61.7677 10
      vertex 40 -80 10
      vertex 12.5842 -60.9406 10
    endloop
  endfacet
  facet normal -0 0 1
    outer loop
      vertex 11.375 -62.3816 10
      vertex 40 -80 10
      vertex 12.1066 -61.7677 10
    endloop
  endfacet
  facet normal 0 0 1
    outer loop
      vertex 0 -80 10
      vertex 11.375 -62.3816 10
      vertex 10.4775 -62.7082 10
    endloop
  endfacet
  facet normal 0 0 1
    outer loop
      vertex 0 -80 10
      vertex 10.4775 -62.7082 10
      vertex 9.52247 -62.7082 10
    endloop
  endfacet
  facet normal 0 0 1
    outer loop
      vertex 0 -80 10
      vertex 9.52247 -62.7082 10
      vertex 8.625 -62.3816 10
    endloop
  endfacet
  facet normal 0 0 1
    outer loop
      vertex 11.375 -62.3816 10
      vertex 0 -80 10
      vertex 40 -80 10
    endloop
  endfacet
  facet normal 0 0 1
    outer loop
      vertex 7.89338 -61.7677 10
      vertex 0 -80 10
      vertex 8.625 -62.3816 10
    endloop
  endfacet
  facet normal 0 0 1
    outer loop
      vertex 7.41584 -60.9406 10
      vertex 0 -80 10
      vertex 7.89338 -61.7677 10
    endloop
  endfacet
  facet normal 0 0 1
    outer loop
      vertex 7.25 -60 10
      vertex 0 -80 10
      vertex 7.41584 -60.9406 10
    endloop
  endfacet
  facet normal 0 0 1
    outer loop
      vertex 7.41584 -59.0594 10
      vertex 0 -80 10
      vertex 7.25 -60 10
    endloop
  endfacet
  facet normal 0 0 1
    outer loop
      vertex 68.182 3.43934 10
      vertex 61.7268 17.4011 10
      vertex 63.9393 7.68198 10
    endloop
  endfacet
  facet normal -0 0 1
    outer loop
      vertex 60.9193 14.9158 10
      vertex 63.9393 7.68198 10
      vertex 61.7268 17.4011 10
    endloop
  endfacet
  facet normal 1 -0 0
    outer loop
      vertex 75 -10 10
      vertex 75 62.5 0
      vertex 75 62.5 10
    endloop
  endfacet
  facet normal 1 0 0
    outer loop
      vertex 75 62.5 0
      vertex 75 -10 10
      vertex 75 -10 0
    endloop
  endfacet
  facet normal 0 1 0
    outer loop
      vertex 75 62.5 10
      vertex 75 62.5 0
      vertex 25 62.5 10
    endloop
  endfacet
  facet normal 0 1 -0
    outer loop
      vertex 25 62.5 10
      vertex 0 62.5 50
      vertex 25 62.5 50
    endloop
  endfacet
  facet normal 0 1 0
    outer loop
      vertex 25 62.5 10
      vertex 0 62.5 0
      vertex 0 62.5 50
    endloop
  endfacet
  facet normal 0 1 0
    outer loop
      vertex 0 62.5 0
      vertex 25 62.5 10
      vertex 75 62.5 0
    endloop
  endfacet
  facet normal 0 0 -1
    outer loop
      vertex 12.1066 -28.2323 0
      vertex 40 -10 0
      vertex 12.5842 -29.0594 0
    endloop
  endfacet
  facet normal 0 0 -1
    outer loop
      vertex 40 -10 0
      vertex 12.5842 -0.940555 0
      vertex 12.75 0 0
    endloop
  endfacet
  facet normal 0 0 -1
    outer loop
      vertex 12.1066 -1.76767 0
      vertex 40 -10 0
      vertex 12.1066 -28.2323 0
    endloop
  endfacet
  facet normal 0 0 -1
    outer loop
      vertex 40 -10 0
      vertex 12.1066 -1.76767 0
      vertex 12.5842 -0.940555 0
    endloop
  endfacet
  facet normal 0 0 -1
    outer loop
      vertex 11.375 -27.6184 0
      vertex 12.1066 -1.76767 0
      vertex 12.1066 -28.2323 0
    endloop
  endfacet
  facet normal 0 0 -1
    outer loop
      vertex 11.375 -27.6184 0
      vertex 11.375 -2.38157 0
      vertex 12.1066 -1.76767 0
    endloop
  endfacet
  facet normal 0 0 -1
    outer loop
      vertex 10.4775 -27.2918 0
      vertex 11.375 -2.38157 0
      vertex 11.375 -27.6184 0
    endloop
  endfacet
  facet normal 0 0 -1
    outer loop
      vertex 10.4775 -27.2918 0
      vertex 10.4775 -2.70822 0
      vertex 11.375 -2.38157 0
    endloop
  endfacet
  facet normal 0 0 -1
    outer loop
      vertex 9.52247 -27.2918 0
      vertex 10.4775 -2.70822 0
      vertex 10.4775 -27.2918 0
    endloop
  endfacet
  facet normal 0 0 -1
    outer loop
      vertex 9.52247 -27.2918 0
      vertex 9.52247 -2.70822 0
      vertex 10.4775 -2.70822 0
    endloop
  endfacet
  facet normal 0 0 -1
    outer loop
      vertex 8.625 -27.6184 0
      vertex 9.52247 -2.70822 0
      vertex 9.52247 -27.2918 0
    endloop
  endfacet
  facet normal 0 0 -1
    outer loop
      vertex 8.625 -27.6184 0
      vertex 8.625 -2.38157 0
      vertex 9.52247 -2.70822 0
    endloop
  endfacet
  facet normal 0 0 -1
    outer loop
      vertex 7.89338 -28.2323 0
      vertex 8.625 -2.38157 0
      vertex 8.625 -27.6184 0
    endloop
  endfacet
  facet normal 0 0 -1
    outer loop
      vertex 7.89338 -28.2323 0
      vertex 7.89338 -1.76767 0
      vertex 8.625 -2.38157 0
    endloop
  endfacet
  facet normal 0 0 -1
    outer loop
      vertex 7.41584 -29.0594 0
      vertex 7.89338 -1.76767 0
      vertex 7.89338 -28.2323 0
    endloop
  endfacet
  facet normal 0 0 -1
    outer loop
      vertex 7.41584 -29.0594 0
      vertex 7.41584 -0.940555 0
      vertex 7.89338 -1.76767 0
    endloop
  endfacet
  facet normal 0 0 -1
    outer loop
      vertex 7.25 -30 0
      vertex 7.41584 -0.940555 0
      vertex 7.41584 -29.0594 0
    endloop
  endfacet
  facet normal -0 0 -1
    outer loop
      vertex 7.41584 -0.940555 0
      vertex 7.25 -30 0
      vertex 7.25 0 0
    endloop
  endfacet
  facet normal 0 0 -1
    outer loop
      vertex 12.5842 -30.9406 0
      vertex 40 -10 0
      vertex 12.5842 -59.0594 0
    endloop
  endfacet
  facet normal 0 0 -1
    outer loop
      vertex 40 -10 0
      vertex 12.5842 -30.9406 0
      vertex 12.75 -30 0
    endloop
  endfacet
  facet normal 0 0 -1
    outer loop
      vertex 12.1066 -58.2323 0
      vertex 12.5842 -30.9406 0
      vertex 12.5842 -59.0594 0
    endloop
  endfacet
  facet normal 0 0 -1
    outer loop
      vertex 12.1066 -58.2323 0
      vertex 12.1066 -31.7677 0
      vertex 12.5842 -30.9406 0
    endloop
  endfacet
  facet normal 0 0 -1
    outer loop
      vertex 11.375 -57.6184 0
      vertex 12.1066 -31.7677 0
      vertex 12.1066 -58.2323 0
    endloop
  endfacet
  facet normal 0 0 -1
    outer loop
      vertex 11.375 -57.6184 0
      vertex 11.375 -32.3816 0
      vertex 12.1066 -31.7677 0
    endloop
  endfacet
  facet normal 0 0 -1
    outer loop
      vertex 10.4775 -57.2918 0
      vertex 11.375 -32.3816 0
      vertex 11.375 -57.6184 0
    endloop
  endfacet
  facet normal 0 0 -1
    outer loop
      vertex 10.4775 -57.2918 0
      vertex 10.4775 -32.7082 0
      vertex 11.375 -32.3816 0
    endloop
  endfacet
  facet normal 0 0 -1
    outer loop
      vertex 9.52247 -57.2918 0
      vertex 10.4775 -32.7082 0
      vertex 10.4775 -57.2918 0
    endloop
  endfacet
  facet normal 0 0 -1
    outer loop
      vertex 9.52247 -57.2918 0
      vertex 9.52247 -32.7082 0
      vertex 10.4775 -32.7082 0
    endloop
  endfacet
  facet normal 0 0 -1
    outer loop
      vertex 8.625 -57.6184 0
      vertex 9.52247 -32.7082 0
      vertex 9.52247 -57.2918 0
    endloop
  endfacet
  facet normal 0 0 -1
    outer loop
      vertex 8.625 -57.6184 0
      vertex 8.625 -32.3816 0
      vertex 9.52247 -32.7082 0
    endloop
  endfacet
  facet normal 0 0 -1
    outer loop
      vertex 7.89338 -58.2323 0
      vertex 8.625 -32.3816 0
      vertex 8.625 -57.6184 0
    endloop
  endfacet
  facet normal 0 0 -1
    outer loop
      vertex 7.89338 -58.2323 0
      vertex 7.89338 -31.7677 0
      vertex 8.625 -32.3816 0
    endloop
  endfacet
  facet normal 0 0 -1
    outer loop
      vertex 7.41584 -59.0594 0
      vertex 7.89338 -31.7677 0
      vertex 7.89338 -58.2323 0
    endloop
  endfacet
  facet normal 0 0 -1
    outer loop
      vertex 7.41584 -59.0594 0
      vertex 7.41584 -30.9406 0
      vertex 7.89338 -31.7677 0
    endloop
  endfacet
  facet normal 0 0 -1
    outer loop
      vertex 0 -80 0
      vertex 7.41584 -59.0594 0
      vertex 7.25 -60 0
    endloop
  endfacet
  facet normal -0 0 -1
    outer loop
      vertex 7.41584 -59.0594 0
      vertex 0 -80 0
      vertex 7.41584 -30.9406 0
    endloop
  endfacet
  facet normal 0 0 -1
    outer loop
      vertex 30.818 36.5607 0
      vertex 37.2732 22.5989 0
      vertex 37 20 0
    endloop
  endfacet
  facet normal 0 0 -1
    outer loop
      vertex 11.375 2.38157 0
      vertex 37.2732 17.4011 0
      vertex 30.818 3.43934 0
    endloop
  endfacet
  facet normal 0 0 -1
    outer loop
      vertex 37.2732 22.5989 0
      vertex 35.0607 32.318 0
      vertex 37.182 34.4393 0
    endloop
  endfacet
  facet normal -0 0 -1
    outer loop
      vertex 37.2732 17.4011 0
      vertex 11.375 2.38157 0
      vertex 37 20 0
    endloop
  endfacet
  facet normal 0 0 -1
    outer loop
      vertex 10.4775 2.70822 0
      vertex 37 20 0
      vertex 11.375 2.38157 0
    endloop
  endfacet
  facet normal 0 0 -1
    outer loop
      vertex 12.5842 -59.0594 0
      vertex 40 -10 0
      vertex 40 -80 0
    endloop
  endfacet
  facet normal 0 0 -1
    outer loop
      vertex 40 -10 0
      vertex 37.182 5.56066 0
      vertex 39.3873 12.6527 0
    endloop
  endfacet
  facet normal 0 0 -1
    outer loop
      vertex 35.0607 7.68198 0
      vertex 39.3873 12.6527 0
      vertex 37.182 5.56066 0
    endloop
  endfacet
  facet normal -0 0 -1
    outer loop
      vertex 39.3873 12.6527 0
      vertex 35.0607 7.68198 0
      vertex 38.0807 14.9158 0
    endloop
  endfacet
  facet normal 0 0 -1
    outer loop
      vertex 40 -10 0
      vertex 32.9393 1.31802 0
      vertex 37.182 5.56066 0
    endloop
  endfacet
  facet normal 0 0 -1
    outer loop
      vertex 12.5842 -29.0594 0
      vertex 40 -10 0
      vertex 12.75 -30 0
    endloop
  endfacet
  facet normal 0 0 -1
    outer loop
      vertex 40 -10 0
      vertex 12.75 0 0
      vertex 32.9393 1.31802 0
    endloop
  endfacet
  facet normal 0 0 -1
    outer loop
      vertex 12.5842 -59.0594 0
      vertex 40 -80 0
      vertex 12.75 -60 0
    endloop
  endfacet
  facet normal 0 0 -1
    outer loop
      vertex 40 -80 0
      vertex 12.5842 -60.9406 0
      vertex 12.75 -60 0
    endloop
  endfacet
  facet normal 0 0 -1
    outer loop
      vertex 40 -80 0
      vertex 12.1066 -61.7677 0
      vertex 12.5842 -60.9406 0
    endloop
  endfacet
  facet normal 0 0 -1
    outer loop
      vertex 40 -80 0
      vertex 11.375 -62.3816 0
      vertex 12.1066 -61.7677 0
    endloop
  endfacet
  facet normal 0 0 -1
    outer loop
      vertex 0 -80 0
      vertex 11.375 -62.3816 0
      vertex 40 -80 0
    endloop
  endfacet
  facet normal 0 0 -1
    outer loop
      vertex 11.375 -62.3816 0
      vertex 0 -80 0
      vertex 10.4775 -62.7082 0
    endloop
  endfacet
  facet normal -0 0 -1
    outer loop
      vertex 10.4775 -62.7082 0
      vertex 0 -80 0
      vertex 9.52247 -62.7082 0
    endloop
  endfacet
  facet normal -0 0 -1
    outer loop
      vertex 7.41584 -30.9406 0
      vertex 0 -80 0
      vertex 7.25 -30 0
    endloop
  endfacet
  facet normal -0 0 -1
    outer loop
      vertex 7.25 -30 0
      vertex 0 -80 0
      vertex 7.25 0 0
    endloop
  endfacet
  facet normal -0 0 -1
    outer loop
      vertex 7.41584 -60.9406 0
      vertex 0 -80 0
      vertex 7.25 -60 0
    endloop
  endfacet
  facet normal -0 0 -1
    outer loop
      vertex 7.89338 -61.7677 0
      vertex 0 -80 0
      vertex 7.41584 -60.9406 0
    endloop
  endfacet
  facet normal -0 0 -1
    outer loop
      vertex 8.625 -62.3816 0
      vertex 0 -80 0
      vertex 7.89338 -61.7677 0
    endloop
  endfacet
  facet normal -0 0 -1
    outer loop
      vertex 9.52247 -62.7082 0
      vertex 0 -80 0
      vertex 8.625 -62.3816 0
    endloop
  endfacet
  facet normal -0 0 -1
    outer loop
      vertex 38.0807 14.9158 0
      vertex 35.0607 7.68198 0
      vertex 37.2732 17.4011 0
    endloop
  endfacet
  facet normal 0 0 -1
    outer loop
      vertex 30.818 3.43934 0
      vertex 37.2732 17.4011 0
      vertex 35.0607 7.68198 0
    endloop
  endfacet
  facet normal 0 0 -1
    outer loop
      vertex 61.7268 17.4011 0
      vertex 68.182 3.43934 0
      vertex 63.9393 7.68198 0
    endloop
  endfacet
  facet normal 0 0 -1
    outer loop
      vertex 68.182 3.43934 0
      vertex 62 20 0
      vertex 68.182 36.5607 0
    endloop
  endfacet
  facet normal 0 0 -1
    outer loop
      vertex 61.7268 22.5989 0
      vertex 68.182 36.5607 0
      vertex 62 20 0
    endloop
  endfacet
  facet normal 0 0 -1
    outer loop
      vertex 57.8641 10.7107 0
      vertex 63.9393 7.68198 0
      vertex 61.818 5.56066 0
    endloop
  endfacet
  facet normal 0 0 -1
    outer loop
      vertex 68.182 3.43934 0
      vertex 61.7268 17.4011 0
      vertex 62 20 0
    endloop
  endfacet
  facet normal 0 0 -1
    outer loop
      vertex 68.182 36.5607 0
      vertex 75 -10 0
      vertex 68.182 3.43934 0
    endloop
  endfacet
  facet normal 0 0 -1
    outer loop
      vertex 75 -10 0
      vertex 66.0607 1.31802 0
      vertex 68.182 3.43934 0
    endloop
  endfacet
  facet normal 0 0 -1
    outer loop
      vertex 40 -10 0
      vertex 66.0607 1.31802 0
      vertex 75 -10 0
    endloop
  endfacet
  facet normal 0 0 -1
    outer loop
      vertex 63.9393 7.68198 0
      vertex 60.9193 14.9158 0
      vertex 61.7268 17.4011 0
    endloop
  endfacet
  facet normal 0 0 -1
    outer loop
      vertex 63.9393 7.68198 0
      vertex 59.6127 12.6527 0
      vertex 60.9193 14.9158 0
    endloop
  endfacet
  facet normal 0 0 -1
    outer loop
      vertex 63.9393 7.68198 0
      vertex 57.8641 10.7107 0
      vertex 59.6127 12.6527 0
    endloop
  endfacet
  facet normal 0 0 -1
    outer loop
      vertex 61.818 5.56066 0
      vertex 55.75 9.17468 0
      vertex 57.8641 10.7107 0
    endloop
  endfacet
  facet normal -0 0 -1
    outer loop
      vertex 66.0607 1.31802 0
      vertex 40 -10 0
      vertex 61.818 5.56066 0
    endloop
  endfacet
  facet normal 0 0 -1
    outer loop
      vertex 61.818 5.56066 0
      vertex 53.3627 8.11179 0
      vertex 55.75 9.17468 0
    endloop
  endfacet
  facet normal 0 -0 -1
    outer loop
      vertex 50.8066 7.56848 0
      vertex 61.818 5.56066 0
      vertex 40 -10 0
    endloop
  endfacet
  facet normal 0 0 -1
    outer loop
      vertex 61.818 5.56066 0
      vertex 50.8066 7.56848 0
      vertex 53.3627 8.11179 0
    endloop
  endfacet
  facet normal -0 0 -1
    outer loop
      vertex 50.8066 7.56848 0
      vertex 40 -10 0
      vertex 48.1934 7.56848 0
    endloop
  endfacet
  facet normal -0 0 -1
    outer loop
      vertex 48.1934 7.56848 0
      vertex 40 -10 0
      vertex 45.6373 8.11179 0
    endloop
  endfacet
  facet normal -0 0 -1
    outer loop
      vertex 45.6373 8.11179 0
      vertex 40 -10 0
      vertex 43.25 9.17468 0
    endloop
  endfacet
  facet normal 0 0 -1
    outer loop
      vertex 40 -10 0
      vertex 41.1359 10.7107 0
      vertex 43.25 9.17468 0
    endloop
  endfacet
  facet normal -0 0 -1
    outer loop
      vertex 41.1359 10.7107 0
      vertex 40 -10 0
      vertex 39.3873 12.6527 0
    endloop
  endfacet
  facet normal 0 0 -1
    outer loop
      vertex 75 -10 0
      vertex 68.182 36.5607 0
      vertex 75 62.5 0
    endloop
  endfacet
  facet normal 0 0 -1
    outer loop
      vertex 66.0607 38.682 0
      vertex 75 62.5 0
      vertex 68.182 36.5607 0
    endloop
  endfacet
  facet normal 0 0 -1
    outer loop
      vertex 50.8066 32.4315 0
      vertex 66.0607 38.682 0
      vertex 61.818 34.4393 0
    endloop
  endfacet
  facet normal 0 0 -1
    outer loop
      vertex 59.6127 27.3473 0
      vertex 63.9393 32.318 0
      vertex 60.9193 25.0842 0
    endloop
  endfacet
  facet normal 0 0 -1
    outer loop
      vertex 57.8641 29.2893 0
      vertex 63.9393 32.318 0
      vertex 59.6127 27.3473 0
    endloop
  endfacet
  facet normal -0 0 -1
    outer loop
      vertex 63.9393 32.318 0
      vertex 57.8641 29.2893 0
      vertex 61.818 34.4393 0
    endloop
  endfacet
  facet normal 0 0 -1
    outer loop
      vertex 55.75 30.8253 0
      vertex 61.818 34.4393 0
      vertex 57.8641 29.2893 0
    endloop
  endfacet
  facet normal 0 0 -1
    outer loop
      vertex 53.3627 31.8882 0
      vertex 61.818 34.4393 0
      vertex 55.75 30.8253 0
    endloop
  endfacet
  facet normal 0 0 -1
    outer loop
      vertex 50.8066 32.4315 0
      vertex 61.818 34.4393 0
      vertex 53.3627 31.8882 0
    endloop
  endfacet
  facet normal 0 0 -1
    outer loop
      vertex 32.9393 38.682 0
      vertex 66.0607 38.682 0
      vertex 50.8066 32.4315 0
    endloop
  endfacet
  facet normal 0 0 -1
    outer loop
      vertex 32.9393 38.682 0
      vertex 50.8066 32.4315 0
      vertex 48.1934 32.4315 0
    endloop
  endfacet
  facet normal 0 0 -1
    outer loop
      vertex 37.182 34.4393 0
      vertex 48.1934 32.4315 0
      vertex 45.6373 31.8882 0
    endloop
  endfacet
  facet normal 0 0 -1
    outer loop
      vertex 37.182 34.4393 0
      vertex 45.6373 31.8882 0
      vertex 43.25 30.8253 0
    endloop
  endfacet
  facet normal 0 0 -1
    outer loop
      vertex 37.182 34.4393 0
      vertex 43.25 30.8253 0
      vertex 41.1359 29.2893 0
    endloop
  endfacet
  facet normal 0 0 -1
    outer loop
      vertex 37.182 34.4393 0
      vertex 38.0807 25.0842 0
      vertex 37.2732 22.5989 0
    endloop
  endfacet
  facet normal 0 0 -1
    outer loop
      vertex 37.182 34.4393 0
      vertex 39.3873 27.3473 0
      vertex 38.0807 25.0842 0
    endloop
  endfacet
  facet normal 0 0 -1
    outer loop
      vertex 37.182 34.4393 0
      vertex 41.1359 29.2893 0
      vertex 39.3873 27.3473 0
    endloop
  endfacet
  facet normal 0 0 -1
    outer loop
      vertex 48.1934 32.4315 0
      vertex 37.182 34.4393 0
      vertex 32.9393 38.682 0
    endloop
  endfacet
  facet normal 0 0 -1
    outer loop
      vertex 66.0607 38.682 0
      vertex 32.9393 38.682 0
      vertex 75 62.5 0
    endloop
  endfacet
  facet normal -0 0 -1
    outer loop
      vertex 32.9393 1.31802 0
      vertex 12.75 0 0
      vertex 30.818 3.43934 0
    endloop
  endfacet
  facet normal 0 0 -1
    outer loop
      vertex 12.5842 0.940555 0
      vertex 30.818 3.43934 0
      vertex 12.75 0 0
    endloop
  endfacet
  facet normal 0 0 -1
    outer loop
      vertex 12.1066 1.76767 0
      vertex 30.818 3.43934 0
      vertex 12.5842 0.940555 0
    endloop
  endfacet
  facet normal 0 0 -1
    outer loop
      vertex 11.375 2.38157 0
      vertex 30.818 3.43934 0
      vertex 12.1066 1.76767 0
    endloop
  endfacet
  facet normal 0 0 -1
    outer loop
      vertex 37.2732 22.5989 0
      vertex 30.818 36.5607 0
      vertex 35.0607 32.318 0
    endloop
  endfacet
  facet normal -0 0 -1
    outer loop
      vertex 37 20 0
      vertex 10.4775 2.70822 0
      vertex 30.818 36.5607 0
    endloop
  endfacet
  facet normal 0 0 -1
    outer loop
      vertex 9.52247 2.70822 0
      vertex 30.818 36.5607 0
      vertex 10.4775 2.70822 0
    endloop
  endfacet
  facet normal 0 0 -1
    outer loop
      vertex 0 62.5 0
      vertex 9.52247 2.70822 0
      vertex 8.625 2.38157 0
    endloop
  endfacet
  facet normal 0 0 -1
    outer loop
      vertex 0 62.5 0
      vertex 8.625 2.38157 0
      vertex 7.89338 1.76767 0
    endloop
  endfacet
  facet normal 0 0 -1
    outer loop
      vertex 32.9393 38.682 0
      vertex 0 62.5 0
      vertex 75 62.5 0
    endloop
  endfacet
  facet normal 0 0 -1
    outer loop
      vertex 30.818 36.5607 0
      vertex 0 62.5 0
      vertex 32.9393 38.682 0
    endloop
  endfacet
  facet normal 0 0 -1
    outer loop
      vertex 9.52247 2.70822 0
      vertex 0 62.5 0
      vertex 30.818 36.5607 0
    endloop
  endfacet
  facet normal 0 0 -1
    outer loop
      vertex 7.41584 0.940555 0
      vertex 0 62.5 0
      vertex 7.89338 1.76767 0
    endloop
  endfacet
  facet normal 0 0 -1
    outer loop
      vertex 7.25 0 0
      vertex 0 62.5 0
      vertex 7.41584 0.940555 0
    endloop
  endfacet
  facet normal 0 0 -1
    outer loop
      vertex 0 62.5 0
      vertex 7.25 0 0
      vertex 0 -80 0
    endloop
  endfacet
  facet normal 0 0 -1
    outer loop
      vertex 68.182 36.5607 0
      vertex 61.7268 22.5989 0
      vertex 63.9393 32.318 0
    endloop
  endfacet
  facet normal 0 0 -1
    outer loop
      vertex 60.9193 25.0842 0
      vertex 63.9393 32.318 0
      vertex 61.7268 22.5989 0
    endloop
  endfacet
  facet normal 0 -1 0
    outer loop
      vertex 0 -80 0
      vertex 40 -80 10
      vertex 0 -80 10
    endloop
  endfacet
  facet normal 0 -1 -0
    outer loop
      vertex 40 -80 10
      vertex 0 -80 0
      vertex 40 -80 0
    endloop
  endfacet
  facet normal -0 0 1
    outer loop
      vertex 0 62.5 50
      vertex 25 37.5 50
      vertex 25 62.5 50
    endloop
  endfacet
  facet normal 0 0 1
    outer loop
      vertex 25 37.5 50
      vertex 0 62.5 50
      vertex 0 37.5 50
    endloop
  endfacet
  facet normal 1 -0 0
    outer loop
      vertex 25 37.5 50
      vertex 25 62.5 10
      vertex 25 62.5 50
    endloop
  endfacet
  facet normal 1 0 0
    outer loop
      vertex 25 62.5 10
      vertex 25 37.5 50
      vertex 25 37.5 10
    endloop
  endfacet
  facet normal 0 -1 0
    outer loop
      vertex 0 37.5 10
      vertex 25 37.5 50
      vertex 0 37.5 50
    endloop
  endfacet
  facet normal 0 -1 -0
    outer loop
      vertex 25 37.5 50
      vertex 0 37.5 10
      vertex 25 37.5 10
    endloop
  endfacet
  facet normal -0.984808 -0.173649 0
    outer loop
      vertex 12.75 0 0
      vertex 12.5842 0.940555 10
      vertex 12.5842 0.940555 0
    endloop
  endfacet
  facet normal -0.984808 -0.173649 0
    outer loop
      vertex 12.5842 0.940555 10
      vertex 12.75 0 0
      vertex 12.75 0 10
    endloop
  endfacet
  facet normal 0.984808 0.173648 0
    outer loop
      vertex 7.41584 -0.940555 10
      vertex 7.25 0 0
      vertex 7.25 0 10
    endloop
  endfacet
  facet normal 0.984808 0.173648 0
    outer loop
      vertex 7.25 0 0
      vertex 7.41584 -0.940555 10
      vertex 7.41584 -0.940555 0
    endloop
  endfacet
  facet normal 0 -1 0
    outer loop
      vertex 9.52247 2.70822 0
      vertex 10.4775 2.70822 10
      vertex 9.52247 2.70822 10
    endloop
  endfacet
  facet normal 0 -1 -0
    outer loop
      vertex 10.4775 2.70822 10
      vertex 9.52247 2.70822 0
      vertex 10.4775 2.70822 0
    endloop
  endfacet
  facet normal 0 1 -0
    outer loop
      vertex 10.4775 -2.70822 0
      vertex 9.52247 -2.70822 10
      vertex 10.4775 -2.70822 10
    endloop
  endfacet
  facet normal 0 1 0
    outer loop
      vertex 9.52247 -2.70822 10
      vertex 10.4775 -2.70822 0
      vertex 9.52247 -2.70822 0
    endloop
  endfacet
  facet normal -0.642787 -0.766045 0
    outer loop
      vertex 11.375 2.38157 0
      vertex 12.1066 1.76767 10
      vertex 11.375 2.38157 10
    endloop
  endfacet
  facet normal -0.642787 -0.766045 -0
    outer loop
      vertex 12.1066 1.76767 10
      vertex 11.375 2.38157 0
      vertex 12.1066 1.76767 0
    endloop
  endfacet
  facet normal -0.866026 -0.5 0
    outer loop
      vertex 12.5842 0.940555 0
      vertex 12.1066 1.76767 10
      vertex 12.1066 1.76767 0
    endloop
  endfacet
  facet normal -0.866026 -0.5 0
    outer loop
      vertex 12.1066 1.76767 10
      vertex 12.5842 0.940555 0
      vertex 12.5842 0.940555 10
    endloop
  endfacet
  facet normal -0.34202 -0.939693 0
    outer loop
      vertex 10.4775 2.70822 0
      vertex 11.375 2.38157 10
      vertex 10.4775 2.70822 10
    endloop
  endfacet
  facet normal -0.34202 -0.939693 -0
    outer loop
      vertex 11.375 2.38157 10
      vertex 10.4775 2.70822 0
      vertex 11.375 2.38157 0
    endloop
  endfacet
  facet normal 0.642787 -0.766045 0
    outer loop
      vertex 7.89338 1.76767 0
      vertex 8.625 2.38157 10
      vertex 7.89338 1.76767 10
    endloop
  endfacet
  facet normal 0.642787 -0.766045 0
    outer loop
      vertex 8.625 2.38157 10
      vertex 7.89338 1.76767 0
      vertex 8.625 2.38157 0
    endloop
  endfacet
  facet normal 0.866026 -0.5 0
    outer loop
      vertex 7.41584 0.940555 10
      vertex 7.89338 1.76767 0
      vertex 7.89338 1.76767 10
    endloop
  endfacet
  facet normal 0.866026 -0.5 0
    outer loop
      vertex 7.89338 1.76767 0
      vertex 7.41584 0.940555 10
      vertex 7.41584 0.940555 0
    endloop
  endfacet
  facet normal 0.342021 -0.939692 0
    outer loop
      vertex 8.625 2.38157 0
      vertex 9.52247 2.70822 10
      vertex 8.625 2.38157 10
    endloop
  endfacet
  facet normal 0.342021 -0.939692 0
    outer loop
      vertex 9.52247 2.70822 10
      vertex 8.625 2.38157 0
      vertex 9.52247 2.70822 0
    endloop
  endfacet
  facet normal 0.34202 0.939693 -0
    outer loop
      vertex 9.52247 -2.70822 0
      vertex 8.625 -2.38157 10
      vertex 9.52247 -2.70822 10
    endloop
  endfacet
  facet normal 0.34202 0.939693 0
    outer loop
      vertex 8.625 -2.38157 10
      vertex 9.52247 -2.70822 0
      vertex 8.625 -2.38157 0
    endloop
  endfacet
  facet normal 0.866026 0.5 0
    outer loop
      vertex 7.89338 -1.76767 10
      vertex 7.41584 -0.940555 0
      vertex 7.41584 -0.940555 10
    endloop
  endfacet
  facet normal 0.866026 0.5 0
    outer loop
      vertex 7.41584 -0.940555 0
      vertex 7.89338 -1.76767 10
      vertex 7.89338 -1.76767 0
    endloop
  endfacet
  facet normal 0.984808 -0.173648 0
    outer loop
      vertex 7.25 0 10
      vertex 7.41584 0.940555 0
      vertex 7.41584 0.940555 10
    endloop
  endfacet
  facet normal 0.984808 -0.173648 0
    outer loop
      vertex 7.41584 0.940555 0
      vertex 7.25 0 10
      vertex 7.25 0 0
    endloop
  endfacet
  facet normal -0.984808 0.173649 0
    outer loop
      vertex 12.5842 -0.940555 0
      vertex 12.75 0 10
      vertex 12.75 0 0
    endloop
  endfacet
  facet normal -0.984808 0.173649 0
    outer loop
      vertex 12.75 0 10
      vertex 12.5842 -0.940555 0
      vertex 12.5842 -0.940555 10
    endloop
  endfacet
  facet normal -0.642787 0.766045 0
    outer loop
      vertex 12.1066 -1.76767 0
      vertex 11.375 -2.38157 10
      vertex 12.1066 -1.76767 10
    endloop
  endfacet
  facet normal -0.642787 0.766045 0
    outer loop
      vertex 11.375 -2.38157 10
      vertex 12.1066 -1.76767 0
      vertex 11.375 -2.38157 0
    endloop
  endfacet
  facet normal -0.342021 0.939692 0
    outer loop
      vertex 11.375 -2.38157 0
      vertex 10.4775 -2.70822 10
      vertex 11.375 -2.38157 10
    endloop
  endfacet
  facet normal -0.342021 0.939692 0
    outer loop
      vertex 10.4775 -2.70822 10
      vertex 11.375 -2.38157 0
      vertex 10.4775 -2.70822 0
    endloop
  endfacet
  facet normal -0.866026 0.5 0
    outer loop
      vertex 12.1066 -1.76767 0
      vertex 12.5842 -0.940555 10
      vertex 12.5842 -0.940555 0
    endloop
  endfacet
  facet normal -0.866026 0.5 0
    outer loop
      vertex 12.5842 -0.940555 10
      vertex 12.1066 -1.76767 0
      vertex 12.1066 -1.76767 10
    endloop
  endfacet
  facet normal 0.642787 0.766045 -0
    outer loop
      vertex 8.625 -2.38157 0
      vertex 7.89338 -1.76767 10
      vertex 8.625 -2.38157 10
    endloop
  endfacet
  facet normal 0.642787 0.766045 0
    outer loop
      vertex 7.89338 -1.76767 10
      vertex 8.625 -2.38157 0
      vertex 7.89338 -1.76767 0
    endloop
  endfacet
  facet normal -0.984808 -0.173649 0
    outer loop
      vertex 12.75 -30 0
      vertex 12.5842 -29.0594 10
      vertex 12.5842 -29.0594 0
    endloop
  endfacet
  facet normal -0.984808 -0.173649 0
    outer loop
      vertex 12.5842 -29.0594 10
      vertex 12.75 -30 0
      vertex 12.75 -30 10
    endloop
  endfacet
  facet normal -0.342021 -0.939692 0
    outer loop
      vertex 10.4775 -27.2918 0
      vertex 11.375 -27.6184 10
      vertex 10.4775 -27.2918 10
    endloop
  endfacet
  facet normal -0.342021 -0.939692 -0
    outer loop
      vertex 11.375 -27.6184 10
      vertex 10.4775 -27.2918 0
      vertex 11.375 -27.6184 0
    endloop
  endfacet
  facet normal 0.984808 -0.173648 0
    outer loop
      vertex 7.25 -30 10
      vertex 7.41584 -29.0594 0
      vertex 7.41584 -29.0594 10
    endloop
  endfacet
  facet normal 0.984808 -0.173648 0
    outer loop
      vertex 7.41584 -29.0594 0
      vertex 7.25 -30 10
      vertex 7.25 -30 0
    endloop
  endfacet
  facet normal -0.342021 0.939692 0
    outer loop
      vertex 11.375 -32.3816 0
      vertex 10.4775 -32.7082 10
      vertex 11.375 -32.3816 10
    endloop
  endfacet
  facet normal -0.342021 0.939692 0
    outer loop
      vertex 10.4775 -32.7082 10
      vertex 11.375 -32.3816 0
      vertex 10.4775 -32.7082 0
    endloop
  endfacet
  facet normal 0 1 -0
    outer loop
      vertex 10.4775 -32.7082 0
      vertex 9.52247 -32.7082 10
      vertex 10.4775 -32.7082 10
    endloop
  endfacet
  facet normal 0 1 0
    outer loop
      vertex 9.52247 -32.7082 10
      vertex 10.4775 -32.7082 0
      vertex 9.52247 -32.7082 0
    endloop
  endfacet
  facet normal -0.642787 -0.766045 0
    outer loop
      vertex 11.375 -27.6184 0
      vertex 12.1066 -28.2323 10
      vertex 11.375 -27.6184 10
    endloop
  endfacet
  facet normal -0.642787 -0.766045 -0
    outer loop
      vertex 12.1066 -28.2323 10
      vertex 11.375 -27.6184 0
      vertex 12.1066 -28.2323 0
    endloop
  endfacet
  facet normal -0.866025 -0.5 0
    outer loop
      vertex 12.5842 -29.0594 0
      vertex 12.1066 -28.2323 10
      vertex 12.1066 -28.2323 0
    endloop
  endfacet
  facet normal -0.866025 -0.5 0
    outer loop
      vertex 12.1066 -28.2323 10
      vertex 12.5842 -29.0594 0
      vertex 12.5842 -29.0594 10
    endloop
  endfacet
  facet normal 0 -1 0
    outer loop
      vertex 9.52247 -27.2918 0
      vertex 10.4775 -27.2918 10
      vertex 9.52247 -27.2918 10
    endloop
  endfacet
  facet normal 0 -1 -0
    outer loop
      vertex 10.4775 -27.2918 10
      vertex 9.52247 -27.2918 0
      vertex 10.4775 -27.2918 0
    endloop
  endfacet
  facet normal 0.342021 -0.939692 0
    outer loop
      vertex 8.625 -27.6184 0
      vertex 9.52247 -27.2918 10
      vertex 8.625 -27.6184 10
    endloop
  endfacet
  facet normal 0.342021 -0.939692 0
    outer loop
      vertex 9.52247 -27.2918 10
      vertex 8.625 -27.6184 0
      vertex 9.52247 -27.2918 0
    endloop
  endfacet
  facet normal 0.642787 -0.766045 0
    outer loop
      vertex 7.89338 -28.2323 0
      vertex 8.625 -27.6184 10
      vertex 7.89338 -28.2323 10
    endloop
  endfacet
  facet normal 0.642787 -0.766045 0
    outer loop
      vertex 8.625 -27.6184 10
      vertex 7.89338 -28.2323 0
      vertex 8.625 -27.6184 0
    endloop
  endfacet
  facet normal 0.866025 0.5 0
    outer loop
      vertex 7.89338 -31.7677 10
      vertex 7.41584 -30.9406 0
      vertex 7.41584 -30.9406 10
    endloop
  endfacet
  facet normal 0.866025 0.5 0
    outer loop
      vertex 7.41584 -30.9406 0
      vertex 7.89338 -31.7677 10
      vertex 7.89338 -31.7677 0
    endloop
  endfacet
  facet normal 0.342021 0.939692 -0
    outer loop
      vertex 9.52247 -32.7082 0
      vertex 8.625 -32.3816 10
      vertex 9.52247 -32.7082 10
    endloop
  endfacet
  facet normal 0.342021 0.939692 0
    outer loop
      vertex 8.625 -32.3816 10
      vertex 9.52247 -32.7082 0
      vertex 8.625 -32.3816 0
    endloop
  endfacet
  facet normal 0.642787 0.766045 -0
    outer loop
      vertex 8.625 -32.3816 0
      vertex 7.89338 -31.7677 10
      vertex 8.625 -32.3816 10
    endloop
  endfacet
  facet normal 0.642787 0.766045 0
    outer loop
      vertex 7.89338 -31.7677 10
      vertex 8.625 -32.3816 0
      vertex 7.89338 -31.7677 0
    endloop
  endfacet
  facet normal 0.984808 0.173648 0
    outer loop
      vertex 7.41584 -30.9406 10
      vertex 7.25 -30 0
      vertex 7.25 -30 10
    endloop
  endfacet
  facet normal 0.984808 0.173648 0
    outer loop
      vertex 7.25 -30 0
      vertex 7.41584 -30.9406 10
      vertex 7.41584 -30.9406 0
    endloop
  endfacet
  facet normal 0.866025 -0.5 0
    outer loop
      vertex 7.41584 -29.0594 10
      vertex 7.89338 -28.2323 0
      vertex 7.89338 -28.2323 10
    endloop
  endfacet
  facet normal 0.866025 -0.5 0
    outer loop
      vertex 7.89338 -28.2323 0
      vertex 7.41584 -29.0594 10
      vertex 7.41584 -29.0594 0
    endloop
  endfacet
  facet normal -0.866025 0.5 0
    outer loop
      vertex 12.1066 -31.7677 0
      vertex 12.5842 -30.9406 10
      vertex 12.5842 -30.9406 0
    endloop
  endfacet
  facet normal -0.866025 0.5 0
    outer loop
      vertex 12.5842 -30.9406 10
      vertex 12.1066 -31.7677 0
      vertex 12.1066 -31.7677 10
    endloop
  endfacet
  facet normal -0.642787 0.766045 0
    outer loop
      vertex 12.1066 -31.7677 0
      vertex 11.375 -32.3816 10
      vertex 12.1066 -31.7677 10
    endloop
  endfacet
  facet normal -0.642787 0.766045 0
    outer loop
      vertex 11.375 -32.3816 10
      vertex 12.1066 -31.7677 0
      vertex 11.375 -32.3816 0
    endloop
  endfacet
  facet normal -0.984808 0.173649 0
    outer loop
      vertex 12.5842 -30.9406 0
      vertex 12.75 -30 10
      vertex 12.75 -30 0
    endloop
  endfacet
  facet normal -0.984808 0.173649 0
    outer loop
      vertex 12.75 -30 10
      vertex 12.5842 -30.9406 0
      vertex 12.5842 -30.9406 10
    endloop
  endfacet
  facet normal -0.984808 -0.173649 0
    outer loop
      vertex 12.75 -60 0
      vertex 12.5842 -59.0594 10
      vertex 12.5842 -59.0594 0
    endloop
  endfacet
  facet normal -0.984808 -0.173649 0
    outer loop
      vertex 12.5842 -59.0594 10
      vertex 12.75 -60 0
      vertex 12.75 -60 10
    endloop
  endfacet
  facet normal -0.342021 -0.939692 0
    outer loop
      vertex 10.4775 -57.2918 0
      vertex 11.375 -57.6184 10
      vertex 10.4775 -57.2918 10
    endloop
  endfacet
  facet normal -0.342021 -0.939692 -0
    outer loop
      vertex 11.375 -57.6184 10
      vertex 10.4775 -57.2918 0
      vertex 11.375 -57.6184 0
    endloop
  endfacet
  facet normal 0.984808 -0.173648 0
    outer loop
      vertex 7.25 -60 10
      vertex 7.41584 -59.0594 0
      vertex 7.41584 -59.0594 10
    endloop
  endfacet
  facet normal 0.984808 -0.173648 0
    outer loop
      vertex 7.41584 -59.0594 0
      vertex 7.25 -60 10
      vertex 7.25 -60 0
    endloop
  endfacet
  facet normal -0.342021 0.939692 0
    outer loop
      vertex 11.375 -62.3816 0
      vertex 10.4775 -62.7082 10
      vertex 11.375 -62.3816 10
    endloop
  endfacet
  facet normal -0.342021 0.939692 0
    outer loop
      vertex 10.4775 -62.7082 10
      vertex 11.375 -62.3816 0
      vertex 10.4775 -62.7082 0
    endloop
  endfacet
  facet normal 0 1 -0
    outer loop
      vertex 10.4775 -62.7082 0
      vertex 9.52247 -62.7082 10
      vertex 10.4775 -62.7082 10
    endloop
  endfacet
  facet normal 0 1 0
    outer loop
      vertex 9.52247 -62.7082 10
      vertex 10.4775 -62.7082 0
      vertex 9.52247 -62.7082 0
    endloop
  endfacet
  facet normal -0.642787 -0.766045 0
    outer loop
      vertex 11.375 -57.6184 0
      vertex 12.1066 -58.2323 10
      vertex 11.375 -57.6184 10
    endloop
  endfacet
  facet normal -0.642787 -0.766045 -0
    outer loop
      vertex 12.1066 -58.2323 10
      vertex 11.375 -57.6184 0
      vertex 12.1066 -58.2323 0
    endloop
  endfacet
  facet normal -0.866025 -0.5 0
    outer loop
      vertex 12.5842 -59.0594 0
      vertex 12.1066 -58.2323 10
      vertex 12.1066 -58.2323 0
    endloop
  endfacet
  facet normal -0.866025 -0.5 0
    outer loop
      vertex 12.1066 -58.2323 10
      vertex 12.5842 -59.0594 0
      vertex 12.5842 -59.0594 10
    endloop
  endfacet
  facet normal 0 -1 0
    outer loop
      vertex 9.52247 -57.2918 0
      vertex 10.4775 -57.2918 10
      vertex 9.52247 -57.2918 10
    endloop
  endfacet
  facet normal 0 -1 -0
    outer loop
      vertex 10.4775 -57.2918 10
      vertex 9.52247 -57.2918 0
      vertex 10.4775 -57.2918 0
    endloop
  endfacet
  facet normal 0.342021 -0.939692 0
    outer loop
      vertex 8.625 -57.6184 0
      vertex 9.52247 -57.2918 10
      vertex 8.625 -57.6184 10
    endloop
  endfacet
  facet normal 0.342021 -0.939692 0
    outer loop
      vertex 9.52247 -57.2918 10
      vertex 8.625 -57.6184 0
      vertex 9.52247 -57.2918 0
    endloop
  endfacet
  facet normal 0.866025 -0.5 0
    outer loop
      vertex 7.41584 -59.0594 10
      vertex 7.89338 -58.2323 0
      vertex 7.89338 -58.2323 10
    endloop
  endfacet
  facet normal 0.866025 -0.5 0
    outer loop
      vertex 7.89338 -58.2323 0
      vertex 7.41584 -59.0594 10
      vertex 7.41584 -59.0594 0
    endloop
  endfacet
  facet normal 0.642787 -0.766045 0
    outer loop
      vertex 7.89338 -58.2323 0
      vertex 8.625 -57.6184 10
      vertex 7.89338 -58.2323 10
    endloop
  endfacet
  facet normal 0.642787 -0.766045 0
    outer loop
      vertex 8.625 -57.6184 10
      vertex 7.89338 -58.2323 0
      vertex 8.625 -57.6184 0
    endloop
  endfacet
  facet normal 0.866025 0.5 0
    outer loop
      vertex 7.89338 -61.7677 10
      vertex 7.41584 -60.9406 0
      vertex 7.41584 -60.9406 10
    endloop
  endfacet
  facet normal 0.866025 0.5 0
    outer loop
      vertex 7.41584 -60.9406 0
      vertex 7.89338 -61.7677 10
      vertex 7.89338 -61.7677 0
    endloop
  endfacet
  facet normal 0.342021 0.939692 -0
    outer loop
      vertex 9.52247 -62.7082 0
      vertex 8.625 -62.3816 10
      vertex 9.52247 -62.7082 10
    endloop
  endfacet
  facet normal 0.342021 0.939692 0
    outer loop
      vertex 8.625 -62.3816 10
      vertex 9.52247 -62.7082 0
      vertex 8.625 -62.3816 0
    endloop
  endfacet
  facet normal 0.984808 0.173648 0
    outer loop
      vertex 7.41584 -60.9406 10
      vertex 7.25 -60 0
      vertex 7.25 -60 10
    endloop
  endfacet
  facet normal 0.984808 0.173648 0
    outer loop
      vertex 7.25 -60 0
      vertex 7.41584 -60.9406 10
      vertex 7.41584 -60.9406 0
    endloop
  endfacet
  facet normal -0.866025 0.5 0
    outer loop
      vertex 12.1066 -61.7677 0
      vertex 12.5842 -60.9406 10
      vertex 12.5842 -60.9406 0
    endloop
  endfacet
  facet normal -0.866025 0.5 0
    outer loop
      vertex 12.5842 -60.9406 10
      vertex 12.1066 -61.7677 0
      vertex 12.1066 -61.7677 10
    endloop
  endfacet
  facet normal -0.642787 0.766045 0
    outer loop
      vertex 12.1066 -61.7677 0
      vertex 11.375 -62.3816 10
      vertex 12.1066 -61.7677 10
    endloop
  endfacet
  facet normal -0.642787 0.766045 0
    outer loop
      vertex 11.375 -62.3816 10
      vertex 12.1066 -61.7677 0
      vertex 11.375 -62.3816 0
    endloop
  endfacet
  facet normal -0.984808 0.173649 0
    outer loop
      vertex 12.5842 -60.9406 0
      vertex 12.75 -60 10
      vertex 12.75 -60 0
    endloop
  endfacet
  facet normal -0.984808 0.173649 0
    outer loop
      vertex 12.75 -60 10
      vertex 12.5842 -60.9406 0
      vertex 12.5842 -60.9406 10
    endloop
  endfacet
  facet normal 0.642787 0.766045 -0
    outer loop
      vertex 8.625 -62.3816 0
      vertex 7.89338 -61.7677 10
      vertex 8.625 -62.3816 10
    endloop
  endfacet
  facet normal 0.642787 0.766045 0
    outer loop
      vertex 7.89338 -61.7677 10
      vertex 8.625 -62.3816 0
      vertex 7.89338 -61.7677 0
    endloop
  endfacet
  facet normal -0.406737 -0.913545 0
    outer loop
      vertex 53.3627 31.8882 0
      vertex 55.75 30.8253 10
      vertex 53.3627 31.8882 10
    endloop
  endfacet
  facet normal -0.406737 -0.913545 -0
    outer loop
      vertex 55.75 30.8253 10
      vertex 53.3627 31.8882 0
      vertex 55.75 30.8253 0
    endloop
  endfacet
  facet normal -0.994522 0.104529 0
    outer loop
      vertex 61.7268 17.4011 0
      vertex 62 20 10
      vertex 62 20 0
    endloop
  endfacet
  facet normal -0.994522 0.104529 0
    outer loop
      vertex 62 20 10
      vertex 61.7268 17.4011 0
      vertex 61.7268 17.4011 10
    endloop
  endfacet
  facet normal 0 1 -0
    outer loop
      vertex 50.8066 7.56848 0
      vertex 48.1934 7.56848 10
      vertex 50.8066 7.56848 10
    endloop
  endfacet
  facet normal 0 1 0
    outer loop
      vertex 48.1934 7.56848 10
      vertex 50.8066 7.56848 0
      vertex 48.1934 7.56848 0
    endloop
  endfacet
  facet normal 0 -1 0
    outer loop
      vertex 48.1934 32.4315 0
      vertex 50.8066 32.4315 10
      vertex 48.1934 32.4315 10
    endloop
  endfacet
  facet normal 0 -1 -0
    outer loop
      vertex 50.8066 32.4315 10
      vertex 48.1934 32.4315 0
      vertex 50.8066 32.4315 0
    endloop
  endfacet
  facet normal 0.406737 -0.913545 0
    outer loop
      vertex 43.25 30.8253 0
      vertex 45.6373 31.8882 10
      vertex 43.25 30.8253 10
    endloop
  endfacet
  facet normal 0.406737 -0.913545 0
    outer loop
      vertex 45.6373 31.8882 10
      vertex 43.25 30.8253 0
      vertex 45.6373 31.8882 0
    endloop
  endfacet
  facet normal 0.951057 -0.309017 0
    outer loop
      vertex 37.2732 22.5989 10
      vertex 38.0807 25.0842 0
      vertex 38.0807 25.0842 10
    endloop
  endfacet
  facet normal 0.951057 -0.309017 0
    outer loop
      vertex 38.0807 25.0842 0
      vertex 37.2732 22.5989 10
      vertex 37.2732 22.5989 0
    endloop
  endfacet
  facet normal -0.743145 0.669131 0
    outer loop
      vertex 57.8641 10.7107 0
      vertex 59.6127 12.6527 10
      vertex 59.6127 12.6527 0
    endloop
  endfacet
  facet normal -0.743145 0.669131 0
    outer loop
      vertex 59.6127 12.6527 10
      vertex 57.8641 10.7107 0
      vertex 57.8641 10.7107 10
    endloop
  endfacet
  facet normal -0.951057 -0.309017 0
    outer loop
      vertex 61.7268 22.5989 0
      vertex 60.9193 25.0842 10
      vertex 60.9193 25.0842 0
    endloop
  endfacet
  facet normal -0.951057 -0.309017 0
    outer loop
      vertex 60.9193 25.0842 10
      vertex 61.7268 22.5989 0
      vertex 61.7268 22.5989 10
    endloop
  endfacet
  facet normal -0.866025 -0.5 0
    outer loop
      vertex 60.9193 25.0842 0
      vertex 59.6127 27.3473 10
      vertex 59.6127 27.3473 0
    endloop
  endfacet
  facet normal -0.866025 -0.5 0
    outer loop
      vertex 59.6127 27.3473 10
      vertex 60.9193 25.0842 0
      vertex 60.9193 25.0842 10
    endloop
  endfacet
  facet normal -0.743145 -0.669131 0
    outer loop
      vertex 59.6127 27.3473 0
      vertex 57.8641 29.2893 10
      vertex 57.8641 29.2893 0
    endloop
  endfacet
  facet normal -0.743145 -0.669131 0
    outer loop
      vertex 57.8641 29.2893 10
      vertex 59.6127 27.3473 0
      vertex 59.6127 27.3473 10
    endloop
  endfacet
  facet normal -0.587785 -0.809017 0
    outer loop
      vertex 55.75 30.8253 0
      vertex 57.8641 29.2893 10
      vertex 55.75 30.8253 10
    endloop
  endfacet
  facet normal -0.587785 -0.809017 -0
    outer loop
      vertex 57.8641 29.2893 10
      vertex 55.75 30.8253 0
      vertex 57.8641 29.2893 0
    endloop
  endfacet
  facet normal -0.207911 -0.978148 0
    outer loop
      vertex 50.8066 32.4315 0
      vertex 53.3627 31.8882 10
      vertex 50.8066 32.4315 10
    endloop
  endfacet
  facet normal -0.207911 -0.978148 -0
    outer loop
      vertex 53.3627 31.8882 10
      vertex 50.8066 32.4315 0
      vertex 53.3627 31.8882 0
    endloop
  endfacet
  facet normal 0.994522 0.104529 0
    outer loop
      vertex 37.2732 17.4011 10
      vertex 37 20 0
      vertex 37 20 10
    endloop
  endfacet
  facet normal 0.994522 0.104529 0
    outer loop
      vertex 37 20 0
      vertex 37.2732 17.4011 10
      vertex 37.2732 17.4011 0
    endloop
  endfacet
  facet normal 0.866025 -0.5 0
    outer loop
      vertex 38.0807 25.0842 10
      vertex 39.3873 27.3473 0
      vertex 39.3873 27.3473 10
    endloop
  endfacet
  facet normal 0.866025 -0.5 0
    outer loop
      vertex 39.3873 27.3473 0
      vertex 38.0807 25.0842 10
      vertex 38.0807 25.0842 0
    endloop
  endfacet
  facet normal 0.587785 -0.809017 0
    outer loop
      vertex 41.1359 29.2893 0
      vertex 43.25 30.8253 10
      vertex 41.1359 29.2893 10
    endloop
  endfacet
  facet normal 0.587785 -0.809017 0
    outer loop
      vertex 43.25 30.8253 10
      vertex 41.1359 29.2893 0
      vertex 43.25 30.8253 0
    endloop
  endfacet
  facet normal 0.207911 -0.978148 0
    outer loop
      vertex 45.6373 31.8882 0
      vertex 48.1934 32.4315 10
      vertex 45.6373 31.8882 10
    endloop
  endfacet
  facet normal 0.207911 -0.978148 0
    outer loop
      vertex 48.1934 32.4315 10
      vertex 45.6373 31.8882 0
      vertex 48.1934 32.4315 0
    endloop
  endfacet
  facet normal 0.743145 -0.669131 0
    outer loop
      vertex 39.3873 27.3473 10
      vertex 41.1359 29.2893 0
      vertex 41.1359 29.2893 10
    endloop
  endfacet
  facet normal 0.743145 -0.669131 0
    outer loop
      vertex 41.1359 29.2893 0
      vertex 39.3873 27.3473 10
      vertex 39.3873 27.3473 0
    endloop
  endfacet
  facet normal -0.994522 -0.104529 0
    outer loop
      vertex 62 20 0
      vertex 61.7268 22.5989 10
      vertex 61.7268 22.5989 0
    endloop
  endfacet
  facet normal -0.994522 -0.104529 0
    outer loop
      vertex 61.7268 22.5989 10
      vertex 62 20 0
      vertex 62 20 10
    endloop
  endfacet
  facet normal -0.207912 0.978148 0
    outer loop
      vertex 53.3627 8.11179 0
      vertex 50.8066 7.56848 10
      vertex 53.3627 8.11179 10
    endloop
  endfacet
  facet normal -0.207912 0.978148 0
    outer loop
      vertex 50.8066 7.56848 10
      vertex 53.3627 8.11179 0
      vertex 50.8066 7.56848 0
    endloop
  endfacet
  facet normal -0.866025 0.5 0
    outer loop
      vertex 59.6127 12.6527 0
      vertex 60.9193 14.9158 10
      vertex 60.9193 14.9158 0
    endloop
  endfacet
  facet normal -0.866025 0.5 0
    outer loop
      vertex 60.9193 14.9158 10
      vertex 59.6127 12.6527 0
      vertex 59.6127 12.6527 10
    endloop
  endfacet
  facet normal -0.951057 0.309017 0
    outer loop
      vertex 60.9193 14.9158 0
      vertex 61.7268 17.4011 10
      vertex 61.7268 17.4011 0
    endloop
  endfacet
  facet normal -0.951057 0.309017 0
    outer loop
      vertex 61.7268 17.4011 10
      vertex 60.9193 14.9158 0
      vertex 60.9193 14.9158 10
    endloop
  endfacet
  facet normal -0.406736 0.913546 0
    outer loop
      vertex 55.75 9.17468 0
      vertex 53.3627 8.11179 10
      vertex 55.75 9.17468 10
    endloop
  endfacet
  facet normal -0.406736 0.913546 0
    outer loop
      vertex 53.3627 8.11179 10
      vertex 55.75 9.17468 0
      vertex 53.3627 8.11179 0
    endloop
  endfacet
  facet normal -0.587786 0.809017 0
    outer loop
      vertex 57.8641 10.7107 0
      vertex 55.75 9.17468 10
      vertex 57.8641 10.7107 10
    endloop
  endfacet
  facet normal -0.587786 0.809017 0
    outer loop
      vertex 55.75 9.17468 10
      vertex 57.8641 10.7107 0
      vertex 55.75 9.17468 0
    endloop
  endfacet
  facet normal 0.406736 0.913546 -0
    outer loop
      vertex 45.6373 8.11179 0
      vertex 43.25 9.17468 10
      vertex 45.6373 8.11179 10
    endloop
  endfacet
  facet normal 0.406736 0.913546 0
    outer loop
      vertex 43.25 9.17468 10
      vertex 45.6373 8.11179 0
      vertex 43.25 9.17468 0
    endloop
  endfacet
  facet normal 0.743145 0.669131 0
    outer loop
      vertex 41.1359 10.7107 10
      vertex 39.3873 12.6527 0
      vertex 39.3873 12.6527 10
    endloop
  endfacet
  facet normal 0.743145 0.669131 0
    outer loop
      vertex 39.3873 12.6527 0
      vertex 41.1359 10.7107 10
      vertex 41.1359 10.7107 0
    endloop
  endfacet
  facet normal 0.951057 0.309017 0
    outer loop
      vertex 38.0807 14.9158 10
      vertex 37.2732 17.4011 0
      vertex 37.2732 17.4011 10
    endloop
  endfacet
  facet normal 0.951057 0.309017 0
    outer loop
      vertex 37.2732 17.4011 0
      vertex 38.0807 14.9158 10
      vertex 38.0807 14.9158 0
    endloop
  endfacet
  facet normal 0.994522 -0.104529 0
    outer loop
      vertex 37 20 10
      vertex 37.2732 22.5989 0
      vertex 37.2732 22.5989 10
    endloop
  endfacet
  facet normal 0.994522 -0.104529 0
    outer loop
      vertex 37.2732 22.5989 0
      vertex 37 20 10
      vertex 37 20 0
    endloop
  endfacet
  facet normal 0.207912 0.978148 -0
    outer loop
      vertex 48.1934 7.56848 0
      vertex 45.6373 8.11179 10
      vertex 48.1934 7.56848 10
    endloop
  endfacet
  facet normal 0.207912 0.978148 0
    outer loop
      vertex 45.6373 8.11179 10
      vertex 48.1934 7.56848 0
      vertex 45.6373 8.11179 0
    endloop
  endfacet
  facet normal 0.866025 0.5 0
    outer loop
      vertex 39.3873 12.6527 10
      vertex 38.0807 14.9158 0
      vertex 38.0807 14.9158 10
    endloop
  endfacet
  facet normal 0.866025 0.5 0
    outer loop
      vertex 38.0807 14.9158 0
      vertex 39.3873 12.6527 10
      vertex 39.3873 12.6527 0
    endloop
  endfacet
  facet normal 0.587786 0.809017 -0
    outer loop
      vertex 43.25 9.17468 0
      vertex 41.1359 10.7107 10
      vertex 43.25 9.17468 10
    endloop
  endfacet
  facet normal 0.587786 0.809017 0
    outer loop
      vertex 41.1359 10.7107 10
      vertex 43.25 9.17468 0
      vertex 41.1359 10.7107 0
    endloop
  endfacet
  facet normal 0.707107 -0.707107 0
    outer loop
      vertex 30.818 3.43934 0
      vertex 35.0607 7.68198 10
      vertex 30.818 3.43934 10
    endloop
  endfacet
  facet normal 0.707107 -0.707107 0
    outer loop
      vertex 35.0607 7.68198 10
      vertex 30.818 3.43934 0
      vertex 35.0607 7.68198 0
    endloop
  endfacet
  facet normal -0.707107 0.707107 0
    outer loop
      vertex 37.182 5.56066 0
      vertex 32.9393 1.31802 10
      vertex 37.182 5.56066 10
    endloop
  endfacet
  facet normal -0.707107 0.707107 0
    outer loop
      vertex 32.9393 1.31802 10
      vertex 37.182 5.56066 0
      vertex 32.9393 1.31802 0
    endloop
  endfacet
  facet normal 0.707107 0.707106 0
    outer loop
      vertex 32.9393 1.31802 10
      vertex 30.818 3.43934 0
      vertex 30.818 3.43934 10
    endloop
  endfacet
  facet normal 0.707107 0.707106 0
    outer loop
      vertex 30.818 3.43934 0
      vertex 32.9393 1.31802 10
      vertex 32.9393 1.31802 0
    endloop
  endfacet
  facet normal -0.707107 -0.707106 0
    outer loop
      vertex 37.182 5.56066 0
      vertex 35.0607 7.68198 10
      vertex 35.0607 7.68198 0
    endloop
  endfacet
  facet normal -0.707107 -0.707106 0
    outer loop
      vertex 35.0607 7.68198 10
      vertex 37.182 5.56066 0
      vertex 37.182 5.56066 10
    endloop
  endfacet
  facet normal 0.707107 -0.707107 0
    outer loop
      vertex 61.818 34.4393 10
      vertex 66.0607 38.682 0
      vertex 66.0607 38.682 10
    endloop
  endfacet
  facet normal 0.707107 -0.707107 0
    outer loop
      vertex 66.0607 38.682 0
      vertex 61.818 34.4393 10
      vertex 61.818 34.4393 0
    endloop
  endfacet
  facet normal -0.707107 0.707106 0
    outer loop
      vertex 63.9393 32.318 0
      vertex 68.182 36.5607 10
      vertex 68.182 36.5607 0
    endloop
  endfacet
  facet normal -0.707107 0.707106 0
    outer loop
      vertex 68.182 36.5607 10
      vertex 63.9393 32.318 0
      vertex 63.9393 32.318 10
    endloop
  endfacet
  facet normal -0.707107 -0.707106 0
    outer loop
      vertex 68.182 36.5607 0
      vertex 66.0607 38.682 10
      vertex 66.0607 38.682 0
    endloop
  endfacet
  facet normal -0.707107 -0.707106 0
    outer loop
      vertex 66.0607 38.682 10
      vertex 68.182 36.5607 0
      vertex 68.182 36.5607 10
    endloop
  endfacet
  facet normal 0.707107 0.707107 0
    outer loop
      vertex 63.9393 32.318 10
      vertex 61.818 34.4393 0
      vertex 61.818 34.4393 10
    endloop
  endfacet
  facet normal 0.707107 0.707107 0
    outer loop
      vertex 61.818 34.4393 0
      vertex 63.9393 32.318 10
      vertex 63.9393 32.318 0
    endloop
  endfacet
  facet normal -0.707107 -0.707107 0
    outer loop
      vertex 37.182 34.4393 0
      vertex 32.9393 38.682 10
      vertex 32.9393 38.682 0
    endloop
  endfacet
  facet normal -0.707107 -0.707107 0
    outer loop
      vertex 32.9393 38.682 10
      vertex 37.182 34.4393 0
      vertex 37.182 34.4393 10
    endloop
  endfacet
  facet normal 0.707107 -0.707107 0
    outer loop
      vertex 30.818 36.5607 10
      vertex 32.9393 38.682 0
      vertex 32.9393 38.682 10
    endloop
  endfacet
  facet normal 0.707107 -0.707107 0
    outer loop
      vertex 32.9393 38.682 0
      vertex 30.818 36.5607 10
      vertex 30.818 36.5607 0
    endloop
  endfacet
  facet normal 0.707107 0.707107 0
    outer loop
      vertex 35.0607 32.318 10
      vertex 30.818 36.5607 0
      vertex 30.818 36.5607 10
    endloop
  endfacet
  facet normal 0.707107 0.707107 0
    outer loop
      vertex 30.818 36.5607 0
      vertex 35.0607 32.318 10
      vertex 35.0607 32.318 0
    endloop
  endfacet
  facet normal -0.707107 0.707107 0
    outer loop
      vertex 35.0607 32.318 0
      vertex 37.182 34.4393 10
      vertex 37.182 34.4393 0
    endloop
  endfacet
  facet normal -0.707107 0.707107 0
    outer loop
      vertex 37.182 34.4393 10
      vertex 35.0607 32.318 0
      vertex 35.0607 32.318 10
    endloop
  endfacet
  facet normal -0.707107 -0.707107 0
    outer loop
      vertex 68.182 3.43934 0
      vertex 63.9393 7.68198 10
      vertex 63.9393 7.68198 0
    endloop
  endfacet
  facet normal -0.707107 -0.707107 0
    outer loop
      vertex 63.9393 7.68198 10
      vertex 68.182 3.43934 0
      vertex 68.182 3.43934 10
    endloop
  endfacet
  facet normal 0.707107 0.707107 -0
    outer loop
      vertex 66.0607 1.31802 0
      vertex 61.818 5.56066 10
      vertex 66.0607 1.31802 10
    endloop
  endfacet
  facet normal 0.707107 0.707107 0
    outer loop
      vertex 61.818 5.56066 10
      vertex 66.0607 1.31802 0
      vertex 61.818 5.56066 0
    endloop
  endfacet
  facet normal -0.707108 0.707106 0
    outer loop
      vertex 66.0607 1.31802 0
      vertex 68.182 3.43934 10
      vertex 68.182 3.43934 0
    endloop
  endfacet
  facet normal -0.707108 0.707106 0
    outer loop
      vertex 68.182 3.43934 10
      vertex 66.0607 1.31802 0
      vertex 66.0607 1.31802 10
    endloop
  endfacet
  facet normal 0.707107 -0.707106 0
    outer loop
      vertex 61.818 5.56066 10
      vertex 63.9393 7.68198 0
      vertex 63.9393 7.68198 10
    endloop
  endfacet
  facet normal 0.707107 -0.707106 0
    outer loop
      vertex 63.9393 7.68198 0
      vertex 61.818 5.56066 10
      vertex 61.818 5.56066 0
    endloop
  endfacet
  facet normal 0 0.994522 -0.104527
    outer loop
      vertex 10 44.5 40
      vertex 0 44.6202 41.1435
      vertex 10 44.6202 41.1435
    endloop
  endfacet
  facet normal 0 0.994522 -0.104527
    outer loop
      vertex 0 44.6202 41.1435
      vertex 10 44.5 40
      vertex 0 44.5 40
    endloop
  endfacet
  facet normal -0 0.587785 0.809017
    outer loop
      vertex 0 47.25 35.2369
      vertex 10 46.3198 35.9127
      vertex 10 47.25 35.2369
    endloop
  endfacet
  facet normal 0 0.587785 0.809017
    outer loop
      vertex 10 46.3198 35.9127
      vertex 0 47.25 35.2369
      vertex 0 46.3198 35.9127
    endloop
  endfacet
  facet normal -1 1.34204e-06 1.41051e-07
    outer loop
      vertex 10 44.9755 42.2371
      vertex 10 44.6202 38.8565
      vertex 10 44.5 40
    endloop
  endfacet
  facet normal -1 0 0
    outer loop
      vertex 10 55.3798 38.8565
      vertex 10 55.3798 41.1435
      vertex 10 55.5 40
    endloop
  endfacet
  facet normal -1 0 0
    outer loop
      vertex 10 55.0245 37.7629
      vertex 10 55.3798 41.1435
      vertex 10 55.3798 38.8565
    endloop
  endfacet
  facet normal -1 0 0
    outer loop
      vertex 10 55.0245 37.7629
      vertex 10 55.0245 42.2371
      vertex 10 55.3798 41.1435
    endloop
  endfacet
  facet normal -1 0 0
    outer loop
      vertex 10 54.4496 36.7672
      vertex 10 55.0245 42.2371
      vertex 10 55.0245 37.7629
    endloop
  endfacet
  facet normal -1 0 0
    outer loop
      vertex 10 54.4496 36.7672
      vertex 10 54.4496 43.2328
      vertex 10 55.0245 42.2371
    endloop
  endfacet
  facet normal -1 0 0
    outer loop
      vertex 10 53.6802 35.9127
      vertex 10 54.4496 43.2328
      vertex 10 54.4496 36.7672
    endloop
  endfacet
  facet normal -1 0 0
    outer loop
      vertex 10 53.6802 35.9127
      vertex 10 53.6802 44.0873
      vertex 10 54.4496 43.2328
    endloop
  endfacet
  facet normal -1 0 0
    outer loop
      vertex 10 52.75 35.2369
      vertex 10 53.6802 44.0873
      vertex 10 53.6802 35.9127
    endloop
  endfacet
  facet normal -1 0 0
    outer loop
      vertex 10 52.75 35.2369
      vertex 10 52.75 44.7631
      vertex 10 53.6802 44.0873
    endloop
  endfacet
  facet normal -1 0 0
    outer loop
      vertex 10 51.6996 34.7692
      vertex 10 52.75 44.7631
      vertex 10 52.75 35.2369
    endloop
  endfacet
  facet normal -1 0 0
    outer loop
      vertex 10 51.6996 34.7692
      vertex 10 51.6996 45.2308
      vertex 10 52.75 44.7631
    endloop
  endfacet
  facet normal -1 0 0
    outer loop
      vertex 10 51.6996 34.7692
      vertex 10 50.5749 45.4699
      vertex 10 51.6996 45.2308
    endloop
  endfacet
  facet normal -1 0 0
    outer loop
      vertex 10 51.6996 34.7692
      vertex 10 49.4251 45.4699
      vertex 10 50.5749 45.4699
    endloop
  endfacet
  facet normal -1 0 0
    outer loop
      vertex 10 51.6996 34.7692
      vertex 10 48.3004 45.2308
      vertex 10 49.4251 45.4699
    endloop
  endfacet
  facet normal -1 0 0
    outer loop
      vertex 10 51.6996 34.7692
      vertex 10 47.25 44.7631
      vertex 10 48.3004 45.2308
    endloop
  endfacet
  facet normal -1 0 0
    outer loop
      vertex 10 51.6996 34.7692
      vertex 10 46.3198 44.0873
      vertex 10 47.25 44.7631
    endloop
  endfacet
  facet normal -1 0 0
    outer loop
      vertex 10 51.6996 34.7692
      vertex 10 45.5504 43.2328
      vertex 10 46.3198 44.0873
    endloop
  endfacet
  facet normal -1 0 -0
    outer loop
      vertex 10 45.5504 43.2328
      vertex 10 51.6996 34.7692
      vertex 10 44.9755 42.2371
    endloop
  endfacet
  facet normal -1 0 3.98928e-06
    outer loop
      vertex 10 51.6996 34.7692
      vertex 10 50.5749 34.5301
      vertex 10 49.4251 34.5301
    endloop
  endfacet
  facet normal -1 3.96738e-06 -4.16981e-07
    outer loop
      vertex 10 44.6202 41.1435
      vertex 10 44.9755 42.2371
      vertex 10 44.5 40
    endloop
  endfacet
  facet normal -0 0.406739 0.913545
    outer loop
      vertex 0 48.3004 34.7692
      vertex 10 47.25 35.2369
      vertex 10 48.3004 34.7692
    endloop
  endfacet
  facet normal 0 0.406739 0.913545
    outer loop
      vertex 10 47.25 35.2369
      vertex 0 48.3004 34.7692
      vertex 0 47.25 35.2369
    endloop
  endfacet
  facet normal 0 -0.994522 -0.10453
    outer loop
      vertex 0 55.5 40
      vertex 10 55.3798 41.1435
      vertex 0 55.3798 41.1435
    endloop
  endfacet
  facet normal 0 -0.994522 -0.10453
    outer loop
      vertex 10 55.3798 41.1435
      vertex 0 55.5 40
      vertex 10 55.5 40
    endloop
  endfacet
  facet normal 0 -0.743145 -0.669131
    outer loop
      vertex 0 54.4496 43.2328
      vertex 10 53.6802 44.0873
      vertex 0 53.6802 44.0873
    endloop
  endfacet
  facet normal 0 -0.743145 -0.669131
    outer loop
      vertex 10 53.6802 44.0873
      vertex 0 54.4496 43.2328
      vertex 10 54.4496 43.2328
    endloop
  endfacet
  facet normal 0 -0.406739 -0.913545
    outer loop
      vertex 0 51.6996 45.2308
      vertex 10 52.75 44.7631
      vertex 10 51.6996 45.2308
    endloop
  endfacet
  facet normal -0 -0.406739 -0.913545
    outer loop
      vertex 10 52.75 44.7631
      vertex 0 51.6996 45.2308
      vertex 0 52.75 44.7631
    endloop
  endfacet
  facet normal 0 0.994522 0.104526
    outer loop
      vertex 10 44.6202 38.8565
      vertex 0 44.5 40
      vertex 10 44.5 40
    endloop
  endfacet
  facet normal 0 0.994522 0.104526
    outer loop
      vertex 0 44.5 40
      vertex 10 44.6202 38.8565
      vertex 0 44.6202 38.8565
    endloop
  endfacet
  facet normal 0 0.951057 -0.309017
    outer loop
      vertex 10 44.6202 41.1435
      vertex 0 44.9755 42.2371
      vertex 10 44.9755 42.2371
    endloop
  endfacet
  facet normal 0 0.951057 -0.309017
    outer loop
      vertex 0 44.9755 42.2371
      vertex 10 44.6202 41.1435
      vertex 0 44.6202 41.1435
    endloop
  endfacet
  facet normal -1 2.8056e-07 6.30144e-07
    outer loop
      vertex 10 51.6996 34.7692
      vertex 10 48.3004 34.7692
      vertex 10 47.25 35.2369
    endloop
  endfacet
  facet normal -1 2.19226e-07 1.97392e-07
    outer loop
      vertex 10 44.9755 42.2371
      vertex 10 46.3198 35.9127
      vertex 10 45.5504 36.7672
    endloop
  endfacet
  facet normal 0 0 -1
    outer loop
      vertex 0 49.4251 45.4699
      vertex 10 50.5749 45.4699
      vertex 10 49.4251 45.4699
    endloop
  endfacet
  facet normal -0 0 -1
    outer loop
      vertex 10 50.5749 45.4699
      vertex 0 49.4251 45.4699
      vertex 0 50.5749 45.4699
    endloop
  endfacet
  facet normal 0 -0.207912 -0.978148
    outer loop
      vertex 0 50.5749 45.4699
      vertex 10 51.6996 45.2308
      vertex 10 50.5749 45.4699
    endloop
  endfacet
  facet normal -0 -0.207912 -0.978148
    outer loop
      vertex 10 51.6996 45.2308
      vertex 0 50.5749 45.4699
      vertex 0 51.6996 45.2308
    endloop
  endfacet
  facet normal 0 -0.951056 0.309018
    outer loop
      vertex 0 55.0245 37.7629
      vertex 10 55.3798 38.8565
      vertex 0 55.3798 38.8565
    endloop
  endfacet
  facet normal 0 -0.951056 0.309018
    outer loop
      vertex 10 55.3798 38.8565
      vertex 0 55.0245 37.7629
      vertex 10 55.0245 37.7629
    endloop
  endfacet
  facet normal 0 -0.951057 -0.309017
    outer loop
      vertex 0 55.3798 41.1435
      vertex 10 55.0245 42.2371
      vertex 0 55.0245 42.2371
    endloop
  endfacet
  facet normal 0 -0.951057 -0.309017
    outer loop
      vertex 10 55.0245 42.2371
      vertex 0 55.3798 41.1435
      vertex 10 55.3798 41.1435
    endloop
  endfacet
  facet normal 0 0.951056 0.309018
    outer loop
      vertex 10 44.9755 37.7629
      vertex 0 44.6202 38.8565
      vertex 10 44.6202 38.8565
    endloop
  endfacet
  facet normal 0 0.951056 0.309018
    outer loop
      vertex 0 44.6202 38.8565
      vertex 10 44.9755 37.7629
      vertex 0 44.9755 37.7629
    endloop
  endfacet
  facet normal -1 3.69192e-07 2.13154e-07
    outer loop
      vertex 10 44.9755 42.2371
      vertex 10 45.5504 36.7672
      vertex 10 44.9755 37.7629
    endloop
  endfacet
  facet normal -1 6.5602e-07 2.13154e-07
    outer loop
      vertex 10 44.9755 42.2371
      vertex 10 44.9755 37.7629
      vertex 10 44.6202 38.8565
    endloop
  endfacet
  facet normal 0 0.207912 -0.978148
    outer loop
      vertex 0 48.3004 45.2308
      vertex 10 49.4251 45.4699
      vertex 10 48.3004 45.2308
    endloop
  endfacet
  facet normal 0 0.207912 -0.978148
    outer loop
      vertex 10 49.4251 45.4699
      vertex 0 48.3004 45.2308
      vertex 0 49.4251 45.4699
    endloop
  endfacet
  facet normal 0 0.587785 -0.809017
    outer loop
      vertex 0 46.3198 44.0873
      vertex 10 47.25 44.7631
      vertex 10 46.3198 44.0873
    endloop
  endfacet
  facet normal 0 0.587785 -0.809017
    outer loop
      vertex 10 47.25 44.7631
      vertex 0 46.3198 44.0873
      vertex 0 47.25 44.7631
    endloop
  endfacet
  facet normal 0 0.406739 -0.913545
    outer loop
      vertex 0 47.25 44.7631
      vertex 10 48.3004 45.2308
      vertex 10 47.25 44.7631
    endloop
  endfacet
  facet normal 0 0.406739 -0.913545
    outer loop
      vertex 10 48.3004 45.2308
      vertex 0 47.25 44.7631
      vertex 0 48.3004 45.2308
    endloop
  endfacet
  facet normal 0 0.743145 -0.669131
    outer loop
      vertex 10 45.5504 43.2328
      vertex 0 46.3198 44.0873
      vertex 10 46.3198 44.0873
    endloop
  endfacet
  facet normal 0 0.743145 -0.669131
    outer loop
      vertex 0 46.3198 44.0873
      vertex 10 45.5504 43.2328
      vertex 0 45.5504 43.2328
    endloop
  endfacet
  facet normal 0 0.866024 -0.500002
    outer loop
      vertex 10 44.9755 42.2371
      vertex 0 45.5504 43.2328
      vertex 10 45.5504 43.2328
    endloop
  endfacet
  facet normal 0 0.866024 -0.500002
    outer loop
      vertex 0 45.5504 43.2328
      vertex 10 44.9755 42.2371
      vertex 0 44.9755 42.2371
    endloop
  endfacet
  facet normal 0 -0.207912 0.978148
    outer loop
      vertex 0 51.6996 34.7692
      vertex 10 50.5749 34.5301
      vertex 10 51.6996 34.7692
    endloop
  endfacet
  facet normal 0 -0.207912 0.978148
    outer loop
      vertex 10 50.5749 34.5301
      vertex 0 51.6996 34.7692
      vertex 0 50.5749 34.5301
    endloop
  endfacet
  facet normal -0 0 1
    outer loop
      vertex 0 50.5749 34.5301
      vertex 10 49.4251 34.5301
      vertex 10 50.5749 34.5301
    endloop
  endfacet
  facet normal 0 0 1
    outer loop
      vertex 10 49.4251 34.5301
      vertex 0 50.5749 34.5301
      vertex 0 49.4251 34.5301
    endloop
  endfacet
  facet normal -0 0.207912 0.978148
    outer loop
      vertex 0 49.4251 34.5301
      vertex 10 48.3004 34.7692
      vertex 10 49.4251 34.5301
    endloop
  endfacet
  facet normal 0 0.207912 0.978148
    outer loop
      vertex 10 48.3004 34.7692
      vertex 0 49.4251 34.5301
      vertex 0 48.3004 34.7692
    endloop
  endfacet
  facet normal -1 2.8056e-07 1.31993e-06
    outer loop
      vertex 10 51.6996 34.7692
      vertex 10 49.4251 34.5301
      vertex 10 48.3004 34.7692
    endloop
  endfacet
  facet normal -1 2.50578e-07 3.44892e-07
    outer loop
      vertex 10 51.6996 34.7692
      vertex 10 47.25 35.2369
      vertex 10 46.3198 35.9127
    endloop
  endfacet
  facet normal -1 2.19226e-07 1.97392e-07
    outer loop
      vertex 10 44.9755 42.2371
      vertex 10 51.6996 34.7692
      vertex 10 46.3198 35.9127
    endloop
  endfacet
  facet normal 0 -0.587785 -0.809017
    outer loop
      vertex 0 52.75 44.7631
      vertex 10 53.6802 44.0873
      vertex 10 52.75 44.7631
    endloop
  endfacet
  facet normal -0 -0.587785 -0.809017
    outer loop
      vertex 10 53.6802 44.0873
      vertex 0 52.75 44.7631
      vertex 0 53.6802 44.0873
    endloop
  endfacet
  facet normal 0 -0.743145 0.669131
    outer loop
      vertex 0 53.6802 35.9127
      vertex 10 54.4496 36.7672
      vertex 0 54.4496 36.7672
    endloop
  endfacet
  facet normal 0 -0.743145 0.669131
    outer loop
      vertex 10 54.4496 36.7672
      vertex 0 53.6802 35.9127
      vertex 10 53.6802 35.9127
    endloop
  endfacet
  facet normal 0 -0.994522 0.10453
    outer loop
      vertex 0 55.3798 38.8565
      vertex 10 55.5 40
      vertex 0 55.5 40
    endloop
  endfacet
  facet normal 0 -0.994522 0.10453
    outer loop
      vertex 10 55.5 40
      vertex 0 55.3798 38.8565
      vertex 10 55.3798 38.8565
    endloop
  endfacet
  facet normal 0 -0.866025 -0.5
    outer loop
      vertex 0 55.0245 42.2371
      vertex 10 54.4496 43.2328
      vertex 0 54.4496 43.2328
    endloop
  endfacet
  facet normal 0 -0.866025 -0.5
    outer loop
      vertex 10 54.4496 43.2328
      vertex 0 55.0245 42.2371
      vertex 10 55.0245 42.2371
    endloop
  endfacet
  facet normal 0 0.743145 0.669131
    outer loop
      vertex 10 46.3198 35.9127
      vertex 0 45.5504 36.7672
      vertex 10 45.5504 36.7672
    endloop
  endfacet
  facet normal 0 0.743145 0.669131
    outer loop
      vertex 0 45.5504 36.7672
      vertex 10 46.3198 35.9127
      vertex 0 46.3198 35.9127
    endloop
  endfacet
  facet normal 0 0.866024 0.500002
    outer loop
      vertex 10 45.5504 36.7672
      vertex 0 44.9755 37.7629
      vertex 10 44.9755 37.7629
    endloop
  endfacet
  facet normal 0 0.866024 0.500002
    outer loop
      vertex 0 44.9755 37.7629
      vertex 10 45.5504 36.7672
      vertex 0 45.5504 36.7672
    endloop
  endfacet
  facet normal 0 -0.587785 0.809017
    outer loop
      vertex 0 53.6802 35.9127
      vertex 10 52.75 35.2369
      vertex 10 53.6802 35.9127
    endloop
  endfacet
  facet normal 0 -0.587785 0.809017
    outer loop
      vertex 10 52.75 35.2369
      vertex 0 53.6802 35.9127
      vertex 0 52.75 35.2369
    endloop
  endfacet
  facet normal 0 -0.406739 0.913545
    outer loop
      vertex 0 52.75 35.2369
      vertex 10 51.6996 34.7692
      vertex 10 52.75 35.2369
    endloop
  endfacet
  facet normal 0 -0.406739 0.913545
    outer loop
      vertex 10 51.6996 34.7692
      vertex 0 52.75 35.2369
      vertex 0 51.6996 34.7692
    endloop
  endfacet
  facet normal 0 -0.866025 0.5
    outer loop
      vertex 0 54.4496 36.7672
      vertex 10 55.0245 37.7629
      vertex 0 55.0245 37.7629
    endloop
  endfacet
  facet normal 0 -0.866025 0.5
    outer loop
      vertex 10 55.0245 37.7629
      vertex 0 54.4496 36.7672
      vertex 10 54.4496 36.7672
    endloop
  endfacet
  facet normal 1 -0 0
    outer loop
      vertex 40 -80 10
      vertex 40 -10 0
      vertex 40 -10 10
    endloop
  endfacet
  facet normal 1 0 0
    outer loop
      vertex 40 -10 0
      vertex 40 -80 10
      vertex 40 -80 0
    endloop
  endfacet
  facet normal 0 -1 0
    outer loop
      vertex 40 -10 0
      vertex 75 -10 10
      vertex 40 -10 10
    endloop
  endfacet
  facet normal 0 -1 -0
    outer loop
      vertex 75 -10 10
      vertex 40 -10 0
      vertex 75 -10 0
    endloop
  endfacet
endsolid OpenSCAD_Model
