solid OpenSCAD_Model
  facet normal -1 0 0
    outer loop
      vertex 0 0 0
      vertex 0 0 20
      vertex 0 55 0
    endloop
  endfacet
  facet normal -1 0 0
    outer loop
      vertex 0 46.5594 12.5842
      vertex 0 0 20
      vertex 0 55 20
    endloop
  endfacet
  facet normal -1 0 0
    outer loop
      vertex 0 44.7918 9.52247
      vertex 0 0 20
      vertex 0 44.7918 10.4775
    endloop
  endfacet
  facet normal -1 0 0
    outer loop
      vertex 0 45.1184 8.625
      vertex 0 0 20
      vertex 0 44.7918 9.52247
    endloop
  endfacet
  facet normal -1 0 0
    outer loop
      vertex 0 45.7323 7.89338
      vertex 0 0 20
      vertex 0 45.1184 8.625
    endloop
  endfacet
  facet normal -1 0 0
    outer loop
      vertex 0 55 0
      vertex 0 0 20
      vertex 0 45.7323 7.89338
    endloop
  endfacet
  facet normal -1 0 0
    outer loop
      vertex 0 47.5 7.25
      vertex 0 55 0
      vertex 0 46.5594 7.41585
    endloop
  endfacet
  facet normal -1 0 0
    outer loop
      vertex 0 48.4406 7.41585
      vertex 0 55 0
      vertex 0 47.5 7.25
    endloop
  endfacet
  facet normal -1 0 0
    outer loop
      vertex 0 50.2082 10.4775
      vertex 0 55 20
      vertex 0 50.2082 9.52247
    endloop
  endfacet
  facet normal -1 0 0
    outer loop
      vertex 0 55 0
      vertex 0 48.4406 7.41585
      vertex 0 49.2677 7.89338
    endloop
  endfacet
  facet normal -1 0 0
    outer loop
      vertex 0 55 0
      vertex 0 49.2677 7.89338
      vertex 0 49.8816 8.625
    endloop
  endfacet
  facet normal -1 0 0
    outer loop
      vertex 0 55 0
      vertex 0 49.8816 8.625
      vertex 0 55 20
    endloop
  endfacet
  facet normal -1 0 0
    outer loop
      vertex 0 49.8816 8.625
      vertex 0 50.2082 9.52247
      vertex 0 55 20
    endloop
  endfacet
  facet normal -1 0 0
    outer loop
      vertex 0 49.8816 11.375
      vertex 0 55 20
      vertex 0 50.2082 10.4775
    endloop
  endfacet
  facet normal -1 0 0
    outer loop
      vertex 0 46.5594 12.5842
      vertex 0 55 20
      vertex 0 47.5 12.75
    endloop
  endfacet
  facet normal -1 0 0
    outer loop
      vertex 0 49.8816 11.375
      vertex 0 49.2677 12.1066
      vertex 0 55 20
    endloop
  endfacet
  facet normal -1 0 0
    outer loop
      vertex 0 49.2677 12.1066
      vertex 0 48.4406 12.5842
      vertex 0 55 20
    endloop
  endfacet
  facet normal -1 0 0
    outer loop
      vertex 0 48.4406 12.5842
      vertex 0 47.5 12.75
      vertex 0 55 20
    endloop
  endfacet
  facet normal -1 0 0
    outer loop
      vertex 0 45.7323 12.1066
      vertex 0 0 20
      vertex 0 46.5594 12.5842
    endloop
  endfacet
  facet normal -1 0 0
    outer loop
      vertex 0 45.1184 11.375
      vertex 0 0 20
      vertex 0 45.7323 12.1066
    endloop
  endfacet
  facet normal -1 0 0
    outer loop
      vertex 0 44.7918 10.4775
      vertex 0 0 20
      vertex 0 45.1184 11.375
    endloop
  endfacet
  facet normal -1 0 0
    outer loop
      vertex 0 46.5594 7.41585
      vertex 0 55 0
      vertex 0 45.7323 7.89338
    endloop
  endfacet
  facet normal 0 -1 0
    outer loop
      vertex 0 0 20
      vertex 0 0 0
      vertex 55 0 0
    endloop
  endfacet
  facet normal 0 -1 0
    outer loop
      vertex 46.125 0 7.61843
      vertex 0 0 20
      vertex 55 0 0
    endloop
  endfacet
  facet normal 0 -1 0
    outer loop
      vertex 44.75 0 10
      vertex 0 0 20
      vertex 44.9158 0 9.05945
    endloop
  endfacet
  facet normal 0 -1 0
    outer loop
      vertex 44.9158 0 10.9406
      vertex 0 0 20
      vertex 44.75 0 10
    endloop
  endfacet
  facet normal 0 -1 0
    outer loop
      vertex 45.3934 0 11.7677
      vertex 0 0 20
      vertex 44.9158 0 10.9406
    endloop
  endfacet
  facet normal 0 -1 0
    outer loop
      vertex 55 0 20
      vertex 0 0 20
      vertex 45.3934 0 11.7677
    endloop
  endfacet
  facet normal 0 -1 0
    outer loop
      vertex 47.0225 0 12.7082
      vertex 47.9775 0 12.7082
      vertex 55 0 20
    endloop
  endfacet
  facet normal 0 -1 0
    outer loop
      vertex 55 0 20
      vertex 45.3934 0 11.7677
      vertex 46.125 0 12.3816
    endloop
  endfacet
  facet normal 0 -1 0
    outer loop
      vertex 47.9775 0 12.7082
      vertex 48.875 0 12.3816
      vertex 55 0 20
    endloop
  endfacet
  facet normal 0 -1 0
    outer loop
      vertex 50.0842 0 10.9406
      vertex 50.25 0 10
      vertex 55 0 0
    endloop
  endfacet
  facet normal 0 -1 0
    outer loop
      vertex 47.0225 0 7.29178
      vertex 46.125 0 7.61843
      vertex 55 0 0
    endloop
  endfacet
  facet normal 0 -1 0
    outer loop
      vertex 50.25 0 10
      vertex 50.0842 0 9.05945
      vertex 55 0 0
    endloop
  endfacet
  facet normal 0 -1 0
    outer loop
      vertex 55 0 20
      vertex 48.875 0 12.3816
      vertex 49.6066 0 11.7677
    endloop
  endfacet
  facet normal 0 -1 0
    outer loop
      vertex 55 0 20
      vertex 50.0842 0 10.9406
      vertex 55 0 0
    endloop
  endfacet
  facet normal 0 -1 0
    outer loop
      vertex 55 0 20
      vertex 49.6066 0 11.7677
      vertex 50.0842 0 10.9406
    endloop
  endfacet
  facet normal 0 -1 0
    outer loop
      vertex 50.0842 0 9.05945
      vertex 49.6066 0 8.23233
      vertex 55 0 0
    endloop
  endfacet
  facet normal 0 -1 0
    outer loop
      vertex 49.6066 0 8.23233
      vertex 48.875 0 7.61843
      vertex 55 0 0
    endloop
  endfacet
  facet normal 0 -1 0
    outer loop
      vertex 48.875 0 7.61843
      vertex 47.9775 0 7.29178
      vertex 55 0 0
    endloop
  endfacet
  facet normal 0 -1 0
    outer loop
      vertex 47.9775 0 7.29178
      vertex 47.0225 0 7.29178
      vertex 55 0 0
    endloop
  endfacet
  facet normal 0 -1 0
    outer loop
      vertex 45.3934 0 8.23233
      vertex 0 0 20
      vertex 46.125 0 7.61843
    endloop
  endfacet
  facet normal 0 -1 0
    outer loop
      vertex 44.9158 0 9.05945
      vertex 0 0 20
      vertex 45.3934 0 8.23233
    endloop
  endfacet
  facet normal 0 -1 0
    outer loop
      vertex 46.125 0 12.3816
      vertex 47.0225 0 12.7082
      vertex 55 0 20
    endloop
  endfacet
  facet normal 0 0 -1
    outer loop
      vertex 40 5 0
      vertex 26.3833 25.3214 0
      vertex 40 40 0
    endloop
  endfacet
  facet normal 0 0 -1
    outer loop
      vertex 0 0 0
      vertex 0 55 0
      vertex 5 40 0
    endloop
  endfacet
  facet normal 0 0 -1
    outer loop
      vertex 40 5 0
      vertex 26.3833 19.6786 0
      vertex 26.885 20.5477 0
    endloop
  endfacet
  facet normal 0 0 -1
    outer loop
      vertex 0 0 0
      vertex 40 5 0
      vertex 55 0 0
    endloop
  endfacet
  facet normal 0 0 -1
    outer loop
      vertex 21.0167 17.9349 0
      vertex 40 5 0
      vertex 20.1 18.3431 0
    endloop
  endfacet
  facet normal 0 0 -1
    outer loop
      vertex 0 0 0
      vertex 5 40 0
      vertex 17.7 22.5 0
    endloop
  endfacet
  facet normal 0 0 -1
    outer loop
      vertex 0 0 0
      vertex 17.7 22.5 0
      vertex 17.8049 21.502 0
    endloop
  endfacet
  facet normal 0 0 -1
    outer loop
      vertex 0 0 0
      vertex 17.8049 21.502 0
      vertex 18.115 20.5477 0
    endloop
  endfacet
  facet normal 0 0 -1
    outer loop
      vertex 0 0 0
      vertex 18.115 20.5477 0
      vertex 18.6167 19.6786 0
    endloop
  endfacet
  facet normal 0 0 -1
    outer loop
      vertex 0 0 0
      vertex 18.6167 19.6786 0
      vertex 19.2882 18.9329 0
    endloop
  endfacet
  facet normal 0 0 -1
    outer loop
      vertex 0 0 0
      vertex 19.2882 18.9329 0
      vertex 20.1 18.3431 0
    endloop
  endfacet
  facet normal 0 0 -1
    outer loop
      vertex 0 0 0
      vertex 20.1 18.3431 0
      vertex 40 5 0
    endloop
  endfacet
  facet normal 0 0 -1
    outer loop
      vertex 21.9983 17.7263 0
      vertex 40 5 0
      vertex 21.0167 17.9349 0
    endloop
  endfacet
  facet normal 0 0 -1
    outer loop
      vertex 23.0017 17.7263 0
      vertex 40 5 0
      vertex 21.9983 17.7263 0
    endloop
  endfacet
  facet normal 0 0 -1
    outer loop
      vertex 23.9833 17.9349 0
      vertex 40 5 0
      vertex 23.0017 17.7263 0
    endloop
  endfacet
  facet normal 0 0 -1
    outer loop
      vertex 26.3833 19.6786 0
      vertex 40 5 0
      vertex 25.7118 18.9329 0
    endloop
  endfacet
  facet normal 0 0 -1
    outer loop
      vertex 23.9833 17.9349 0
      vertex 24.9 18.3431 0
      vertex 40 5 0
    endloop
  endfacet
  facet normal 0 0 -1
    outer loop
      vertex 18.115 24.4523 0
      vertex 5 40 0
      vertex 18.6167 25.3214 0
    endloop
  endfacet
  facet normal 0 0 -1
    outer loop
      vertex 24.9 18.3431 0
      vertex 25.7118 18.9329 0
      vertex 40 5 0
    endloop
  endfacet
  facet normal 0 0 -1
    outer loop
      vertex 18.6167 25.3214 0
      vertex 5 40 0
      vertex 19.2882 26.0671 0
    endloop
  endfacet
  facet normal 0 0 -1
    outer loop
      vertex 55 5 0
      vertex 55 0 0
      vertex 40 5 0
    endloop
  endfacet
  facet normal 0 0 -1
    outer loop
      vertex 19.2882 26.0671 0
      vertex 5 40 0
      vertex 20.1 26.6569 0
    endloop
  endfacet
  facet normal 0 0 -1
    outer loop
      vertex 40 40 0
      vertex 26.3833 25.3214 0
      vertex 25.7118 26.0671 0
    endloop
  endfacet
  facet normal 0 0 -1
    outer loop
      vertex 40 40 0
      vertex 24.9 26.6569 0
      vertex 23.9833 27.0651 0
    endloop
  endfacet
  facet normal 0 0 -1
    outer loop
      vertex 40 40 0
      vertex 23.0017 27.2737 0
      vertex 5 40 0
    endloop
  endfacet
  facet normal 0 0 -1
    outer loop
      vertex 40 5 0
      vertex 26.885 24.4523 0
      vertex 26.3833 25.3214 0
    endloop
  endfacet
  facet normal 0 0 -1
    outer loop
      vertex 40 40 0
      vertex 23.9833 27.0651 0
      vertex 23.0017 27.2737 0
    endloop
  endfacet
  facet normal 0 0 -1
    outer loop
      vertex 40 40 0
      vertex 25.7118 26.0671 0
      vertex 24.9 26.6569 0
    endloop
  endfacet
  facet normal 0 0 -1
    outer loop
      vertex 5 40 0
      vertex 23.0017 27.2737 0
      vertex 21.9983 27.2737 0
    endloop
  endfacet
  facet normal 0 0 -1
    outer loop
      vertex 21.0167 27.0651 0
      vertex 5 40 0
      vertex 21.9983 27.2737 0
    endloop
  endfacet
  facet normal 0 0 -1
    outer loop
      vertex 17.8049 23.498 0
      vertex 5 40 0
      vertex 18.115 24.4523 0
    endloop
  endfacet
  facet normal 0 0 -1
    outer loop
      vertex 17.7 22.5 0
      vertex 5 40 0
      vertex 17.8049 23.498 0
    endloop
  endfacet
  facet normal 0 0 -1
    outer loop
      vertex 5 40 0
      vertex 0 55 0
      vertex 5 55 0
    endloop
  endfacet
  facet normal 0 0 -1
    outer loop
      vertex 40 5 0
      vertex 26.885 20.5477 0
      vertex 27.1951 21.502 0
    endloop
  endfacet
  facet normal 0 0 -1
    outer loop
      vertex 20.1 26.6569 0
      vertex 5 40 0
      vertex 21.0167 27.0651 0
    endloop
  endfacet
  facet normal 0 0 -1
    outer loop
      vertex 40 5 0
      vertex 27.1951 21.502 0
      vertex 27.3 22.5 0
    endloop
  endfacet
  facet normal 0 0 -1
    outer loop
      vertex 40 5 0
      vertex 27.3 22.5 0
      vertex 27.1951 23.498 0
    endloop
  endfacet
  facet normal 0 0 -1
    outer loop
      vertex 40 5 0
      vertex 27.1951 23.498 0
      vertex 26.885 24.4523 0
    endloop
  endfacet
  facet normal 0 1 0
    outer loop
      vertex 0 55 0
      vertex 0 55 20
      vertex 5 55 0
    endloop
  endfacet
  facet normal 0 1 0
    outer loop
      vertex 5 55 0
      vertex 0 55 20
      vertex 5 55 20
    endloop
  endfacet
  facet normal 0 0 1
    outer loop
      vertex 5 5 20
      vertex 0 0 20
      vertex 55 0 20
    endloop
  endfacet
  facet normal 0 0 1
    outer loop
      vertex 5 5 20
      vertex 5 55 20
      vertex 0 55 20
    endloop
  endfacet
  facet normal 0 0 1
    outer loop
      vertex 0 55 20
      vertex 0 0 20
      vertex 5 5 20
    endloop
  endfacet
  facet normal 0 0 1
    outer loop
      vertex 55 5 20
      vertex 5 5 20
      vertex 55 0 20
    endloop
  endfacet
  facet normal 7.59436e-17 0.939693 -0.34202
    outer loop
      vertex 5 45.1184 11.375
      vertex 5 44.7918 10.4775
      vertex 0 45.1184 11.375
    endloop
  endfacet
  facet normal 7.59436e-17 0.939693 -0.34202
    outer loop
      vertex 0 45.1184 11.375
      vertex 5 44.7918 10.4775
      vertex 0 44.7918 10.4775
    endloop
  endfacet
  facet normal 0 1 0
    outer loop
      vertex 5 44.7918 10.4775
      vertex 5 44.7918 9.52247
      vertex 0 44.7918 10.4775
    endloop
  endfacet
  facet normal 0 1 0
    outer loop
      vertex 0 44.7918 10.4775
      vertex 5 44.7918 9.52247
      vertex 0 44.7918 9.52247
    endloop
  endfacet
  facet normal 1.42728e-16 0.766044 -0.642788
    outer loop
      vertex 5 45.7323 12.1066
      vertex 5 45.1184 11.375
      vertex 0 45.7323 12.1066
    endloop
  endfacet
  facet normal 1.42728e-16 0.766044 -0.642788
    outer loop
      vertex 0 45.7323 12.1066
      vertex 5 45.1184 11.375
      vertex 0 45.1184 11.375
    endloop
  endfacet
  facet normal 1.92296e-16 0.5 -0.866025
    outer loop
      vertex 5 46.5594 12.5842
      vertex 5 45.7323 12.1066
      vertex 0 46.5594 12.5842
    endloop
  endfacet
  facet normal 1.92296e-16 0.5 -0.866025
    outer loop
      vertex 0 46.5594 12.5842
      vertex 5 45.7323 12.1066
      vertex 0 45.7323 12.1066
    endloop
  endfacet
  facet normal 2.18671e-16 0.173648 -0.984808
    outer loop
      vertex 5 47.5 12.75
      vertex 5 46.5594 12.5842
      vertex 0 47.5 12.75
    endloop
  endfacet
  facet normal 2.18671e-16 0.173648 -0.984808
    outer loop
      vertex 0 47.5 12.75
      vertex 5 46.5594 12.5842
      vertex 0 46.5594 12.5842
    endloop
  endfacet
  facet normal 2.18671e-16 -0.173648 -0.984808
    outer loop
      vertex 5 48.4406 12.5842
      vertex 5 47.5 12.75
      vertex 0 48.4406 12.5842
    endloop
  endfacet
  facet normal 2.18671e-16 -0.173648 -0.984808
    outer loop
      vertex 0 48.4406 12.5842
      vertex 5 47.5 12.75
      vertex 0 47.5 12.75
    endloop
  endfacet
  facet normal 1.92296e-16 -0.5 -0.866025
    outer loop
      vertex 5 49.2677 12.1066
      vertex 5 48.4406 12.5842
      vertex 0 49.2677 12.1066
    endloop
  endfacet
  facet normal 1.92296e-16 -0.5 -0.866025
    outer loop
      vertex 0 49.2677 12.1066
      vertex 5 48.4406 12.5842
      vertex 0 48.4406 12.5842
    endloop
  endfacet
  facet normal 1.42728e-16 -0.766044 -0.642788
    outer loop
      vertex 0 49.8816 11.375
      vertex 5 49.8816 11.375
      vertex 5 49.2677 12.1066
    endloop
  endfacet
  facet normal 1.42728e-16 -0.766044 -0.642788
    outer loop
      vertex 0 49.2677 12.1066
      vertex 0 49.8816 11.375
      vertex 5 49.2677 12.1066
    endloop
  endfacet
  facet normal 7.59436e-17 -0.939693 -0.34202
    outer loop
      vertex 0 50.2082 10.4775
      vertex 5 50.2082 10.4775
      vertex 5 49.8816 11.375
    endloop
  endfacet
  facet normal 7.59436e-17 -0.939693 -0.34202
    outer loop
      vertex 0 49.8816 11.375
      vertex 0 50.2082 10.4775
      vertex 5 49.8816 11.375
    endloop
  endfacet
  facet normal 0 -1 0
    outer loop
      vertex 5 50.2082 9.52247
      vertex 5 50.2082 10.4775
      vertex 0 50.2082 10.4775
    endloop
  endfacet
  facet normal 0 -1 0
    outer loop
      vertex 0 50.2082 9.52247
      vertex 5 50.2082 9.52247
      vertex 0 50.2082 10.4775
    endloop
  endfacet
  facet normal -7.59436e-17 -0.939693 0.34202
    outer loop
      vertex 5 49.8816 8.625
      vertex 5 50.2082 9.52247
      vertex 0 50.2082 9.52247
    endloop
  endfacet
  facet normal -7.59436e-17 -0.939693 0.34202
    outer loop
      vertex 0 49.8816 8.625
      vertex 5 49.8816 8.625
      vertex 0 50.2082 9.52247
    endloop
  endfacet
  facet normal -1.42728e-16 -0.766044 0.642788
    outer loop
      vertex 5 49.2677 7.89338
      vertex 5 49.8816 8.625
      vertex 0 49.8816 8.625
    endloop
  endfacet
  facet normal -1.42728e-16 -0.766044 0.642788
    outer loop
      vertex 0 49.2677 7.89338
      vertex 5 49.2677 7.89338
      vertex 0 49.8816 8.625
    endloop
  endfacet
  facet normal -1.92296e-16 -0.5 0.866025
    outer loop
      vertex 5 48.4406 7.41585
      vertex 5 49.2677 7.89338
      vertex 0 49.2677 7.89338
    endloop
  endfacet
  facet normal -1.92296e-16 -0.5 0.866025
    outer loop
      vertex 0 48.4406 7.41585
      vertex 5 48.4406 7.41585
      vertex 0 49.2677 7.89338
    endloop
  endfacet
  facet normal -2.18671e-16 -0.173648 0.984808
    outer loop
      vertex 5 47.5 7.25
      vertex 5 48.4406 7.41585
      vertex 0 48.4406 7.41585
    endloop
  endfacet
  facet normal -2.18671e-16 -0.173648 0.984808
    outer loop
      vertex 0 47.5 7.25
      vertex 5 47.5 7.25
      vertex 0 48.4406 7.41585
    endloop
  endfacet
  facet normal -2.18671e-16 0.173648 0.984808
    outer loop
      vertex 5 46.5594 7.41585
      vertex 5 47.5 7.25
      vertex 0 47.5 7.25
    endloop
  endfacet
  facet normal -2.18671e-16 0.173648 0.984808
    outer loop
      vertex 0 46.5594 7.41585
      vertex 5 46.5594 7.41585
      vertex 0 47.5 7.25
    endloop
  endfacet
  facet normal -1.92296e-16 0.5 0.866025
    outer loop
      vertex 5 45.7323 7.89338
      vertex 5 46.5594 7.41585
      vertex 0 46.5594 7.41585
    endloop
  endfacet
  facet normal -1.92296e-16 0.5 0.866025
    outer loop
      vertex 0 45.7323 7.89338
      vertex 5 45.7323 7.89338
      vertex 0 46.5594 7.41585
    endloop
  endfacet
  facet normal -1.42728e-16 0.766044 0.642788
    outer loop
      vertex 5 45.7323 7.89338
      vertex 0 45.7323 7.89338
      vertex 5 45.1184 8.625
    endloop
  endfacet
  facet normal -1.42728e-16 0.766044 0.642788
    outer loop
      vertex 5 45.1184 8.625
      vertex 0 45.7323 7.89338
      vertex 0 45.1184 8.625
    endloop
  endfacet
  facet normal -7.59436e-17 0.939693 0.34202
    outer loop
      vertex 5 45.1184 8.625
      vertex 0 45.1184 8.625
      vertex 5 44.7918 9.52247
    endloop
  endfacet
  facet normal -7.59436e-17 0.939693 0.34202
    outer loop
      vertex 5 44.7918 9.52247
      vertex 0 45.1184 8.625
      vertex 0 44.7918 9.52247
    endloop
  endfacet
  facet normal 1 0 0
    outer loop
      vertex 55 0 20
      vertex 55 0 0
      vertex 55 5 0
    endloop
  endfacet
  facet normal 1 0 0
    outer loop
      vertex 55 5 20
      vertex 55 0 20
      vertex 55 5 0
    endloop
  endfacet
  facet normal 0.866025 -1.11022e-16 0.5
    outer loop
      vertex 45.3934 0 8.23233
      vertex 45.3934 5 8.23233
      vertex 44.9158 5 9.05945
    endloop
  endfacet
  facet normal 0.866025 -1.11022e-16 0.5
    outer loop
      vertex 44.9158 0 9.05945
      vertex 45.3934 0 8.23233
      vertex 44.9158 5 9.05945
    endloop
  endfacet
  facet normal 0.984808 -3.85576e-17 0.173648
    outer loop
      vertex 44.9158 0 9.05945
      vertex 44.9158 5 9.05945
      vertex 44.75 5 10
    endloop
  endfacet
  facet normal 0.984808 -3.85576e-17 0.173648
    outer loop
      vertex 44.75 0 10
      vertex 44.9158 0 9.05945
      vertex 44.75 5 10
    endloop
  endfacet
  facet normal 0.642788 -1.70096e-16 0.766044
    outer loop
      vertex 46.125 0 7.61843
      vertex 46.125 5 7.61843
      vertex 45.3934 5 8.23233
    endloop
  endfacet
  facet normal 0.642788 -1.70096e-16 0.766044
    outer loop
      vertex 45.3934 0 8.23233
      vertex 46.125 0 7.61843
      vertex 45.3934 5 8.23233
    endloop
  endfacet
  facet normal 0.34202 -2.08654e-16 0.939693
    outer loop
      vertex 47.0225 0 7.29178
      vertex 47.0225 5 7.29178
      vertex 46.125 5 7.61843
    endloop
  endfacet
  facet normal 0.34202 -2.08654e-16 0.939693
    outer loop
      vertex 46.125 0 7.61843
      vertex 47.0225 0 7.29178
      vertex 46.125 5 7.61843
    endloop
  endfacet
  facet normal 0 -2.22045e-16 1
    outer loop
      vertex 47.9775 0 7.29178
      vertex 47.9775 5 7.29178
      vertex 47.0225 5 7.29178
    endloop
  endfacet
  facet normal 0 -2.22045e-16 1
    outer loop
      vertex 47.0225 0 7.29178
      vertex 47.9775 0 7.29178
      vertex 47.0225 5 7.29178
    endloop
  endfacet
  facet normal -0.34202 -2.08654e-16 0.939693
    outer loop
      vertex 48.875 0 7.61843
      vertex 48.875 5 7.61843
      vertex 47.9775 5 7.29178
    endloop
  endfacet
  facet normal -0.34202 -2.08654e-16 0.939693
    outer loop
      vertex 47.9775 0 7.29178
      vertex 48.875 0 7.61843
      vertex 47.9775 5 7.29178
    endloop
  endfacet
  facet normal -0.642788 -1.70096e-16 0.766044
    outer loop
      vertex 49.6066 0 8.23233
      vertex 49.6066 5 8.23233
      vertex 48.875 5 7.61843
    endloop
  endfacet
  facet normal -0.642788 -1.70096e-16 0.766044
    outer loop
      vertex 48.875 0 7.61843
      vertex 49.6066 0 8.23233
      vertex 48.875 5 7.61843
    endloop
  endfacet
  facet normal -0.866025 -1.11022e-16 0.5
    outer loop
      vertex 50.0842 5 9.05945
      vertex 49.6066 5 8.23233
      vertex 50.0842 0 9.05945
    endloop
  endfacet
  facet normal -0.866025 -1.11022e-16 0.5
    outer loop
      vertex 50.0842 0 9.05945
      vertex 49.6066 5 8.23233
      vertex 49.6066 0 8.23233
    endloop
  endfacet
  facet normal -0.984808 -3.85576e-17 0.173648
    outer loop
      vertex 50.25 5 10
      vertex 50.0842 5 9.05945
      vertex 50.25 0 10
    endloop
  endfacet
  facet normal -0.984808 -3.85576e-17 0.173648
    outer loop
      vertex 50.25 0 10
      vertex 50.0842 5 9.05945
      vertex 50.0842 0 9.05945
    endloop
  endfacet
  facet normal -0.984808 3.85576e-17 -0.173648
    outer loop
      vertex 50.25 5 10
      vertex 50.25 0 10
      vertex 50.0842 5 10.9406
    endloop
  endfacet
  facet normal -0.984808 3.85576e-17 -0.173648
    outer loop
      vertex 50.0842 5 10.9406
      vertex 50.25 0 10
      vertex 50.0842 0 10.9406
    endloop
  endfacet
  facet normal -0.866025 1.11022e-16 -0.5
    outer loop
      vertex 50.0842 5 10.9406
      vertex 50.0842 0 10.9406
      vertex 49.6066 5 11.7677
    endloop
  endfacet
  facet normal -0.866025 1.11022e-16 -0.5
    outer loop
      vertex 49.6066 5 11.7677
      vertex 50.0842 0 10.9406
      vertex 49.6066 0 11.7677
    endloop
  endfacet
  facet normal -0.642788 1.70096e-16 -0.766044
    outer loop
      vertex 49.6066 5 11.7677
      vertex 49.6066 0 11.7677
      vertex 48.875 5 12.3816
    endloop
  endfacet
  facet normal -0.642788 1.70096e-16 -0.766044
    outer loop
      vertex 48.875 5 12.3816
      vertex 49.6066 0 11.7677
      vertex 48.875 0 12.3816
    endloop
  endfacet
  facet normal -0.34202 2.08654e-16 -0.939693
    outer loop
      vertex 48.875 5 12.3816
      vertex 48.875 0 12.3816
      vertex 47.9775 5 12.7082
    endloop
  endfacet
  facet normal -0.34202 2.08654e-16 -0.939693
    outer loop
      vertex 47.9775 5 12.7082
      vertex 48.875 0 12.3816
      vertex 47.9775 0 12.7082
    endloop
  endfacet
  facet normal 0 2.22045e-16 -1
    outer loop
      vertex 47.9775 5 12.7082
      vertex 47.9775 0 12.7082
      vertex 47.0225 5 12.7082
    endloop
  endfacet
  facet normal 0 2.22045e-16 -1
    outer loop
      vertex 47.0225 5 12.7082
      vertex 47.9775 0 12.7082
      vertex 47.0225 0 12.7082
    endloop
  endfacet
  facet normal 0.34202 2.08654e-16 -0.939693
    outer loop
      vertex 47.0225 5 12.7082
      vertex 47.0225 0 12.7082
      vertex 46.125 5 12.3816
    endloop
  endfacet
  facet normal 0.34202 2.08654e-16 -0.939693
    outer loop
      vertex 46.125 5 12.3816
      vertex 47.0225 0 12.7082
      vertex 46.125 0 12.3816
    endloop
  endfacet
  facet normal 0.642788 1.70096e-16 -0.766044
    outer loop
      vertex 46.125 5 12.3816
      vertex 46.125 0 12.3816
      vertex 45.3934 5 11.7677
    endloop
  endfacet
  facet normal 0.642788 1.70096e-16 -0.766044
    outer loop
      vertex 45.3934 5 11.7677
      vertex 46.125 0 12.3816
      vertex 45.3934 0 11.7677
    endloop
  endfacet
  facet normal 0.866025 1.11022e-16 -0.5
    outer loop
      vertex 44.9158 5 10.9406
      vertex 45.3934 5 11.7677
      vertex 45.3934 0 11.7677
    endloop
  endfacet
  facet normal 0.866025 1.11022e-16 -0.5
    outer loop
      vertex 44.9158 0 10.9406
      vertex 44.9158 5 10.9406
      vertex 45.3934 0 11.7677
    endloop
  endfacet
  facet normal 0.984808 3.85576e-17 -0.173648
    outer loop
      vertex 44.75 5 10
      vertex 44.9158 5 10.9406
      vertex 44.9158 0 10.9406
    endloop
  endfacet
  facet normal 0.984808 3.85576e-17 -0.173648
    outer loop
      vertex 44.75 0 10
      vertex 44.75 5 10
      vertex 44.9158 0 10.9406
    endloop
  endfacet
  facet normal 0 1 0
    outer loop
      vertex 5 5 10
      vertex 5 5 20
      vertex 40 5 10
    endloop
  endfacet
  facet normal 0 1 0
    outer loop
      vertex 40 5 10
      vertex 5 5 20
      vertex 55 5 20
    endloop
  endfacet
  facet normal 0 1 0
    outer loop
      vertex 50.0842 5 9.05945
      vertex 55 5 20
      vertex 55 5 0
    endloop
  endfacet
  facet normal 0 1 0
    outer loop
      vertex 47.0225 5 7.29178
      vertex 55 5 0
      vertex 46.125 5 7.61843
    endloop
  endfacet
  facet normal 0 1 0
    outer loop
      vertex 45.3934 5 11.7677
      vertex 40 5 10
      vertex 46.125 5 12.3816
    endloop
  endfacet
  facet normal 0 1 0
    outer loop
      vertex 40 5 10
      vertex 44.75 5 10
      vertex 44.9158 5 9.05945
    endloop
  endfacet
  facet normal 0 1 0
    outer loop
      vertex 40 5 10
      vertex 44.9158 5 9.05945
      vertex 45.3934 5 8.23233
    endloop
  endfacet
  facet normal 0 1 0
    outer loop
      vertex 40 5 10
      vertex 45.3934 5 8.23233
      vertex 55 5 0
    endloop
  endfacet
  facet normal 0 1 0
    outer loop
      vertex 45.3934 5 8.23233
      vertex 46.125 5 7.61843
      vertex 55 5 0
    endloop
  endfacet
  facet normal 0 1 0
    outer loop
      vertex 47.9775 5 7.29178
      vertex 55 5 0
      vertex 47.0225 5 7.29178
    endloop
  endfacet
  facet normal 0 1 0
    outer loop
      vertex 47.0225 5 12.7082
      vertex 55 5 20
      vertex 47.9775 5 12.7082
    endloop
  endfacet
  facet normal 0 1 0
    outer loop
      vertex 50.25 5 10
      vertex 55 5 20
      vertex 50.0842 5 9.05945
    endloop
  endfacet
  facet normal 0 1 0
    outer loop
      vertex 49.6066 5 11.7677
      vertex 55 5 20
      vertex 50.0842 5 10.9406
    endloop
  endfacet
  facet normal 0 1 0
    outer loop
      vertex 47.9775 5 7.29178
      vertex 48.875 5 7.61843
      vertex 55 5 0
    endloop
  endfacet
  facet normal 0 1 0
    outer loop
      vertex 50.0842 5 10.9406
      vertex 55 5 20
      vertex 50.25 5 10
    endloop
  endfacet
  facet normal 0 1 0
    outer loop
      vertex 48.875 5 7.61843
      vertex 49.6066 5 8.23233
      vertex 55 5 0
    endloop
  endfacet
  facet normal 0 1 0
    outer loop
      vertex 49.6066 5 8.23233
      vertex 50.0842 5 9.05945
      vertex 55 5 0
    endloop
  endfacet
  facet normal 0 1 0
    outer loop
      vertex 48.875 5 12.3816
      vertex 55 5 20
      vertex 49.6066 5 11.7677
    endloop
  endfacet
  facet normal 0 1 0
    outer loop
      vertex 47.9775 5 12.7082
      vertex 55 5 20
      vertex 48.875 5 12.3816
    endloop
  endfacet
  facet normal 0 1 0
    outer loop
      vertex 46.125 5 12.3816
      vertex 55 5 20
      vertex 47.0225 5 12.7082
    endloop
  endfacet
  facet normal 0 1 0
    outer loop
      vertex 40 5 10
      vertex 55 5 20
      vertex 46.125 5 12.3816
    endloop
  endfacet
  facet normal 0 1 0
    outer loop
      vertex 40 5 10
      vertex 45.3934 5 11.7677
      vertex 44.9158 5 10.9406
    endloop
  endfacet
  facet normal 0 1 0
    outer loop
      vertex 40 5 10
      vertex 44.9158 5 10.9406
      vertex 44.75 5 10
    endloop
  endfacet
  facet normal 0 1 0
    outer loop
      vertex 40 5 10
      vertex 55 5 0
      vertex 40 5 0
    endloop
  endfacet
  facet normal 1 0 0
    outer loop
      vertex 40 5 10
      vertex 40 5 0
      vertex 40 40 0
    endloop
  endfacet
  facet normal 1 0 0
    outer loop
      vertex 40 40 10
      vertex 40 5 10
      vertex 40 40 0
    endloop
  endfacet
  facet normal 0 1 0
    outer loop
      vertex 5 40 0
      vertex 5 40 10
      vertex 40 40 0
    endloop
  endfacet
  facet normal 0 1 0
    outer loop
      vertex 40 40 0
      vertex 5 40 10
      vertex 40 40 10
    endloop
  endfacet
  facet normal 1 0 0
    outer loop
      vertex 5 5 20
      vertex 5 5 10
      vertex 5 40 10
    endloop
  endfacet
  facet normal 1 0 0
    outer loop
      vertex 5 55 20
      vertex 5 5 20
      vertex 5 40 10
    endloop
  endfacet
  facet normal 1 0 0
    outer loop
      vertex 5 40 0
      vertex 5 55 0
      vertex 5 40 10
    endloop
  endfacet
  facet normal 1 0 0
    outer loop
      vertex 5 45.7323 12.1066
      vertex 5 55 20
      vertex 5 40 10
    endloop
  endfacet
  facet normal 1 0 0
    outer loop
      vertex 5 45.1184 8.625
      vertex 5 44.7918 9.52247
      vertex 5 40 10
    endloop
  endfacet
  facet normal 1 0 0
    outer loop
      vertex 5 44.7918 9.52247
      vertex 5 44.7918 10.4775
      vertex 5 40 10
    endloop
  endfacet
  facet normal 1 0 0
    outer loop
      vertex 5 44.7918 10.4775
      vertex 5 45.1184 11.375
      vertex 5 40 10
    endloop
  endfacet
  facet normal 1 0 0
    outer loop
      vertex 5 45.1184 11.375
      vertex 5 45.7323 12.1066
      vertex 5 40 10
    endloop
  endfacet
  facet normal 1 0 0
    outer loop
      vertex 5 46.5594 12.5842
      vertex 5 47.5 12.75
      vertex 5 55 20
    endloop
  endfacet
  facet normal 1 0 0
    outer loop
      vertex 5 47.5 12.75
      vertex 5 48.4406 12.5842
      vertex 5 55 20
    endloop
  endfacet
  facet normal 1 0 0
    outer loop
      vertex 5 50.2082 10.4775
      vertex 5 50.2082 9.52247
      vertex 5 55 0
    endloop
  endfacet
  facet normal 1 0 0
    outer loop
      vertex 5 49.2677 12.1066
      vertex 5 55 20
      vertex 5 48.4406 12.5842
    endloop
  endfacet
  facet normal 1 0 0
    outer loop
      vertex 5 49.8816 11.375
      vertex 5 55 20
      vertex 5 49.2677 12.1066
    endloop
  endfacet
  facet normal 1 0 0
    outer loop
      vertex 5 55 0
      vertex 5 55 20
      vertex 5 49.8816 11.375
    endloop
  endfacet
  facet normal 1 0 0
    outer loop
      vertex 5 50.2082 9.52247
      vertex 5 49.8816 8.625
      vertex 5 55 0
    endloop
  endfacet
  facet normal 1 0 0
    outer loop
      vertex 5 55 0
      vertex 5 49.8816 11.375
      vertex 5 50.2082 10.4775
    endloop
  endfacet
  facet normal 1 0 0
    outer loop
      vertex 5 47.5 7.25
      vertex 5 46.5594 7.41585
      vertex 5 55 0
    endloop
  endfacet
  facet normal 1 0 0
    outer loop
      vertex 5 55 0
      vertex 5 49.8816 8.625
      vertex 5 49.2677 7.89338
    endloop
  endfacet
  facet normal 1 0 0
    outer loop
      vertex 5 55 0
      vertex 5 49.2677 7.89338
      vertex 5 48.4406 7.41585
    endloop
  endfacet
  facet normal 1 0 0
    outer loop
      vertex 5 55 0
      vertex 5 48.4406 7.41585
      vertex 5 47.5 7.25
    endloop
  endfacet
  facet normal 1 0 0
    outer loop
      vertex 5 55 0
      vertex 5 46.5594 7.41585
      vertex 5 40 10
    endloop
  endfacet
  facet normal 1 0 0
    outer loop
      vertex 5 46.5594 7.41585
      vertex 5 45.7323 7.89338
      vertex 5 40 10
    endloop
  endfacet
  facet normal 1 0 0
    outer loop
      vertex 5 45.7323 7.89338
      vertex 5 45.1184 8.625
      vertex 5 40 10
    endloop
  endfacet
  facet normal 1 0 0
    outer loop
      vertex 5 45.7323 12.1066
      vertex 5 46.5594 12.5842
      vertex 5 55 20
    endloop
  endfacet
  facet normal 0.994522 -0.104529 0
    outer loop
      vertex 17.8049 23.498 0
      vertex 17.8049 23.498 3
      vertex 17.7 22.5 3
    endloop
  endfacet
  facet normal 0.994522 -0.104529 0
    outer loop
      vertex 17.7 22.5 0
      vertex 17.8049 23.498 0
      vertex 17.7 22.5 3
    endloop
  endfacet
  facet normal 0.994522 0.104529 0
    outer loop
      vertex 17.7 22.5 3
      vertex 17.8049 21.502 3
      vertex 17.8049 21.502 0
    endloop
  endfacet
  facet normal 0.994522 0.104529 0
    outer loop
      vertex 17.7 22.5 0
      vertex 17.7 22.5 3
      vertex 17.8049 21.502 0
    endloop
  endfacet
  facet normal 0.951057 -0.309017 0
    outer loop
      vertex 18.115 24.4523 0
      vertex 18.115 24.4523 3
      vertex 17.8049 23.498 3
    endloop
  endfacet
  facet normal 0.951057 -0.309017 0
    outer loop
      vertex 17.8049 23.498 0
      vertex 18.115 24.4523 0
      vertex 17.8049 23.498 3
    endloop
  endfacet
  facet normal 0.866026 -0.5 0
    outer loop
      vertex 18.6167 25.3214 0
      vertex 18.6167 25.3214 3
      vertex 18.115 24.4523 3
    endloop
  endfacet
  facet normal 0.866026 -0.5 0
    outer loop
      vertex 18.115 24.4523 0
      vertex 18.6167 25.3214 0
      vertex 18.115 24.4523 3
    endloop
  endfacet
  facet normal 0.743145 -0.669131 0
    outer loop
      vertex 19.2882 26.0671 0
      vertex 19.2882 26.0671 3
      vertex 18.6167 25.3214 3
    endloop
  endfacet
  facet normal 0.743145 -0.669131 0
    outer loop
      vertex 18.6167 25.3214 0
      vertex 19.2882 26.0671 0
      vertex 18.6167 25.3214 3
    endloop
  endfacet
  facet normal 0.587785 -0.809017 0
    outer loop
      vertex 20.1 26.6569 0
      vertex 20.1 26.6569 3
      vertex 19.2882 26.0671 3
    endloop
  endfacet
  facet normal 0.587785 -0.809017 0
    outer loop
      vertex 19.2882 26.0671 0
      vertex 20.1 26.6569 0
      vertex 19.2882 26.0671 3
    endloop
  endfacet
  facet normal 0.406737 -0.913546 0
    outer loop
      vertex 21.0167 27.0651 0
      vertex 21.0167 27.0651 3
      vertex 20.1 26.6569 3
    endloop
  endfacet
  facet normal 0.406737 -0.913546 0
    outer loop
      vertex 20.1 26.6569 0
      vertex 21.0167 27.0651 0
      vertex 20.1 26.6569 3
    endloop
  endfacet
  facet normal 0.207912 -0.978148 0
    outer loop
      vertex 21.9983 27.2737 0
      vertex 21.9983 27.2737 3
      vertex 21.0167 27.0651 3
    endloop
  endfacet
  facet normal 0.207912 -0.978148 0
    outer loop
      vertex 21.0167 27.0651 0
      vertex 21.9983 27.2737 0
      vertex 21.0167 27.0651 3
    endloop
  endfacet
  facet normal 0 -1 0
    outer loop
      vertex 23.0017 27.2737 0
      vertex 23.0017 27.2737 3
      vertex 21.9983 27.2737 3
    endloop
  endfacet
  facet normal 0 -1 0
    outer loop
      vertex 21.9983 27.2737 0
      vertex 23.0017 27.2737 0
      vertex 21.9983 27.2737 3
    endloop
  endfacet
  facet normal -0.207912 -0.978148 0
    outer loop
      vertex 23.9833 27.0651 0
      vertex 23.9833 27.0651 3
      vertex 23.0017 27.2737 3
    endloop
  endfacet
  facet normal -0.207912 -0.978148 0
    outer loop
      vertex 23.0017 27.2737 0
      vertex 23.9833 27.0651 0
      vertex 23.0017 27.2737 3
    endloop
  endfacet
  facet normal -0.406737 -0.913546 0
    outer loop
      vertex 24.9 26.6569 0
      vertex 24.9 26.6569 3
      vertex 23.9833 27.0651 3
    endloop
  endfacet
  facet normal -0.406737 -0.913546 0
    outer loop
      vertex 23.9833 27.0651 0
      vertex 24.9 26.6569 0
      vertex 23.9833 27.0651 3
    endloop
  endfacet
  facet normal -0.587785 -0.809017 0
    outer loop
      vertex 25.7118 26.0671 0
      vertex 25.7118 26.0671 3
      vertex 24.9 26.6569 3
    endloop
  endfacet
  facet normal -0.587785 -0.809017 0
    outer loop
      vertex 24.9 26.6569 0
      vertex 25.7118 26.0671 0
      vertex 24.9 26.6569 3
    endloop
  endfacet
  facet normal -0.743145 -0.669131 0
    outer loop
      vertex 26.3833 25.3214 3
      vertex 25.7118 26.0671 3
      vertex 26.3833 25.3214 0
    endloop
  endfacet
  facet normal -0.743145 -0.669131 0
    outer loop
      vertex 26.3833 25.3214 0
      vertex 25.7118 26.0671 3
      vertex 25.7118 26.0671 0
    endloop
  endfacet
  facet normal -0.866026 -0.5 0
    outer loop
      vertex 26.885 24.4523 3
      vertex 26.3833 25.3214 3
      vertex 26.885 24.4523 0
    endloop
  endfacet
  facet normal -0.866026 -0.5 0
    outer loop
      vertex 26.885 24.4523 0
      vertex 26.3833 25.3214 3
      vertex 26.3833 25.3214 0
    endloop
  endfacet
  facet normal -0.951057 -0.309017 0
    outer loop
      vertex 27.1951 23.498 3
      vertex 26.885 24.4523 3
      vertex 27.1951 23.498 0
    endloop
  endfacet
  facet normal -0.951057 -0.309017 0
    outer loop
      vertex 27.1951 23.498 0
      vertex 26.885 24.4523 3
      vertex 26.885 24.4523 0
    endloop
  endfacet
  facet normal -0.994522 -0.104529 0
    outer loop
      vertex 27.3 22.5 3
      vertex 27.1951 23.498 3
      vertex 27.3 22.5 0
    endloop
  endfacet
  facet normal -0.994522 -0.104529 0
    outer loop
      vertex 27.3 22.5 0
      vertex 27.1951 23.498 3
      vertex 27.1951 23.498 0
    endloop
  endfacet
  facet normal -0.994522 0.104529 0
    outer loop
      vertex 27.3 22.5 3
      vertex 27.3 22.5 0
      vertex 27.1951 21.502 3
    endloop
  endfacet
  facet normal -0.994522 0.104529 0
    outer loop
      vertex 27.1951 21.502 3
      vertex 27.3 22.5 0
      vertex 27.1951 21.502 0
    endloop
  endfacet
  facet normal -0.951057 0.309017 0
    outer loop
      vertex 27.1951 21.502 3
      vertex 27.1951 21.502 0
      vertex 26.885 20.5477 3
    endloop
  endfacet
  facet normal -0.951057 0.309017 0
    outer loop
      vertex 26.885 20.5477 3
      vertex 27.1951 21.502 0
      vertex 26.885 20.5477 0
    endloop
  endfacet
  facet normal -0.866026 0.5 0
    outer loop
      vertex 26.885 20.5477 3
      vertex 26.885 20.5477 0
      vertex 26.3833 19.6786 3
    endloop
  endfacet
  facet normal -0.866026 0.5 0
    outer loop
      vertex 26.3833 19.6786 3
      vertex 26.885 20.5477 0
      vertex 26.3833 19.6786 0
    endloop
  endfacet
  facet normal -0.743145 0.669131 0
    outer loop
      vertex 26.3833 19.6786 3
      vertex 26.3833 19.6786 0
      vertex 25.7118 18.9329 3
    endloop
  endfacet
  facet normal -0.743145 0.669131 0
    outer loop
      vertex 25.7118 18.9329 3
      vertex 26.3833 19.6786 0
      vertex 25.7118 18.9329 0
    endloop
  endfacet
  facet normal -0.587785 0.809017 0
    outer loop
      vertex 25.7118 18.9329 3
      vertex 25.7118 18.9329 0
      vertex 24.9 18.3431 3
    endloop
  endfacet
  facet normal -0.587785 0.809017 0
    outer loop
      vertex 24.9 18.3431 3
      vertex 25.7118 18.9329 0
      vertex 24.9 18.3431 0
    endloop
  endfacet
  facet normal -0.406737 0.913546 0
    outer loop
      vertex 24.9 18.3431 3
      vertex 24.9 18.3431 0
      vertex 23.9833 17.9349 3
    endloop
  endfacet
  facet normal -0.406737 0.913546 0
    outer loop
      vertex 23.9833 17.9349 3
      vertex 24.9 18.3431 0
      vertex 23.9833 17.9349 0
    endloop
  endfacet
  facet normal -0.207912 0.978148 0
    outer loop
      vertex 23.9833 17.9349 3
      vertex 23.9833 17.9349 0
      vertex 23.0017 17.7263 3
    endloop
  endfacet
  facet normal -0.207912 0.978148 0
    outer loop
      vertex 23.0017 17.7263 3
      vertex 23.9833 17.9349 0
      vertex 23.0017 17.7263 0
    endloop
  endfacet
  facet normal 0 1 0
    outer loop
      vertex 23.0017 17.7263 3
      vertex 23.0017 17.7263 0
      vertex 21.9983 17.7263 3
    endloop
  endfacet
  facet normal 0 1 0
    outer loop
      vertex 21.9983 17.7263 3
      vertex 23.0017 17.7263 0
      vertex 21.9983 17.7263 0
    endloop
  endfacet
  facet normal 0.207912 0.978148 0
    outer loop
      vertex 21.9983 17.7263 3
      vertex 21.9983 17.7263 0
      vertex 21.0167 17.9349 3
    endloop
  endfacet
  facet normal 0.207912 0.978148 0
    outer loop
      vertex 21.0167 17.9349 3
      vertex 21.9983 17.7263 0
      vertex 21.0167 17.9349 0
    endloop
  endfacet
  facet normal 0.406737 0.913546 0
    outer loop
      vertex 21.0167 17.9349 3
      vertex 21.0167 17.9349 0
      vertex 20.1 18.3431 3
    endloop
  endfacet
  facet normal 0.406737 0.913546 0
    outer loop
      vertex 20.1 18.3431 3
      vertex 21.0167 17.9349 0
      vertex 20.1 18.3431 0
    endloop
  endfacet
  facet normal 0.587785 0.809017 0
    outer loop
      vertex 20.1 18.3431 3
      vertex 20.1 18.3431 0
      vertex 19.2882 18.9329 3
    endloop
  endfacet
  facet normal 0.587785 0.809017 0
    outer loop
      vertex 19.2882 18.9329 3
      vertex 20.1 18.3431 0
      vertex 19.2882 18.9329 0
    endloop
  endfacet
  facet normal 0.743145 0.669131 0
    outer loop
      vertex 18.6167 19.6786 3
      vertex 19.2882 18.9329 3
      vertex 19.2882 18.9329 0
    endloop
  endfacet
  facet normal 0.743145 0.669131 0
    outer loop
      vertex 18.6167 19.6786 0
      vertex 18.6167 19.6786 3
      vertex 19.2882 18.9329 0
    endloop
  endfacet
  facet normal 0.866026 0.5 0
    outer loop
      vertex 18.115 20.5477 3
      vertex 18.6167 19.6786 3
      vertex 18.6167 19.6786 0
    endloop
  endfacet
  facet normal 0.866026 0.5 0
    outer loop
      vertex 18.115 20.5477 0
      vertex 18.115 20.5477 3
      vertex 18.6167 19.6786 0
    endloop
  endfacet
  facet normal 0.951057 0.309017 0
    outer loop
      vertex 17.8049 21.502 3
      vertex 18.115 20.5477 3
      vertex 18.115 20.5477 0
    endloop
  endfacet
  facet normal 0.951057 0.309017 0
    outer loop
      vertex 17.8049 21.502 0
      vertex 17.8049 21.502 3
      vertex 18.115 20.5477 0
    endloop
  endfacet
  facet normal 0 0 1
    outer loop
      vertex 25.961 11.8482 10
      vertex 5 5 10
      vertex 40 5 10
    endloop
  endfacet
  facet normal 0 0 1
    outer loop
      vertex 5 40 10
      vertex 5 5 10
      vertex 11.5447 20.1714 10
    endloop
  endfacet
  facet normal 0 0 1
    outer loop
      vertex 5 40 10
      vertex 11.5447 20.1714 10
      vertex 11.3 22.5 10
    endloop
  endfacet
  facet normal 0 0 1
    outer loop
      vertex 5 40 10
      vertex 11.3 22.5 10
      vertex 11.5447 24.8286 10
    endloop
  endfacet
  facet normal 0 0 1
    outer loop
      vertex 28.1 12.8005 10
      vertex 25.961 11.8482 10
      vertex 40 5 10
    endloop
  endfacet
  facet normal 0 0 1
    outer loop
      vertex 5 40 10
      vertex 11.5447 24.8286 10
      vertex 12.2683 27.0554 10
    endloop
  endfacet
  facet normal 0 0 1
    outer loop
      vertex 5 40 10
      vertex 12.2683 27.0554 10
      vertex 13.439 29.0832 10
    endloop
  endfacet
  facet normal 0 0 1
    outer loop
      vertex 16.9 32.1995 10
      vertex 5 40 10
      vertex 15.0057 30.8232 10
    endloop
  endfacet
  facet normal 0 0 1
    outer loop
      vertex 19.039 33.1518 10
      vertex 5 40 10
      vertex 16.9 32.1995 10
    endloop
  endfacet
  facet normal 0 0 1
    outer loop
      vertex 21.3293 33.6386 10
      vertex 23.6707 33.6386 10
      vertex 40 40 10
    endloop
  endfacet
  facet normal 0 0 1
    outer loop
      vertex 40 40 10
      vertex 5 40 10
      vertex 19.039 33.1518 10
    endloop
  endfacet
  facet normal 0 0 1
    outer loop
      vertex 33.4553 24.8286 10
      vertex 33.7 22.5 10
      vertex 40 5 10
    endloop
  endfacet
  facet normal 0 0 1
    outer loop
      vertex 31.561 15.9168 10
      vertex 29.9943 14.1768 10
      vertex 40 5 10
    endloop
  endfacet
  facet normal 0 0 1
    outer loop
      vertex 32.7317 17.9445 10
      vertex 31.561 15.9168 10
      vertex 40 5 10
    endloop
  endfacet
  facet normal 0 0 1
    outer loop
      vertex 40 40 10
      vertex 23.6707 33.6386 10
      vertex 25.961 33.1518 10
    endloop
  endfacet
  facet normal 0 0 1
    outer loop
      vertex 40 40 10
      vertex 25.961 33.1518 10
      vertex 28.1 32.1995 10
    endloop
  endfacet
  facet normal 0 0 1
    outer loop
      vertex 40 40 10
      vertex 28.1 32.1995 10
      vertex 29.9943 30.8232 10
    endloop
  endfacet
  facet normal 0 0 1
    outer loop
      vertex 33.7 22.5 10
      vertex 33.4553 20.1714 10
      vertex 40 5 10
    endloop
  endfacet
  facet normal 0 0 1
    outer loop
      vertex 40 40 10
      vertex 29.9943 30.8232 10
      vertex 31.561 29.0832 10
    endloop
  endfacet
  facet normal 0 0 1
    outer loop
      vertex 40 40 10
      vertex 32.7317 27.0554 10
      vertex 40 5 10
    endloop
  endfacet
  facet normal 0 0 1
    outer loop
      vertex 40 40 10
      vertex 31.561 29.0832 10
      vertex 32.7317 27.0554 10
    endloop
  endfacet
  facet normal 0 0 1
    outer loop
      vertex 32.7317 27.0554 10
      vertex 33.4553 24.8286 10
      vertex 40 5 10
    endloop
  endfacet
  facet normal 0 0 1
    outer loop
      vertex 19.039 33.1518 10
      vertex 21.3293 33.6386 10
      vertex 40 40 10
    endloop
  endfacet
  facet normal 0 0 1
    outer loop
      vertex 33.4553 20.1714 10
      vertex 32.7317 17.9445 10
      vertex 40 5 10
    endloop
  endfacet
  facet normal 0 0 1
    outer loop
      vertex 23.6707 11.3614 10
      vertex 5 5 10
      vertex 25.961 11.8482 10
    endloop
  endfacet
  facet normal 0 0 1
    outer loop
      vertex 21.3293 11.3614 10
      vertex 5 5 10
      vertex 23.6707 11.3614 10
    endloop
  endfacet
  facet normal 0 0 1
    outer loop
      vertex 19.039 11.8482 10
      vertex 5 5 10
      vertex 21.3293 11.3614 10
    endloop
  endfacet
  facet normal 0 0 1
    outer loop
      vertex 16.9 12.8005 10
      vertex 5 5 10
      vertex 19.039 11.8482 10
    endloop
  endfacet
  facet normal 0 0 1
    outer loop
      vertex 15.0057 14.1768 10
      vertex 5 5 10
      vertex 16.9 12.8005 10
    endloop
  endfacet
  facet normal 0 0 1
    outer loop
      vertex 13.439 15.9168 10
      vertex 5 5 10
      vertex 15.0057 14.1768 10
    endloop
  endfacet
  facet normal 0 0 1
    outer loop
      vertex 12.2683 17.9445 10
      vertex 5 5 10
      vertex 13.439 15.9168 10
    endloop
  endfacet
  facet normal 0 0 1
    outer loop
      vertex 11.5447 20.1714 10
      vertex 5 5 10
      vertex 12.2683 17.9445 10
    endloop
  endfacet
  facet normal 0 0 1
    outer loop
      vertex 13.439 29.0832 10
      vertex 15.0057 30.8232 10
      vertex 5 40 10
    endloop
  endfacet
  facet normal 0 0 1
    outer loop
      vertex 29.9943 14.1768 10
      vertex 28.1 12.8005 10
      vertex 40 5 10
    endloop
  endfacet
  facet normal 0 0 1
    outer loop
      vertex 11.5447 20.1714 3
      vertex 12.2683 17.9445 3
      vertex 13.439 15.9168 3
    endloop
  endfacet
  facet normal 0 0 1
    outer loop
      vertex 16.9 12.8005 3
      vertex 11.5447 20.1714 3
      vertex 15.0057 14.1768 3
    endloop
  endfacet
  facet normal 0 0 1
    outer loop
      vertex 15.0057 14.1768 3
      vertex 11.5447 20.1714 3
      vertex 13.439 15.9168 3
    endloop
  endfacet
  facet normal 0 0 1
    outer loop
      vertex 19.039 11.8482 3
      vertex 11.5447 20.1714 3
      vertex 16.9 12.8005 3
    endloop
  endfacet
  facet normal 0 0 1
    outer loop
      vertex 21.3293 11.3614 3
      vertex 11.5447 20.1714 3
      vertex 19.039 11.8482 3
    endloop
  endfacet
  facet normal 0 0 1
    outer loop
      vertex 23.6707 11.3614 3
      vertex 11.5447 20.1714 3
      vertex 21.3293 11.3614 3
    endloop
  endfacet
  facet normal 0 0 1
    outer loop
      vertex 25.961 11.8482 3
      vertex 11.5447 20.1714 3
      vertex 23.6707 11.3614 3
    endloop
  endfacet
  facet normal 0 0 1
    outer loop
      vertex 28.1 12.8005 3
      vertex 11.5447 20.1714 3
      vertex 25.961 11.8482 3
    endloop
  endfacet
  facet normal 0 0 1
    outer loop
      vertex 29.9943 14.1768 3
      vertex 11.5447 20.1714 3
      vertex 28.1 12.8005 3
    endloop
  endfacet
  facet normal 0 0 1
    outer loop
      vertex 21.0167 17.9349 3
      vertex 11.5447 20.1714 3
      vertex 29.9943 14.1768 3
    endloop
  endfacet
  facet normal 0 0 1
    outer loop
      vertex 21.0167 17.9349 3
      vertex 20.1 18.3431 3
      vertex 11.5447 20.1714 3
    endloop
  endfacet
  facet normal 0 0 1
    outer loop
      vertex 23.9833 17.9349 3
      vertex 23.0017 17.7263 3
      vertex 31.561 15.9168 3
    endloop
  endfacet
  facet normal 0 0 1
    outer loop
      vertex 25.7118 18.9329 3
      vertex 24.9 18.3431 3
      vertex 32.7317 17.9445 3
    endloop
  endfacet
  facet normal 0 0 1
    outer loop
      vertex 26.885 20.5477 3
      vertex 26.3833 19.6786 3
      vertex 33.4553 20.1714 3
    endloop
  endfacet
  facet normal 0 0 1
    outer loop
      vertex 27.3 22.5 3
      vertex 27.1951 21.502 3
      vertex 33.7 22.5 3
    endloop
  endfacet
  facet normal 0 0 1
    outer loop
      vertex 26.3833 25.3214 3
      vertex 26.885 24.4523 3
      vertex 32.7317 27.0554 3
    endloop
  endfacet
  facet normal 0 0 1
    outer loop
      vertex 23.6707 33.6386 3
      vertex 11.5447 20.1714 3
      vertex 25.961 33.1518 3
    endloop
  endfacet
  facet normal 0 0 1
    outer loop
      vertex 21.3293 33.6386 3
      vertex 11.5447 20.1714 3
      vertex 23.6707 33.6386 3
    endloop
  endfacet
  facet normal 0 0 1
    outer loop
      vertex 19.039 33.1518 3
      vertex 11.5447 20.1714 3
      vertex 21.3293 33.6386 3
    endloop
  endfacet
  facet normal 0 0 1
    outer loop
      vertex 16.9 32.1995 3
      vertex 11.5447 20.1714 3
      vertex 19.039 33.1518 3
    endloop
  endfacet
  facet normal 0 0 1
    outer loop
      vertex 15.0057 30.8232 3
      vertex 11.5447 20.1714 3
      vertex 16.9 32.1995 3
    endloop
  endfacet
  facet normal 0 0 1
    outer loop
      vertex 13.439 29.0832 3
      vertex 11.5447 20.1714 3
      vertex 15.0057 30.8232 3
    endloop
  endfacet
  facet normal 0 0 1
    outer loop
      vertex 12.2683 27.0554 3
      vertex 11.5447 20.1714 3
      vertex 13.439 29.0832 3
    endloop
  endfacet
  facet normal 0 0 1
    outer loop
      vertex 11.5447 24.8286 3
      vertex 11.5447 20.1714 3
      vertex 12.2683 27.0554 3
    endloop
  endfacet
  facet normal 0 0 1
    outer loop
      vertex 11.3 22.5 3
      vertex 11.5447 20.1714 3
      vertex 11.5447 24.8286 3
    endloop
  endfacet
  facet normal 0 0 1
    outer loop
      vertex 17.8049 23.498 3
      vertex 18.115 24.4523 3
      vertex 11.5447 20.1714 3
    endloop
  endfacet
  facet normal 0 0 1
    outer loop
      vertex 26.885 24.4523 3
      vertex 27.1951 23.498 3
      vertex 33.4553 24.8286 3
    endloop
  endfacet
  facet normal 0 0 1
    outer loop
      vertex 18.115 24.4523 3
      vertex 18.6167 25.3214 3
      vertex 11.5447 20.1714 3
    endloop
  endfacet
  facet normal 0 0 1
    outer loop
      vertex 24.9 26.6569 3
      vertex 25.7118 26.0671 3
      vertex 31.561 29.0832 3
    endloop
  endfacet
  facet normal 0 0 1
    outer loop
      vertex 19.2882 26.0671 3
      vertex 20.1 26.6569 3
      vertex 25.961 33.1518 3
    endloop
  endfacet
  facet normal 0 0 1
    outer loop
      vertex 23.0017 27.2737 3
      vertex 23.9833 27.0651 3
      vertex 29.9943 30.8232 3
    endloop
  endfacet
  facet normal 0 0 1
    outer loop
      vertex 19.2882 26.0671 3
      vertex 11.5447 20.1714 3
      vertex 18.6167 25.3214 3
    endloop
  endfacet
  facet normal 0 0 1
    outer loop
      vertex 25.961 33.1518 3
      vertex 11.5447 20.1714 3
      vertex 19.2882 26.0671 3
    endloop
  endfacet
  facet normal 0 0 1
    outer loop
      vertex 25.961 33.1518 3
      vertex 20.1 26.6569 3
      vertex 28.1 32.1995 3
    endloop
  endfacet
  facet normal 0 0 1
    outer loop
      vertex 20.1 26.6569 3
      vertex 21.0167 27.0651 3
      vertex 28.1 32.1995 3
    endloop
  endfacet
  facet normal 0 0 1
    outer loop
      vertex 28.1 32.1995 3
      vertex 21.9983 27.2737 3
      vertex 29.9943 30.8232 3
    endloop
  endfacet
  facet normal 0 0 1
    outer loop
      vertex 21.9983 27.2737 3
      vertex 23.0017 27.2737 3
      vertex 29.9943 30.8232 3
    endloop
  endfacet
  facet normal 0 0 1
    outer loop
      vertex 29.9943 30.8232 3
      vertex 23.9833 27.0651 3
      vertex 31.561 29.0832 3
    endloop
  endfacet
  facet normal 0 0 1
    outer loop
      vertex 23.9833 27.0651 3
      vertex 24.9 26.6569 3
      vertex 31.561 29.0832 3
    endloop
  endfacet
  facet normal 0 0 1
    outer loop
      vertex 31.561 29.0832 3
      vertex 25.7118 26.0671 3
      vertex 32.7317 27.0554 3
    endloop
  endfacet
  facet normal 0 0 1
    outer loop
      vertex 25.7118 26.0671 3
      vertex 26.3833 25.3214 3
      vertex 32.7317 27.0554 3
    endloop
  endfacet
  facet normal 0 0 1
    outer loop
      vertex 32.7317 27.0554 3
      vertex 26.885 24.4523 3
      vertex 33.4553 24.8286 3
    endloop
  endfacet
  facet normal 0 0 1
    outer loop
      vertex 17.7 22.5 3
      vertex 17.8049 23.498 3
      vertex 11.5447 20.1714 3
    endloop
  endfacet
  facet normal 0 0 1
    outer loop
      vertex 33.4553 24.8286 3
      vertex 27.1951 23.498 3
      vertex 33.7 22.5 3
    endloop
  endfacet
  facet normal 0 0 1
    outer loop
      vertex 27.1951 23.498 3
      vertex 27.3 22.5 3
      vertex 33.7 22.5 3
    endloop
  endfacet
  facet normal 0 0 1
    outer loop
      vertex 33.7 22.5 3
      vertex 27.1951 21.502 3
      vertex 33.4553 20.1714 3
    endloop
  endfacet
  facet normal 0 0 1
    outer loop
      vertex 27.1951 21.502 3
      vertex 26.885 20.5477 3
      vertex 33.4553 20.1714 3
    endloop
  endfacet
  facet normal 0 0 1
    outer loop
      vertex 33.4553 20.1714 3
      vertex 26.3833 19.6786 3
      vertex 32.7317 17.9445 3
    endloop
  endfacet
  facet normal 0 0 1
    outer loop
      vertex 26.3833 19.6786 3
      vertex 25.7118 18.9329 3
      vertex 32.7317 17.9445 3
    endloop
  endfacet
  facet normal 0 0 1
    outer loop
      vertex 32.7317 17.9445 3
      vertex 24.9 18.3431 3
      vertex 31.561 15.9168 3
    endloop
  endfacet
  facet normal 0 0 1
    outer loop
      vertex 24.9 18.3431 3
      vertex 23.9833 17.9349 3
      vertex 31.561 15.9168 3
    endloop
  endfacet
  facet normal 0 0 1
    outer loop
      vertex 31.561 15.9168 3
      vertex 23.0017 17.7263 3
      vertex 29.9943 14.1768 3
    endloop
  endfacet
  facet normal 0 0 1
    outer loop
      vertex 23.0017 17.7263 3
      vertex 21.9983 17.7263 3
      vertex 29.9943 14.1768 3
    endloop
  endfacet
  facet normal 0 0 1
    outer loop
      vertex 21.9983 17.7263 3
      vertex 21.0167 17.9349 3
      vertex 29.9943 14.1768 3
    endloop
  endfacet
  facet normal 0 0 1
    outer loop
      vertex 19.2882 18.9329 3
      vertex 18.6167 19.6786 3
      vertex 11.5447 20.1714 3
    endloop
  endfacet
  facet normal 0 0 1
    outer loop
      vertex 18.6167 19.6786 3
      vertex 18.115 20.5477 3
      vertex 11.5447 20.1714 3
    endloop
  endfacet
  facet normal 0 0 1
    outer loop
      vertex 20.1 18.3431 3
      vertex 19.2882 18.9329 3
      vertex 11.5447 20.1714 3
    endloop
  endfacet
  facet normal 0 0 1
    outer loop
      vertex 21.0167 27.0651 3
      vertex 21.9983 27.2737 3
      vertex 28.1 32.1995 3
    endloop
  endfacet
  facet normal 0 0 1
    outer loop
      vertex 17.8049 21.502 3
      vertex 17.7 22.5 3
      vertex 11.5447 20.1714 3
    endloop
  endfacet
  facet normal 0 0 1
    outer loop
      vertex 18.115 20.5477 3
      vertex 17.8049 21.502 3
      vertex 11.5447 20.1714 3
    endloop
  endfacet
  facet normal 0.994522 0.104529 0
    outer loop
      vertex 11.3 22.5 10
      vertex 11.5447 20.1714 10
      vertex 11.5447 20.1714 3
    endloop
  endfacet
  facet normal 0.994522 0.104529 0
    outer loop
      vertex 11.3 22.5 3
      vertex 11.3 22.5 10
      vertex 11.5447 20.1714 3
    endloop
  endfacet
  facet normal 0.951056 0.309017 0
    outer loop
      vertex 11.5447 20.1714 10
      vertex 12.2683 17.9445 10
      vertex 12.2683 17.9445 3
    endloop
  endfacet
  facet normal 0.951056 0.309017 0
    outer loop
      vertex 11.5447 20.1714 3
      vertex 11.5447 20.1714 10
      vertex 12.2683 17.9445 3
    endloop
  endfacet
  facet normal 0.866025 0.5 0
    outer loop
      vertex 12.2683 17.9445 10
      vertex 13.439 15.9168 10
      vertex 13.439 15.9168 3
    endloop
  endfacet
  facet normal 0.866025 0.5 0
    outer loop
      vertex 12.2683 17.9445 3
      vertex 12.2683 17.9445 10
      vertex 13.439 15.9168 3
    endloop
  endfacet
  facet normal 0.743145 0.669131 0
    outer loop
      vertex 13.439 15.9168 10
      vertex 15.0057 14.1768 10
      vertex 15.0057 14.1768 3
    endloop
  endfacet
  facet normal 0.743145 0.669131 0
    outer loop
      vertex 13.439 15.9168 3
      vertex 13.439 15.9168 10
      vertex 15.0057 14.1768 3
    endloop
  endfacet
  facet normal 0.587785 0.809017 0
    outer loop
      vertex 16.9 12.8005 10
      vertex 16.9 12.8005 3
      vertex 15.0057 14.1768 10
    endloop
  endfacet
  facet normal 0.587785 0.809017 0
    outer loop
      vertex 15.0057 14.1768 10
      vertex 16.9 12.8005 3
      vertex 15.0057 14.1768 3
    endloop
  endfacet
  facet normal 0.406736 0.913546 0
    outer loop
      vertex 19.039 11.8482 10
      vertex 19.039 11.8482 3
      vertex 16.9 12.8005 10
    endloop
  endfacet
  facet normal 0.406736 0.913546 0
    outer loop
      vertex 16.9 12.8005 10
      vertex 19.039 11.8482 3
      vertex 16.9 12.8005 3
    endloop
  endfacet
  facet normal 0.207912 0.978148 0
    outer loop
      vertex 21.3293 11.3614 10
      vertex 21.3293 11.3614 3
      vertex 19.039 11.8482 10
    endloop
  endfacet
  facet normal 0.207912 0.978148 0
    outer loop
      vertex 19.039 11.8482 10
      vertex 21.3293 11.3614 3
      vertex 19.039 11.8482 3
    endloop
  endfacet
  facet normal 0 1 0
    outer loop
      vertex 23.6707 11.3614 10
      vertex 23.6707 11.3614 3
      vertex 21.3293 11.3614 10
    endloop
  endfacet
  facet normal 0 1 0
    outer loop
      vertex 21.3293 11.3614 10
      vertex 23.6707 11.3614 3
      vertex 21.3293 11.3614 3
    endloop
  endfacet
  facet normal -0.207912 0.978148 0
    outer loop
      vertex 25.961 11.8482 10
      vertex 25.961 11.8482 3
      vertex 23.6707 11.3614 10
    endloop
  endfacet
  facet normal -0.207912 0.978148 0
    outer loop
      vertex 23.6707 11.3614 10
      vertex 25.961 11.8482 3
      vertex 23.6707 11.3614 3
    endloop
  endfacet
  facet normal -0.406736 0.913546 0
    outer loop
      vertex 28.1 12.8005 10
      vertex 28.1 12.8005 3
      vertex 25.961 11.8482 10
    endloop
  endfacet
  facet normal -0.406736 0.913546 0
    outer loop
      vertex 25.961 11.8482 10
      vertex 28.1 12.8005 3
      vertex 25.961 11.8482 3
    endloop
  endfacet
  facet normal -0.587785 0.809017 0
    outer loop
      vertex 29.9943 14.1768 10
      vertex 29.9943 14.1768 3
      vertex 28.1 12.8005 10
    endloop
  endfacet
  facet normal -0.587785 0.809017 0
    outer loop
      vertex 28.1 12.8005 10
      vertex 29.9943 14.1768 3
      vertex 28.1 12.8005 3
    endloop
  endfacet
  facet normal -0.743145 0.669131 0
    outer loop
      vertex 31.561 15.9168 10
      vertex 31.561 15.9168 3
      vertex 29.9943 14.1768 10
    endloop
  endfacet
  facet normal -0.743145 0.669131 0
    outer loop
      vertex 29.9943 14.1768 10
      vertex 31.561 15.9168 3
      vertex 29.9943 14.1768 3
    endloop
  endfacet
  facet normal -0.866025 0.5 0
    outer loop
      vertex 32.7317 17.9445 10
      vertex 32.7317 17.9445 3
      vertex 31.561 15.9168 10
    endloop
  endfacet
  facet normal -0.866025 0.5 0
    outer loop
      vertex 31.561 15.9168 10
      vertex 32.7317 17.9445 3
      vertex 31.561 15.9168 3
    endloop
  endfacet
  facet normal -0.951056 0.309017 0
    outer loop
      vertex 33.4553 20.1714 10
      vertex 33.4553 20.1714 3
      vertex 32.7317 17.9445 10
    endloop
  endfacet
  facet normal -0.951056 0.309017 0
    outer loop
      vertex 32.7317 17.9445 10
      vertex 33.4553 20.1714 3
      vertex 32.7317 17.9445 3
    endloop
  endfacet
  facet normal -0.994522 0.104529 0
    outer loop
      vertex 33.7 22.5 10
      vertex 33.7 22.5 3
      vertex 33.4553 20.1714 10
    endloop
  endfacet
  facet normal -0.994522 0.104529 0
    outer loop
      vertex 33.4553 20.1714 10
      vertex 33.7 22.5 3
      vertex 33.4553 20.1714 3
    endloop
  endfacet
  facet normal -0.994522 -0.104529 0
    outer loop
      vertex 33.7 22.5 10
      vertex 33.4553 24.8286 10
      vertex 33.7 22.5 3
    endloop
  endfacet
  facet normal -0.994522 -0.104529 0
    outer loop
      vertex 33.7 22.5 3
      vertex 33.4553 24.8286 10
      vertex 33.4553 24.8286 3
    endloop
  endfacet
  facet normal -0.951056 -0.309017 0
    outer loop
      vertex 33.4553 24.8286 10
      vertex 32.7317 27.0554 10
      vertex 33.4553 24.8286 3
    endloop
  endfacet
  facet normal -0.951056 -0.309017 0
    outer loop
      vertex 33.4553 24.8286 3
      vertex 32.7317 27.0554 10
      vertex 32.7317 27.0554 3
    endloop
  endfacet
  facet normal -0.866025 -0.5 0
    outer loop
      vertex 32.7317 27.0554 10
      vertex 31.561 29.0832 10
      vertex 32.7317 27.0554 3
    endloop
  endfacet
  facet normal -0.866025 -0.5 0
    outer loop
      vertex 32.7317 27.0554 3
      vertex 31.561 29.0832 10
      vertex 31.561 29.0832 3
    endloop
  endfacet
  facet normal -0.743145 -0.669131 0
    outer loop
      vertex 31.561 29.0832 10
      vertex 29.9943 30.8232 10
      vertex 31.561 29.0832 3
    endloop
  endfacet
  facet normal -0.743145 -0.669131 0
    outer loop
      vertex 31.561 29.0832 3
      vertex 29.9943 30.8232 10
      vertex 29.9943 30.8232 3
    endloop
  endfacet
  facet normal -0.587785 -0.809017 0
    outer loop
      vertex 29.9943 30.8232 3
      vertex 29.9943 30.8232 10
      vertex 28.1 32.1995 10
    endloop
  endfacet
  facet normal -0.587785 -0.809017 0
    outer loop
      vertex 28.1 32.1995 3
      vertex 29.9943 30.8232 3
      vertex 28.1 32.1995 10
    endloop
  endfacet
  facet normal -0.406736 -0.913546 0
    outer loop
      vertex 28.1 32.1995 3
      vertex 28.1 32.1995 10
      vertex 25.961 33.1518 10
    endloop
  endfacet
  facet normal -0.406736 -0.913546 0
    outer loop
      vertex 25.961 33.1518 3
      vertex 28.1 32.1995 3
      vertex 25.961 33.1518 10
    endloop
  endfacet
  facet normal -0.207912 -0.978148 0
    outer loop
      vertex 25.961 33.1518 3
      vertex 25.961 33.1518 10
      vertex 23.6707 33.6386 10
    endloop
  endfacet
  facet normal -0.207912 -0.978148 0
    outer loop
      vertex 23.6707 33.6386 3
      vertex 25.961 33.1518 3
      vertex 23.6707 33.6386 10
    endloop
  endfacet
  facet normal 0 -1 0
    outer loop
      vertex 23.6707 33.6386 3
      vertex 23.6707 33.6386 10
      vertex 21.3293 33.6386 10
    endloop
  endfacet
  facet normal 0 -1 0
    outer loop
      vertex 21.3293 33.6386 3
      vertex 23.6707 33.6386 3
      vertex 21.3293 33.6386 10
    endloop
  endfacet
  facet normal 0.207912 -0.978148 0
    outer loop
      vertex 21.3293 33.6386 3
      vertex 21.3293 33.6386 10
      vertex 19.039 33.1518 10
    endloop
  endfacet
  facet normal 0.207912 -0.978148 0
    outer loop
      vertex 19.039 33.1518 3
      vertex 21.3293 33.6386 3
      vertex 19.039 33.1518 10
    endloop
  endfacet
  facet normal 0.406736 -0.913546 0
    outer loop
      vertex 19.039 33.1518 3
      vertex 19.039 33.1518 10
      vertex 16.9 32.1995 10
    endloop
  endfacet
  facet normal 0.406736 -0.913546 0
    outer loop
      vertex 16.9 32.1995 3
      vertex 19.039 33.1518 3
      vertex 16.9 32.1995 10
    endloop
  endfacet
  facet normal 0.587785 -0.809017 0
    outer loop
      vertex 16.9 32.1995 3
      vertex 16.9 32.1995 10
      vertex 15.0057 30.8232 10
    endloop
  endfacet
  facet normal 0.587785 -0.809017 0
    outer loop
      vertex 15.0057 30.8232 3
      vertex 16.9 32.1995 3
      vertex 15.0057 30.8232 10
    endloop
  endfacet
  facet normal 0.743145 -0.669131 0
    outer loop
      vertex 15.0057 30.8232 3
      vertex 15.0057 30.8232 10
      vertex 13.439 29.0832 10
    endloop
  endfacet
  facet normal 0.743145 -0.669131 0
    outer loop
      vertex 13.439 29.0832 3
      vertex 15.0057 30.8232 3
      vertex 13.439 29.0832 10
    endloop
  endfacet
  facet normal 0.866025 -0.5 0
    outer loop
      vertex 13.439 29.0832 3
      vertex 13.439 29.0832 10
      vertex 12.2683 27.0554 10
    endloop
  endfacet
  facet normal 0.866025 -0.5 0
    outer loop
      vertex 12.2683 27.0554 3
      vertex 13.439 29.0832 3
      vertex 12.2683 27.0554 10
    endloop
  endfacet
  facet normal 0.951056 -0.309017 0
    outer loop
      vertex 12.2683 27.0554 3
      vertex 12.2683 27.0554 10
      vertex 11.5447 24.8286 10
    endloop
  endfacet
  facet normal 0.951056 -0.309017 0
    outer loop
      vertex 11.5447 24.8286 3
      vertex 12.2683 27.0554 3
      vertex 11.5447 24.8286 10
    endloop
  endfacet
  facet normal 0.994522 -0.104529 0
    outer loop
      vertex 11.5447 24.8286 3
      vertex 11.5447 24.8286 10
      vertex 11.3 22.5 10
    endloop
  endfacet
  facet normal 0.994522 -0.104529 0
    outer loop
      vertex 11.3 22.5 3
      vertex 11.5447 24.8286 3
      vertex 11.3 22.5 10
    endloop
  endfacet
endsolid OpenSCAD_Model
