solid OpenSCAD_Model
  facet normal -1 0 0
    outer loop
      vertex 0 20 0
      vertex 0 20 8
      vertex 0 67 0
    endloop
  endfacet
  facet normal -1 0 0
    outer loop
      vertex 0 67 0
      vertex 0 20 8
      vertex 0 67 8
    endloop
  endfacet
  facet normal 0 -1 0
    outer loop
      vertex 0 20 8
      vertex 0 20 0
      vertex 20 20 0
    endloop
  endfacet
  facet normal 0 -1 0
    outer loop
      vertex 8 20 8
      vertex 0 20 8
      vertex 20 20 0
    endloop
  endfacet
  facet normal 0 -1 0
    outer loop
      vertex 12 20 8
      vertex 8 20 8
      vertex 20 20 0
    endloop
  endfacet
  facet normal 0 -1 0
    outer loop
      vertex 20 20 8
      vertex 12 20 8
      vertex 20 20 0
    endloop
  endfacet
  facet normal 0 -1 0
    outer loop
      vertex 12 20 8.5
      vertex 8 20 8
      vertex 12 20 8
    endloop
  endfacet
  facet normal 0 -1 0
    outer loop
      vertex 8 20 8.5
      vertex 8 20 8
      vertex 12 20 8.5
    endloop
  endfacet
  facet normal 0 0 -1
    outer loop
      vertex 25.9393 61.182 0
      vertex 0 67 0
      vertex 67 67 0
    endloop
  endfacet
  facet normal 0 0 -1
    outer loop
      vertex 61.182 25.9393 0
      vertex 67 67 0
      vertex 67 0 0
    endloop
  endfacet
  facet normal 0 0 -1
    outer loop
      vertex 0 20 0
      vertex 0 67 0
      vertex 7.25 40 0
    endloop
  endfacet
  facet normal 0 0 -1
    outer loop
      vertex 0 20 0
      vertex 7.25 40 0
      vertex 7.41585 39.0594 0
    endloop
  endfacet
  facet normal 0 0 -1
    outer loop
      vertex 0 20 0
      vertex 7.41585 39.0594 0
      vertex 7.89338 38.2323 0
    endloop
  endfacet
  facet normal 0 0 -1
    outer loop
      vertex 0 20 0
      vertex 7.89338 38.2323 0
      vertex 20 20 0
    endloop
  endfacet
  facet normal 0 0 -1
    outer loop
      vertex 9.52247 37.2918 0
      vertex 20 20 0
      vertex 8.625 37.6184 0
    endloop
  endfacet
  facet normal 0 0 -1
    outer loop
      vertex 25.9393 23.818 0
      vertex 20 20 0
      vertex 23.818 25.9393 0
    endloop
  endfacet
  facet normal 0 0 -1
    outer loop
      vertex 12.5842 39.0594 0
      vertex 20 20 0
      vertex 12.1066 38.2323 0
    endloop
  endfacet
  facet normal 0 0 -1
    outer loop
      vertex 7.89338 41.7677 0
      vertex 0 67 0
      vertex 8.625 42.3816 0
    endloop
  endfacet
  facet normal 0 0 -1
    outer loop
      vertex 9.52247 37.2918 0
      vertex 10.4775 37.2918 0
      vertex 20 20 0
    endloop
  endfacet
  facet normal 0 0 -1
    outer loop
      vertex 10.4775 37.2918 0
      vertex 11.375 37.6184 0
      vertex 20 20 0
    endloop
  endfacet
  facet normal 0 0 -1
    outer loop
      vertex 8.625 42.3816 0
      vertex 0 67 0
      vertex 9.52247 42.7082 0
    endloop
  endfacet
  facet normal 0 0 -1
    outer loop
      vertex 11.375 37.6184 0
      vertex 12.1066 38.2323 0
      vertex 20 20 0
    endloop
  endfacet
  facet normal 0 0 -1
    outer loop
      vertex 9.52247 42.7082 0
      vertex 0 67 0
      vertex 10.4775 42.7082 0
    endloop
  endfacet
  facet normal 0 0 -1
    outer loop
      vertex 10.4775 42.7082 0
      vertex 0 67 0
      vertex 11.375 42.3816 0
    endloop
  endfacet
  facet normal 0 0 -1
    outer loop
      vertex 12.1066 41.7677 0
      vertex 0 67 0
      vertex 12.5842 40.9406 0
    endloop
  endfacet
  facet normal 0 0 -1
    outer loop
      vertex 11.375 42.3816 0
      vertex 0 67 0
      vertex 12.1066 41.7677 0
    endloop
  endfacet
  facet normal 0 0 -1
    outer loop
      vertex 7.41585 40.9406 0
      vertex 0 67 0
      vertex 7.89338 41.7677 0
    endloop
  endfacet
  facet normal 0 0 -1
    outer loop
      vertex 7.25 40 0
      vertex 0 67 0
      vertex 7.41585 40.9406 0
    endloop
  endfacet
  facet normal 0 0 -1
    outer loop
      vertex 20 20 0
      vertex 12.5842 39.0594 0
      vertex 23.818 25.9393 0
    endloop
  endfacet
  facet normal 0 0 -1
    outer loop
      vertex 28.0607 30.182 0
      vertex 34.1359 33.2107 0
      vertex 30.182 28.0607 0
    endloop
  endfacet
  facet normal 0 0 -1
    outer loop
      vertex 52.6127 49.8473 0
      vertex 61.182 59.0607 0
      vertex 53.9193 47.5842 0
    endloop
  endfacet
  facet normal 0 0 -1
    outer loop
      vertex 41.375 12.3816 0
      vertex 25.9393 23.818 0
      vertex 67 0 0
    endloop
  endfacet
  facet normal 0 0 -1
    outer loop
      vertex 25.9393 23.818 0
      vertex 30.182 28.0607 0
      vertex 67 0 0
    endloop
  endfacet
  facet normal 0 0 -1
    outer loop
      vertex 23.818 25.9393 0
      vertex 12.5842 39.0594 0
      vertex 28.0607 30.182 0
    endloop
  endfacet
  facet normal 0 0 -1
    outer loop
      vertex 28.0607 54.818 0
      vertex 12.5842 40.9406 0
      vertex 23.818 59.0607 0
    endloop
  endfacet
  facet normal 0 0 -1
    outer loop
      vertex 23.818 59.0607 0
      vertex 0 67 0
      vertex 25.9393 61.182 0
    endloop
  endfacet
  facet normal 0 0 -1
    outer loop
      vertex 30.182 56.9393 0
      vertex 25.9393 61.182 0
      vertex 67 67 0
    endloop
  endfacet
  facet normal 0 0 -1
    outer loop
      vertex 12.5842 40.9406 0
      vertex 0 67 0
      vertex 23.818 59.0607 0
    endloop
  endfacet
  facet normal 0 0 -1
    outer loop
      vertex 56.9393 54.818 0
      vertex 52.6127 49.8473 0
      vertex 50.8641 51.7893 0
    endloop
  endfacet
  facet normal 0 0 -1
    outer loop
      vertex 34.1359 33.2107 0
      vertex 28.0607 30.182 0
      vertex 32.3873 35.1527 0
    endloop
  endfacet
  facet normal 0 0 -1
    outer loop
      vertex 41.1934 54.9315 0
      vertex 28.0607 54.818 0
      vertex 67 67 0
    endloop
  endfacet
  facet normal 0 0 -1
    outer loop
      vertex 28.0607 54.818 0
      vertex 30.182 56.9393 0
      vertex 67 67 0
    endloop
  endfacet
  facet normal 0 0 -1
    outer loop
      vertex 28.0607 30.182 0
      vertex 12.5842 39.0594 0
      vertex 30 42.5 0
    endloop
  endfacet
  facet normal 0 0 -1
    outer loop
      vertex 28.0607 30.182 0
      vertex 30 42.5 0
      vertex 30.2732 39.9011 0
    endloop
  endfacet
  facet normal 0 0 -1
    outer loop
      vertex 28.0607 30.182 0
      vertex 30.2732 39.9011 0
      vertex 31.0807 37.4158 0
    endloop
  endfacet
  facet normal 0 0 -1
    outer loop
      vertex 56.9393 54.818 0
      vertex 50.8641 51.7893 0
      vertex 54.818 56.9393 0
    endloop
  endfacet
  facet normal 0 0 -1
    outer loop
      vertex 28.0607 30.182 0
      vertex 31.0807 37.4158 0
      vertex 32.3873 35.1527 0
    endloop
  endfacet
  facet normal 0 0 -1
    outer loop
      vertex 36.25 31.6747 0
      vertex 30.182 28.0607 0
      vertex 34.1359 33.2107 0
    endloop
  endfacet
  facet normal 0 0 -1
    outer loop
      vertex 54.7268 39.9011 0
      vertex 67 67 0
      vertex 53.9193 37.4158 0
    endloop
  endfacet
  facet normal 0 0 -1
    outer loop
      vertex 30.182 28.0607 0
      vertex 36.25 31.6747 0
      vertex 67 0 0
    endloop
  endfacet
  facet normal 0 0 -1
    outer loop
      vertex 36.25 31.6747 0
      vertex 38.6373 30.6118 0
      vertex 67 0 0
    endloop
  endfacet
  facet normal 0 0 -1
    outer loop
      vertex 38.6373 30.6118 0
      vertex 41.1934 30.0685 0
      vertex 67 0 0
    endloop
  endfacet
  facet normal 0 0 -1
    outer loop
      vertex 41.1934 30.0685 0
      vertex 43.8066 30.0685 0
      vertex 67 0 0
    endloop
  endfacet
  facet normal 0 0 -1
    outer loop
      vertex 52.6127 49.8473 0
      vertex 56.9393 54.818 0
      vertex 61.182 59.0607 0
    endloop
  endfacet
  facet normal 0 0 -1
    outer loop
      vertex 43.8066 30.0685 0
      vertex 46.3627 30.6118 0
      vertex 67 0 0
    endloop
  endfacet
  facet normal 0 0 -1
    outer loop
      vertex 53.9193 47.5842 0
      vertex 67 67 0
      vertex 54.7268 45.0989 0
    endloop
  endfacet
  facet normal 0 0 -1
    outer loop
      vertex 46.3627 30.6118 0
      vertex 48.75 31.6747 0
      vertex 67 0 0
    endloop
  endfacet
  facet normal 0 0 -1
    outer loop
      vertex 54.7268 45.0989 0
      vertex 67 67 0
      vertex 55 42.5 0
    endloop
  endfacet
  facet normal 0 0 -1
    outer loop
      vertex 48.75 31.6747 0
      vertex 50.8641 33.2107 0
      vertex 67 0 0
    endloop
  endfacet
  facet normal 0 0 -1
    outer loop
      vertex 55 42.5 0
      vertex 67 67 0
      vertex 54.7268 39.9011 0
    endloop
  endfacet
  facet normal 0 0 -1
    outer loop
      vertex 59.0607 23.818 0
      vertex 67 0 0
      vertex 54.818 28.0607 0
    endloop
  endfacet
  facet normal 0 0 -1
    outer loop
      vertex 61.182 59.0607 0
      vertex 67 67 0
      vertex 53.9193 47.5842 0
    endloop
  endfacet
  facet normal 0 0 -1
    outer loop
      vertex 48.75 53.3253 0
      vertex 54.818 56.9393 0
      vertex 50.8641 51.7893 0
    endloop
  endfacet
  facet normal 0 0 -1
    outer loop
      vertex 46.3627 54.3882 0
      vertex 67 67 0
      vertex 59.0607 61.182 0
    endloop
  endfacet
  facet normal 0 0 -1
    outer loop
      vertex 40.4775 7.29178 0
      vertex 67 0 0
      vertex 39.5225 7.29178 0
    endloop
  endfacet
  facet normal 0 0 -1
    outer loop
      vertex 41.1934 54.9315 0
      vertex 67 67 0
      vertex 43.8066 54.9315 0
    endloop
  endfacet
  facet normal 0 0 -1
    outer loop
      vertex 30.2732 45.0989 0
      vertex 12.5842 39.0594 0
      vertex 31.0807 47.5842 0
    endloop
  endfacet
  facet normal 0 0 -1
    outer loop
      vertex 46.3627 54.3882 0
      vertex 43.8066 54.9315 0
      vertex 67 67 0
    endloop
  endfacet
  facet normal 0 0 -1
    outer loop
      vertex 38.6373 54.3882 0
      vertex 28.0607 54.818 0
      vertex 41.1934 54.9315 0
    endloop
  endfacet
  facet normal 0 0 -1
    outer loop
      vertex 34.1359 51.7893 0
      vertex 12.5842 40.9406 0
      vertex 36.25 53.3253 0
    endloop
  endfacet
  facet normal 0 0 -1
    outer loop
      vertex 36.25 53.3253 0
      vertex 28.0607 54.818 0
      vertex 38.6373 54.3882 0
    endloop
  endfacet
  facet normal 0 0 -1
    outer loop
      vertex 12.5842 40.9406 0
      vertex 28.0607 54.818 0
      vertex 36.25 53.3253 0
    endloop
  endfacet
  facet normal 0 0 -1
    outer loop
      vertex 32.3873 49.8473 0
      vertex 12.5842 40.9406 0
      vertex 34.1359 51.7893 0
    endloop
  endfacet
  facet normal 0 0 -1
    outer loop
      vertex 31.0807 47.5842 0
      vertex 12.75 40 0
      vertex 32.3873 49.8473 0
    endloop
  endfacet
  facet normal 0 0 -1
    outer loop
      vertex 12.75 40 0
      vertex 12.5842 40.9406 0
      vertex 32.3873 49.8473 0
    endloop
  endfacet
  facet normal 0 0 -1
    outer loop
      vertex 30 42.5 0
      vertex 12.5842 39.0594 0
      vertex 30.2732 45.0989 0
    endloop
  endfacet
  facet normal 0 0 -1
    outer loop
      vertex 42.5842 10.9406 0
      vertex 67 0 0
      vertex 42.75 10 0
    endloop
  endfacet
  facet normal 0 0 -1
    outer loop
      vertex 8.625 37.6184 0
      vertex 20 20 0
      vertex 7.89338 38.2323 0
    endloop
  endfacet
  facet normal 0 0 -1
    outer loop
      vertex 42.5842 9.05944 0
      vertex 67 0 0
      vertex 42.1066 8.23233 0
    endloop
  endfacet
  facet normal 0 0 -1
    outer loop
      vertex 38.625 7.61843 0
      vertex 20 0 0
      vertex 37.8934 8.23233 0
    endloop
  endfacet
  facet normal 0 0 -1
    outer loop
      vertex 39.5225 7.29178 0
      vertex 20 0 0
      vertex 38.625 7.61843 0
    endloop
  endfacet
  facet normal 0 0 -1
    outer loop
      vertex 67 0 0
      vertex 20 0 0
      vertex 39.5225 7.29178 0
    endloop
  endfacet
  facet normal 0 0 -1
    outer loop
      vertex 41.375 7.61843 0
      vertex 67 0 0
      vertex 40.4775 7.29178 0
    endloop
  endfacet
  facet normal 0 0 -1
    outer loop
      vertex 42.1066 8.23233 0
      vertex 67 0 0
      vertex 41.375 7.61843 0
    endloop
  endfacet
  facet normal 0 0 -1
    outer loop
      vertex 42.75 10 0
      vertex 67 0 0
      vertex 42.5842 9.05944 0
    endloop
  endfacet
  facet normal 0 0 -1
    outer loop
      vertex 38.625 12.3816 0
      vertex 20 20 0
      vertex 39.5225 12.7082 0
    endloop
  endfacet
  facet normal 0 0 -1
    outer loop
      vertex 40.4775 12.7082 0
      vertex 25.9393 23.818 0
      vertex 41.375 12.3816 0
    endloop
  endfacet
  facet normal 0 0 -1
    outer loop
      vertex 39.5225 12.7082 0
      vertex 25.9393 23.818 0
      vertex 40.4775 12.7082 0
    endloop
  endfacet
  facet normal 0 0 -1
    outer loop
      vertex 42.5842 10.9406 0
      vertex 42.1066 11.7677 0
      vertex 67 0 0
    endloop
  endfacet
  facet normal 0 0 -1
    outer loop
      vertex 42.1066 11.7677 0
      vertex 41.375 12.3816 0
      vertex 67 0 0
    endloop
  endfacet
  facet normal 0 0 -1
    outer loop
      vertex 20 20 0
      vertex 25.9393 23.818 0
      vertex 39.5225 12.7082 0
    endloop
  endfacet
  facet normal 0 0 -1
    outer loop
      vertex 37.8934 11.7677 0
      vertex 20 20 0
      vertex 38.625 12.3816 0
    endloop
  endfacet
  facet normal 0 0 -1
    outer loop
      vertex 37.4158 10.9406 0
      vertex 20 20 0
      vertex 37.8934 11.7677 0
    endloop
  endfacet
  facet normal 0 0 -1
    outer loop
      vertex 56.9393 30.182 0
      vertex 67 67 0
      vertex 61.182 25.9393 0
    endloop
  endfacet
  facet normal 0 0 -1
    outer loop
      vertex 20 20 0
      vertex 37.4158 10.9406 0
      vertex 37.25 10 0
    endloop
  endfacet
  facet normal 0 0 -1
    outer loop
      vertex 53.9193 37.4158 0
      vertex 67 67 0
      vertex 56.9393 30.182 0
    endloop
  endfacet
  facet normal 0 0 -1
    outer loop
      vertex 50.8641 33.2107 0
      vertex 52.6127 35.1527 0
      vertex 54.818 28.0607 0
    endloop
  endfacet
  facet normal 0 0 -1
    outer loop
      vertex 50.8641 33.2107 0
      vertex 54.818 28.0607 0
      vertex 67 0 0
    endloop
  endfacet
  facet normal 0 0 -1
    outer loop
      vertex 54.818 28.0607 0
      vertex 52.6127 35.1527 0
      vertex 53.9193 37.4158 0
    endloop
  endfacet
  facet normal 0 0 -1
    outer loop
      vertex 54.818 56.9393 0
      vertex 48.75 53.3253 0
      vertex 59.0607 61.182 0
    endloop
  endfacet
  facet normal 0 0 -1
    outer loop
      vertex 54.818 28.0607 0
      vertex 53.9193 37.4158 0
      vertex 56.9393 30.182 0
    endloop
  endfacet
  facet normal 0 0 -1
    outer loop
      vertex 59.0607 23.818 0
      vertex 61.182 25.9393 0
      vertex 67 0 0
    endloop
  endfacet
  facet normal 0 0 -1
    outer loop
      vertex 46.3627 54.3882 0
      vertex 59.0607 61.182 0
      vertex 48.75 53.3253 0
    endloop
  endfacet
  facet normal 0 0 -1
    outer loop
      vertex 59.0607 61.182 0
      vertex 67 67 0
      vertex 61.182 59.0607 0
    endloop
  endfacet
  facet normal 0 0 -1
    outer loop
      vertex 31.0807 47.5842 0
      vertex 12.5842 39.0594 0
      vertex 12.75 40 0
    endloop
  endfacet
  facet normal 0 0 -1
    outer loop
      vertex 20 20 0
      vertex 37.25 10 0
      vertex 37.4158 9.05944 0
    endloop
  endfacet
  facet normal 0 0 -1
    outer loop
      vertex 20 20 0
      vertex 37.4158 9.05944 0
      vertex 37.8934 8.23233 0
    endloop
  endfacet
  facet normal 0 0 -1
    outer loop
      vertex 20 20 0
      vertex 37.8934 8.23233 0
      vertex 20 0 0
    endloop
  endfacet
  facet normal 0 1 0
    outer loop
      vertex 0 67 0
      vertex 0 67 8
      vertex 67 67 0
    endloop
  endfacet
  facet normal 0 1 0
    outer loop
      vertex 67 67 0
      vertex 0 67 8
      vertex 8 67 8
    endloop
  endfacet
  facet normal 0 1 0
    outer loop
      vertex 67 67 0
      vertex 8 67 8
      vertex 8 67 8.5
    endloop
  endfacet
  facet normal 0 1 0
    outer loop
      vertex 12 67 8
      vertex 8 67 8.5
      vertex 12 67 8.5
    endloop
  endfacet
  facet normal 0 1 0
    outer loop
      vertex 67 67 0
      vertex 8 67 8.5
      vertex 12 67 8
    endloop
  endfacet
  facet normal 0 1 0
    outer loop
      vertex 67 67 0
      vertex 20 67 8
      vertex 20 67 16
    endloop
  endfacet
  facet normal 0 1 0
    outer loop
      vertex 67 67 0
      vertex 20 67 16
      vertex 67 67 16
    endloop
  endfacet
  facet normal 0 1 0
    outer loop
      vertex 20 67 8
      vertex 67 67 0
      vertex 12 67 8
    endloop
  endfacet
  facet normal 0 0 1
    outer loop
      vertex 0 67 8
      vertex 0 20 8
      vertex 8 20 8
    endloop
  endfacet
  facet normal 0 0 1
    outer loop
      vertex 7.41585 39.0594 8
      vertex 0 67 8
      vertex 8 20 8
    endloop
  endfacet
  facet normal 0 0 1
    outer loop
      vertex 8 38.1429 8
      vertex 7.89338 38.2323 8
      vertex 8 20 8
    endloop
  endfacet
  facet normal 0 0 1
    outer loop
      vertex 7.89338 38.2323 8
      vertex 7.41585 39.0594 8
      vertex 8 20 8
    endloop
  endfacet
  facet normal 0 0 1
    outer loop
      vertex 7.25 40 8
      vertex 0 67 8
      vertex 7.41585 39.0594 8
    endloop
  endfacet
  facet normal 0 0 1
    outer loop
      vertex 7.89338 41.7677 8
      vertex 0 67 8
      vertex 7.41585 40.9406 8
    endloop
  endfacet
  facet normal 0 0 1
    outer loop
      vertex 8 41.8571 8
      vertex 0 67 8
      vertex 7.89338 41.7677 8
    endloop
  endfacet
  facet normal 0 0 1
    outer loop
      vertex 8 67 8
      vertex 0 67 8
      vertex 8 41.8571 8
    endloop
  endfacet
  facet normal 0 0 1
    outer loop
      vertex 7.25 40 8
      vertex 7.41585 40.9406 8
      vertex 0 67 8
    endloop
  endfacet
  facet normal -1 0 0
    outer loop
      vertex 8 20 8
      vertex 8 20 8.5
      vertex 8 38.1429 8
    endloop
  endfacet
  facet normal -1 0 0
    outer loop
      vertex 8 38.1429 8
      vertex 8 20 8.5
      vertex 8 38.1429 8.5
    endloop
  endfacet
  facet normal 0 0 1
    outer loop
      vertex 8 38.1429 8.5
      vertex 8 20 8.5
      vertex 12 20 8.5
    endloop
  endfacet
  facet normal 0 0 1
    outer loop
      vertex 8.625 37.6184 8.5
      vertex 8 38.1429 8.5
      vertex 12 20 8.5
    endloop
  endfacet
  facet normal 0 0 1
    outer loop
      vertex 12 38.1429 8.5
      vertex 11.375 37.6184 8.5
      vertex 12 20 8.5
    endloop
  endfacet
  facet normal 0 0 1
    outer loop
      vertex 11.375 37.6184 8.5
      vertex 10.4775 37.2918 8.5
      vertex 12 20 8.5
    endloop
  endfacet
  facet normal 0 0 1
    outer loop
      vertex 10.4775 37.2918 8.5
      vertex 9.52247 37.2918 8.5
      vertex 12 20 8.5
    endloop
  endfacet
  facet normal 0 0 1
    outer loop
      vertex 9.52247 37.2918 8.5
      vertex 8.625 37.6184 8.5
      vertex 12 20 8.5
    endloop
  endfacet
  facet normal 1 0 0
    outer loop
      vertex 12 20 8.5
      vertex 12 20 8
      vertex 12 38.1429 8
    endloop
  endfacet
  facet normal 1 0 0
    outer loop
      vertex 12 38.1429 8.5
      vertex 12 20 8.5
      vertex 12 38.1429 8
    endloop
  endfacet
  facet normal 0 0 1
    outer loop
      vertex 12 38.1429 8
      vertex 12 20 8
      vertex 20 20 8
    endloop
  endfacet
  facet normal 0 0 1
    outer loop
      vertex 12.1066 38.2323 8
      vertex 12 38.1429 8
      vertex 20 20 8
    endloop
  endfacet
  facet normal 0 0 1
    outer loop
      vertex 12 67 8
      vertex 12 41.8571 8
      vertex 20 67 8
    endloop
  endfacet
  facet normal 0 0 1
    outer loop
      vertex 12 41.8571 8
      vertex 12.1066 41.7677 8
      vertex 20 67 8
    endloop
  endfacet
  facet normal 0 0 1
    outer loop
      vertex 12.1066 41.7677 8
      vertex 12.5842 40.9406 8
      vertex 20 67 8
    endloop
  endfacet
  facet normal 0 0 1
    outer loop
      vertex 20 67 8
      vertex 12.75 40 8
      vertex 20 20 8
    endloop
  endfacet
  facet normal 0 0 1
    outer loop
      vertex 12.75 40 8
      vertex 12.5842 39.0594 8
      vertex 20 20 8
    endloop
  endfacet
  facet normal 0 0 1
    outer loop
      vertex 12.5842 39.0594 8
      vertex 12.1066 38.2323 8
      vertex 20 20 8
    endloop
  endfacet
  facet normal 0 0 1
    outer loop
      vertex 12.5842 40.9406 8
      vertex 12.75 40 8
      vertex 20 67 8
    endloop
  endfacet
  facet normal 0 0 1
    outer loop
      vertex 20 20 8
      vertex 20 12 8
      vertex 38.1703 12 8
    endloop
  endfacet
  facet normal 0 0 1
    outer loop
      vertex 39.5225 12.7082 8
      vertex 20 20 8
      vertex 38.625 12.3816 8
    endloop
  endfacet
  facet normal 0 0 1
    outer loop
      vertex 38.625 12.3816 8
      vertex 20 20 8
      vertex 38.1703 12 8
    endloop
  endfacet
  facet normal 0 0 1
    outer loop
      vertex 40.4775 12.7082 8
      vertex 20 20 8
      vertex 39.5225 12.7082 8
    endloop
  endfacet
  facet normal 0 0 1
    outer loop
      vertex 67 12 8
      vertex 20 20 8
      vertex 40.4775 12.7082 8
    endloop
  endfacet
  facet normal 0 0 1
    outer loop
      vertex 67 12 8
      vertex 40.4775 12.7082 8
      vertex 41.375 12.3816 8
    endloop
  endfacet
  facet normal 0 0 1
    outer loop
      vertex 67 12 8
      vertex 41.375 12.3816 8
      vertex 41.8297 12 8
    endloop
  endfacet
  facet normal 0 0 1
    outer loop
      vertex 67 20 8
      vertex 20 20 8
      vertex 67 12 8
    endloop
  endfacet
  facet normal -1 0 0
    outer loop
      vertex 20 0 0
      vertex 20 0 8
      vertex 20 20 0
    endloop
  endfacet
  facet normal -1 0 0
    outer loop
      vertex 20 20 0
      vertex 20 0 8
      vertex 20 8 8
    endloop
  endfacet
  facet normal -1 0 0
    outer loop
      vertex 20 20 0
      vertex 20 8 8
      vertex 20 8 8.5
    endloop
  endfacet
  facet normal -1 0 0
    outer loop
      vertex 20 12 8
      vertex 20 8 8.5
      vertex 20 12 8.5
    endloop
  endfacet
  facet normal -1 0 0
    outer loop
      vertex 20 20 0
      vertex 20 8 8.5
      vertex 20 12 8
    endloop
  endfacet
  facet normal -1 0 0
    outer loop
      vertex 20 20 8
      vertex 20 20 0
      vertex 20 12 8
    endloop
  endfacet
  facet normal -1 0 0
    outer loop
      vertex 20 20 8
      vertex 20 20 12.9
      vertex 20 67 8
    endloop
  endfacet
  facet normal -1 0 0
    outer loop
      vertex 20 67 8
      vertex 20 20 12.9
      vertex 20 20 16
    endloop
  endfacet
  facet normal -1 0 0
    outer loop
      vertex 20 67 8
      vertex 20 20 16
      vertex 20 67 16
    endloop
  endfacet
  facet normal 0 -1 0
    outer loop
      vertex 20 20 12.9
      vertex 20 20 8
      vertex 67 20 8
    endloop
  endfacet
  facet normal 0 -1 0
    outer loop
      vertex 20 20 16
      vertex 20 20 12.9
      vertex 67 20 16
    endloop
  endfacet
  facet normal 0 -1 0
    outer loop
      vertex 67 20 16
      vertex 20 20 12.9
      vertex 67 20 8
    endloop
  endfacet
  facet normal 0 -1 0
    outer loop
      vertex 20 0 8
      vertex 20 0 0
      vertex 67 0 0
    endloop
  endfacet
  facet normal 0 -1 0
    outer loop
      vertex 67 0 8
      vertex 20 0 8
      vertex 67 0 0
    endloop
  endfacet
  facet normal 1 0 0
    outer loop
      vertex 67 0 8
      vertex 67 0 0
      vertex 67 67 0
    endloop
  endfacet
  facet normal 1 0 0
    outer loop
      vertex 67 20 8
      vertex 67 12 8
      vertex 67 67 0
    endloop
  endfacet
  facet normal 1 0 0
    outer loop
      vertex 67 67 16
      vertex 67 20 8
      vertex 67 67 0
    endloop
  endfacet
  facet normal 1 0 0
    outer loop
      vertex 67 12 8
      vertex 67 8 8
      vertex 67 67 0
    endloop
  endfacet
  facet normal 1 0 0
    outer loop
      vertex 67 8 8
      vertex 67 0 8
      vertex 67 67 0
    endloop
  endfacet
  facet normal 1 0 0
    outer loop
      vertex 67 8 8.5
      vertex 67 8 8
      vertex 67 12 8.5
    endloop
  endfacet
  facet normal 1 0 0
    outer loop
      vertex 67 12 8.5
      vertex 67 8 8
      vertex 67 12 8
    endloop
  endfacet
  facet normal 1 0 0
    outer loop
      vertex 67 20 16
      vertex 67 20 8
      vertex 67 67 16
    endloop
  endfacet
  facet normal 0.984808 -0.173648 0
    outer loop
      vertex 7.41585 40.9406 0
      vertex 7.41585 40.9406 8
      vertex 7.25 40 8
    endloop
  endfacet
  facet normal 0.984808 -0.173648 0
    outer loop
      vertex 7.25 40 0
      vertex 7.41585 40.9406 0
      vertex 7.25 40 8
    endloop
  endfacet
  facet normal 0.984808 0.173648 0
    outer loop
      vertex 7.25 40 8
      vertex 7.41585 39.0594 8
      vertex 7.41585 39.0594 0
    endloop
  endfacet
  facet normal 0.984808 0.173648 0
    outer loop
      vertex 7.25 40 0
      vertex 7.25 40 8
      vertex 7.41585 39.0594 0
    endloop
  endfacet
  facet normal 0.866025 -0.5 0
    outer loop
      vertex 7.89338 41.7677 0
      vertex 7.89338 41.7677 8
      vertex 7.41585 40.9406 8
    endloop
  endfacet
  facet normal 0.866025 -0.5 0
    outer loop
      vertex 7.41585 40.9406 0
      vertex 7.89338 41.7677 0
      vertex 7.41585 40.9406 8
    endloop
  endfacet
  facet normal 0.642788 -0.766044 0
    outer loop
      vertex 8.625 42.3816 0
      vertex 8.625 42.3816 8.5
      vertex 8 41.8571 8.5
    endloop
  endfacet
  facet normal 0.642788 -0.766044 0
    outer loop
      vertex 7.89338 41.7677 8
      vertex 8.625 42.3816 0
      vertex 8 41.8571 8
    endloop
  endfacet
  facet normal 0.642788 -0.766044 0
    outer loop
      vertex 8 41.8571 8
      vertex 8.625 42.3816 0
      vertex 8 41.8571 8.5
    endloop
  endfacet
  facet normal 0.642788 -0.766044 0
    outer loop
      vertex 7.89338 41.7677 0
      vertex 8.625 42.3816 0
      vertex 7.89338 41.7677 8
    endloop
  endfacet
  facet normal 0.34202 -0.939693 0
    outer loop
      vertex 9.52247 42.7082 0
      vertex 9.52247 42.7082 8.5
      vertex 8.625 42.3816 8.5
    endloop
  endfacet
  facet normal 0.34202 -0.939693 0
    outer loop
      vertex 8.625 42.3816 0
      vertex 9.52247 42.7082 0
      vertex 8.625 42.3816 8.5
    endloop
  endfacet
  facet normal 0 -1 0
    outer loop
      vertex 10.4775 42.7082 0
      vertex 10.4775 42.7082 8.5
      vertex 9.52247 42.7082 8.5
    endloop
  endfacet
  facet normal 0 -1 0
    outer loop
      vertex 9.52247 42.7082 0
      vertex 10.4775 42.7082 0
      vertex 9.52247 42.7082 8.5
    endloop
  endfacet
  facet normal -0.34202 -0.939693 0
    outer loop
      vertex 11.375 42.3816 0
      vertex 11.375 42.3816 8.5
      vertex 10.4775 42.7082 8.5
    endloop
  endfacet
  facet normal -0.34202 -0.939693 0
    outer loop
      vertex 10.4775 42.7082 0
      vertex 11.375 42.3816 0
      vertex 10.4775 42.7082 8.5
    endloop
  endfacet
  facet normal -0.642788 -0.766044 0
    outer loop
      vertex 12.1066 41.7677 0
      vertex 12.1066 41.7677 8
      vertex 12 41.8571 8
    endloop
  endfacet
  facet normal -0.642788 -0.766044 0
    outer loop
      vertex 11.375 42.3816 8.5
      vertex 12.1066 41.7677 0
      vertex 12 41.8571 8
    endloop
  endfacet
  facet normal -0.642788 -0.766044 0
    outer loop
      vertex 12 41.8571 8.5
      vertex 11.375 42.3816 8.5
      vertex 12 41.8571 8
    endloop
  endfacet
  facet normal -0.642788 -0.766044 0
    outer loop
      vertex 11.375 42.3816 8.5
      vertex 11.375 42.3816 0
      vertex 12.1066 41.7677 0
    endloop
  endfacet
  facet normal -0.866025 -0.5 0
    outer loop
      vertex 12.5842 40.9406 8
      vertex 12.1066 41.7677 8
      vertex 12.5842 40.9406 0
    endloop
  endfacet
  facet normal -0.866025 -0.5 0
    outer loop
      vertex 12.5842 40.9406 0
      vertex 12.1066 41.7677 8
      vertex 12.1066 41.7677 0
    endloop
  endfacet
  facet normal -0.984808 -0.173648 0
    outer loop
      vertex 12.75 40 8
      vertex 12.5842 40.9406 8
      vertex 12.75 40 0
    endloop
  endfacet
  facet normal -0.984808 -0.173648 0
    outer loop
      vertex 12.75 40 0
      vertex 12.5842 40.9406 8
      vertex 12.5842 40.9406 0
    endloop
  endfacet
  facet normal -0.984808 0.173648 0
    outer loop
      vertex 12.75 40 8
      vertex 12.75 40 0
      vertex 12.5842 39.0594 8
    endloop
  endfacet
  facet normal -0.984808 0.173648 0
    outer loop
      vertex 12.5842 39.0594 8
      vertex 12.75 40 0
      vertex 12.5842 39.0594 0
    endloop
  endfacet
  facet normal -0.866025 0.5 0
    outer loop
      vertex 12.5842 39.0594 8
      vertex 12.5842 39.0594 0
      vertex 12.1066 38.2323 8
    endloop
  endfacet
  facet normal -0.866025 0.5 0
    outer loop
      vertex 12.1066 38.2323 8
      vertex 12.5842 39.0594 0
      vertex 12.1066 38.2323 0
    endloop
  endfacet
  facet normal -0.642788 0.766044 0
    outer loop
      vertex 12 38.1429 8.5
      vertex 12 38.1429 8
      vertex 11.375 37.6184 8.5
    endloop
  endfacet
  facet normal -0.642788 0.766044 0
    outer loop
      vertex 12.1066 38.2323 0
      vertex 12 38.1429 8
      vertex 12.1066 38.2323 8
    endloop
  endfacet
  facet normal -0.642788 0.766044 0
    outer loop
      vertex 11.375 37.6184 8.5
      vertex 12 38.1429 8
      vertex 12.1066 38.2323 0
    endloop
  endfacet
  facet normal -0.642788 0.766044 0
    outer loop
      vertex 11.375 37.6184 8.5
      vertex 12.1066 38.2323 0
      vertex 11.375 37.6184 0
    endloop
  endfacet
  facet normal -0.34202 0.939693 0
    outer loop
      vertex 11.375 37.6184 8.5
      vertex 11.375 37.6184 0
      vertex 10.4775 37.2918 8.5
    endloop
  endfacet
  facet normal -0.34202 0.939693 0
    outer loop
      vertex 10.4775 37.2918 8.5
      vertex 11.375 37.6184 0
      vertex 10.4775 37.2918 0
    endloop
  endfacet
  facet normal 0 1 0
    outer loop
      vertex 10.4775 37.2918 8.5
      vertex 10.4775 37.2918 0
      vertex 9.52247 37.2918 8.5
    endloop
  endfacet
  facet normal 0 1 0
    outer loop
      vertex 9.52247 37.2918 8.5
      vertex 10.4775 37.2918 0
      vertex 9.52247 37.2918 0
    endloop
  endfacet
  facet normal 0.34202 0.939693 0
    outer loop
      vertex 9.52247 37.2918 8.5
      vertex 9.52247 37.2918 0
      vertex 8.625 37.6184 8.5
    endloop
  endfacet
  facet normal 0.34202 0.939693 0
    outer loop
      vertex 8.625 37.6184 8.5
      vertex 9.52247 37.2918 0
      vertex 8.625 37.6184 0
    endloop
  endfacet
  facet normal 0.642788 0.766044 0
    outer loop
      vertex 8 38.1429 8
      vertex 8 38.1429 8.5
      vertex 8.625 37.6184 8.5
    endloop
  endfacet
  facet normal 0.642788 0.766044 0
    outer loop
      vertex 8 38.1429 8
      vertex 8.625 37.6184 8.5
      vertex 8.625 37.6184 0
    endloop
  endfacet
  facet normal 0.642788 0.766044 0
    outer loop
      vertex 8 38.1429 8
      vertex 8.625 37.6184 0
      vertex 7.89338 38.2323 8
    endloop
  endfacet
  facet normal 0.642788 0.766044 0
    outer loop
      vertex 8.625 37.6184 0
      vertex 7.89338 38.2323 0
      vertex 7.89338 38.2323 8
    endloop
  endfacet
  facet normal 0.866025 0.5 0
    outer loop
      vertex 7.41585 39.0594 8
      vertex 7.89338 38.2323 8
      vertex 7.89338 38.2323 0
    endloop
  endfacet
  facet normal 0.866025 0.5 0
    outer loop
      vertex 7.41585 39.0594 0
      vertex 7.41585 39.0594 8
      vertex 7.89338 38.2323 0
    endloop
  endfacet
  facet normal 0.707107 -0.707107 0
    outer loop
      vertex 28.0607 30.182 0
      vertex 28.0607 30.182 16
      vertex 23.818 25.9393 16
    endloop
  endfacet
  facet normal 0.707107 -0.707107 0
    outer loop
      vertex 23.818 25.9393 0
      vertex 28.0607 30.182 0
      vertex 23.818 25.9393 16
    endloop
  endfacet
  facet normal 0.707107 0.707107 0
    outer loop
      vertex 23.818 25.9393 16
      vertex 25.9393 23.818 16
      vertex 25.9393 23.818 0
    endloop
  endfacet
  facet normal 0.707107 0.707107 0
    outer loop
      vertex 23.818 25.9393 0
      vertex 23.818 25.9393 16
      vertex 25.9393 23.818 0
    endloop
  endfacet
  facet normal -0.707107 -0.707107 0
    outer loop
      vertex 30.182 28.0607 16
      vertex 28.0607 30.182 16
      vertex 30.182 28.0607 0
    endloop
  endfacet
  facet normal -0.707107 -0.707107 0
    outer loop
      vertex 30.182 28.0607 0
      vertex 28.0607 30.182 16
      vertex 28.0607 30.182 0
    endloop
  endfacet
  facet normal -0.707107 0.707107 0
    outer loop
      vertex 30.182 28.0607 16
      vertex 30.182 28.0607 0
      vertex 25.9393 23.818 16
    endloop
  endfacet
  facet normal -0.707107 0.707107 0
    outer loop
      vertex 25.9393 23.818 16
      vertex 30.182 28.0607 0
      vertex 25.9393 23.818 0
    endloop
  endfacet
  facet normal 0.707107 -0.707107 0
    outer loop
      vertex 25.9393 61.182 0
      vertex 25.9393 61.182 16
      vertex 23.818 59.0607 16
    endloop
  endfacet
  facet normal 0.707107 -0.707107 0
    outer loop
      vertex 23.818 59.0607 0
      vertex 25.9393 61.182 0
      vertex 23.818 59.0607 16
    endloop
  endfacet
  facet normal -0.707107 -0.707107 0
    outer loop
      vertex 30.182 56.9393 0
      vertex 30.182 56.9393 16
      vertex 25.9393 61.182 16
    endloop
  endfacet
  facet normal -0.707107 -0.707107 0
    outer loop
      vertex 25.9393 61.182 0
      vertex 30.182 56.9393 0
      vertex 25.9393 61.182 16
    endloop
  endfacet
  facet normal -0.707107 0.707107 0
    outer loop
      vertex 30.182 56.9393 16
      vertex 30.182 56.9393 0
      vertex 28.0607 54.818 16
    endloop
  endfacet
  facet normal -0.707107 0.707107 0
    outer loop
      vertex 28.0607 54.818 16
      vertex 30.182 56.9393 0
      vertex 28.0607 54.818 0
    endloop
  endfacet
  facet normal 0.707107 0.707107 0
    outer loop
      vertex 28.0607 54.818 16
      vertex 28.0607 54.818 0
      vertex 23.818 59.0607 16
    endloop
  endfacet
  facet normal 0.707107 0.707107 0
    outer loop
      vertex 23.818 59.0607 16
      vertex 28.0607 54.818 0
      vertex 23.818 59.0607 0
    endloop
  endfacet
  facet normal 0.994522 -0.104528 0
    outer loop
      vertex 30.2732 45.0989 0
      vertex 30.2732 45.0989 16
      vertex 30 42.5 16
    endloop
  endfacet
  facet normal 0.994522 -0.104528 0
    outer loop
      vertex 30 42.5 0
      vertex 30.2732 45.0989 0
      vertex 30 42.5 16
    endloop
  endfacet
  facet normal 0.994522 0.104528 0
    outer loop
      vertex 30 42.5 16
      vertex 30.2732 39.9011 16
      vertex 30.2732 39.9011 0
    endloop
  endfacet
  facet normal 0.994522 0.104528 0
    outer loop
      vertex 30 42.5 0
      vertex 30 42.5 16
      vertex 30.2732 39.9011 0
    endloop
  endfacet
  facet normal 0.951056 -0.309017 0
    outer loop
      vertex 31.0807 47.5842 0
      vertex 31.0807 47.5842 16
      vertex 30.2732 45.0989 16
    endloop
  endfacet
  facet normal 0.951056 -0.309017 0
    outer loop
      vertex 30.2732 45.0989 0
      vertex 31.0807 47.5842 0
      vertex 30.2732 45.0989 16
    endloop
  endfacet
  facet normal 0.866025 -0.5 0
    outer loop
      vertex 32.3873 49.8473 0
      vertex 32.3873 49.8473 16
      vertex 31.0807 47.5842 16
    endloop
  endfacet
  facet normal 0.866025 -0.5 0
    outer loop
      vertex 31.0807 47.5842 0
      vertex 32.3873 49.8473 0
      vertex 31.0807 47.5842 16
    endloop
  endfacet
  facet normal 0.743145 -0.669131 0
    outer loop
      vertex 34.1359 51.7893 0
      vertex 34.1359 51.7893 16
      vertex 32.3873 49.8473 16
    endloop
  endfacet
  facet normal 0.743145 -0.669131 0
    outer loop
      vertex 32.3873 49.8473 0
      vertex 34.1359 51.7893 0
      vertex 32.3873 49.8473 16
    endloop
  endfacet
  facet normal 0.587785 -0.809017 0
    outer loop
      vertex 36.25 53.3253 0
      vertex 36.25 53.3253 16
      vertex 34.1359 51.7893 16
    endloop
  endfacet
  facet normal 0.587785 -0.809017 0
    outer loop
      vertex 34.1359 51.7893 0
      vertex 36.25 53.3253 0
      vertex 34.1359 51.7893 16
    endloop
  endfacet
  facet normal 0.406736 -0.913546 0
    outer loop
      vertex 38.6373 54.3882 0
      vertex 38.6373 54.3882 16
      vertex 36.25 53.3253 16
    endloop
  endfacet
  facet normal 0.406736 -0.913546 0
    outer loop
      vertex 36.25 53.3253 0
      vertex 38.6373 54.3882 0
      vertex 36.25 53.3253 16
    endloop
  endfacet
  facet normal 0.207912 -0.978148 0
    outer loop
      vertex 41.1934 54.9315 0
      vertex 41.1934 54.9315 16
      vertex 38.6373 54.3882 16
    endloop
  endfacet
  facet normal 0.207912 -0.978148 0
    outer loop
      vertex 38.6373 54.3882 0
      vertex 41.1934 54.9315 0
      vertex 38.6373 54.3882 16
    endloop
  endfacet
  facet normal 0 -1 0
    outer loop
      vertex 43.8066 54.9315 0
      vertex 43.8066 54.9315 16
      vertex 41.1934 54.9315 16
    endloop
  endfacet
  facet normal 0 -1 0
    outer loop
      vertex 41.1934 54.9315 0
      vertex 43.8066 54.9315 0
      vertex 41.1934 54.9315 16
    endloop
  endfacet
  facet normal -0.207912 -0.978148 0
    outer loop
      vertex 46.3627 54.3882 0
      vertex 46.3627 54.3882 16
      vertex 43.8066 54.9315 16
    endloop
  endfacet
  facet normal -0.207912 -0.978148 0
    outer loop
      vertex 43.8066 54.9315 0
      vertex 46.3627 54.3882 0
      vertex 43.8066 54.9315 16
    endloop
  endfacet
  facet normal -0.406736 -0.913546 0
    outer loop
      vertex 48.75 53.3253 0
      vertex 48.75 53.3253 16
      vertex 46.3627 54.3882 16
    endloop
  endfacet
  facet normal -0.406736 -0.913546 0
    outer loop
      vertex 46.3627 54.3882 0
      vertex 48.75 53.3253 0
      vertex 46.3627 54.3882 16
    endloop
  endfacet
  facet normal -0.587785 -0.809017 0
    outer loop
      vertex 50.8641 51.7893 0
      vertex 50.8641 51.7893 16
      vertex 48.75 53.3253 16
    endloop
  endfacet
  facet normal -0.587785 -0.809017 0
    outer loop
      vertex 48.75 53.3253 0
      vertex 50.8641 51.7893 0
      vertex 48.75 53.3253 16
    endloop
  endfacet
  facet normal -0.743145 -0.669131 0
    outer loop
      vertex 52.6127 49.8473 16
      vertex 50.8641 51.7893 16
      vertex 52.6127 49.8473 0
    endloop
  endfacet
  facet normal -0.743145 -0.669131 0
    outer loop
      vertex 52.6127 49.8473 0
      vertex 50.8641 51.7893 16
      vertex 50.8641 51.7893 0
    endloop
  endfacet
  facet normal -0.866025 -0.5 0
    outer loop
      vertex 53.9193 47.5842 16
      vertex 52.6127 49.8473 16
      vertex 53.9193 47.5842 0
    endloop
  endfacet
  facet normal -0.866025 -0.5 0
    outer loop
      vertex 53.9193 47.5842 0
      vertex 52.6127 49.8473 16
      vertex 52.6127 49.8473 0
    endloop
  endfacet
  facet normal -0.951056 -0.309017 0
    outer loop
      vertex 54.7268 45.0989 16
      vertex 53.9193 47.5842 16
      vertex 54.7268 45.0989 0
    endloop
  endfacet
  facet normal -0.951056 -0.309017 0
    outer loop
      vertex 54.7268 45.0989 0
      vertex 53.9193 47.5842 16
      vertex 53.9193 47.5842 0
    endloop
  endfacet
  facet normal -0.994522 -0.104528 0
    outer loop
      vertex 55 42.5 16
      vertex 54.7268 45.0989 16
      vertex 55 42.5 0
    endloop
  endfacet
  facet normal -0.994522 -0.104528 0
    outer loop
      vertex 55 42.5 0
      vertex 54.7268 45.0989 16
      vertex 54.7268 45.0989 0
    endloop
  endfacet
  facet normal -0.994522 0.104528 0
    outer loop
      vertex 55 42.5 16
      vertex 55 42.5 0
      vertex 54.7268 39.9011 16
    endloop
  endfacet
  facet normal -0.994522 0.104528 0
    outer loop
      vertex 54.7268 39.9011 16
      vertex 55 42.5 0
      vertex 54.7268 39.9011 0
    endloop
  endfacet
  facet normal -0.951056 0.309017 0
    outer loop
      vertex 54.7268 39.9011 16
      vertex 54.7268 39.9011 0
      vertex 53.9193 37.4158 16
    endloop
  endfacet
  facet normal -0.951056 0.309017 0
    outer loop
      vertex 53.9193 37.4158 16
      vertex 54.7268 39.9011 0
      vertex 53.9193 37.4158 0
    endloop
  endfacet
  facet normal -0.866025 0.5 0
    outer loop
      vertex 53.9193 37.4158 16
      vertex 53.9193 37.4158 0
      vertex 52.6127 35.1527 16
    endloop
  endfacet
  facet normal -0.866025 0.5 0
    outer loop
      vertex 52.6127 35.1527 16
      vertex 53.9193 37.4158 0
      vertex 52.6127 35.1527 0
    endloop
  endfacet
  facet normal -0.743145 0.669131 0
    outer loop
      vertex 52.6127 35.1527 16
      vertex 52.6127 35.1527 0
      vertex 50.8641 33.2107 16
    endloop
  endfacet
  facet normal -0.743145 0.669131 0
    outer loop
      vertex 50.8641 33.2107 16
      vertex 52.6127 35.1527 0
      vertex 50.8641 33.2107 0
    endloop
  endfacet
  facet normal -0.587785 0.809017 0
    outer loop
      vertex 50.8641 33.2107 16
      vertex 50.8641 33.2107 0
      vertex 48.75 31.6747 16
    endloop
  endfacet
  facet normal -0.587785 0.809017 0
    outer loop
      vertex 48.75 31.6747 16
      vertex 50.8641 33.2107 0
      vertex 48.75 31.6747 0
    endloop
  endfacet
  facet normal -0.406736 0.913546 0
    outer loop
      vertex 48.75 31.6747 16
      vertex 48.75 31.6747 0
      vertex 46.3627 30.6118 16
    endloop
  endfacet
  facet normal -0.406736 0.913546 0
    outer loop
      vertex 46.3627 30.6118 16
      vertex 48.75 31.6747 0
      vertex 46.3627 30.6118 0
    endloop
  endfacet
  facet normal -0.207912 0.978148 0
    outer loop
      vertex 46.3627 30.6118 16
      vertex 46.3627 30.6118 0
      vertex 43.8066 30.0685 16
    endloop
  endfacet
  facet normal -0.207912 0.978148 0
    outer loop
      vertex 43.8066 30.0685 16
      vertex 46.3627 30.6118 0
      vertex 43.8066 30.0685 0
    endloop
  endfacet
  facet normal 0 1 0
    outer loop
      vertex 43.8066 30.0685 16
      vertex 43.8066 30.0685 0
      vertex 41.1934 30.0685 16
    endloop
  endfacet
  facet normal 0 1 0
    outer loop
      vertex 41.1934 30.0685 16
      vertex 43.8066 30.0685 0
      vertex 41.1934 30.0685 0
    endloop
  endfacet
  facet normal 0.207912 0.978148 0
    outer loop
      vertex 41.1934 30.0685 16
      vertex 41.1934 30.0685 0
      vertex 38.6373 30.6118 16
    endloop
  endfacet
  facet normal 0.207912 0.978148 0
    outer loop
      vertex 38.6373 30.6118 16
      vertex 41.1934 30.0685 0
      vertex 38.6373 30.6118 0
    endloop
  endfacet
  facet normal 0.406736 0.913546 0
    outer loop
      vertex 38.6373 30.6118 16
      vertex 38.6373 30.6118 0
      vertex 36.25 31.6747 16
    endloop
  endfacet
  facet normal 0.406736 0.913546 0
    outer loop
      vertex 36.25 31.6747 16
      vertex 38.6373 30.6118 0
      vertex 36.25 31.6747 0
    endloop
  endfacet
  facet normal 0.587785 0.809017 0
    outer loop
      vertex 36.25 31.6747 16
      vertex 36.25 31.6747 0
      vertex 34.1359 33.2107 16
    endloop
  endfacet
  facet normal 0.587785 0.809017 0
    outer loop
      vertex 34.1359 33.2107 16
      vertex 36.25 31.6747 0
      vertex 34.1359 33.2107 0
    endloop
  endfacet
  facet normal 0.743145 0.669131 0
    outer loop
      vertex 32.3873 35.1527 16
      vertex 34.1359 33.2107 16
      vertex 34.1359 33.2107 0
    endloop
  endfacet
  facet normal 0.743145 0.669131 0
    outer loop
      vertex 32.3873 35.1527 0
      vertex 32.3873 35.1527 16
      vertex 34.1359 33.2107 0
    endloop
  endfacet
  facet normal 0.866025 0.5 0
    outer loop
      vertex 31.0807 37.4158 16
      vertex 32.3873 35.1527 16
      vertex 32.3873 35.1527 0
    endloop
  endfacet
  facet normal 0.866025 0.5 0
    outer loop
      vertex 31.0807 37.4158 0
      vertex 31.0807 37.4158 16
      vertex 32.3873 35.1527 0
    endloop
  endfacet
  facet normal 0.951056 0.309017 0
    outer loop
      vertex 30.2732 39.9011 16
      vertex 31.0807 37.4158 16
      vertex 31.0807 37.4158 0
    endloop
  endfacet
  facet normal 0.951056 0.309017 0
    outer loop
      vertex 30.2732 39.9011 0
      vertex 30.2732 39.9011 16
      vertex 31.0807 37.4158 0
    endloop
  endfacet
  facet normal 0.984808 -0.173648 0
    outer loop
      vertex 37.4158 10.9406 0
      vertex 37.4158 10.9406 8.5
      vertex 37.25 10 8.5
    endloop
  endfacet
  facet normal 0.984808 -0.173648 0
    outer loop
      vertex 37.25 10 0
      vertex 37.4158 10.9406 0
      vertex 37.25 10 8.5
    endloop
  endfacet
  facet normal 0.984808 0.173648 0
    outer loop
      vertex 37.25 10 8.5
      vertex 37.4158 9.05944 8.5
      vertex 37.4158 9.05944 0
    endloop
  endfacet
  facet normal 0.984808 0.173648 0
    outer loop
      vertex 37.25 10 0
      vertex 37.25 10 8.5
      vertex 37.4158 9.05944 0
    endloop
  endfacet
  facet normal 0.866025 -0.5 0
    outer loop
      vertex 37.8934 11.7677 0
      vertex 37.8934 11.7677 8.5
      vertex 37.4158 10.9406 8.5
    endloop
  endfacet
  facet normal 0.866025 -0.5 0
    outer loop
      vertex 37.4158 10.9406 0
      vertex 37.8934 11.7677 0
      vertex 37.4158 10.9406 8.5
    endloop
  endfacet
  facet normal 0.642788 -0.766044 0
    outer loop
      vertex 38.625 12.3816 0
      vertex 38.625 12.3816 8
      vertex 38.1703 12 8
    endloop
  endfacet
  facet normal 0.642788 -0.766044 0
    outer loop
      vertex 37.8934 11.7677 8.5
      vertex 38.625 12.3816 0
      vertex 38.1703 12 8
    endloop
  endfacet
  facet normal 0.642788 -0.766044 0
    outer loop
      vertex 38.1703 12 8.5
      vertex 37.8934 11.7677 8.5
      vertex 38.1703 12 8
    endloop
  endfacet
  facet normal 0.642788 -0.766044 0
    outer loop
      vertex 37.8934 11.7677 8.5
      vertex 37.8934 11.7677 0
      vertex 38.625 12.3816 0
    endloop
  endfacet
  facet normal 0.34202 -0.939693 0
    outer loop
      vertex 39.5225 12.7082 0
      vertex 39.5225 12.7082 8
      vertex 38.625 12.3816 8
    endloop
  endfacet
  facet normal 0.34202 -0.939693 0
    outer loop
      vertex 38.625 12.3816 0
      vertex 39.5225 12.7082 0
      vertex 38.625 12.3816 8
    endloop
  endfacet
  facet normal 0 -1 0
    outer loop
      vertex 40.4775 12.7082 0
      vertex 40.4775 12.7082 8
      vertex 39.5225 12.7082 8
    endloop
  endfacet
  facet normal 0 -1 0
    outer loop
      vertex 39.5225 12.7082 0
      vertex 40.4775 12.7082 0
      vertex 39.5225 12.7082 8
    endloop
  endfacet
  facet normal -0.34202 -0.939693 0
    outer loop
      vertex 41.375 12.3816 0
      vertex 41.375 12.3816 8
      vertex 40.4775 12.7082 8
    endloop
  endfacet
  facet normal -0.34202 -0.939693 0
    outer loop
      vertex 40.4775 12.7082 0
      vertex 41.375 12.3816 0
      vertex 40.4775 12.7082 8
    endloop
  endfacet
  facet normal -0.642788 -0.766044 0
    outer loop
      vertex 42.1066 11.7677 0
      vertex 42.1066 11.7677 8.5
      vertex 41.8297 12 8.5
    endloop
  endfacet
  facet normal -0.642788 -0.766044 0
    outer loop
      vertex 41.375 12.3816 8
      vertex 42.1066 11.7677 0
      vertex 41.8297 12 8
    endloop
  endfacet
  facet normal -0.642788 -0.766044 0
    outer loop
      vertex 41.8297 12 8
      vertex 42.1066 11.7677 0
      vertex 41.8297 12 8.5
    endloop
  endfacet
  facet normal -0.642788 -0.766044 0
    outer loop
      vertex 41.375 12.3816 0
      vertex 42.1066 11.7677 0
      vertex 41.375 12.3816 8
    endloop
  endfacet
  facet normal -0.866025 -0.5 0
    outer loop
      vertex 42.5842 10.9406 8.5
      vertex 42.1066 11.7677 8.5
      vertex 42.5842 10.9406 0
    endloop
  endfacet
  facet normal -0.866025 -0.5 0
    outer loop
      vertex 42.5842 10.9406 0
      vertex 42.1066 11.7677 8.5
      vertex 42.1066 11.7677 0
    endloop
  endfacet
  facet normal -0.984808 -0.173648 0
    outer loop
      vertex 42.75 10 8.5
      vertex 42.5842 10.9406 8.5
      vertex 42.75 10 0
    endloop
  endfacet
  facet normal -0.984808 -0.173648 0
    outer loop
      vertex 42.75 10 0
      vertex 42.5842 10.9406 8.5
      vertex 42.5842 10.9406 0
    endloop
  endfacet
  facet normal -0.984808 0.173648 0
    outer loop
      vertex 42.75 10 8.5
      vertex 42.75 10 0
      vertex 42.5842 9.05944 8.5
    endloop
  endfacet
  facet normal -0.984808 0.173648 0
    outer loop
      vertex 42.5842 9.05944 8.5
      vertex 42.75 10 0
      vertex 42.5842 9.05944 0
    endloop
  endfacet
  facet normal -0.866025 0.5 0
    outer loop
      vertex 42.5842 9.05944 8.5
      vertex 42.5842 9.05944 0
      vertex 42.1066 8.23233 8.5
    endloop
  endfacet
  facet normal -0.866025 0.5 0
    outer loop
      vertex 42.1066 8.23233 8.5
      vertex 42.5842 9.05944 0
      vertex 42.1066 8.23233 0
    endloop
  endfacet
  facet normal -0.642788 0.766044 0
    outer loop
      vertex 41.8297 8 8
      vertex 41.8297 8 8.5
      vertex 42.1066 8.23233 8.5
    endloop
  endfacet
  facet normal -0.642788 0.766044 0
    outer loop
      vertex 41.8297 8 8
      vertex 42.1066 8.23233 8.5
      vertex 42.1066 8.23233 0
    endloop
  endfacet
  facet normal -0.642788 0.766044 0
    outer loop
      vertex 41.8297 8 8
      vertex 42.1066 8.23233 0
      vertex 41.375 7.61843 8
    endloop
  endfacet
  facet normal -0.642788 0.766044 0
    outer loop
      vertex 42.1066 8.23233 0
      vertex 41.375 7.61843 0
      vertex 41.375 7.61843 8
    endloop
  endfacet
  facet normal -0.34202 0.939693 0
    outer loop
      vertex 41.375 7.61843 8
      vertex 41.375 7.61843 0
      vertex 40.4775 7.29178 8
    endloop
  endfacet
  facet normal -0.34202 0.939693 0
    outer loop
      vertex 40.4775 7.29178 8
      vertex 41.375 7.61843 0
      vertex 40.4775 7.29178 0
    endloop
  endfacet
  facet normal 0 1 0
    outer loop
      vertex 40.4775 7.29178 8
      vertex 40.4775 7.29178 0
      vertex 39.5225 7.29178 8
    endloop
  endfacet
  facet normal 0 1 0
    outer loop
      vertex 39.5225 7.29178 8
      vertex 40.4775 7.29178 0
      vertex 39.5225 7.29178 0
    endloop
  endfacet
  facet normal 0.34202 0.939693 0
    outer loop
      vertex 39.5225 7.29178 8
      vertex 39.5225 7.29178 0
      vertex 38.625 7.61843 8
    endloop
  endfacet
  facet normal 0.34202 0.939693 0
    outer loop
      vertex 38.625 7.61843 8
      vertex 39.5225 7.29178 0
      vertex 38.625 7.61843 0
    endloop
  endfacet
  facet normal 0.642788 0.766044 0
    outer loop
      vertex 38.1703 8 8.5
      vertex 38.1703 8 8
      vertex 37.8934 8.23233 8.5
    endloop
  endfacet
  facet normal 0.642788 0.766044 0
    outer loop
      vertex 38.625 7.61843 0
      vertex 38.1703 8 8
      vertex 38.625 7.61843 8
    endloop
  endfacet
  facet normal 0.642788 0.766044 0
    outer loop
      vertex 37.8934 8.23233 8.5
      vertex 38.1703 8 8
      vertex 38.625 7.61843 0
    endloop
  endfacet
  facet normal 0.642788 0.766044 0
    outer loop
      vertex 37.8934 8.23233 8.5
      vertex 38.625 7.61843 0
      vertex 37.8934 8.23233 0
    endloop
  endfacet
  facet normal 0.866025 0.5 0
    outer loop
      vertex 37.4158 9.05944 8.5
      vertex 37.8934 8.23233 8.5
      vertex 37.8934 8.23233 0
    endloop
  endfacet
  facet normal 0.866025 0.5 0
    outer loop
      vertex 37.4158 9.05944 0
      vertex 37.4158 9.05944 8.5
      vertex 37.8934 8.23233 0
    endloop
  endfacet
  facet normal 0.707107 -0.707107 0
    outer loop
      vertex 56.9393 30.182 0
      vertex 56.9393 30.182 16
      vertex 54.818 28.0607 16
    endloop
  endfacet
  facet normal 0.707107 -0.707107 0
    outer loop
      vertex 54.818 28.0607 0
      vertex 56.9393 30.182 0
      vertex 54.818 28.0607 16
    endloop
  endfacet
  facet normal -0.707107 -0.707107 0
    outer loop
      vertex 61.182 25.9393 0
      vertex 61.182 25.9393 16
      vertex 56.9393 30.182 16
    endloop
  endfacet
  facet normal -0.707107 -0.707107 0
    outer loop
      vertex 56.9393 30.182 0
      vertex 61.182 25.9393 0
      vertex 56.9393 30.182 16
    endloop
  endfacet
  facet normal -0.707107 0.707107 0
    outer loop
      vertex 61.182 25.9393 16
      vertex 61.182 25.9393 0
      vertex 59.0607 23.818 16
    endloop
  endfacet
  facet normal -0.707107 0.707107 0
    outer loop
      vertex 59.0607 23.818 16
      vertex 61.182 25.9393 0
      vertex 59.0607 23.818 0
    endloop
  endfacet
  facet normal 0.707107 0.707107 0
    outer loop
      vertex 59.0607 23.818 16
      vertex 59.0607 23.818 0
      vertex 54.818 28.0607 16
    endloop
  endfacet
  facet normal 0.707107 0.707107 0
    outer loop
      vertex 54.818 28.0607 16
      vertex 59.0607 23.818 0
      vertex 54.818 28.0607 0
    endloop
  endfacet
  facet normal 0.707107 -0.707107 0
    outer loop
      vertex 59.0607 61.182 0
      vertex 59.0607 61.182 16
      vertex 54.818 56.9393 16
    endloop
  endfacet
  facet normal 0.707107 -0.707107 0
    outer loop
      vertex 54.818 56.9393 0
      vertex 59.0607 61.182 0
      vertex 54.818 56.9393 16
    endloop
  endfacet
  facet normal 0.707107 0.707107 0
    outer loop
      vertex 54.818 56.9393 16
      vertex 56.9393 54.818 16
      vertex 56.9393 54.818 0
    endloop
  endfacet
  facet normal 0.707107 0.707107 0
    outer loop
      vertex 54.818 56.9393 0
      vertex 54.818 56.9393 16
      vertex 56.9393 54.818 0
    endloop
  endfacet
  facet normal -0.707107 -0.707107 0
    outer loop
      vertex 61.182 59.0607 16
      vertex 59.0607 61.182 16
      vertex 61.182 59.0607 0
    endloop
  endfacet
  facet normal -0.707107 -0.707107 0
    outer loop
      vertex 61.182 59.0607 0
      vertex 59.0607 61.182 16
      vertex 59.0607 61.182 0
    endloop
  endfacet
  facet normal -0.707107 0.707107 0
    outer loop
      vertex 61.182 59.0607 16
      vertex 61.182 59.0607 0
      vertex 56.9393 54.818 16
    endloop
  endfacet
  facet normal -0.707107 0.707107 0
    outer loop
      vertex 56.9393 54.818 16
      vertex 61.182 59.0607 0
      vertex 56.9393 54.818 0
    endloop
  endfacet
  facet normal 0 0 1
    outer loop
      vertex 25.9393 23.818 16
      vertex 20 20 16
      vertex 67 20 16
    endloop
  endfacet
  facet normal 0 0 1
    outer loop
      vertex 30.182 28.0607 16
      vertex 25.9393 23.818 16
      vertex 67 20 16
    endloop
  endfacet
  facet normal 0 0 1
    outer loop
      vertex 23.818 25.9393 16
      vertex 20 20 16
      vertex 25.9393 23.818 16
    endloop
  endfacet
  facet normal 0 0 1
    outer loop
      vertex 50.8641 33.2107 16
      vertex 48.75 31.6747 16
      vertex 54.818 28.0607 16
    endloop
  endfacet
  facet normal 0 0 1
    outer loop
      vertex 20 67 16
      vertex 20 20 16
      vertex 23.818 25.9393 16
    endloop
  endfacet
  facet normal 0 0 1
    outer loop
      vertex 41.1934 30.0685 16
      vertex 28.0607 30.182 16
      vertex 67 20 16
    endloop
  endfacet
  facet normal 0 0 1
    outer loop
      vertex 34.1359 51.7893 16
      vertex 36.25 53.3253 16
      vertex 30.182 56.9393 16
    endloop
  endfacet
  facet normal 0 0 1
    outer loop
      vertex 28.0607 30.182 16
      vertex 30.182 28.0607 16
      vertex 67 20 16
    endloop
  endfacet
  facet normal 0 0 1
    outer loop
      vertex 32.3873 49.8473 16
      vertex 34.1359 51.7893 16
      vertex 28.0607 54.818 16
    endloop
  endfacet
  facet normal 0 0 1
    outer loop
      vertex 20 67 16
      vertex 28.0607 30.182 16
      vertex 23.818 59.0607 16
    endloop
  endfacet
  facet normal 0 0 1
    outer loop
      vertex 52.6127 35.1527 16
      vertex 50.8641 33.2107 16
      vertex 56.9393 30.182 16
    endloop
  endfacet
  facet normal 0 0 1
    outer loop
      vertex 67 67 16
      vertex 20 67 16
      vertex 25.9393 61.182 16
    endloop
  endfacet
  facet normal 0 0 1
    outer loop
      vertex 55 42.5 16
      vertex 54.7268 39.9011 16
      vertex 67 20 16
    endloop
  endfacet
  facet normal 0 0 1
    outer loop
      vertex 67 67 16
      vertex 25.9393 61.182 16
      vertex 30.182 56.9393 16
    endloop
  endfacet
  facet normal 0 0 1
    outer loop
      vertex 23.818 59.0607 16
      vertex 28.0607 30.182 16
      vertex 28.0607 54.818 16
    endloop
  endfacet
  facet normal 0 0 1
    outer loop
      vertex 28.0607 54.818 16
      vertex 28.0607 30.182 16
      vertex 30.2732 39.9011 16
    endloop
  endfacet
  facet normal 0 0 1
    outer loop
      vertex 41.1934 30.0685 16
      vertex 38.6373 30.6118 16
      vertex 28.0607 30.182 16
    endloop
  endfacet
  facet normal 0 0 1
    outer loop
      vertex 28.0607 54.818 16
      vertex 30.2732 39.9011 16
      vertex 30 42.5 16
    endloop
  endfacet
  facet normal 0 0 1
    outer loop
      vertex 54.818 28.0607 16
      vertex 56.9393 30.182 16
      vertex 50.8641 33.2107 16
    endloop
  endfacet
  facet normal 0 0 1
    outer loop
      vertex 28.0607 54.818 16
      vertex 30 42.5 16
      vertex 30.2732 45.0989 16
    endloop
  endfacet
  facet normal 0 0 1
    outer loop
      vertex 28.0607 54.818 16
      vertex 30.2732 45.0989 16
      vertex 31.0807 47.5842 16
    endloop
  endfacet
  facet normal 0 0 1
    outer loop
      vertex 28.0607 54.818 16
      vertex 31.0807 47.5842 16
      vertex 32.3873 49.8473 16
    endloop
  endfacet
  facet normal 0 0 1
    outer loop
      vertex 38.6373 54.3882 16
      vertex 30.182 56.9393 16
      vertex 36.25 53.3253 16
    endloop
  endfacet
  facet normal 0 0 1
    outer loop
      vertex 53.9193 47.5842 16
      vertex 54.7268 45.0989 16
      vertex 67 20 16
    endloop
  endfacet
  facet normal 0 0 1
    outer loop
      vertex 67 67 16
      vertex 30.182 56.9393 16
      vertex 38.6373 54.3882 16
    endloop
  endfacet
  facet normal 0 0 1
    outer loop
      vertex 53.9193 37.4158 16
      vertex 52.6127 35.1527 16
      vertex 67 20 16
    endloop
  endfacet
  facet normal 0 0 1
    outer loop
      vertex 67 67 16
      vertex 41.1934 54.9315 16
      vertex 43.8066 54.9315 16
    endloop
  endfacet
  facet normal 0 0 1
    outer loop
      vertex 67 67 16
      vertex 43.8066 54.9315 16
      vertex 46.3627 54.3882 16
    endloop
  endfacet
  facet normal 0 0 1
    outer loop
      vertex 54.7268 39.9011 16
      vertex 53.9193 37.4158 16
      vertex 67 20 16
    endloop
  endfacet
  facet normal 0 0 1
    outer loop
      vertex 59.0607 61.182 16
      vertex 46.3627 54.3882 16
      vertex 48.75 53.3253 16
    endloop
  endfacet
  facet normal 0 0 1
    outer loop
      vertex 54.818 56.9393 16
      vertex 48.75 53.3253 16
      vertex 50.8641 51.7893 16
    endloop
  endfacet
  facet normal 0 0 1
    outer loop
      vertex 54.7268 45.0989 16
      vertex 55 42.5 16
      vertex 67 20 16
    endloop
  endfacet
  facet normal 0 0 1
    outer loop
      vertex 54.818 56.9393 16
      vertex 59.0607 61.182 16
      vertex 48.75 53.3253 16
    endloop
  endfacet
  facet normal 0 0 1
    outer loop
      vertex 67 67 16
      vertex 53.9193 47.5842 16
      vertex 67 20 16
    endloop
  endfacet
  facet normal 0 0 1
    outer loop
      vertex 56.9393 54.818 16
      vertex 52.6127 49.8473 16
      vertex 53.9193 47.5842 16
    endloop
  endfacet
  facet normal 0 0 1
    outer loop
      vertex 56.9393 54.818 16
      vertex 50.8641 51.7893 16
      vertex 52.6127 49.8473 16
    endloop
  endfacet
  facet normal 0 0 1
    outer loop
      vertex 59.0607 23.818 16
      vertex 43.8066 30.0685 16
      vertex 67 20 16
    endloop
  endfacet
  facet normal 0 0 1
    outer loop
      vertex 59.0607 23.818 16
      vertex 48.75 31.6747 16
      vertex 46.3627 30.6118 16
    endloop
  endfacet
  facet normal 0 0 1
    outer loop
      vertex 43.8066 30.0685 16
      vertex 41.1934 30.0685 16
      vertex 67 20 16
    endloop
  endfacet
  facet normal 0 0 1
    outer loop
      vertex 59.0607 23.818 16
      vertex 54.818 28.0607 16
      vertex 48.75 31.6747 16
    endloop
  endfacet
  facet normal 0 0 1
    outer loop
      vertex 36.25 31.6747 16
      vertex 28.0607 30.182 16
      vertex 38.6373 30.6118 16
    endloop
  endfacet
  facet normal 0 0 1
    outer loop
      vertex 34.1359 33.2107 16
      vertex 28.0607 30.182 16
      vertex 36.25 31.6747 16
    endloop
  endfacet
  facet normal 0 0 1
    outer loop
      vertex 32.3873 35.1527 16
      vertex 28.0607 30.182 16
      vertex 34.1359 33.2107 16
    endloop
  endfacet
  facet normal 0 0 1
    outer loop
      vertex 31.0807 37.4158 16
      vertex 28.0607 30.182 16
      vertex 32.3873 35.1527 16
    endloop
  endfacet
  facet normal 0 0 1
    outer loop
      vertex 30.2732 39.9011 16
      vertex 28.0607 30.182 16
      vertex 31.0807 37.4158 16
    endloop
  endfacet
  facet normal 0 0 1
    outer loop
      vertex 56.9393 54.818 16
      vertex 54.818 56.9393 16
      vertex 50.8641 51.7893 16
    endloop
  endfacet
  facet normal 0 0 1
    outer loop
      vertex 38.6373 54.3882 16
      vertex 41.1934 54.9315 16
      vertex 67 67 16
    endloop
  endfacet
  facet normal 0 0 1
    outer loop
      vertex 52.6127 35.1527 16
      vertex 61.182 25.9393 16
      vertex 67 20 16
    endloop
  endfacet
  facet normal 0 0 1
    outer loop
      vertex 52.6127 35.1527 16
      vertex 56.9393 30.182 16
      vertex 61.182 25.9393 16
    endloop
  endfacet
  facet normal 0 0 1
    outer loop
      vertex 61.182 25.9393 16
      vertex 59.0607 23.818 16
      vertex 67 20 16
    endloop
  endfacet
  facet normal 0 0 1
    outer loop
      vertex 46.3627 30.6118 16
      vertex 43.8066 30.0685 16
      vertex 59.0607 23.818 16
    endloop
  endfacet
  facet normal 0 0 1
    outer loop
      vertex 61.182 59.0607 16
      vertex 56.9393 54.818 16
      vertex 53.9193 47.5842 16
    endloop
  endfacet
  facet normal 0 0 1
    outer loop
      vertex 59.0607 61.182 16
      vertex 61.182 59.0607 16
      vertex 67 67 16
    endloop
  endfacet
  facet normal 0 0 1
    outer loop
      vertex 67 67 16
      vertex 46.3627 54.3882 16
      vertex 59.0607 61.182 16
    endloop
  endfacet
  facet normal 0 0 1
    outer loop
      vertex 67 67 16
      vertex 61.182 59.0607 16
      vertex 53.9193 47.5842 16
    endloop
  endfacet
  facet normal 0 0 1
    outer loop
      vertex 23.818 25.9393 16
      vertex 28.0607 30.182 16
      vertex 20 67 16
    endloop
  endfacet
  facet normal 0 0 1
    outer loop
      vertex 23.818 59.0607 16
      vertex 25.9393 61.182 16
      vertex 20 67 16
    endloop
  endfacet
  facet normal 0 0 1
    outer loop
      vertex 30.182 56.9393 16
      vertex 28.0607 54.818 16
      vertex 34.1359 51.7893 16
    endloop
  endfacet
  facet normal 1 0 0
    outer loop
      vertex 12 41.8571 8.5
      vertex 12 41.8571 8
      vertex 12 67 8
    endloop
  endfacet
  facet normal 1 0 0
    outer loop
      vertex 12 67 8.5
      vertex 12 41.8571 8.5
      vertex 12 67 8
    endloop
  endfacet
  facet normal 0 0 1
    outer loop
      vertex 10.4775 42.7082 8.5
      vertex 11.375 42.3816 8.5
      vertex 8 67 8.5
    endloop
  endfacet
  facet normal 0 0 1
    outer loop
      vertex 8 67 8.5
      vertex 8 41.8571 8.5
      vertex 8.625 42.3816 8.5
    endloop
  endfacet
  facet normal 0 0 1
    outer loop
      vertex 11.375 42.3816 8.5
      vertex 12 41.8571 8.5
      vertex 8 67 8.5
    endloop
  endfacet
  facet normal 0 0 1
    outer loop
      vertex 9.52247 42.7082 8.5
      vertex 8 67 8.5
      vertex 8.625 42.3816 8.5
    endloop
  endfacet
  facet normal 0 0 1
    outer loop
      vertex 9.52247 42.7082 8.5
      vertex 10.4775 42.7082 8.5
      vertex 8 67 8.5
    endloop
  endfacet
  facet normal 0 0 1
    outer loop
      vertex 12 41.8571 8.5
      vertex 12 67 8.5
      vertex 8 67 8.5
    endloop
  endfacet
  facet normal -1 0 0
    outer loop
      vertex 8 41.8571 8
      vertex 8 41.8571 8.5
      vertex 8 67 8
    endloop
  endfacet
  facet normal -1 0 0
    outer loop
      vertex 8 67 8
      vertex 8 41.8571 8.5
      vertex 8 67 8.5
    endloop
  endfacet
  facet normal 0 1 0
    outer loop
      vertex 41.8297 12 8
      vertex 41.8297 12 8.5
      vertex 67 12 8
    endloop
  endfacet
  facet normal 0 1 0
    outer loop
      vertex 67 12 8
      vertex 41.8297 12 8.5
      vertex 67 12 8.5
    endloop
  endfacet
  facet normal 0 1 0
    outer loop
      vertex 20 12 8
      vertex 20 12 8.5
      vertex 38.1703 12 8
    endloop
  endfacet
  facet normal 0 1 0
    outer loop
      vertex 38.1703 12 8
      vertex 20 12 8.5
      vertex 38.1703 12 8.5
    endloop
  endfacet
  facet normal 0 0 1
    outer loop
      vertex 20 12 8.5
      vertex 20 8 8.5
      vertex 38.1703 8 8.5
    endloop
  endfacet
  facet normal 0 0 1
    outer loop
      vertex 37.4158 9.05944 8.5
      vertex 20 12 8.5
      vertex 37.8934 8.23233 8.5
    endloop
  endfacet
  facet normal 0 0 1
    outer loop
      vertex 37.8934 8.23233 8.5
      vertex 20 12 8.5
      vertex 38.1703 8 8.5
    endloop
  endfacet
  facet normal 0 0 1
    outer loop
      vertex 37.25 10 8.5
      vertex 20 12 8.5
      vertex 37.4158 9.05944 8.5
    endloop
  endfacet
  facet normal 0 0 1
    outer loop
      vertex 37.4158 10.9406 8.5
      vertex 20 12 8.5
      vertex 37.25 10 8.5
    endloop
  endfacet
  facet normal 0 0 1
    outer loop
      vertex 37.8934 11.7677 8.5
      vertex 20 12 8.5
      vertex 37.4158 10.9406 8.5
    endloop
  endfacet
  facet normal 0 0 1
    outer loop
      vertex 38.1703 12 8.5
      vertex 20 12 8.5
      vertex 37.8934 11.7677 8.5
    endloop
  endfacet
  facet normal 0 -1 0
    outer loop
      vertex 20 8 8.5
      vertex 20 8 8
      vertex 38.1703 8 8
    endloop
  endfacet
  facet normal 0 -1 0
    outer loop
      vertex 38.1703 8 8.5
      vertex 20 8 8.5
      vertex 38.1703 8 8
    endloop
  endfacet
  facet normal 0 0 1
    outer loop
      vertex 20 8 8
      vertex 20 0 8
      vertex 67 0 8
    endloop
  endfacet
  facet normal 0 0 1
    outer loop
      vertex 39.5225 7.29178 8
      vertex 20 8 8
      vertex 67 0 8
    endloop
  endfacet
  facet normal 0 0 1
    outer loop
      vertex 67 8 8
      vertex 41.8297 8 8
      vertex 67 0 8
    endloop
  endfacet
  facet normal 0 0 1
    outer loop
      vertex 41.8297 8 8
      vertex 41.375 7.61843 8
      vertex 67 0 8
    endloop
  endfacet
  facet normal 0 0 1
    outer loop
      vertex 41.375 7.61843 8
      vertex 40.4775 7.29178 8
      vertex 67 0 8
    endloop
  endfacet
  facet normal 0 0 1
    outer loop
      vertex 40.4775 7.29178 8
      vertex 39.5225 7.29178 8
      vertex 67 0 8
    endloop
  endfacet
  facet normal 0 0 1
    outer loop
      vertex 38.625 7.61843 8
      vertex 38.1703 8 8
      vertex 20 8 8
    endloop
  endfacet
  facet normal 0 0 1
    outer loop
      vertex 39.5225 7.29178 8
      vertex 38.625 7.61843 8
      vertex 20 8 8
    endloop
  endfacet
  facet normal 0 -1 0
    outer loop
      vertex 41.8297 8 8.5
      vertex 41.8297 8 8
      vertex 67 8 8
    endloop
  endfacet
  facet normal 0 -1 0
    outer loop
      vertex 67 8 8.5
      vertex 41.8297 8 8.5
      vertex 67 8 8
    endloop
  endfacet
  facet normal 0 0 1
    outer loop
      vertex 42.1066 8.23233 8.5
      vertex 41.8297 8 8.5
      vertex 67 8 8.5
    endloop
  endfacet
  facet normal 0 0 1
    outer loop
      vertex 42.5842 9.05944 8.5
      vertex 42.1066 8.23233 8.5
      vertex 67 12 8.5
    endloop
  endfacet
  facet normal 0 0 1
    outer loop
      vertex 67 12 8.5
      vertex 42.1066 8.23233 8.5
      vertex 67 8 8.5
    endloop
  endfacet
  facet normal 0 0 1
    outer loop
      vertex 41.8297 12 8.5
      vertex 42.1066 11.7677 8.5
      vertex 67 12 8.5
    endloop
  endfacet
  facet normal 0 0 1
    outer loop
      vertex 42.1066 11.7677 8.5
      vertex 42.5842 10.9406 8.5
      vertex 67 12 8.5
    endloop
  endfacet
  facet normal 0 0 1
    outer loop
      vertex 42.5842 10.9406 8.5
      vertex 42.75 10 8.5
      vertex 67 12 8.5
    endloop
  endfacet
  facet normal 0 0 1
    outer loop
      vertex 42.75 10 8.5
      vertex 42.5842 9.05944 8.5
      vertex 67 12 8.5
    endloop
  endfacet
endsolid OpenSCAD_Model
