solid OpenSCAD_Model
  facet normal -1 0 0
    outer loop
      vertex 0 -80 0
      vertex 0 -80 10
      vertex 0 -40 0
    endloop
  endfacet
  facet normal -1 0 0
    outer loop
      vertex 0 -40 0
      vertex 0 -80 10
      vertex 0 -40 10
    endloop
  endfacet
  facet normal 0 -1 0
    outer loop
      vertex 0 -80 10
      vertex 0 -80 0
      vertex 36 -80 0
    endloop
  endfacet
  facet normal 0 -1 0
    outer loop
      vertex 36 -80 10
      vertex 0 -80 10
      vertex 36 -80 0
    endloop
  endfacet
  facet normal 0 0 -1
    outer loop
      vertex 12.1066 -58.2323 0
      vertex 0 -40 0
      vertex 36 -80 0
    endloop
  endfacet
  facet normal 0 0 -1
    outer loop
      vertex 7.25 -20 0
      vertex 0 -40 0
      vertex 0 37.359 0
    endloop
  endfacet
  facet normal 0 0 -1
    outer loop
      vertex 36 -80 0
      vertex 0 37.359 0
      vertex 6.76522 42.2742 0
    endloop
  endfacet
  facet normal 0 0 -1
    outer loop
      vertex 36 -80 0
      vertex 6.76522 42.2742 0
      vertex 12.3607 48.4886 0
    endloop
  endfacet
  facet normal 0 0 -1
    outer loop
      vertex 12.3607 48.4886 0
      vertex 16.5418 55.7305 0
      vertex 36 -80 0
    endloop
  endfacet
  facet normal 0 0 -1
    outer loop
      vertex 16.5418 55.7305 0
      vertex 19.1259 63.6835 0
      vertex 36 -80 0
    endloop
  endfacet
  facet normal 0 0 -1
    outer loop
      vertex 19.1259 63.6835 0
      vertex 20 72 0
      vertex 36 -80 0
    endloop
  endfacet
  facet normal 0 0 -1
    outer loop
      vertex 37.25 68.5 0
      vertex 20 72 0
      vertex 76 72 0
    endloop
  endfacet
  facet normal 0 0 -1
    outer loop
      vertex 71.8189 19.7809 0
      vertex 76 72 0
      vertex 76 19.7809 0
    endloop
  endfacet
  facet normal 0 0 -1
    outer loop
      vertex 72.5 33.25 0
      vertex 76 72 0
      vertex 71.8189 19.7809 0
    endloop
  endfacet
  facet normal 0 0 -1
    outer loop
      vertex 40.4722 35.9461 0
      vertex 20 72 0
      vertex 56 14.641 0
    endloop
  endfacet
  facet normal 0 0 -1
    outer loop
      vertex 9.52247 -62.7082 0
      vertex 36 -80 0
      vertex 8.625 -62.3816 0
    endloop
  endfacet
  facet normal 0 0 -1
    outer loop
      vertex 39.4582 -3.73053 0
      vertex 20 72 0
      vertex 43.6393 3.51141 0
    endloop
  endfacet
  facet normal 0 0 -1
    outer loop
      vertex 36.8741 -11.6835 0
      vertex 20 72 0
      vertex 39.4582 -3.73053 0
    endloop
  endfacet
  facet normal 0 0 -1
    outer loop
      vertex 36 -20 0
      vertex 20 72 0
      vertex 36.8741 -11.6835 0
    endloop
  endfacet
  facet normal 0 0 -1
    outer loop
      vertex 36 -80 0
      vertex 20 72 0
      vertex 36 -20 0
    endloop
  endfacet
  facet normal 0 0 -1
    outer loop
      vertex 0 -80 0
      vertex 0 -40 0
      vertex 7.25 -60 0
    endloop
  endfacet
  facet normal 0 0 -1
    outer loop
      vertex 0 -80 0
      vertex 7.25 -60 0
      vertex 7.41585 -60.9406 0
    endloop
  endfacet
  facet normal 0 0 -1
    outer loop
      vertex 0 -80 0
      vertex 7.41585 -60.9406 0
      vertex 7.89338 -61.7677 0
    endloop
  endfacet
  facet normal 0 0 -1
    outer loop
      vertex 0 -80 0
      vertex 7.89338 -61.7677 0
      vertex 8.625 -62.3816 0
    endloop
  endfacet
  facet normal 0 0 -1
    outer loop
      vertex 0 -80 0
      vertex 8.625 -62.3816 0
      vertex 36 -80 0
    endloop
  endfacet
  facet normal 0 0 -1
    outer loop
      vertex 10.4775 -62.7082 0
      vertex 36 -80 0
      vertex 9.52247 -62.7082 0
    endloop
  endfacet
  facet normal 0 0 -1
    outer loop
      vertex 11.375 -62.3816 0
      vertex 36 -80 0
      vertex 10.4775 -62.7082 0
    endloop
  endfacet
  facet normal 0 0 -1
    outer loop
      vertex 8.625 -22.3816 0
      vertex 36 -80 0
      vertex 7.89338 -21.7677 0
    endloop
  endfacet
  facet normal 0 0 -1
    outer loop
      vertex 11.375 -57.6184 0
      vertex 0 -40 0
      vertex 12.1066 -58.2323 0
    endloop
  endfacet
  facet normal 0 0 -1
    outer loop
      vertex 8.625 -57.6184 0
      vertex 0 -40 0
      vertex 9.52247 -57.2918 0
    endloop
  endfacet
  facet normal 0 0 -1
    outer loop
      vertex 11.375 -62.3816 0
      vertex 12.1066 -61.7677 0
      vertex 36 -80 0
    endloop
  endfacet
  facet normal 0 0 -1
    outer loop
      vertex 12.1066 -61.7677 0
      vertex 12.5842 -60.9406 0
      vertex 36 -80 0
    endloop
  endfacet
  facet normal 0 0 -1
    outer loop
      vertex 9.52247 -57.2918 0
      vertex 0 -40 0
      vertex 10.4775 -57.2918 0
    endloop
  endfacet
  facet normal 0 0 -1
    outer loop
      vertex 12.5842 -60.9406 0
      vertex 12.75 -60 0
      vertex 36 -80 0
    endloop
  endfacet
  facet normal 0 0 -1
    outer loop
      vertex 10.4775 -57.2918 0
      vertex 0 -40 0
      vertex 11.375 -57.6184 0
    endloop
  endfacet
  facet normal 0 0 -1
    outer loop
      vertex 12.75 -60 0
      vertex 12.5842 -59.0594 0
      vertex 36 -80 0
    endloop
  endfacet
  facet normal 0 0 -1
    outer loop
      vertex 12.5842 -59.0594 0
      vertex 12.1066 -58.2323 0
      vertex 36 -80 0
    endloop
  endfacet
  facet normal 0 0 -1
    outer loop
      vertex 7.89338 -58.2323 0
      vertex 0 -40 0
      vertex 8.625 -57.6184 0
    endloop
  endfacet
  facet normal 0 0 -1
    outer loop
      vertex 7.41585 -59.0594 0
      vertex 0 -40 0
      vertex 7.89338 -58.2323 0
    endloop
  endfacet
  facet normal 0 0 -1
    outer loop
      vertex 7.25 -60 0
      vertex 0 -40 0
      vertex 7.41585 -59.0594 0
    endloop
  endfacet
  facet normal 0 0 -1
    outer loop
      vertex 7.41585 -20.9406 0
      vertex 0 -40 0
      vertex 7.25 -20 0
    endloop
  endfacet
  facet normal 0 0 -1
    outer loop
      vertex 7.41585 -19.0594 0
      vertex 7.25 -20 0
      vertex 0 37.359 0
    endloop
  endfacet
  facet normal 0 0 -1
    outer loop
      vertex 36 -80 0
      vertex 0 -40 0
      vertex 7.41585 -20.9406 0
    endloop
  endfacet
  facet normal 0 0 -1
    outer loop
      vertex 36 -80 0
      vertex 7.41585 -20.9406 0
      vertex 7.89338 -21.7677 0
    endloop
  endfacet
  facet normal 0 0 -1
    outer loop
      vertex 12.1066 -18.2323 0
      vertex 0 37.359 0
      vertex 12.5842 -19.0594 0
    endloop
  endfacet
  facet normal 0 0 -1
    outer loop
      vertex 40.75 63.5 0
      vertex 43.0807 55.5842 0
      vertex 42.2732 53.0989 0
    endloop
  endfacet
  facet normal 0 0 -1
    outer loop
      vertex 36 -80 0
      vertex 8.625 -22.3816 0
      vertex 9.52247 -22.7082 0
    endloop
  endfacet
  facet normal 0 0 -1
    outer loop
      vertex 36 -80 0
      vertex 9.52247 -22.7082 0
      vertex 10.4775 -22.7082 0
    endloop
  endfacet
  facet normal 0 0 -1
    outer loop
      vertex 36 -80 0
      vertex 10.4775 -22.7082 0
      vertex 11.375 -22.3816 0
    endloop
  endfacet
  facet normal 0 0 -1
    outer loop
      vertex 66.9948 65.4697 0
      vertex 60.75 61.3253 0
      vertex 70.5303 69.0052 0
    endloop
  endfacet
  facet normal 0 0 -1
    outer loop
      vertex 36 -80 0
      vertex 11.375 -22.3816 0
      vertex 12.1066 -21.7677 0
    endloop
  endfacet
  facet normal 0 0 -1
    outer loop
      vertex 36 -80 0
      vertex 12.1066 -21.7677 0
      vertex 12.5842 -20.9406 0
    endloop
  endfacet
  facet normal 0 0 -1
    outer loop
      vertex 36 -80 0
      vertex 12.5842 -20.9406 0
      vertex 12.75 -20 0
    endloop
  endfacet
  facet normal 0 0 -1
    outer loop
      vertex 36 -80 0
      vertex 12.75 -20 0
      vertex 12.5842 -19.0594 0
    endloop
  endfacet
  facet normal 0 0 -1
    outer loop
      vertex 36 -80 0
      vertex 12.5842 -19.0594 0
      vertex 0 37.359 0
    endloop
  endfacet
  facet normal 0 0 -1
    outer loop
      vertex 11.375 -17.6184 0
      vertex 0 37.359 0
      vertex 12.1066 -18.2323 0
    endloop
  endfacet
  facet normal 0 0 -1
    outer loop
      vertex 10.4775 -17.2918 0
      vertex 0 37.359 0
      vertex 11.375 -17.6184 0
    endloop
  endfacet
  facet normal 0 0 -1
    outer loop
      vertex 9.52247 -17.2918 0
      vertex 0 37.359 0
      vertex 10.4775 -17.2918 0
    endloop
  endfacet
  facet normal 0 0 -1
    outer loop
      vertex 8.625 -17.6184 0
      vertex 0 37.359 0
      vertex 9.52247 -17.2918 0
    endloop
  endfacet
  facet normal 0 0 -1
    outer loop
      vertex 7.89338 -18.2323 0
      vertex 0 37.359 0
      vertex 8.625 -17.6184 0
    endloop
  endfacet
  facet normal 0 0 -1
    outer loop
      vertex 7.89338 -18.2323 0
      vertex 7.41585 -19.0594 0
      vertex 0 37.359 0
    endloop
  endfacet
  facet normal 0 0 -1
    outer loop
      vertex 37.25 63.5 0
      vertex 20 72 0
      vertex 37.25 68.5 0
    endloop
  endfacet
  facet normal 0 0 -1
    outer loop
      vertex 40.75 68.5 0
      vertex 37.25 68.5 0
      vertex 76 72 0
    endloop
  endfacet
  facet normal 0 0 -1
    outer loop
      vertex 42 50.5 0
      vertex 20 72 0
      vertex 37.25 63.5 0
    endloop
  endfacet
  facet normal 0 0 -1
    outer loop
      vertex 37.3209 34.507 0
      vertex 20 72 0
      vertex 37.3209 35.493 0
    endloop
  endfacet
  facet normal 0 0 -1
    outer loop
      vertex 55.8066 62.9315 0
      vertex 40.75 63.5 0
      vertex 76 72 0
    endloop
  endfacet
  facet normal 0 0 -1
    outer loop
      vertex 40.75 63.5 0
      vertex 40.75 68.5 0
      vertex 76 72 0
    endloop
  endfacet
  facet normal 0 0 -1
    outer loop
      vertex 43.6393 3.51141 0
      vertex 20 72 0
      vertex 37.3209 34.507 0
    endloop
  endfacet
  facet normal 0 0 -1
    outer loop
      vertex 43.6393 3.51141 0
      vertex 37.3209 34.507 0
      vertex 49.2348 9.72579 0
    endloop
  endfacet
  facet normal 0 0 -1
    outer loop
      vertex 38.7509 33.2678 0
      vertex 49.2348 9.72579 0
      vertex 37.854 33.6774 0
    endloop
  endfacet
  facet normal 0 0 -1
    outer loop
      vertex 37.3209 34.507 0
      vertex 37.854 33.6774 0
      vertex 49.2348 9.72579 0
    endloop
  endfacet
  facet normal 0 0 -1
    outer loop
      vertex 39.727 33.4081 0
      vertex 56 14.641 0
      vertex 38.7509 33.2678 0
    endloop
  endfacet
  facet normal 0 0 -1
    outer loop
      vertex 49.2348 9.72579 0
      vertex 38.7509 33.2678 0
      vertex 56 14.641 0
    endloop
  endfacet
  facet normal 0 0 -1
    outer loop
      vertex 42 50.5 0
      vertex 37.25 63.5 0
      vertex 42.2732 53.0989 0
    endloop
  endfacet
  facet normal 0 0 -1
    outer loop
      vertex 39.727 36.5919 0
      vertex 20 72 0
      vertex 40.4722 35.9461 0
    endloop
  endfacet
  facet normal 0 0 -1
    outer loop
      vertex 37.854 36.3226 0
      vertex 20 72 0
      vertex 38.7509 36.7322 0
    endloop
  endfacet
  facet normal 0 0 -1
    outer loop
      vertex 39.727 33.4081 0
      vertex 40.4722 34.0539 0
      vertex 56 14.641 0
    endloop
  endfacet
  facet normal 0 0 -1
    outer loop
      vertex 38.7509 36.7322 0
      vertex 20 72 0
      vertex 39.727 36.5919 0
    endloop
  endfacet
  facet normal 0 0 -1
    outer loop
      vertex 40.4722 34.0539 0
      vertex 40.75 35 0
      vertex 56 14.641 0
    endloop
  endfacet
  facet normal 0 0 -1
    outer loop
      vertex 40.75 35 0
      vertex 40.4722 35.9461 0
      vertex 56 14.641 0
    endloop
  endfacet
  facet normal 0 0 -1
    outer loop
      vertex 48.25 39.6747 0
      vertex 56 14.641 0
      vertex 46.1359 41.2107 0
    endloop
  endfacet
  facet normal 0 0 -1
    outer loop
      vertex 37.3209 35.493 0
      vertex 20 72 0
      vertex 37.854 36.3226 0
    endloop
  endfacet
  facet normal 0 0 -1
    outer loop
      vertex 42.2732 47.9011 0
      vertex 20 72 0
      vertex 42 50.5 0
    endloop
  endfacet
  facet normal 0 0 -1
    outer loop
      vertex 44.3873 43.1527 0
      vertex 56 14.641 0
      vertex 43.0807 45.4158 0
    endloop
  endfacet
  facet normal 0 0 -1
    outer loop
      vertex 43.0807 45.4158 0
      vertex 20 72 0
      vertex 42.2732 47.9011 0
    endloop
  endfacet
  facet normal 0 0 -1
    outer loop
      vertex 56 14.641 0
      vertex 20 72 0
      vertex 43.0807 45.4158 0
    endloop
  endfacet
  facet normal 0 0 -1
    outer loop
      vertex 46.1359 41.2107 0
      vertex 56 14.641 0
      vertex 44.3873 43.1527 0
    endloop
  endfacet
  facet normal 0 0 -1
    outer loop
      vertex 67 50.5 0
      vertex 76 72 0
      vertex 66.7268 47.9011 0
    endloop
  endfacet
  facet normal 0 0 -1
    outer loop
      vertex 56 14.641 0
      vertex 48.25 39.6747 0
      vertex 50.6373 38.6118 0
    endloop
  endfacet
  facet normal 0 0 -1
    outer loop
      vertex 56 14.641 0
      vertex 50.6373 38.6118 0
      vertex 53.1934 38.0685 0
    endloop
  endfacet
  facet normal 0 0 -1
    outer loop
      vertex 56 14.641 0
      vertex 53.1934 38.0685 0
      vertex 55.8066 38.0685 0
    endloop
  endfacet
  facet normal 0 0 -1
    outer loop
      vertex 56 14.641 0
      vertex 55.8066 38.0685 0
      vertex 58.3627 38.6118 0
    endloop
  endfacet
  facet normal 0 0 -1
    outer loop
      vertex 56 14.641 0
      vertex 58.3627 38.6118 0
      vertex 60.75 39.6747 0
    endloop
  endfacet
  facet normal 0 0 -1
    outer loop
      vertex 73.0052 66.5303 0
      vertex 76 72 0
      vertex 66.7268 53.0989 0
    endloop
  endfacet
  facet normal 0 0 -1
    outer loop
      vertex 56 14.641 0
      vertex 60.75 39.6747 0
      vertex 62.8641 41.2107 0
    endloop
  endfacet
  facet normal 0 0 -1
    outer loop
      vertex 65.9193 55.5842 0
      vertex 73.0052 66.5303 0
      vertex 66.7268 53.0989 0
    endloop
  endfacet
  facet normal 0 0 -1
    outer loop
      vertex 56 14.641 0
      vertex 62.8641 41.2107 0
      vertex 64.6127 43.1527 0
    endloop
  endfacet
  facet normal 0 0 -1
    outer loop
      vertex 56 14.641 0
      vertex 64.6127 43.1527 0
      vertex 65.9193 45.4158 0
    endloop
  endfacet
  facet normal 0 0 -1
    outer loop
      vertex 56 14.641 0
      vertex 65.9193 45.4158 0
      vertex 76 72 0
    endloop
  endfacet
  facet normal 0 0 -1
    outer loop
      vertex 65.9193 45.4158 0
      vertex 66.7268 47.9011 0
      vertex 76 72 0
    endloop
  endfacet
  facet normal 0 0 -1
    outer loop
      vertex 66.7268 53.0989 0
      vertex 76 72 0
      vertex 67 50.5 0
    endloop
  endfacet
  facet normal 0 0 -1
    outer loop
      vertex 70.5303 69.0052 0
      vertex 76 72 0
      vertex 73.0052 66.5303 0
    endloop
  endfacet
  facet normal 0 0 -1
    outer loop
      vertex 73.0052 66.5303 0
      vertex 65.9193 55.5842 0
      vertex 69.4697 62.9948 0
    endloop
  endfacet
  facet normal 0 0 -1
    outer loop
      vertex 43.0807 55.5842 0
      vertex 40.75 63.5 0
      vertex 44.3873 57.8473 0
    endloop
  endfacet
  facet normal 0 0 -1
    outer loop
      vertex 50.6373 62.3882 0
      vertex 40.75 63.5 0
      vertex 53.1934 62.9315 0
    endloop
  endfacet
  facet normal 0 0 -1
    outer loop
      vertex 48.25 61.3253 0
      vertex 40.75 63.5 0
      vertex 50.6373 62.3882 0
    endloop
  endfacet
  facet normal 0 0 -1
    outer loop
      vertex 69.4697 62.9948 0
      vertex 64.6127 57.8473 0
      vertex 62.8641 59.7893 0
    endloop
  endfacet
  facet normal 0 0 -1
    outer loop
      vertex 70.5303 69.0052 0
      vertex 58.3627 62.3882 0
      vertex 76 72 0
    endloop
  endfacet
  facet normal 0 0 -1
    outer loop
      vertex 53.1934 62.9315 0
      vertex 40.75 63.5 0
      vertex 55.8066 62.9315 0
    endloop
  endfacet
  facet normal 0 0 -1
    outer loop
      vertex 58.3627 62.3882 0
      vertex 55.8066 62.9315 0
      vertex 76 72 0
    endloop
  endfacet
  facet normal 0 0 -1
    outer loop
      vertex 67.5 33.25 0
      vertex 63.6393 18.0423 0
      vertex 67.5 36.75 0
    endloop
  endfacet
  facet normal 0 0 -1
    outer loop
      vertex 46.1359 59.7893 0
      vertex 40.75 63.5 0
      vertex 48.25 61.3253 0
    endloop
  endfacet
  facet normal 0 0 -1
    outer loop
      vertex 44.3873 57.8473 0
      vertex 40.75 63.5 0
      vertex 46.1359 59.7893 0
    endloop
  endfacet
  facet normal 0 0 -1
    outer loop
      vertex 67.5 36.75 0
      vertex 76 72 0
      vertex 72.5 36.75 0
    endloop
  endfacet
  facet normal 0 0 -1
    outer loop
      vertex 62.8641 59.7893 0
      vertex 60.75 61.3253 0
      vertex 66.9948 65.4697 0
    endloop
  endfacet
  facet normal 0 0 -1
    outer loop
      vertex 64.6127 57.8473 0
      vertex 69.4697 62.9948 0
      vertex 65.9193 55.5842 0
    endloop
  endfacet
  facet normal 0 0 -1
    outer loop
      vertex 60.75 61.3253 0
      vertex 58.3627 62.3882 0
      vertex 70.5303 69.0052 0
    endloop
  endfacet
  facet normal 0 0 -1
    outer loop
      vertex 69.4697 62.9948 0
      vertex 62.8641 59.7893 0
      vertex 66.9948 65.4697 0
    endloop
  endfacet
  facet normal 0 0 -1
    outer loop
      vertex 63.6393 18.0423 0
      vertex 67.5 33.25 0
      vertex 71.8189 19.7809 0
    endloop
  endfacet
  facet normal 0 0 -1
    outer loop
      vertex 72.5 36.75 0
      vertex 76 72 0
      vertex 72.5 33.25 0
    endloop
  endfacet
  facet normal 0 0 -1
    outer loop
      vertex 67.5 33.25 0
      vertex 72.5 33.25 0
      vertex 71.8189 19.7809 0
    endloop
  endfacet
  facet normal 0 0 -1
    outer loop
      vertex 56 14.641 0
      vertex 76 72 0
      vertex 67.5 36.75 0
    endloop
  endfacet
  facet normal 0 0 -1
    outer loop
      vertex 56 14.641 0
      vertex 67.5 36.75 0
      vertex 63.6393 18.0423 0
    endloop
  endfacet
  facet normal 0 0 -1
    outer loop
      vertex 40.75 63.5 0
      vertex 42.2732 53.0989 0
      vertex 37.25 63.5 0
    endloop
  endfacet
  facet normal -1 0 0
    outer loop
      vertex 0 -40 0
      vertex 0 -40 10
      vertex 0 37.359 0
    endloop
  endfacet
  facet normal -1 0 0
    outer loop
      vertex 0 37.359 0
      vertex 0 -40 10
      vertex 0 0 10
    endloop
  endfacet
  facet normal -1 0 0
    outer loop
      vertex 0 20 10
      vertex 0 0 10
      vertex 0 0 50
    endloop
  endfacet
  facet normal -1 0 0
    outer loop
      vertex 0 12.2723 43.2919
      vertex 0 0 50
      vertex 0 20 50
    endloop
  endfacet
  facet normal -1 0 0
    outer loop
      vertex 0 37.359 0
      vertex 0 0 10
      vertex 0 20 10
    endloop
  endfacet
  facet normal -1 0 0
    outer loop
      vertex 0 6.45818 38.1411
      vertex 0 20 10
      vertex 0 0 50
    endloop
  endfacet
  facet normal -1 0 0
    outer loop
      vertex 0 7.00596 37.3475
      vertex 0 20 10
      vertex 0 6.45818 38.1411
    endloop
  endfacet
  facet normal -1 0 0
    outer loop
      vertex 0 13.8838 39.0427
      vertex 0 20 50
      vertex 0 13.5418 38.1411
    endloop
  endfacet
  facet normal -1 0 0
    outer loop
      vertex 0 6.11623 40.9573
      vertex 0 6 40
      vertex 0 0 50
    endloop
  endfacet
  facet normal -1 0 0
    outer loop
      vertex 0 7.72774 36.7081
      vertex 0 20 10
      vertex 0 7.00596 37.3475
    endloop
  endfacet
  facet normal -1 0 0
    outer loop
      vertex 0 6 40
      vertex 0 6.11623 39.0427
      vertex 0 0 50
    endloop
  endfacet
  facet normal -1 0 0
    outer loop
      vertex 0 6.11623 39.0427
      vertex 0 6.45818 38.1411
      vertex 0 0 50
    endloop
  endfacet
  facet normal -1 0 0
    outer loop
      vertex 0 37.359 10
      vertex 0 37.359 0
      vertex 0 20 10
    endloop
  endfacet
  facet normal -1 0 0
    outer loop
      vertex 0 14 40
      vertex 0 20 50
      vertex 0 13.8838 39.0427
    endloop
  endfacet
  facet normal -1 0 0
    outer loop
      vertex 0 13.8838 40.9573
      vertex 0 20 50
      vertex 0 14 40
    endloop
  endfacet
  facet normal -1 0 0
    outer loop
      vertex 0 13.5418 41.8589
      vertex 0 20 50
      vertex 0 13.8838 40.9573
    endloop
  endfacet
  facet normal -1 0 0
    outer loop
      vertex 0 6.11623 40.9573
      vertex 0 0 50
      vertex 0 6.45818 41.8589
    endloop
  endfacet
  facet normal -1 0 0
    outer loop
      vertex 0 10.4821 43.9708
      vertex 0 0 50
      vertex 0 11.4184 43.7401
    endloop
  endfacet
  facet normal -1 0 0
    outer loop
      vertex 0 9.51785 43.9708
      vertex 0 0 50
      vertex 0 10.4821 43.9708
    endloop
  endfacet
  facet normal -1 0 0
    outer loop
      vertex 0 13.5418 41.8589
      vertex 0 12.994 42.6525
      vertex 0 20 50
    endloop
  endfacet
  facet normal -1 0 0
    outer loop
      vertex 0 11.4184 43.7401
      vertex 0 0 50
      vertex 0 12.2723 43.2919
    endloop
  endfacet
  facet normal -1 0 0
    outer loop
      vertex 0 12.994 42.6525
      vertex 0 12.2723 43.2919
      vertex 0 20 50
    endloop
  endfacet
  facet normal -1 0 0
    outer loop
      vertex 0 8.58158 43.7401
      vertex 0 0 50
      vertex 0 9.51785 43.9708
    endloop
  endfacet
  facet normal -1 0 0
    outer loop
      vertex 0 7.72774 43.2919
      vertex 0 0 50
      vertex 0 8.58158 43.7401
    endloop
  endfacet
  facet normal -1 0 0
    outer loop
      vertex 0 7.00596 42.6525
      vertex 0 0 50
      vertex 0 7.72774 43.2919
    endloop
  endfacet
  facet normal -1 0 0
    outer loop
      vertex 0 6.45818 41.8589
      vertex 0 0 50
      vertex 0 7.00596 42.6525
    endloop
  endfacet
  facet normal -1 0 0
    outer loop
      vertex 0 20 10
      vertex 0 7.72774 36.7081
      vertex 0 8.58158 36.2599
    endloop
  endfacet
  facet normal -1 0 0
    outer loop
      vertex 0 20 10
      vertex 0 8.58158 36.2599
      vertex 0 9.51785 36.0292
    endloop
  endfacet
  facet normal -1 0 0
    outer loop
      vertex 0 20 10
      vertex 0 9.51785 36.0292
      vertex 0 10.4821 36.0292
    endloop
  endfacet
  facet normal -1 0 0
    outer loop
      vertex 0 20 10
      vertex 0 10.4821 36.0292
      vertex 0 11.4184 36.2599
    endloop
  endfacet
  facet normal -1 0 0
    outer loop
      vertex 0 20 10
      vertex 0 11.4184 36.2599
      vertex 0 12.2723 36.7081
    endloop
  endfacet
  facet normal -1 0 0
    outer loop
      vertex 0 20 10
      vertex 0 12.2723 36.7081
      vertex 0 12.994 37.3475
    endloop
  endfacet
  facet normal -1 0 0
    outer loop
      vertex 0 20 10
      vertex 0 12.994 37.3475
      vertex 0 13.5418 38.1411
    endloop
  endfacet
  facet normal -1 0 0
    outer loop
      vertex 0 20 10
      vertex 0 13.5418 38.1411
      vertex 0 20 50
    endloop
  endfacet
  facet normal 0 0 1
    outer loop
      vertex 9.52247 -62.7082 10
      vertex 0 -80 10
      vertex 36 -80 10
    endloop
  endfacet
  facet normal 0 0 1
    outer loop
      vertex 36.8741 -11.6835 10
      vertex 0 -40 10
      vertex 36 -20 10
    endloop
  endfacet
  facet normal 0 0 1
    outer loop
      vertex 36 -20 10
      vertex 0 -40 10
      vertex 36 -80 10
    endloop
  endfacet
  facet normal 0 0 1
    outer loop
      vertex 39.4582 -3.73053 10
      vertex 0 -40 10
      vertex 36.8741 -11.6835 10
    endloop
  endfacet
  facet normal 0 0 1
    outer loop
      vertex 43.6393 3.51141 10
      vertex 0 -40 10
      vertex 39.4582 -3.73053 10
    endloop
  endfacet
  facet normal 0 0 1
    outer loop
      vertex 49.2348 9.72579 10
      vertex 0 -40 10
      vertex 43.6393 3.51141 10
    endloop
  endfacet
  facet normal 0 0 1
    outer loop
      vertex 58.3627 38.6118 10
      vertex 0 -40 10
      vertex 49.2348 9.72579 10
    endloop
  endfacet
  facet normal 0 0 1
    outer loop
      vertex 64.6127 43.1527 10
      vertex 49.2348 9.72579 10
      vertex 56 14.641 10
    endloop
  endfacet
  facet normal 0 0 1
    outer loop
      vertex 67.5 36.75 10
      vertex 56 14.641 10
      vertex 63.6393 18.0423 10
    endloop
  endfacet
  facet normal 0 0 1
    outer loop
      vertex 67.5 33.25 10
      vertex 63.6393 18.0423 10
      vertex 71.8189 19.7809 10
    endloop
  endfacet
  facet normal 0 0 1
    outer loop
      vertex 76 72 10
      vertex 71.8189 19.7809 10
      vertex 76 19.7809 10
    endloop
  endfacet
  facet normal 0 0 1
    outer loop
      vertex 66.7268 53.0989 10
      vertex 67 50.5 10
      vertex 76 72 10
    endloop
  endfacet
  facet normal 0 0 1
    outer loop
      vertex 40.75 68.5 10
      vertex 40.75 63.5 10
      vertex 76 72 10
    endloop
  endfacet
  facet normal 0 0 1
    outer loop
      vertex 20 0 10
      vertex 7.89338 -18.2323 10
      vertex 8.625 -17.6184 10
    endloop
  endfacet
  facet normal 0 0 1
    outer loop
      vertex 7.41585 -19.0594 10
      vertex 0 0 10
      vertex 0 -40 10
    endloop
  endfacet
  facet normal 0 0 1
    outer loop
      vertex 0 37.359 10
      vertex 0 20 10
      vertex 6.76522 42.2742 10
    endloop
  endfacet
  facet normal 0 0 1
    outer loop
      vertex 12.1066 -21.7677 10
      vertex 11.375 -22.3816 10
      vertex 0 -40 10
    endloop
  endfacet
  facet normal 0 0 1
    outer loop
      vertex 7.89338 -18.2323 10
      vertex 0 0 10
      vertex 7.41585 -19.0594 10
    endloop
  endfacet
  facet normal 0 0 1
    outer loop
      vertex 9.52247 -17.2918 10
      vertex 10.4775 -17.2918 10
      vertex 20 0 10
    endloop
  endfacet
  facet normal 0 0 1
    outer loop
      vertex 0 -40 10
      vertex 0 -80 10
      vertex 7.41585 -60.9406 10
    endloop
  endfacet
  facet normal 0 0 1
    outer loop
      vertex 10.4775 -62.7082 10
      vertex 9.52247 -62.7082 10
      vertex 36 -80 10
    endloop
  endfacet
  facet normal 0 0 1
    outer loop
      vertex 0 -40 10
      vertex 7.41585 -60.9406 10
      vertex 7.25 -60 10
    endloop
  endfacet
  facet normal 0 0 1
    outer loop
      vertex 11.375 -62.3816 10
      vertex 10.4775 -62.7082 10
      vertex 36 -80 10
    endloop
  endfacet
  facet normal 0 0 1
    outer loop
      vertex 0 -40 10
      vertex 7.25 -60 10
      vertex 7.41585 -59.0594 10
    endloop
  endfacet
  facet normal 0 0 1
    outer loop
      vertex 12.1066 -61.7677 10
      vertex 11.375 -62.3816 10
      vertex 36 -80 10
    endloop
  endfacet
  facet normal 0 0 1
    outer loop
      vertex 0 -40 10
      vertex 7.41585 -59.0594 10
      vertex 7.89338 -58.2323 10
    endloop
  endfacet
  facet normal 0 0 1
    outer loop
      vertex 12.5842 -60.9406 10
      vertex 12.1066 -61.7677 10
      vertex 36 -80 10
    endloop
  endfacet
  facet normal 0 0 1
    outer loop
      vertex 0 -40 10
      vertex 7.89338 -58.2323 10
      vertex 8.625 -57.6184 10
    endloop
  endfacet
  facet normal 0 0 1
    outer loop
      vertex 10.4775 -17.2918 10
      vertex 11.375 -17.6184 10
      vertex 20 0 10
    endloop
  endfacet
  facet normal 0 0 1
    outer loop
      vertex 0 -40 10
      vertex 8.625 -57.6184 10
      vertex 9.52247 -57.2918 10
    endloop
  endfacet
  facet normal 0 0 1
    outer loop
      vertex 0 -40 10
      vertex 9.52247 -57.2918 10
      vertex 10.4775 -57.2918 10
    endloop
  endfacet
  facet normal 0 0 1
    outer loop
      vertex 12.5842 -59.0594 10
      vertex 12.75 -60 10
      vertex 36 -80 10
    endloop
  endfacet
  facet normal 0 0 1
    outer loop
      vertex 0 -40 10
      vertex 10.4775 -57.2918 10
      vertex 11.375 -57.6184 10
    endloop
  endfacet
  facet normal 0 0 1
    outer loop
      vertex 0 -40 10
      vertex 12.1066 -58.2323 10
      vertex 36 -80 10
    endloop
  endfacet
  facet normal 0 0 1
    outer loop
      vertex 0 -40 10
      vertex 11.375 -57.6184 10
      vertex 12.1066 -58.2323 10
    endloop
  endfacet
  facet normal 0 0 1
    outer loop
      vertex 8.625 -62.3816 10
      vertex 0 -80 10
      vertex 9.52247 -62.7082 10
    endloop
  endfacet
  facet normal 0 0 1
    outer loop
      vertex 7.89338 -61.7677 10
      vertex 0 -80 10
      vertex 8.625 -62.3816 10
    endloop
  endfacet
  facet normal 0 0 1
    outer loop
      vertex 7.41585 -60.9406 10
      vertex 0 -80 10
      vertex 7.89338 -61.7677 10
    endloop
  endfacet
  facet normal 0 0 1
    outer loop
      vertex 7.25 -20 10
      vertex 0 -40 10
      vertex 7.41585 -20.9406 10
    endloop
  endfacet
  facet normal 0 0 1
    outer loop
      vertex 7.41585 -19.0594 10
      vertex 0 -40 10
      vertex 7.25 -20 10
    endloop
  endfacet
  facet normal 0 0 1
    outer loop
      vertex 12.75 -60 10
      vertex 12.5842 -60.9406 10
      vertex 36 -80 10
    endloop
  endfacet
  facet normal 0 0 1
    outer loop
      vertex 12.1066 -58.2323 10
      vertex 12.5842 -59.0594 10
      vertex 36 -80 10
    endloop
  endfacet
  facet normal 0 0 1
    outer loop
      vertex 69.4697 62.9948 10
      vertex 66.9948 65.4697 10
      vertex 62.8641 59.7893 10
    endloop
  endfacet
  facet normal 0 0 1
    outer loop
      vertex 60.75 61.3253 10
      vertex 62.8641 59.7893 10
      vertex 66.9948 65.4697 10
    endloop
  endfacet
  facet normal 0 0 1
    outer loop
      vertex 8.625 -17.6184 10
      vertex 9.52247 -17.2918 10
      vertex 20 0 10
    endloop
  endfacet
  facet normal 0 0 1
    outer loop
      vertex 50.6373 38.6118 10
      vertex 48.25 39.6747 10
      vertex 20 0 10
    endloop
  endfacet
  facet normal 0 0 1
    outer loop
      vertex 9.52247 -22.7082 10
      vertex 8.625 -22.3816 10
      vertex 0 -40 10
    endloop
  endfacet
  facet normal 0 0 1
    outer loop
      vertex 46.1359 41.2107 10
      vertex 44.3873 43.1527 10
      vertex 37.854 36.3226 10
    endloop
  endfacet
  facet normal 0 0 1
    outer loop
      vertex 37.854 36.3226 10
      vertex 44.3873 43.1527 10
      vertex 20 20 10
    endloop
  endfacet
  facet normal 0 0 1
    outer loop
      vertex 46.1359 41.2107 10
      vertex 37.854 36.3226 10
      vertex 38.7509 36.7322 10
    endloop
  endfacet
  facet normal 0 0 1
    outer loop
      vertex 11.375 -22.3816 10
      vertex 10.4775 -22.7082 10
      vertex 0 -40 10
    endloop
  endfacet
  facet normal 0 0 1
    outer loop
      vertex 37.25 63.5 10
      vertex 37.25 68.5 10
      vertex 19.1259 63.6835 10
    endloop
  endfacet
  facet normal 0 0 1
    outer loop
      vertex 8.625 -22.3816 10
      vertex 7.89338 -21.7677 10
      vertex 0 -40 10
    endloop
  endfacet
  facet normal 0 0 1
    outer loop
      vertex 10.4775 -22.7082 10
      vertex 9.52247 -22.7082 10
      vertex 0 -40 10
    endloop
  endfacet
  facet normal 0 0 1
    outer loop
      vertex 7.41585 -20.9406 10
      vertex 0 -40 10
      vertex 7.89338 -21.7677 10
    endloop
  endfacet
  facet normal 0 0 1
    outer loop
      vertex 53.1934 62.9315 10
      vertex 55.8066 62.9315 10
      vertex 76 72 10
    endloop
  endfacet
  facet normal 0 0 1
    outer loop
      vertex 19.1259 63.6835 10
      vertex 20 20 10
      vertex 37.25 63.5 10
    endloop
  endfacet
  facet normal 0 0 1
    outer loop
      vertex 20 72 10
      vertex 37.25 68.5 10
      vertex 76 72 10
    endloop
  endfacet
  facet normal 0 0 1
    outer loop
      vertex 20 72 10
      vertex 19.1259 63.6835 10
      vertex 37.25 68.5 10
    endloop
  endfacet
  facet normal 0 0 1
    outer loop
      vertex 37.25 68.5 10
      vertex 40.75 68.5 10
      vertex 76 72 10
    endloop
  endfacet
  facet normal 0 0 1
    outer loop
      vertex 37.25 63.5 10
      vertex 20 20 10
      vertex 40.75 63.5 10
    endloop
  endfacet
  facet normal 0 0 1
    outer loop
      vertex 40.4722 34.0539 10
      vertex 39.727 33.4081 10
      vertex 20 0 10
    endloop
  endfacet
  facet normal 0 0 1
    outer loop
      vertex 20 20 10
      vertex 20 0 10
      vertex 37.3209 34.507 10
    endloop
  endfacet
  facet normal 0 0 1
    outer loop
      vertex 48.25 39.6747 10
      vertex 46.1359 41.2107 10
      vertex 40.75 35 10
    endloop
  endfacet
  facet normal 0 0 1
    outer loop
      vertex 20 20 10
      vertex 37.3209 34.507 10
      vertex 37.3209 35.493 10
    endloop
  endfacet
  facet normal 0 0 1
    outer loop
      vertex 20 20 10
      vertex 37.3209 35.493 10
      vertex 37.854 36.3226 10
    endloop
  endfacet
  facet normal 0 0 1
    outer loop
      vertex 53.1934 38.0685 10
      vertex 12.1066 -18.2323 10
      vertex 12.5842 -19.0594 10
    endloop
  endfacet
  facet normal 0 0 1
    outer loop
      vertex 53.1934 38.0685 10
      vertex 12.75 -20 10
      vertex 12.5842 -20.9406 10
    endloop
  endfacet
  facet normal 0 0 1
    outer loop
      vertex 53.1934 38.0685 10
      vertex 12.5842 -20.9406 10
      vertex 12.1066 -21.7677 10
    endloop
  endfacet
  facet normal 0 0 1
    outer loop
      vertex 39.727 33.4081 10
      vertex 38.7509 33.2678 10
      vertex 20 0 10
    endloop
  endfacet
  facet normal 0 0 1
    outer loop
      vertex 38.7509 33.2678 10
      vertex 37.854 33.6774 10
      vertex 20 0 10
    endloop
  endfacet
  facet normal 0 0 1
    outer loop
      vertex 42 50.5 10
      vertex 42.2732 53.0989 10
      vertex 40.75 63.5 10
    endloop
  endfacet
  facet normal 0 0 1
    outer loop
      vertex 37.3209 34.507 10
      vertex 20 0 10
      vertex 37.854 33.6774 10
    endloop
  endfacet
  facet normal 0 0 1
    outer loop
      vertex 42 50.5 10
      vertex 20 20 10
      vertex 42.2732 47.9011 10
    endloop
  endfacet
  facet normal 0 0 1
    outer loop
      vertex 50.6373 62.3882 10
      vertex 53.1934 62.9315 10
      vertex 76 72 10
    endloop
  endfacet
  facet normal 0 0 1
    outer loop
      vertex 40.75 63.5 10
      vertex 20 20 10
      vertex 42 50.5 10
    endloop
  endfacet
  facet normal 0 0 1
    outer loop
      vertex 40.75 63.5 10
      vertex 42.2732 53.0989 10
      vertex 43.0807 55.5842 10
    endloop
  endfacet
  facet normal 0 0 1
    outer loop
      vertex 55.8066 62.9315 10
      vertex 58.3627 62.3882 10
      vertex 76 72 10
    endloop
  endfacet
  facet normal 0 0 1
    outer loop
      vertex 40.75 63.5 10
      vertex 43.0807 55.5842 10
      vertex 44.3873 57.8473 10
    endloop
  endfacet
  facet normal 0 0 1
    outer loop
      vertex 58.3627 62.3882 10
      vertex 60.75 61.3253 10
      vertex 70.5303 69.0052 10
    endloop
  endfacet
  facet normal 0 0 1
    outer loop
      vertex 40.75 63.5 10
      vertex 44.3873 57.8473 10
      vertex 46.1359 59.7893 10
    endloop
  endfacet
  facet normal 0 0 1
    outer loop
      vertex 40.75 63.5 10
      vertex 46.1359 59.7893 10
      vertex 48.25 61.3253 10
    endloop
  endfacet
  facet normal 0 0 1
    outer loop
      vertex 40.75 63.5 10
      vertex 50.6373 62.3882 10
      vertex 76 72 10
    endloop
  endfacet
  facet normal 0 0 1
    outer loop
      vertex 40.75 63.5 10
      vertex 48.25 61.3253 10
      vertex 50.6373 62.3882 10
    endloop
  endfacet
  facet normal 0 0 1
    outer loop
      vertex 73.0052 66.5303 10
      vertex 69.4697 62.9948 10
      vertex 65.9193 55.5842 10
    endloop
  endfacet
  facet normal 0 0 1
    outer loop
      vertex 53.1934 38.0685 10
      vertex 12.1066 -21.7677 10
      vertex 0 -40 10
    endloop
  endfacet
  facet normal 0 0 1
    outer loop
      vertex 55.8066 38.0685 10
      vertex 53.1934 38.0685 10
      vertex 0 -40 10
    endloop
  endfacet
  facet normal 0 0 1
    outer loop
      vertex 53.1934 38.0685 10
      vertex 50.6373 38.6118 10
      vertex 11.375 -17.6184 10
    endloop
  endfacet
  facet normal 0 0 1
    outer loop
      vertex 73.0052 66.5303 10
      vertex 65.9193 55.5842 10
      vertex 66.7268 53.0989 10
    endloop
  endfacet
  facet normal 0 0 1
    outer loop
      vertex 64.6127 43.1527 10
      vertex 62.8641 41.2107 10
      vertex 49.2348 9.72579 10
    endloop
  endfacet
  facet normal 0 0 1
    outer loop
      vertex 76 72 10
      vertex 66.7268 47.9011 10
      vertex 56 14.641 10
    endloop
  endfacet
  facet normal 0 0 1
    outer loop
      vertex 76 72 10
      vertex 67 50.5 10
      vertex 66.7268 47.9011 10
    endloop
  endfacet
  facet normal 0 0 1
    outer loop
      vertex 66.7268 47.9011 10
      vertex 65.9193 45.4158 10
      vertex 56 14.641 10
    endloop
  endfacet
  facet normal 0 0 1
    outer loop
      vertex 62.8641 41.2107 10
      vertex 60.75 39.6747 10
      vertex 49.2348 9.72579 10
    endloop
  endfacet
  facet normal 0 0 1
    outer loop
      vertex 65.9193 45.4158 10
      vertex 64.6127 43.1527 10
      vertex 56 14.641 10
    endloop
  endfacet
  facet normal 0 0 1
    outer loop
      vertex 55.8066 38.0685 10
      vertex 0 -40 10
      vertex 58.3627 38.6118 10
    endloop
  endfacet
  facet normal 0 0 1
    outer loop
      vertex 53.1934 38.0685 10
      vertex 11.375 -17.6184 10
      vertex 12.1066 -18.2323 10
    endloop
  endfacet
  facet normal 0 0 1
    outer loop
      vertex 60.75 39.6747 10
      vertex 58.3627 38.6118 10
      vertex 49.2348 9.72579 10
    endloop
  endfacet
  facet normal 0 0 1
    outer loop
      vertex 20 0 10
      vertex 11.375 -17.6184 10
      vertex 50.6373 38.6118 10
    endloop
  endfacet
  facet normal 0 0 1
    outer loop
      vertex 46.1359 41.2107 10
      vertex 38.7509 36.7322 10
      vertex 39.727 36.5919 10
    endloop
  endfacet
  facet normal 0 0 1
    outer loop
      vertex 40.4722 34.0539 10
      vertex 20 0 10
      vertex 48.25 39.6747 10
    endloop
  endfacet
  facet normal 0 0 1
    outer loop
      vertex 53.1934 38.0685 10
      vertex 12.5842 -19.0594 10
      vertex 12.75 -20 10
    endloop
  endfacet
  facet normal 0 0 1
    outer loop
      vertex 40.4722 35.9461 10
      vertex 40.75 35 10
      vertex 46.1359 41.2107 10
    endloop
  endfacet
  facet normal 0 0 1
    outer loop
      vertex 46.1359 41.2107 10
      vertex 39.727 36.5919 10
      vertex 40.4722 35.9461 10
    endloop
  endfacet
  facet normal 0 0 1
    outer loop
      vertex 43.0807 45.4158 10
      vertex 20 20 10
      vertex 44.3873 43.1527 10
    endloop
  endfacet
  facet normal 0 0 1
    outer loop
      vertex 42.2732 47.9011 10
      vertex 20 20 10
      vertex 43.0807 45.4158 10
    endloop
  endfacet
  facet normal 0 0 1
    outer loop
      vertex 58.3627 62.3882 10
      vertex 70.5303 69.0052 10
      vertex 76 72 10
    endloop
  endfacet
  facet normal 0 0 1
    outer loop
      vertex 76 72 10
      vertex 73.0052 66.5303 10
      vertex 66.7268 53.0989 10
    endloop
  endfacet
  facet normal 0 0 1
    outer loop
      vertex 69.4697 62.9948 10
      vertex 62.8641 59.7893 10
      vertex 64.6127 57.8473 10
    endloop
  endfacet
  facet normal 0 0 1
    outer loop
      vertex 67.5 36.75 10
      vertex 72.5 36.75 10
      vertex 76 72 10
    endloop
  endfacet
  facet normal 0 0 1
    outer loop
      vertex 76 72 10
      vertex 56 14.641 10
      vertex 67.5 36.75 10
    endloop
  endfacet
  facet normal 0 0 1
    outer loop
      vertex 67.5 33.25 10
      vertex 67.5 36.75 10
      vertex 63.6393 18.0423 10
    endloop
  endfacet
  facet normal 0 0 1
    outer loop
      vertex 76 72 10
      vertex 72.5 33.25 10
      vertex 71.8189 19.7809 10
    endloop
  endfacet
  facet normal 0 0 1
    outer loop
      vertex 76 72 10
      vertex 72.5 36.75 10
      vertex 72.5 33.25 10
    endloop
  endfacet
  facet normal 0 0 1
    outer loop
      vertex 0 20 10
      vertex 12.3607 48.4886 10
      vertex 6.76522 42.2742 10
    endloop
  endfacet
  facet normal 0 0 1
    outer loop
      vertex 0 20 10
      vertex 16.5418 55.7305 10
      vertex 12.3607 48.4886 10
    endloop
  endfacet
  facet normal 0 0 1
    outer loop
      vertex 16.5418 55.7305 10
      vertex 20 20 10
      vertex 19.1259 63.6835 10
    endloop
  endfacet
  facet normal 0 0 1
    outer loop
      vertex 0 20 10
      vertex 20 20 10
      vertex 16.5418 55.7305 10
    endloop
  endfacet
  facet normal 0 0 1
    outer loop
      vertex 20 0 10
      vertex 0 0 10
      vertex 7.89338 -18.2323 10
    endloop
  endfacet
  facet normal 0 0 1
    outer loop
      vertex 66.9948 65.4697 10
      vertex 70.5303 69.0052 10
      vertex 60.75 61.3253 10
    endloop
  endfacet
  facet normal 0 0 1
    outer loop
      vertex 48.25 39.6747 10
      vertex 40.75 35 10
      vertex 40.4722 34.0539 10
    endloop
  endfacet
  facet normal 0 0 1
    outer loop
      vertex 70.5303 69.0052 10
      vertex 73.0052 66.5303 10
      vertex 76 72 10
    endloop
  endfacet
  facet normal 0 0 1
    outer loop
      vertex 72.5 33.25 10
      vertex 67.5 33.25 10
      vertex 71.8189 19.7809 10
    endloop
  endfacet
  facet normal 0 0 1
    outer loop
      vertex 64.6127 57.8473 10
      vertex 65.9193 55.5842 10
      vertex 69.4697 62.9948 10
    endloop
  endfacet
  facet normal 1 0 0
    outer loop
      vertex 36 -20 0
      vertex 36 -20 10
      vertex 36 -80 10
    endloop
  endfacet
  facet normal 1 0 0
    outer loop
      vertex 36 -80 0
      vertex 36 -20 0
      vertex 36 -80 10
    endloop
  endfacet
  facet normal 0.994522 -0.104528 0
    outer loop
      vertex 36.8741 -11.6835 0
      vertex 36.8741 -11.6835 10
      vertex 36 -20 10
    endloop
  endfacet
  facet normal 0.994522 -0.104528 0
    outer loop
      vertex 36 -20 0
      vertex 36.8741 -11.6835 0
      vertex 36 -20 10
    endloop
  endfacet
  facet normal 0.951057 -0.309017 0
    outer loop
      vertex 39.4582 -3.73053 0
      vertex 39.4582 -3.73053 10
      vertex 36.8741 -11.6835 10
    endloop
  endfacet
  facet normal 0.951057 -0.309017 0
    outer loop
      vertex 36.8741 -11.6835 0
      vertex 39.4582 -3.73053 0
      vertex 36.8741 -11.6835 10
    endloop
  endfacet
  facet normal 0.866025 -0.5 0
    outer loop
      vertex 43.6393 3.51141 0
      vertex 43.6393 3.51141 10
      vertex 39.4582 -3.73053 10
    endloop
  endfacet
  facet normal 0.866025 -0.5 0
    outer loop
      vertex 39.4582 -3.73053 0
      vertex 43.6393 3.51141 0
      vertex 39.4582 -3.73053 10
    endloop
  endfacet
  facet normal 0.743145 -0.669131 0
    outer loop
      vertex 49.2348 9.72579 0
      vertex 49.2348 9.72579 10
      vertex 43.6393 3.51141 10
    endloop
  endfacet
  facet normal 0.743145 -0.669131 0
    outer loop
      vertex 43.6393 3.51141 0
      vertex 49.2348 9.72579 0
      vertex 43.6393 3.51141 10
    endloop
  endfacet
  facet normal 0.587785 -0.809017 0
    outer loop
      vertex 56 14.641 0
      vertex 56 14.641 10
      vertex 49.2348 9.72579 10
    endloop
  endfacet
  facet normal 0.587785 -0.809017 0
    outer loop
      vertex 49.2348 9.72579 0
      vertex 56 14.641 0
      vertex 49.2348 9.72579 10
    endloop
  endfacet
  facet normal 0.406737 -0.913545 0
    outer loop
      vertex 63.6393 18.0423 0
      vertex 63.6393 18.0423 10
      vertex 56 14.641 10
    endloop
  endfacet
  facet normal 0.406737 -0.913545 0
    outer loop
      vertex 56 14.641 0
      vertex 63.6393 18.0423 0
      vertex 56 14.641 10
    endloop
  endfacet
  facet normal 0.207912 -0.978148 0
    outer loop
      vertex 71.8189 19.7809 0
      vertex 71.8189 19.7809 10
      vertex 63.6393 18.0423 10
    endloop
  endfacet
  facet normal 0.207912 -0.978148 0
    outer loop
      vertex 63.6393 18.0423 0
      vertex 71.8189 19.7809 0
      vertex 63.6393 18.0423 10
    endloop
  endfacet
  facet normal 0 -1 0
    outer loop
      vertex 76 19.7809 0
      vertex 76 19.7809 10
      vertex 71.8189 19.7809 10
    endloop
  endfacet
  facet normal 0 -1 0
    outer loop
      vertex 71.8189 19.7809 0
      vertex 76 19.7809 0
      vertex 71.8189 19.7809 10
    endloop
  endfacet
  facet normal 1 0 0
    outer loop
      vertex 76 19.7809 10
      vertex 76 19.7809 0
      vertex 76 72 0
    endloop
  endfacet
  facet normal 1 0 0
    outer loop
      vertex 76 72 10
      vertex 76 19.7809 10
      vertex 76 72 0
    endloop
  endfacet
  facet normal 0 1 0
    outer loop
      vertex 20 72 0
      vertex 20 72 10
      vertex 76 72 0
    endloop
  endfacet
  facet normal 0 1 0
    outer loop
      vertex 76 72 0
      vertex 20 72 10
      vertex 76 72 10
    endloop
  endfacet
  facet normal -0.994522 0.104528 0
    outer loop
      vertex 20 72 10
      vertex 20 72 0
      vertex 19.1259 63.6835 10
    endloop
  endfacet
  facet normal -0.994522 0.104528 0
    outer loop
      vertex 19.1259 63.6835 10
      vertex 20 72 0
      vertex 19.1259 63.6835 0
    endloop
  endfacet
  facet normal -0.951057 0.309017 0
    outer loop
      vertex 19.1259 63.6835 10
      vertex 19.1259 63.6835 0
      vertex 16.5418 55.7305 10
    endloop
  endfacet
  facet normal -0.951057 0.309017 0
    outer loop
      vertex 16.5418 55.7305 10
      vertex 19.1259 63.6835 0
      vertex 16.5418 55.7305 0
    endloop
  endfacet
  facet normal -0.866025 0.5 0
    outer loop
      vertex 16.5418 55.7305 10
      vertex 16.5418 55.7305 0
      vertex 12.3607 48.4886 10
    endloop
  endfacet
  facet normal -0.866025 0.5 0
    outer loop
      vertex 12.3607 48.4886 10
      vertex 16.5418 55.7305 0
      vertex 12.3607 48.4886 0
    endloop
  endfacet
  facet normal -0.743145 0.669131 0
    outer loop
      vertex 12.3607 48.4886 10
      vertex 12.3607 48.4886 0
      vertex 6.76522 42.2742 10
    endloop
  endfacet
  facet normal -0.743145 0.669131 0
    outer loop
      vertex 6.76522 42.2742 10
      vertex 12.3607 48.4886 0
      vertex 6.76522 42.2742 0
    endloop
  endfacet
  facet normal -0.587785 0.809017 0
    outer loop
      vertex 6.76522 42.2742 10
      vertex 6.76522 42.2742 0
      vertex 0 37.359 10
    endloop
  endfacet
  facet normal -0.587785 0.809017 0
    outer loop
      vertex 0 37.359 10
      vertex 6.76522 42.2742 0
      vertex 0 37.359 0
    endloop
  endfacet
  facet normal 0.984808 -0.173648 0
    outer loop
      vertex 7.41585 -59.0594 0
      vertex 7.41585 -59.0594 10
      vertex 7.25 -60 10
    endloop
  endfacet
  facet normal 0.984808 -0.173648 0
    outer loop
      vertex 7.25 -60 0
      vertex 7.41585 -59.0594 0
      vertex 7.25 -60 10
    endloop
  endfacet
  facet normal 0.984808 0.173648 0
    outer loop
      vertex 7.25 -60 10
      vertex 7.41585 -60.9406 10
      vertex 7.41585 -60.9406 0
    endloop
  endfacet
  facet normal 0.984808 0.173648 0
    outer loop
      vertex 7.25 -60 0
      vertex 7.25 -60 10
      vertex 7.41585 -60.9406 0
    endloop
  endfacet
  facet normal 0.866025 -0.5 0
    outer loop
      vertex 7.89338 -58.2323 0
      vertex 7.89338 -58.2323 10
      vertex 7.41585 -59.0594 10
    endloop
  endfacet
  facet normal 0.866025 -0.5 0
    outer loop
      vertex 7.41585 -59.0594 0
      vertex 7.89338 -58.2323 0
      vertex 7.41585 -59.0594 10
    endloop
  endfacet
  facet normal 0.642788 -0.766044 0
    outer loop
      vertex 8.625 -57.6184 0
      vertex 8.625 -57.6184 10
      vertex 7.89338 -58.2323 10
    endloop
  endfacet
  facet normal 0.642788 -0.766044 0
    outer loop
      vertex 7.89338 -58.2323 0
      vertex 8.625 -57.6184 0
      vertex 7.89338 -58.2323 10
    endloop
  endfacet
  facet normal 0.34202 -0.939693 0
    outer loop
      vertex 9.52247 -57.2918 0
      vertex 9.52247 -57.2918 10
      vertex 8.625 -57.6184 10
    endloop
  endfacet
  facet normal 0.34202 -0.939693 0
    outer loop
      vertex 8.625 -57.6184 0
      vertex 9.52247 -57.2918 0
      vertex 8.625 -57.6184 10
    endloop
  endfacet
  facet normal 0 -1 0
    outer loop
      vertex 10.4775 -57.2918 0
      vertex 10.4775 -57.2918 10
      vertex 9.52247 -57.2918 10
    endloop
  endfacet
  facet normal 0 -1 0
    outer loop
      vertex 9.52247 -57.2918 0
      vertex 10.4775 -57.2918 0
      vertex 9.52247 -57.2918 10
    endloop
  endfacet
  facet normal -0.34202 -0.939693 0
    outer loop
      vertex 11.375 -57.6184 0
      vertex 11.375 -57.6184 10
      vertex 10.4775 -57.2918 10
    endloop
  endfacet
  facet normal -0.34202 -0.939693 0
    outer loop
      vertex 10.4775 -57.2918 0
      vertex 11.375 -57.6184 0
      vertex 10.4775 -57.2918 10
    endloop
  endfacet
  facet normal -0.642788 -0.766044 0
    outer loop
      vertex 12.1066 -58.2323 0
      vertex 12.1066 -58.2323 10
      vertex 11.375 -57.6184 10
    endloop
  endfacet
  facet normal -0.642788 -0.766044 0
    outer loop
      vertex 11.375 -57.6184 0
      vertex 12.1066 -58.2323 0
      vertex 11.375 -57.6184 10
    endloop
  endfacet
  facet normal -0.866025 -0.5 0
    outer loop
      vertex 12.5842 -59.0594 10
      vertex 12.1066 -58.2323 10
      vertex 12.5842 -59.0594 0
    endloop
  endfacet
  facet normal -0.866025 -0.5 0
    outer loop
      vertex 12.5842 -59.0594 0
      vertex 12.1066 -58.2323 10
      vertex 12.1066 -58.2323 0
    endloop
  endfacet
  facet normal -0.984808 -0.173648 0
    outer loop
      vertex 12.75 -60 10
      vertex 12.5842 -59.0594 10
      vertex 12.75 -60 0
    endloop
  endfacet
  facet normal -0.984808 -0.173648 0
    outer loop
      vertex 12.75 -60 0
      vertex 12.5842 -59.0594 10
      vertex 12.5842 -59.0594 0
    endloop
  endfacet
  facet normal -0.984808 0.173648 0
    outer loop
      vertex 12.75 -60 10
      vertex 12.75 -60 0
      vertex 12.5842 -60.9406 10
    endloop
  endfacet
  facet normal -0.984808 0.173648 0
    outer loop
      vertex 12.5842 -60.9406 10
      vertex 12.75 -60 0
      vertex 12.5842 -60.9406 0
    endloop
  endfacet
  facet normal -0.866025 0.5 0
    outer loop
      vertex 12.5842 -60.9406 10
      vertex 12.5842 -60.9406 0
      vertex 12.1066 -61.7677 10
    endloop
  endfacet
  facet normal -0.866025 0.5 0
    outer loop
      vertex 12.1066 -61.7677 10
      vertex 12.5842 -60.9406 0
      vertex 12.1066 -61.7677 0
    endloop
  endfacet
  facet normal -0.642788 0.766044 0
    outer loop
      vertex 12.1066 -61.7677 10
      vertex 12.1066 -61.7677 0
      vertex 11.375 -62.3816 10
    endloop
  endfacet
  facet normal -0.642788 0.766044 0
    outer loop
      vertex 11.375 -62.3816 10
      vertex 12.1066 -61.7677 0
      vertex 11.375 -62.3816 0
    endloop
  endfacet
  facet normal -0.34202 0.939693 0
    outer loop
      vertex 11.375 -62.3816 10
      vertex 11.375 -62.3816 0
      vertex 10.4775 -62.7082 10
    endloop
  endfacet
  facet normal -0.34202 0.939693 0
    outer loop
      vertex 10.4775 -62.7082 10
      vertex 11.375 -62.3816 0
      vertex 10.4775 -62.7082 0
    endloop
  endfacet
  facet normal 0 1 0
    outer loop
      vertex 10.4775 -62.7082 10
      vertex 10.4775 -62.7082 0
      vertex 9.52247 -62.7082 10
    endloop
  endfacet
  facet normal 0 1 0
    outer loop
      vertex 9.52247 -62.7082 10
      vertex 10.4775 -62.7082 0
      vertex 9.52247 -62.7082 0
    endloop
  endfacet
  facet normal 0.34202 0.939693 0
    outer loop
      vertex 9.52247 -62.7082 10
      vertex 9.52247 -62.7082 0
      vertex 8.625 -62.3816 10
    endloop
  endfacet
  facet normal 0.34202 0.939693 0
    outer loop
      vertex 8.625 -62.3816 10
      vertex 9.52247 -62.7082 0
      vertex 8.625 -62.3816 0
    endloop
  endfacet
  facet normal 0.642788 0.766044 0
    outer loop
      vertex 8.625 -62.3816 10
      vertex 8.625 -62.3816 0
      vertex 7.89338 -61.7677 10
    endloop
  endfacet
  facet normal 0.642788 0.766044 0
    outer loop
      vertex 7.89338 -61.7677 10
      vertex 8.625 -62.3816 0
      vertex 7.89338 -61.7677 0
    endloop
  endfacet
  facet normal 0.866025 0.5 0
    outer loop
      vertex 7.41585 -60.9406 10
      vertex 7.89338 -61.7677 10
      vertex 7.89338 -61.7677 0
    endloop
  endfacet
  facet normal 0.866025 0.5 0
    outer loop
      vertex 7.41585 -60.9406 0
      vertex 7.41585 -60.9406 10
      vertex 7.89338 -61.7677 0
    endloop
  endfacet
  facet normal 0.984808 -0.173648 0
    outer loop
      vertex 7.41585 -19.0594 0
      vertex 7.41585 -19.0594 10
      vertex 7.25 -20 10
    endloop
  endfacet
  facet normal 0.984808 -0.173648 0
    outer loop
      vertex 7.25 -20 0
      vertex 7.41585 -19.0594 0
      vertex 7.25 -20 10
    endloop
  endfacet
  facet normal 0.984808 0.173648 0
    outer loop
      vertex 7.25 -20 10
      vertex 7.41585 -20.9406 10
      vertex 7.41585 -20.9406 0
    endloop
  endfacet
  facet normal 0.984808 0.173648 0
    outer loop
      vertex 7.25 -20 0
      vertex 7.25 -20 10
      vertex 7.41585 -20.9406 0
    endloop
  endfacet
  facet normal 0.866025 -0.5 0
    outer loop
      vertex 7.89338 -18.2323 0
      vertex 7.89338 -18.2323 10
      vertex 7.41585 -19.0594 10
    endloop
  endfacet
  facet normal 0.866025 -0.5 0
    outer loop
      vertex 7.41585 -19.0594 0
      vertex 7.89338 -18.2323 0
      vertex 7.41585 -19.0594 10
    endloop
  endfacet
  facet normal 0.642788 -0.766044 0
    outer loop
      vertex 8.625 -17.6184 0
      vertex 8.625 -17.6184 10
      vertex 7.89338 -18.2323 10
    endloop
  endfacet
  facet normal 0.642788 -0.766044 0
    outer loop
      vertex 7.89338 -18.2323 0
      vertex 8.625 -17.6184 0
      vertex 7.89338 -18.2323 10
    endloop
  endfacet
  facet normal 0.34202 -0.939693 0
    outer loop
      vertex 9.52247 -17.2918 0
      vertex 9.52247 -17.2918 10
      vertex 8.625 -17.6184 10
    endloop
  endfacet
  facet normal 0.34202 -0.939693 0
    outer loop
      vertex 8.625 -17.6184 0
      vertex 9.52247 -17.2918 0
      vertex 8.625 -17.6184 10
    endloop
  endfacet
  facet normal 0 -1 0
    outer loop
      vertex 10.4775 -17.2918 0
      vertex 10.4775 -17.2918 10
      vertex 9.52247 -17.2918 10
    endloop
  endfacet
  facet normal 0 -1 0
    outer loop
      vertex 9.52247 -17.2918 0
      vertex 10.4775 -17.2918 0
      vertex 9.52247 -17.2918 10
    endloop
  endfacet
  facet normal -0.34202 -0.939693 0
    outer loop
      vertex 11.375 -17.6184 0
      vertex 11.375 -17.6184 10
      vertex 10.4775 -17.2918 10
    endloop
  endfacet
  facet normal -0.34202 -0.939693 0
    outer loop
      vertex 10.4775 -17.2918 0
      vertex 11.375 -17.6184 0
      vertex 10.4775 -17.2918 10
    endloop
  endfacet
  facet normal -0.642788 -0.766044 0
    outer loop
      vertex 12.1066 -18.2323 0
      vertex 12.1066 -18.2323 10
      vertex 11.375 -17.6184 10
    endloop
  endfacet
  facet normal -0.642788 -0.766044 0
    outer loop
      vertex 11.375 -17.6184 0
      vertex 12.1066 -18.2323 0
      vertex 11.375 -17.6184 10
    endloop
  endfacet
  facet normal -0.866025 -0.5 0
    outer loop
      vertex 12.5842 -19.0594 10
      vertex 12.1066 -18.2323 10
      vertex 12.5842 -19.0594 0
    endloop
  endfacet
  facet normal -0.866025 -0.5 0
    outer loop
      vertex 12.5842 -19.0594 0
      vertex 12.1066 -18.2323 10
      vertex 12.1066 -18.2323 0
    endloop
  endfacet
  facet normal -0.984808 -0.173648 0
    outer loop
      vertex 12.75 -20 10
      vertex 12.5842 -19.0594 10
      vertex 12.75 -20 0
    endloop
  endfacet
  facet normal -0.984808 -0.173648 0
    outer loop
      vertex 12.75 -20 0
      vertex 12.5842 -19.0594 10
      vertex 12.5842 -19.0594 0
    endloop
  endfacet
  facet normal -0.984808 0.173648 0
    outer loop
      vertex 12.75 -20 10
      vertex 12.75 -20 0
      vertex 12.5842 -20.9406 10
    endloop
  endfacet
  facet normal -0.984808 0.173648 0
    outer loop
      vertex 12.5842 -20.9406 10
      vertex 12.75 -20 0
      vertex 12.5842 -20.9406 0
    endloop
  endfacet
  facet normal -0.866025 0.5 0
    outer loop
      vertex 12.5842 -20.9406 10
      vertex 12.5842 -20.9406 0
      vertex 12.1066 -21.7677 10
    endloop
  endfacet
  facet normal -0.866025 0.5 0
    outer loop
      vertex 12.1066 -21.7677 10
      vertex 12.5842 -20.9406 0
      vertex 12.1066 -21.7677 0
    endloop
  endfacet
  facet normal -0.642788 0.766044 0
    outer loop
      vertex 12.1066 -21.7677 10
      vertex 12.1066 -21.7677 0
      vertex 11.375 -22.3816 10
    endloop
  endfacet
  facet normal -0.642788 0.766044 0
    outer loop
      vertex 11.375 -22.3816 10
      vertex 12.1066 -21.7677 0
      vertex 11.375 -22.3816 0
    endloop
  endfacet
  facet normal -0.34202 0.939693 0
    outer loop
      vertex 11.375 -22.3816 10
      vertex 11.375 -22.3816 0
      vertex 10.4775 -22.7082 10
    endloop
  endfacet
  facet normal -0.34202 0.939693 0
    outer loop
      vertex 10.4775 -22.7082 10
      vertex 11.375 -22.3816 0
      vertex 10.4775 -22.7082 0
    endloop
  endfacet
  facet normal 0 1 0
    outer loop
      vertex 10.4775 -22.7082 10
      vertex 10.4775 -22.7082 0
      vertex 9.52247 -22.7082 10
    endloop
  endfacet
  facet normal 0 1 0
    outer loop
      vertex 9.52247 -22.7082 10
      vertex 10.4775 -22.7082 0
      vertex 9.52247 -22.7082 0
    endloop
  endfacet
  facet normal 0.34202 0.939693 0
    outer loop
      vertex 9.52247 -22.7082 10
      vertex 9.52247 -22.7082 0
      vertex 8.625 -22.3816 10
    endloop
  endfacet
  facet normal 0.34202 0.939693 0
    outer loop
      vertex 8.625 -22.3816 10
      vertex 9.52247 -22.7082 0
      vertex 8.625 -22.3816 0
    endloop
  endfacet
  facet normal 0.642788 0.766044 0
    outer loop
      vertex 8.625 -22.3816 10
      vertex 8.625 -22.3816 0
      vertex 7.89338 -21.7677 10
    endloop
  endfacet
  facet normal 0.642788 0.766044 0
    outer loop
      vertex 7.89338 -21.7677 10
      vertex 8.625 -22.3816 0
      vertex 7.89338 -21.7677 0
    endloop
  endfacet
  facet normal 0.866025 0.5 0
    outer loop
      vertex 7.41585 -20.9406 10
      vertex 7.89338 -21.7677 10
      vertex 7.89338 -21.7677 0
    endloop
  endfacet
  facet normal 0.866025 0.5 0
    outer loop
      vertex 7.41585 -20.9406 0
      vertex 7.41585 -20.9406 10
      vertex 7.89338 -21.7677 0
    endloop
  endfacet
  facet normal 1 0 0
    outer loop
      vertex 37.25 68.5 0
      vertex 37.25 68.5 10
      vertex 37.25 63.5 10
    endloop
  endfacet
  facet normal 1 0 0
    outer loop
      vertex 37.25 63.5 0
      vertex 37.25 68.5 0
      vertex 37.25 63.5 10
    endloop
  endfacet
  facet normal 0 -1 0
    outer loop
      vertex 40.75 68.5 0
      vertex 40.75 68.5 10
      vertex 37.25 68.5 10
    endloop
  endfacet
  facet normal 0 -1 0
    outer loop
      vertex 37.25 68.5 0
      vertex 40.75 68.5 0
      vertex 37.25 68.5 10
    endloop
  endfacet
  facet normal -1 0 0
    outer loop
      vertex 40.75 68.5 10
      vertex 40.75 68.5 0
      vertex 40.75 63.5 10
    endloop
  endfacet
  facet normal -1 0 0
    outer loop
      vertex 40.75 63.5 10
      vertex 40.75 68.5 0
      vertex 40.75 63.5 0
    endloop
  endfacet
  facet normal 0 1 0
    outer loop
      vertex 40.75 63.5 10
      vertex 40.75 63.5 0
      vertex 37.25 63.5 10
    endloop
  endfacet
  facet normal 0 1 0
    outer loop
      vertex 37.25 63.5 10
      vertex 40.75 63.5 0
      vertex 37.25 63.5 0
    endloop
  endfacet
  facet normal 0.841253 -0.540641 0
    outer loop
      vertex 37.854 36.3226 0
      vertex 37.854 36.3226 10
      vertex 37.3209 35.493 10
    endloop
  endfacet
  facet normal 0.841253 -0.540641 0
    outer loop
      vertex 37.3209 35.493 0
      vertex 37.854 36.3226 0
      vertex 37.3209 35.493 10
    endloop
  endfacet
  facet normal 1 0 0
    outer loop
      vertex 37.3209 35.493 0
      vertex 37.3209 35.493 10
      vertex 37.3209 34.507 10
    endloop
  endfacet
  facet normal 1 0 0
    outer loop
      vertex 37.3209 34.507 0
      vertex 37.3209 35.493 0
      vertex 37.3209 34.507 10
    endloop
  endfacet
  facet normal 0.415415 -0.909632 0
    outer loop
      vertex 38.7509 36.7322 0
      vertex 38.7509 36.7322 10
      vertex 37.854 36.3226 10
    endloop
  endfacet
  facet normal 0.415415 -0.909632 0
    outer loop
      vertex 37.854 36.3226 0
      vertex 38.7509 36.7322 0
      vertex 37.854 36.3226 10
    endloop
  endfacet
  facet normal -0.142315 -0.989821 0
    outer loop
      vertex 39.727 36.5919 0
      vertex 39.727 36.5919 10
      vertex 38.7509 36.7322 10
    endloop
  endfacet
  facet normal -0.142315 -0.989821 0
    outer loop
      vertex 38.7509 36.7322 0
      vertex 39.727 36.5919 0
      vertex 38.7509 36.7322 10
    endloop
  endfacet
  facet normal -0.654861 -0.75575 0
    outer loop
      vertex 40.4722 35.9461 0
      vertex 40.4722 35.9461 10
      vertex 39.727 36.5919 10
    endloop
  endfacet
  facet normal -0.654861 -0.75575 0
    outer loop
      vertex 39.727 36.5919 0
      vertex 40.4722 35.9461 0
      vertex 39.727 36.5919 10
    endloop
  endfacet
  facet normal -0.959493 -0.281732 0
    outer loop
      vertex 40.75 35 10
      vertex 40.4722 35.9461 10
      vertex 40.75 35 0
    endloop
  endfacet
  facet normal -0.959493 -0.281732 0
    outer loop
      vertex 40.75 35 0
      vertex 40.4722 35.9461 10
      vertex 40.4722 35.9461 0
    endloop
  endfacet
  facet normal -0.959493 0.281732 0
    outer loop
      vertex 40.75 35 10
      vertex 40.75 35 0
      vertex 40.4722 34.0539 10
    endloop
  endfacet
  facet normal -0.959493 0.281732 0
    outer loop
      vertex 40.4722 34.0539 10
      vertex 40.75 35 0
      vertex 40.4722 34.0539 0
    endloop
  endfacet
  facet normal -0.654861 0.75575 0
    outer loop
      vertex 40.4722 34.0539 10
      vertex 40.4722 34.0539 0
      vertex 39.727 33.4081 10
    endloop
  endfacet
  facet normal -0.654861 0.75575 0
    outer loop
      vertex 39.727 33.4081 10
      vertex 40.4722 34.0539 0
      vertex 39.727 33.4081 0
    endloop
  endfacet
  facet normal -0.142315 0.989821 0
    outer loop
      vertex 39.727 33.4081 10
      vertex 39.727 33.4081 0
      vertex 38.7509 33.2678 10
    endloop
  endfacet
  facet normal -0.142315 0.989821 0
    outer loop
      vertex 38.7509 33.2678 10
      vertex 39.727 33.4081 0
      vertex 38.7509 33.2678 0
    endloop
  endfacet
  facet normal 0.415415 0.909632 0
    outer loop
      vertex 38.7509 33.2678 10
      vertex 38.7509 33.2678 0
      vertex 37.854 33.6774 10
    endloop
  endfacet
  facet normal 0.415415 0.909632 0
    outer loop
      vertex 37.854 33.6774 10
      vertex 38.7509 33.2678 0
      vertex 37.854 33.6774 0
    endloop
  endfacet
  facet normal 0.841253 0.540641 0
    outer loop
      vertex 37.3209 34.507 10
      vertex 37.854 33.6774 10
      vertex 37.854 33.6774 0
    endloop
  endfacet
  facet normal 0.841253 0.540641 0
    outer loop
      vertex 37.3209 34.507 0
      vertex 37.3209 34.507 10
      vertex 37.854 33.6774 0
    endloop
  endfacet
  facet normal 0.994522 -0.104528 0
    outer loop
      vertex 42.2732 53.0989 0
      vertex 42.2732 53.0989 10
      vertex 42 50.5 10
    endloop
  endfacet
  facet normal 0.994522 -0.104528 0
    outer loop
      vertex 42 50.5 0
      vertex 42.2732 53.0989 0
      vertex 42 50.5 10
    endloop
  endfacet
  facet normal 0.994522 0.104528 0
    outer loop
      vertex 42 50.5 10
      vertex 42.2732 47.9011 10
      vertex 42.2732 47.9011 0
    endloop
  endfacet
  facet normal 0.994522 0.104528 0
    outer loop
      vertex 42 50.5 0
      vertex 42 50.5 10
      vertex 42.2732 47.9011 0
    endloop
  endfacet
  facet normal 0.951056 -0.309017 0
    outer loop
      vertex 43.0807 55.5842 0
      vertex 43.0807 55.5842 10
      vertex 42.2732 53.0989 10
    endloop
  endfacet
  facet normal 0.951056 -0.309017 0
    outer loop
      vertex 42.2732 53.0989 0
      vertex 43.0807 55.5842 0
      vertex 42.2732 53.0989 10
    endloop
  endfacet
  facet normal 0.866025 -0.5 0
    outer loop
      vertex 44.3873 57.8473 0
      vertex 44.3873 57.8473 10
      vertex 43.0807 55.5842 10
    endloop
  endfacet
  facet normal 0.866025 -0.5 0
    outer loop
      vertex 43.0807 55.5842 0
      vertex 44.3873 57.8473 0
      vertex 43.0807 55.5842 10
    endloop
  endfacet
  facet normal 0.743145 -0.669131 0
    outer loop
      vertex 46.1359 59.7893 0
      vertex 46.1359 59.7893 10
      vertex 44.3873 57.8473 10
    endloop
  endfacet
  facet normal 0.743145 -0.669131 0
    outer loop
      vertex 44.3873 57.8473 0
      vertex 46.1359 59.7893 0
      vertex 44.3873 57.8473 10
    endloop
  endfacet
  facet normal 0.587785 -0.809017 0
    outer loop
      vertex 48.25 61.3253 0
      vertex 48.25 61.3253 10
      vertex 46.1359 59.7893 10
    endloop
  endfacet
  facet normal 0.587785 -0.809017 0
    outer loop
      vertex 46.1359 59.7893 0
      vertex 48.25 61.3253 0
      vertex 46.1359 59.7893 10
    endloop
  endfacet
  facet normal 0.406736 -0.913546 0
    outer loop
      vertex 50.6373 62.3882 0
      vertex 50.6373 62.3882 10
      vertex 48.25 61.3253 10
    endloop
  endfacet
  facet normal 0.406736 -0.913546 0
    outer loop
      vertex 48.25 61.3253 0
      vertex 50.6373 62.3882 0
      vertex 48.25 61.3253 10
    endloop
  endfacet
  facet normal 0.207912 -0.978148 0
    outer loop
      vertex 53.1934 62.9315 0
      vertex 53.1934 62.9315 10
      vertex 50.6373 62.3882 10
    endloop
  endfacet
  facet normal 0.207912 -0.978148 0
    outer loop
      vertex 50.6373 62.3882 0
      vertex 53.1934 62.9315 0
      vertex 50.6373 62.3882 10
    endloop
  endfacet
  facet normal 0 -1 0
    outer loop
      vertex 55.8066 62.9315 0
      vertex 55.8066 62.9315 10
      vertex 53.1934 62.9315 10
    endloop
  endfacet
  facet normal 0 -1 0
    outer loop
      vertex 53.1934 62.9315 0
      vertex 55.8066 62.9315 0
      vertex 53.1934 62.9315 10
    endloop
  endfacet
  facet normal -0.207912 -0.978148 0
    outer loop
      vertex 58.3627 62.3882 0
      vertex 58.3627 62.3882 10
      vertex 55.8066 62.9315 10
    endloop
  endfacet
  facet normal -0.207912 -0.978148 0
    outer loop
      vertex 55.8066 62.9315 0
      vertex 58.3627 62.3882 0
      vertex 55.8066 62.9315 10
    endloop
  endfacet
  facet normal -0.406736 -0.913546 0
    outer loop
      vertex 60.75 61.3253 0
      vertex 60.75 61.3253 10
      vertex 58.3627 62.3882 10
    endloop
  endfacet
  facet normal -0.406736 -0.913546 0
    outer loop
      vertex 58.3627 62.3882 0
      vertex 60.75 61.3253 0
      vertex 58.3627 62.3882 10
    endloop
  endfacet
  facet normal -0.587785 -0.809017 0
    outer loop
      vertex 62.8641 59.7893 0
      vertex 62.8641 59.7893 10
      vertex 60.75 61.3253 10
    endloop
  endfacet
  facet normal -0.587785 -0.809017 0
    outer loop
      vertex 60.75 61.3253 0
      vertex 62.8641 59.7893 0
      vertex 60.75 61.3253 10
    endloop
  endfacet
  facet normal -0.743145 -0.669131 0
    outer loop
      vertex 64.6127 57.8473 10
      vertex 62.8641 59.7893 10
      vertex 64.6127 57.8473 0
    endloop
  endfacet
  facet normal -0.743145 -0.669131 0
    outer loop
      vertex 64.6127 57.8473 0
      vertex 62.8641 59.7893 10
      vertex 62.8641 59.7893 0
    endloop
  endfacet
  facet normal -0.866025 -0.5 0
    outer loop
      vertex 65.9193 55.5842 10
      vertex 64.6127 57.8473 10
      vertex 65.9193 55.5842 0
    endloop
  endfacet
  facet normal -0.866025 -0.5 0
    outer loop
      vertex 65.9193 55.5842 0
      vertex 64.6127 57.8473 10
      vertex 64.6127 57.8473 0
    endloop
  endfacet
  facet normal -0.951056 -0.309017 0
    outer loop
      vertex 66.7268 53.0989 10
      vertex 65.9193 55.5842 10
      vertex 66.7268 53.0989 0
    endloop
  endfacet
  facet normal -0.951056 -0.309017 0
    outer loop
      vertex 66.7268 53.0989 0
      vertex 65.9193 55.5842 10
      vertex 65.9193 55.5842 0
    endloop
  endfacet
  facet normal -0.994522 -0.104528 0
    outer loop
      vertex 67 50.5 10
      vertex 66.7268 53.0989 10
      vertex 67 50.5 0
    endloop
  endfacet
  facet normal -0.994522 -0.104528 0
    outer loop
      vertex 67 50.5 0
      vertex 66.7268 53.0989 10
      vertex 66.7268 53.0989 0
    endloop
  endfacet
  facet normal -0.994522 0.104528 0
    outer loop
      vertex 67 50.5 10
      vertex 67 50.5 0
      vertex 66.7268 47.9011 10
    endloop
  endfacet
  facet normal -0.994522 0.104528 0
    outer loop
      vertex 66.7268 47.9011 10
      vertex 67 50.5 0
      vertex 66.7268 47.9011 0
    endloop
  endfacet
  facet normal -0.951056 0.309017 0
    outer loop
      vertex 66.7268 47.9011 10
      vertex 66.7268 47.9011 0
      vertex 65.9193 45.4158 10
    endloop
  endfacet
  facet normal -0.951056 0.309017 0
    outer loop
      vertex 65.9193 45.4158 10
      vertex 66.7268 47.9011 0
      vertex 65.9193 45.4158 0
    endloop
  endfacet
  facet normal -0.866025 0.5 0
    outer loop
      vertex 65.9193 45.4158 10
      vertex 65.9193 45.4158 0
      vertex 64.6127 43.1527 10
    endloop
  endfacet
  facet normal -0.866025 0.5 0
    outer loop
      vertex 64.6127 43.1527 10
      vertex 65.9193 45.4158 0
      vertex 64.6127 43.1527 0
    endloop
  endfacet
  facet normal -0.743145 0.669131 0
    outer loop
      vertex 64.6127 43.1527 10
      vertex 64.6127 43.1527 0
      vertex 62.8641 41.2107 10
    endloop
  endfacet
  facet normal -0.743145 0.669131 0
    outer loop
      vertex 62.8641 41.2107 10
      vertex 64.6127 43.1527 0
      vertex 62.8641 41.2107 0
    endloop
  endfacet
  facet normal -0.587785 0.809017 0
    outer loop
      vertex 62.8641 41.2107 10
      vertex 62.8641 41.2107 0
      vertex 60.75 39.6747 10
    endloop
  endfacet
  facet normal -0.587785 0.809017 0
    outer loop
      vertex 60.75 39.6747 10
      vertex 62.8641 41.2107 0
      vertex 60.75 39.6747 0
    endloop
  endfacet
  facet normal -0.406736 0.913546 0
    outer loop
      vertex 60.75 39.6747 10
      vertex 60.75 39.6747 0
      vertex 58.3627 38.6118 10
    endloop
  endfacet
  facet normal -0.406736 0.913546 0
    outer loop
      vertex 58.3627 38.6118 10
      vertex 60.75 39.6747 0
      vertex 58.3627 38.6118 0
    endloop
  endfacet
  facet normal -0.207912 0.978148 0
    outer loop
      vertex 58.3627 38.6118 10
      vertex 58.3627 38.6118 0
      vertex 55.8066 38.0685 10
    endloop
  endfacet
  facet normal -0.207912 0.978148 0
    outer loop
      vertex 55.8066 38.0685 10
      vertex 58.3627 38.6118 0
      vertex 55.8066 38.0685 0
    endloop
  endfacet
  facet normal 0 1 0
    outer loop
      vertex 55.8066 38.0685 10
      vertex 55.8066 38.0685 0
      vertex 53.1934 38.0685 10
    endloop
  endfacet
  facet normal 0 1 0
    outer loop
      vertex 53.1934 38.0685 10
      vertex 55.8066 38.0685 0
      vertex 53.1934 38.0685 0
    endloop
  endfacet
  facet normal 0.207912 0.978148 0
    outer loop
      vertex 53.1934 38.0685 10
      vertex 53.1934 38.0685 0
      vertex 50.6373 38.6118 10
    endloop
  endfacet
  facet normal 0.207912 0.978148 0
    outer loop
      vertex 50.6373 38.6118 10
      vertex 53.1934 38.0685 0
      vertex 50.6373 38.6118 0
    endloop
  endfacet
  facet normal 0.406736 0.913546 0
    outer loop
      vertex 50.6373 38.6118 10
      vertex 50.6373 38.6118 0
      vertex 48.25 39.6747 10
    endloop
  endfacet
  facet normal 0.406736 0.913546 0
    outer loop
      vertex 48.25 39.6747 10
      vertex 50.6373 38.6118 0
      vertex 48.25 39.6747 0
    endloop
  endfacet
  facet normal 0.587785 0.809017 0
    outer loop
      vertex 48.25 39.6747 10
      vertex 48.25 39.6747 0
      vertex 46.1359 41.2107 10
    endloop
  endfacet
  facet normal 0.587785 0.809017 0
    outer loop
      vertex 46.1359 41.2107 10
      vertex 48.25 39.6747 0
      vertex 46.1359 41.2107 0
    endloop
  endfacet
  facet normal 0.743145 0.669131 0
    outer loop
      vertex 44.3873 43.1527 10
      vertex 46.1359 41.2107 10
      vertex 46.1359 41.2107 0
    endloop
  endfacet
  facet normal 0.743145 0.669131 0
    outer loop
      vertex 44.3873 43.1527 0
      vertex 44.3873 43.1527 10
      vertex 46.1359 41.2107 0
    endloop
  endfacet
  facet normal 0.866025 0.5 0
    outer loop
      vertex 43.0807 45.4158 10
      vertex 44.3873 43.1527 10
      vertex 44.3873 43.1527 0
    endloop
  endfacet
  facet normal 0.866025 0.5 0
    outer loop
      vertex 43.0807 45.4158 0
      vertex 43.0807 45.4158 10
      vertex 44.3873 43.1527 0
    endloop
  endfacet
  facet normal 0.951056 0.309017 0
    outer loop
      vertex 42.2732 47.9011 10
      vertex 43.0807 45.4158 10
      vertex 43.0807 45.4158 0
    endloop
  endfacet
  facet normal 0.951056 0.309017 0
    outer loop
      vertex 42.2732 47.9011 0
      vertex 42.2732 47.9011 10
      vertex 43.0807 45.4158 0
    endloop
  endfacet
  facet normal 0.707107 -0.707107 0
    outer loop
      vertex 70.5303 69.0052 0
      vertex 70.5303 69.0052 10
      vertex 66.9948 65.4697 10
    endloop
  endfacet
  facet normal 0.707107 -0.707107 0
    outer loop
      vertex 66.9948 65.4697 0
      vertex 70.5303 69.0052 0
      vertex 66.9948 65.4697 10
    endloop
  endfacet
  facet normal 0.707107 0.707107 0
    outer loop
      vertex 66.9948 65.4697 10
      vertex 69.4697 62.9948 10
      vertex 69.4697 62.9948 0
    endloop
  endfacet
  facet normal 0.707107 0.707107 0
    outer loop
      vertex 66.9948 65.4697 0
      vertex 66.9948 65.4697 10
      vertex 69.4697 62.9948 0
    endloop
  endfacet
  facet normal -0.707107 -0.707107 0
    outer loop
      vertex 73.0052 66.5303 10
      vertex 70.5303 69.0052 10
      vertex 73.0052 66.5303 0
    endloop
  endfacet
  facet normal -0.707107 -0.707107 0
    outer loop
      vertex 73.0052 66.5303 0
      vertex 70.5303 69.0052 10
      vertex 70.5303 69.0052 0
    endloop
  endfacet
  facet normal -0.707107 0.707107 0
    outer loop
      vertex 73.0052 66.5303 10
      vertex 73.0052 66.5303 0
      vertex 69.4697 62.9948 10
    endloop
  endfacet
  facet normal -0.707107 0.707107 0
    outer loop
      vertex 69.4697 62.9948 10
      vertex 73.0052 66.5303 0
      vertex 69.4697 62.9948 0
    endloop
  endfacet
  facet normal 1 0 0
    outer loop
      vertex 67.5 36.75 0
      vertex 67.5 36.75 10
      vertex 67.5 33.25 10
    endloop
  endfacet
  facet normal 1 0 0
    outer loop
      vertex 67.5 33.25 0
      vertex 67.5 36.75 0
      vertex 67.5 33.25 10
    endloop
  endfacet
  facet normal 0 -1 0
    outer loop
      vertex 72.5 36.75 0
      vertex 72.5 36.75 10
      vertex 67.5 36.75 10
    endloop
  endfacet
  facet normal 0 -1 0
    outer loop
      vertex 67.5 36.75 0
      vertex 72.5 36.75 0
      vertex 67.5 36.75 10
    endloop
  endfacet
  facet normal -1 0 0
    outer loop
      vertex 72.5 36.75 10
      vertex 72.5 36.75 0
      vertex 72.5 33.25 10
    endloop
  endfacet
  facet normal -1 0 0
    outer loop
      vertex 72.5 33.25 10
      vertex 72.5 36.75 0
      vertex 72.5 33.25 0
    endloop
  endfacet
  facet normal 0 1 0
    outer loop
      vertex 72.5 33.25 10
      vertex 72.5 33.25 0
      vertex 67.5 33.25 10
    endloop
  endfacet
  facet normal 0 1 0
    outer loop
      vertex 67.5 33.25 10
      vertex 72.5 33.25 0
      vertex 67.5 33.25 0
    endloop
  endfacet
  facet normal 0 1 0
    outer loop
      vertex 0 20 10
      vertex 0 20 50
      vertex 20 20 10
    endloop
  endfacet
  facet normal 0 1 0
    outer loop
      vertex 20 20 10
      vertex 0 20 50
      vertex 20 20 50
    endloop
  endfacet
  facet normal 0 0 1
    outer loop
      vertex 0 20 50
      vertex 0 0 50
      vertex 20 0 50
    endloop
  endfacet
  facet normal 0 0 1
    outer loop
      vertex 20 20 50
      vertex 0 20 50
      vertex 20 0 50
    endloop
  endfacet
  facet normal 0 -1 0
    outer loop
      vertex 0 0 50
      vertex 0 0 10
      vertex 20 0 10
    endloop
  endfacet
  facet normal 0 -1 0
    outer loop
      vertex 20 0 50
      vertex 0 0 50
      vertex 20 0 10
    endloop
  endfacet
  facet normal 1.93661e-16 0.992709 -0.120537
    outer loop
      vertex 10 6.11623 40.9573
      vertex 10 6 40
      vertex 0 6.11623 40.9573
    endloop
  endfacet
  facet normal 1.93661e-16 0.992709 -0.120537
    outer loop
      vertex 0 6.11623 40.9573
      vertex 10 6 40
      vertex 0 6 40
    endloop
  endfacet
  facet normal 2.4719e-16 0.992709 0.120537
    outer loop
      vertex 10 6.11623 39.0427
      vertex 0 6.11623 39.0427
      vertex 10 6 40
    endloop
  endfacet
  facet normal 2.4719e-16 0.992709 0.120537
    outer loop
      vertex 10 6 40
      vertex 0 6.11623 39.0427
      vertex 0 6 40
    endloop
  endfacet
  facet normal 1.28877e-16 0.935016 -0.354605
    outer loop
      vertex 10 6.45818 41.8589
      vertex 10 6.11623 40.9573
      vertex 0 6.45818 41.8589
    endloop
  endfacet
  facet normal 1.28877e-16 0.935016 -0.354605
    outer loop
      vertex 0 6.45818 41.8589
      vertex 10 6.11623 40.9573
      vertex 0 6.11623 40.9573
    endloop
  endfacet
  facet normal 5.66035e-17 0.822984 -0.568065
    outer loop
      vertex 10 7.00596 42.6525
      vertex 10 6.45818 41.8589
      vertex 0 7.00596 42.6525
    endloop
  endfacet
  facet normal 5.66035e-17 0.822984 -0.568065
    outer loop
      vertex 0 7.00596 42.6525
      vertex 10 6.45818 41.8589
      vertex 0 6.45818 41.8589
    endloop
  endfacet
  facet normal -1.89602e-17 0.663122 -0.748511
    outer loop
      vertex 10 7.72774 43.2919
      vertex 10 7.00596 42.6525
      vertex 0 7.72774 43.2919
    endloop
  endfacet
  facet normal -1.89602e-17 0.663122 -0.748511
    outer loop
      vertex 0 7.72774 43.2919
      vertex 10 7.00596 42.6525
      vertex 0 7.00596 42.6525
    endloop
  endfacet
  facet normal -9.34213e-17 0.464724 -0.885456
    outer loop
      vertex 10 8.58158 43.7401
      vertex 10 7.72774 43.2919
      vertex 0 8.58158 43.7401
    endloop
  endfacet
  facet normal -9.34213e-17 0.464724 -0.885456
    outer loop
      vertex 0 8.58158 43.7401
      vertex 10 7.72774 43.2919
      vertex 0 7.72774 43.2919
    endloop
  endfacet
  facet normal -1.62454e-16 0.239315 -0.970942
    outer loop
      vertex 10 9.51785 43.9708
      vertex 10 8.58158 43.7401
      vertex 0 9.51785 43.9708
    endloop
  endfacet
  facet normal -1.62454e-16 0.239315 -0.970942
    outer loop
      vertex 0 9.51785 43.9708
      vertex 10 8.58158 43.7401
      vertex 0 8.58158 43.7401
    endloop
  endfacet
  facet normal -2.22045e-16 4.93038e-32 -1
    outer loop
      vertex 10 10.4821 43.9708
      vertex 10 9.51785 43.9708
      vertex 0 10.4821 43.9708
    endloop
  endfacet
  facet normal -2.22045e-16 4.93038e-32 -1
    outer loop
      vertex 0 10.4821 43.9708
      vertex 10 9.51785 43.9708
      vertex 0 9.51785 43.9708
    endloop
  endfacet
  facet normal -2.68731e-16 -0.239315 -0.970942
    outer loop
      vertex 10 11.4184 43.7401
      vertex 10 10.4821 43.9708
      vertex 0 11.4184 43.7401
    endloop
  endfacet
  facet normal -2.68731e-16 -0.239315 -0.970942
    outer loop
      vertex 0 11.4184 43.7401
      vertex 10 10.4821 43.9708
      vertex 0 10.4821 43.9708
    endloop
  endfacet
  facet normal -2.998e-16 -0.464724 -0.885456
    outer loop
      vertex 10 12.2723 43.2919
      vertex 10 11.4184 43.7401
      vertex 0 12.2723 43.2919
    endloop
  endfacet
  facet normal -2.998e-16 -0.464724 -0.885456
    outer loop
      vertex 0 12.2723 43.2919
      vertex 10 11.4184 43.7401
      vertex 0 11.4184 43.7401
    endloop
  endfacet
  facet normal -3.13446e-16 -0.663122 -0.748511
    outer loop
      vertex 10 12.994 42.6525
      vertex 10 12.2723 43.2919
      vertex 0 12.994 42.6525
    endloop
  endfacet
  facet normal -3.13446e-16 -0.663122 -0.748511
    outer loop
      vertex 0 12.994 42.6525
      vertex 10 12.2723 43.2919
      vertex 0 12.2723 43.2919
    endloop
  endfacet
  facet normal -3.08875e-16 -0.822984 -0.568065
    outer loop
      vertex 0 13.5418 41.8589
      vertex 10 13.5418 41.8589
      vertex 10 12.994 42.6525
    endloop
  endfacet
  facet normal -3.08875e-16 -0.822984 -0.568065
    outer loop
      vertex 0 12.994 42.6525
      vertex 0 13.5418 41.8589
      vertex 10 12.994 42.6525
    endloop
  endfacet
  facet normal -2.86353e-16 -0.935016 -0.354605
    outer loop
      vertex 0 13.8838 40.9573
      vertex 10 13.8838 40.9573
      vertex 10 13.5418 41.8589
    endloop
  endfacet
  facet normal -2.86353e-16 -0.935016 -0.354605
    outer loop
      vertex 0 13.5418 41.8589
      vertex 0 13.8838 40.9573
      vertex 10 13.5418 41.8589
    endloop
  endfacet
  facet normal -2.4719e-16 -0.992709 -0.120537
    outer loop
      vertex 0 14 40
      vertex 10 14 40
      vertex 10 13.8838 40.9573
    endloop
  endfacet
  facet normal -2.4719e-16 -0.992709 -0.120537
    outer loop
      vertex 0 13.8838 40.9573
      vertex 0 14 40
      vertex 10 13.8838 40.9573
    endloop
  endfacet
  facet normal -1.93661e-16 -0.992709 0.120537
    outer loop
      vertex 10 13.8838 39.0427
      vertex 10 14 40
      vertex 0 14 40
    endloop
  endfacet
  facet normal -1.93661e-16 -0.992709 0.120537
    outer loop
      vertex 0 13.8838 39.0427
      vertex 10 13.8838 39.0427
      vertex 0 14 40
    endloop
  endfacet
  facet normal -1.28877e-16 -0.935016 0.354605
    outer loop
      vertex 10 13.5418 38.1411
      vertex 10 13.8838 39.0427
      vertex 0 13.8838 39.0427
    endloop
  endfacet
  facet normal -1.28877e-16 -0.935016 0.354605
    outer loop
      vertex 0 13.5418 38.1411
      vertex 10 13.5418 38.1411
      vertex 0 13.8838 39.0427
    endloop
  endfacet
  facet normal -5.66035e-17 -0.822984 0.568065
    outer loop
      vertex 10 12.994 37.3475
      vertex 10 13.5418 38.1411
      vertex 0 13.5418 38.1411
    endloop
  endfacet
  facet normal -5.66035e-17 -0.822984 0.568065
    outer loop
      vertex 0 12.994 37.3475
      vertex 10 12.994 37.3475
      vertex 0 13.5418 38.1411
    endloop
  endfacet
  facet normal 1.89602e-17 -0.663122 0.748511
    outer loop
      vertex 10 12.2723 36.7081
      vertex 10 12.994 37.3475
      vertex 0 12.994 37.3475
    endloop
  endfacet
  facet normal 1.89602e-17 -0.663122 0.748511
    outer loop
      vertex 0 12.2723 36.7081
      vertex 10 12.2723 36.7081
      vertex 0 12.994 37.3475
    endloop
  endfacet
  facet normal 9.34213e-17 -0.464724 0.885456
    outer loop
      vertex 10 11.4184 36.2599
      vertex 10 12.2723 36.7081
      vertex 0 12.2723 36.7081
    endloop
  endfacet
  facet normal 9.34213e-17 -0.464724 0.885456
    outer loop
      vertex 0 11.4184 36.2599
      vertex 10 11.4184 36.2599
      vertex 0 12.2723 36.7081
    endloop
  endfacet
  facet normal 1.62454e-16 -0.239315 0.970942
    outer loop
      vertex 10 10.4821 36.0292
      vertex 10 11.4184 36.2599
      vertex 0 11.4184 36.2599
    endloop
  endfacet
  facet normal 1.62454e-16 -0.239315 0.970942
    outer loop
      vertex 0 10.4821 36.0292
      vertex 10 10.4821 36.0292
      vertex 0 11.4184 36.2599
    endloop
  endfacet
  facet normal 2.22045e-16 -4.93038e-32 1
    outer loop
      vertex 10 9.51785 36.0292
      vertex 10 10.4821 36.0292
      vertex 0 10.4821 36.0292
    endloop
  endfacet
  facet normal 2.22045e-16 -4.93038e-32 1
    outer loop
      vertex 0 9.51785 36.0292
      vertex 10 9.51785 36.0292
      vertex 0 10.4821 36.0292
    endloop
  endfacet
  facet normal 2.68731e-16 0.239315 0.970942
    outer loop
      vertex 10 8.58158 36.2599
      vertex 10 9.51785 36.0292
      vertex 0 9.51785 36.0292
    endloop
  endfacet
  facet normal 2.68731e-16 0.239315 0.970942
    outer loop
      vertex 0 8.58158 36.2599
      vertex 10 8.58158 36.2599
      vertex 0 9.51785 36.0292
    endloop
  endfacet
  facet normal 2.998e-16 0.464724 0.885456
    outer loop
      vertex 10 7.72774 36.7081
      vertex 10 8.58158 36.2599
      vertex 0 8.58158 36.2599
    endloop
  endfacet
  facet normal 2.998e-16 0.464724 0.885456
    outer loop
      vertex 0 7.72774 36.7081
      vertex 10 7.72774 36.7081
      vertex 0 8.58158 36.2599
    endloop
  endfacet
  facet normal 3.13446e-16 0.663122 0.748511
    outer loop
      vertex 10 7.00596 37.3475
      vertex 10 7.72774 36.7081
      vertex 0 7.72774 36.7081
    endloop
  endfacet
  facet normal 3.13446e-16 0.663122 0.748511
    outer loop
      vertex 0 7.00596 37.3475
      vertex 10 7.00596 37.3475
      vertex 0 7.72774 36.7081
    endloop
  endfacet
  facet normal 3.08875e-16 0.822984 0.568065
    outer loop
      vertex 10 7.00596 37.3475
      vertex 0 7.00596 37.3475
      vertex 10 6.45818 38.1411
    endloop
  endfacet
  facet normal 3.08875e-16 0.822984 0.568065
    outer loop
      vertex 10 6.45818 38.1411
      vertex 0 7.00596 37.3475
      vertex 0 6.45818 38.1411
    endloop
  endfacet
  facet normal 2.86353e-16 0.935016 0.354605
    outer loop
      vertex 10 6.45818 38.1411
      vertex 0 6.45818 38.1411
      vertex 10 6.11623 39.0427
    endloop
  endfacet
  facet normal 2.86353e-16 0.935016 0.354605
    outer loop
      vertex 10 6.11623 39.0427
      vertex 0 6.45818 38.1411
      vertex 0 6.11623 39.0427
    endloop
  endfacet
  facet normal 1 0 0
    outer loop
      vertex 20 0 50
      vertex 20 0 10
      vertex 20 20 10
    endloop
  endfacet
  facet normal 1 0 0
    outer loop
      vertex 20 20 50
      vertex 20 0 50
      vertex 20 20 10
    endloop
  endfacet
  facet normal -1 2.22045e-16 2.22045e-16
    outer loop
      vertex 10 6.11623 39.0427
      vertex 10 6 40
      vertex 10 6.45818 38.1411
    endloop
  endfacet
  facet normal -1 2.22045e-16 2.22045e-16
    outer loop
      vertex 10 6.45818 38.1411
      vertex 10 6 40
      vertex 10 6.11623 40.9573
    endloop
  endfacet
  facet normal -1 2.22045e-16 2.22045e-16
    outer loop
      vertex 10 6.45818 38.1411
      vertex 10 6.11623 40.9573
      vertex 10 6.45818 41.8589
    endloop
  endfacet
  facet normal -1 2.22045e-16 2.22045e-16
    outer loop
      vertex 10 6.45818 38.1411
      vertex 10 6.45818 41.8589
      vertex 10 7.00596 42.6525
    endloop
  endfacet
  facet normal -1 2.22045e-16 2.22045e-16
    outer loop
      vertex 10 6.45818 38.1411
      vertex 10 7.00596 42.6525
      vertex 10 7.72774 43.2919
    endloop
  endfacet
  facet normal -1 2.22045e-16 2.22045e-16
    outer loop
      vertex 10 6.45818 38.1411
      vertex 10 7.72774 43.2919
      vertex 10 8.58158 43.7401
    endloop
  endfacet
  facet normal -1 2.22045e-16 2.22045e-16
    outer loop
      vertex 10 6.45818 38.1411
      vertex 10 8.58158 43.7401
      vertex 10 9.51785 43.9708
    endloop
  endfacet
  facet normal -1 2.22045e-16 2.22045e-16
    outer loop
      vertex 10 6.45818 38.1411
      vertex 10 9.51785 43.9708
      vertex 10 10.4821 43.9708
    endloop
  endfacet
  facet normal -1 2.22045e-16 2.22045e-16
    outer loop
      vertex 10 6.45818 38.1411
      vertex 10 10.4821 43.9708
      vertex 10 11.4184 43.7401
    endloop
  endfacet
  facet normal -1 2.22045e-16 2.22045e-16
    outer loop
      vertex 10 6.45818 38.1411
      vertex 10 11.4184 43.7401
      vertex 10 12.2723 43.2919
    endloop
  endfacet
  facet normal -1 2.22045e-16 2.22045e-16
    outer loop
      vertex 10 6.45818 38.1411
      vertex 10 12.2723 43.2919
      vertex 10 12.994 42.6525
    endloop
  endfacet
  facet normal -1 2.22045e-16 2.22045e-16
    outer loop
      vertex 10 6.45818 38.1411
      vertex 10 12.994 42.6525
      vertex 10 13.5418 41.8589
    endloop
  endfacet
  facet normal -1 2.22045e-16 2.22045e-16
    outer loop
      vertex 10 6.45818 38.1411
      vertex 10 13.5418 41.8589
      vertex 10 13.8838 40.9573
    endloop
  endfacet
  facet normal -1 2.22045e-16 2.22045e-16
    outer loop
      vertex 10 6.45818 38.1411
      vertex 10 13.8838 40.9573
      vertex 10 14 40
    endloop
  endfacet
  facet normal -1 2.22045e-16 2.22045e-16
    outer loop
      vertex 10 6.45818 38.1411
      vertex 10 14 40
      vertex 10 13.8838 39.0427
    endloop
  endfacet
  facet normal -1 2.22045e-16 2.22045e-16
    outer loop
      vertex 10 6.45818 38.1411
      vertex 10 13.8838 39.0427
      vertex 10 13.5418 38.1411
    endloop
  endfacet
  facet normal -1 2.22045e-16 2.22045e-16
    outer loop
      vertex 10 6.45818 38.1411
      vertex 10 13.5418 38.1411
      vertex 10 12.994 37.3475
    endloop
  endfacet
  facet normal -1 2.22045e-16 2.22045e-16
    outer loop
      vertex 10 6.45818 38.1411
      vertex 10 12.994 37.3475
      vertex 10 12.2723 36.7081
    endloop
  endfacet
  facet normal -1 2.22045e-16 2.22045e-16
    outer loop
      vertex 10 6.45818 38.1411
      vertex 10 12.2723 36.7081
      vertex 10 11.4184 36.2599
    endloop
  endfacet
  facet normal -1 2.22045e-16 2.22045e-16
    outer loop
      vertex 10 6.45818 38.1411
      vertex 10 11.4184 36.2599
      vertex 10 10.4821 36.0292
    endloop
  endfacet
  facet normal -1 2.22045e-16 2.22045e-16
    outer loop
      vertex 10 6.45818 38.1411
      vertex 10 10.4821 36.0292
      vertex 10 9.51785 36.0292
    endloop
  endfacet
  facet normal -1 2.22045e-16 2.22045e-16
    outer loop
      vertex 10 6.45818 38.1411
      vertex 10 9.51785 36.0292
      vertex 10 8.58158 36.2599
    endloop
  endfacet
  facet normal -1 2.22045e-16 2.22045e-16
    outer loop
      vertex 10 6.45818 38.1411
      vertex 10 8.58158 36.2599
      vertex 10 7.72774 36.7081
    endloop
  endfacet
  facet normal -1 2.22045e-16 2.22045e-16
    outer loop
      vertex 10 6.45818 38.1411
      vertex 10 7.72774 36.7081
      vertex 10 7.00596 37.3475
    endloop
  endfacet
endsolid OpenSCAD_Model
