solid OpenSCAD_Model
  facet normal -1 0 0
    outer loop
      vertex 0 0 0
      vertex 0 0 20
      vertex 0 55 0
    endloop
  endfacet
  facet normal -1 0 0
    outer loop
      vertex 0 46.5594 12.5842
      vertex 0 0 20
      vertex 0 55 20
    endloop
  endfacet
  facet normal -1 0 0
    outer loop
      vertex 0 44.7918 9.52247
      vertex 0 0 20
      vertex 0 44.7918 10.4775
    endloop
  endfacet
  facet normal -1 0 0
    outer loop
      vertex 0 45.1184 8.625
      vertex 0 0 20
      vertex 0 44.7918 9.52247
    endloop
  endfacet
  facet normal -1 0 0
    outer loop
      vertex 0 45.7323 7.89338
      vertex 0 0 20
      vertex 0 45.1184 8.625
    endloop
  endfacet
  facet normal -1 0 0
    outer loop
      vertex 0 55 0
      vertex 0 0 20
      vertex 0 45.7323 7.89338
    endloop
  endfacet
  facet normal -1 0 0
    outer loop
      vertex 0 47.5 7.25
      vertex 0 55 0
      vertex 0 46.5594 7.41585
    endloop
  endfacet
  facet normal -1 0 0
    outer loop
      vertex 0 48.4406 7.41585
      vertex 0 55 0
      vertex 0 47.5 7.25
    endloop
  endfacet
  facet normal -1 0 0
    outer loop
      vertex 0 50.2082 10.4775
      vertex 0 55 20
      vertex 0 50.2082 9.52247
    endloop
  endfacet
  facet normal -1 0 0
    outer loop
      vertex 0 55 0
      vertex 0 48.4406 7.41585
      vertex 0 49.2677 7.89338
    endloop
  endfacet
  facet normal -1 0 0
    outer loop
      vertex 0 55 0
      vertex 0 49.2677 7.89338
      vertex 0 49.8816 8.625
    endloop
  endfacet
  facet normal -1 0 0
    outer loop
      vertex 0 55 0
      vertex 0 49.8816 8.625
      vertex 0 55 20
    endloop
  endfacet
  facet normal -1 0 0
    outer loop
      vertex 0 49.8816 8.625
      vertex 0 50.2082 9.52247
      vertex 0 55 20
    endloop
  endfacet
  facet normal -1 0 0
    outer loop
      vertex 0 49.8816 11.375
      vertex 0 55 20
      vertex 0 50.2082 10.4775
    endloop
  endfacet
  facet normal -1 0 0
    outer loop
      vertex 0 46.5594 12.5842
      vertex 0 55 20
      vertex 0 47.5 12.75
    endloop
  endfacet
  facet normal -1 0 0
    outer loop
      vertex 0 49.8816 11.375
      vertex 0 49.2677 12.1066
      vertex 0 55 20
    endloop
  endfacet
  facet normal -1 0 0
    outer loop
      vertex 0 49.2677 12.1066
      vertex 0 48.4406 12.5842
      vertex 0 55 20
    endloop
  endfacet
  facet normal -1 0 0
    outer loop
      vertex 0 48.4406 12.5842
      vertex 0 47.5 12.75
      vertex 0 55 20
    endloop
  endfacet
  facet normal -1 0 0
    outer loop
      vertex 0 45.7323 12.1066
      vertex 0 0 20
      vertex 0 46.5594 12.5842
    endloop
  endfacet
  facet normal -1 0 0
    outer loop
      vertex 0 45.1184 11.375
      vertex 0 0 20
      vertex 0 45.7323 12.1066
    endloop
  endfacet
  facet normal -1 0 0
    outer loop
      vertex 0 44.7918 10.4775
      vertex 0 0 20
      vertex 0 45.1184 11.375
    endloop
  endfacet
  facet normal -1 0 0
    outer loop
      vertex 0 46.5594 7.41585
      vertex 0 55 0
      vertex 0 45.7323 7.89338
    endloop
  endfacet
  facet normal 0 -1 0
    outer loop
      vertex 20.5581 0 5
      vertex 0 0 0
      vertex 55 0 0
    endloop
  endfacet
  facet normal 0 -1 0
    outer loop
      vertex 46.125 0 7.61843
      vertex 0 0 20
      vertex 55 0 0
    endloop
  endfacet
  facet normal 0 -1 0
    outer loop
      vertex 0 0 20
      vertex 0 0 0
      vertex 20.5581 0 5
    endloop
  endfacet
  facet normal 0 -1 0
    outer loop
      vertex 23.6361 0 6.64597
      vertex 24.2709 0 5.92945
      vertex 55 0 0
    endloop
  endfacet
  facet normal 0 -1 0
    outer loop
      vertex 0 0 20
      vertex 20.5581 0 5
      vertex 20.5581 0 5.47863
    endloop
  endfacet
  facet normal 0 -1 0
    outer loop
      vertex 46.125 0 12.3816
      vertex 47.0225 0 12.7082
      vertex 55 0 20
    endloop
  endfacet
  facet normal 0 -1 0
    outer loop
      vertex 0 0 20
      vertex 20.5581 0 5.47863
      vertex 21.003 0 6.32624
    endloop
  endfacet
  facet normal 0 -1 0
    outer loop
      vertex 24.2709 0 5.92945
      vertex 24.5 0 5
      vertex 55 0 0
    endloop
  endfacet
  facet normal 0 -1 0
    outer loop
      vertex 0 0 20
      vertex 21.003 0 6.32624
      vertex 21.7908 0 6.87003
    endloop
  endfacet
  facet normal 0 -1 0
    outer loop
      vertex 0 0 20
      vertex 22.7411 0 6.98542
      vertex 55 0 0
    endloop
  endfacet
  facet normal 0 -1 0
    outer loop
      vertex 0 0 20
      vertex 21.7908 0 6.87003
      vertex 22.7411 0 6.98542
    endloop
  endfacet
  facet normal 0 -1 0
    outer loop
      vertex 22.7411 0 6.98542
      vertex 23.6361 0 6.64597
      vertex 55 0 0
    endloop
  endfacet
  facet normal 0 -1 0
    outer loop
      vertex 44.75 0 10
      vertex 0 0 20
      vertex 44.9158 0 9.05945
    endloop
  endfacet
  facet normal 0 -1 0
    outer loop
      vertex 44.9158 0 10.9406
      vertex 0 0 20
      vertex 44.75 0 10
    endloop
  endfacet
  facet normal 0 -1 0
    outer loop
      vertex 45.3934 0 11.7677
      vertex 0 0 20
      vertex 44.9158 0 10.9406
    endloop
  endfacet
  facet normal 0 -1 0
    outer loop
      vertex 55 0 20
      vertex 0 0 20
      vertex 45.3934 0 11.7677
    endloop
  endfacet
  facet normal 0 -1 0
    outer loop
      vertex 47.0225 0 12.7082
      vertex 47.9775 0 12.7082
      vertex 55 0 20
    endloop
  endfacet
  facet normal 0 -1 0
    outer loop
      vertex 55 0 20
      vertex 45.3934 0 11.7677
      vertex 46.125 0 12.3816
    endloop
  endfacet
  facet normal 0 -1 0
    outer loop
      vertex 47.9775 0 12.7082
      vertex 48.875 0 12.3816
      vertex 55 0 20
    endloop
  endfacet
  facet normal 0 -1 0
    outer loop
      vertex 50.0842 0 10.9406
      vertex 50.25 0 10
      vertex 55 0 0
    endloop
  endfacet
  facet normal 0 -1 0
    outer loop
      vertex 47.0225 0 7.29178
      vertex 46.125 0 7.61843
      vertex 55 0 0
    endloop
  endfacet
  facet normal 0 -1 0
    outer loop
      vertex 50.25 0 10
      vertex 50.0842 0 9.05945
      vertex 55 0 0
    endloop
  endfacet
  facet normal 0 -1 0
    outer loop
      vertex 55 0 20
      vertex 48.875 0 12.3816
      vertex 49.6066 0 11.7677
    endloop
  endfacet
  facet normal 0 -1 0
    outer loop
      vertex 55 0 20
      vertex 50.0842 0 10.9406
      vertex 55 0 0
    endloop
  endfacet
  facet normal 0 -1 0
    outer loop
      vertex 55 0 20
      vertex 49.6066 0 11.7677
      vertex 50.0842 0 10.9406
    endloop
  endfacet
  facet normal 0 -1 0
    outer loop
      vertex 50.0842 0 9.05945
      vertex 49.6066 0 8.23233
      vertex 55 0 0
    endloop
  endfacet
  facet normal 0 -1 0
    outer loop
      vertex 49.6066 0 8.23233
      vertex 48.875 0 7.61843
      vertex 55 0 0
    endloop
  endfacet
  facet normal 0 -1 0
    outer loop
      vertex 48.875 0 7.61843
      vertex 47.9775 0 7.29178
      vertex 55 0 0
    endloop
  endfacet
  facet normal 0 -1 0
    outer loop
      vertex 47.9775 0 7.29178
      vertex 47.0225 0 7.29178
      vertex 55 0 0
    endloop
  endfacet
  facet normal 0 -1 0
    outer loop
      vertex 45.3934 0 8.23233
      vertex 0 0 20
      vertex 46.125 0 7.61843
    endloop
  endfacet
  facet normal 0 -1 0
    outer loop
      vertex 44.9158 0 9.05945
      vertex 0 0 20
      vertex 45.3934 0 8.23233
    endloop
  endfacet
  facet normal 0 -1 0
    outer loop
      vertex 24.5 0 5
      vertex 20.5581 0 5
      vertex 55 0 0
    endloop
  endfacet
  facet normal 0 0 -1
    outer loop
      vertex 40 40 0
      vertex 25.961 33.1518 0
      vertex 23.6707 33.6386 0
    endloop
  endfacet
  facet normal 0 0 -1
    outer loop
      vertex 0 0 0
      vertex 0 55 0
      vertex 5 40 0
    endloop
  endfacet
  facet normal 0 0 -1
    outer loop
      vertex 0 0 0
      vertex 40 5 0
      vertex 55 0 0
    endloop
  endfacet
  facet normal 0 0 -1
    outer loop
      vertex 21.3293 11.3614 0
      vertex 40 5 0
      vertex 19.039 11.8482 0
    endloop
  endfacet
  facet normal 0 0 -1
    outer loop
      vertex 0 0 0
      vertex 5 40 0
      vertex 11.3 22.5 0
    endloop
  endfacet
  facet normal 0 0 -1
    outer loop
      vertex 0 0 0
      vertex 11.3 22.5 0
      vertex 11.5447 20.1714 0
    endloop
  endfacet
  facet normal 0 0 -1
    outer loop
      vertex 0 0 0
      vertex 11.5447 20.1714 0
      vertex 12.2683 17.9445 0
    endloop
  endfacet
  facet normal 0 0 -1
    outer loop
      vertex 0 0 0
      vertex 12.2683 17.9445 0
      vertex 13.439 15.9168 0
    endloop
  endfacet
  facet normal 0 0 -1
    outer loop
      vertex 0 0 0
      vertex 13.439 15.9168 0
      vertex 15.0057 14.1768 0
    endloop
  endfacet
  facet normal 0 0 -1
    outer loop
      vertex 0 0 0
      vertex 15.0057 14.1768 0
      vertex 16.9 12.8005 0
    endloop
  endfacet
  facet normal 0 0 -1
    outer loop
      vertex 0 0 0
      vertex 16.9 12.8005 0
      vertex 19.039 11.8482 0
    endloop
  endfacet
  facet normal 0 0 -1
    outer loop
      vertex 0 0 0
      vertex 19.039 11.8482 0
      vertex 40 5 0
    endloop
  endfacet
  facet normal 0 0 -1
    outer loop
      vertex 23.6707 11.3614 0
      vertex 40 5 0
      vertex 21.3293 11.3614 0
    endloop
  endfacet
  facet normal 0 0 -1
    outer loop
      vertex 25.961 11.8482 0
      vertex 40 5 0
      vertex 23.6707 11.3614 0
    endloop
  endfacet
  facet normal 0 0 -1
    outer loop
      vertex 28.1 12.8005 0
      vertex 40 5 0
      vertex 25.961 11.8482 0
    endloop
  endfacet
  facet normal 0 0 -1
    outer loop
      vertex 31.561 15.9168 0
      vertex 40 5 0
      vertex 29.9943 14.1768 0
    endloop
  endfacet
  facet normal 0 0 -1
    outer loop
      vertex 28.1 12.8005 0
      vertex 29.9943 14.1768 0
      vertex 40 5 0
    endloop
  endfacet
  facet normal 0 0 -1
    outer loop
      vertex 13.439 29.0832 0
      vertex 5 40 0
      vertex 15.0057 30.8232 0
    endloop
  endfacet
  facet normal 0 0 -1
    outer loop
      vertex 55 5 0
      vertex 55 0 0
      vertex 40 5 0
    endloop
  endfacet
  facet normal 0 0 -1
    outer loop
      vertex 40 40 0
      vertex 29.9943 30.8232 0
      vertex 28.1 32.1995 0
    endloop
  endfacet
  facet normal 0 0 -1
    outer loop
      vertex 40 5 0
      vertex 33.4553 24.8286 0
      vertex 40 40 0
    endloop
  endfacet
  facet normal 0 0 -1
    outer loop
      vertex 40 5 0
      vertex 33.7 22.5 0
      vertex 33.4553 24.8286 0
    endloop
  endfacet
  facet normal 0 0 -1
    outer loop
      vertex 40 5 0
      vertex 33.4553 20.1714 0
      vertex 33.7 22.5 0
    endloop
  endfacet
  facet normal 0 0 -1
    outer loop
      vertex 33.4553 24.8286 0
      vertex 32.7317 27.0554 0
      vertex 40 40 0
    endloop
  endfacet
  facet normal 0 0 -1
    outer loop
      vertex 40 5 0
      vertex 32.7317 17.9445 0
      vertex 33.4553 20.1714 0
    endloop
  endfacet
  facet normal 0 0 -1
    outer loop
      vertex 32.7317 27.0554 0
      vertex 31.561 29.0832 0
      vertex 40 40 0
    endloop
  endfacet
  facet normal 0 0 -1
    outer loop
      vertex 40 5 0
      vertex 31.561 15.9168 0
      vertex 32.7317 17.9445 0
    endloop
  endfacet
  facet normal 0 0 -1
    outer loop
      vertex 31.561 29.0832 0
      vertex 29.9943 30.8232 0
      vertex 40 40 0
    endloop
  endfacet
  facet normal 0 0 -1
    outer loop
      vertex 40 40 0
      vertex 28.1 32.1995 0
      vertex 25.961 33.1518 0
    endloop
  endfacet
  facet normal 0 0 -1
    outer loop
      vertex 5 40 0
      vertex 19.039 33.1518 0
      vertex 16.9 32.1995 0
    endloop
  endfacet
  facet normal 0 0 -1
    outer loop
      vertex 15.0057 30.8232 0
      vertex 5 40 0
      vertex 16.9 32.1995 0
    endloop
  endfacet
  facet normal 0 0 -1
    outer loop
      vertex 12.2683 27.0554 0
      vertex 5 40 0
      vertex 13.439 29.0832 0
    endloop
  endfacet
  facet normal 0 0 -1
    outer loop
      vertex 11.5447 24.8286 0
      vertex 5 40 0
      vertex 12.2683 27.0554 0
    endloop
  endfacet
  facet normal 0 0 -1
    outer loop
      vertex 11.3 22.5 0
      vertex 5 40 0
      vertex 11.5447 24.8286 0
    endloop
  endfacet
  facet normal 0 0 -1
    outer loop
      vertex 5 40 0
      vertex 0 55 0
      vertex 5 55 0
    endloop
  endfacet
  facet normal 0 0 -1
    outer loop
      vertex 40 40 0
      vertex 23.6707 33.6386 0
      vertex 21.3293 33.6386 0
    endloop
  endfacet
  facet normal 0 0 -1
    outer loop
      vertex 40 40 0
      vertex 21.3293 33.6386 0
      vertex 19.039 33.1518 0
    endloop
  endfacet
  facet normal 0 0 -1
    outer loop
      vertex 40 40 0
      vertex 19.039 33.1518 0
      vertex 5 40 0
    endloop
  endfacet
  facet normal 0 1 0
    outer loop
      vertex 0 55 0
      vertex 0 55 20
      vertex 5 55 0
    endloop
  endfacet
  facet normal 0 1 0
    outer loop
      vertex 5 55 0
      vertex 0 55 20
      vertex 5 55 20
    endloop
  endfacet
  facet normal 0 0 1
    outer loop
      vertex 5 5 20
      vertex 0 0 20
      vertex 55 0 20
    endloop
  endfacet
  facet normal 0 0 1
    outer loop
      vertex 5 5 20
      vertex 5 55 20
      vertex 0 55 20
    endloop
  endfacet
  facet normal 0 0 1
    outer loop
      vertex 0 55 20
      vertex 0 0 20
      vertex 5 5 20
    endloop
  endfacet
  facet normal 0 0 1
    outer loop
      vertex 55 5 20
      vertex 5 5 20
      vertex 55 0 20
    endloop
  endfacet
  facet normal 0 1 0
    outer loop
      vertex 5 44.7918 10.4775
      vertex 5 44.7918 9.52247
      vertex 0 44.7918 10.4775
    endloop
  endfacet
  facet normal 0 1 0
    outer loop
      vertex 0 44.7918 10.4775
      vertex 5 44.7918 9.52247
      vertex 0 44.7918 9.52247
    endloop
  endfacet
  facet normal 7.59436e-17 0.939693 -0.34202
    outer loop
      vertex 5 45.1184 11.375
      vertex 5 44.7918 10.4775
      vertex 0 45.1184 11.375
    endloop
  endfacet
  facet normal 7.59436e-17 0.939693 -0.34202
    outer loop
      vertex 0 45.1184 11.375
      vertex 5 44.7918 10.4775
      vertex 0 44.7918 10.4775
    endloop
  endfacet
  facet normal 1.42728e-16 0.766044 -0.642788
    outer loop
      vertex 5 45.7323 12.1066
      vertex 5 45.1184 11.375
      vertex 0 45.7323 12.1066
    endloop
  endfacet
  facet normal 1.42728e-16 0.766044 -0.642788
    outer loop
      vertex 0 45.7323 12.1066
      vertex 5 45.1184 11.375
      vertex 0 45.1184 11.375
    endloop
  endfacet
  facet normal 1.92296e-16 0.5 -0.866025
    outer loop
      vertex 5 46.5594 12.5842
      vertex 5 45.7323 12.1066
      vertex 0 46.5594 12.5842
    endloop
  endfacet
  facet normal 1.92296e-16 0.5 -0.866025
    outer loop
      vertex 0 46.5594 12.5842
      vertex 5 45.7323 12.1066
      vertex 0 45.7323 12.1066
    endloop
  endfacet
  facet normal 2.18671e-16 0.173648 -0.984808
    outer loop
      vertex 5 47.5 12.75
      vertex 5 46.5594 12.5842
      vertex 0 47.5 12.75
    endloop
  endfacet
  facet normal 2.18671e-16 0.173648 -0.984808
    outer loop
      vertex 0 47.5 12.75
      vertex 5 46.5594 12.5842
      vertex 0 46.5594 12.5842
    endloop
  endfacet
  facet normal 2.18671e-16 -0.173648 -0.984808
    outer loop
      vertex 5 48.4406 12.5842
      vertex 5 47.5 12.75
      vertex 0 48.4406 12.5842
    endloop
  endfacet
  facet normal 2.18671e-16 -0.173648 -0.984808
    outer loop
      vertex 0 48.4406 12.5842
      vertex 5 47.5 12.75
      vertex 0 47.5 12.75
    endloop
  endfacet
  facet normal 1.92296e-16 -0.5 -0.866025
    outer loop
      vertex 5 49.2677 12.1066
      vertex 5 48.4406 12.5842
      vertex 0 49.2677 12.1066
    endloop
  endfacet
  facet normal 1.92296e-16 -0.5 -0.866025
    outer loop
      vertex 0 49.2677 12.1066
      vertex 5 48.4406 12.5842
      vertex 0 48.4406 12.5842
    endloop
  endfacet
  facet normal 1.42728e-16 -0.766044 -0.642788
    outer loop
      vertex 0 49.8816 11.375
      vertex 5 49.8816 11.375
      vertex 5 49.2677 12.1066
    endloop
  endfacet
  facet normal 1.42728e-16 -0.766044 -0.642788
    outer loop
      vertex 0 49.2677 12.1066
      vertex 0 49.8816 11.375
      vertex 5 49.2677 12.1066
    endloop
  endfacet
  facet normal 7.59436e-17 -0.939693 -0.34202
    outer loop
      vertex 0 50.2082 10.4775
      vertex 5 50.2082 10.4775
      vertex 5 49.8816 11.375
    endloop
  endfacet
  facet normal 7.59436e-17 -0.939693 -0.34202
    outer loop
      vertex 0 49.8816 11.375
      vertex 0 50.2082 10.4775
      vertex 5 49.8816 11.375
    endloop
  endfacet
  facet normal 0 -1 0
    outer loop
      vertex 5 50.2082 9.52247
      vertex 5 50.2082 10.4775
      vertex 0 50.2082 10.4775
    endloop
  endfacet
  facet normal 0 -1 0
    outer loop
      vertex 0 50.2082 9.52247
      vertex 5 50.2082 9.52247
      vertex 0 50.2082 10.4775
    endloop
  endfacet
  facet normal -7.59436e-17 -0.939693 0.34202
    outer loop
      vertex 5 49.8816 8.625
      vertex 5 50.2082 9.52247
      vertex 0 50.2082 9.52247
    endloop
  endfacet
  facet normal -7.59436e-17 -0.939693 0.34202
    outer loop
      vertex 0 49.8816 8.625
      vertex 5 49.8816 8.625
      vertex 0 50.2082 9.52247
    endloop
  endfacet
  facet normal -1.42728e-16 -0.766044 0.642788
    outer loop
      vertex 5 49.2677 7.89338
      vertex 5 49.8816 8.625
      vertex 0 49.8816 8.625
    endloop
  endfacet
  facet normal -1.42728e-16 -0.766044 0.642788
    outer loop
      vertex 0 49.2677 7.89338
      vertex 5 49.2677 7.89338
      vertex 0 49.8816 8.625
    endloop
  endfacet
  facet normal -1.92296e-16 -0.5 0.866025
    outer loop
      vertex 5 48.4406 7.41585
      vertex 5 49.2677 7.89338
      vertex 0 49.2677 7.89338
    endloop
  endfacet
  facet normal -1.92296e-16 -0.5 0.866025
    outer loop
      vertex 0 48.4406 7.41585
      vertex 5 48.4406 7.41585
      vertex 0 49.2677 7.89338
    endloop
  endfacet
  facet normal -2.18671e-16 -0.173648 0.984808
    outer loop
      vertex 5 47.5 7.25
      vertex 5 48.4406 7.41585
      vertex 0 48.4406 7.41585
    endloop
  endfacet
  facet normal -2.18671e-16 -0.173648 0.984808
    outer loop
      vertex 0 47.5 7.25
      vertex 5 47.5 7.25
      vertex 0 48.4406 7.41585
    endloop
  endfacet
  facet normal -2.18671e-16 0.173648 0.984808
    outer loop
      vertex 5 46.5594 7.41585
      vertex 5 47.5 7.25
      vertex 0 47.5 7.25
    endloop
  endfacet
  facet normal -2.18671e-16 0.173648 0.984808
    outer loop
      vertex 0 46.5594 7.41585
      vertex 5 46.5594 7.41585
      vertex 0 47.5 7.25
    endloop
  endfacet
  facet normal -1.92296e-16 0.5 0.866025
    outer loop
      vertex 5 45.7323 7.89338
      vertex 5 46.5594 7.41585
      vertex 0 46.5594 7.41585
    endloop
  endfacet
  facet normal -1.92296e-16 0.5 0.866025
    outer loop
      vertex 0 45.7323 7.89338
      vertex 5 45.7323 7.89338
      vertex 0 46.5594 7.41585
    endloop
  endfacet
  facet normal -1.42728e-16 0.766044 0.642788
    outer loop
      vertex 5 45.7323 7.89338
      vertex 0 45.7323 7.89338
      vertex 5 45.1184 8.625
    endloop
  endfacet
  facet normal -1.42728e-16 0.766044 0.642788
    outer loop
      vertex 5 45.1184 8.625
      vertex 0 45.7323 7.89338
      vertex 0 45.1184 8.625
    endloop
  endfacet
  facet normal -7.59436e-17 0.939693 0.34202
    outer loop
      vertex 5 45.1184 8.625
      vertex 0 45.1184 8.625
      vertex 5 44.7918 9.52247
    endloop
  endfacet
  facet normal -7.59436e-17 0.939693 0.34202
    outer loop
      vertex 5 44.7918 9.52247
      vertex 0 45.1184 8.625
      vertex 0 44.7918 9.52247
    endloop
  endfacet
  facet normal 1 0 0
    outer loop
      vertex 55 0 20
      vertex 55 0 0
      vertex 55 5 0
    endloop
  endfacet
  facet normal 1 0 0
    outer loop
      vertex 55 5 20
      vertex 55 0 20
      vertex 55 5 0
    endloop
  endfacet
  facet normal 0 1 2.22045e-16
    outer loop
      vertex 24.2709 2.06378e-16 4.07055
      vertex 23.6361 3.65478e-16 3.35403
      vertex 24.5 0 5
    endloop
  endfacet
  facet normal 0 1 2.22045e-16
    outer loop
      vertex 24.5 0 5
      vertex 23.6361 3.65478e-16 3.35403
      vertex 22.7411 4.40851e-16 3.01458
    endloop
  endfacet
  facet normal 0 1 2.22045e-16
    outer loop
      vertex 24.5 0 5
      vertex 22.7411 4.40851e-16 3.01458
      vertex 21.7908 4.15231e-16 3.12997
    endloop
  endfacet
  facet normal 0 1 2.22045e-16
    outer loop
      vertex 24.5 0 5
      vertex 21.7908 4.15231e-16 3.12997
      vertex 21.003 2.94486e-16 3.67375
    endloop
  endfacet
  facet normal 0 1 2.22045e-16
    outer loop
      vertex 24.5 0 5
      vertex 21.003 2.94486e-16 3.67375
      vertex 20.5581 1.06277e-16 4.52137
    endloop
  endfacet
  facet normal 0 1 2.22045e-16
    outer loop
      vertex 24.5 0 5
      vertex 20.5581 1.06277e-16 4.52137
      vertex 20.5581 0 5
    endloop
  endfacet
  facet normal 1 0 0
    outer loop
      vertex 20.5581 1.06277e-16 4.52137
      vertex 20.5581 11.5253 4.52137
      vertex 20.5581 11.5253 5.47863
    endloop
  endfacet
  facet normal 1 0 0
    outer loop
      vertex 20.5581 0 5
      vertex 20.5581 1.06277e-16 4.52137
      vertex 20.5581 0 5.47863
    endloop
  endfacet
  facet normal 1 0 0
    outer loop
      vertex 20.5581 0 5.47863
      vertex 20.5581 1.06277e-16 4.52137
      vertex 20.5581 11.5253 5.47863
    endloop
  endfacet
  facet normal -0.970942 5.31388e-17 -0.239316
    outer loop
      vertex 24.5 11.5376 5
      vertex 24.5 0 5
      vertex 24.2709 11.4889 5.92945
    endloop
  endfacet
  facet normal -0.970942 5.31388e-17 -0.239316
    outer loop
      vertex 24.2709 11.4889 5.92945
      vertex 24.5 0 5
      vertex 24.2709 0 5.92945
    endloop
  endfacet
  facet normal -0.970942 -5.31388e-17 0.239316
    outer loop
      vertex 24.5 11.5376 5
      vertex 24.2709 11.4889 4.07055
      vertex 24.5 0 5
    endloop
  endfacet
  facet normal -0.970942 -5.31388e-17 0.239316
    outer loop
      vertex 24.5 0 5
      vertex 24.2709 11.4889 4.07055
      vertex 24.2709 2.06378e-16 4.07055
    endloop
  endfacet
  facet normal -0.748511 1.47243e-16 -0.663123
    outer loop
      vertex 23.6707 11.3614 6.60692
      vertex 24.2709 11.4889 5.92945
      vertex 24.2709 0 5.92945
    endloop
  endfacet
  facet normal -0.748511 1.47243e-16 -0.663123
    outer loop
      vertex 23.6707 11.3614 6.60692
      vertex 24.2709 0 5.92945
      vertex 23.6361 11.3614 6.64597
    endloop
  endfacet
  facet normal -0.748511 1.47243e-16 -0.663123
    outer loop
      vertex 24.2709 0 5.92945
      vertex 23.6361 0 6.64597
      vertex 23.6361 11.3614 6.64597
    endloop
  endfacet
  facet normal -0.354605 2.07615e-16 -0.935016
    outer loop
      vertex 23.6361 11.3614 6.64597
      vertex 23.6361 0 6.64597
      vertex 22.7411 11.3614 6.98542
    endloop
  endfacet
  facet normal -0.354605 2.07615e-16 -0.935016
    outer loop
      vertex 22.7411 11.3614 6.98542
      vertex 23.6361 0 6.64597
      vertex 22.7411 0 6.98542
    endloop
  endfacet
  facet normal 0.120537 2.20426e-16 -0.992709
    outer loop
      vertex 22.7411 11.3614 6.98542
      vertex 22.7411 0 6.98542
      vertex 21.7908 11.3614 6.87003
    endloop
  endfacet
  facet normal 0.120537 2.20426e-16 -0.992709
    outer loop
      vertex 21.7908 11.3614 6.87003
      vertex 22.7411 0 6.98542
      vertex 21.7908 0 6.87003
    endloop
  endfacet
  facet normal 0.568065 1.82739e-16 -0.822984
    outer loop
      vertex 21.3293 11.3614 6.55148
      vertex 21.7908 11.3614 6.87003
      vertex 21.7908 0 6.87003
    endloop
  endfacet
  facet normal 0.568065 1.82739e-16 -0.822984
    outer loop
      vertex 21.3293 11.3614 6.55148
      vertex 21.7908 0 6.87003
      vertex 21.003 11.4307 6.32625
    endloop
  endfacet
  facet normal 0.568065 1.82739e-16 -0.822984
    outer loop
      vertex 21.7908 0 6.87003
      vertex 21.003 0 6.32624
      vertex 21.003 11.4307 6.32625
    endloop
  endfacet
  facet normal 0.885456 1.03189e-16 -0.464724
    outer loop
      vertex 20.5581 11.5253 5.47863
      vertex 21.003 11.4307 6.32625
      vertex 21.003 0 6.32624
    endloop
  endfacet
  facet normal 0.885456 1.03189e-16 -0.464724
    outer loop
      vertex 20.5581 0 5.47863
      vertex 20.5581 11.5253 5.47863
      vertex 21.003 0 6.32624
    endloop
  endfacet
  facet normal 0.866025 -1.11022e-16 0.5
    outer loop
      vertex 45.3934 0 8.23233
      vertex 45.3934 5 8.23233
      vertex 44.9158 5 9.05945
    endloop
  endfacet
  facet normal 0.866025 -1.11022e-16 0.5
    outer loop
      vertex 44.9158 0 9.05945
      vertex 45.3934 0 8.23233
      vertex 44.9158 5 9.05945
    endloop
  endfacet
  facet normal 0.984808 -3.85576e-17 0.173648
    outer loop
      vertex 44.9158 0 9.05945
      vertex 44.9158 5 9.05945
      vertex 44.75 5 10
    endloop
  endfacet
  facet normal 0.984808 -3.85576e-17 0.173648
    outer loop
      vertex 44.75 0 10
      vertex 44.9158 0 9.05945
      vertex 44.75 5 10
    endloop
  endfacet
  facet normal 0.642788 -1.70096e-16 0.766044
    outer loop
      vertex 46.125 0 7.61843
      vertex 46.125 5 7.61843
      vertex 45.3934 5 8.23233
    endloop
  endfacet
  facet normal 0.642788 -1.70096e-16 0.766044
    outer loop
      vertex 45.3934 0 8.23233
      vertex 46.125 0 7.61843
      vertex 45.3934 5 8.23233
    endloop
  endfacet
  facet normal 0.34202 -2.08654e-16 0.939693
    outer loop
      vertex 47.0225 0 7.29178
      vertex 47.0225 5 7.29178
      vertex 46.125 5 7.61843
    endloop
  endfacet
  facet normal 0.34202 -2.08654e-16 0.939693
    outer loop
      vertex 46.125 0 7.61843
      vertex 47.0225 0 7.29178
      vertex 46.125 5 7.61843
    endloop
  endfacet
  facet normal 0 -2.22045e-16 1
    outer loop
      vertex 47.9775 0 7.29178
      vertex 47.9775 5 7.29178
      vertex 47.0225 5 7.29178
    endloop
  endfacet
  facet normal 0 -2.22045e-16 1
    outer loop
      vertex 47.0225 0 7.29178
      vertex 47.9775 0 7.29178
      vertex 47.0225 5 7.29178
    endloop
  endfacet
  facet normal -0.34202 -2.08654e-16 0.939693
    outer loop
      vertex 48.875 0 7.61843
      vertex 48.875 5 7.61843
      vertex 47.9775 5 7.29178
    endloop
  endfacet
  facet normal -0.34202 -2.08654e-16 0.939693
    outer loop
      vertex 47.9775 0 7.29178
      vertex 48.875 0 7.61843
      vertex 47.9775 5 7.29178
    endloop
  endfacet
  facet normal -0.642788 -1.70096e-16 0.766044
    outer loop
      vertex 49.6066 0 8.23233
      vertex 49.6066 5 8.23233
      vertex 48.875 5 7.61843
    endloop
  endfacet
  facet normal -0.642788 -1.70096e-16 0.766044
    outer loop
      vertex 48.875 0 7.61843
      vertex 49.6066 0 8.23233
      vertex 48.875 5 7.61843
    endloop
  endfacet
  facet normal -0.866025 -1.11022e-16 0.5
    outer loop
      vertex 50.0842 5 9.05945
      vertex 49.6066 5 8.23233
      vertex 50.0842 0 9.05945
    endloop
  endfacet
  facet normal -0.866025 -1.11022e-16 0.5
    outer loop
      vertex 50.0842 0 9.05945
      vertex 49.6066 5 8.23233
      vertex 49.6066 0 8.23233
    endloop
  endfacet
  facet normal -0.984808 -3.85576e-17 0.173648
    outer loop
      vertex 50.25 5 10
      vertex 50.0842 5 9.05945
      vertex 50.25 0 10
    endloop
  endfacet
  facet normal -0.984808 -3.85576e-17 0.173648
    outer loop
      vertex 50.25 0 10
      vertex 50.0842 5 9.05945
      vertex 50.0842 0 9.05945
    endloop
  endfacet
  facet normal -0.984808 3.85576e-17 -0.173648
    outer loop
      vertex 50.25 5 10
      vertex 50.25 0 10
      vertex 50.0842 5 10.9406
    endloop
  endfacet
  facet normal -0.984808 3.85576e-17 -0.173648
    outer loop
      vertex 50.0842 5 10.9406
      vertex 50.25 0 10
      vertex 50.0842 0 10.9406
    endloop
  endfacet
  facet normal -0.866025 1.11022e-16 -0.5
    outer loop
      vertex 50.0842 5 10.9406
      vertex 50.0842 0 10.9406
      vertex 49.6066 5 11.7677
    endloop
  endfacet
  facet normal -0.866025 1.11022e-16 -0.5
    outer loop
      vertex 49.6066 5 11.7677
      vertex 50.0842 0 10.9406
      vertex 49.6066 0 11.7677
    endloop
  endfacet
  facet normal -0.642788 1.70096e-16 -0.766044
    outer loop
      vertex 49.6066 5 11.7677
      vertex 49.6066 0 11.7677
      vertex 48.875 5 12.3816
    endloop
  endfacet
  facet normal -0.642788 1.70096e-16 -0.766044
    outer loop
      vertex 48.875 5 12.3816
      vertex 49.6066 0 11.7677
      vertex 48.875 0 12.3816
    endloop
  endfacet
  facet normal -0.34202 2.08654e-16 -0.939693
    outer loop
      vertex 48.875 5 12.3816
      vertex 48.875 0 12.3816
      vertex 47.9775 5 12.7082
    endloop
  endfacet
  facet normal -0.34202 2.08654e-16 -0.939693
    outer loop
      vertex 47.9775 5 12.7082
      vertex 48.875 0 12.3816
      vertex 47.9775 0 12.7082
    endloop
  endfacet
  facet normal 0 2.22045e-16 -1
    outer loop
      vertex 47.9775 5 12.7082
      vertex 47.9775 0 12.7082
      vertex 47.0225 5 12.7082
    endloop
  endfacet
  facet normal 0 2.22045e-16 -1
    outer loop
      vertex 47.0225 5 12.7082
      vertex 47.9775 0 12.7082
      vertex 47.0225 0 12.7082
    endloop
  endfacet
  facet normal 0.34202 2.08654e-16 -0.939693
    outer loop
      vertex 47.0225 5 12.7082
      vertex 47.0225 0 12.7082
      vertex 46.125 5 12.3816
    endloop
  endfacet
  facet normal 0.34202 2.08654e-16 -0.939693
    outer loop
      vertex 46.125 5 12.3816
      vertex 47.0225 0 12.7082
      vertex 46.125 0 12.3816
    endloop
  endfacet
  facet normal 0.642788 1.70096e-16 -0.766044
    outer loop
      vertex 46.125 5 12.3816
      vertex 46.125 0 12.3816
      vertex 45.3934 5 11.7677
    endloop
  endfacet
  facet normal 0.642788 1.70096e-16 -0.766044
    outer loop
      vertex 45.3934 5 11.7677
      vertex 46.125 0 12.3816
      vertex 45.3934 0 11.7677
    endloop
  endfacet
  facet normal 0.866025 1.11022e-16 -0.5
    outer loop
      vertex 44.9158 5 10.9406
      vertex 45.3934 5 11.7677
      vertex 45.3934 0 11.7677
    endloop
  endfacet
  facet normal 0.866025 1.11022e-16 -0.5
    outer loop
      vertex 44.9158 0 10.9406
      vertex 44.9158 5 10.9406
      vertex 45.3934 0 11.7677
    endloop
  endfacet
  facet normal 0.984808 3.85576e-17 -0.173648
    outer loop
      vertex 44.75 5 10
      vertex 44.9158 5 10.9406
      vertex 44.9158 0 10.9406
    endloop
  endfacet
  facet normal 0.984808 3.85576e-17 -0.173648
    outer loop
      vertex 44.75 0 10
      vertex 44.75 5 10
      vertex 44.9158 0 10.9406
    endloop
  endfacet
  facet normal 0 1 0
    outer loop
      vertex 5 5 10
      vertex 5 5 20
      vertex 40 5 10
    endloop
  endfacet
  facet normal 0 1 0
    outer loop
      vertex 40 5 10
      vertex 5 5 20
      vertex 55 5 20
    endloop
  endfacet
  facet normal 0 1 0
    outer loop
      vertex 50.0842 5 9.05945
      vertex 55 5 20
      vertex 55 5 0
    endloop
  endfacet
  facet normal 0 1 0
    outer loop
      vertex 47.0225 5 7.29178
      vertex 55 5 0
      vertex 46.125 5 7.61843
    endloop
  endfacet
  facet normal 0 1 0
    outer loop
      vertex 45.3934 5 11.7677
      vertex 40 5 10
      vertex 46.125 5 12.3816
    endloop
  endfacet
  facet normal 0 1 0
    outer loop
      vertex 40 5 10
      vertex 44.75 5 10
      vertex 44.9158 5 9.05945
    endloop
  endfacet
  facet normal 0 1 0
    outer loop
      vertex 40 5 10
      vertex 44.9158 5 9.05945
      vertex 45.3934 5 8.23233
    endloop
  endfacet
  facet normal 0 1 0
    outer loop
      vertex 40 5 10
      vertex 45.3934 5 8.23233
      vertex 55 5 0
    endloop
  endfacet
  facet normal 0 1 0
    outer loop
      vertex 45.3934 5 8.23233
      vertex 46.125 5 7.61843
      vertex 55 5 0
    endloop
  endfacet
  facet normal 0 1 0
    outer loop
      vertex 47.9775 5 7.29178
      vertex 55 5 0
      vertex 47.0225 5 7.29178
    endloop
  endfacet
  facet normal 0 1 0
    outer loop
      vertex 47.0225 5 12.7082
      vertex 55 5 20
      vertex 47.9775 5 12.7082
    endloop
  endfacet
  facet normal 0 1 0
    outer loop
      vertex 50.25 5 10
      vertex 55 5 20
      vertex 50.0842 5 9.05945
    endloop
  endfacet
  facet normal 0 1 0
    outer loop
      vertex 49.6066 5 11.7677
      vertex 55 5 20
      vertex 50.0842 5 10.9406
    endloop
  endfacet
  facet normal 0 1 0
    outer loop
      vertex 47.9775 5 7.29178
      vertex 48.875 5 7.61843
      vertex 55 5 0
    endloop
  endfacet
  facet normal 0 1 0
    outer loop
      vertex 50.0842 5 10.9406
      vertex 55 5 20
      vertex 50.25 5 10
    endloop
  endfacet
  facet normal 0 1 0
    outer loop
      vertex 48.875 5 7.61843
      vertex 49.6066 5 8.23233
      vertex 55 5 0
    endloop
  endfacet
  facet normal 0 1 0
    outer loop
      vertex 49.6066 5 8.23233
      vertex 50.0842 5 9.05945
      vertex 55 5 0
    endloop
  endfacet
  facet normal 0 1 0
    outer loop
      vertex 48.875 5 12.3816
      vertex 55 5 20
      vertex 49.6066 5 11.7677
    endloop
  endfacet
  facet normal 0 1 0
    outer loop
      vertex 47.9775 5 12.7082
      vertex 55 5 20
      vertex 48.875 5 12.3816
    endloop
  endfacet
  facet normal 0 1 0
    outer loop
      vertex 46.125 5 12.3816
      vertex 55 5 20
      vertex 47.0225 5 12.7082
    endloop
  endfacet
  facet normal 0 1 0
    outer loop
      vertex 40 5 10
      vertex 55 5 20
      vertex 46.125 5 12.3816
    endloop
  endfacet
  facet normal 0 1 0
    outer loop
      vertex 40 5 10
      vertex 45.3934 5 11.7677
      vertex 44.9158 5 10.9406
    endloop
  endfacet
  facet normal 0 1 0
    outer loop
      vertex 40 5 10
      vertex 44.9158 5 10.9406
      vertex 44.75 5 10
    endloop
  endfacet
  facet normal 0 1 0
    outer loop
      vertex 40 5 10
      vertex 55 5 0
      vertex 40 5 0
    endloop
  endfacet
  facet normal 1 0 0
    outer loop
      vertex 40 5 10
      vertex 40 5 0
      vertex 40 40 0
    endloop
  endfacet
  facet normal 1 0 0
    outer loop
      vertex 40 40 10
      vertex 40 5 10
      vertex 40 40 0
    endloop
  endfacet
  facet normal 0 1 0
    outer loop
      vertex 23.6361 40 3.35403
      vertex 40 40 0
      vertex 22.7411 40 3.01458
    endloop
  endfacet
  facet normal 0 1 0
    outer loop
      vertex 22.7411 40 6.98542
      vertex 5 40 10
      vertex 40 40 10
    endloop
  endfacet
  facet normal 0 1 0
    outer loop
      vertex 5 40 0
      vertex 5 40 10
      vertex 20.5581 40 5.47863
    endloop
  endfacet
  facet normal 0 1 0
    outer loop
      vertex 5 40 0
      vertex 20.5581 40 5.47863
      vertex 20.5581 40 4.52137
    endloop
  endfacet
  facet normal 0 1 0
    outer loop
      vertex 5 40 0
      vertex 20.5581 40 4.52137
      vertex 21.003 40 3.67376
    endloop
  endfacet
  facet normal 0 1 0
    outer loop
      vertex 5 40 0
      vertex 21.003 40 3.67376
      vertex 21.7908 40 3.12997
    endloop
  endfacet
  facet normal 0 1 0
    outer loop
      vertex 5 40 0
      vertex 21.7908 40 3.12997
      vertex 40 40 0
    endloop
  endfacet
  facet normal 0 1 0
    outer loop
      vertex 21.7908 40 3.12997
      vertex 22.7411 40 3.01458
      vertex 40 40 0
    endloop
  endfacet
  facet normal 0 1 0
    outer loop
      vertex 24.2709 40 4.07055
      vertex 40 40 0
      vertex 23.6361 40 3.35403
    endloop
  endfacet
  facet normal 0 1 0
    outer loop
      vertex 24.5 40 5
      vertex 40 40 0
      vertex 24.2709 40 4.07055
    endloop
  endfacet
  facet normal 0 1 0
    outer loop
      vertex 40 40 0
      vertex 24.5 40 5
      vertex 40 40 10
    endloop
  endfacet
  facet normal 0 1 0
    outer loop
      vertex 24.5 40 5
      vertex 24.2709 40 5.92945
      vertex 40 40 10
    endloop
  endfacet
  facet normal 0 1 0
    outer loop
      vertex 21.003 40 6.32625
      vertex 5 40 10
      vertex 21.7908 40 6.87003
    endloop
  endfacet
  facet normal 0 1 0
    outer loop
      vertex 24.2709 40 5.92945
      vertex 23.6361 40 6.64597
      vertex 40 40 10
    endloop
  endfacet
  facet normal 0 1 0
    outer loop
      vertex 23.6361 40 6.64597
      vertex 22.7411 40 6.98542
      vertex 40 40 10
    endloop
  endfacet
  facet normal 0 1 0
    outer loop
      vertex 20.5581 40 5.47863
      vertex 5 40 10
      vertex 21.003 40 6.32625
    endloop
  endfacet
  facet normal 0 1 0
    outer loop
      vertex 21.7908 40 6.87003
      vertex 5 40 10
      vertex 22.7411 40 6.98542
    endloop
  endfacet
  facet normal 1 0 0
    outer loop
      vertex 5 5 20
      vertex 5 5 10
      vertex 5 40 10
    endloop
  endfacet
  facet normal 1 0 0
    outer loop
      vertex 5 55 20
      vertex 5 5 20
      vertex 5 40 10
    endloop
  endfacet
  facet normal 1 0 0
    outer loop
      vertex 5 40 0
      vertex 5 55 0
      vertex 5 40 10
    endloop
  endfacet
  facet normal 1 0 0
    outer loop
      vertex 5 45.7323 12.1066
      vertex 5 55 20
      vertex 5 40 10
    endloop
  endfacet
  facet normal 1 0 0
    outer loop
      vertex 5 45.1184 8.625
      vertex 5 44.7918 9.52247
      vertex 5 40 10
    endloop
  endfacet
  facet normal 1 0 0
    outer loop
      vertex 5 44.7918 9.52247
      vertex 5 44.7918 10.4775
      vertex 5 40 10
    endloop
  endfacet
  facet normal 1 0 0
    outer loop
      vertex 5 44.7918 10.4775
      vertex 5 45.1184 11.375
      vertex 5 40 10
    endloop
  endfacet
  facet normal 1 0 0
    outer loop
      vertex 5 45.1184 11.375
      vertex 5 45.7323 12.1066
      vertex 5 40 10
    endloop
  endfacet
  facet normal 1 0 0
    outer loop
      vertex 5 46.5594 12.5842
      vertex 5 47.5 12.75
      vertex 5 55 20
    endloop
  endfacet
  facet normal 1 0 0
    outer loop
      vertex 5 47.5 12.75
      vertex 5 48.4406 12.5842
      vertex 5 55 20
    endloop
  endfacet
  facet normal 1 0 0
    outer loop
      vertex 5 50.2082 10.4775
      vertex 5 50.2082 9.52247
      vertex 5 55 0
    endloop
  endfacet
  facet normal 1 0 0
    outer loop
      vertex 5 49.2677 12.1066
      vertex 5 55 20
      vertex 5 48.4406 12.5842
    endloop
  endfacet
  facet normal 1 0 0
    outer loop
      vertex 5 49.8816 11.375
      vertex 5 55 20
      vertex 5 49.2677 12.1066
    endloop
  endfacet
  facet normal 1 0 0
    outer loop
      vertex 5 55 0
      vertex 5 55 20
      vertex 5 49.8816 11.375
    endloop
  endfacet
  facet normal 1 0 0
    outer loop
      vertex 5 50.2082 9.52247
      vertex 5 49.8816 8.625
      vertex 5 55 0
    endloop
  endfacet
  facet normal 1 0 0
    outer loop
      vertex 5 55 0
      vertex 5 49.8816 11.375
      vertex 5 50.2082 10.4775
    endloop
  endfacet
  facet normal 1 0 0
    outer loop
      vertex 5 47.5 7.25
      vertex 5 46.5594 7.41585
      vertex 5 55 0
    endloop
  endfacet
  facet normal 1 0 0
    outer loop
      vertex 5 55 0
      vertex 5 49.8816 8.625
      vertex 5 49.2677 7.89338
    endloop
  endfacet
  facet normal 1 0 0
    outer loop
      vertex 5 55 0
      vertex 5 49.2677 7.89338
      vertex 5 48.4406 7.41585
    endloop
  endfacet
  facet normal 1 0 0
    outer loop
      vertex 5 55 0
      vertex 5 48.4406 7.41585
      vertex 5 47.5 7.25
    endloop
  endfacet
  facet normal 1 0 0
    outer loop
      vertex 5 55 0
      vertex 5 46.5594 7.41585
      vertex 5 40 10
    endloop
  endfacet
  facet normal 1 0 0
    outer loop
      vertex 5 46.5594 7.41585
      vertex 5 45.7323 7.89338
      vertex 5 40 10
    endloop
  endfacet
  facet normal 1 0 0
    outer loop
      vertex 5 45.7323 7.89338
      vertex 5 45.1184 8.625
      vertex 5 40 10
    endloop
  endfacet
  facet normal 1 0 0
    outer loop
      vertex 5 45.7323 12.1066
      vertex 5 46.5594 12.5842
      vertex 5 55 20
    endloop
  endfacet
  facet normal 0.994522 -0.104529 0
    outer loop
      vertex 11.5447 24.8286 0
      vertex 11.5447 24.8286 10
      vertex 11.3 22.5 10
    endloop
  endfacet
  facet normal 0.994522 -0.104529 0
    outer loop
      vertex 11.3 22.5 0
      vertex 11.5447 24.8286 0
      vertex 11.3 22.5 10
    endloop
  endfacet
  facet normal 0.994522 0.104529 0
    outer loop
      vertex 11.3 22.5 10
      vertex 11.5447 20.1714 10
      vertex 11.5447 20.1714 0
    endloop
  endfacet
  facet normal 0.994522 0.104529 0
    outer loop
      vertex 11.3 22.5 0
      vertex 11.3 22.5 10
      vertex 11.5447 20.1714 0
    endloop
  endfacet
  facet normal 0.951056 -0.309017 0
    outer loop
      vertex 12.2683 27.0554 0
      vertex 12.2683 27.0554 10
      vertex 11.5447 24.8286 10
    endloop
  endfacet
  facet normal 0.951056 -0.309017 0
    outer loop
      vertex 11.5447 24.8286 0
      vertex 12.2683 27.0554 0
      vertex 11.5447 24.8286 10
    endloop
  endfacet
  facet normal 0.866025 -0.5 0
    outer loop
      vertex 13.439 29.0832 0
      vertex 13.439 29.0832 10
      vertex 12.2683 27.0554 10
    endloop
  endfacet
  facet normal 0.866025 -0.5 0
    outer loop
      vertex 12.2683 27.0554 0
      vertex 13.439 29.0832 0
      vertex 12.2683 27.0554 10
    endloop
  endfacet
  facet normal 0.743145 -0.669131 0
    outer loop
      vertex 15.0057 30.8232 0
      vertex 15.0057 30.8232 10
      vertex 13.439 29.0832 10
    endloop
  endfacet
  facet normal 0.743145 -0.669131 0
    outer loop
      vertex 13.439 29.0832 0
      vertex 15.0057 30.8232 0
      vertex 13.439 29.0832 10
    endloop
  endfacet
  facet normal 0.587785 -0.809017 0
    outer loop
      vertex 16.9 32.1995 0
      vertex 16.9 32.1995 10
      vertex 15.0057 30.8232 10
    endloop
  endfacet
  facet normal 0.587785 -0.809017 0
    outer loop
      vertex 15.0057 30.8232 0
      vertex 16.9 32.1995 0
      vertex 15.0057 30.8232 10
    endloop
  endfacet
  facet normal 0.406736 -0.913546 0
    outer loop
      vertex 19.039 33.1518 0
      vertex 19.039 33.1518 10
      vertex 16.9 32.1995 10
    endloop
  endfacet
  facet normal 0.406736 -0.913546 0
    outer loop
      vertex 16.9 32.1995 0
      vertex 19.039 33.1518 0
      vertex 16.9 32.1995 10
    endloop
  endfacet
  facet normal 0.207912 -0.978148 0
    outer loop
      vertex 20.5581 33.4747 4.52137
      vertex 19.039 33.1518 10
      vertex 21.3293 33.6386 0
    endloop
  endfacet
  facet normal 0.207912 -0.978148 0
    outer loop
      vertex 21.3293 33.6386 0
      vertex 21.3293 33.6386 3.44852
      vertex 21.003 33.5693 3.67376
    endloop
  endfacet
  facet normal 0.207912 -0.978148 0
    outer loop
      vertex 20.5581 33.4747 5.47863
      vertex 19.039 33.1518 10
      vertex 20.5581 33.4747 4.52137
    endloop
  endfacet
  facet normal 0.207912 -0.978148 0
    outer loop
      vertex 20.5581 33.4747 4.52137
      vertex 21.3293 33.6386 0
      vertex 21.003 33.5693 3.67376
    endloop
  endfacet
  facet normal 0.207912 -0.978148 0
    outer loop
      vertex 21.003 33.5693 6.32625
      vertex 21.3293 33.6386 10
      vertex 20.5581 33.4747 5.47863
    endloop
  endfacet
  facet normal 0.207912 -0.978148 0
    outer loop
      vertex 21.3293 33.6386 6.55148
      vertex 21.3293 33.6386 10
      vertex 21.003 33.5693 6.32625
    endloop
  endfacet
  facet normal 0.207912 -0.978148 0
    outer loop
      vertex 21.3293 33.6386 10
      vertex 19.039 33.1518 10
      vertex 20.5581 33.4747 5.47863
    endloop
  endfacet
  facet normal 0.207912 -0.978148 0
    outer loop
      vertex 19.039 33.1518 10
      vertex 19.039 33.1518 0
      vertex 21.3293 33.6386 0
    endloop
  endfacet
  facet normal 0 -1 0
    outer loop
      vertex 21.7908 33.6386 3.12997
      vertex 21.3293 33.6386 3.44852
      vertex 23.6707 33.6386 0
    endloop
  endfacet
  facet normal 0 -1 0
    outer loop
      vertex 23.6707 33.6386 0
      vertex 23.6707 33.6386 3.39308
      vertex 23.6361 33.6386 3.35403
    endloop
  endfacet
  facet normal 0 -1 0
    outer loop
      vertex 22.7411 33.6386 3.01458
      vertex 23.6707 33.6386 0
      vertex 23.6361 33.6386 3.35403
    endloop
  endfacet
  facet normal 0 -1 0
    outer loop
      vertex 22.7411 33.6386 3.01458
      vertex 21.7908 33.6386 3.12997
      vertex 23.6707 33.6386 0
    endloop
  endfacet
  facet normal 0 -1 0
    outer loop
      vertex 21.3293 33.6386 3.44852
      vertex 21.3293 33.6386 0
      vertex 23.6707 33.6386 0
    endloop
  endfacet
  facet normal -0.207912 -0.978148 0
    outer loop
      vertex 25.961 33.1518 0
      vertex 25.961 33.1518 10
      vertex 23.6707 33.6386 10
    endloop
  endfacet
  facet normal -0.207912 -0.978148 0
    outer loop
      vertex 24.2709 33.5111 5.92945
      vertex 25.961 33.1518 0
      vertex 23.6707 33.6386 10
    endloop
  endfacet
  facet normal -0.207912 -0.978148 0
    outer loop
      vertex 23.6707 33.6386 6.60692
      vertex 24.2709 33.5111 5.92945
      vertex 23.6707 33.6386 10
    endloop
  endfacet
  facet normal -0.207912 -0.978148 0
    outer loop
      vertex 24.5 33.4624 5
      vertex 25.961 33.1518 0
      vertex 24.2709 33.5111 5.92945
    endloop
  endfacet
  facet normal -0.207912 -0.978148 0
    outer loop
      vertex 23.6707 33.6386 3.39308
      vertex 25.961 33.1518 0
      vertex 24.2709 33.5111 4.07055
    endloop
  endfacet
  facet normal -0.207912 -0.978148 0
    outer loop
      vertex 23.6707 33.6386 0
      vertex 25.961 33.1518 0
      vertex 23.6707 33.6386 3.39308
    endloop
  endfacet
  facet normal -0.207912 -0.978148 0
    outer loop
      vertex 24.5 33.4624 5
      vertex 24.2709 33.5111 4.07055
      vertex 25.961 33.1518 0
    endloop
  endfacet
  facet normal -0.406736 -0.913546 0
    outer loop
      vertex 28.1 32.1995 0
      vertex 28.1 32.1995 10
      vertex 25.961 33.1518 10
    endloop
  endfacet
  facet normal -0.406736 -0.913546 0
    outer loop
      vertex 25.961 33.1518 0
      vertex 28.1 32.1995 0
      vertex 25.961 33.1518 10
    endloop
  endfacet
  facet normal -0.587785 -0.809017 0
    outer loop
      vertex 29.9943 30.8232 0
      vertex 29.9943 30.8232 10
      vertex 28.1 32.1995 10
    endloop
  endfacet
  facet normal -0.587785 -0.809017 0
    outer loop
      vertex 28.1 32.1995 0
      vertex 29.9943 30.8232 0
      vertex 28.1 32.1995 10
    endloop
  endfacet
  facet normal -0.743145 -0.669131 0
    outer loop
      vertex 31.561 29.0832 10
      vertex 29.9943 30.8232 10
      vertex 31.561 29.0832 0
    endloop
  endfacet
  facet normal -0.743145 -0.669131 0
    outer loop
      vertex 31.561 29.0832 0
      vertex 29.9943 30.8232 10
      vertex 29.9943 30.8232 0
    endloop
  endfacet
  facet normal -0.866025 -0.5 0
    outer loop
      vertex 32.7317 27.0554 10
      vertex 31.561 29.0832 10
      vertex 32.7317 27.0554 0
    endloop
  endfacet
  facet normal -0.866025 -0.5 0
    outer loop
      vertex 32.7317 27.0554 0
      vertex 31.561 29.0832 10
      vertex 31.561 29.0832 0
    endloop
  endfacet
  facet normal -0.951056 -0.309017 0
    outer loop
      vertex 33.4553 24.8286 10
      vertex 32.7317 27.0554 10
      vertex 33.4553 24.8286 0
    endloop
  endfacet
  facet normal -0.951056 -0.309017 0
    outer loop
      vertex 33.4553 24.8286 0
      vertex 32.7317 27.0554 10
      vertex 32.7317 27.0554 0
    endloop
  endfacet
  facet normal -0.994522 -0.104529 0
    outer loop
      vertex 33.7 22.5 10
      vertex 33.4553 24.8286 10
      vertex 33.7 22.5 0
    endloop
  endfacet
  facet normal -0.994522 -0.104529 0
    outer loop
      vertex 33.7 22.5 0
      vertex 33.4553 24.8286 10
      vertex 33.4553 24.8286 0
    endloop
  endfacet
  facet normal -0.994522 0.104529 0
    outer loop
      vertex 33.7 22.5 10
      vertex 33.7 22.5 0
      vertex 33.4553 20.1714 10
    endloop
  endfacet
  facet normal -0.994522 0.104529 0
    outer loop
      vertex 33.4553 20.1714 10
      vertex 33.7 22.5 0
      vertex 33.4553 20.1714 0
    endloop
  endfacet
  facet normal -0.951056 0.309017 0
    outer loop
      vertex 33.4553 20.1714 10
      vertex 33.4553 20.1714 0
      vertex 32.7317 17.9445 10
    endloop
  endfacet
  facet normal -0.951056 0.309017 0
    outer loop
      vertex 32.7317 17.9445 10
      vertex 33.4553 20.1714 0
      vertex 32.7317 17.9445 0
    endloop
  endfacet
  facet normal -0.866025 0.5 0
    outer loop
      vertex 32.7317 17.9445 10
      vertex 32.7317 17.9445 0
      vertex 31.561 15.9168 10
    endloop
  endfacet
  facet normal -0.866025 0.5 0
    outer loop
      vertex 31.561 15.9168 10
      vertex 32.7317 17.9445 0
      vertex 31.561 15.9168 0
    endloop
  endfacet
  facet normal -0.743145 0.669131 0
    outer loop
      vertex 31.561 15.9168 10
      vertex 31.561 15.9168 0
      vertex 29.9943 14.1768 10
    endloop
  endfacet
  facet normal -0.743145 0.669131 0
    outer loop
      vertex 29.9943 14.1768 10
      vertex 31.561 15.9168 0
      vertex 29.9943 14.1768 0
    endloop
  endfacet
  facet normal -0.587785 0.809017 0
    outer loop
      vertex 29.9943 14.1768 10
      vertex 29.9943 14.1768 0
      vertex 28.1 12.8005 10
    endloop
  endfacet
  facet normal -0.587785 0.809017 0
    outer loop
      vertex 28.1 12.8005 10
      vertex 29.9943 14.1768 0
      vertex 28.1 12.8005 0
    endloop
  endfacet
  facet normal -0.406736 0.913546 0
    outer loop
      vertex 28.1 12.8005 10
      vertex 28.1 12.8005 0
      vertex 25.961 11.8482 10
    endloop
  endfacet
  facet normal -0.406736 0.913546 0
    outer loop
      vertex 25.961 11.8482 10
      vertex 28.1 12.8005 0
      vertex 25.961 11.8482 0
    endloop
  endfacet
  facet normal -0.207912 0.978148 0
    outer loop
      vertex 25.961 11.8482 10
      vertex 24.5 11.5376 5
      vertex 23.6707 11.3614 10
    endloop
  endfacet
  facet normal -0.207912 0.978148 0
    outer loop
      vertex 23.6707 11.3614 10
      vertex 24.2709 11.4889 5.92945
      vertex 23.6707 11.3614 6.60692
    endloop
  endfacet
  facet normal -0.207912 0.978148 0
    outer loop
      vertex 24.5 11.5376 5
      vertex 24.2709 11.4889 5.92945
      vertex 23.6707 11.3614 10
    endloop
  endfacet
  facet normal -0.207912 0.978148 0
    outer loop
      vertex 24.2709 11.4889 4.07055
      vertex 24.5 11.5376 5
      vertex 25.961 11.8482 10
    endloop
  endfacet
  facet normal -0.207912 0.978148 0
    outer loop
      vertex 24.2709 11.4889 4.07055
      vertex 25.961 11.8482 10
      vertex 25.961 11.8482 0
    endloop
  endfacet
  facet normal -0.207912 0.978148 0
    outer loop
      vertex 24.2709 11.4889 4.07055
      vertex 25.961 11.8482 0
      vertex 23.6707 11.3614 3.39308
    endloop
  endfacet
  facet normal -0.207912 0.978148 0
    outer loop
      vertex 25.961 11.8482 0
      vertex 23.6707 11.3614 0
      vertex 23.6707 11.3614 3.39308
    endloop
  endfacet
  facet normal 0 1 0
    outer loop
      vertex 21.7908 11.3614 3.12997
      vertex 23.6707 11.3614 0
      vertex 21.3293 11.3614 3.44852
    endloop
  endfacet
  facet normal 0 1 0
    outer loop
      vertex 23.6707 11.3614 0
      vertex 22.7411 11.3614 3.01458
      vertex 23.6361 11.3614 3.35403
    endloop
  endfacet
  facet normal 0 1 0
    outer loop
      vertex 23.6707 11.3614 0
      vertex 23.6361 11.3614 3.35403
      vertex 23.6707 11.3614 3.39308
    endloop
  endfacet
  facet normal 0 1 0
    outer loop
      vertex 21.7908 11.3614 3.12997
      vertex 22.7411 11.3614 3.01458
      vertex 23.6707 11.3614 0
    endloop
  endfacet
  facet normal 0 1 0
    outer loop
      vertex 23.6707 11.3614 0
      vertex 21.3293 11.3614 0
      vertex 21.3293 11.3614 3.44852
    endloop
  endfacet
  facet normal 0.207912 0.978148 0
    outer loop
      vertex 21.3293 11.3614 10
      vertex 21.3293 11.3614 6.55148
      vertex 19.039 11.8482 10
    endloop
  endfacet
  facet normal 0.207912 0.978148 0
    outer loop
      vertex 19.039 11.8482 10
      vertex 21.3293 11.3614 6.55148
      vertex 21.003 11.4307 6.32625
    endloop
  endfacet
  facet normal 0.207912 0.978148 0
    outer loop
      vertex 19.039 11.8482 10
      vertex 21.003 11.4307 6.32625
      vertex 20.5581 11.5253 5.47863
    endloop
  endfacet
  facet normal 0.207912 0.978148 0
    outer loop
      vertex 20.5581 11.5253 5.47863
      vertex 20.5581 11.5253 4.52137
      vertex 19.039 11.8482 10
    endloop
  endfacet
  facet normal 0.207912 0.978148 0
    outer loop
      vertex 20.5581 11.5253 4.52137
      vertex 21.3293 11.3614 0
      vertex 19.039 11.8482 10
    endloop
  endfacet
  facet normal 0.207912 0.978148 0
    outer loop
      vertex 21.003 11.4307 3.67376
      vertex 21.3293 11.3614 3.44852
      vertex 21.3293 11.3614 0
    endloop
  endfacet
  facet normal 0.207912 0.978148 0
    outer loop
      vertex 21.003 11.4307 3.67376
      vertex 21.3293 11.3614 0
      vertex 20.5581 11.5253 4.52137
    endloop
  endfacet
  facet normal 0.207912 0.978148 0
    outer loop
      vertex 19.039 11.8482 10
      vertex 21.3293 11.3614 0
      vertex 19.039 11.8482 0
    endloop
  endfacet
  facet normal 0.406736 0.913546 0
    outer loop
      vertex 19.039 11.8482 10
      vertex 19.039 11.8482 0
      vertex 16.9 12.8005 10
    endloop
  endfacet
  facet normal 0.406736 0.913546 0
    outer loop
      vertex 16.9 12.8005 10
      vertex 19.039 11.8482 0
      vertex 16.9 12.8005 0
    endloop
  endfacet
  facet normal 0.587785 0.809017 0
    outer loop
      vertex 16.9 12.8005 10
      vertex 16.9 12.8005 0
      vertex 15.0057 14.1768 10
    endloop
  endfacet
  facet normal 0.587785 0.809017 0
    outer loop
      vertex 15.0057 14.1768 10
      vertex 16.9 12.8005 0
      vertex 15.0057 14.1768 0
    endloop
  endfacet
  facet normal 0.743145 0.669131 0
    outer loop
      vertex 13.439 15.9168 10
      vertex 15.0057 14.1768 10
      vertex 15.0057 14.1768 0
    endloop
  endfacet
  facet normal 0.743145 0.669131 0
    outer loop
      vertex 13.439 15.9168 0
      vertex 13.439 15.9168 10
      vertex 15.0057 14.1768 0
    endloop
  endfacet
  facet normal 0.866025 0.5 0
    outer loop
      vertex 12.2683 17.9445 10
      vertex 13.439 15.9168 10
      vertex 13.439 15.9168 0
    endloop
  endfacet
  facet normal 0.866025 0.5 0
    outer loop
      vertex 12.2683 17.9445 0
      vertex 12.2683 17.9445 10
      vertex 13.439 15.9168 0
    endloop
  endfacet
  facet normal 0.951056 0.309017 0
    outer loop
      vertex 11.5447 20.1714 10
      vertex 12.2683 17.9445 10
      vertex 12.2683 17.9445 0
    endloop
  endfacet
  facet normal 0.951056 0.309017 0
    outer loop
      vertex 11.5447 20.1714 0
      vertex 11.5447 20.1714 10
      vertex 12.2683 17.9445 0
    endloop
  endfacet
  facet normal 0.885456 -1.03189e-16 0.464724
    outer loop
      vertex 21.003 2.94486e-16 3.67375
      vertex 21.003 11.4307 3.67376
      vertex 20.5581 11.5253 4.52137
    endloop
  endfacet
  facet normal 0.885456 -1.03189e-16 0.464724
    outer loop
      vertex 20.5581 1.06277e-16 4.52137
      vertex 21.003 2.94486e-16 3.67375
      vertex 20.5581 11.5253 4.52137
    endloop
  endfacet
  facet normal 0.568065 -1.82739e-16 0.822984
    outer loop
      vertex 21.7908 4.15231e-16 3.12997
      vertex 21.7908 11.3614 3.12997
      vertex 21.3293 11.3614 3.44852
    endloop
  endfacet
  facet normal 0.568065 -1.82739e-16 0.822984
    outer loop
      vertex 21.003 11.4307 3.67376
      vertex 21.7908 4.15231e-16 3.12997
      vertex 21.3293 11.3614 3.44852
    endloop
  endfacet
  facet normal 0.568065 -1.82739e-16 0.822984
    outer loop
      vertex 21.003 11.4307 3.67376
      vertex 21.003 2.94486e-16 3.67375
      vertex 21.7908 4.15231e-16 3.12997
    endloop
  endfacet
  facet normal 0.120537 -2.20426e-16 0.992709
    outer loop
      vertex 22.7411 4.40851e-16 3.01458
      vertex 22.7411 11.3614 3.01458
      vertex 21.7908 11.3614 3.12997
    endloop
  endfacet
  facet normal 0.120537 -2.20426e-16 0.992709
    outer loop
      vertex 21.7908 4.15231e-16 3.12997
      vertex 22.7411 4.40851e-16 3.01458
      vertex 21.7908 11.3614 3.12997
    endloop
  endfacet
  facet normal -0.354605 -2.07615e-16 0.935016
    outer loop
      vertex 23.6361 3.65478e-16 3.35403
      vertex 23.6361 11.3614 3.35403
      vertex 22.7411 11.3614 3.01458
    endloop
  endfacet
  facet normal -0.354605 -2.07615e-16 0.935016
    outer loop
      vertex 22.7411 4.40851e-16 3.01458
      vertex 23.6361 3.65478e-16 3.35403
      vertex 22.7411 11.3614 3.01458
    endloop
  endfacet
  facet normal -0.748511 -1.47243e-16 0.663123
    outer loop
      vertex 24.2709 11.4889 4.07055
      vertex 23.6707 11.3614 3.39308
      vertex 24.2709 2.06378e-16 4.07055
    endloop
  endfacet
  facet normal -0.748511 -1.47243e-16 0.663123
    outer loop
      vertex 24.2709 2.06378e-16 4.07055
      vertex 23.6707 11.3614 3.39308
      vertex 23.6361 11.3614 3.35403
    endloop
  endfacet
  facet normal -0.748511 -1.47243e-16 0.663123
    outer loop
      vertex 24.2709 2.06378e-16 4.07055
      vertex 23.6361 11.3614 3.35403
      vertex 23.6361 3.65478e-16 3.35403
    endloop
  endfacet
  facet normal 0 1 0
    outer loop
      vertex 23.6707 11.3614 10
      vertex 23.6707 11.3614 6.60692
      vertex 21.3293 11.3614 10
    endloop
  endfacet
  facet normal 0 1 0
    outer loop
      vertex 21.3293 11.3614 10
      vertex 23.6707 11.3614 6.60692
      vertex 23.6361 11.3614 6.64597
    endloop
  endfacet
  facet normal 0 1 0
    outer loop
      vertex 21.3293 11.3614 10
      vertex 23.6361 11.3614 6.64597
      vertex 22.7411 11.3614 6.98542
    endloop
  endfacet
  facet normal 0 1 0
    outer loop
      vertex 22.7411 11.3614 6.98542
      vertex 21.7908 11.3614 6.87003
      vertex 21.3293 11.3614 10
    endloop
  endfacet
  facet normal 0 1 0
    outer loop
      vertex 21.7908 11.3614 6.87003
      vertex 21.3293 11.3614 6.55148
      vertex 21.3293 11.3614 10
    endloop
  endfacet
  facet normal 0 0 1
    outer loop
      vertex 25.961 11.8482 10
      vertex 5 5 10
      vertex 40 5 10
    endloop
  endfacet
  facet normal 0 0 1
    outer loop
      vertex 5 40 10
      vertex 5 5 10
      vertex 11.5447 20.1714 10
    endloop
  endfacet
  facet normal 0 0 1
    outer loop
      vertex 5 40 10
      vertex 11.5447 20.1714 10
      vertex 11.3 22.5 10
    endloop
  endfacet
  facet normal 0 0 1
    outer loop
      vertex 5 40 10
      vertex 11.3 22.5 10
      vertex 11.5447 24.8286 10
    endloop
  endfacet
  facet normal 0 0 1
    outer loop
      vertex 28.1 12.8005 10
      vertex 25.961 11.8482 10
      vertex 40 5 10
    endloop
  endfacet
  facet normal 0 0 1
    outer loop
      vertex 5 40 10
      vertex 11.5447 24.8286 10
      vertex 12.2683 27.0554 10
    endloop
  endfacet
  facet normal 0 0 1
    outer loop
      vertex 5 40 10
      vertex 12.2683 27.0554 10
      vertex 13.439 29.0832 10
    endloop
  endfacet
  facet normal 0 0 1
    outer loop
      vertex 16.9 32.1995 10
      vertex 5 40 10
      vertex 15.0057 30.8232 10
    endloop
  endfacet
  facet normal 0 0 1
    outer loop
      vertex 19.039 33.1518 10
      vertex 5 40 10
      vertex 16.9 32.1995 10
    endloop
  endfacet
  facet normal 0 0 1
    outer loop
      vertex 21.3293 33.6386 10
      vertex 23.6707 33.6386 10
      vertex 40 40 10
    endloop
  endfacet
  facet normal 0 0 1
    outer loop
      vertex 40 40 10
      vertex 5 40 10
      vertex 19.039 33.1518 10
    endloop
  endfacet
  facet normal 0 0 1
    outer loop
      vertex 33.4553 24.8286 10
      vertex 33.7 22.5 10
      vertex 40 5 10
    endloop
  endfacet
  facet normal 0 0 1
    outer loop
      vertex 31.561 15.9168 10
      vertex 29.9943 14.1768 10
      vertex 40 5 10
    endloop
  endfacet
  facet normal 0 0 1
    outer loop
      vertex 32.7317 17.9445 10
      vertex 31.561 15.9168 10
      vertex 40 5 10
    endloop
  endfacet
  facet normal 0 0 1
    outer loop
      vertex 40 40 10
      vertex 23.6707 33.6386 10
      vertex 25.961 33.1518 10
    endloop
  endfacet
  facet normal 0 0 1
    outer loop
      vertex 40 40 10
      vertex 25.961 33.1518 10
      vertex 28.1 32.1995 10
    endloop
  endfacet
  facet normal 0 0 1
    outer loop
      vertex 40 40 10
      vertex 28.1 32.1995 10
      vertex 29.9943 30.8232 10
    endloop
  endfacet
  facet normal 0 0 1
    outer loop
      vertex 33.7 22.5 10
      vertex 33.4553 20.1714 10
      vertex 40 5 10
    endloop
  endfacet
  facet normal 0 0 1
    outer loop
      vertex 40 40 10
      vertex 29.9943 30.8232 10
      vertex 31.561 29.0832 10
    endloop
  endfacet
  facet normal 0 0 1
    outer loop
      vertex 40 40 10
      vertex 32.7317 27.0554 10
      vertex 40 5 10
    endloop
  endfacet
  facet normal 0 0 1
    outer loop
      vertex 40 40 10
      vertex 31.561 29.0832 10
      vertex 32.7317 27.0554 10
    endloop
  endfacet
  facet normal 0 0 1
    outer loop
      vertex 32.7317 27.0554 10
      vertex 33.4553 24.8286 10
      vertex 40 5 10
    endloop
  endfacet
  facet normal 0 0 1
    outer loop
      vertex 19.039 33.1518 10
      vertex 21.3293 33.6386 10
      vertex 40 40 10
    endloop
  endfacet
  facet normal 0 0 1
    outer loop
      vertex 33.4553 20.1714 10
      vertex 32.7317 17.9445 10
      vertex 40 5 10
    endloop
  endfacet
  facet normal 0 0 1
    outer loop
      vertex 23.6707 11.3614 10
      vertex 5 5 10
      vertex 25.961 11.8482 10
    endloop
  endfacet
  facet normal 0 0 1
    outer loop
      vertex 21.3293 11.3614 10
      vertex 5 5 10
      vertex 23.6707 11.3614 10
    endloop
  endfacet
  facet normal 0 0 1
    outer loop
      vertex 19.039 11.8482 10
      vertex 5 5 10
      vertex 21.3293 11.3614 10
    endloop
  endfacet
  facet normal 0 0 1
    outer loop
      vertex 16.9 12.8005 10
      vertex 5 5 10
      vertex 19.039 11.8482 10
    endloop
  endfacet
  facet normal 0 0 1
    outer loop
      vertex 15.0057 14.1768 10
      vertex 5 5 10
      vertex 16.9 12.8005 10
    endloop
  endfacet
  facet normal 0 0 1
    outer loop
      vertex 13.439 15.9168 10
      vertex 5 5 10
      vertex 15.0057 14.1768 10
    endloop
  endfacet
  facet normal 0 0 1
    outer loop
      vertex 12.2683 17.9445 10
      vertex 5 5 10
      vertex 13.439 15.9168 10
    endloop
  endfacet
  facet normal 0 0 1
    outer loop
      vertex 11.5447 20.1714 10
      vertex 5 5 10
      vertex 12.2683 17.9445 10
    endloop
  endfacet
  facet normal 0 0 1
    outer loop
      vertex 13.439 29.0832 10
      vertex 15.0057 30.8232 10
      vertex 5 40 10
    endloop
  endfacet
  facet normal 0 0 1
    outer loop
      vertex 29.9943 14.1768 10
      vertex 28.1 12.8005 10
      vertex 40 5 10
    endloop
  endfacet
  facet normal 1 0 0
    outer loop
      vertex 20.5581 40 4.52137
      vertex 20.5581 40 5.47863
      vertex 20.5581 33.4747 5.47863
    endloop
  endfacet
  facet normal 1 0 0
    outer loop
      vertex 20.5581 33.4747 4.52137
      vertex 20.5581 40 4.52137
      vertex 20.5581 33.4747 5.47863
    endloop
  endfacet
  facet normal 0.885456 1.03189e-16 -0.464724
    outer loop
      vertex 20.5581 40 5.47863
      vertex 21.003 40 6.32625
      vertex 21.003 33.5693 6.32625
    endloop
  endfacet
  facet normal 0.885456 1.03189e-16 -0.464724
    outer loop
      vertex 20.5581 33.4747 5.47863
      vertex 20.5581 40 5.47863
      vertex 21.003 33.5693 6.32625
    endloop
  endfacet
  facet normal 0.568065 1.82739e-16 -0.822984
    outer loop
      vertex 21.7908 40 6.87003
      vertex 21.7908 33.6386 6.87003
      vertex 21.003 40 6.32625
    endloop
  endfacet
  facet normal 0.568065 1.82739e-16 -0.822984
    outer loop
      vertex 21.003 40 6.32625
      vertex 21.7908 33.6386 6.87003
      vertex 21.3293 33.6386 6.55148
    endloop
  endfacet
  facet normal 0.568065 1.82739e-16 -0.822984
    outer loop
      vertex 21.003 40 6.32625
      vertex 21.3293 33.6386 6.55148
      vertex 21.003 33.5693 6.32625
    endloop
  endfacet
  facet normal 0.120537 2.20426e-16 -0.992709
    outer loop
      vertex 22.7411 40 6.98542
      vertex 22.7411 33.6386 6.98542
      vertex 21.7908 40 6.87003
    endloop
  endfacet
  facet normal 0.120537 2.20426e-16 -0.992709
    outer loop
      vertex 21.7908 40 6.87003
      vertex 22.7411 33.6386 6.98542
      vertex 21.7908 33.6386 6.87003
    endloop
  endfacet
  facet normal -0.354605 2.07615e-16 -0.935016
    outer loop
      vertex 23.6361 40 6.64597
      vertex 23.6361 33.6386 6.64597
      vertex 22.7411 40 6.98542
    endloop
  endfacet
  facet normal -0.354605 2.07615e-16 -0.935016
    outer loop
      vertex 22.7411 40 6.98542
      vertex 23.6361 33.6386 6.64597
      vertex 22.7411 33.6386 6.98542
    endloop
  endfacet
  facet normal -0.748511 1.47243e-16 -0.663123
    outer loop
      vertex 24.2709 40 5.92945
      vertex 24.2709 33.5111 5.92945
      vertex 23.6361 40 6.64597
    endloop
  endfacet
  facet normal -0.748511 1.47243e-16 -0.663123
    outer loop
      vertex 23.6361 40 6.64597
      vertex 24.2709 33.5111 5.92945
      vertex 23.6707 33.6386 6.60692
    endloop
  endfacet
  facet normal -0.748511 1.47243e-16 -0.663123
    outer loop
      vertex 23.6361 40 6.64597
      vertex 23.6707 33.6386 6.60692
      vertex 23.6361 33.6386 6.64597
    endloop
  endfacet
  facet normal -0.970942 5.31388e-17 -0.239316
    outer loop
      vertex 24.5 40 5
      vertex 24.5 33.4624 5
      vertex 24.2709 40 5.92945
    endloop
  endfacet
  facet normal -0.970942 5.31388e-17 -0.239316
    outer loop
      vertex 24.2709 40 5.92945
      vertex 24.5 33.4624 5
      vertex 24.2709 33.5111 5.92945
    endloop
  endfacet
  facet normal -0.970942 -5.31388e-17 0.239316
    outer loop
      vertex 24.5 40 5
      vertex 24.2709 40 4.07055
      vertex 24.5 33.4624 5
    endloop
  endfacet
  facet normal -0.970942 -5.31388e-17 0.239316
    outer loop
      vertex 24.5 33.4624 5
      vertex 24.2709 40 4.07055
      vertex 24.2709 33.5111 4.07055
    endloop
  endfacet
  facet normal -0.748511 -1.47243e-16 0.663123
    outer loop
      vertex 24.2709 33.5111 4.07055
      vertex 24.2709 40 4.07055
      vertex 23.6707 33.6386 3.39308
    endloop
  endfacet
  facet normal -0.748511 -1.47243e-16 0.663123
    outer loop
      vertex 23.6707 33.6386 3.39308
      vertex 24.2709 40 4.07055
      vertex 23.6361 40 3.35403
    endloop
  endfacet
  facet normal -0.748511 -1.47243e-16 0.663123
    outer loop
      vertex 23.6707 33.6386 3.39308
      vertex 23.6361 40 3.35403
      vertex 23.6361 33.6386 3.35403
    endloop
  endfacet
  facet normal -0.354605 -2.07615e-16 0.935016
    outer loop
      vertex 23.6361 33.6386 3.35403
      vertex 23.6361 40 3.35403
      vertex 22.7411 40 3.01458
    endloop
  endfacet
  facet normal -0.354605 -2.07615e-16 0.935016
    outer loop
      vertex 22.7411 33.6386 3.01458
      vertex 23.6361 33.6386 3.35403
      vertex 22.7411 40 3.01458
    endloop
  endfacet
  facet normal 0.120537 -2.20426e-16 0.992709
    outer loop
      vertex 22.7411 33.6386 3.01458
      vertex 22.7411 40 3.01458
      vertex 21.7908 40 3.12997
    endloop
  endfacet
  facet normal 0.120537 -2.20426e-16 0.992709
    outer loop
      vertex 21.7908 33.6386 3.12997
      vertex 22.7411 33.6386 3.01458
      vertex 21.7908 40 3.12997
    endloop
  endfacet
  facet normal 0.568065 -1.82739e-16 0.822984
    outer loop
      vertex 21.3293 33.6386 3.44852
      vertex 21.7908 33.6386 3.12997
      vertex 21.7908 40 3.12997
    endloop
  endfacet
  facet normal 0.568065 -1.82739e-16 0.822984
    outer loop
      vertex 21.003 33.5693 3.67376
      vertex 21.3293 33.6386 3.44852
      vertex 21.003 40 3.67376
    endloop
  endfacet
  facet normal 0.568065 -1.82739e-16 0.822984
    outer loop
      vertex 21.003 40 3.67376
      vertex 21.3293 33.6386 3.44852
      vertex 21.7908 40 3.12997
    endloop
  endfacet
  facet normal 0.885456 -1.03189e-16 0.464724
    outer loop
      vertex 21.003 33.5693 3.67376
      vertex 21.003 40 3.67376
      vertex 20.5581 40 4.52137
    endloop
  endfacet
  facet normal 0.885456 -1.03189e-16 0.464724
    outer loop
      vertex 20.5581 33.4747 4.52137
      vertex 21.003 33.5693 3.67376
      vertex 20.5581 40 4.52137
    endloop
  endfacet
  facet normal 0 -1 0
    outer loop
      vertex 23.6707 33.6386 10
      vertex 22.7411 33.6386 6.98542
      vertex 23.6361 33.6386 6.64597
    endloop
  endfacet
  facet normal 0 -1 0
    outer loop
      vertex 21.7908 33.6386 6.87003
      vertex 22.7411 33.6386 6.98542
      vertex 23.6707 33.6386 10
    endloop
  endfacet
  facet normal 0 -1 0
    outer loop
      vertex 23.6707 33.6386 6.60692
      vertex 23.6707 33.6386 10
      vertex 23.6361 33.6386 6.64597
    endloop
  endfacet
  facet normal 0 -1 0
    outer loop
      vertex 23.6707 33.6386 10
      vertex 21.3293 33.6386 10
      vertex 21.7908 33.6386 6.87003
    endloop
  endfacet
  facet normal 0 -1 0
    outer loop
      vertex 21.3293 33.6386 10
      vertex 21.3293 33.6386 6.55148
      vertex 21.7908 33.6386 6.87003
    endloop
  endfacet
endsolid OpenSCAD_Model
