solid OpenSCAD_Model
  facet normal -1 0 0
    outer loop
      vertex 0 0 0
      vertex 0 40 3
      vertex 0 40 0
    endloop
  endfacet
  facet normal -1 -0 0
    outer loop
      vertex 0 40 3
      vertex 0 0 0
      vertex 0 0 3
    endloop
  endfacet
  facet normal 0 0 1
    outer loop
      vertex 40 40 3
      vertex 36.5 27.5 3
      vertex 40 18.25 3
    endloop
  endfacet
  facet normal 0 0 1
    outer loop
      vertex 40 40 3
      vertex 36.2135 28.3817 3
      vertex 36.5 27.5 3
    endloop
  endfacet
  facet normal 0 0 1
    outer loop
      vertex 40 40 3
      vertex 35.4635 28.9266 3
      vertex 36.2135 28.3817 3
    endloop
  endfacet
  facet normal 0 0 1
    outer loop
      vertex 40 40 3
      vertex 34.5365 28.9266 3
      vertex 35.4635 28.9266 3
    endloop
  endfacet
  facet normal -0 0 1
    outer loop
      vertex 23.3992 31.9656 3
      vertex 34.5365 28.9266 3
      vertex 40 40 3
    endloop
  endfacet
  facet normal -0 0 1
    outer loop
      vertex 25.2596 27.787 3
      vertex 33.5 27.5 3
      vertex 33.7865 28.3817 3
    endloop
  endfacet
  facet normal -0 -0 1
    outer loop
      vertex 24.549 29.9741 3
      vertex 34.5365 28.9266 3
      vertex 23.3992 31.9656 3
    endloop
  endfacet
  facet normal 0 0 1
    outer loop
      vertex 33.5 27.5 3
      vertex 25.2596 27.787 3
      vertex 25.5 25.5 3
    endloop
  endfacet
  facet normal 0 0 1
    outer loop
      vertex 33.7865 28.3817 3
      vertex 24.549 29.9741 3
      vertex 25.2596 27.787 3
    endloop
  endfacet
  facet normal 0 0 1
    outer loop
      vertex 34.5365 28.9266 3
      vertex 24.549 29.9741 3
      vertex 33.7865 28.3817 3
    endloop
  endfacet
  facet normal 0 0 1
    outer loop
      vertex 40 40 3
      vertex 21.8604 33.6746 3
      vertex 23.3992 31.9656 3
    endloop
  endfacet
  facet normal 0 0 1
    outer loop
      vertex 40 40 3
      vertex 20 35.0263 3
      vertex 21.8604 33.6746 3
    endloop
  endfacet
  facet normal 0 0 1
    outer loop
      vertex 40 40 3
      vertex 17.8992 35.9616 3
      vertex 20 35.0263 3
    endloop
  endfacet
  facet normal 0 0 1
    outer loop
      vertex 40 40 3
      vertex 15.6498 36.4397 3
      vertex 17.8992 35.9616 3
    endloop
  endfacet
  facet normal -0 0 1
    outer loop
      vertex 0 40 3
      vertex 15.6498 36.4397 3
      vertex 40 40 3
    endloop
  endfacet
  facet normal 0 0 1
    outer loop
      vertex 3.74038 27.787 3
      vertex 0 40 3
      vertex 3.5 25.5 3
    endloop
  endfacet
  facet normal 0 0 1
    outer loop
      vertex 4.451 29.9741 3
      vertex 0 40 3
      vertex 3.74038 27.787 3
    endloop
  endfacet
  facet normal 0 0 1
    outer loop
      vertex 5.60081 31.9656 3
      vertex 0 40 3
      vertex 4.451 29.9741 3
    endloop
  endfacet
  facet normal 0 0 1
    outer loop
      vertex 7.13956 33.6746 3
      vertex 0 40 3
      vertex 5.60081 31.9656 3
    endloop
  endfacet
  facet normal 0 0 1
    outer loop
      vertex 9 35.0263 3
      vertex 0 40 3
      vertex 7.13956 33.6746 3
    endloop
  endfacet
  facet normal 0 0 1
    outer loop
      vertex 11.1008 35.9616 3
      vertex 0 40 3
      vertex 9 35.0263 3
    endloop
  endfacet
  facet normal 0 0 1
    outer loop
      vertex 13.3502 36.4397 3
      vertex 0 40 3
      vertex 11.1008 35.9616 3
    endloop
  endfacet
  facet normal 0 0 1
    outer loop
      vertex 15.6498 36.4397 3
      vertex 0 40 3
      vertex 13.3502 36.4397 3
    endloop
  endfacet
  facet normal -0 0 1
    outer loop
      vertex 36.2135 26.6183 3
      vertex 40 18.25 3
      vertex 36.5 27.5 3
    endloop
  endfacet
  facet normal -0 0 1
    outer loop
      vertex 35.4635 26.0734 3
      vertex 40 18.25 3
      vertex 36.2135 26.6183 3
    endloop
  endfacet
  facet normal -0 0 1
    outer loop
      vertex 34.5365 26.0734 3
      vertex 40 18.25 3
      vertex 35.4635 26.0734 3
    endloop
  endfacet
  facet normal 0 0 1
    outer loop
      vertex 25.2596 23.213 3
      vertex 34.5365 26.0734 3
      vertex 33.7865 26.6183 3
    endloop
  endfacet
  facet normal 0 0 1
    outer loop
      vertex 25.5 25.5 3
      vertex 33.7865 26.6183 3
      vertex 33.5 27.5 3
    endloop
  endfacet
  facet normal 0 0 1
    outer loop
      vertex 25.2596 23.213 3
      vertex 33.7865 26.6183 3
      vertex 25.5 25.5 3
    endloop
  endfacet
  facet normal 0 0 1
    outer loop
      vertex 34.5365 26.0734 3
      vertex 25.2596 23.213 3
      vertex 24.549 21.0259 3
    endloop
  endfacet
  facet normal 0 0 1
    outer loop
      vertex 34.5365 26.0734 3
      vertex 24.549 21.0259 3
      vertex 40 18.25 3
    endloop
  endfacet
  facet normal -0 0 1
    outer loop
      vertex 23.3992 19.0344 3
      vertex 40 18.25 3
      vertex 24.549 21.0259 3
    endloop
  endfacet
  facet normal 0 0 1
    outer loop
      vertex 40 18.25 3
      vertex 23.3992 19.0344 3
      vertex 22.6929 18.25 3
    endloop
  endfacet
  facet normal 0 0 1
    outer loop
      vertex 17.8992 15.0384 3
      vertex 13.7135 5.88168 3
      vertex 14 5 3
    endloop
  endfacet
  facet normal 0 0 1
    outer loop
      vertex 12.9635 6.42658 3
      vertex 15.6498 14.5603 3
      vertex 13.3502 14.5603 3
    endloop
  endfacet
  facet normal 0 0 1
    outer loop
      vertex 15.6498 14.5603 3
      vertex 12.9635 6.42658 3
      vertex 13.7135 5.88168 3
    endloop
  endfacet
  facet normal 0 0 1
    outer loop
      vertex 13.3502 14.5603 3
      vertex 12.0365 6.42658 3
      vertex 12.9635 6.42658 3
    endloop
  endfacet
  facet normal 0 0 1
    outer loop
      vertex 11.1008 15.0384 3
      vertex 12.0365 6.42658 3
      vertex 13.3502 14.5603 3
    endloop
  endfacet
  facet normal 0 0 1
    outer loop
      vertex 12.0365 6.42658 3
      vertex 11.1008 15.0384 3
      vertex 11.2865 5.88168 3
    endloop
  endfacet
  facet normal 0 0 1
    outer loop
      vertex 9 15.9737 3
      vertex 11.2865 5.88168 3
      vertex 11.1008 15.0384 3
    endloop
  endfacet
  facet normal 0 0 1
    outer loop
      vertex 7.13956 17.3254 3
      vertex 11.2865 5.88168 3
      vertex 9 15.9737 3
    endloop
  endfacet
  facet normal -0 0 1
    outer loop
      vertex 21.8604 17.3254 3
      vertex 22.6 0 3
      vertex 22.6 18.1468 3
    endloop
  endfacet
  facet normal -0 0 1
    outer loop
      vertex 20 15.9737 3
      vertex 22.6 0 3
      vertex 21.8604 17.3254 3
    endloop
  endfacet
  facet normal -0 0 1
    outer loop
      vertex 17.8992 15.0384 3
      vertex 22.6 0 3
      vertex 20 15.9737 3
    endloop
  endfacet
  facet normal 0 0 1
    outer loop
      vertex 13.7135 5.88168 3
      vertex 17.8992 15.0384 3
      vertex 15.6498 14.5603 3
    endloop
  endfacet
  facet normal 0 0 1
    outer loop
      vertex 17.8992 15.0384 3
      vertex 14 5 3
      vertex 22.6 0 3
    endloop
  endfacet
  facet normal -0 0 1
    outer loop
      vertex 13.7135 4.11832 3
      vertex 22.6 0 3
      vertex 14 5 3
    endloop
  endfacet
  facet normal -0 0 1
    outer loop
      vertex 12.9635 3.57341 3
      vertex 22.6 0 3
      vertex 13.7135 4.11832 3
    endloop
  endfacet
  facet normal -0 0 1
    outer loop
      vertex 12.0365 3.57341 3
      vertex 22.6 0 3
      vertex 12.9635 3.57341 3
    endloop
  endfacet
  facet normal 0 0 1
    outer loop
      vertex 0 0 3
      vertex 11.2865 5.88168 3
      vertex 7.13956 17.3254 3
    endloop
  endfacet
  facet normal 0 0 1
    outer loop
      vertex 0 0 3
      vertex 7.13956 17.3254 3
      vertex 5.60081 19.0344 3
    endloop
  endfacet
  facet normal 0 0 1
    outer loop
      vertex 11.2865 5.88168 3
      vertex 0 0 3
      vertex 11 5 3
    endloop
  endfacet
  facet normal 0 0 1
    outer loop
      vertex 0 0 3
      vertex 5.60081 19.0344 3
      vertex 4.451 21.0259 3
    endloop
  endfacet
  facet normal 0 0 1
    outer loop
      vertex 0 0 3
      vertex 3.5 25.5 3
      vertex 0 40 3
    endloop
  endfacet
  facet normal 0 0 1
    outer loop
      vertex 12.0365 3.57341 3
      vertex 0 0 3
      vertex 22.6 0 3
    endloop
  endfacet
  facet normal 0 0 1
    outer loop
      vertex 11.2865 4.11832 3
      vertex 0 0 3
      vertex 12.0365 3.57341 3
    endloop
  endfacet
  facet normal 0 0 1
    outer loop
      vertex 11 5 3
      vertex 0 0 3
      vertex 11.2865 4.11832 3
    endloop
  endfacet
  facet normal 0 0 1
    outer loop
      vertex 3.74038 23.213 3
      vertex 0 0 3
      vertex 4.451 21.0259 3
    endloop
  endfacet
  facet normal 0 0 1
    outer loop
      vertex 3.5 25.5 3
      vertex 0 0 3
      vertex 3.74038 23.213 3
    endloop
  endfacet
  facet normal 0 0 -1
    outer loop
      vertex 22.6 18.25 3
      vertex 22.6929 18.25 3
      vertex 22.6 18.1468 3
    endloop
  endfacet
  facet normal 1 -0 0
    outer loop
      vertex 40 18.25 3
      vertex 40 40 0
      vertex 40 40 3
    endloop
  endfacet
  facet normal 1 0 0
    outer loop
      vertex 40 40 0
      vertex 40 18.25 3
      vertex 40 18.25 0
    endloop
  endfacet
  facet normal 0 0 -1
    outer loop
      vertex 16.3541 31.2063 0
      vertex 15.7135 32.6183 0
      vertex 16 33.5 0
    endloop
  endfacet
  facet normal 0 0 -1
    outer loop
      vertex 15.1272 31.4671 0
      vertex 15.7135 32.6183 0
      vertex 16.3541 31.2063 0
    endloop
  endfacet
  facet normal 0 0 -1
    outer loop
      vertex 15.1272 31.4671 0
      vertex 14.9635 32.0734 0
      vertex 15.7135 32.6183 0
    endloop
  endfacet
  facet normal 0 0 -1
    outer loop
      vertex 15.1272 31.4671 0
      vertex 14.0365 32.0734 0
      vertex 14.9635 32.0734 0
    endloop
  endfacet
  facet normal 0 0 -1
    outer loop
      vertex 13.8728 31.4671 0
      vertex 14.0365 32.0734 0
      vertex 15.1272 31.4671 0
    endloop
  endfacet
  facet normal 0 0 -1
    outer loop
      vertex 13.8728 31.4671 0
      vertex 13.2865 32.6183 0
      vertex 14.0365 32.0734 0
    endloop
  endfacet
  facet normal -0 0 -1
    outer loop
      vertex 13.2865 32.6183 0
      vertex 12.6459 31.2063 0
      vertex 13 33.5 0
    endloop
  endfacet
  facet normal 0 0 -1
    outer loop
      vertex 12.6459 31.2063 0
      vertex 13.2865 32.6183 0
      vertex 13.8728 31.4671 0
    endloop
  endfacet
  facet normal 0 0 -1
    outer loop
      vertex 13.7135 5.88168 0
      vertex 22.6 18.25 0
      vertex 22.6 0 0
    endloop
  endfacet
  facet normal 0 -0 -1
    outer loop
      vertex 19.9813 23.0596 0
      vertex 22.6 18.25 0
      vertex 19.3541 21.9733 0
    endloop
  endfacet
  facet normal 0 0 -1
    outer loop
      vertex 22.6 18.25 0
      vertex 19.9813 23.0596 0
      vertex 22.0365 24.0734 0
    endloop
  endfacet
  facet normal 0 0 -1
    outer loop
      vertex 22.0365 24.0734 0
      vertex 20.3689 24.2525 0
      vertex 21.2865 24.6183 0
    endloop
  endfacet
  facet normal 0 0 -1
    outer loop
      vertex 21.2865 24.6183 0
      vertex 20.5 25.5 0
      vertex 21 25.5 0
    endloop
  endfacet
  facet normal 0 -0 -1
    outer loop
      vertex 20.5 25.5 0
      vertex 21.2865 24.6183 0
      vertex 20.3689 24.2525 0
    endloop
  endfacet
  facet normal 0 -0 -1
    outer loop
      vertex 20.3689 24.2525 0
      vertex 22.0365 24.0734 0
      vertex 19.9813 23.0596 0
    endloop
  endfacet
  facet normal 0 0 -1
    outer loop
      vertex 22.6 18.25 0
      vertex 18.5148 21.0411 0
      vertex 19.3541 21.9733 0
    endloop
  endfacet
  facet normal 0 -0 -1
    outer loop
      vertex 16 17.5 0
      vertex 22.6 18.25 0
      vertex 15.7135 16.6183 0
    endloop
  endfacet
  facet normal 0 -0 -1
    outer loop
      vertex 17.5 20.3038 0
      vertex 22.6 18.25 0
      vertex 16 17.5 0
    endloop
  endfacet
  facet normal 0 0 -1
    outer loop
      vertex 17.5 20.3038 0
      vertex 16 17.5 0
      vertex 16.3541 19.7937 0
    endloop
  endfacet
  facet normal 0 0 -1
    outer loop
      vertex 22.6 18.25 0
      vertex 17.5 20.3038 0
      vertex 18.5148 21.0411 0
    endloop
  endfacet
  facet normal 0 0 -1
    outer loop
      vertex 22.6 18.25 0
      vertex 13.7135 5.88168 0
      vertex 15.7135 16.6183 0
    endloop
  endfacet
  facet normal 0 0 -1
    outer loop
      vertex 15.7135 16.6183 0
      vertex 13.7135 5.88168 0
      vertex 14.9635 16.0734 0
    endloop
  endfacet
  facet normal 0 0 -1
    outer loop
      vertex 13.7135 5.88168 0
      vertex 22.6 0 0
      vertex 14 5 0
    endloop
  endfacet
  facet normal 0 0 -1
    outer loop
      vertex 22.6 0 0
      vertex 13.7135 4.11832 0
      vertex 14 5 0
    endloop
  endfacet
  facet normal 0 0 -1
    outer loop
      vertex 22.6 0 0
      vertex 12.9635 3.57341 0
      vertex 13.7135 4.11832 0
    endloop
  endfacet
  facet normal 0 0 -1
    outer loop
      vertex 22.6 0 0
      vertex 12.0365 3.57341 0
      vertex 12.9635 3.57341 0
    endloop
  endfacet
  facet normal 0 0 -1
    outer loop
      vertex 11.2865 5.88168 0
      vertex 9.6459 21.9733 0
      vertex 10.4852 21.0411 0
    endloop
  endfacet
  facet normal 0 0 -1
    outer loop
      vertex 11.2865 5.88168 0
      vertex 6.03647 24.0734 0
      vertex 9.6459 21.9733 0
    endloop
  endfacet
  facet normal -0 -0 -1
    outer loop
      vertex 6.96352 24.0734 0
      vertex 9.6459 21.9733 0
      vertex 6.03647 24.0734 0
    endloop
  endfacet
  facet normal 0 0 -1
    outer loop
      vertex 7.71352 24.6183 0
      vertex 8.5 25.5 0
      vertex 8.63111 24.2525 0
    endloop
  endfacet
  facet normal 0 0 -1
    outer loop
      vertex 9.01873 23.0596 0
      vertex 6.96352 24.0734 0
      vertex 8.63111 24.2525 0
    endloop
  endfacet
  facet normal -0 0 -1
    outer loop
      vertex 8.5 25.5 0
      vertex 7.71352 24.6183 0
      vertex 8 25.5 0
    endloop
  endfacet
  facet normal -0 0 -1
    outer loop
      vertex 8.63111 24.2525 0
      vertex 6.96352 24.0734 0
      vertex 7.71352 24.6183 0
    endloop
  endfacet
  facet normal 0 0 -1
    outer loop
      vertex 9.6459 21.9733 0
      vertex 6.96352 24.0734 0
      vertex 9.01873 23.0596 0
    endloop
  endfacet
  facet normal -0 0 -1
    outer loop
      vertex 11.2865 5.88168 0
      vertex 0 0 0
      vertex 6.03647 24.0734 0
    endloop
  endfacet
  facet normal -0 0 -1
    outer loop
      vertex 6.03647 24.0734 0
      vertex 0 0 0
      vertex 5.28647 24.6183 0
    endloop
  endfacet
  facet normal -0 0 -1
    outer loop
      vertex 5.28647 24.6183 0
      vertex 0 0 0
      vertex 5 25.5 0
    endloop
  endfacet
  facet normal -0 0 -1
    outer loop
      vertex 11.2865 4.11832 0
      vertex 0 0 0
      vertex 11 5 0
    endloop
  endfacet
  facet normal -0 0 -1
    outer loop
      vertex 12.0365 3.57341 0
      vertex 0 0 0
      vertex 11.2865 4.11832 0
    endloop
  endfacet
  facet normal 0 0 -1
    outer loop
      vertex 0 0 0
      vertex 12.0365 3.57341 0
      vertex 22.6 0 0
    endloop
  endfacet
  facet normal 0 0 -1
    outer loop
      vertex 40 18.25 0
      vertex 36.5 27.5 0
      vertex 40 40 0
    endloop
  endfacet
  facet normal 0 0 -1
    outer loop
      vertex 40 18.25 0
      vertex 36.2135 26.6183 0
      vertex 36.5 27.5 0
    endloop
  endfacet
  facet normal 0 0 -1
    outer loop
      vertex 40 18.25 0
      vertex 35.4635 26.0734 0
      vertex 36.2135 26.6183 0
    endloop
  endfacet
  facet normal 0 0 -1
    outer loop
      vertex 40 18.25 0
      vertex 34.5365 26.0734 0
      vertex 35.4635 26.0734 0
    endloop
  endfacet
  facet normal 0 0 -1
    outer loop
      vertex 22.6 18.25 0
      vertex 34.5365 26.0734 0
      vertex 40 18.25 0
    endloop
  endfacet
  facet normal -0 0 -1
    outer loop
      vertex 33.7865 26.6183 0
      vertex 24 25.5 0
      vertex 33.5 27.5 0
    endloop
  endfacet
  facet normal -0 0 -1
    outer loop
      vertex 34.5365 26.0734 0
      vertex 22.6 18.25 0
      vertex 33.7865 26.6183 0
    endloop
  endfacet
  facet normal 0 0 -1
    outer loop
      vertex 33.7865 26.6183 0
      vertex 23.7135 24.6183 0
      vertex 24 25.5 0
    endloop
  endfacet
  facet normal 0 0 -1
    outer loop
      vertex 33.7865 26.6183 0
      vertex 22.6 18.25 0
      vertex 23.7135 24.6183 0
    endloop
  endfacet
  facet normal 0 0 -1
    outer loop
      vertex 23.7135 24.6183 0
      vertex 22.6 18.25 0
      vertex 22.9635 24.0734 0
    endloop
  endfacet
  facet normal -0 0 -1
    outer loop
      vertex 22.9635 24.0734 0
      vertex 22.6 18.25 0
      vertex 22.0365 24.0734 0
    endloop
  endfacet
  facet normal 0 0 -1
    outer loop
      vertex 36.2135 28.3817 0
      vertex 40 40 0
      vertex 36.5 27.5 0
    endloop
  endfacet
  facet normal 0 0 -1
    outer loop
      vertex 35.4635 28.9266 0
      vertex 40 40 0
      vertex 36.2135 28.3817 0
    endloop
  endfacet
  facet normal 0 0 -1
    outer loop
      vertex 34.5365 28.9266 0
      vertex 40 40 0
      vertex 35.4635 28.9266 0
    endloop
  endfacet
  facet normal 0 0 -1
    outer loop
      vertex 15.7135 34.3817 0
      vertex 34.5365 28.9266 0
      vertex 33.7865 28.3817 0
    endloop
  endfacet
  facet normal 0 0 -1
    outer loop
      vertex 23.7135 26.3817 0
      vertex 33.5 27.5 0
      vertex 24 25.5 0
    endloop
  endfacet
  facet normal -0 0 -1
    outer loop
      vertex 33.5 27.5 0
      vertex 23.7135 26.3817 0
      vertex 33.7865 28.3817 0
    endloop
  endfacet
  facet normal 0 0 -1
    outer loop
      vertex 22.9635 26.9266 0
      vertex 33.7865 28.3817 0
      vertex 23.7135 26.3817 0
    endloop
  endfacet
  facet normal 0 0 -1
    outer loop
      vertex 18.5148 29.9589 0
      vertex 33.7865 28.3817 0
      vertex 22.9635 26.9266 0
    endloop
  endfacet
  facet normal 0 0 -1
    outer loop
      vertex 19.3541 29.0267 0
      vertex 22.9635 26.9266 0
      vertex 22.0365 26.9266 0
    endloop
  endfacet
  facet normal 0 0 -1
    outer loop
      vertex 20.3689 26.7475 0
      vertex 22.0365 26.9266 0
      vertex 21.2865 26.3817 0
    endloop
  endfacet
  facet normal 0 0 -1
    outer loop
      vertex 20.5 25.5 0
      vertex 21.2865 26.3817 0
      vertex 21 25.5 0
    endloop
  endfacet
  facet normal 0 0 -1
    outer loop
      vertex 20.3689 26.7475 0
      vertex 21.2865 26.3817 0
      vertex 20.5 25.5 0
    endloop
  endfacet
  facet normal -0 0 -1
    outer loop
      vertex 22.0365 26.9266 0
      vertex 20.3689 26.7475 0
      vertex 19.9813 27.9404 0
    endloop
  endfacet
  facet normal 0 0 -1
    outer loop
      vertex 22.0365 26.9266 0
      vertex 19.9813 27.9404 0
      vertex 19.3541 29.0267 0
    endloop
  endfacet
  facet normal 0 0 -1
    outer loop
      vertex 18.5148 29.9589 0
      vertex 22.9635 26.9266 0
      vertex 19.3541 29.0267 0
    endloop
  endfacet
  facet normal 0 0 -1
    outer loop
      vertex 15.7135 34.3817 0
      vertex 33.7865 28.3817 0
      vertex 18.5148 29.9589 0
    endloop
  endfacet
  facet normal 0 0 -1
    outer loop
      vertex 16 33.5 0
      vertex 18.5148 29.9589 0
      vertex 17.5 30.6962 0
    endloop
  endfacet
  facet normal 0 0 -1
    outer loop
      vertex 16 33.5 0
      vertex 17.5 30.6962 0
      vertex 16.3541 31.2063 0
    endloop
  endfacet
  facet normal 0 0 -1
    outer loop
      vertex 18.5148 29.9589 0
      vertex 16 33.5 0
      vertex 15.7135 34.3817 0
    endloop
  endfacet
  facet normal 0 0 -1
    outer loop
      vertex 34.5365 28.9266 0
      vertex 15.7135 34.3817 0
      vertex 40 40 0
    endloop
  endfacet
  facet normal 0 0 -1
    outer loop
      vertex 14.9635 34.9266 0
      vertex 40 40 0
      vertex 15.7135 34.3817 0
    endloop
  endfacet
  facet normal 0 0 -1
    outer loop
      vertex 0 40 0
      vertex 14.9635 34.9266 0
      vertex 14.0365 34.9266 0
    endloop
  endfacet
  facet normal 0 0 -1
    outer loop
      vertex 11.5 30.6962 0
      vertex 13 33.5 0
      vertex 12.6459 31.2063 0
    endloop
  endfacet
  facet normal 0 0 -1
    outer loop
      vertex 10.4852 29.9589 0
      vertex 13 33.5 0
      vertex 11.5 30.6962 0
    endloop
  endfacet
  facet normal 0 0 -1
    outer loop
      vertex 0 40 0
      vertex 13 33.5 0
      vertex 10.4852 29.9589 0
    endloop
  endfacet
  facet normal 0 0 -1
    outer loop
      vertex 0 40 0
      vertex 10.4852 29.9589 0
      vertex 9.6459 29.0267 0
    endloop
  endfacet
  facet normal 0 0 -1
    outer loop
      vertex 7.71352 26.3817 0
      vertex 8.5 25.5 0
      vertex 8 25.5 0
    endloop
  endfacet
  facet normal 0 0 -1
    outer loop
      vertex 8.5 25.5 0
      vertex 7.71352 26.3817 0
      vertex 8.63111 26.7475 0
    endloop
  endfacet
  facet normal 0 0 -1
    outer loop
      vertex 6.96352 26.9266 0
      vertex 8.63111 26.7475 0
      vertex 7.71352 26.3817 0
    endloop
  endfacet
  facet normal 0 0 -1
    outer loop
      vertex 8.63111 26.7475 0
      vertex 6.96352 26.9266 0
      vertex 9.01873 27.9404 0
    endloop
  endfacet
  facet normal -0 0 -1
    outer loop
      vertex 9.01873 27.9404 0
      vertex 6.96352 26.9266 0
      vertex 9.6459 29.0267 0
    endloop
  endfacet
  facet normal 0 0 -1
    outer loop
      vertex 6.03647 26.9266 0
      vertex 9.6459 29.0267 0
      vertex 6.96352 26.9266 0
    endloop
  endfacet
  facet normal 0 0 -1
    outer loop
      vertex 0 40 0
      vertex 9.6459 29.0267 0
      vertex 6.03647 26.9266 0
    endloop
  endfacet
  facet normal 0 0 -1
    outer loop
      vertex 0 40 0
      vertex 6.03647 26.9266 0
      vertex 5.28647 26.3817 0
    endloop
  endfacet
  facet normal 0 0 -1
    outer loop
      vertex 14.9635 34.9266 0
      vertex 0 40 0
      vertex 40 40 0
    endloop
  endfacet
  facet normal 0 0 -1
    outer loop
      vertex 13.2865 34.3817 0
      vertex 0 40 0
      vertex 14.0365 34.9266 0
    endloop
  endfacet
  facet normal 0 0 -1
    outer loop
      vertex 13 33.5 0
      vertex 0 40 0
      vertex 13.2865 34.3817 0
    endloop
  endfacet
  facet normal 0 0 -1
    outer loop
      vertex 5 25.5 0
      vertex 0 40 0
      vertex 5.28647 26.3817 0
    endloop
  endfacet
  facet normal 0 0 -1
    outer loop
      vertex 0 40 0
      vertex 5 25.5 0
      vertex 0 0 0
    endloop
  endfacet
  facet normal 0 0 -1
    outer loop
      vertex 15.7135 18.3817 0
      vertex 16.3541 19.7937 0
      vertex 16 17.5 0
    endloop
  endfacet
  facet normal 0 0 -1
    outer loop
      vertex 15.7135 18.3817 0
      vertex 15.1272 19.5329 0
      vertex 16.3541 19.7937 0
    endloop
  endfacet
  facet normal 0 0 -1
    outer loop
      vertex 14.9635 18.9266 0
      vertex 15.1272 19.5329 0
      vertex 15.7135 18.3817 0
    endloop
  endfacet
  facet normal 0 0 -1
    outer loop
      vertex 14.0365 18.9266 0
      vertex 15.1272 19.5329 0
      vertex 14.9635 18.9266 0
    endloop
  endfacet
  facet normal 0 0 -1
    outer loop
      vertex 14.0365 18.9266 0
      vertex 13.8728 19.5329 0
      vertex 15.1272 19.5329 0
    endloop
  endfacet
  facet normal 0 0 -1
    outer loop
      vertex 13.2865 18.3817 0
      vertex 13.8728 19.5329 0
      vertex 14.0365 18.9266 0
    endloop
  endfacet
  facet normal 0 0 -1
    outer loop
      vertex 13.2865 18.3817 0
      vertex 12.6459 19.7937 0
      vertex 13.8728 19.5329 0
    endloop
  endfacet
  facet normal 0 0 -1
    outer loop
      vertex 13 17.5 0
      vertex 12.6459 19.7937 0
      vertex 13.2865 18.3817 0
    endloop
  endfacet
  facet normal 0 0 -1
    outer loop
      vertex 11.2865 5.88168 0
      vertex 13.2865 16.6183 0
      vertex 12.0365 6.42658 0
    endloop
  endfacet
  facet normal 0 0 -1
    outer loop
      vertex 10.4852 21.0411 0
      vertex 13.2865 16.6183 0
      vertex 11.2865 5.88168 0
    endloop
  endfacet
  facet normal 0 0 -1
    outer loop
      vertex 13 17.5 0
      vertex 11.5 20.3038 0
      vertex 12.6459 19.7937 0
    endloop
  endfacet
  facet normal 0 0 -1
    outer loop
      vertex 13.2865 16.6183 0
      vertex 10.4852 21.0411 0
      vertex 13 17.5 0
    endloop
  endfacet
  facet normal 0 0 -1
    outer loop
      vertex 0 0 0
      vertex 11.2865 5.88168 0
      vertex 11 5 0
    endloop
  endfacet
  facet normal 0 0 -1
    outer loop
      vertex 13 17.5 0
      vertex 10.4852 21.0411 0
      vertex 11.5 20.3038 0
    endloop
  endfacet
  facet normal 0 0 -1
    outer loop
      vertex 12.9635 6.42658 0
      vertex 14.9635 16.0734 0
      vertex 13.7135 5.88168 0
    endloop
  endfacet
  facet normal -0 0 -1
    outer loop
      vertex 14.9635 16.0734 0
      vertex 12.9635 6.42658 0
      vertex 14.0365 16.0734 0
    endloop
  endfacet
  facet normal 0 0 -1
    outer loop
      vertex 12.0365 6.42658 0
      vertex 14.0365 16.0734 0
      vertex 12.9635 6.42658 0
    endloop
  endfacet
  facet normal -0 0 -1
    outer loop
      vertex 14.0365 16.0734 0
      vertex 12.0365 6.42658 0
      vertex 13.2865 16.6183 0
    endloop
  endfacet
  facet normal 0 -1 0
    outer loop
      vertex 0 0 0
      vertex 22.6 0 3
      vertex 0 0 3
    endloop
  endfacet
  facet normal 0 -1 -0
    outer loop
      vertex 22.6 0 3
      vertex 0 0 0
      vertex 22.6 0 0
    endloop
  endfacet
  facet normal 0 1 -0
    outer loop
      vertex 40 40 0
      vertex 0 40 3
      vertex 40 40 3
    endloop
  endfacet
  facet normal 0 1 0
    outer loop
      vertex 0 40 3
      vertex 40 40 0
      vertex 0 40 0
    endloop
  endfacet
  facet normal 0.994522 0.104528 0
    outer loop
      vertex 25.5 25.5 10
      vertex 25.2596 27.787 3
      vertex 25.2596 27.787 10
    endloop
  endfacet
  facet normal 0.994522 0.104528 0
    outer loop
      vertex 25.2596 27.787 3
      vertex 25.5 25.5 10
      vertex 25.5 25.5 3
    endloop
  endfacet
  facet normal -0.207912 0.978148 0
    outer loop
      vertex 13.3502 36.4397 3
      vertex 11.1008 35.9616 10
      vertex 13.3502 36.4397 10
    endloop
  endfacet
  facet normal -0.207912 0.978148 0
    outer loop
      vertex 11.1008 35.9616 10
      vertex 13.3502 36.4397 3
      vertex 11.1008 35.9616 3
    endloop
  endfacet
  facet normal 0.207912 -0.978148 0
    outer loop
      vertex 15.6498 14.5603 3
      vertex 17.8992 15.0384 10
      vertex 15.6498 14.5603 10
    endloop
  endfacet
  facet normal 0.207912 -0.978148 0
    outer loop
      vertex 17.8992 15.0384 10
      vertex 15.6498 14.5603 3
      vertex 17.8992 15.0384 3
    endloop
  endfacet
  facet normal 0.587786 0.809016 -0
    outer loop
      vertex 21.8604 33.6746 3
      vertex 20 35.0263 10
      vertex 21.8604 33.6746 10
    endloop
  endfacet
  facet normal 0.587786 0.809016 0
    outer loop
      vertex 20 35.0263 10
      vertex 21.8604 33.6746 3
      vertex 20 35.0263 3
    endloop
  endfacet
  facet normal -0.866025 0.5 0
    outer loop
      vertex 4.451 29.9741 3
      vertex 5.60081 31.9656 10
      vertex 5.60081 31.9656 3
    endloop
  endfacet
  facet normal -0.866025 0.5 0
    outer loop
      vertex 5.60081 31.9656 10
      vertex 4.451 29.9741 3
      vertex 4.451 29.9741 10
    endloop
  endfacet
  facet normal -0.951056 0.309017 0
    outer loop
      vertex 3.74038 27.787 3
      vertex 4.451 29.9741 10
      vertex 4.451 29.9741 3
    endloop
  endfacet
  facet normal -0.951056 0.309017 0
    outer loop
      vertex 4.451 29.9741 10
      vertex 3.74038 27.787 3
      vertex 3.74038 27.787 10
    endloop
  endfacet
  facet normal -0.587786 0.809017 0
    outer loop
      vertex 9 35.0263 3
      vertex 7.13956 33.6746 10
      vertex 9 35.0263 10
    endloop
  endfacet
  facet normal -0.587786 0.809017 0
    outer loop
      vertex 7.13956 33.6746 10
      vertex 9 35.0263 3
      vertex 7.13956 33.6746 3
    endloop
  endfacet
  facet normal 0.951056 -0.309017 0
    outer loop
      vertex 24.549 21.0259 10
      vertex 25.2596 23.213 3
      vertex 25.2596 23.213 10
    endloop
  endfacet
  facet normal 0.951056 -0.309017 0
    outer loop
      vertex 25.2596 23.213 3
      vertex 24.549 21.0259 10
      vertex 24.549 21.0259 3
    endloop
  endfacet
  facet normal 0.866025 0.5 0
    outer loop
      vertex 24.549 29.9741 10
      vertex 23.3992 31.9656 3
      vertex 23.3992 31.9656 10
    endloop
  endfacet
  facet normal 0.866025 0.5 0
    outer loop
      vertex 23.3992 31.9656 3
      vertex 24.549 29.9741 10
      vertex 24.549 29.9741 3
    endloop
  endfacet
  facet normal 0.951056 0.309018 0
    outer loop
      vertex 25.2596 27.787 10
      vertex 24.549 29.9741 3
      vertex 24.549 29.9741 10
    endloop
  endfacet
  facet normal 0.951056 0.309018 0
    outer loop
      vertex 24.549 29.9741 3
      vertex 25.2596 27.787 10
      vertex 25.2596 27.787 3
    endloop
  endfacet
  facet normal 0.743145 0.669131 0
    outer loop
      vertex 23.3992 31.9656 10
      vertex 21.8604 33.6746 3
      vertex 21.8604 33.6746 10
    endloop
  endfacet
  facet normal 0.743145 0.669131 0
    outer loop
      vertex 21.8604 33.6746 3
      vertex 23.3992 31.9656 10
      vertex 23.3992 31.9656 3
    endloop
  endfacet
  facet normal 0.207912 0.978148 -0
    outer loop
      vertex 17.8992 35.9616 3
      vertex 15.6498 36.4397 10
      vertex 17.8992 35.9616 10
    endloop
  endfacet
  facet normal 0.207912 0.978148 0
    outer loop
      vertex 15.6498 36.4397 10
      vertex 17.8992 35.9616 3
      vertex 15.6498 36.4397 3
    endloop
  endfacet
  facet normal 0 1 -0
    outer loop
      vertex 15.6498 36.4397 3
      vertex 13.3502 36.4397 10
      vertex 15.6498 36.4397 10
    endloop
  endfacet
  facet normal 0 1 0
    outer loop
      vertex 13.3502 36.4397 10
      vertex 15.6498 36.4397 3
      vertex 13.3502 36.4397 3
    endloop
  endfacet
  facet normal 0.406736 0.913546 -0
    outer loop
      vertex 20 35.0263 3
      vertex 17.8992 35.9616 10
      vertex 20 35.0263 10
    endloop
  endfacet
  facet normal 0.406736 0.913546 0
    outer loop
      vertex 17.8992 35.9616 10
      vertex 20 35.0263 3
      vertex 17.8992 35.9616 3
    endloop
  endfacet
  facet normal -0.994522 0.104528 0
    outer loop
      vertex 3.5 25.5 3
      vertex 3.74038 27.787 10
      vertex 3.74038 27.787 3
    endloop
  endfacet
  facet normal -0.994522 0.104528 0
    outer loop
      vertex 3.74038 27.787 10
      vertex 3.5 25.5 3
      vertex 3.5 25.5 10
    endloop
  endfacet
  facet normal 0 0 1
    outer loop
      vertex 16.3541 19.7937 10
      vertex 15.7135 18.3817 10
      vertex 16 17.5 10
    endloop
  endfacet
  facet normal -0 0 1
    outer loop
      vertex 15.1272 19.5329 10
      vertex 15.7135 18.3817 10
      vertex 16.3541 19.7937 10
    endloop
  endfacet
  facet normal 0 0 1
    outer loop
      vertex 15.1272 19.5329 10
      vertex 14.9635 18.9266 10
      vertex 15.7135 18.3817 10
    endloop
  endfacet
  facet normal 0 0 1
    outer loop
      vertex 15.1272 19.5329 10
      vertex 14.0365 18.9266 10
      vertex 14.9635 18.9266 10
    endloop
  endfacet
  facet normal -0 0 1
    outer loop
      vertex 13.8728 19.5329 10
      vertex 14.0365 18.9266 10
      vertex 15.1272 19.5329 10
    endloop
  endfacet
  facet normal 0 0 1
    outer loop
      vertex 13.8728 19.5329 10
      vertex 13.2865 18.3817 10
      vertex 14.0365 18.9266 10
    endloop
  endfacet
  facet normal 0 0 1
    outer loop
      vertex 13.2865 18.3817 10
      vertex 12.6459 19.7937 10
      vertex 13 17.5 10
    endloop
  endfacet
  facet normal 0 0 1
    outer loop
      vertex 12.6459 19.7937 10
      vertex 13.2865 18.3817 10
      vertex 13.8728 19.5329 10
    endloop
  endfacet
  facet normal -0 0 1
    outer loop
      vertex 23.7135 26.3817 10
      vertex 25.5 25.5 10
      vertex 25.2596 27.787 10
    endloop
  endfacet
  facet normal 0 0 1
    outer loop
      vertex 22.9635 26.9266 10
      vertex 25.2596 27.787 10
      vertex 24.549 29.9741 10
    endloop
  endfacet
  facet normal 0 0 1
    outer loop
      vertex 23.7135 24.6183 10
      vertex 25.5 25.5 10
      vertex 24 25.5 10
    endloop
  endfacet
  facet normal 0 0 1
    outer loop
      vertex 25.5 25.5 10
      vertex 23.7135 24.6183 10
      vertex 25.2596 23.213 10
    endloop
  endfacet
  facet normal 0 0 1
    outer loop
      vertex 25.5 25.5 10
      vertex 23.7135 26.3817 10
      vertex 24 25.5 10
    endloop
  endfacet
  facet normal 0 0 1
    outer loop
      vertex 19.9813 27.9404 10
      vertex 24.549 29.9741 10
      vertex 23.3992 31.9656 10
    endloop
  endfacet
  facet normal 0 0 1
    outer loop
      vertex 25.2596 27.787 10
      vertex 22.9635 26.9266 10
      vertex 23.7135 26.3817 10
    endloop
  endfacet
  facet normal 0 0 1
    outer loop
      vertex 24.549 29.9741 10
      vertex 22.0365 26.9266 10
      vertex 22.9635 26.9266 10
    endloop
  endfacet
  facet normal 0 0 1
    outer loop
      vertex 19.3541 29.0267 10
      vertex 23.3992 31.9656 10
      vertex 21.8604 33.6746 10
    endloop
  endfacet
  facet normal 0 -0 1
    outer loop
      vertex 19.9813 27.9404 10
      vertex 23.3992 31.9656 10
      vertex 19.3541 29.0267 10
    endloop
  endfacet
  facet normal 0 -0 1
    outer loop
      vertex 20.3689 26.7475 10
      vertex 22.0365 26.9266 10
      vertex 19.9813 27.9404 10
    endloop
  endfacet
  facet normal 0 -0 1
    outer loop
      vertex 20.5 25.5 10
      vertex 21.2865 26.3817 10
      vertex 20.3689 26.7475 10
    endloop
  endfacet
  facet normal 0 0 1
    outer loop
      vertex 21.2865 26.3817 10
      vertex 20.5 25.5 10
      vertex 21 25.5 10
    endloop
  endfacet
  facet normal 0 0 1
    outer loop
      vertex 18.5148 29.9589 10
      vertex 21.8604 33.6746 10
      vertex 20 35.0263 10
    endloop
  endfacet
  facet normal 0 0 1
    outer loop
      vertex 22.0365 26.9266 10
      vertex 20.3689 26.7475 10
      vertex 21.2865 26.3817 10
    endloop
  endfacet
  facet normal 0 0 1
    outer loop
      vertex 24.549 29.9741 10
      vertex 19.9813 27.9404 10
      vertex 22.0365 26.9266 10
    endloop
  endfacet
  facet normal 0 0 1
    outer loop
      vertex 21.8604 33.6746 10
      vertex 18.5148 29.9589 10
      vertex 19.3541 29.0267 10
    endloop
  endfacet
  facet normal 0 0 1
    outer loop
      vertex 16 33.5 10
      vertex 20 35.0263 10
      vertex 17.8992 35.9616 10
    endloop
  endfacet
  facet normal 0 0 1
    outer loop
      vertex 20 35.0263 10
      vertex 17.5 30.6962 10
      vertex 18.5148 29.9589 10
    endloop
  endfacet
  facet normal 0 0 1
    outer loop
      vertex 20 35.0263 10
      vertex 16 33.5 10
      vertex 17.5 30.6962 10
    endloop
  endfacet
  facet normal 0 0 1
    outer loop
      vertex 17.5 30.6962 10
      vertex 16 33.5 10
      vertex 16.3541 31.2063 10
    endloop
  endfacet
  facet normal 0 0 1
    outer loop
      vertex 17.8992 35.9616 10
      vertex 15.7135 34.3817 10
      vertex 16 33.5 10
    endloop
  endfacet
  facet normal 0 0 1
    outer loop
      vertex 15.6498 36.4397 10
      vertex 15.7135 34.3817 10
      vertex 17.8992 35.9616 10
    endloop
  endfacet
  facet normal 0 0 1
    outer loop
      vertex 15.6498 36.4397 10
      vertex 14.9635 34.9266 10
      vertex 15.7135 34.3817 10
    endloop
  endfacet
  facet normal 0 0 1
    outer loop
      vertex 15.6498 36.4397 10
      vertex 14.0365 34.9266 10
      vertex 14.9635 34.9266 10
    endloop
  endfacet
  facet normal -0 0 1
    outer loop
      vertex 13.3502 36.4397 10
      vertex 14.0365 34.9266 10
      vertex 15.6498 36.4397 10
    endloop
  endfacet
  facet normal 0 0 1
    outer loop
      vertex 13.3502 36.4397 10
      vertex 13.2865 34.3817 10
      vertex 14.0365 34.9266 10
    endloop
  endfacet
  facet normal -0 0 1
    outer loop
      vertex 11.1008 35.9616 10
      vertex 13.2865 34.3817 10
      vertex 13.3502 36.4397 10
    endloop
  endfacet
  facet normal 0 0 1
    outer loop
      vertex 13.2865 34.3817 10
      vertex 11.1008 35.9616 10
      vertex 13 33.5 10
    endloop
  endfacet
  facet normal -0 0 1
    outer loop
      vertex 9 35.0263 10
      vertex 13 33.5 10
      vertex 11.1008 35.9616 10
    endloop
  endfacet
  facet normal 0 0 1
    outer loop
      vertex 13 33.5 10
      vertex 11.5 30.6962 10
      vertex 12.6459 31.2063 10
    endloop
  endfacet
  facet normal 0 0 1
    outer loop
      vertex 13 33.5 10
      vertex 9 35.0263 10
      vertex 11.5 30.6962 10
    endloop
  endfacet
  facet normal 0 0 1
    outer loop
      vertex 11.5 30.6962 10
      vertex 9 35.0263 10
      vertex 10.4852 29.9589 10
    endloop
  endfacet
  facet normal -0 0 1
    outer loop
      vertex 7.13956 33.6746 10
      vertex 10.4852 29.9589 10
      vertex 9 35.0263 10
    endloop
  endfacet
  facet normal 0 0 1
    outer loop
      vertex 10.4852 29.9589 10
      vertex 7.13956 33.6746 10
      vertex 9.6459 29.0267 10
    endloop
  endfacet
  facet normal -0 0 1
    outer loop
      vertex 5.60081 31.9656 10
      vertex 9.6459 29.0267 10
      vertex 7.13956 33.6746 10
    endloop
  endfacet
  facet normal 0 0 1
    outer loop
      vertex 9.6459 29.0267 10
      vertex 5.60081 31.9656 10
      vertex 9.01873 27.9404 10
    endloop
  endfacet
  facet normal 0 0 1
    outer loop
      vertex 8.63111 26.7475 10
      vertex 7.71352 26.3817 10
      vertex 8.5 25.5 10
    endloop
  endfacet
  facet normal 0 0 1
    outer loop
      vertex 8.5 25.5 10
      vertex 7.71352 26.3817 10
      vertex 8 25.5 10
    endloop
  endfacet
  facet normal -0 0 1
    outer loop
      vertex 4.451 29.9741 10
      vertex 9.01873 27.9404 10
      vertex 5.60081 31.9656 10
    endloop
  endfacet
  facet normal 0 0 1
    outer loop
      vertex 8.63111 26.7475 10
      vertex 6.96352 26.9266 10
      vertex 7.71352 26.3817 10
    endloop
  endfacet
  facet normal 0 0 1
    outer loop
      vertex 9.01873 27.9404 10
      vertex 6.96352 26.9266 10
      vertex 8.63111 26.7475 10
    endloop
  endfacet
  facet normal 0 0 1
    outer loop
      vertex 9.01873 27.9404 10
      vertex 4.451 29.9741 10
      vertex 6.96352 26.9266 10
    endloop
  endfacet
  facet normal 0 0 1
    outer loop
      vertex 6.96352 26.9266 10
      vertex 4.451 29.9741 10
      vertex 6.03647 26.9266 10
    endloop
  endfacet
  facet normal -0 0 1
    outer loop
      vertex 3.74038 27.787 10
      vertex 6.03647 26.9266 10
      vertex 4.451 29.9741 10
    endloop
  endfacet
  facet normal 0 0 1
    outer loop
      vertex 6.03647 26.9266 10
      vertex 3.74038 27.787 10
      vertex 5.28647 26.3817 10
    endloop
  endfacet
  facet normal -0 0 1
    outer loop
      vertex 22.9635 24.0734 10
      vertex 25.2596 23.213 10
      vertex 23.7135 24.6183 10
    endloop
  endfacet
  facet normal 0 0 1
    outer loop
      vertex 25.2596 23.213 10
      vertex 22.9635 24.0734 10
      vertex 24.549 21.0259 10
    endloop
  endfacet
  facet normal -0 0 1
    outer loop
      vertex 22.0365 24.0734 10
      vertex 24.549 21.0259 10
      vertex 22.9635 24.0734 10
    endloop
  endfacet
  facet normal -0 0 1
    outer loop
      vertex 19.9813 23.0596 10
      vertex 24.549 21.0259 10
      vertex 22.0365 24.0734 10
    endloop
  endfacet
  facet normal 0 0 1
    outer loop
      vertex 24.549 21.0259 10
      vertex 19.9813 23.0596 10
      vertex 23.3992 19.0344 10
    endloop
  endfacet
  facet normal -0 0 1
    outer loop
      vertex 20.3689 24.2525 10
      vertex 22.0365 24.0734 10
      vertex 21.2865 24.6183 10
    endloop
  endfacet
  facet normal -0 0 1
    outer loop
      vertex 20.5 25.5 10
      vertex 21.2865 24.6183 10
      vertex 21 25.5 10
    endloop
  endfacet
  facet normal 0 0 1
    outer loop
      vertex 21.2865 24.6183 10
      vertex 20.5 25.5 10
      vertex 20.3689 24.2525 10
    endloop
  endfacet
  facet normal 0 0 1
    outer loop
      vertex 22.0365 24.0734 10
      vertex 20.3689 24.2525 10
      vertex 19.9813 23.0596 10
    endloop
  endfacet
  facet normal 0 0 1
    outer loop
      vertex 23.3992 19.0344 10
      vertex 19.9813 23.0596 10
      vertex 19.3541 21.9733 10
    endloop
  endfacet
  facet normal 0 0 1
    outer loop
      vertex 23.3992 19.0344 10
      vertex 19.3541 21.9733 10
      vertex 21.8604 17.3254 10
    endloop
  endfacet
  facet normal -0 0 1
    outer loop
      vertex 18.5148 21.0411 10
      vertex 21.8604 17.3254 10
      vertex 19.3541 21.9733 10
    endloop
  endfacet
  facet normal 0 0 1
    outer loop
      vertex 21.8604 17.3254 10
      vertex 18.5148 21.0411 10
      vertex 20 15.9737 10
    endloop
  endfacet
  facet normal -0 0 1
    outer loop
      vertex 17.5 20.3038 10
      vertex 20 15.9737 10
      vertex 18.5148 21.0411 10
    endloop
  endfacet
  facet normal -0 0 1
    outer loop
      vertex 16 17.5 10
      vertex 20 15.9737 10
      vertex 17.5 20.3038 10
    endloop
  endfacet
  facet normal 0 0 1
    outer loop
      vertex 16 17.5 10
      vertex 17.5 20.3038 10
      vertex 16.3541 19.7937 10
    endloop
  endfacet
  facet normal 0 0 1
    outer loop
      vertex 20 15.9737 10
      vertex 16 17.5 10
      vertex 17.8992 15.0384 10
    endloop
  endfacet
  facet normal -0 0 1
    outer loop
      vertex 15.7135 16.6183 10
      vertex 17.8992 15.0384 10
      vertex 16 17.5 10
    endloop
  endfacet
  facet normal 0 0 1
    outer loop
      vertex 15.7135 16.6183 10
      vertex 15.6498 14.5603 10
      vertex 17.8992 15.0384 10
    endloop
  endfacet
  facet normal -0 0 1
    outer loop
      vertex 14.9635 16.0734 10
      vertex 15.6498 14.5603 10
      vertex 15.7135 16.6183 10
    endloop
  endfacet
  facet normal -0 0 1
    outer loop
      vertex 14.0365 16.0734 10
      vertex 15.6498 14.5603 10
      vertex 14.9635 16.0734 10
    endloop
  endfacet
  facet normal 0 0 1
    outer loop
      vertex 14.0365 16.0734 10
      vertex 13.3502 14.5603 10
      vertex 15.6498 14.5603 10
    endloop
  endfacet
  facet normal 0 0 1
    outer loop
      vertex 13.2865 16.6183 10
      vertex 13.3502 14.5603 10
      vertex 14.0365 16.0734 10
    endloop
  endfacet
  facet normal 0 0 1
    outer loop
      vertex 11.1008 15.0384 10
      vertex 13.2865 16.6183 10
      vertex 13 17.5 10
    endloop
  endfacet
  facet normal 0 0 1
    outer loop
      vertex 11.5 20.3038 10
      vertex 13 17.5 10
      vertex 12.6459 19.7937 10
    endloop
  endfacet
  facet normal 0 0 1
    outer loop
      vertex 9 15.9737 10
      vertex 13 17.5 10
      vertex 11.5 20.3038 10
    endloop
  endfacet
  facet normal 0 0 1
    outer loop
      vertex 13.2865 16.6183 10
      vertex 11.1008 15.0384 10
      vertex 13.3502 14.5603 10
    endloop
  endfacet
  facet normal 0 0 1
    outer loop
      vertex 9 15.9737 10
      vertex 11.5 20.3038 10
      vertex 10.4852 21.0411 10
    endloop
  endfacet
  facet normal 0 0 1
    outer loop
      vertex 7.13956 17.3254 10
      vertex 10.4852 21.0411 10
      vertex 9.6459 21.9733 10
    endloop
  endfacet
  facet normal 0 0 1
    outer loop
      vertex 5.60081 19.0344 10
      vertex 9.6459 21.9733 10
      vertex 9.01873 23.0596 10
    endloop
  endfacet
  facet normal 0 0 1
    outer loop
      vertex 13 17.5 10
      vertex 9 15.9737 10
      vertex 11.1008 15.0384 10
    endloop
  endfacet
  facet normal -0 0 1
    outer loop
      vertex 6.96352 24.0734 10
      vertex 9.01873 23.0596 10
      vertex 8.63111 24.2525 10
    endloop
  endfacet
  facet normal -0 0 1
    outer loop
      vertex 7.71352 24.6183 10
      vertex 8.63111 24.2525 10
      vertex 8.5 25.5 10
    endloop
  endfacet
  facet normal 0 0 1
    outer loop
      vertex 7.71352 24.6183 10
      vertex 8.5 25.5 10
      vertex 8 25.5 10
    endloop
  endfacet
  facet normal 0 0 1
    outer loop
      vertex 6.96352 24.0734 10
      vertex 8.63111 24.2525 10
      vertex 7.71352 24.6183 10
    endloop
  endfacet
  facet normal 0 0 1
    outer loop
      vertex 10.4852 21.0411 10
      vertex 7.13956 17.3254 10
      vertex 9 15.9737 10
    endloop
  endfacet
  facet normal 0 0 1
    outer loop
      vertex 4.451 21.0259 10
      vertex 9.01873 23.0596 10
      vertex 6.96352 24.0734 10
    endloop
  endfacet
  facet normal 0 0 1
    outer loop
      vertex 4.451 21.0259 10
      vertex 6.96352 24.0734 10
      vertex 6.03647 24.0734 10
    endloop
  endfacet
  facet normal 0 0 1
    outer loop
      vertex 9.6459 21.9733 10
      vertex 5.60081 19.0344 10
      vertex 7.13956 17.3254 10
    endloop
  endfacet
  facet normal 0 0 1
    outer loop
      vertex 3.74038 23.213 10
      vertex 6.03647 24.0734 10
      vertex 5.28647 24.6183 10
    endloop
  endfacet
  facet normal -0 0 1
    outer loop
      vertex 3.5 25.5 10
      vertex 5.28647 24.6183 10
      vertex 5 25.5 10
    endloop
  endfacet
  facet normal 0 0 1
    outer loop
      vertex 3.5 25.5 10
      vertex 5.28647 26.3817 10
      vertex 3.74038 27.787 10
    endloop
  endfacet
  facet normal 0 0 1
    outer loop
      vertex 9.01873 23.0596 10
      vertex 4.451 21.0259 10
      vertex 5.60081 19.0344 10
    endloop
  endfacet
  facet normal 0 0 1
    outer loop
      vertex 5.28647 26.3817 10
      vertex 3.5 25.5 10
      vertex 5 25.5 10
    endloop
  endfacet
  facet normal 0 0 1
    outer loop
      vertex 6.03647 24.0734 10
      vertex 3.74038 23.213 10
      vertex 4.451 21.0259 10
    endloop
  endfacet
  facet normal 0 0 1
    outer loop
      vertex 5.28647 24.6183 10
      vertex 3.5 25.5 10
      vertex 3.74038 23.213 10
    endloop
  endfacet
  facet normal -0 0 1
    outer loop
      vertex 15.7135 32.6183 10
      vertex 16.3541 31.2063 10
      vertex 16 33.5 10
    endloop
  endfacet
  facet normal 0 0 1
    outer loop
      vertex 15.7135 32.6183 10
      vertex 15.1272 31.4671 10
      vertex 16.3541 31.2063 10
    endloop
  endfacet
  facet normal -0 0 1
    outer loop
      vertex 14.9635 32.0734 10
      vertex 15.1272 31.4671 10
      vertex 15.7135 32.6183 10
    endloop
  endfacet
  facet normal -0 0 1
    outer loop
      vertex 14.0365 32.0734 10
      vertex 15.1272 31.4671 10
      vertex 14.9635 32.0734 10
    endloop
  endfacet
  facet normal 0 0 1
    outer loop
      vertex 14.0365 32.0734 10
      vertex 13.8728 31.4671 10
      vertex 15.1272 31.4671 10
    endloop
  endfacet
  facet normal 0 0 1
    outer loop
      vertex 13.2865 32.6183 10
      vertex 13.8728 31.4671 10
      vertex 14.0365 32.0734 10
    endloop
  endfacet
  facet normal 0 0 1
    outer loop
      vertex 13.2865 32.6183 10
      vertex 12.6459 31.2063 10
      vertex 13.8728 31.4671 10
    endloop
  endfacet
  facet normal 0 0 1
    outer loop
      vertex 12.6459 31.2063 10
      vertex 13.2865 32.6183 10
      vertex 13 33.5 10
    endloop
  endfacet
  facet normal -0.743145 0.669131 0
    outer loop
      vertex 5.60081 31.9656 3
      vertex 7.13956 33.6746 10
      vertex 7.13956 33.6746 3
    endloop
  endfacet
  facet normal -0.743145 0.669131 0
    outer loop
      vertex 7.13956 33.6746 10
      vertex 5.60081 31.9656 3
      vertex 5.60081 31.9656 10
    endloop
  endfacet
  facet normal -0.406736 0.913546 0
    outer loop
      vertex 11.1008 35.9616 3
      vertex 9 35.0263 10
      vertex 11.1008 35.9616 10
    endloop
  endfacet
  facet normal -0.406736 0.913546 0
    outer loop
      vertex 9 35.0263 10
      vertex 11.1008 35.9616 3
      vertex 9 35.0263 3
    endloop
  endfacet
  facet normal 0.994522 -0.104528 0
    outer loop
      vertex 25.2596 23.213 10
      vertex 25.5 25.5 3
      vertex 25.5 25.5 10
    endloop
  endfacet
  facet normal 0.994522 -0.104528 0
    outer loop
      vertex 25.5 25.5 3
      vertex 25.2596 23.213 10
      vertex 25.2596 23.213 3
    endloop
  endfacet
  facet normal -0.994522 -0.104528 0
    outer loop
      vertex 3.74038 23.213 3
      vertex 3.5 25.5 10
      vertex 3.5 25.5 3
    endloop
  endfacet
  facet normal -0.994522 -0.104528 0
    outer loop
      vertex 3.5 25.5 10
      vertex 3.74038 23.213 3
      vertex 3.74038 23.213 10
    endloop
  endfacet
  facet normal 0.743146 -0.66913 0
    outer loop
      vertex 23.3992 19.0344 10
      vertex 22.6929 18.25 3
      vertex 23.3992 19.0344 3
    endloop
  endfacet
  facet normal 0.743144 -0.669132 3.98396e-07
    outer loop
      vertex 23.3992 19.0344 10
      vertex 22.6 18.1468 3
      vertex 22.6929 18.25 3
    endloop
  endfacet
  facet normal 0.743145 -0.66913 1.74814e-08
    outer loop
      vertex 21.8604 17.3254 10
      vertex 22.6 18.1468 3
      vertex 23.3992 19.0344 10
    endloop
  endfacet
  facet normal 0.743145 -0.66913 0
    outer loop
      vertex 22.6 18.1468 3
      vertex 21.8604 17.3254 10
      vertex 21.8604 17.3254 3
    endloop
  endfacet
  facet normal 0 -1 0
    outer loop
      vertex 13.3502 14.5603 3
      vertex 15.6498 14.5603 10
      vertex 13.3502 14.5603 10
    endloop
  endfacet
  facet normal 0 -1 -0
    outer loop
      vertex 15.6498 14.5603 10
      vertex 13.3502 14.5603 3
      vertex 15.6498 14.5603 3
    endloop
  endfacet
  facet normal -0.587785 -0.809017 0
    outer loop
      vertex 7.13956 17.3254 3
      vertex 9 15.9737 10
      vertex 7.13956 17.3254 10
    endloop
  endfacet
  facet normal -0.587785 -0.809017 -0
    outer loop
      vertex 9 15.9737 10
      vertex 7.13956 17.3254 3
      vertex 9 15.9737 3
    endloop
  endfacet
  facet normal -0.743145 -0.66913 0
    outer loop
      vertex 7.13956 17.3254 3
      vertex 5.60081 19.0344 10
      vertex 5.60081 19.0344 3
    endloop
  endfacet
  facet normal -0.743145 -0.66913 0
    outer loop
      vertex 5.60081 19.0344 10
      vertex 7.13956 17.3254 3
      vertex 7.13956 17.3254 10
    endloop
  endfacet
  facet normal -0.866025 -0.5 0
    outer loop
      vertex 5.60081 19.0344 3
      vertex 4.451 21.0259 10
      vertex 4.451 21.0259 3
    endloop
  endfacet
  facet normal -0.866025 -0.5 0
    outer loop
      vertex 4.451 21.0259 10
      vertex 5.60081 19.0344 3
      vertex 5.60081 19.0344 10
    endloop
  endfacet
  facet normal -0.951057 -0.309017 0
    outer loop
      vertex 4.451 21.0259 3
      vertex 3.74038 23.213 10
      vertex 3.74038 23.213 3
    endloop
  endfacet
  facet normal -0.951057 -0.309017 0
    outer loop
      vertex 3.74038 23.213 10
      vertex 4.451 21.0259 3
      vertex 4.451 21.0259 10
    endloop
  endfacet
  facet normal 0.587785 -0.809017 0
    outer loop
      vertex 20 15.9737 3
      vertex 21.8604 17.3254 10
      vertex 20 15.9737 10
    endloop
  endfacet
  facet normal 0.587785 -0.809017 0
    outer loop
      vertex 21.8604 17.3254 10
      vertex 20 15.9737 3
      vertex 21.8604 17.3254 3
    endloop
  endfacet
  facet normal 0.406737 -0.913545 0
    outer loop
      vertex 17.8992 15.0384 3
      vertex 20 15.9737 10
      vertex 17.8992 15.0384 10
    endloop
  endfacet
  facet normal 0.406737 -0.913545 0
    outer loop
      vertex 20 15.9737 10
      vertex 17.8992 15.0384 3
      vertex 20 15.9737 3
    endloop
  endfacet
  facet normal 0.866025 -0.500001 0
    outer loop
      vertex 23.3992 19.0344 10
      vertex 24.549 21.0259 3
      vertex 24.549 21.0259 10
    endloop
  endfacet
  facet normal 0.866025 -0.500001 0
    outer loop
      vertex 24.549 21.0259 3
      vertex 23.3992 19.0344 10
      vertex 23.3992 19.0344 3
    endloop
  endfacet
  facet normal -0.406737 -0.913545 0
    outer loop
      vertex 9 15.9737 3
      vertex 11.1008 15.0384 10
      vertex 9 15.9737 10
    endloop
  endfacet
  facet normal -0.406737 -0.913545 -0
    outer loop
      vertex 11.1008 15.0384 10
      vertex 9 15.9737 3
      vertex 11.1008 15.0384 3
    endloop
  endfacet
  facet normal -0.207912 -0.978148 0
    outer loop
      vertex 11.1008 15.0384 3
      vertex 13.3502 14.5603 10
      vertex 11.1008 15.0384 10
    endloop
  endfacet
  facet normal -0.207912 -0.978148 -0
    outer loop
      vertex 13.3502 14.5603 10
      vertex 11.1008 15.0384 3
      vertex 13.3502 14.5603 3
    endloop
  endfacet
  facet normal -0.951056 -0.309018 0
    outer loop
      vertex 14 5 0
      vertex 13.7135 5.88168 3
      vertex 13.7135 5.88168 0
    endloop
  endfacet
  facet normal -0.951056 -0.309018 0
    outer loop
      vertex 13.7135 5.88168 3
      vertex 14 5 0
      vertex 14 5 3
    endloop
  endfacet
  facet normal 0.587785 -0.809017 0
    outer loop
      vertex 11.2865 5.88168 0
      vertex 12.0365 6.42658 3
      vertex 11.2865 5.88168 3
    endloop
  endfacet
  facet normal 0.587785 -0.809017 0
    outer loop
      vertex 12.0365 6.42658 3
      vertex 11.2865 5.88168 0
      vertex 12.0365 6.42658 0
    endloop
  endfacet
  facet normal -0.587785 -0.809017 0
    outer loop
      vertex 12.9635 6.42658 0
      vertex 13.7135 5.88168 3
      vertex 12.9635 6.42658 3
    endloop
  endfacet
  facet normal -0.587785 -0.809017 -0
    outer loop
      vertex 13.7135 5.88168 3
      vertex 12.9635 6.42658 0
      vertex 13.7135 5.88168 0
    endloop
  endfacet
  facet normal 0.951057 -0.309017 0
    outer loop
      vertex 11 5 3
      vertex 11.2865 5.88168 0
      vertex 11.2865 5.88168 3
    endloop
  endfacet
  facet normal 0.951057 -0.309017 0
    outer loop
      vertex 11.2865 5.88168 0
      vertex 11 5 3
      vertex 11 5 0
    endloop
  endfacet
  facet normal -0.951056 0.309017 0
    outer loop
      vertex 13.7135 4.11832 0
      vertex 14 5 3
      vertex 14 5 0
    endloop
  endfacet
  facet normal -0.951056 0.309017 0
    outer loop
      vertex 14 5 3
      vertex 13.7135 4.11832 0
      vertex 13.7135 4.11832 3
    endloop
  endfacet
  facet normal 0 -1 0
    outer loop
      vertex 12.0365 6.42658 0
      vertex 12.9635 6.42658 3
      vertex 12.0365 6.42658 3
    endloop
  endfacet
  facet normal 0 -1 -0
    outer loop
      vertex 12.9635 6.42658 3
      vertex 12.0365 6.42658 0
      vertex 12.9635 6.42658 0
    endloop
  endfacet
  facet normal 0.951057 0.309016 0
    outer loop
      vertex 11.2865 4.11832 3
      vertex 11 5 0
      vertex 11 5 3
    endloop
  endfacet
  facet normal 0.951057 0.309016 0
    outer loop
      vertex 11 5 0
      vertex 11.2865 4.11832 3
      vertex 11.2865 4.11832 0
    endloop
  endfacet
  facet normal 0.587785 0.809017 -0
    outer loop
      vertex 12.0365 3.57341 0
      vertex 11.2865 4.11832 3
      vertex 12.0365 3.57341 3
    endloop
  endfacet
  facet normal 0.587785 0.809017 0
    outer loop
      vertex 11.2865 4.11832 3
      vertex 12.0365 3.57341 0
      vertex 11.2865 4.11832 0
    endloop
  endfacet
  facet normal -0.587785 0.809017 0
    outer loop
      vertex 13.7135 4.11832 0
      vertex 12.9635 3.57341 3
      vertex 13.7135 4.11832 3
    endloop
  endfacet
  facet normal -0.587785 0.809017 0
    outer loop
      vertex 12.9635 3.57341 3
      vertex 13.7135 4.11832 0
      vertex 12.9635 3.57341 0
    endloop
  endfacet
  facet normal 0 1 -0
    outer loop
      vertex 12.9635 3.57341 0
      vertex 12.0365 3.57341 3
      vertex 12.9635 3.57341 3
    endloop
  endfacet
  facet normal 0 1 0
    outer loop
      vertex 12.0365 3.57341 3
      vertex 12.9635 3.57341 0
      vertex 12.0365 3.57341 0
    endloop
  endfacet
  facet normal -0.951056 -0.309019 0
    outer loop
      vertex 36.5 27.5 0
      vertex 36.2135 28.3817 3
      vertex 36.2135 28.3817 0
    endloop
  endfacet
  facet normal -0.951056 -0.309019 0
    outer loop
      vertex 36.2135 28.3817 3
      vertex 36.5 27.5 0
      vertex 36.5 27.5 3
    endloop
  endfacet
  facet normal -0.587785 0.809017 0
    outer loop
      vertex 36.2135 26.6183 0
      vertex 35.4635 26.0734 3
      vertex 36.2135 26.6183 3
    endloop
  endfacet
  facet normal -0.587785 0.809017 0
    outer loop
      vertex 35.4635 26.0734 3
      vertex 36.2135 26.6183 0
      vertex 35.4635 26.0734 0
    endloop
  endfacet
  facet normal 0.587785 -0.809017 0
    outer loop
      vertex 33.7865 28.3817 0
      vertex 34.5365 28.9266 3
      vertex 33.7865 28.3817 3
    endloop
  endfacet
  facet normal 0.587785 -0.809017 0
    outer loop
      vertex 34.5365 28.9266 3
      vertex 33.7865 28.3817 0
      vertex 34.5365 28.9266 0
    endloop
  endfacet
  facet normal -0.587785 -0.809017 0
    outer loop
      vertex 35.4635 28.9266 0
      vertex 36.2135 28.3817 3
      vertex 35.4635 28.9266 3
    endloop
  endfacet
  facet normal -0.587785 -0.809017 -0
    outer loop
      vertex 36.2135 28.3817 3
      vertex 35.4635 28.9266 0
      vertex 36.2135 28.3817 0
    endloop
  endfacet
  facet normal 0.951056 -0.309019 0
    outer loop
      vertex 33.5 27.5 3
      vertex 33.7865 28.3817 0
      vertex 33.7865 28.3817 3
    endloop
  endfacet
  facet normal 0.951056 -0.309019 0
    outer loop
      vertex 33.7865 28.3817 0
      vertex 33.5 27.5 3
      vertex 33.5 27.5 0
    endloop
  endfacet
  facet normal 0 -1 0
    outer loop
      vertex 34.5365 28.9266 0
      vertex 35.4635 28.9266 3
      vertex 34.5365 28.9266 3
    endloop
  endfacet
  facet normal 0 -1 -0
    outer loop
      vertex 35.4635 28.9266 3
      vertex 34.5365 28.9266 0
      vertex 35.4635 28.9266 0
    endloop
  endfacet
  facet normal 0.951056 0.309018 0
    outer loop
      vertex 33.7865 26.6183 3
      vertex 33.5 27.5 0
      vertex 33.5 27.5 3
    endloop
  endfacet
  facet normal 0.951056 0.309018 0
    outer loop
      vertex 33.5 27.5 0
      vertex 33.7865 26.6183 3
      vertex 33.7865 26.6183 0
    endloop
  endfacet
  facet normal 0.587785 0.809017 -0
    outer loop
      vertex 34.5365 26.0734 0
      vertex 33.7865 26.6183 3
      vertex 34.5365 26.0734 3
    endloop
  endfacet
  facet normal 0.587785 0.809017 0
    outer loop
      vertex 33.7865 26.6183 3
      vertex 34.5365 26.0734 0
      vertex 33.7865 26.6183 0
    endloop
  endfacet
  facet normal -0.951056 0.309018 0
    outer loop
      vertex 36.2135 26.6183 0
      vertex 36.5 27.5 3
      vertex 36.5 27.5 0
    endloop
  endfacet
  facet normal -0.951056 0.309018 0
    outer loop
      vertex 36.5 27.5 3
      vertex 36.2135 26.6183 0
      vertex 36.2135 26.6183 3
    endloop
  endfacet
  facet normal 0 1 -0
    outer loop
      vertex 35.4635 26.0734 0
      vertex 34.5365 26.0734 3
      vertex 35.4635 26.0734 3
    endloop
  endfacet
  facet normal 0 1 0
    outer loop
      vertex 34.5365 26.0734 3
      vertex 35.4635 26.0734 0
      vertex 34.5365 26.0734 0
    endloop
  endfacet
  facet normal -0.951056 -0.309018 0
    outer loop
      vertex 16 17.5 0
      vertex 15.7135 18.3817 10
      vertex 15.7135 18.3817 0
    endloop
  endfacet
  facet normal -0.951056 -0.309018 0
    outer loop
      vertex 15.7135 18.3817 10
      vertex 16 17.5 0
      vertex 16 17.5 10
    endloop
  endfacet
  facet normal -0.587785 0.809017 0
    outer loop
      vertex 15.7135 16.6183 0
      vertex 14.9635 16.0734 10
      vertex 15.7135 16.6183 10
    endloop
  endfacet
  facet normal -0.587785 0.809017 0
    outer loop
      vertex 14.9635 16.0734 10
      vertex 15.7135 16.6183 0
      vertex 14.9635 16.0734 0
    endloop
  endfacet
  facet normal 0.587785 -0.809017 0
    outer loop
      vertex 13.2865 18.3817 0
      vertex 14.0365 18.9266 10
      vertex 13.2865 18.3817 10
    endloop
  endfacet
  facet normal 0.587785 -0.809017 0
    outer loop
      vertex 14.0365 18.9266 10
      vertex 13.2865 18.3817 0
      vertex 14.0365 18.9266 0
    endloop
  endfacet
  facet normal -0.587785 -0.809017 0
    outer loop
      vertex 14.9635 18.9266 0
      vertex 15.7135 18.3817 10
      vertex 14.9635 18.9266 10
    endloop
  endfacet
  facet normal -0.587785 -0.809017 -0
    outer loop
      vertex 15.7135 18.3817 10
      vertex 14.9635 18.9266 0
      vertex 15.7135 18.3817 0
    endloop
  endfacet
  facet normal 0.951057 -0.309017 0
    outer loop
      vertex 13 17.5 10
      vertex 13.2865 18.3817 0
      vertex 13.2865 18.3817 10
    endloop
  endfacet
  facet normal 0.951057 -0.309017 0
    outer loop
      vertex 13.2865 18.3817 0
      vertex 13 17.5 10
      vertex 13 17.5 0
    endloop
  endfacet
  facet normal 0 -1 0
    outer loop
      vertex 14.0365 18.9266 0
      vertex 14.9635 18.9266 10
      vertex 14.0365 18.9266 10
    endloop
  endfacet
  facet normal 0 -1 -0
    outer loop
      vertex 14.9635 18.9266 10
      vertex 14.0365 18.9266 0
      vertex 14.9635 18.9266 0
    endloop
  endfacet
  facet normal 0.951057 0.309016 0
    outer loop
      vertex 13.2865 16.6183 10
      vertex 13 17.5 0
      vertex 13 17.5 10
    endloop
  endfacet
  facet normal 0.951057 0.309016 0
    outer loop
      vertex 13 17.5 0
      vertex 13.2865 16.6183 10
      vertex 13.2865 16.6183 0
    endloop
  endfacet
  facet normal -0.951056 0.309017 0
    outer loop
      vertex 15.7135 16.6183 0
      vertex 16 17.5 10
      vertex 16 17.5 0
    endloop
  endfacet
  facet normal -0.951056 0.309017 0
    outer loop
      vertex 16 17.5 10
      vertex 15.7135 16.6183 0
      vertex 15.7135 16.6183 10
    endloop
  endfacet
  facet normal 0 1 -0
    outer loop
      vertex 14.9635 16.0734 0
      vertex 14.0365 16.0734 10
      vertex 14.9635 16.0734 10
    endloop
  endfacet
  facet normal 0 1 0
    outer loop
      vertex 14.0365 16.0734 10
      vertex 14.9635 16.0734 0
      vertex 14.0365 16.0734 0
    endloop
  endfacet
  facet normal 0.587785 0.809017 -0
    outer loop
      vertex 14.0365 16.0734 0
      vertex 13.2865 16.6183 10
      vertex 14.0365 16.0734 10
    endloop
  endfacet
  facet normal 0.587785 0.809017 0
    outer loop
      vertex 13.2865 16.6183 10
      vertex 14.0365 16.0734 0
      vertex 13.2865 16.6183 0
    endloop
  endfacet
  facet normal -0.951056 -0.309018 0
    outer loop
      vertex 16 33.5 0
      vertex 15.7135 34.3817 10
      vertex 15.7135 34.3817 0
    endloop
  endfacet
  facet normal -0.951056 -0.309018 0
    outer loop
      vertex 15.7135 34.3817 10
      vertex 16 33.5 0
      vertex 16 33.5 10
    endloop
  endfacet
  facet normal -0.587785 0.809017 0
    outer loop
      vertex 15.7135 32.6183 0
      vertex 14.9635 32.0734 10
      vertex 15.7135 32.6183 10
    endloop
  endfacet
  facet normal -0.587785 0.809017 0
    outer loop
      vertex 14.9635 32.0734 10
      vertex 15.7135 32.6183 0
      vertex 14.9635 32.0734 0
    endloop
  endfacet
  facet normal 0.587785 -0.809017 0
    outer loop
      vertex 13.2865 34.3817 0
      vertex 14.0365 34.9266 10
      vertex 13.2865 34.3817 10
    endloop
  endfacet
  facet normal 0.587785 -0.809017 0
    outer loop
      vertex 14.0365 34.9266 10
      vertex 13.2865 34.3817 0
      vertex 14.0365 34.9266 0
    endloop
  endfacet
  facet normal -0.587785 -0.809017 0
    outer loop
      vertex 14.9635 34.9266 0
      vertex 15.7135 34.3817 10
      vertex 14.9635 34.9266 10
    endloop
  endfacet
  facet normal -0.587785 -0.809017 -0
    outer loop
      vertex 15.7135 34.3817 10
      vertex 14.9635 34.9266 0
      vertex 15.7135 34.3817 0
    endloop
  endfacet
  facet normal 0.951056 -0.309017 0
    outer loop
      vertex 13 33.5 10
      vertex 13.2865 34.3817 0
      vertex 13.2865 34.3817 10
    endloop
  endfacet
  facet normal 0.951056 -0.309017 0
    outer loop
      vertex 13.2865 34.3817 0
      vertex 13 33.5 10
      vertex 13 33.5 0
    endloop
  endfacet
  facet normal 0 -1 0
    outer loop
      vertex 14.0365 34.9266 0
      vertex 14.9635 34.9266 10
      vertex 14.0365 34.9266 10
    endloop
  endfacet
  facet normal 0 -1 -0
    outer loop
      vertex 14.9635 34.9266 10
      vertex 14.0365 34.9266 0
      vertex 14.9635 34.9266 0
    endloop
  endfacet
  facet normal 0.951057 0.309016 0
    outer loop
      vertex 13.2865 32.6183 10
      vertex 13 33.5 0
      vertex 13 33.5 10
    endloop
  endfacet
  facet normal 0.951057 0.309016 0
    outer loop
      vertex 13 33.5 0
      vertex 13.2865 32.6183 10
      vertex 13.2865 32.6183 0
    endloop
  endfacet
  facet normal -0.951056 0.309017 0
    outer loop
      vertex 15.7135 32.6183 0
      vertex 16 33.5 10
      vertex 16 33.5 0
    endloop
  endfacet
  facet normal -0.951056 0.309017 0
    outer loop
      vertex 16 33.5 10
      vertex 15.7135 32.6183 0
      vertex 15.7135 32.6183 10
    endloop
  endfacet
  facet normal 0 1 -0
    outer loop
      vertex 14.9635 32.0734 0
      vertex 14.0365 32.0734 10
      vertex 14.9635 32.0734 10
    endloop
  endfacet
  facet normal 0 1 0
    outer loop
      vertex 14.0365 32.0734 10
      vertex 14.9635 32.0734 0
      vertex 14.0365 32.0734 0
    endloop
  endfacet
  facet normal 0.587785 0.809017 -0
    outer loop
      vertex 14.0365 32.0734 0
      vertex 13.2865 32.6183 10
      vertex 14.0365 32.0734 10
    endloop
  endfacet
  facet normal 0.587785 0.809017 0
    outer loop
      vertex 13.2865 32.6183 10
      vertex 14.0365 32.0734 0
      vertex 13.2865 32.6183 0
    endloop
  endfacet
  facet normal -0.951056 -0.309018 0
    outer loop
      vertex 8 25.5 0
      vertex 7.71352 26.3817 10
      vertex 7.71352 26.3817 0
    endloop
  endfacet
  facet normal -0.951056 -0.309018 0
    outer loop
      vertex 7.71352 26.3817 10
      vertex 8 25.5 0
      vertex 8 25.5 10
    endloop
  endfacet
  facet normal -0.587785 0.809017 0
    outer loop
      vertex 7.71352 24.6183 0
      vertex 6.96352 24.0734 10
      vertex 7.71352 24.6183 10
    endloop
  endfacet
  facet normal -0.587785 0.809017 0
    outer loop
      vertex 6.96352 24.0734 10
      vertex 7.71352 24.6183 0
      vertex 6.96352 24.0734 0
    endloop
  endfacet
  facet normal 0.587785 -0.809017 0
    outer loop
      vertex 5.28647 26.3817 0
      vertex 6.03647 26.9266 10
      vertex 5.28647 26.3817 10
    endloop
  endfacet
  facet normal 0.587785 -0.809017 0
    outer loop
      vertex 6.03647 26.9266 10
      vertex 5.28647 26.3817 0
      vertex 6.03647 26.9266 0
    endloop
  endfacet
  facet normal -0.587785 -0.809017 0
    outer loop
      vertex 6.96352 26.9266 0
      vertex 7.71352 26.3817 10
      vertex 6.96352 26.9266 10
    endloop
  endfacet
  facet normal -0.587785 -0.809017 -0
    outer loop
      vertex 7.71352 26.3817 10
      vertex 6.96352 26.9266 0
      vertex 7.71352 26.3817 0
    endloop
  endfacet
  facet normal 0.951057 -0.309017 0
    outer loop
      vertex 5 25.5 10
      vertex 5.28647 26.3817 0
      vertex 5.28647 26.3817 10
    endloop
  endfacet
  facet normal 0.951057 -0.309017 0
    outer loop
      vertex 5.28647 26.3817 0
      vertex 5 25.5 10
      vertex 5 25.5 0
    endloop
  endfacet
  facet normal 0 -1 0
    outer loop
      vertex 6.03647 26.9266 0
      vertex 6.96352 26.9266 10
      vertex 6.03647 26.9266 10
    endloop
  endfacet
  facet normal 0 -1 -0
    outer loop
      vertex 6.96352 26.9266 10
      vertex 6.03647 26.9266 0
      vertex 6.96352 26.9266 0
    endloop
  endfacet
  facet normal 0.951057 0.309016 0
    outer loop
      vertex 5.28647 24.6183 10
      vertex 5 25.5 0
      vertex 5 25.5 10
    endloop
  endfacet
  facet normal 0.951057 0.309016 0
    outer loop
      vertex 5 25.5 0
      vertex 5.28647 24.6183 10
      vertex 5.28647 24.6183 0
    endloop
  endfacet
  facet normal 0.587785 0.809017 -0
    outer loop
      vertex 6.03647 24.0734 0
      vertex 5.28647 24.6183 10
      vertex 6.03647 24.0734 10
    endloop
  endfacet
  facet normal 0.587785 0.809017 0
    outer loop
      vertex 5.28647 24.6183 10
      vertex 6.03647 24.0734 0
      vertex 5.28647 24.6183 0
    endloop
  endfacet
  facet normal -0.951056 0.309017 0
    outer loop
      vertex 7.71352 24.6183 0
      vertex 8 25.5 10
      vertex 8 25.5 0
    endloop
  endfacet
  facet normal -0.951056 0.309017 0
    outer loop
      vertex 8 25.5 10
      vertex 7.71352 24.6183 0
      vertex 7.71352 24.6183 10
    endloop
  endfacet
  facet normal 0 1 -0
    outer loop
      vertex 6.96352 24.0734 0
      vertex 6.03647 24.0734 10
      vertex 6.96352 24.0734 10
    endloop
  endfacet
  facet normal 0 1 0
    outer loop
      vertex 6.03647 24.0734 10
      vertex 6.96352 24.0734 0
      vertex 6.03647 24.0734 0
    endloop
  endfacet
  facet normal -0.951056 -0.309019 0
    outer loop
      vertex 24 25.5 0
      vertex 23.7135 26.3817 10
      vertex 23.7135 26.3817 0
    endloop
  endfacet
  facet normal -0.951056 -0.309019 0
    outer loop
      vertex 23.7135 26.3817 10
      vertex 24 25.5 0
      vertex 24 25.5 10
    endloop
  endfacet
  facet normal -0.587785 0.809017 0
    outer loop
      vertex 23.7135 24.6183 0
      vertex 22.9635 24.0734 10
      vertex 23.7135 24.6183 10
    endloop
  endfacet
  facet normal -0.587785 0.809017 0
    outer loop
      vertex 22.9635 24.0734 10
      vertex 23.7135 24.6183 0
      vertex 22.9635 24.0734 0
    endloop
  endfacet
  facet normal 0.587785 -0.809017 0
    outer loop
      vertex 21.2865 26.3817 0
      vertex 22.0365 26.9266 10
      vertex 21.2865 26.3817 10
    endloop
  endfacet
  facet normal 0.587785 -0.809017 0
    outer loop
      vertex 22.0365 26.9266 10
      vertex 21.2865 26.3817 0
      vertex 22.0365 26.9266 0
    endloop
  endfacet
  facet normal -0.587785 -0.809017 0
    outer loop
      vertex 22.9635 26.9266 0
      vertex 23.7135 26.3817 10
      vertex 22.9635 26.9266 10
    endloop
  endfacet
  facet normal -0.587785 -0.809017 -0
    outer loop
      vertex 23.7135 26.3817 10
      vertex 22.9635 26.9266 0
      vertex 23.7135 26.3817 0
    endloop
  endfacet
  facet normal 0.951057 -0.309017 0
    outer loop
      vertex 21 25.5 10
      vertex 21.2865 26.3817 0
      vertex 21.2865 26.3817 10
    endloop
  endfacet
  facet normal 0.951057 -0.309017 0
    outer loop
      vertex 21.2865 26.3817 0
      vertex 21 25.5 10
      vertex 21 25.5 0
    endloop
  endfacet
  facet normal -0.951056 0.309018 0
    outer loop
      vertex 23.7135 24.6183 0
      vertex 24 25.5 10
      vertex 24 25.5 0
    endloop
  endfacet
  facet normal -0.951056 0.309018 0
    outer loop
      vertex 24 25.5 10
      vertex 23.7135 24.6183 0
      vertex 23.7135 24.6183 10
    endloop
  endfacet
  facet normal 0 -1 0
    outer loop
      vertex 22.0365 26.9266 0
      vertex 22.9635 26.9266 10
      vertex 22.0365 26.9266 10
    endloop
  endfacet
  facet normal 0 -1 -0
    outer loop
      vertex 22.9635 26.9266 10
      vertex 22.0365 26.9266 0
      vertex 22.9635 26.9266 0
    endloop
  endfacet
  facet normal 0.951057 0.309016 0
    outer loop
      vertex 21.2865 24.6183 10
      vertex 21 25.5 0
      vertex 21 25.5 10
    endloop
  endfacet
  facet normal 0.951057 0.309016 0
    outer loop
      vertex 21 25.5 0
      vertex 21.2865 24.6183 10
      vertex 21.2865 24.6183 0
    endloop
  endfacet
  facet normal 0 1 -0
    outer loop
      vertex 22.9635 24.0734 0
      vertex 22.0365 24.0734 10
      vertex 22.9635 24.0734 10
    endloop
  endfacet
  facet normal 0 1 0
    outer loop
      vertex 22.0365 24.0734 10
      vertex 22.9635 24.0734 0
      vertex 22.0365 24.0734 0
    endloop
  endfacet
  facet normal 0.587785 0.809017 -0
    outer loop
      vertex 22.0365 24.0734 0
      vertex 21.2865 24.6183 10
      vertex 22.0365 24.0734 10
    endloop
  endfacet
  facet normal 0.587785 0.809017 0
    outer loop
      vertex 21.2865 24.6183 10
      vertex 22.0365 24.0734 0
      vertex 21.2865 24.6183 0
    endloop
  endfacet
  facet normal 1 -0 0
    outer loop
      vertex 22.6 18.1468 3
      vertex 22.6 18.25 0
      vertex 22.6 18.25 3
    endloop
  endfacet
  facet normal 1 0 0
    outer loop
      vertex 22.6 0 0
      vertex 22.6 18.1468 3
      vertex 22.6 0 3
    endloop
  endfacet
  facet normal 1 0 0
    outer loop
      vertex 22.6 18.1468 3
      vertex 22.6 0 0
      vertex 22.6 18.25 0
    endloop
  endfacet
  facet normal 0 -1 0
    outer loop
      vertex 22.6 18.25 0
      vertex 22.6929 18.25 3
      vertex 22.6 18.25 3
    endloop
  endfacet
  facet normal 0 -1 0
    outer loop
      vertex 40 18.25 0
      vertex 22.6929 18.25 3
      vertex 22.6 18.25 0
    endloop
  endfacet
  facet normal 0 -1 0
    outer loop
      vertex 22.6929 18.25 3
      vertex 40 18.25 0
      vertex 40 18.25 3
    endloop
  endfacet
  facet normal -0.994522 -0.104529 0
    outer loop
      vertex 20.5 25.5 0
      vertex 20.3689 26.7475 10
      vertex 20.3689 26.7475 0
    endloop
  endfacet
  facet normal -0.994522 -0.104529 0
    outer loop
      vertex 20.3689 26.7475 10
      vertex 20.5 25.5 0
      vertex 20.5 25.5 10
    endloop
  endfacet
  facet normal 0.207911 -0.978148 0
    outer loop
      vertex 12.6459 31.2063 0
      vertex 13.8728 31.4671 10
      vertex 12.6459 31.2063 10
    endloop
  endfacet
  facet normal 0.207911 -0.978148 0
    outer loop
      vertex 13.8728 31.4671 10
      vertex 12.6459 31.2063 0
      vertex 13.8728 31.4671 0
    endloop
  endfacet
  facet normal -0.587786 -0.809016 0
    outer loop
      vertex 17.5 30.6962 0
      vertex 18.5148 29.9589 10
      vertex 17.5 30.6962 10
    endloop
  endfacet
  facet normal -0.587786 -0.809016 -0
    outer loop
      vertex 18.5148 29.9589 10
      vertex 17.5 30.6962 0
      vertex 18.5148 29.9589 0
    endloop
  endfacet
  facet normal 0.866025 -0.5 0
    outer loop
      vertex 9.01873 27.9404 10
      vertex 9.6459 29.0267 0
      vertex 9.6459 29.0267 10
    endloop
  endfacet
  facet normal 0.866025 -0.5 0
    outer loop
      vertex 9.6459 29.0267 0
      vertex 9.01873 27.9404 10
      vertex 9.01873 27.9404 0
    endloop
  endfacet
  facet normal 0.951056 -0.309017 0
    outer loop
      vertex 8.63111 26.7475 10
      vertex 9.01873 27.9404 0
      vertex 9.01873 27.9404 10
    endloop
  endfacet
  facet normal 0.951056 -0.309017 0
    outer loop
      vertex 9.01873 27.9404 0
      vertex 8.63111 26.7475 10
      vertex 8.63111 26.7475 0
    endloop
  endfacet
  facet normal 0.587785 -0.809017 0
    outer loop
      vertex 10.4852 29.9589 0
      vertex 11.5 30.6962 10
      vertex 10.4852 29.9589 10
    endloop
  endfacet
  facet normal 0.587785 -0.809017 0
    outer loop
      vertex 11.5 30.6962 10
      vertex 10.4852 29.9589 0
      vertex 11.5 30.6962 0
    endloop
  endfacet
  facet normal -0.866025 0.500001 0
    outer loop
      vertex 19.3541 21.9733 0
      vertex 19.9813 23.0596 10
      vertex 19.9813 23.0596 0
    endloop
  endfacet
  facet normal -0.866025 0.500001 0
    outer loop
      vertex 19.9813 23.0596 10
      vertex 19.3541 21.9733 0
      vertex 19.3541 21.9733 10
    endloop
  endfacet
  facet normal -0.866025 -0.500001 0
    outer loop
      vertex 19.9813 27.9404 0
      vertex 19.3541 29.0267 10
      vertex 19.3541 29.0267 0
    endloop
  endfacet
  facet normal -0.866025 -0.500001 0
    outer loop
      vertex 19.3541 29.0267 10
      vertex 19.9813 27.9404 0
      vertex 19.9813 27.9404 10
    endloop
  endfacet
  facet normal -0.951057 -0.309016 0
    outer loop
      vertex 20.3689 26.7475 0
      vertex 19.9813 27.9404 10
      vertex 19.9813 27.9404 0
    endloop
  endfacet
  facet normal -0.951057 -0.309016 0
    outer loop
      vertex 19.9813 27.9404 10
      vertex 20.3689 26.7475 0
      vertex 20.3689 26.7475 10
    endloop
  endfacet
  facet normal -0.743144 -0.669131 0
    outer loop
      vertex 19.3541 29.0267 0
      vertex 18.5148 29.9589 10
      vertex 18.5148 29.9589 0
    endloop
  endfacet
  facet normal -0.743144 -0.669131 0
    outer loop
      vertex 18.5148 29.9589 10
      vertex 19.3541 29.0267 0
      vertex 19.3541 29.0267 10
    endloop
  endfacet
  facet normal -0.207911 -0.978148 0
    outer loop
      vertex 15.1272 31.4671 0
      vertex 16.3541 31.2063 10
      vertex 15.1272 31.4671 10
    endloop
  endfacet
  facet normal -0.207911 -0.978148 -0
    outer loop
      vertex 16.3541 31.2063 10
      vertex 15.1272 31.4671 0
      vertex 16.3541 31.2063 0
    endloop
  endfacet
  facet normal 0 -1 0
    outer loop
      vertex 13.8728 31.4671 0
      vertex 15.1272 31.4671 10
      vertex 13.8728 31.4671 10
    endloop
  endfacet
  facet normal 0 -1 -0
    outer loop
      vertex 15.1272 31.4671 10
      vertex 13.8728 31.4671 0
      vertex 15.1272 31.4671 0
    endloop
  endfacet
  facet normal -0.406737 -0.913545 0
    outer loop
      vertex 16.3541 31.2063 0
      vertex 17.5 30.6962 10
      vertex 16.3541 31.2063 10
    endloop
  endfacet
  facet normal -0.406737 -0.913545 -0
    outer loop
      vertex 17.5 30.6962 10
      vertex 16.3541 31.2063 0
      vertex 17.5 30.6962 0
    endloop
  endfacet
  facet normal 0.994522 -0.104528 0
    outer loop
      vertex 8.5 25.5 10
      vertex 8.63111 26.7475 0
      vertex 8.63111 26.7475 10
    endloop
  endfacet
  facet normal 0.994522 -0.104528 0
    outer loop
      vertex 8.63111 26.7475 0
      vertex 8.5 25.5 10
      vertex 8.5 25.5 0
    endloop
  endfacet
  facet normal 0.743145 -0.669131 0
    outer loop
      vertex 9.6459 29.0267 10
      vertex 10.4852 29.9589 0
      vertex 10.4852 29.9589 10
    endloop
  endfacet
  facet normal 0.743145 -0.669131 0
    outer loop
      vertex 10.4852 29.9589 0
      vertex 9.6459 29.0267 10
      vertex 9.6459 29.0267 0
    endloop
  endfacet
  facet normal 0.406737 -0.913545 0
    outer loop
      vertex 11.5 30.6962 0
      vertex 12.6459 31.2063 10
      vertex 11.5 30.6962 10
    endloop
  endfacet
  facet normal 0.406737 -0.913545 0
    outer loop
      vertex 12.6459 31.2063 10
      vertex 11.5 30.6962 0
      vertex 12.6459 31.2063 0
    endloop
  endfacet
  facet normal 0 1 -0
    outer loop
      vertex 15.1272 19.5329 0
      vertex 13.8728 19.5329 10
      vertex 15.1272 19.5329 10
    endloop
  endfacet
  facet normal 0 1 0
    outer loop
      vertex 13.8728 19.5329 10
      vertex 15.1272 19.5329 0
      vertex 13.8728 19.5329 0
    endloop
  endfacet
  facet normal -0.406738 0.913545 0
    outer loop
      vertex 17.5 20.3038 0
      vertex 16.3541 19.7937 10
      vertex 17.5 20.3038 10
    endloop
  endfacet
  facet normal -0.406738 0.913545 0
    outer loop
      vertex 16.3541 19.7937 10
      vertex 17.5 20.3038 0
      vertex 16.3541 19.7937 0
    endloop
  endfacet
  facet normal -0.951057 0.309016 0
    outer loop
      vertex 19.9813 23.0596 0
      vertex 20.3689 24.2525 10
      vertex 20.3689 24.2525 0
    endloop
  endfacet
  facet normal -0.951057 0.309016 0
    outer loop
      vertex 20.3689 24.2525 10
      vertex 19.9813 23.0596 0
      vertex 19.9813 23.0596 10
    endloop
  endfacet
  facet normal 0.994522 0.104528 0
    outer loop
      vertex 8.63111 24.2525 10
      vertex 8.5 25.5 0
      vertex 8.5 25.5 10
    endloop
  endfacet
  facet normal 0.994522 0.104528 0
    outer loop
      vertex 8.5 25.5 0
      vertex 8.63111 24.2525 10
      vertex 8.63111 24.2525 0
    endloop
  endfacet
  facet normal 0.743145 0.669131 0
    outer loop
      vertex 10.4852 21.0411 10
      vertex 9.6459 21.9733 0
      vertex 9.6459 21.9733 10
    endloop
  endfacet
  facet normal 0.743145 0.669131 0
    outer loop
      vertex 9.6459 21.9733 0
      vertex 10.4852 21.0411 10
      vertex 10.4852 21.0411 0
    endloop
  endfacet
  facet normal 0.951057 0.309017 0
    outer loop
      vertex 9.01873 23.0596 10
      vertex 8.63111 24.2525 0
      vertex 8.63111 24.2525 10
    endloop
  endfacet
  facet normal 0.951057 0.309017 0
    outer loop
      vertex 8.63111 24.2525 0
      vertex 9.01873 23.0596 10
      vertex 9.01873 23.0596 0
    endloop
  endfacet
  facet normal 0.866025 0.5 0
    outer loop
      vertex 9.6459 21.9733 10
      vertex 9.01873 23.0596 0
      vertex 9.01873 23.0596 10
    endloop
  endfacet
  facet normal 0.866025 0.5 0
    outer loop
      vertex 9.01873 23.0596 0
      vertex 9.6459 21.9733 10
      vertex 9.6459 21.9733 0
    endloop
  endfacet
  facet normal -0.743144 0.669131 0
    outer loop
      vertex 18.5148 21.0411 0
      vertex 19.3541 21.9733 10
      vertex 19.3541 21.9733 0
    endloop
  endfacet
  facet normal -0.743144 0.669131 0
    outer loop
      vertex 19.3541 21.9733 10
      vertex 18.5148 21.0411 0
      vertex 18.5148 21.0411 10
    endloop
  endfacet
  facet normal -0.587785 0.809017 0
    outer loop
      vertex 18.5148 21.0411 0
      vertex 17.5 20.3038 10
      vertex 18.5148 21.0411 10
    endloop
  endfacet
  facet normal -0.587785 0.809017 0
    outer loop
      vertex 17.5 20.3038 10
      vertex 18.5148 21.0411 0
      vertex 17.5 20.3038 0
    endloop
  endfacet
  facet normal -0.994522 0.104529 0
    outer loop
      vertex 20.3689 24.2525 0
      vertex 20.5 25.5 10
      vertex 20.5 25.5 0
    endloop
  endfacet
  facet normal -0.994522 0.104529 0
    outer loop
      vertex 20.5 25.5 10
      vertex 20.3689 24.2525 0
      vertex 20.3689 24.2525 10
    endloop
  endfacet
  facet normal -0.207911 0.978148 0
    outer loop
      vertex 16.3541 19.7937 0
      vertex 15.1272 19.5329 10
      vertex 16.3541 19.7937 10
    endloop
  endfacet
  facet normal -0.207911 0.978148 0
    outer loop
      vertex 15.1272 19.5329 10
      vertex 16.3541 19.7937 0
      vertex 15.1272 19.5329 0
    endloop
  endfacet
  facet normal 0.406738 0.913545 -0
    outer loop
      vertex 12.6459 19.7937 0
      vertex 11.5 20.3038 10
      vertex 12.6459 19.7937 10
    endloop
  endfacet
  facet normal 0.406738 0.913545 0
    outer loop
      vertex 11.5 20.3038 10
      vertex 12.6459 19.7937 0
      vertex 11.5 20.3038 0
    endloop
  endfacet
  facet normal 0.207911 0.978148 -0
    outer loop
      vertex 13.8728 19.5329 0
      vertex 12.6459 19.7937 10
      vertex 13.8728 19.5329 10
    endloop
  endfacet
  facet normal 0.207911 0.978148 0
    outer loop
      vertex 12.6459 19.7937 10
      vertex 13.8728 19.5329 0
      vertex 12.6459 19.7937 0
    endloop
  endfacet
  facet normal 0.587785 0.809017 -0
    outer loop
      vertex 11.5 20.3038 0
      vertex 10.4852 21.0411 10
      vertex 11.5 20.3038 10
    endloop
  endfacet
  facet normal 0.587785 0.809017 0
    outer loop
      vertex 10.4852 21.0411 10
      vertex 11.5 20.3038 0
      vertex 10.4852 21.0411 0
    endloop
  endfacet
endsolid OpenSCAD_Model
