solid OpenSCAD_Model
  facet normal -1 0 0
    outer loop
      vertex 0 0 0
      vertex 0 0 20
      vertex 0 10.0274 0
    endloop
  endfacet
  facet normal -1 0 0
    outer loop
      vertex 0 15 5
      vertex 0 0 20
      vertex 0 30 20
    endloop
  endfacet
  facet normal -1 0 0
    outer loop
      vertex 0 19.9726 0
      vertex 0 30 20
      vertex 0 30 0
    endloop
  endfacet
  facet normal -1 0 0
    outer loop
      vertex 0 19.9726 0.522642
      vertex 0 30 20
      vertex 0 19.9726 0
    endloop
  endfacet
  facet normal -1 0 0
    outer loop
      vertex 0 19.7553 1.54508
      vertex 0 30 20
      vertex 0 19.9726 0.522642
    endloop
  endfacet
  facet normal -1 0 0
    outer loop
      vertex 0 19.3301 2.5
      vertex 0 30 20
      vertex 0 19.7553 1.54508
    endloop
  endfacet
  facet normal -1 0 0
    outer loop
      vertex 0 18.7157 3.34565
      vertex 0 30 20
      vertex 0 19.3301 2.5
    endloop
  endfacet
  facet normal -1 0 0
    outer loop
      vertex 0 17.9389 4.04508
      vertex 0 30 20
      vertex 0 18.7157 3.34565
    endloop
  endfacet
  facet normal -1 0 0
    outer loop
      vertex 0 17.0337 4.56773
      vertex 0 30 20
      vertex 0 17.9389 4.04508
    endloop
  endfacet
  facet normal -1 0 0
    outer loop
      vertex 0 16.0396 4.89074
      vertex 0 30 20
      vertex 0 17.0337 4.56773
    endloop
  endfacet
  facet normal -1 0 0
    outer loop
      vertex 0 13.9604 4.89074
      vertex 0 0 20
      vertex 0 15 5
    endloop
  endfacet
  facet normal -1 0 0
    outer loop
      vertex 0 12.9663 4.56773
      vertex 0 0 20
      vertex 0 13.9604 4.89074
    endloop
  endfacet
  facet normal -1 0 0
    outer loop
      vertex 0 12.0611 4.04508
      vertex 0 0 20
      vertex 0 12.9663 4.56773
    endloop
  endfacet
  facet normal -1 0 0
    outer loop
      vertex 0 11.2843 3.34565
      vertex 0 0 20
      vertex 0 12.0611 4.04508
    endloop
  endfacet
  facet normal -1 0 0
    outer loop
      vertex 0 10.6699 2.5
      vertex 0 0 20
      vertex 0 11.2843 3.34565
    endloop
  endfacet
  facet normal -1 0 0
    outer loop
      vertex 0 10.2447 1.54508
      vertex 0 0 20
      vertex 0 10.6699 2.5
    endloop
  endfacet
  facet normal -1 0 0
    outer loop
      vertex 0 10.0274 0.522642
      vertex 0 0 20
      vertex 0 10.2447 1.54508
    endloop
  endfacet
  facet normal -1 0 0
    outer loop
      vertex 0 10.0274 0
      vertex 0 0 20
      vertex 0 10.0274 0.522642
    endloop
  endfacet
  facet normal -1 0 0
    outer loop
      vertex 0 15 5
      vertex 0 30 20
      vertex 0 16.0396 4.89074
    endloop
  endfacet
  facet normal 0 -1 0
    outer loop
      vertex 0 0 20
      vertex 0 0 0
      vertex 14 0 0
    endloop
  endfacet
  facet normal 0 -1 0
    outer loop
      vertex 20 0 15
      vertex 0 0 20
      vertex 14 0 15
    endloop
  endfacet
  facet normal 0 -1 0
    outer loop
      vertex 14 0 15
      vertex 0 0 20
      vertex 14 0 0
    endloop
  endfacet
  facet normal 0 -1 0
    outer loop
      vertex 20 0 20
      vertex 0 0 20
      vertex 20 0 15
    endloop
  endfacet
  facet normal 0 0 -1
    outer loop
      vertex 10.727 3.40814 0
      vertex 14 0 0
      vertex 9.75095 3.26781 0
    endloop
  endfacet
  facet normal 0 0 -1
    outer loop
      vertex 9.75095 6.73219 0
      vertex 0 10.0274 0
      vertex 14 10.0274 0
    endloop
  endfacet
  facet normal 0 0 -1
    outer loop
      vertex 8.32089 4.50697 0
      vertex 0 10.0274 0
      vertex 8.32089 5.49303 0
    endloop
  endfacet
  facet normal 0 0 -1
    outer loop
      vertex 0 0 0
      vertex 0 10.0274 0
      vertex 8.85399 3.67744 0
    endloop
  endfacet
  facet normal 0 0 -1
    outer loop
      vertex 0 0 0
      vertex 8.85399 3.67744 0
      vertex 14 0 0
    endloop
  endfacet
  facet normal 0 0 -1
    outer loop
      vertex 11.4722 5.94612 0
      vertex 14 10.0274 0
      vertex 11.75 5 0
    endloop
  endfacet
  facet normal 0 0 -1
    outer loop
      vertex 14 0 0
      vertex 10.727 3.40814 0
      vertex 11.4722 4.05388 0
    endloop
  endfacet
  facet normal 0 0 -1
    outer loop
      vertex 14 0 0
      vertex 11.4722 4.05388 0
      vertex 14 10.0274 0
    endloop
  endfacet
  facet normal 0 0 -1
    outer loop
      vertex 11.4722 4.05388 0
      vertex 11.75 5 0
      vertex 14 10.0274 0
    endloop
  endfacet
  facet normal 0 0 -1
    outer loop
      vertex 9.75095 6.73219 0
      vertex 14 10.0274 0
      vertex 10.727 6.59186 0
    endloop
  endfacet
  facet normal 0 0 -1
    outer loop
      vertex 11.4722 5.94612 0
      vertex 10.727 6.59186 0
      vertex 14 10.0274 0
    endloop
  endfacet
  facet normal 0 0 -1
    outer loop
      vertex 8.85399 6.32256 0
      vertex 0 10.0274 0
      vertex 9.75095 6.73219 0
    endloop
  endfacet
  facet normal 0 0 -1
    outer loop
      vertex 8.32089 5.49303 0
      vertex 0 10.0274 0
      vertex 8.85399 6.32256 0
    endloop
  endfacet
  facet normal 0 0 -1
    outer loop
      vertex 8.85399 3.67744 0
      vertex 0 10.0274 0
      vertex 8.32089 4.50697 0
    endloop
  endfacet
  facet normal 0 0 -1
    outer loop
      vertex 9.75095 3.26781 0
      vertex 14 0 0
      vertex 8.85399 3.67744 0
    endloop
  endfacet
  facet normal 0 1 0
    outer loop
      vertex 14 10.0274 0.522642
      vertex 14 10.0274 0
      vertex 0 10.0274 0.522642
    endloop
  endfacet
  facet normal 0 1 0
    outer loop
      vertex 0 10.0274 0.522642
      vertex 14 10.0274 0
      vertex 0 10.0274 0
    endloop
  endfacet
  facet normal 4.61655e-17 0.978148 -0.207911
    outer loop
      vertex 14 10.2447 1.54509
      vertex 14 10.0274 0.522642
      vertex 0 10.2447 1.54508
    endloop
  endfacet
  facet normal 4.61655e-17 0.978148 -0.207911
    outer loop
      vertex 0 10.2447 1.54508
      vertex 14 10.0274 0.522642
      vertex 0 10.0274 0.522642
    endloop
  endfacet
  facet normal 9.03138e-17 0.913545 -0.406737
    outer loop
      vertex 14 10.6699 2.5
      vertex 14 10.2447 1.54509
      vertex 0 10.6699 2.5
    endloop
  endfacet
  facet normal 9.03138e-17 0.913545 -0.406737
    outer loop
      vertex 0 10.6699 2.5
      vertex 14 10.2447 1.54509
      vertex 0 10.2447 1.54508
    endloop
  endfacet
  facet normal 1.30515e-16 0.809017 -0.587785
    outer loop
      vertex 14 11.2843 3.34565
      vertex 14 10.6699 2.5
      vertex 0 11.2843 3.34565
    endloop
  endfacet
  facet normal 1.30515e-16 0.809017 -0.587785
    outer loop
      vertex 0 11.2843 3.34565
      vertex 14 10.6699 2.5
      vertex 0 10.6699 2.5
    endloop
  endfacet
  facet normal 1.65011e-16 0.669131 -0.743145
    outer loop
      vertex 14 12.0611 4.04509
      vertex 14 11.2843 3.34565
      vertex 0 12.0611 4.04508
    endloop
  endfacet
  facet normal 1.65011e-16 0.669131 -0.743145
    outer loop
      vertex 0 12.0611 4.04508
      vertex 14 11.2843 3.34565
      vertex 0 11.2843 3.34565
    endloop
  endfacet
  facet normal 1.92296e-16 0.5 -0.866026
    outer loop
      vertex 14 12.9663 4.56773
      vertex 14 12.0611 4.04509
      vertex 0 12.9663 4.56773
    endloop
  endfacet
  facet normal 1.92296e-16 0.5 -0.866026
    outer loop
      vertex 0 12.9663 4.56773
      vertex 14 12.0611 4.04509
      vertex 0 12.0611 4.04508
    endloop
  endfacet
  facet normal 2.11177e-16 0.309017 -0.951056
    outer loop
      vertex 14 13.9604 4.89074
      vertex 14 12.9663 4.56773
      vertex 0 13.9604 4.89074
    endloop
  endfacet
  facet normal 2.11177e-16 0.309017 -0.951056
    outer loop
      vertex 0 13.9604 4.89074
      vertex 14 12.9663 4.56773
      vertex 0 12.9663 4.56773
    endloop
  endfacet
  facet normal 2.20828e-16 0.104529 -0.994522
    outer loop
      vertex 14 15 5
      vertex 14 13.9604 4.89074
      vertex 0 15 5
    endloop
  endfacet
  facet normal 2.20828e-16 0.104529 -0.994522
    outer loop
      vertex 0 15 5
      vertex 14 13.9604 4.89074
      vertex 0 13.9604 4.89074
    endloop
  endfacet
  facet normal 2.20828e-16 -0.104529 -0.994522
    outer loop
      vertex 14 16.0396 4.89074
      vertex 14 15 5
      vertex 0 16.0396 4.89074
    endloop
  endfacet
  facet normal 2.20828e-16 -0.104529 -0.994522
    outer loop
      vertex 0 16.0396 4.89074
      vertex 14 15 5
      vertex 0 15 5
    endloop
  endfacet
  facet normal 2.11177e-16 -0.309017 -0.951056
    outer loop
      vertex 14 17.0337 4.56773
      vertex 14 16.0396 4.89074
      vertex 0 17.0337 4.56773
    endloop
  endfacet
  facet normal 2.11177e-16 -0.309017 -0.951056
    outer loop
      vertex 0 17.0337 4.56773
      vertex 14 16.0396 4.89074
      vertex 0 16.0396 4.89074
    endloop
  endfacet
  facet normal 1.92296e-16 -0.5 -0.866026
    outer loop
      vertex 14 17.9389 4.04509
      vertex 14 17.0337 4.56773
      vertex 0 17.9389 4.04508
    endloop
  endfacet
  facet normal 1.92296e-16 -0.5 -0.866026
    outer loop
      vertex 0 17.9389 4.04508
      vertex 14 17.0337 4.56773
      vertex 0 17.0337 4.56773
    endloop
  endfacet
  facet normal 1.65011e-16 -0.669131 -0.743145
    outer loop
      vertex 14 18.7157 3.34565
      vertex 14 17.9389 4.04509
      vertex 0 18.7157 3.34565
    endloop
  endfacet
  facet normal 1.65011e-16 -0.669131 -0.743145
    outer loop
      vertex 0 18.7157 3.34565
      vertex 14 17.9389 4.04509
      vertex 0 17.9389 4.04508
    endloop
  endfacet
  facet normal 1.30515e-16 -0.809017 -0.587785
    outer loop
      vertex 0 19.3301 2.5
      vertex 14 19.3301 2.5
      vertex 14 18.7157 3.34565
    endloop
  endfacet
  facet normal 1.30515e-16 -0.809017 -0.587785
    outer loop
      vertex 0 18.7157 3.34565
      vertex 0 19.3301 2.5
      vertex 14 18.7157 3.34565
    endloop
  endfacet
  facet normal 9.03138e-17 -0.913545 -0.406737
    outer loop
      vertex 0 19.7553 1.54508
      vertex 14 19.7553 1.54509
      vertex 14 19.3301 2.5
    endloop
  endfacet
  facet normal 9.03138e-17 -0.913545 -0.406737
    outer loop
      vertex 0 19.3301 2.5
      vertex 0 19.7553 1.54508
      vertex 14 19.3301 2.5
    endloop
  endfacet
  facet normal 4.61655e-17 -0.978148 -0.207911
    outer loop
      vertex 0 19.9726 0.522642
      vertex 14 19.9726 0.522642
      vertex 14 19.7553 1.54509
    endloop
  endfacet
  facet normal 4.61655e-17 -0.978148 -0.207911
    outer loop
      vertex 0 19.7553 1.54508
      vertex 0 19.9726 0.522642
      vertex 14 19.7553 1.54509
    endloop
  endfacet
  facet normal 0 -1 0
    outer loop
      vertex 14 19.9726 0
      vertex 14 19.9726 0.522642
      vertex 0 19.9726 0.522642
    endloop
  endfacet
  facet normal 0 -1 0
    outer loop
      vertex 0 19.9726 0
      vertex 14 19.9726 0
      vertex 0 19.9726 0.522642
    endloop
  endfacet
  facet normal 0 0 -1
    outer loop
      vertex 0 19.9726 0
      vertex 0 30 0
      vertex 14 19.9726 0
    endloop
  endfacet
  facet normal 0 0 -1
    outer loop
      vertex 9.75095 26.7322 0
      vertex 0 30 0
      vertex 14 30 0
    endloop
  endfacet
  facet normal 0 0 -1
    outer loop
      vertex 8.32089 24.507 0
      vertex 0 30 0
      vertex 8.32089 25.493 0
    endloop
  endfacet
  facet normal 0 0 -1
    outer loop
      vertex 8.85399 23.6774 0
      vertex 0 30 0
      vertex 8.32089 24.507 0
    endloop
  endfacet
  facet normal 0 0 -1
    outer loop
      vertex 14 19.9726 0
      vertex 0 30 0
      vertex 8.85399 23.6774 0
    endloop
  endfacet
  facet normal 0 0 -1
    outer loop
      vertex 14 19.9726 0
      vertex 8.85399 23.6774 0
      vertex 9.75095 23.2678 0
    endloop
  endfacet
  facet normal 0 0 -1
    outer loop
      vertex 11.4722 25.9461 0
      vertex 14 30 0
      vertex 11.75 25 0
    endloop
  endfacet
  facet normal 0 0 -1
    outer loop
      vertex 14 19.9726 0
      vertex 10.727 23.4081 0
      vertex 11.4722 24.0539 0
    endloop
  endfacet
  facet normal 0 0 -1
    outer loop
      vertex 14 19.9726 0
      vertex 11.4722 24.0539 0
      vertex 14 30 0
    endloop
  endfacet
  facet normal 0 0 -1
    outer loop
      vertex 11.4722 24.0539 0
      vertex 11.75 25 0
      vertex 14 30 0
    endloop
  endfacet
  facet normal 0 0 -1
    outer loop
      vertex 9.75095 26.7322 0
      vertex 14 30 0
      vertex 10.727 26.5919 0
    endloop
  endfacet
  facet normal 0 0 -1
    outer loop
      vertex 11.4722 25.9461 0
      vertex 10.727 26.5919 0
      vertex 14 30 0
    endloop
  endfacet
  facet normal 0 0 -1
    outer loop
      vertex 8.85399 26.3226 0
      vertex 0 30 0
      vertex 9.75095 26.7322 0
    endloop
  endfacet
  facet normal 0 0 -1
    outer loop
      vertex 8.32089 25.493 0
      vertex 0 30 0
      vertex 8.85399 26.3226 0
    endloop
  endfacet
  facet normal 0 0 -1
    outer loop
      vertex 10.727 23.4081 0
      vertex 14 19.9726 0
      vertex 9.75095 23.2678 0
    endloop
  endfacet
  facet normal 0 1 0
    outer loop
      vertex 0 30 0
      vertex 0 30 20
      vertex 14 30 0
    endloop
  endfacet
  facet normal 0 1 0
    outer loop
      vertex 14 30 15
      vertex 0 30 20
      vertex 20 30 20
    endloop
  endfacet
  facet normal 0 1 0
    outer loop
      vertex 14 30 0
      vertex 0 30 20
      vertex 14 30 15
    endloop
  endfacet
  facet normal 0 1 0
    outer loop
      vertex 14 30 15
      vertex 20 30 20
      vertex 20 30 15
    endloop
  endfacet
  facet normal 0 0 1
    outer loop
      vertex 10.727 3.40814 20
      vertex 0 0 20
      vertex 20 0 20
    endloop
  endfacet
  facet normal 0 0 1
    outer loop
      vertex 8.32089 24.507 20
      vertex 0 30 20
      vertex 20 0 20
    endloop
  endfacet
  facet normal 0 0 1
    outer loop
      vertex 9.75095 26.7322 20
      vertex 10.727 26.5919 20
      vertex 20 30 20
    endloop
  endfacet
  facet normal 0 0 1
    outer loop
      vertex 0 30 20
      vertex 0 0 20
      vertex 8.32089 4.50697 20
    endloop
  endfacet
  facet normal 0 0 1
    outer loop
      vertex 10.727 26.5919 20
      vertex 11.4722 25.9461 20
      vertex 20 30 20
    endloop
  endfacet
  facet normal 0 0 1
    outer loop
      vertex 0 30 20
      vertex 8.32089 4.50697 20
      vertex 8.32089 5.49303 20
    endloop
  endfacet
  facet normal 0 0 1
    outer loop
      vertex 0 30 20
      vertex 8.32089 5.49303 20
      vertex 8.85399 6.32256 20
    endloop
  endfacet
  facet normal 0 0 1
    outer loop
      vertex 11.75 5 20
      vertex 11.4722 4.05388 20
      vertex 20 0 20
    endloop
  endfacet
  facet normal 0 0 1
    outer loop
      vertex 0 30 20
      vertex 8.85399 6.32256 20
      vertex 9.75095 6.73219 20
    endloop
  endfacet
  facet normal 0 0 1
    outer loop
      vertex 0 30 20
      vertex 10.727 6.59186 20
      vertex 20 0 20
    endloop
  endfacet
  facet normal 0 0 1
    outer loop
      vertex 0 30 20
      vertex 9.75095 6.73219 20
      vertex 10.727 6.59186 20
    endloop
  endfacet
  facet normal 0 0 1
    outer loop
      vertex 10.727 6.59186 20
      vertex 11.4722 5.94612 20
      vertex 20 0 20
    endloop
  endfacet
  facet normal 0 0 1
    outer loop
      vertex 9.75095 3.26781 20
      vertex 0 0 20
      vertex 10.727 3.40814 20
    endloop
  endfacet
  facet normal 0 0 1
    outer loop
      vertex 8.85399 3.67744 20
      vertex 0 0 20
      vertex 9.75095 3.26781 20
    endloop
  endfacet
  facet normal 0 0 1
    outer loop
      vertex 8.32089 4.50697 20
      vertex 0 0 20
      vertex 8.85399 3.67744 20
    endloop
  endfacet
  facet normal 0 0 1
    outer loop
      vertex 8.85399 23.6774 20
      vertex 8.32089 24.507 20
      vertex 20 0 20
    endloop
  endfacet
  facet normal 0 0 1
    outer loop
      vertex 8.32089 25.493 20
      vertex 0 30 20
      vertex 8.32089 24.507 20
    endloop
  endfacet
  facet normal 0 0 1
    outer loop
      vertex 8.85399 26.3226 20
      vertex 0 30 20
      vertex 8.32089 25.493 20
    endloop
  endfacet
  facet normal 0 0 1
    outer loop
      vertex 9.75095 26.7322 20
      vertex 0 30 20
      vertex 8.85399 26.3226 20
    endloop
  endfacet
  facet normal 0 0 1
    outer loop
      vertex 20 30 20
      vertex 0 30 20
      vertex 9.75095 26.7322 20
    endloop
  endfacet
  facet normal 0 0 1
    outer loop
      vertex 20 30 20
      vertex 11.4722 25.9461 20
      vertex 20 0 20
    endloop
  endfacet
  facet normal 0 0 1
    outer loop
      vertex 11.4722 25.9461 20
      vertex 11.75 25 20
      vertex 20 0 20
    endloop
  endfacet
  facet normal 0 0 1
    outer loop
      vertex 11.75 25 20
      vertex 11.4722 24.0539 20
      vertex 20 0 20
    endloop
  endfacet
  facet normal 0 0 1
    outer loop
      vertex 11.4722 24.0539 20
      vertex 10.727 23.4081 20
      vertex 20 0 20
    endloop
  endfacet
  facet normal 0 0 1
    outer loop
      vertex 10.727 23.4081 20
      vertex 9.75095 23.2678 20
      vertex 20 0 20
    endloop
  endfacet
  facet normal 0 0 1
    outer loop
      vertex 9.75095 23.2678 20
      vertex 8.85399 23.6774 20
      vertex 20 0 20
    endloop
  endfacet
  facet normal 0 0 1
    outer loop
      vertex 11.4722 5.94612 20
      vertex 11.75 5 20
      vertex 20 0 20
    endloop
  endfacet
  facet normal 0 0 1
    outer loop
      vertex 11.4722 4.05388 20
      vertex 10.727 3.40814 20
      vertex 20 0 20
    endloop
  endfacet
  facet normal 1 0 0
    outer loop
      vertex 20 0 20
      vertex 20 0 15
      vertex 20 30 15
    endloop
  endfacet
  facet normal 1 0 0
    outer loop
      vertex 20 30 20
      vertex 20 0 20
      vertex 20 30 15
    endloop
  endfacet
  facet normal 0 0 -1
    outer loop
      vertex 20 30 15
      vertex 20 0 15
      vertex 14 30 15
    endloop
  endfacet
  facet normal 0 0 -1
    outer loop
      vertex 14 30 15
      vertex 20 0 15
      vertex 14 0 15
    endloop
  endfacet
  facet normal 1 0 0
    outer loop
      vertex 14 0 15
      vertex 14 10.0274 0.522642
      vertex 14 10.2447 1.54509
    endloop
  endfacet
  facet normal 1 0 0
    outer loop
      vertex 14 11.2843 3.34565
      vertex 14 0 15
      vertex 14 10.6699 2.5
    endloop
  endfacet
  facet normal 1 0 0
    outer loop
      vertex 14 10.6699 2.5
      vertex 14 0 15
      vertex 14 10.2447 1.54509
    endloop
  endfacet
  facet normal 1 0 0
    outer loop
      vertex 14 10.0274 0
      vertex 14 10.0274 0.522642
      vertex 14 0 15
    endloop
  endfacet
  facet normal 1 0 0
    outer loop
      vertex 14 12.0611 4.04509
      vertex 14 0 15
      vertex 14 11.2843 3.34565
    endloop
  endfacet
  facet normal 1 0 0
    outer loop
      vertex 14 12.9663 4.56773
      vertex 14 30 15
      vertex 14 12.0611 4.04509
    endloop
  endfacet
  facet normal 1 0 0
    outer loop
      vertex 14 13.9604 4.89074
      vertex 14 30 15
      vertex 14 12.9663 4.56773
    endloop
  endfacet
  facet normal 1 0 0
    outer loop
      vertex 14 15 5
      vertex 14 30 15
      vertex 14 13.9604 4.89074
    endloop
  endfacet
  facet normal 1 0 0
    outer loop
      vertex 14 16.0396 4.89074
      vertex 14 30 15
      vertex 14 15 5
    endloop
  endfacet
  facet normal 1 0 0
    outer loop
      vertex 14 17.0337 4.56773
      vertex 14 30 15
      vertex 14 16.0396 4.89074
    endloop
  endfacet
  facet normal 1 0 0
    outer loop
      vertex 14 17.9389 4.04509
      vertex 14 30 0
      vertex 14 17.0337 4.56773
    endloop
  endfacet
  facet normal 1 0 0
    outer loop
      vertex 14 18.7157 3.34565
      vertex 14 30 0
      vertex 14 17.9389 4.04509
    endloop
  endfacet
  facet normal 1 0 0
    outer loop
      vertex 14 19.3301 2.5
      vertex 14 30 0
      vertex 14 18.7157 3.34565
    endloop
  endfacet
  facet normal 1 0 0
    outer loop
      vertex 14 19.7553 1.54509
      vertex 14 30 0
      vertex 14 19.3301 2.5
    endloop
  endfacet
  facet normal 1 0 0
    outer loop
      vertex 14 19.9726 0.522642
      vertex 14 30 0
      vertex 14 19.7553 1.54509
    endloop
  endfacet
  facet normal 1 0 0
    outer loop
      vertex 14 19.9726 0
      vertex 14 30 0
      vertex 14 19.9726 0.522642
    endloop
  endfacet
  facet normal 1 0 0
    outer loop
      vertex 14 30 0
      vertex 14 30 15
      vertex 14 17.0337 4.56773
    endloop
  endfacet
  facet normal 1 0 0
    outer loop
      vertex 14 30 15
      vertex 14 0 15
      vertex 14 12.0611 4.04509
    endloop
  endfacet
  facet normal 1 0 0
    outer loop
      vertex 14 0 15
      vertex 14 0 0
      vertex 14 10.0274 0
    endloop
  endfacet
  facet normal 1 0 0
    outer loop
      vertex 8.32089 5.49303 0
      vertex 8.32089 5.49303 20
      vertex 8.32089 4.50697 20
    endloop
  endfacet
  facet normal 1 0 0
    outer loop
      vertex 8.32089 4.50697 0
      vertex 8.32089 5.49303 0
      vertex 8.32089 4.50697 20
    endloop
  endfacet
  facet normal 0.841253 -0.540641 0
    outer loop
      vertex 8.85399 6.32256 0
      vertex 8.85399 6.32256 20
      vertex 8.32089 5.49303 20
    endloop
  endfacet
  facet normal 0.841253 -0.540641 0
    outer loop
      vertex 8.32089 5.49303 0
      vertex 8.85399 6.32256 0
      vertex 8.32089 5.49303 20
    endloop
  endfacet
  facet normal 0.415415 -0.909632 0
    outer loop
      vertex 9.75095 6.73219 0
      vertex 9.75095 6.73219 20
      vertex 8.85399 6.32256 20
    endloop
  endfacet
  facet normal 0.415415 -0.909632 0
    outer loop
      vertex 8.85399 6.32256 0
      vertex 9.75095 6.73219 0
      vertex 8.85399 6.32256 20
    endloop
  endfacet
  facet normal -0.142315 -0.989821 0
    outer loop
      vertex 10.727 6.59186 0
      vertex 10.727 6.59186 20
      vertex 9.75095 6.73219 20
    endloop
  endfacet
  facet normal -0.142315 -0.989821 0
    outer loop
      vertex 9.75095 6.73219 0
      vertex 10.727 6.59186 0
      vertex 9.75095 6.73219 20
    endloop
  endfacet
  facet normal -0.654861 -0.75575 0
    outer loop
      vertex 11.4722 5.94612 0
      vertex 11.4722 5.94612 20
      vertex 10.727 6.59186 20
    endloop
  endfacet
  facet normal -0.654861 -0.75575 0
    outer loop
      vertex 10.727 6.59186 0
      vertex 11.4722 5.94612 0
      vertex 10.727 6.59186 20
    endloop
  endfacet
  facet normal -0.959493 -0.281732 0
    outer loop
      vertex 11.75 5 20
      vertex 11.4722 5.94612 20
      vertex 11.75 5 0
    endloop
  endfacet
  facet normal -0.959493 -0.281732 0
    outer loop
      vertex 11.75 5 0
      vertex 11.4722 5.94612 20
      vertex 11.4722 5.94612 0
    endloop
  endfacet
  facet normal -0.959493 0.281732 0
    outer loop
      vertex 11.75 5 20
      vertex 11.75 5 0
      vertex 11.4722 4.05388 20
    endloop
  endfacet
  facet normal -0.959493 0.281732 0
    outer loop
      vertex 11.4722 4.05388 20
      vertex 11.75 5 0
      vertex 11.4722 4.05388 0
    endloop
  endfacet
  facet normal -0.654861 0.75575 0
    outer loop
      vertex 11.4722 4.05388 20
      vertex 11.4722 4.05388 0
      vertex 10.727 3.40814 20
    endloop
  endfacet
  facet normal -0.654861 0.75575 0
    outer loop
      vertex 10.727 3.40814 20
      vertex 11.4722 4.05388 0
      vertex 10.727 3.40814 0
    endloop
  endfacet
  facet normal -0.142315 0.989821 0
    outer loop
      vertex 10.727 3.40814 20
      vertex 10.727 3.40814 0
      vertex 9.75095 3.26781 20
    endloop
  endfacet
  facet normal -0.142315 0.989821 0
    outer loop
      vertex 9.75095 3.26781 20
      vertex 10.727 3.40814 0
      vertex 9.75095 3.26781 0
    endloop
  endfacet
  facet normal 0.415415 0.909632 0
    outer loop
      vertex 9.75095 3.26781 20
      vertex 9.75095 3.26781 0
      vertex 8.85399 3.67744 20
    endloop
  endfacet
  facet normal 0.415415 0.909632 0
    outer loop
      vertex 8.85399 3.67744 20
      vertex 9.75095 3.26781 0
      vertex 8.85399 3.67744 0
    endloop
  endfacet
  facet normal 0.841253 0.540641 0
    outer loop
      vertex 8.32089 4.50697 20
      vertex 8.85399 3.67744 20
      vertex 8.85399 3.67744 0
    endloop
  endfacet
  facet normal 0.841253 0.540641 0
    outer loop
      vertex 8.32089 4.50697 0
      vertex 8.32089 4.50697 20
      vertex 8.85399 3.67744 0
    endloop
  endfacet
  facet normal 1 0 0
    outer loop
      vertex 8.32089 25.493 0
      vertex 8.32089 25.493 20
      vertex 8.32089 24.507 20
    endloop
  endfacet
  facet normal 1 0 0
    outer loop
      vertex 8.32089 24.507 0
      vertex 8.32089 25.493 0
      vertex 8.32089 24.507 20
    endloop
  endfacet
  facet normal 0.841253 -0.540641 0
    outer loop
      vertex 8.85399 26.3226 0
      vertex 8.85399 26.3226 20
      vertex 8.32089 25.493 20
    endloop
  endfacet
  facet normal 0.841253 -0.540641 0
    outer loop
      vertex 8.32089 25.493 0
      vertex 8.85399 26.3226 0
      vertex 8.32089 25.493 20
    endloop
  endfacet
  facet normal 0.415415 -0.909632 0
    outer loop
      vertex 9.75095 26.7322 0
      vertex 9.75095 26.7322 20
      vertex 8.85399 26.3226 20
    endloop
  endfacet
  facet normal 0.415415 -0.909632 0
    outer loop
      vertex 8.85399 26.3226 0
      vertex 9.75095 26.7322 0
      vertex 8.85399 26.3226 20
    endloop
  endfacet
  facet normal -0.142315 -0.989821 0
    outer loop
      vertex 10.727 26.5919 0
      vertex 10.727 26.5919 20
      vertex 9.75095 26.7322 20
    endloop
  endfacet
  facet normal -0.142315 -0.989821 0
    outer loop
      vertex 9.75095 26.7322 0
      vertex 10.727 26.5919 0
      vertex 9.75095 26.7322 20
    endloop
  endfacet
  facet normal -0.654861 -0.75575 0
    outer loop
      vertex 11.4722 25.9461 0
      vertex 11.4722 25.9461 20
      vertex 10.727 26.5919 20
    endloop
  endfacet
  facet normal -0.654861 -0.75575 0
    outer loop
      vertex 10.727 26.5919 0
      vertex 11.4722 25.9461 0
      vertex 10.727 26.5919 20
    endloop
  endfacet
  facet normal -0.959493 -0.281732 0
    outer loop
      vertex 11.75 25 20
      vertex 11.4722 25.9461 20
      vertex 11.75 25 0
    endloop
  endfacet
  facet normal -0.959493 -0.281732 0
    outer loop
      vertex 11.75 25 0
      vertex 11.4722 25.9461 20
      vertex 11.4722 25.9461 0
    endloop
  endfacet
  facet normal -0.959493 0.281732 0
    outer loop
      vertex 11.75 25 20
      vertex 11.75 25 0
      vertex 11.4722 24.0539 20
    endloop
  endfacet
  facet normal -0.959493 0.281732 0
    outer loop
      vertex 11.4722 24.0539 20
      vertex 11.75 25 0
      vertex 11.4722 24.0539 0
    endloop
  endfacet
  facet normal -0.654861 0.75575 0
    outer loop
      vertex 11.4722 24.0539 20
      vertex 11.4722 24.0539 0
      vertex 10.727 23.4081 20
    endloop
  endfacet
  facet normal -0.654861 0.75575 0
    outer loop
      vertex 10.727 23.4081 20
      vertex 11.4722 24.0539 0
      vertex 10.727 23.4081 0
    endloop
  endfacet
  facet normal -0.142315 0.989821 0
    outer loop
      vertex 10.727 23.4081 20
      vertex 10.727 23.4081 0
      vertex 9.75095 23.2678 20
    endloop
  endfacet
  facet normal -0.142315 0.989821 0
    outer loop
      vertex 9.75095 23.2678 20
      vertex 10.727 23.4081 0
      vertex 9.75095 23.2678 0
    endloop
  endfacet
  facet normal 0.415415 0.909632 0
    outer loop
      vertex 9.75095 23.2678 20
      vertex 9.75095 23.2678 0
      vertex 8.85399 23.6774 20
    endloop
  endfacet
  facet normal 0.415415 0.909632 0
    outer loop
      vertex 8.85399 23.6774 20
      vertex 9.75095 23.2678 0
      vertex 8.85399 23.6774 0
    endloop
  endfacet
  facet normal 0.841253 0.540641 0
    outer loop
      vertex 8.32089 24.507 20
      vertex 8.85399 23.6774 20
      vertex 8.85399 23.6774 0
    endloop
  endfacet
  facet normal 0.841253 0.540641 0
    outer loop
      vertex 8.32089 24.507 0
      vertex 8.32089 24.507 20
      vertex 8.85399 23.6774 0
    endloop
  endfacet
endsolid OpenSCAD_Model
