solid OpenSCAD_Model
  facet normal 0 0 -1
    outer loop
      vertex -8 0 0
      vertex -7.82518 1.66329 0
      vertex -7.82518 -1.66329 0
    endloop
  endfacet
  facet normal 0 0 -1
    outer loop
      vertex -7.82518 -1.66329 0
      vertex -7.82518 1.66329 0
      vertex -7.30836 3.25389 0
    endloop
  endfacet
  facet normal 0 0 -1
    outer loop
      vertex -7.82518 -1.66329 0
      vertex -7.30836 3.25389 0
      vertex -6.47214 4.70228 0
    endloop
  endfacet
  facet normal 0 0 -1
    outer loop
      vertex -7.82518 -1.66329 0
      vertex -6.47214 4.70228 0
      vertex -5.35304 5.94516 0
    endloop
  endfacet
  facet normal 0 0 -1
    outer loop
      vertex -7.82518 -1.66329 0
      vertex -5.35304 5.94516 0
      vertex -4 6.9282 0
    endloop
  endfacet
  facet normal 0 0 -1
    outer loop
      vertex -7.82518 -1.66329 0
      vertex -4 6.9282 0
      vertex -2.47214 7.60845 0
    endloop
  endfacet
  facet normal 0 0 -1
    outer loop
      vertex -7.82518 -1.66329 0
      vertex -2.47214 7.60845 0
      vertex -0.836228 7.95617 0
    endloop
  endfacet
  facet normal 0 0 -1
    outer loop
      vertex -7.82518 -1.66329 0
      vertex -0.836228 7.95617 0
      vertex 0.836228 7.95617 0
    endloop
  endfacet
  facet normal 0 0 -1
    outer loop
      vertex -7.82518 -1.66329 0
      vertex 0.836228 7.95617 0
      vertex 2.47214 7.60845 0
    endloop
  endfacet
  facet normal 0 0 -1
    outer loop
      vertex -7.82518 -1.66329 0
      vertex 2.47214 7.60845 0
      vertex 4 6.9282 0
    endloop
  endfacet
  facet normal 0 0 -1
    outer loop
      vertex -7.82518 -1.66329 0
      vertex 4 6.9282 0
      vertex 5.35304 5.94516 0
    endloop
  endfacet
  facet normal 0 0 -1
    outer loop
      vertex 0.241073 1.98542 0
      vertex 5.35304 5.94516 0
      vertex 6.47214 4.70228 0
    endloop
  endfacet
  facet normal 0 0 -1
    outer loop
      vertex 1.13613 1.64597 0
      vertex 6.47214 4.70228 0
      vertex 7.30836 3.25389 0
    endloop
  endfacet
  facet normal 0 0 -1
    outer loop
      vertex 1.77091 0.929446 0
      vertex 7.30836 3.25389 0
      vertex 7.82518 1.66329 0
    endloop
  endfacet
  facet normal 0 0 -1
    outer loop
      vertex 2 0 0
      vertex 7.82518 1.66329 0
      vertex 8 0 0
    endloop
  endfacet
  facet normal 0 0 -1
    outer loop
      vertex 1.77091 -0.929446 0
      vertex 8 0 0
      vertex 7.82518 -1.66329 0
    endloop
  endfacet
  facet normal 0 0 -1
    outer loop
      vertex 0.241073 -1.98542 0
      vertex 7.82518 -1.66329 0
      vertex 7.30836 -3.25389 0
    endloop
  endfacet
  facet normal 0 0 -1
    outer loop
      vertex -7.82518 -1.66329 0
      vertex 7.30836 -3.25389 0
      vertex 6.47214 -4.70228 0
    endloop
  endfacet
  facet normal 0 0 -1
    outer loop
      vertex -7.82518 -1.66329 0
      vertex 6.47214 -4.70228 0
      vertex 5.35304 -5.94516 0
    endloop
  endfacet
  facet normal 0 0 -1
    outer loop
      vertex -7.82518 -1.66329 0
      vertex 5.35304 -5.94516 0
      vertex 4 -6.9282 0
    endloop
  endfacet
  facet normal 0 0 -1
    outer loop
      vertex -7.82518 -1.66329 0
      vertex 4 -6.9282 0
      vertex 2.47214 -7.60845 0
    endloop
  endfacet
  facet normal 0 0 -1
    outer loop
      vertex -7.82518 -1.66329 0
      vertex 2.47214 -7.60845 0
      vertex 0.836228 -7.95617 0
    endloop
  endfacet
  facet normal 0 0 -1
    outer loop
      vertex -7.82518 -1.66329 0
      vertex 0.836228 -7.95617 0
      vertex -0.836228 -7.95617 0
    endloop
  endfacet
  facet normal 0 0 -1
    outer loop
      vertex -7.82518 -1.66329 0
      vertex -0.836228 -7.95617 0
      vertex -2.47214 -7.60845 0
    endloop
  endfacet
  facet normal 0 0 -1
    outer loop
      vertex -7.82518 -1.66329 0
      vertex -2.47214 -7.60845 0
      vertex -4 -6.9282 0
    endloop
  endfacet
  facet normal 0 0 -1
    outer loop
      vertex -7.82518 -1.66329 0
      vertex -4 -6.9282 0
      vertex -5.35304 -5.94516 0
    endloop
  endfacet
  facet normal 0 0 -1
    outer loop
      vertex -7.82518 -1.66329 0
      vertex -5.35304 -5.94516 0
      vertex -6.47214 -4.70228 0
    endloop
  endfacet
  facet normal 0 0 -1
    outer loop
      vertex -7.82518 -1.66329 0
      vertex -6.47214 -4.70228 0
      vertex -7.30836 -3.25389 0
    endloop
  endfacet
  facet normal 0 0 -1
    outer loop
      vertex -1.94188 -0.478631 0
      vertex -7.82518 -1.66329 0
      vertex -1.94188 0.478631 0
    endloop
  endfacet
  facet normal 0 0 -1
    outer loop
      vertex -1.49702 -1.32624 0
      vertex -7.82518 -1.66329 0
      vertex -1.94188 -0.478631 0
    endloop
  endfacet
  facet normal 0 0 -1
    outer loop
      vertex 1.77091 -0.929446 0
      vertex 7.82518 -1.66329 0
      vertex 1.13613 -1.64597 0
    endloop
  endfacet
  facet normal 0 0 -1
    outer loop
      vertex -0.70921 -1.87003 0
      vertex -7.82518 -1.66329 0
      vertex -1.49702 -1.32624 0
    endloop
  endfacet
  facet normal 0 0 -1
    outer loop
      vertex 1.13613 -1.64597 0
      vertex 7.82518 -1.66329 0
      vertex 0.241073 -1.98542 0
    endloop
  endfacet
  facet normal 0 0 -1
    outer loop
      vertex -7.82518 -1.66329 0
      vertex -0.70921 -1.87003 0
      vertex 7.30836 -3.25389 0
    endloop
  endfacet
  facet normal 0 0 -1
    outer loop
      vertex -0.70921 -1.87003 0
      vertex 0.241073 -1.98542 0
      vertex 7.30836 -3.25389 0
    endloop
  endfacet
  facet normal 0 0 -1
    outer loop
      vertex 2 0 0
      vertex 8 0 0
      vertex 1.77091 -0.929446 0
    endloop
  endfacet
  facet normal 0 0 -1
    outer loop
      vertex 1.77091 0.929446 0
      vertex 7.82518 1.66329 0
      vertex 2 0 0
    endloop
  endfacet
  facet normal 0 0 -1
    outer loop
      vertex 0.241073 1.98542 0
      vertex 6.47214 4.70228 0
      vertex 1.13613 1.64597 0
    endloop
  endfacet
  facet normal 0 0 -1
    outer loop
      vertex -0.70921 1.87003 0
      vertex 5.35304 5.94516 0
      vertex 0.241073 1.98542 0
    endloop
  endfacet
  facet normal 0 0 -1
    outer loop
      vertex -7.82518 -1.66329 0
      vertex 5.35304 5.94516 0
      vertex -0.70921 1.87003 0
    endloop
  endfacet
  facet normal 0 0 -1
    outer loop
      vertex -7.82518 -1.66329 0
      vertex -0.70921 1.87003 0
      vertex -1.49702 1.32624 0
    endloop
  endfacet
  facet normal 0 0 -1
    outer loop
      vertex 1.13613 1.64597 0
      vertex 7.30836 3.25389 0
      vertex 1.77091 0.929446 0
    endloop
  endfacet
  facet normal 0 0 -1
    outer loop
      vertex -1.94188 0.478631 0
      vertex -7.82518 -1.66329 0
      vertex -1.49702 1.32624 0
    endloop
  endfacet
  facet normal -0.994522 0.104528 0
    outer loop
      vertex -8 0 0
      vertex -8 0 7
      vertex -7.82518 1.66329 0
    endloop
  endfacet
  facet normal -0.994522 0.104528 0
    outer loop
      vertex -7.82518 1.66329 0
      vertex -8 0 7
      vertex -7.82518 1.66329 7
    endloop
  endfacet
  facet normal -0.994522 -0.104528 0
    outer loop
      vertex -8 0 0
      vertex -7.82518 -1.66329 0
      vertex -8 0 7
    endloop
  endfacet
  facet normal -0.994522 -0.104528 0
    outer loop
      vertex -8 0 7
      vertex -7.82518 -1.66329 0
      vertex -7.82518 -1.66329 7
    endloop
  endfacet
  facet normal -0.951057 -0.309017 0
    outer loop
      vertex -7.82518 -1.66329 0
      vertex -7.30836 -3.25389 0
      vertex -7.82518 -1.66329 7
    endloop
  endfacet
  facet normal -0.951057 -0.309017 0
    outer loop
      vertex -7.82518 -1.66329 7
      vertex -7.30836 -3.25389 0
      vertex -7.30836 -3.25389 7
    endloop
  endfacet
  facet normal -0.866025 -0.5 0
    outer loop
      vertex -7.30836 -3.25389 0
      vertex -6.47214 -4.70228 0
      vertex -7.30836 -3.25389 7
    endloop
  endfacet
  facet normal -0.866025 -0.5 0
    outer loop
      vertex -7.30836 -3.25389 7
      vertex -6.47214 -4.70228 0
      vertex -6.47214 -4.70228 7
    endloop
  endfacet
  facet normal -0.743145 -0.66913 0
    outer loop
      vertex -6.47214 -4.70228 0
      vertex -5.35304 -5.94516 0
      vertex -6.47214 -4.70228 7
    endloop
  endfacet
  facet normal -0.743145 -0.66913 0
    outer loop
      vertex -6.47214 -4.70228 7
      vertex -5.35304 -5.94516 0
      vertex -5.35304 -5.94516 7
    endloop
  endfacet
  facet normal -0.587785 -0.809017 0
    outer loop
      vertex -5.35304 -5.94516 7
      vertex -5.35304 -5.94516 0
      vertex -4 -6.9282 0
    endloop
  endfacet
  facet normal -0.587785 -0.809017 0
    outer loop
      vertex -4 -6.9282 7
      vertex -5.35304 -5.94516 7
      vertex -4 -6.9282 0
    endloop
  endfacet
  facet normal -0.406737 -0.913545 0
    outer loop
      vertex -4 -6.9282 7
      vertex -4 -6.9282 0
      vertex -2.47214 -7.60845 0
    endloop
  endfacet
  facet normal -0.406737 -0.913545 0
    outer loop
      vertex -2.47214 -7.60845 7
      vertex -4 -6.9282 7
      vertex -2.47214 -7.60845 0
    endloop
  endfacet
  facet normal -0.207912 -0.978148 0
    outer loop
      vertex -2.47214 -7.60845 7
      vertex -2.47214 -7.60845 0
      vertex -0.836228 -7.95617 0
    endloop
  endfacet
  facet normal -0.207912 -0.978148 0
    outer loop
      vertex -0.836228 -7.95617 7
      vertex -2.47214 -7.60845 7
      vertex -0.836228 -7.95617 0
    endloop
  endfacet
  facet normal 0 -1 0
    outer loop
      vertex -0.836228 -7.95617 7
      vertex -0.836228 -7.95617 0
      vertex 0.836228 -7.95617 0
    endloop
  endfacet
  facet normal 0 -1 0
    outer loop
      vertex 0.836228 -7.95617 7
      vertex -0.836228 -7.95617 7
      vertex 0.836228 -7.95617 0
    endloop
  endfacet
  facet normal 0.207912 -0.978148 0
    outer loop
      vertex 0.836228 -7.95617 7
      vertex 0.836228 -7.95617 0
      vertex 2.47214 -7.60845 0
    endloop
  endfacet
  facet normal 0.207912 -0.978148 0
    outer loop
      vertex 2.47214 -7.60845 7
      vertex 0.836228 -7.95617 7
      vertex 2.47214 -7.60845 0
    endloop
  endfacet
  facet normal 0.406737 -0.913545 0
    outer loop
      vertex 2.47214 -7.60845 7
      vertex 2.47214 -7.60845 0
      vertex 4 -6.9282 0
    endloop
  endfacet
  facet normal 0.406737 -0.913545 0
    outer loop
      vertex 4 -6.9282 7
      vertex 2.47214 -7.60845 7
      vertex 4 -6.9282 0
    endloop
  endfacet
  facet normal 0.587785 -0.809017 0
    outer loop
      vertex 4 -6.9282 7
      vertex 4 -6.9282 0
      vertex 5.35304 -5.94516 0
    endloop
  endfacet
  facet normal 0.587785 -0.809017 0
    outer loop
      vertex 5.35304 -5.94516 7
      vertex 4 -6.9282 7
      vertex 5.35304 -5.94516 0
    endloop
  endfacet
  facet normal 0.743145 -0.66913 0
    outer loop
      vertex 5.35304 -5.94516 7
      vertex 5.35304 -5.94516 0
      vertex 6.47214 -4.70228 0
    endloop
  endfacet
  facet normal 0.743145 -0.66913 0
    outer loop
      vertex 6.47214 -4.70228 7
      vertex 5.35304 -5.94516 7
      vertex 6.47214 -4.70228 0
    endloop
  endfacet
  facet normal 0.866025 -0.5 0
    outer loop
      vertex 6.47214 -4.70228 7
      vertex 6.47214 -4.70228 0
      vertex 7.30836 -3.25389 0
    endloop
  endfacet
  facet normal 0.866025 -0.5 0
    outer loop
      vertex 7.30836 -3.25389 7
      vertex 6.47214 -4.70228 7
      vertex 7.30836 -3.25389 0
    endloop
  endfacet
  facet normal 0.951057 -0.309017 0
    outer loop
      vertex 7.30836 -3.25389 7
      vertex 7.30836 -3.25389 0
      vertex 7.82518 -1.66329 0
    endloop
  endfacet
  facet normal 0.951057 -0.309017 0
    outer loop
      vertex 7.82518 -1.66329 7
      vertex 7.30836 -3.25389 7
      vertex 7.82518 -1.66329 0
    endloop
  endfacet
  facet normal 0.994522 -0.104528 0
    outer loop
      vertex 7.82518 -1.66329 7
      vertex 7.82518 -1.66329 0
      vertex 8 0 0
    endloop
  endfacet
  facet normal 0.994522 -0.104528 0
    outer loop
      vertex 8 0 7
      vertex 7.82518 -1.66329 7
      vertex 8 0 0
    endloop
  endfacet
  facet normal 0.994522 0.104528 0
    outer loop
      vertex 8 0 0
      vertex 7.82518 1.66329 0
      vertex 7.82518 1.66329 7
    endloop
  endfacet
  facet normal 0.994522 0.104528 0
    outer loop
      vertex 8 0 7
      vertex 8 0 0
      vertex 7.82518 1.66329 7
    endloop
  endfacet
  facet normal 0.951057 0.309017 0
    outer loop
      vertex 7.82518 1.66329 0
      vertex 7.30836 3.25389 0
      vertex 7.30836 3.25389 7
    endloop
  endfacet
  facet normal 0.951057 0.309017 0
    outer loop
      vertex 7.82518 1.66329 7
      vertex 7.82518 1.66329 0
      vertex 7.30836 3.25389 7
    endloop
  endfacet
  facet normal 0.866025 0.5 0
    outer loop
      vertex 7.30836 3.25389 0
      vertex 6.47214 4.70228 0
      vertex 6.47214 4.70228 7
    endloop
  endfacet
  facet normal 0.866025 0.5 0
    outer loop
      vertex 7.30836 3.25389 7
      vertex 7.30836 3.25389 0
      vertex 6.47214 4.70228 7
    endloop
  endfacet
  facet normal 0.743145 0.66913 0
    outer loop
      vertex 6.47214 4.70228 0
      vertex 5.35304 5.94516 0
      vertex 5.35304 5.94516 7
    endloop
  endfacet
  facet normal 0.743145 0.66913 0
    outer loop
      vertex 6.47214 4.70228 7
      vertex 6.47214 4.70228 0
      vertex 5.35304 5.94516 7
    endloop
  endfacet
  facet normal 0.587785 0.809017 0
    outer loop
      vertex 4 6.9282 0
      vertex 4 6.9282 7
      vertex 5.35304 5.94516 0
    endloop
  endfacet
  facet normal 0.587785 0.809017 0
    outer loop
      vertex 5.35304 5.94516 0
      vertex 4 6.9282 7
      vertex 5.35304 5.94516 7
    endloop
  endfacet
  facet normal 0.406737 0.913545 0
    outer loop
      vertex 2.47214 7.60845 0
      vertex 2.47214 7.60845 7
      vertex 4 6.9282 0
    endloop
  endfacet
  facet normal 0.406737 0.913545 0
    outer loop
      vertex 4 6.9282 0
      vertex 2.47214 7.60845 7
      vertex 4 6.9282 7
    endloop
  endfacet
  facet normal 0.207912 0.978148 0
    outer loop
      vertex 0.836228 7.95617 0
      vertex 0.836228 7.95617 7
      vertex 2.47214 7.60845 0
    endloop
  endfacet
  facet normal 0.207912 0.978148 0
    outer loop
      vertex 2.47214 7.60845 0
      vertex 0.836228 7.95617 7
      vertex 2.47214 7.60845 7
    endloop
  endfacet
  facet normal 0 1 0
    outer loop
      vertex -0.836228 7.95617 0
      vertex -0.836228 7.95617 7
      vertex 0.836228 7.95617 0
    endloop
  endfacet
  facet normal 0 1 0
    outer loop
      vertex 0.836228 7.95617 0
      vertex -0.836228 7.95617 7
      vertex 0.836228 7.95617 7
    endloop
  endfacet
  facet normal -0.207912 0.978148 0
    outer loop
      vertex -2.47214 7.60845 0
      vertex -2.47214 7.60845 7
      vertex -0.836228 7.95617 0
    endloop
  endfacet
  facet normal -0.207912 0.978148 0
    outer loop
      vertex -0.836228 7.95617 0
      vertex -2.47214 7.60845 7
      vertex -0.836228 7.95617 7
    endloop
  endfacet
  facet normal -0.406737 0.913545 0
    outer loop
      vertex -4 6.9282 0
      vertex -4 6.9282 7
      vertex -2.47214 7.60845 0
    endloop
  endfacet
  facet normal -0.406737 0.913545 0
    outer loop
      vertex -2.47214 7.60845 0
      vertex -4 6.9282 7
      vertex -2.47214 7.60845 7
    endloop
  endfacet
  facet normal -0.587785 0.809017 0
    outer loop
      vertex -5.35304 5.94516 0
      vertex -5.35304 5.94516 7
      vertex -4 6.9282 0
    endloop
  endfacet
  facet normal -0.587785 0.809017 0
    outer loop
      vertex -4 6.9282 0
      vertex -5.35304 5.94516 7
      vertex -4 6.9282 7
    endloop
  endfacet
  facet normal -0.743145 0.66913 0
    outer loop
      vertex -6.47214 4.70228 0
      vertex -6.47214 4.70228 7
      vertex -5.35304 5.94516 0
    endloop
  endfacet
  facet normal -0.743145 0.66913 0
    outer loop
      vertex -5.35304 5.94516 0
      vertex -6.47214 4.70228 7
      vertex -5.35304 5.94516 7
    endloop
  endfacet
  facet normal -0.866025 0.5 0
    outer loop
      vertex -7.30836 3.25389 0
      vertex -7.30836 3.25389 7
      vertex -6.47214 4.70228 0
    endloop
  endfacet
  facet normal -0.866025 0.5 0
    outer loop
      vertex -6.47214 4.70228 0
      vertex -7.30836 3.25389 7
      vertex -6.47214 4.70228 7
    endloop
  endfacet
  facet normal -0.951057 0.309017 0
    outer loop
      vertex -7.82518 1.66329 0
      vertex -7.82518 1.66329 7
      vertex -7.30836 3.25389 0
    endloop
  endfacet
  facet normal -0.951057 0.309017 0
    outer loop
      vertex -7.30836 3.25389 0
      vertex -7.82518 1.66329 7
      vertex -7.30836 3.25389 7
    endloop
  endfacet
  facet normal 1 0 0
    outer loop
      vertex -1.94188 0.478631 0
      vertex -1.94188 0.478631 8
      vertex -1.94188 -0.478631 8
    endloop
  endfacet
  facet normal 1 0 0
    outer loop
      vertex -1.94188 -0.478631 0
      vertex -1.94188 0.478631 0
      vertex -1.94188 -0.478631 8
    endloop
  endfacet
  facet normal 0.885456 -0.464724 0
    outer loop
      vertex -1.49702 1.32624 0
      vertex -1.49702 1.32624 8
      vertex -1.94188 0.478631 8
    endloop
  endfacet
  facet normal 0.885456 -0.464724 0
    outer loop
      vertex -1.94188 0.478631 0
      vertex -1.49702 1.32624 0
      vertex -1.94188 0.478631 8
    endloop
  endfacet
  facet normal 0.568065 -0.822984 0
    outer loop
      vertex -0.70921 1.87003 0
      vertex -0.70921 1.87003 8
      vertex -1.49702 1.32624 8
    endloop
  endfacet
  facet normal 0.568065 -0.822984 0
    outer loop
      vertex -1.49702 1.32624 0
      vertex -0.70921 1.87003 0
      vertex -1.49702 1.32624 8
    endloop
  endfacet
  facet normal 0.120537 -0.992709 0
    outer loop
      vertex 0.241073 1.98542 0
      vertex 0.241073 1.98542 8
      vertex -0.70921 1.87003 8
    endloop
  endfacet
  facet normal 0.120537 -0.992709 0
    outer loop
      vertex -0.70921 1.87003 0
      vertex 0.241073 1.98542 0
      vertex -0.70921 1.87003 8
    endloop
  endfacet
  facet normal -0.354605 -0.935016 0
    outer loop
      vertex 1.13613 1.64597 0
      vertex 1.13613 1.64597 8
      vertex 0.241073 1.98542 8
    endloop
  endfacet
  facet normal -0.354605 -0.935016 0
    outer loop
      vertex 0.241073 1.98542 0
      vertex 1.13613 1.64597 0
      vertex 0.241073 1.98542 8
    endloop
  endfacet
  facet normal -0.748511 -0.663123 0
    outer loop
      vertex 1.77091 0.929446 8
      vertex 1.13613 1.64597 8
      vertex 1.77091 0.929446 0
    endloop
  endfacet
  facet normal -0.748511 -0.663123 0
    outer loop
      vertex 1.77091 0.929446 0
      vertex 1.13613 1.64597 8
      vertex 1.13613 1.64597 0
    endloop
  endfacet
  facet normal -0.970942 -0.239316 0
    outer loop
      vertex 2 0 8
      vertex 1.77091 0.929446 8
      vertex 2 0 0
    endloop
  endfacet
  facet normal -0.970942 -0.239316 0
    outer loop
      vertex 2 0 0
      vertex 1.77091 0.929446 8
      vertex 1.77091 0.929446 0
    endloop
  endfacet
  facet normal -0.970942 0.239316 0
    outer loop
      vertex 2 0 8
      vertex 2 0 0
      vertex 1.77091 -0.929446 8
    endloop
  endfacet
  facet normal -0.970942 0.239316 0
    outer loop
      vertex 1.77091 -0.929446 8
      vertex 2 0 0
      vertex 1.77091 -0.929446 0
    endloop
  endfacet
  facet normal -0.748511 0.663123 0
    outer loop
      vertex 1.77091 -0.929446 8
      vertex 1.77091 -0.929446 0
      vertex 1.13613 -1.64597 8
    endloop
  endfacet
  facet normal -0.748511 0.663123 0
    outer loop
      vertex 1.13613 -1.64597 8
      vertex 1.77091 -0.929446 0
      vertex 1.13613 -1.64597 0
    endloop
  endfacet
  facet normal -0.354605 0.935016 0
    outer loop
      vertex 1.13613 -1.64597 8
      vertex 1.13613 -1.64597 0
      vertex 0.241073 -1.98542 8
    endloop
  endfacet
  facet normal -0.354605 0.935016 0
    outer loop
      vertex 0.241073 -1.98542 8
      vertex 1.13613 -1.64597 0
      vertex 0.241073 -1.98542 0
    endloop
  endfacet
  facet normal 0.120537 0.992709 0
    outer loop
      vertex 0.241073 -1.98542 8
      vertex 0.241073 -1.98542 0
      vertex -0.70921 -1.87003 8
    endloop
  endfacet
  facet normal 0.120537 0.992709 0
    outer loop
      vertex -0.70921 -1.87003 8
      vertex 0.241073 -1.98542 0
      vertex -0.70921 -1.87003 0
    endloop
  endfacet
  facet normal 0.568065 0.822984 0
    outer loop
      vertex -0.70921 -1.87003 8
      vertex -0.70921 -1.87003 0
      vertex -1.49702 -1.32624 8
    endloop
  endfacet
  facet normal 0.568065 0.822984 0
    outer loop
      vertex -1.49702 -1.32624 8
      vertex -0.70921 -1.87003 0
      vertex -1.49702 -1.32624 0
    endloop
  endfacet
  facet normal 0.885456 0.464724 0
    outer loop
      vertex -1.94188 -0.478631 8
      vertex -1.49702 -1.32624 8
      vertex -1.49702 -1.32624 0
    endloop
  endfacet
  facet normal 0.885456 0.464724 0
    outer loop
      vertex -1.94188 -0.478631 0
      vertex -1.94188 -0.478631 8
      vertex -1.49702 -1.32624 0
    endloop
  endfacet
  facet normal 0 0 1
    outer loop
      vertex -7.82518 1.66329 7
      vertex -8 0 7
      vertex -7.82518 -1.66329 7
    endloop
  endfacet
  facet normal 0 0 1
    outer loop
      vertex -6.47214 -4.70228 7
      vertex -7.82518 1.66329 7
      vertex -7.30836 -3.25389 7
    endloop
  endfacet
  facet normal 0 0 1
    outer loop
      vertex -7.30836 -3.25389 7
      vertex -7.82518 1.66329 7
      vertex -7.82518 -1.66329 7
    endloop
  endfacet
  facet normal 0 0 1
    outer loop
      vertex -5.35304 -5.94516 7
      vertex -7.82518 1.66329 7
      vertex -6.47214 -4.70228 7
    endloop
  endfacet
  facet normal 0 0 1
    outer loop
      vertex -4 -6.9282 7
      vertex -7.82518 1.66329 7
      vertex -5.35304 -5.94516 7
    endloop
  endfacet
  facet normal 0 0 1
    outer loop
      vertex -2.47214 -7.60845 7
      vertex -7.82518 1.66329 7
      vertex -4 -6.9282 7
    endloop
  endfacet
  facet normal 0 0 1
    outer loop
      vertex -0.836228 -7.95617 7
      vertex -7.82518 1.66329 7
      vertex -2.47214 -7.60845 7
    endloop
  endfacet
  facet normal 0 0 1
    outer loop
      vertex 0.836228 -7.95617 7
      vertex -7.82518 1.66329 7
      vertex -0.836228 -7.95617 7
    endloop
  endfacet
  facet normal 0 0 1
    outer loop
      vertex 2.47214 -7.60845 7
      vertex -7.82518 1.66329 7
      vertex 0.836228 -7.95617 7
    endloop
  endfacet
  facet normal 0 0 1
    outer loop
      vertex -2.99404 -2.65249 7
      vertex -7.82518 1.66329 7
      vertex 2.47214 -7.60845 7
    endloop
  endfacet
  facet normal 0 0 1
    outer loop
      vertex 2.99404 -2.65249 7
      vertex 2.27226 -3.29194 7
      vertex 6.47214 -4.70228 7
    endloop
  endfacet
  facet normal 0 0 1
    outer loop
      vertex -3.88377 0.957263 7
      vertex -3.54182 1.85889 7
      vertex -7.82518 1.66329 7
    endloop
  endfacet
  facet normal 0 0 1
    outer loop
      vertex -2.99404 2.65249 7
      vertex -2.27226 3.29194 7
      vertex -7.82518 1.66329 7
    endloop
  endfacet
  facet normal 0 0 1
    outer loop
      vertex 3.54182 1.85889 7
      vertex 3.88377 0.957263 7
      vertex 7.82518 1.66329 7
    endloop
  endfacet
  facet normal 0 0 1
    outer loop
      vertex -0.482147 3.97083 7
      vertex 0.482147 3.97083 7
      vertex 5.35304 5.94516 7
    endloop
  endfacet
  facet normal 0 0 1
    outer loop
      vertex 4 6.9282 7
      vertex -7.82518 1.66329 7
      vertex 5.35304 5.94516 7
    endloop
  endfacet
  facet normal 0 0 1
    outer loop
      vertex 2.47214 7.60845 7
      vertex -7.82518 1.66329 7
      vertex 4 6.9282 7
    endloop
  endfacet
  facet normal 0 0 1
    outer loop
      vertex 0.836228 7.95617 7
      vertex -7.82518 1.66329 7
      vertex 2.47214 7.60845 7
    endloop
  endfacet
  facet normal 0 0 1
    outer loop
      vertex -0.836228 7.95617 7
      vertex -7.82518 1.66329 7
      vertex 0.836228 7.95617 7
    endloop
  endfacet
  facet normal 0 0 1
    outer loop
      vertex -2.47214 7.60845 7
      vertex -7.82518 1.66329 7
      vertex -0.836228 7.95617 7
    endloop
  endfacet
  facet normal 0 0 1
    outer loop
      vertex -4 6.9282 7
      vertex -7.82518 1.66329 7
      vertex -2.47214 7.60845 7
    endloop
  endfacet
  facet normal 0 0 1
    outer loop
      vertex -5.35304 5.94516 7
      vertex -7.82518 1.66329 7
      vertex -4 6.9282 7
    endloop
  endfacet
  facet normal 0 0 1
    outer loop
      vertex -6.47214 4.70228 7
      vertex -7.82518 1.66329 7
      vertex -5.35304 5.94516 7
    endloop
  endfacet
  facet normal 0 0 1
    outer loop
      vertex -7.30836 3.25389 7
      vertex -7.82518 1.66329 7
      vertex -6.47214 4.70228 7
    endloop
  endfacet
  facet normal 0 0 1
    outer loop
      vertex -4 0 7
      vertex -3.88377 0.957263 7
      vertex -7.82518 1.66329 7
    endloop
  endfacet
  facet normal 0 0 1
    outer loop
      vertex 2.27226 -3.29194 7
      vertex 1.41842 -3.74006 7
      vertex 5.35304 -5.94516 7
    endloop
  endfacet
  facet normal 0 0 1
    outer loop
      vertex 3.54182 -1.85889 7
      vertex 2.99404 -2.65249 7
      vertex 7.30836 -3.25389 7
    endloop
  endfacet
  facet normal 0 0 1
    outer loop
      vertex 3.88377 0.957263 7
      vertex 4 0 7
      vertex 8 0 7
    endloop
  endfacet
  facet normal 0 0 1
    outer loop
      vertex 2.27226 3.29194 7
      vertex 2.99404 2.65249 7
      vertex 7.30836 3.25389 7
    endloop
  endfacet
  facet normal 0 0 1
    outer loop
      vertex 1.41842 3.74006 7
      vertex 2.27226 3.29194 7
      vertex 6.47214 4.70228 7
    endloop
  endfacet
  facet normal 0 0 1
    outer loop
      vertex -1.41842 3.74006 7
      vertex -7.82518 1.66329 7
      vertex -2.27226 3.29194 7
    endloop
  endfacet
  facet normal 0 0 1
    outer loop
      vertex 5.35304 5.94516 7
      vertex -7.82518 1.66329 7
      vertex -1.41842 3.74006 7
    endloop
  endfacet
  facet normal 0 0 1
    outer loop
      vertex 0.482147 3.97083 7
      vertex 1.41842 3.74006 7
      vertex 6.47214 4.70228 7
    endloop
  endfacet
  facet normal 0 0 1
    outer loop
      vertex 5.35304 5.94516 7
      vertex -1.41842 3.74006 7
      vertex -0.482147 3.97083 7
    endloop
  endfacet
  facet normal 0 0 1
    outer loop
      vertex 5.35304 5.94516 7
      vertex 0.482147 3.97083 7
      vertex 6.47214 4.70228 7
    endloop
  endfacet
  facet normal 0 0 1
    outer loop
      vertex 6.47214 4.70228 7
      vertex 2.27226 3.29194 7
      vertex 7.30836 3.25389 7
    endloop
  endfacet
  facet normal 0 0 1
    outer loop
      vertex 7.30836 3.25389 7
      vertex 2.99404 2.65249 7
      vertex 7.82518 1.66329 7
    endloop
  endfacet
  facet normal 0 0 1
    outer loop
      vertex 2.99404 2.65249 7
      vertex 3.54182 1.85889 7
      vertex 7.82518 1.66329 7
    endloop
  endfacet
  facet normal 0 0 1
    outer loop
      vertex 7.82518 1.66329 7
      vertex 3.88377 0.957263 7
      vertex 8 0 7
    endloop
  endfacet
  facet normal 0 0 1
    outer loop
      vertex -3.54182 1.85889 7
      vertex -2.99404 2.65249 7
      vertex -7.82518 1.66329 7
    endloop
  endfacet
  facet normal 0 0 1
    outer loop
      vertex 8 0 7
      vertex 4 0 7
      vertex 7.82518 -1.66329 7
    endloop
  endfacet
  facet normal 0 0 1
    outer loop
      vertex 7.82518 -1.66329 7
      vertex 3.88377 -0.957263 7
      vertex 7.30836 -3.25389 7
    endloop
  endfacet
  facet normal 0 0 1
    outer loop
      vertex -2.99404 -2.65249 7
      vertex -3.54182 -1.85889 7
      vertex -7.82518 1.66329 7
    endloop
  endfacet
  facet normal 0 0 1
    outer loop
      vertex 3.88377 -0.957263 7
      vertex 3.54182 -1.85889 7
      vertex 7.30836 -3.25389 7
    endloop
  endfacet
  facet normal 0 0 1
    outer loop
      vertex 4 0 7
      vertex 3.88377 -0.957263 7
      vertex 7.82518 -1.66329 7
    endloop
  endfacet
  facet normal 0 0 1
    outer loop
      vertex 7.30836 -3.25389 7
      vertex 2.99404 -2.65249 7
      vertex 6.47214 -4.70228 7
    endloop
  endfacet
  facet normal 0 0 1
    outer loop
      vertex 6.47214 -4.70228 7
      vertex 2.27226 -3.29194 7
      vertex 5.35304 -5.94516 7
    endloop
  endfacet
  facet normal 0 0 1
    outer loop
      vertex 0.482147 -3.97083 7
      vertex -0.482147 -3.97083 7
      vertex 4 -6.9282 7
    endloop
  endfacet
  facet normal 0 0 1
    outer loop
      vertex 5.35304 -5.94516 7
      vertex 0.482147 -3.97083 7
      vertex 4 -6.9282 7
    endloop
  endfacet
  facet normal 0 0 1
    outer loop
      vertex 4 -6.9282 7
      vertex -0.482147 -3.97083 7
      vertex 2.47214 -7.60845 7
    endloop
  endfacet
  facet normal 0 0 1
    outer loop
      vertex 1.41842 -3.74006 7
      vertex 0.482147 -3.97083 7
      vertex 5.35304 -5.94516 7
    endloop
  endfacet
  facet normal 0 0 1
    outer loop
      vertex -0.482147 -3.97083 7
      vertex -1.41842 -3.74006 7
      vertex 2.47214 -7.60845 7
    endloop
  endfacet
  facet normal 0 0 1
    outer loop
      vertex -1.41842 -3.74006 7
      vertex -2.27226 -3.29194 7
      vertex 2.47214 -7.60845 7
    endloop
  endfacet
  facet normal 0 0 1
    outer loop
      vertex -2.27226 -3.29194 7
      vertex -2.99404 -2.65249 7
      vertex 2.47214 -7.60845 7
    endloop
  endfacet
  facet normal 0 0 1
    outer loop
      vertex -3.54182 -1.85889 7
      vertex -3.88377 -0.957263 7
      vertex -7.82518 1.66329 7
    endloop
  endfacet
  facet normal 0 0 1
    outer loop
      vertex -3.88377 -0.957263 7
      vertex -4 0 7
      vertex -7.82518 1.66329 7
    endloop
  endfacet
  facet normal 0 0 1
    outer loop
      vertex -3.88377 0.957263 8
      vertex -4 0 8
      vertex -3.88377 -0.957263 8
    endloop
  endfacet
  facet normal 0 0 1
    outer loop
      vertex -2.99404 -2.65249 8
      vertex -3.88377 0.957263 8
      vertex -3.54182 -1.85889 8
    endloop
  endfacet
  facet normal 0 0 1
    outer loop
      vertex -3.54182 -1.85889 8
      vertex -3.88377 0.957263 8
      vertex -3.88377 -0.957263 8
    endloop
  endfacet
  facet normal 0 0 1
    outer loop
      vertex -2.27226 -3.29194 8
      vertex -3.88377 0.957263 8
      vertex -2.99404 -2.65249 8
    endloop
  endfacet
  facet normal 0 0 1
    outer loop
      vertex -1.41842 -3.74006 8
      vertex -3.88377 0.957263 8
      vertex -2.27226 -3.29194 8
    endloop
  endfacet
  facet normal 0 0 1
    outer loop
      vertex -0.482147 -3.97083 8
      vertex -3.88377 0.957263 8
      vertex -1.41842 -3.74006 8
    endloop
  endfacet
  facet normal 0 0 1
    outer loop
      vertex 0.482147 -3.97083 8
      vertex -3.88377 0.957263 8
      vertex -0.482147 -3.97083 8
    endloop
  endfacet
  facet normal 0 0 1
    outer loop
      vertex -1.49702 -1.32624 8
      vertex -3.88377 0.957263 8
      vertex 0.482147 -3.97083 8
    endloop
  endfacet
  facet normal 0 0 1
    outer loop
      vertex 1.77091 0.929446 8
      vertex 2 0 8
      vertex 4 0 8
    endloop
  endfacet
  facet normal 0 0 1
    outer loop
      vertex 1.13613 1.64597 8
      vertex 3.88377 0.957263 8
      vertex 3.54182 1.85889 8
    endloop
  endfacet
  facet normal 0 0 1
    outer loop
      vertex 0.241073 1.98542 8
      vertex 1.13613 1.64597 8
      vertex 2.99404 2.65249 8
    endloop
  endfacet
  facet normal 0 0 1
    outer loop
      vertex 1.41842 3.74006 8
      vertex -3.88377 0.957263 8
      vertex 2.27226 3.29194 8
    endloop
  endfacet
  facet normal 0 0 1
    outer loop
      vertex 0.482147 3.97083 8
      vertex -3.88377 0.957263 8
      vertex 1.41842 3.74006 8
    endloop
  endfacet
  facet normal 0 0 1
    outer loop
      vertex -0.482147 3.97083 8
      vertex -3.88377 0.957263 8
      vertex 0.482147 3.97083 8
    endloop
  endfacet
  facet normal 0 0 1
    outer loop
      vertex -1.41842 3.74006 8
      vertex -3.88377 0.957263 8
      vertex -0.482147 3.97083 8
    endloop
  endfacet
  facet normal 0 0 1
    outer loop
      vertex -2.27226 3.29194 8
      vertex -3.88377 0.957263 8
      vertex -1.41842 3.74006 8
    endloop
  endfacet
  facet normal 0 0 1
    outer loop
      vertex -2.99404 2.65249 8
      vertex -3.88377 0.957263 8
      vertex -2.27226 3.29194 8
    endloop
  endfacet
  facet normal 0 0 1
    outer loop
      vertex -3.54182 1.85889 8
      vertex -3.88377 0.957263 8
      vertex -2.99404 2.65249 8
    endloop
  endfacet
  facet normal 0 0 1
    outer loop
      vertex 1.13613 -1.64597 8
      vertex 0.241073 -1.98542 8
      vertex 2.27226 -3.29194 8
    endloop
  endfacet
  facet normal 0 0 1
    outer loop
      vertex 2 0 8
      vertex 1.77091 -0.929446 8
      vertex 3.88377 -0.957263 8
    endloop
  endfacet
  facet normal 0 0 1
    outer loop
      vertex 1.13613 1.64597 8
      vertex 1.77091 0.929446 8
      vertex 3.88377 0.957263 8
    endloop
  endfacet
  facet normal 0 0 1
    outer loop
      vertex 2.27226 3.29194 8
      vertex -0.70921 1.87003 8
      vertex 2.99404 2.65249 8
    endloop
  endfacet
  facet normal 0 0 1
    outer loop
      vertex 2.27226 3.29194 8
      vertex -3.88377 0.957263 8
      vertex -0.70921 1.87003 8
    endloop
  endfacet
  facet normal 0 0 1
    outer loop
      vertex -0.70921 1.87003 8
      vertex 0.241073 1.98542 8
      vertex 2.99404 2.65249 8
    endloop
  endfacet
  facet normal 0 0 1
    outer loop
      vertex 2.99404 2.65249 8
      vertex 1.13613 1.64597 8
      vertex 3.54182 1.85889 8
    endloop
  endfacet
  facet normal 0 0 1
    outer loop
      vertex 3.88377 0.957263 8
      vertex 1.77091 0.929446 8
      vertex 4 0 8
    endloop
  endfacet
  facet normal 0 0 1
    outer loop
      vertex -1.49702 1.32624 8
      vertex -0.70921 1.87003 8
      vertex -3.88377 0.957263 8
    endloop
  endfacet
  facet normal 0 0 1
    outer loop
      vertex 4 0 8
      vertex 2 0 8
      vertex 3.88377 -0.957263 8
    endloop
  endfacet
  facet normal 0 0 1
    outer loop
      vertex 3.88377 -0.957263 8
      vertex 1.77091 -0.929446 8
      vertex 3.54182 -1.85889 8
    endloop
  endfacet
  facet normal 0 0 1
    outer loop
      vertex 3.54182 -1.85889 8
      vertex 1.13613 -1.64597 8
      vertex 2.99404 -2.65249 8
    endloop
  endfacet
  facet normal 0 0 1
    outer loop
      vertex 2.27226 -3.29194 8
      vertex 0.241073 -1.98542 8
      vertex 1.41842 -3.74006 8
    endloop
  endfacet
  facet normal 0 0 1
    outer loop
      vertex 1.41842 -3.74006 8
      vertex -0.70921 -1.87003 8
      vertex 0.482147 -3.97083 8
    endloop
  endfacet
  facet normal 0 0 1
    outer loop
      vertex 1.13613 -1.64597 8
      vertex 2.27226 -3.29194 8
      vertex 2.99404 -2.65249 8
    endloop
  endfacet
  facet normal 0 0 1
    outer loop
      vertex -0.70921 -1.87003 8
      vertex -1.49702 -1.32624 8
      vertex 0.482147 -3.97083 8
    endloop
  endfacet
  facet normal 0 0 1
    outer loop
      vertex -1.49702 -1.32624 8
      vertex -1.94188 -0.478631 8
      vertex -3.88377 0.957263 8
    endloop
  endfacet
  facet normal 0 0 1
    outer loop
      vertex 0.241073 -1.98542 8
      vertex -0.70921 -1.87003 8
      vertex 1.41842 -3.74006 8
    endloop
  endfacet
  facet normal 0 0 1
    outer loop
      vertex -1.94188 -0.478631 8
      vertex -1.94188 0.478631 8
      vertex -3.88377 0.957263 8
    endloop
  endfacet
  facet normal 0 0 1
    outer loop
      vertex 1.77091 -0.929446 8
      vertex 1.13613 -1.64597 8
      vertex 3.54182 -1.85889 8
    endloop
  endfacet
  facet normal 0 0 1
    outer loop
      vertex -1.94188 0.478631 8
      vertex -1.49702 1.32624 8
      vertex -3.88377 0.957263 8
    endloop
  endfacet
  facet normal -0.992709 -0.120537 0
    outer loop
      vertex -4 0 7
      vertex -3.88377 -0.957263 7
      vertex -4 0 8
    endloop
  endfacet
  facet normal -0.992709 -0.120537 0
    outer loop
      vertex -4 0 8
      vertex -3.88377 -0.957263 7
      vertex -3.88377 -0.957263 8
    endloop
  endfacet
  facet normal -0.935016 -0.354605 0
    outer loop
      vertex -3.88377 -0.957263 7
      vertex -3.54182 -1.85889 7
      vertex -3.88377 -0.957263 8
    endloop
  endfacet
  facet normal -0.935016 -0.354605 0
    outer loop
      vertex -3.88377 -0.957263 8
      vertex -3.54182 -1.85889 7
      vertex -3.54182 -1.85889 8
    endloop
  endfacet
  facet normal -0.822984 -0.568065 0
    outer loop
      vertex -3.54182 -1.85889 7
      vertex -2.99404 -2.65249 7
      vertex -3.54182 -1.85889 8
    endloop
  endfacet
  facet normal -0.822984 -0.568065 0
    outer loop
      vertex -3.54182 -1.85889 8
      vertex -2.99404 -2.65249 7
      vertex -2.99404 -2.65249 8
    endloop
  endfacet
  facet normal -0.663122 -0.748511 0
    outer loop
      vertex -2.99404 -2.65249 8
      vertex -2.99404 -2.65249 7
      vertex -2.27226 -3.29194 7
    endloop
  endfacet
  facet normal -0.663122 -0.748511 0
    outer loop
      vertex -2.27226 -3.29194 8
      vertex -2.99404 -2.65249 8
      vertex -2.27226 -3.29194 7
    endloop
  endfacet
  facet normal -0.464724 -0.885456 0
    outer loop
      vertex -2.27226 -3.29194 8
      vertex -2.27226 -3.29194 7
      vertex -1.41842 -3.74006 7
    endloop
  endfacet
  facet normal -0.464724 -0.885456 0
    outer loop
      vertex -1.41842 -3.74006 8
      vertex -2.27226 -3.29194 8
      vertex -1.41842 -3.74006 7
    endloop
  endfacet
  facet normal -0.239315 -0.970942 0
    outer loop
      vertex -1.41842 -3.74006 8
      vertex -1.41842 -3.74006 7
      vertex -0.482147 -3.97083 7
    endloop
  endfacet
  facet normal -0.239315 -0.970942 0
    outer loop
      vertex -0.482147 -3.97083 8
      vertex -1.41842 -3.74006 8
      vertex -0.482147 -3.97083 7
    endloop
  endfacet
  facet normal 0 -1 0
    outer loop
      vertex -0.482147 -3.97083 8
      vertex -0.482147 -3.97083 7
      vertex 0.482147 -3.97083 7
    endloop
  endfacet
  facet normal 0 -1 0
    outer loop
      vertex 0.482147 -3.97083 8
      vertex -0.482147 -3.97083 8
      vertex 0.482147 -3.97083 7
    endloop
  endfacet
  facet normal 0.239315 -0.970942 0
    outer loop
      vertex 0.482147 -3.97083 8
      vertex 0.482147 -3.97083 7
      vertex 1.41842 -3.74006 7
    endloop
  endfacet
  facet normal 0.239315 -0.970942 0
    outer loop
      vertex 1.41842 -3.74006 8
      vertex 0.482147 -3.97083 8
      vertex 1.41842 -3.74006 7
    endloop
  endfacet
  facet normal 0.464724 -0.885456 0
    outer loop
      vertex 1.41842 -3.74006 8
      vertex 1.41842 -3.74006 7
      vertex 2.27226 -3.29194 7
    endloop
  endfacet
  facet normal 0.464724 -0.885456 0
    outer loop
      vertex 2.27226 -3.29194 8
      vertex 1.41842 -3.74006 8
      vertex 2.27226 -3.29194 7
    endloop
  endfacet
  facet normal 0.663122 -0.748511 0
    outer loop
      vertex 2.27226 -3.29194 8
      vertex 2.27226 -3.29194 7
      vertex 2.99404 -2.65249 7
    endloop
  endfacet
  facet normal 0.663122 -0.748511 0
    outer loop
      vertex 2.99404 -2.65249 8
      vertex 2.27226 -3.29194 8
      vertex 2.99404 -2.65249 7
    endloop
  endfacet
  facet normal 0.822984 -0.568065 0
    outer loop
      vertex 2.99404 -2.65249 8
      vertex 2.99404 -2.65249 7
      vertex 3.54182 -1.85889 7
    endloop
  endfacet
  facet normal 0.822984 -0.568065 0
    outer loop
      vertex 3.54182 -1.85889 8
      vertex 2.99404 -2.65249 8
      vertex 3.54182 -1.85889 7
    endloop
  endfacet
  facet normal 0.935016 -0.354605 0
    outer loop
      vertex 3.54182 -1.85889 8
      vertex 3.54182 -1.85889 7
      vertex 3.88377 -0.957263 7
    endloop
  endfacet
  facet normal 0.935016 -0.354605 0
    outer loop
      vertex 3.88377 -0.957263 8
      vertex 3.54182 -1.85889 8
      vertex 3.88377 -0.957263 7
    endloop
  endfacet
  facet normal 0.992709 -0.120537 0
    outer loop
      vertex 3.88377 -0.957263 8
      vertex 3.88377 -0.957263 7
      vertex 4 0 7
    endloop
  endfacet
  facet normal 0.992709 -0.120537 0
    outer loop
      vertex 4 0 8
      vertex 3.88377 -0.957263 8
      vertex 4 0 7
    endloop
  endfacet
  facet normal 0.992709 0.120537 0
    outer loop
      vertex 4 0 7
      vertex 3.88377 0.957263 7
      vertex 3.88377 0.957263 8
    endloop
  endfacet
  facet normal 0.992709 0.120537 0
    outer loop
      vertex 4 0 8
      vertex 4 0 7
      vertex 3.88377 0.957263 8
    endloop
  endfacet
  facet normal 0.935016 0.354605 0
    outer loop
      vertex 3.88377 0.957263 7
      vertex 3.54182 1.85889 7
      vertex 3.54182 1.85889 8
    endloop
  endfacet
  facet normal 0.935016 0.354605 0
    outer loop
      vertex 3.88377 0.957263 8
      vertex 3.88377 0.957263 7
      vertex 3.54182 1.85889 8
    endloop
  endfacet
  facet normal 0.822984 0.568065 0
    outer loop
      vertex 3.54182 1.85889 7
      vertex 2.99404 2.65249 7
      vertex 2.99404 2.65249 8
    endloop
  endfacet
  facet normal 0.822984 0.568065 0
    outer loop
      vertex 3.54182 1.85889 8
      vertex 3.54182 1.85889 7
      vertex 2.99404 2.65249 8
    endloop
  endfacet
  facet normal 0.663122 0.748511 0
    outer loop
      vertex 2.27226 3.29194 7
      vertex 2.27226 3.29194 8
      vertex 2.99404 2.65249 7
    endloop
  endfacet
  facet normal 0.663122 0.748511 0
    outer loop
      vertex 2.99404 2.65249 7
      vertex 2.27226 3.29194 8
      vertex 2.99404 2.65249 8
    endloop
  endfacet
  facet normal 0.464724 0.885456 0
    outer loop
      vertex 1.41842 3.74006 7
      vertex 1.41842 3.74006 8
      vertex 2.27226 3.29194 7
    endloop
  endfacet
  facet normal 0.464724 0.885456 0
    outer loop
      vertex 2.27226 3.29194 7
      vertex 1.41842 3.74006 8
      vertex 2.27226 3.29194 8
    endloop
  endfacet
  facet normal 0.239315 0.970942 0
    outer loop
      vertex 0.482147 3.97083 7
      vertex 0.482147 3.97083 8
      vertex 1.41842 3.74006 7
    endloop
  endfacet
  facet normal 0.239315 0.970942 0
    outer loop
      vertex 1.41842 3.74006 7
      vertex 0.482147 3.97083 8
      vertex 1.41842 3.74006 8
    endloop
  endfacet
  facet normal 0 1 0
    outer loop
      vertex -0.482147 3.97083 7
      vertex -0.482147 3.97083 8
      vertex 0.482147 3.97083 7
    endloop
  endfacet
  facet normal 0 1 0
    outer loop
      vertex 0.482147 3.97083 7
      vertex -0.482147 3.97083 8
      vertex 0.482147 3.97083 8
    endloop
  endfacet
  facet normal -0.239315 0.970942 0
    outer loop
      vertex -1.41842 3.74006 7
      vertex -1.41842 3.74006 8
      vertex -0.482147 3.97083 7
    endloop
  endfacet
  facet normal -0.239315 0.970942 0
    outer loop
      vertex -0.482147 3.97083 7
      vertex -1.41842 3.74006 8
      vertex -0.482147 3.97083 8
    endloop
  endfacet
  facet normal -0.464724 0.885456 0
    outer loop
      vertex -2.27226 3.29194 7
      vertex -2.27226 3.29194 8
      vertex -1.41842 3.74006 7
    endloop
  endfacet
  facet normal -0.464724 0.885456 0
    outer loop
      vertex -1.41842 3.74006 7
      vertex -2.27226 3.29194 8
      vertex -1.41842 3.74006 8
    endloop
  endfacet
  facet normal -0.663122 0.748511 0
    outer loop
      vertex -2.99404 2.65249 7
      vertex -2.99404 2.65249 8
      vertex -2.27226 3.29194 7
    endloop
  endfacet
  facet normal -0.663122 0.748511 0
    outer loop
      vertex -2.27226 3.29194 7
      vertex -2.99404 2.65249 8
      vertex -2.27226 3.29194 8
    endloop
  endfacet
  facet normal -0.822984 0.568065 0
    outer loop
      vertex -3.54182 1.85889 7
      vertex -3.54182 1.85889 8
      vertex -2.99404 2.65249 7
    endloop
  endfacet
  facet normal -0.822984 0.568065 0
    outer loop
      vertex -2.99404 2.65249 7
      vertex -3.54182 1.85889 8
      vertex -2.99404 2.65249 8
    endloop
  endfacet
  facet normal -0.935016 0.354605 0
    outer loop
      vertex -3.88377 0.957263 7
      vertex -3.88377 0.957263 8
      vertex -3.54182 1.85889 7
    endloop
  endfacet
  facet normal -0.935016 0.354605 0
    outer loop
      vertex -3.54182 1.85889 7
      vertex -3.88377 0.957263 8
      vertex -3.54182 1.85889 8
    endloop
  endfacet
  facet normal -0.992709 0.120537 0
    outer loop
      vertex -4 0 7
      vertex -4 0 8
      vertex -3.88377 0.957263 7
    endloop
  endfacet
  facet normal -0.992709 0.120537 0
    outer loop
      vertex -3.88377 0.957263 7
      vertex -4 0 8
      vertex -3.88377 0.957263 8
    endloop
  endfacet
endsolid OpenSCAD_Model
