solid OpenSCAD_Model
  facet normal -1 0 0
    outer loop
      vertex 0 55.0245 37.7629
      vertex 0 62.5 50
      vertex 0 62.5 0
    endloop
  endfacet
  facet normal -1 0 0
    outer loop
      vertex 0 62.5 50
      vertex 0 55.3798 38.8565
      vertex 0 55.5 40
    endloop
  endfacet
  facet normal -1 0 0
    outer loop
      vertex 0 62.5 50
      vertex 0 55.0245 37.7629
      vertex 0 55.3798 38.8565
    endloop
  endfacet
  facet normal -1 0 0
    outer loop
      vertex 0 62.5 0
      vertex 0 54.4496 36.7672
      vertex 0 55.0245 37.7629
    endloop
  endfacet
  facet normal -1 0 0
    outer loop
      vertex 0 62.5 0
      vertex 0 53.6802 35.9127
      vertex 0 54.4496 36.7672
    endloop
  endfacet
  facet normal -1 0 0
    outer loop
      vertex 0 62.5 0
      vertex 0 52.75 35.2369
      vertex 0 53.6802 35.9127
    endloop
  endfacet
  facet normal -1 0 0
    outer loop
      vertex 0 62.5 0
      vertex 0 51.6996 34.7692
      vertex 0 52.75 35.2369
    endloop
  endfacet
  facet normal -1 0 0
    outer loop
      vertex 0 62.5 0
      vertex 0 50.5749 34.5301
      vertex 0 51.6996 34.7692
    endloop
  endfacet
  facet normal -1 0 0
    outer loop
      vertex 0 37.5 10
      vertex 0 50.5749 34.5301
      vertex 0 62.5 0
    endloop
  endfacet
  facet normal -1 -0 0
    outer loop
      vertex 0 50.5749 34.5301
      vertex 0 37.5 10
      vertex 0 49.4251 34.5301
    endloop
  endfacet
  facet normal -1 -0 0
    outer loop
      vertex 0 49.4251 34.5301
      vertex 0 37.5 10
      vertex 0 48.3004 34.7692
    endloop
  endfacet
  facet normal -1 -0 0
    outer loop
      vertex 0 48.3004 34.7692
      vertex 0 37.5 10
      vertex 0 47.25 35.2369
    endloop
  endfacet
  facet normal -1 -0 0
    outer loop
      vertex 0 47.25 35.2369
      vertex 0 37.5 10
      vertex 0 46.3198 35.9127
    endloop
  endfacet
  facet normal -1 -0 0
    outer loop
      vertex 0 46.3198 35.9127
      vertex 0 37.5 10
      vertex 0 45.5504 36.7672
    endloop
  endfacet
  facet normal -1 0 0
    outer loop
      vertex 0 37.5 50
      vertex 0 44.6202 38.8565
      vertex 0 37.5 10
    endloop
  endfacet
  facet normal -1 -0 0
    outer loop
      vertex 0 44.9755 37.7629
      vertex 0 37.5 10
      vertex 0 44.6202 38.8565
    endloop
  endfacet
  facet normal -1 -0 0
    outer loop
      vertex 0 45.5504 36.7672
      vertex 0 37.5 10
      vertex 0 44.9755 37.7629
    endloop
  endfacet
  facet normal -1 0 0
    outer loop
      vertex 0 -80 0
      vertex 0 37.5 10
      vertex 0 62.5 0
    endloop
  endfacet
  facet normal -1 -0 0
    outer loop
      vertex 0 37.5 10
      vertex 0 -80 0
      vertex 0 -80 10
    endloop
  endfacet
  facet normal -1 0 0
    outer loop
      vertex 0 55.3798 41.1435
      vertex 0 62.5 50
      vertex 0 55.5 40
    endloop
  endfacet
  facet normal -1 0 0
    outer loop
      vertex 0 55.0245 42.2371
      vertex 0 62.5 50
      vertex 0 55.3798 41.1435
    endloop
  endfacet
  facet normal -1 0 0
    outer loop
      vertex 0 54.4496 43.2328
      vertex 0 62.5 50
      vertex 0 55.0245 42.2371
    endloop
  endfacet
  facet normal -1 0 0
    outer loop
      vertex 0 53.6802 44.0873
      vertex 0 62.5 50
      vertex 0 54.4496 43.2328
    endloop
  endfacet
  facet normal -1 0 0
    outer loop
      vertex 0 52.75 44.7631
      vertex 0 62.5 50
      vertex 0 53.6802 44.0873
    endloop
  endfacet
  facet normal -1 0 0
    outer loop
      vertex 0 51.6996 45.2308
      vertex 0 62.5 50
      vertex 0 52.75 44.7631
    endloop
  endfacet
  facet normal -1 0 0
    outer loop
      vertex 0 50.5749 45.4699
      vertex 0 62.5 50
      vertex 0 51.6996 45.2308
    endloop
  endfacet
  facet normal -1 0 0
    outer loop
      vertex 0 49.4251 45.4699
      vertex 0 62.5 50
      vertex 0 50.5749 45.4699
    endloop
  endfacet
  facet normal -1 0 0
    outer loop
      vertex 0 37.5 50
      vertex 0 49.4251 45.4699
      vertex 0 48.3004 45.2308
    endloop
  endfacet
  facet normal -1 0 0
    outer loop
      vertex 0 44.6202 38.8565
      vertex 0 37.5 50
      vertex 0 44.5 40
    endloop
  endfacet
  facet normal -1 0 0
    outer loop
      vertex 0 49.4251 45.4699
      vertex 0 37.5 50
      vertex 0 62.5 50
    endloop
  endfacet
  facet normal -1 0 0
    outer loop
      vertex 0 47.25 44.7631
      vertex 0 37.5 50
      vertex 0 48.3004 45.2308
    endloop
  endfacet
  facet normal -1 0 0
    outer loop
      vertex 0 46.3198 44.0873
      vertex 0 37.5 50
      vertex 0 47.25 44.7631
    endloop
  endfacet
  facet normal -1 0 0
    outer loop
      vertex 0 45.5504 43.2328
      vertex 0 37.5 50
      vertex 0 46.3198 44.0873
    endloop
  endfacet
  facet normal -1 0 0
    outer loop
      vertex 0 44.9755 42.2371
      vertex 0 37.5 50
      vertex 0 45.5504 43.2328
    endloop
  endfacet
  facet normal -1 0 0
    outer loop
      vertex 0 44.6202 41.1435
      vertex 0 37.5 50
      vertex 0 44.9755 42.2371
    endloop
  endfacet
  facet normal -1 0 0
    outer loop
      vertex 0 44.5 40
      vertex 0 37.5 50
      vertex 0 44.6202 41.1435
    endloop
  endfacet
  facet normal -0 0 1
    outer loop
      vertex 12.5842 -59.0594 10
      vertex 40 -80 10
      vertex 12.5842 -30.9406 10
    endloop
  endfacet
  facet normal 0 0 1
    outer loop
      vertex 40 -80 10
      vertex 12.5842 -59.0594 10
      vertex 12.75 -60 10
    endloop
  endfacet
  facet normal -0 0 1
    outer loop
      vertex 12.1066 -31.7677 10
      vertex 12.5842 -59.0594 10
      vertex 12.5842 -30.9406 10
    endloop
  endfacet
  facet normal 0 0 1
    outer loop
      vertex 12.1066 -31.7677 10
      vertex 12.1066 -58.2323 10
      vertex 12.5842 -59.0594 10
    endloop
  endfacet
  facet normal 0 0 1
    outer loop
      vertex 12.1066 -31.7677 10
      vertex 11.375 -57.6184 10
      vertex 12.1066 -58.2323 10
    endloop
  endfacet
  facet normal -0 0 1
    outer loop
      vertex 11.375 -32.3816 10
      vertex 11.375 -57.6184 10
      vertex 12.1066 -31.7677 10
    endloop
  endfacet
  facet normal -0 0 1
    outer loop
      vertex 10.4775 -32.7082 10
      vertex 11.375 -57.6184 10
      vertex 11.375 -32.3816 10
    endloop
  endfacet
  facet normal 0 0 1
    outer loop
      vertex 10.4775 -32.7082 10
      vertex 10.4775 -57.2918 10
      vertex 11.375 -57.6184 10
    endloop
  endfacet
  facet normal -0 0 1
    outer loop
      vertex 9.52247 -32.7082 10
      vertex 10.4775 -57.2918 10
      vertex 10.4775 -32.7082 10
    endloop
  endfacet
  facet normal 0 0 1
    outer loop
      vertex 9.52247 -32.7082 10
      vertex 9.52247 -57.2918 10
      vertex 10.4775 -57.2918 10
    endloop
  endfacet
  facet normal 0 0 1
    outer loop
      vertex 9.52247 -32.7082 10
      vertex 8.625 -57.6184 10
      vertex 9.52247 -57.2918 10
    endloop
  endfacet
  facet normal 0 0 1
    outer loop
      vertex 8.625 -32.3816 10
      vertex 8.625 -57.6184 10
      vertex 9.52247 -32.7082 10
    endloop
  endfacet
  facet normal 0 0 1
    outer loop
      vertex 7.89338 -31.7677 10
      vertex 8.625 -57.6184 10
      vertex 8.625 -32.3816 10
    endloop
  endfacet
  facet normal 0 0 1
    outer loop
      vertex 7.89338 -31.7677 10
      vertex 7.89338 -58.2323 10
      vertex 8.625 -57.6184 10
    endloop
  endfacet
  facet normal 0 0 1
    outer loop
      vertex 7.41584 -30.9406 10
      vertex 7.89338 -58.2323 10
      vertex 7.89338 -31.7677 10
    endloop
  endfacet
  facet normal 0 0 1
    outer loop
      vertex 7.41584 -30.9406 10
      vertex 7.41584 -59.0594 10
      vertex 7.89338 -58.2323 10
    endloop
  endfacet
  facet normal 0 0 1
    outer loop
      vertex 0 -80 10
      vertex 7.41584 -30.9406 10
      vertex 7.25 -30 10
    endloop
  endfacet
  facet normal 0 0 1
    outer loop
      vertex 7.41584 -30.9406 10
      vertex 0 -80 10
      vertex 7.41584 -59.0594 10
    endloop
  endfacet
  facet normal -0 0 1
    outer loop
      vertex 12.1066 -1.76767 10
      vertex 40 -10 10
      vertex 12.5842 -0.940555 10
    endloop
  endfacet
  facet normal 0 0 1
    outer loop
      vertex 40 -10 10
      vertex 12.5842 -29.0594 10
      vertex 12.75 -30 10
    endloop
  endfacet
  facet normal 0 0 1
    outer loop
      vertex 12.1066 -28.2323 10
      vertex 40 -10 10
      vertex 12.1066 -1.76767 10
    endloop
  endfacet
  facet normal 0 0 1
    outer loop
      vertex 40 -10 10
      vertex 12.1066 -28.2323 10
      vertex 12.5842 -29.0594 10
    endloop
  endfacet
  facet normal 0 0 1
    outer loop
      vertex 12.1066 -1.76767 10
      vertex 11.375 -27.6184 10
      vertex 12.1066 -28.2323 10
    endloop
  endfacet
  facet normal -0 0 1
    outer loop
      vertex 11.375 -2.38157 10
      vertex 11.375 -27.6184 10
      vertex 12.1066 -1.76767 10
    endloop
  endfacet
  facet normal -0 0 1
    outer loop
      vertex 10.4775 -2.70822 10
      vertex 11.375 -27.6184 10
      vertex 11.375 -2.38157 10
    endloop
  endfacet
  facet normal 0 0 1
    outer loop
      vertex 10.4775 -2.70822 10
      vertex 10.4775 -27.2918 10
      vertex 11.375 -27.6184 10
    endloop
  endfacet
  facet normal -0 0 1
    outer loop
      vertex 9.52247 -2.70822 10
      vertex 10.4775 -27.2918 10
      vertex 10.4775 -2.70822 10
    endloop
  endfacet
  facet normal 0 0 1
    outer loop
      vertex 9.52247 -2.70822 10
      vertex 9.52247 -27.2918 10
      vertex 10.4775 -27.2918 10
    endloop
  endfacet
  facet normal 0 0 1
    outer loop
      vertex 9.52247 -2.70822 10
      vertex 8.625 -27.6184 10
      vertex 9.52247 -27.2918 10
    endloop
  endfacet
  facet normal 0 0 1
    outer loop
      vertex 8.625 -2.38157 10
      vertex 8.625 -27.6184 10
      vertex 9.52247 -2.70822 10
    endloop
  endfacet
  facet normal 0 0 1
    outer loop
      vertex 7.89338 -1.76767 10
      vertex 8.625 -27.6184 10
      vertex 8.625 -2.38157 10
    endloop
  endfacet
  facet normal 0 0 1
    outer loop
      vertex 7.89338 -1.76767 10
      vertex 7.89338 -28.2323 10
      vertex 8.625 -27.6184 10
    endloop
  endfacet
  facet normal 0 0 1
    outer loop
      vertex 7.41584 -0.940555 10
      vertex 7.89338 -28.2323 10
      vertex 7.89338 -1.76767 10
    endloop
  endfacet
  facet normal 0 0 1
    outer loop
      vertex 7.41584 -0.940555 10
      vertex 7.41584 -29.0594 10
      vertex 7.89338 -28.2323 10
    endloop
  endfacet
  facet normal 0 0 1
    outer loop
      vertex 7.25 0 10
      vertex 7.41584 -29.0594 10
      vertex 7.41584 -0.940555 10
    endloop
  endfacet
  facet normal 0 0 1
    outer loop
      vertex 7.41584 -29.0594 10
      vertex 7.25 0 10
      vertex 7.25 -30 10
    endloop
  endfacet
  facet normal 0 0 1
    outer loop
      vertex 38.0581 7.27137 10
      vertex 12.5842 0.940555 10
      vertex 12.75 0 10
    endloop
  endfacet
  facet normal 0 0 1
    outer loop
      vertex 38.503 9.07625 10
      vertex 12.1066 1.76767 10
      vertex 12.5842 0.940555 10
    endloop
  endfacet
  facet normal 0 0 1
    outer loop
      vertex 38.503 9.07625 10
      vertex 11.375 2.38157 10
      vertex 12.1066 1.76767 10
    endloop
  endfacet
  facet normal 0 0 1
    outer loop
      vertex 25 37.5 10
      vertex 10.4775 2.70822 10
      vertex 11.375 2.38157 10
    endloop
  endfacet
  facet normal -0 0 1
    outer loop
      vertex 0 37.5 10
      vertex 10.4775 2.70822 10
      vertex 25 37.5 10
    endloop
  endfacet
  facet normal 0 0 1
    outer loop
      vertex 10.4775 2.70822 10
      vertex 0 37.5 10
      vertex 9.52247 2.70822 10
    endloop
  endfacet
  facet normal 0 0 1
    outer loop
      vertex 9.52247 2.70822 10
      vertex 0 37.5 10
      vertex 8.625 2.38157 10
    endloop
  endfacet
  facet normal 0 0 1
    outer loop
      vertex 8.625 2.38157 10
      vertex 0 37.5 10
      vertex 7.89338 1.76767 10
    endloop
  endfacet
  facet normal 0 0 1
    outer loop
      vertex 0 37.5 10
      vertex 7.25 -30 10
      vertex 7.25 0 10
    endloop
  endfacet
  facet normal 0 0 1
    outer loop
      vertex 7.25 -30 10
      vertex 0 37.5 10
      vertex 0 -80 10
    endloop
  endfacet
  facet normal 0 0 1
    outer loop
      vertex 7.41584 0.940555 10
      vertex 0 37.5 10
      vertex 7.25 0 10
    endloop
  endfacet
  facet normal 0 0 1
    outer loop
      vertex 7.89338 1.76767 10
      vertex 0 37.5 10
      vertex 7.41584 0.940555 10
    endloop
  endfacet
  facet normal 0 0 1
    outer loop
      vertex 75 62.5 10
      vertex 62 20.75 10
      vertex 75 -10 10
    endloop
  endfacet
  facet normal 0 0 1
    outer loop
      vertex 75 62.5 10
      vertex 61.7709 21.6794 10
      vertex 62 20.75 10
    endloop
  endfacet
  facet normal 0 0 1
    outer loop
      vertex 75 62.5 10
      vertex 61.1361 22.396 10
      vertex 61.7709 21.6794 10
    endloop
  endfacet
  facet normal 0 0 1
    outer loop
      vertex 75 62.5 10
      vertex 60.2411 22.7354 10
      vertex 61.1361 22.396 10
    endloop
  endfacet
  facet normal 0 0 1
    outer loop
      vertex 75 62.5 10
      vertex 59.2908 22.62 10
      vertex 60.2411 22.7354 10
    endloop
  endfacet
  facet normal -0 0 1
    outer loop
      vertex 25 37.5 10
      vertex 59.2908 22.62 10
      vertex 75 62.5 10
    endloop
  endfacet
  facet normal 0 0 1
    outer loop
      vertex 59.2908 22.62 10
      vertex 25 37.5 10
      vertex 58.503 22.0762 10
    endloop
  endfacet
  facet normal 0 0 1
    outer loop
      vertex 41.1361 9.39597 10
      vertex 58.0581 20.2714 10
      vertex 58.0581 21.2286 10
    endloop
  endfacet
  facet normal 0 0 1
    outer loop
      vertex 58.503 22.0762 10
      vertex 25 37.5 10
      vertex 58.0581 21.2286 10
    endloop
  endfacet
  facet normal 0 0 1
    outer loop
      vertex 58.0581 20.2714 10
      vertex 41.7709 8.67945 10
      vertex 42 7.75 10
    endloop
  endfacet
  facet normal 0 0 1
    outer loop
      vertex 58.0581 20.2714 10
      vertex 41.1361 9.39597 10
      vertex 41.7709 8.67945 10
    endloop
  endfacet
  facet normal 0 -0 1
    outer loop
      vertex 40.2411 9.73542 10
      vertex 58.0581 21.2286 10
      vertex 25 37.5 10
    endloop
  endfacet
  facet normal 0 0 1
    outer loop
      vertex 58.0581 21.2286 10
      vertex 40.2411 9.73542 10
      vertex 41.1361 9.39597 10
    endloop
  endfacet
  facet normal 0 0 1
    outer loop
      vertex 40.2411 9.73542 10
      vertex 25 37.5 10
      vertex 39.2908 9.62003 10
    endloop
  endfacet
  facet normal 0 0 1
    outer loop
      vertex 11.375 2.38157 10
      vertex 38.503 9.07625 10
      vertex 25 37.5 10
    endloop
  endfacet
  facet normal 0 0 1
    outer loop
      vertex 39.2908 9.62003 10
      vertex 25 37.5 10
      vertex 38.503 9.07625 10
    endloop
  endfacet
  facet normal 0 0 1
    outer loop
      vertex 25 37.5 10
      vertex 75 62.5 10
      vertex 25 62.5 10
    endloop
  endfacet
  facet normal -0 0 1
    outer loop
      vertex 61.7709 19.8206 10
      vertex 75 -10 10
      vertex 62 20.75 10
    endloop
  endfacet
  facet normal -0 0 1
    outer loop
      vertex 61.1361 19.104 10
      vertex 75 -10 10
      vertex 61.7709 19.8206 10
    endloop
  endfacet
  facet normal -0 0 1
    outer loop
      vertex 60.2411 18.7646 10
      vertex 75 -10 10
      vertex 61.1361 19.104 10
    endloop
  endfacet
  facet normal 0 0 1
    outer loop
      vertex 41.7709 6.82055 10
      vertex 60.2411 18.7646 10
      vertex 59.2908 18.88 10
    endloop
  endfacet
  facet normal 0 0 1
    outer loop
      vertex 42 7.75 10
      vertex 59.2908 18.88 10
      vertex 58.503 19.4238 10
    endloop
  endfacet
  facet normal 0 0 1
    outer loop
      vertex 42 7.75 10
      vertex 58.503 19.4238 10
      vertex 58.0581 20.2714 10
    endloop
  endfacet
  facet normal 0 0 1
    outer loop
      vertex 59.2908 18.88 10
      vertex 42 7.75 10
      vertex 41.7709 6.82055 10
    endloop
  endfacet
  facet normal 0 0 1
    outer loop
      vertex 60.2411 18.7646 10
      vertex 41.7709 6.82055 10
      vertex 75 -10 10
    endloop
  endfacet
  facet normal 0 0 1
    outer loop
      vertex 40 -10 10
      vertex 41.7709 6.82055 10
      vertex 41.1361 6.10403 10
    endloop
  endfacet
  facet normal 0 0 1
    outer loop
      vertex 40 -10 10
      vertex 41.1361 6.10403 10
      vertex 40.2411 5.76458 10
    endloop
  endfacet
  facet normal 0 0 1
    outer loop
      vertex 41.7709 6.82055 10
      vertex 40 -10 10
      vertex 75 -10 10
    endloop
  endfacet
  facet normal 0 0 1
    outer loop
      vertex 39.2908 5.87997 10
      vertex 40 -10 10
      vertex 40.2411 5.76458 10
    endloop
  endfacet
  facet normal 0 0 1
    outer loop
      vertex 38.503 6.42375 10
      vertex 40 -10 10
      vertex 39.2908 5.87997 10
    endloop
  endfacet
  facet normal 0 0 1
    outer loop
      vertex 40 -10 10
      vertex 38.503 6.42375 10
      vertex 12.75 0 10
    endloop
  endfacet
  facet normal 0 0 1
    outer loop
      vertex 12.75 0 10
      vertex 38.503 6.42375 10
      vertex 38.0581 7.27137 10
    endloop
  endfacet
  facet normal 0 0 1
    outer loop
      vertex 12.5842 0.940555 10
      vertex 38.0581 8.22863 10
      vertex 38.503 9.07625 10
    endloop
  endfacet
  facet normal 0 0 1
    outer loop
      vertex 12.5842 0.940555 10
      vertex 38.0581 7.27137 10
      vertex 38.0581 8.22863 10
    endloop
  endfacet
  facet normal -0 0 1
    outer loop
      vertex 12.5842 -0.940555 10
      vertex 40 -10 10
      vertex 12.75 0 10
    endloop
  endfacet
  facet normal 0 0 1
    outer loop
      vertex 12.5842 -30.9406 10
      vertex 40 -10 10
      vertex 12.75 -30 10
    endloop
  endfacet
  facet normal 0 0 1
    outer loop
      vertex 40 -10 10
      vertex 12.5842 -30.9406 10
      vertex 40 -80 10
    endloop
  endfacet
  facet normal -0 0 1
    outer loop
      vertex 12.5842 -60.9406 10
      vertex 40 -80 10
      vertex 12.75 -60 10
    endloop
  endfacet
  facet normal -0 0 1
    outer loop
      vertex 12.1066 -61.7677 10
      vertex 40 -80 10
      vertex 12.5842 -60.9406 10
    endloop
  endfacet
  facet normal -0 0 1
    outer loop
      vertex 11.375 -62.3816 10
      vertex 40 -80 10
      vertex 12.1066 -61.7677 10
    endloop
  endfacet
  facet normal 0 0 1
    outer loop
      vertex 0 -80 10
      vertex 11.375 -62.3816 10
      vertex 10.4775 -62.7082 10
    endloop
  endfacet
  facet normal 0 0 1
    outer loop
      vertex 0 -80 10
      vertex 10.4775 -62.7082 10
      vertex 9.52247 -62.7082 10
    endloop
  endfacet
  facet normal 0 0 1
    outer loop
      vertex 0 -80 10
      vertex 9.52247 -62.7082 10
      vertex 8.625 -62.3816 10
    endloop
  endfacet
  facet normal 0 0 1
    outer loop
      vertex 11.375 -62.3816 10
      vertex 0 -80 10
      vertex 40 -80 10
    endloop
  endfacet
  facet normal 0 0 1
    outer loop
      vertex 7.89338 -61.7677 10
      vertex 0 -80 10
      vertex 8.625 -62.3816 10
    endloop
  endfacet
  facet normal 0 0 1
    outer loop
      vertex 7.41584 -60.9406 10
      vertex 0 -80 10
      vertex 7.89338 -61.7677 10
    endloop
  endfacet
  facet normal 0 0 1
    outer loop
      vertex 7.25 -60 10
      vertex 0 -80 10
      vertex 7.41584 -60.9406 10
    endloop
  endfacet
  facet normal 0 0 1
    outer loop
      vertex 7.41584 -59.0594 10
      vertex 0 -80 10
      vertex 7.25 -60 10
    endloop
  endfacet
  facet normal 1 -0 0
    outer loop
      vertex 75 -10 10
      vertex 75 62.5 0
      vertex 75 62.5 10
    endloop
  endfacet
  facet normal 1 0 0
    outer loop
      vertex 75 62.5 0
      vertex 75 -10 10
      vertex 75 -10 0
    endloop
  endfacet
  facet normal 0 1 0
    outer loop
      vertex 75 62.5 10
      vertex 75 62.5 0
      vertex 25 62.5 10
    endloop
  endfacet
  facet normal 0 1 -0
    outer loop
      vertex 25 62.5 10
      vertex 0 62.5 50
      vertex 25 62.5 50
    endloop
  endfacet
  facet normal 0 1 0
    outer loop
      vertex 25 62.5 10
      vertex 0 62.5 0
      vertex 0 62.5 50
    endloop
  endfacet
  facet normal 0 1 0
    outer loop
      vertex 0 62.5 0
      vertex 25 62.5 10
      vertex 75 62.5 0
    endloop
  endfacet
  facet normal 0 0 -1
    outer loop
      vertex 12.1066 -28.2323 0
      vertex 40 -10 0
      vertex 12.5842 -29.0594 0
    endloop
  endfacet
  facet normal 0 0 -1
    outer loop
      vertex 40 -10 0
      vertex 12.5842 -0.940555 0
      vertex 12.75 0 0
    endloop
  endfacet
  facet normal 0 0 -1
    outer loop
      vertex 12.1066 -1.76767 0
      vertex 40 -10 0
      vertex 12.1066 -28.2323 0
    endloop
  endfacet
  facet normal 0 0 -1
    outer loop
      vertex 40 -10 0
      vertex 12.1066 -1.76767 0
      vertex 12.5842 -0.940555 0
    endloop
  endfacet
  facet normal 0 0 -1
    outer loop
      vertex 11.375 -27.6184 0
      vertex 12.1066 -1.76767 0
      vertex 12.1066 -28.2323 0
    endloop
  endfacet
  facet normal 0 0 -1
    outer loop
      vertex 11.375 -27.6184 0
      vertex 11.375 -2.38157 0
      vertex 12.1066 -1.76767 0
    endloop
  endfacet
  facet normal 0 0 -1
    outer loop
      vertex 10.4775 -27.2918 0
      vertex 11.375 -2.38157 0
      vertex 11.375 -27.6184 0
    endloop
  endfacet
  facet normal 0 0 -1
    outer loop
      vertex 10.4775 -27.2918 0
      vertex 10.4775 -2.70822 0
      vertex 11.375 -2.38157 0
    endloop
  endfacet
  facet normal 0 0 -1
    outer loop
      vertex 9.52247 -27.2918 0
      vertex 10.4775 -2.70822 0
      vertex 10.4775 -27.2918 0
    endloop
  endfacet
  facet normal 0 0 -1
    outer loop
      vertex 9.52247 -27.2918 0
      vertex 9.52247 -2.70822 0
      vertex 10.4775 -2.70822 0
    endloop
  endfacet
  facet normal 0 0 -1
    outer loop
      vertex 8.625 -27.6184 0
      vertex 9.52247 -2.70822 0
      vertex 9.52247 -27.2918 0
    endloop
  endfacet
  facet normal 0 0 -1
    outer loop
      vertex 8.625 -27.6184 0
      vertex 8.625 -2.38157 0
      vertex 9.52247 -2.70822 0
    endloop
  endfacet
  facet normal 0 0 -1
    outer loop
      vertex 7.89338 -28.2323 0
      vertex 8.625 -2.38157 0
      vertex 8.625 -27.6184 0
    endloop
  endfacet
  facet normal 0 0 -1
    outer loop
      vertex 7.89338 -28.2323 0
      vertex 7.89338 -1.76767 0
      vertex 8.625 -2.38157 0
    endloop
  endfacet
  facet normal 0 0 -1
    outer loop
      vertex 7.41584 -29.0594 0
      vertex 7.89338 -1.76767 0
      vertex 7.89338 -28.2323 0
    endloop
  endfacet
  facet normal 0 0 -1
    outer loop
      vertex 7.41584 -29.0594 0
      vertex 7.41584 -0.940555 0
      vertex 7.89338 -1.76767 0
    endloop
  endfacet
  facet normal 0 0 -1
    outer loop
      vertex 7.25 -30 0
      vertex 7.41584 -0.940555 0
      vertex 7.41584 -29.0594 0
    endloop
  endfacet
  facet normal -0 0 -1
    outer loop
      vertex 7.41584 -0.940555 0
      vertex 7.25 -30 0
      vertex 7.25 0 0
    endloop
  endfacet
  facet normal 0 0 -1
    outer loop
      vertex 12.5842 -30.9406 0
      vertex 40 -10 0
      vertex 12.5842 -59.0594 0
    endloop
  endfacet
  facet normal 0 0 -1
    outer loop
      vertex 40 -10 0
      vertex 12.5842 -30.9406 0
      vertex 12.75 -30 0
    endloop
  endfacet
  facet normal 0 0 -1
    outer loop
      vertex 12.1066 -58.2323 0
      vertex 12.5842 -30.9406 0
      vertex 12.5842 -59.0594 0
    endloop
  endfacet
  facet normal 0 0 -1
    outer loop
      vertex 12.1066 -58.2323 0
      vertex 12.1066 -31.7677 0
      vertex 12.5842 -30.9406 0
    endloop
  endfacet
  facet normal 0 0 -1
    outer loop
      vertex 11.375 -57.6184 0
      vertex 12.1066 -31.7677 0
      vertex 12.1066 -58.2323 0
    endloop
  endfacet
  facet normal 0 0 -1
    outer loop
      vertex 11.375 -57.6184 0
      vertex 11.375 -32.3816 0
      vertex 12.1066 -31.7677 0
    endloop
  endfacet
  facet normal 0 0 -1
    outer loop
      vertex 10.4775 -57.2918 0
      vertex 11.375 -32.3816 0
      vertex 11.375 -57.6184 0
    endloop
  endfacet
  facet normal 0 0 -1
    outer loop
      vertex 10.4775 -57.2918 0
      vertex 10.4775 -32.7082 0
      vertex 11.375 -32.3816 0
    endloop
  endfacet
  facet normal 0 0 -1
    outer loop
      vertex 9.52247 -57.2918 0
      vertex 10.4775 -32.7082 0
      vertex 10.4775 -57.2918 0
    endloop
  endfacet
  facet normal 0 0 -1
    outer loop
      vertex 9.52247 -57.2918 0
      vertex 9.52247 -32.7082 0
      vertex 10.4775 -32.7082 0
    endloop
  endfacet
  facet normal 0 0 -1
    outer loop
      vertex 8.625 -57.6184 0
      vertex 9.52247 -32.7082 0
      vertex 9.52247 -57.2918 0
    endloop
  endfacet
  facet normal 0 0 -1
    outer loop
      vertex 8.625 -57.6184 0
      vertex 8.625 -32.3816 0
      vertex 9.52247 -32.7082 0
    endloop
  endfacet
  facet normal 0 0 -1
    outer loop
      vertex 7.89338 -58.2323 0
      vertex 8.625 -32.3816 0
      vertex 8.625 -57.6184 0
    endloop
  endfacet
  facet normal 0 0 -1
    outer loop
      vertex 7.89338 -58.2323 0
      vertex 7.89338 -31.7677 0
      vertex 8.625 -32.3816 0
    endloop
  endfacet
  facet normal 0 0 -1
    outer loop
      vertex 7.41584 -59.0594 0
      vertex 7.89338 -31.7677 0
      vertex 7.89338 -58.2323 0
    endloop
  endfacet
  facet normal 0 0 -1
    outer loop
      vertex 7.41584 -59.0594 0
      vertex 7.41584 -30.9406 0
      vertex 7.89338 -31.7677 0
    endloop
  endfacet
  facet normal 0 0 -1
    outer loop
      vertex 0 -80 0
      vertex 7.41584 -59.0594 0
      vertex 7.25 -60 0
    endloop
  endfacet
  facet normal -0 0 -1
    outer loop
      vertex 7.41584 -59.0594 0
      vertex 0 -80 0
      vertex 7.41584 -30.9406 0
    endloop
  endfacet
  facet normal 0 0 -1
    outer loop
      vertex 12.5842 -59.0594 0
      vertex 40 -10 0
      vertex 40 -80 0
    endloop
  endfacet
  facet normal 0 0 -1
    outer loop
      vertex 12.5842 -29.0594 0
      vertex 40 -10 0
      vertex 12.75 -30 0
    endloop
  endfacet
  facet normal 0 -0 -1
    outer loop
      vertex 38.503 6.42375 0
      vertex 40 -10 0
      vertex 12.75 0 0
    endloop
  endfacet
  facet normal 0 0 -1
    outer loop
      vertex 40 -10 0
      vertex 38.503 6.42375 0
      vertex 39.2908 5.87997 0
    endloop
  endfacet
  facet normal 0 0 -1
    outer loop
      vertex 12.5842 -59.0594 0
      vertex 40 -80 0
      vertex 12.75 -60 0
    endloop
  endfacet
  facet normal 0 0 -1
    outer loop
      vertex 40 -80 0
      vertex 12.5842 -60.9406 0
      vertex 12.75 -60 0
    endloop
  endfacet
  facet normal 0 0 -1
    outer loop
      vertex 40 -80 0
      vertex 12.1066 -61.7677 0
      vertex 12.5842 -60.9406 0
    endloop
  endfacet
  facet normal 0 0 -1
    outer loop
      vertex 40 -80 0
      vertex 11.375 -62.3816 0
      vertex 12.1066 -61.7677 0
    endloop
  endfacet
  facet normal 0 0 -1
    outer loop
      vertex 0 -80 0
      vertex 11.375 -62.3816 0
      vertex 40 -80 0
    endloop
  endfacet
  facet normal 0 0 -1
    outer loop
      vertex 11.375 -62.3816 0
      vertex 0 -80 0
      vertex 10.4775 -62.7082 0
    endloop
  endfacet
  facet normal -0 0 -1
    outer loop
      vertex 10.4775 -62.7082 0
      vertex 0 -80 0
      vertex 9.52247 -62.7082 0
    endloop
  endfacet
  facet normal -0 0 -1
    outer loop
      vertex 7.41584 -30.9406 0
      vertex 0 -80 0
      vertex 7.25 -30 0
    endloop
  endfacet
  facet normal -0 0 -1
    outer loop
      vertex 7.25 -30 0
      vertex 0 -80 0
      vertex 7.25 0 0
    endloop
  endfacet
  facet normal -0 0 -1
    outer loop
      vertex 7.41584 -60.9406 0
      vertex 0 -80 0
      vertex 7.25 -60 0
    endloop
  endfacet
  facet normal -0 0 -1
    outer loop
      vertex 7.89338 -61.7677 0
      vertex 0 -80 0
      vertex 7.41584 -60.9406 0
    endloop
  endfacet
  facet normal -0 0 -1
    outer loop
      vertex 8.625 -62.3816 0
      vertex 0 -80 0
      vertex 7.89338 -61.7677 0
    endloop
  endfacet
  facet normal -0 0 -1
    outer loop
      vertex 9.52247 -62.7082 0
      vertex 0 -80 0
      vertex 8.625 -62.3816 0
    endloop
  endfacet
  facet normal 0 0 -1
    outer loop
      vertex 75 -10 0
      vertex 62 20.75 0
      vertex 75 62.5 0
    endloop
  endfacet
  facet normal 0 0 -1
    outer loop
      vertex 75 -10 0
      vertex 61.7709 19.8206 0
      vertex 62 20.75 0
    endloop
  endfacet
  facet normal 0 0 -1
    outer loop
      vertex 75 -10 0
      vertex 61.1361 19.104 0
      vertex 61.7709 19.8206 0
    endloop
  endfacet
  facet normal 0 0 -1
    outer loop
      vertex 75 -10 0
      vertex 60.2411 18.7646 0
      vertex 61.1361 19.104 0
    endloop
  endfacet
  facet normal 0 0 -1
    outer loop
      vertex 41.7709 6.82055 0
      vertex 60.2411 18.7646 0
      vertex 75 -10 0
    endloop
  endfacet
  facet normal -0 0 -1
    outer loop
      vertex 60.2411 18.7646 0
      vertex 41.7709 6.82055 0
      vertex 59.2908 18.88 0
    endloop
  endfacet
  facet normal -0 0 -1
    outer loop
      vertex 58.503 19.4238 0
      vertex 41.7709 8.67945 0
      vertex 58.0581 20.2714 0
    endloop
  endfacet
  facet normal 0 0 -1
    outer loop
      vertex 41.7709 8.67945 0
      vertex 58.503 19.4238 0
      vertex 42 7.75 0
    endloop
  endfacet
  facet normal 0 -0 -1
    outer loop
      vertex 42 7.75 0
      vertex 59.2908 18.88 0
      vertex 41.7709 6.82055 0
    endloop
  endfacet
  facet normal -0 0 -1
    outer loop
      vertex 59.2908 18.88 0
      vertex 42 7.75 0
      vertex 58.503 19.4238 0
    endloop
  endfacet
  facet normal 0 0 -1
    outer loop
      vertex 40 -10 0
      vertex 41.7709 6.82055 0
      vertex 75 -10 0
    endloop
  endfacet
  facet normal 0 0 -1
    outer loop
      vertex 41.7709 6.82055 0
      vertex 40 -10 0
      vertex 41.1361 6.10403 0
    endloop
  endfacet
  facet normal 0 0 -1
    outer loop
      vertex 41.1361 6.10403 0
      vertex 40 -10 0
      vertex 40.2411 5.76458 0
    endloop
  endfacet
  facet normal -0 0 -1
    outer loop
      vertex 40.2411 5.76458 0
      vertex 40 -10 0
      vertex 39.2908 5.87997 0
    endloop
  endfacet
  facet normal 0 0 -1
    outer loop
      vertex 61.7709 21.6794 0
      vertex 75 62.5 0
      vertex 62 20.75 0
    endloop
  endfacet
  facet normal 0 0 -1
    outer loop
      vertex 61.1361 22.396 0
      vertex 75 62.5 0
      vertex 61.7709 21.6794 0
    endloop
  endfacet
  facet normal 0 0 -1
    outer loop
      vertex 60.2411 22.7354 0
      vertex 75 62.5 0
      vertex 61.1361 22.396 0
    endloop
  endfacet
  facet normal 0 0 -1
    outer loop
      vertex 59.2908 22.62 0
      vertex 75 62.5 0
      vertex 60.2411 22.7354 0
    endloop
  endfacet
  facet normal 0 0 -1
    outer loop
      vertex 0 62.5 0
      vertex 59.2908 22.62 0
      vertex 58.503 22.0762 0
    endloop
  endfacet
  facet normal 0 0 -1
    outer loop
      vertex 40.2411 9.73542 0
      vertex 58.503 22.0762 0
      vertex 58.0581 21.2286 0
    endloop
  endfacet
  facet normal 0 0 -1
    outer loop
      vertex 41.1361 9.39597 0
      vertex 58.0581 20.2714 0
      vertex 41.7709 8.67945 0
    endloop
  endfacet
  facet normal -0 0 -1
    outer loop
      vertex 58.0581 20.2714 0
      vertex 41.1361 9.39597 0
      vertex 58.0581 21.2286 0
    endloop
  endfacet
  facet normal 0 0 -1
    outer loop
      vertex 40.2411 9.73542 0
      vertex 58.0581 21.2286 0
      vertex 41.1361 9.39597 0
    endloop
  endfacet
  facet normal 0 0 -1
    outer loop
      vertex 58.503 22.0762 0
      vertex 40.2411 9.73542 0
      vertex 39.2908 9.62003 0
    endloop
  endfacet
  facet normal -0 0 -1
    outer loop
      vertex 58.503 22.0762 0
      vertex 39.2908 9.62003 0
      vertex 0 62.5 0
    endloop
  endfacet
  facet normal 0 0 -1
    outer loop
      vertex 0 62.5 0
      vertex 39.2908 9.62003 0
      vertex 38.503 9.07625 0
    endloop
  endfacet
  facet normal -0 0 -1
    outer loop
      vertex 38.503 6.42375 0
      vertex 12.75 0 0
      vertex 38.0581 7.27137 0
    endloop
  endfacet
  facet normal 0 0 -1
    outer loop
      vertex 12.5842 0.940555 0
      vertex 38.0581 7.27137 0
      vertex 12.75 0 0
    endloop
  endfacet
  facet normal -0 0 -1
    outer loop
      vertex 38.0581 7.27137 0
      vertex 12.5842 0.940555 0
      vertex 38.0581 8.22863 0
    endloop
  endfacet
  facet normal 0 0 -1
    outer loop
      vertex 12.1066 1.76767 0
      vertex 38.0581 8.22863 0
      vertex 12.5842 0.940555 0
    endloop
  endfacet
  facet normal 0 0 -1
    outer loop
      vertex 11.375 2.38157 0
      vertex 38.0581 8.22863 0
      vertex 12.1066 1.76767 0
    endloop
  endfacet
  facet normal -0 0 -1
    outer loop
      vertex 38.0581 8.22863 0
      vertex 11.375 2.38157 0
      vertex 38.503 9.07625 0
    endloop
  endfacet
  facet normal 0 0 -1
    outer loop
      vertex 10.4775 2.70822 0
      vertex 38.503 9.07625 0
      vertex 11.375 2.38157 0
    endloop
  endfacet
  facet normal -0 0 -1
    outer loop
      vertex 38.503 9.07625 0
      vertex 10.4775 2.70822 0
      vertex 0 62.5 0
    endloop
  endfacet
  facet normal 0 0 -1
    outer loop
      vertex 0 62.5 0
      vertex 10.4775 2.70822 0
      vertex 9.52247 2.70822 0
    endloop
  endfacet
  facet normal 0 0 -1
    outer loop
      vertex 0 62.5 0
      vertex 9.52247 2.70822 0
      vertex 8.625 2.38157 0
    endloop
  endfacet
  facet normal 0 0 -1
    outer loop
      vertex 0 62.5 0
      vertex 8.625 2.38157 0
      vertex 7.89338 1.76767 0
    endloop
  endfacet
  facet normal 0 0 -1
    outer loop
      vertex 59.2908 22.62 0
      vertex 0 62.5 0
      vertex 75 62.5 0
    endloop
  endfacet
  facet normal 0 0 -1
    outer loop
      vertex 7.41584 0.940555 0
      vertex 0 62.5 0
      vertex 7.89338 1.76767 0
    endloop
  endfacet
  facet normal 0 0 -1
    outer loop
      vertex 7.25 0 0
      vertex 0 62.5 0
      vertex 7.41584 0.940555 0
    endloop
  endfacet
  facet normal 0 0 -1
    outer loop
      vertex 0 62.5 0
      vertex 7.25 0 0
      vertex 0 -80 0
    endloop
  endfacet
  facet normal 0 -1 0
    outer loop
      vertex 0 -80 0
      vertex 40 -80 10
      vertex 0 -80 10
    endloop
  endfacet
  facet normal 0 -1 -0
    outer loop
      vertex 40 -80 10
      vertex 0 -80 0
      vertex 40 -80 0
    endloop
  endfacet
  facet normal -0 0 1
    outer loop
      vertex 0 62.5 50
      vertex 25 37.5 50
      vertex 25 62.5 50
    endloop
  endfacet
  facet normal 0 0 1
    outer loop
      vertex 25 37.5 50
      vertex 0 62.5 50
      vertex 0 37.5 50
    endloop
  endfacet
  facet normal 1 -0 0
    outer loop
      vertex 25 37.5 50
      vertex 25 62.5 10
      vertex 25 62.5 50
    endloop
  endfacet
  facet normal 1 0 0
    outer loop
      vertex 25 62.5 10
      vertex 25 37.5 50
      vertex 25 37.5 10
    endloop
  endfacet
  facet normal 0 -1 0
    outer loop
      vertex 0 37.5 10
      vertex 25 37.5 50
      vertex 0 37.5 50
    endloop
  endfacet
  facet normal 0 -1 -0
    outer loop
      vertex 25 37.5 50
      vertex 0 37.5 10
      vertex 25 37.5 10
    endloop
  endfacet
  facet normal -0.984808 -0.173649 0
    outer loop
      vertex 12.75 0 0
      vertex 12.5842 0.940555 10
      vertex 12.5842 0.940555 0
    endloop
  endfacet
  facet normal -0.984808 -0.173649 0
    outer loop
      vertex 12.5842 0.940555 10
      vertex 12.75 0 0
      vertex 12.75 0 10
    endloop
  endfacet
  facet normal 0.984808 0.173648 0
    outer loop
      vertex 7.41584 -0.940555 10
      vertex 7.25 0 0
      vertex 7.25 0 10
    endloop
  endfacet
  facet normal 0.984808 0.173648 0
    outer loop
      vertex 7.25 0 0
      vertex 7.41584 -0.940555 10
      vertex 7.41584 -0.940555 0
    endloop
  endfacet
  facet normal 0 -1 0
    outer loop
      vertex 9.52247 2.70822 0
      vertex 10.4775 2.70822 10
      vertex 9.52247 2.70822 10
    endloop
  endfacet
  facet normal 0 -1 -0
    outer loop
      vertex 10.4775 2.70822 10
      vertex 9.52247 2.70822 0
      vertex 10.4775 2.70822 0
    endloop
  endfacet
  facet normal 0 1 -0
    outer loop
      vertex 10.4775 -2.70822 0
      vertex 9.52247 -2.70822 10
      vertex 10.4775 -2.70822 10
    endloop
  endfacet
  facet normal 0 1 0
    outer loop
      vertex 9.52247 -2.70822 10
      vertex 10.4775 -2.70822 0
      vertex 9.52247 -2.70822 0
    endloop
  endfacet
  facet normal -0.642787 -0.766045 0
    outer loop
      vertex 11.375 2.38157 0
      vertex 12.1066 1.76767 10
      vertex 11.375 2.38157 10
    endloop
  endfacet
  facet normal -0.642787 -0.766045 -0
    outer loop
      vertex 12.1066 1.76767 10
      vertex 11.375 2.38157 0
      vertex 12.1066 1.76767 0
    endloop
  endfacet
  facet normal -0.866026 -0.5 0
    outer loop
      vertex 12.5842 0.940555 0
      vertex 12.1066 1.76767 10
      vertex 12.1066 1.76767 0
    endloop
  endfacet
  facet normal -0.866026 -0.5 0
    outer loop
      vertex 12.1066 1.76767 10
      vertex 12.5842 0.940555 0
      vertex 12.5842 0.940555 10
    endloop
  endfacet
  facet normal -0.34202 -0.939693 0
    outer loop
      vertex 10.4775 2.70822 0
      vertex 11.375 2.38157 10
      vertex 10.4775 2.70822 10
    endloop
  endfacet
  facet normal -0.34202 -0.939693 -0
    outer loop
      vertex 11.375 2.38157 10
      vertex 10.4775 2.70822 0
      vertex 11.375 2.38157 0
    endloop
  endfacet
  facet normal 0.642787 -0.766045 0
    outer loop
      vertex 7.89338 1.76767 0
      vertex 8.625 2.38157 10
      vertex 7.89338 1.76767 10
    endloop
  endfacet
  facet normal 0.642787 -0.766045 0
    outer loop
      vertex 8.625 2.38157 10
      vertex 7.89338 1.76767 0
      vertex 8.625 2.38157 0
    endloop
  endfacet
  facet normal 0.866026 -0.5 0
    outer loop
      vertex 7.41584 0.940555 10
      vertex 7.89338 1.76767 0
      vertex 7.89338 1.76767 10
    endloop
  endfacet
  facet normal 0.866026 -0.5 0
    outer loop
      vertex 7.89338 1.76767 0
      vertex 7.41584 0.940555 10
      vertex 7.41584 0.940555 0
    endloop
  endfacet
  facet normal 0.342021 -0.939692 0
    outer loop
      vertex 8.625 2.38157 0
      vertex 9.52247 2.70822 10
      vertex 8.625 2.38157 10
    endloop
  endfacet
  facet normal 0.342021 -0.939692 0
    outer loop
      vertex 9.52247 2.70822 10
      vertex 8.625 2.38157 0
      vertex 9.52247 2.70822 0
    endloop
  endfacet
  facet normal 0.34202 0.939693 -0
    outer loop
      vertex 9.52247 -2.70822 0
      vertex 8.625 -2.38157 10
      vertex 9.52247 -2.70822 10
    endloop
  endfacet
  facet normal 0.34202 0.939693 0
    outer loop
      vertex 8.625 -2.38157 10
      vertex 9.52247 -2.70822 0
      vertex 8.625 -2.38157 0
    endloop
  endfacet
  facet normal 0.866026 0.5 0
    outer loop
      vertex 7.89338 -1.76767 10
      vertex 7.41584 -0.940555 0
      vertex 7.41584 -0.940555 10
    endloop
  endfacet
  facet normal 0.866026 0.5 0
    outer loop
      vertex 7.41584 -0.940555 0
      vertex 7.89338 -1.76767 10
      vertex 7.89338 -1.76767 0
    endloop
  endfacet
  facet normal 0.984808 -0.173648 0
    outer loop
      vertex 7.25 0 10
      vertex 7.41584 0.940555 0
      vertex 7.41584 0.940555 10
    endloop
  endfacet
  facet normal 0.984808 -0.173648 0
    outer loop
      vertex 7.41584 0.940555 0
      vertex 7.25 0 10
      vertex 7.25 0 0
    endloop
  endfacet
  facet normal -0.984808 0.173649 0
    outer loop
      vertex 12.5842 -0.940555 0
      vertex 12.75 0 10
      vertex 12.75 0 0
    endloop
  endfacet
  facet normal -0.984808 0.173649 0
    outer loop
      vertex 12.75 0 10
      vertex 12.5842 -0.940555 0
      vertex 12.5842 -0.940555 10
    endloop
  endfacet
  facet normal -0.642787 0.766045 0
    outer loop
      vertex 12.1066 -1.76767 0
      vertex 11.375 -2.38157 10
      vertex 12.1066 -1.76767 10
    endloop
  endfacet
  facet normal -0.642787 0.766045 0
    outer loop
      vertex 11.375 -2.38157 10
      vertex 12.1066 -1.76767 0
      vertex 11.375 -2.38157 0
    endloop
  endfacet
  facet normal -0.342021 0.939692 0
    outer loop
      vertex 11.375 -2.38157 0
      vertex 10.4775 -2.70822 10
      vertex 11.375 -2.38157 10
    endloop
  endfacet
  facet normal -0.342021 0.939692 0
    outer loop
      vertex 10.4775 -2.70822 10
      vertex 11.375 -2.38157 0
      vertex 10.4775 -2.70822 0
    endloop
  endfacet
  facet normal -0.866026 0.5 0
    outer loop
      vertex 12.1066 -1.76767 0
      vertex 12.5842 -0.940555 10
      vertex 12.5842 -0.940555 0
    endloop
  endfacet
  facet normal -0.866026 0.5 0
    outer loop
      vertex 12.5842 -0.940555 10
      vertex 12.1066 -1.76767 0
      vertex 12.1066 -1.76767 10
    endloop
  endfacet
  facet normal 0.642787 0.766045 -0
    outer loop
      vertex 8.625 -2.38157 0
      vertex 7.89338 -1.76767 10
      vertex 8.625 -2.38157 10
    endloop
  endfacet
  facet normal 0.642787 0.766045 0
    outer loop
      vertex 7.89338 -1.76767 10
      vertex 8.625 -2.38157 0
      vertex 7.89338 -1.76767 0
    endloop
  endfacet
  facet normal -0.984808 -0.173649 0
    outer loop
      vertex 12.75 -30 0
      vertex 12.5842 -29.0594 10
      vertex 12.5842 -29.0594 0
    endloop
  endfacet
  facet normal -0.984808 -0.173649 0
    outer loop
      vertex 12.5842 -29.0594 10
      vertex 12.75 -30 0
      vertex 12.75 -30 10
    endloop
  endfacet
  facet normal -0.342021 -0.939692 0
    outer loop
      vertex 10.4775 -27.2918 0
      vertex 11.375 -27.6184 10
      vertex 10.4775 -27.2918 10
    endloop
  endfacet
  facet normal -0.342021 -0.939692 -0
    outer loop
      vertex 11.375 -27.6184 10
      vertex 10.4775 -27.2918 0
      vertex 11.375 -27.6184 0
    endloop
  endfacet
  facet normal 0.984808 -0.173648 0
    outer loop
      vertex 7.25 -30 10
      vertex 7.41584 -29.0594 0
      vertex 7.41584 -29.0594 10
    endloop
  endfacet
  facet normal 0.984808 -0.173648 0
    outer loop
      vertex 7.41584 -29.0594 0
      vertex 7.25 -30 10
      vertex 7.25 -30 0
    endloop
  endfacet
  facet normal -0.342021 0.939692 0
    outer loop
      vertex 11.375 -32.3816 0
      vertex 10.4775 -32.7082 10
      vertex 11.375 -32.3816 10
    endloop
  endfacet
  facet normal -0.342021 0.939692 0
    outer loop
      vertex 10.4775 -32.7082 10
      vertex 11.375 -32.3816 0
      vertex 10.4775 -32.7082 0
    endloop
  endfacet
  facet normal 0 1 -0
    outer loop
      vertex 10.4775 -32.7082 0
      vertex 9.52247 -32.7082 10
      vertex 10.4775 -32.7082 10
    endloop
  endfacet
  facet normal 0 1 0
    outer loop
      vertex 9.52247 -32.7082 10
      vertex 10.4775 -32.7082 0
      vertex 9.52247 -32.7082 0
    endloop
  endfacet
  facet normal -0.642787 -0.766045 0
    outer loop
      vertex 11.375 -27.6184 0
      vertex 12.1066 -28.2323 10
      vertex 11.375 -27.6184 10
    endloop
  endfacet
  facet normal -0.642787 -0.766045 -0
    outer loop
      vertex 12.1066 -28.2323 10
      vertex 11.375 -27.6184 0
      vertex 12.1066 -28.2323 0
    endloop
  endfacet
  facet normal -0.866025 -0.5 0
    outer loop
      vertex 12.5842 -29.0594 0
      vertex 12.1066 -28.2323 10
      vertex 12.1066 -28.2323 0
    endloop
  endfacet
  facet normal -0.866025 -0.5 0
    outer loop
      vertex 12.1066 -28.2323 10
      vertex 12.5842 -29.0594 0
      vertex 12.5842 -29.0594 10
    endloop
  endfacet
  facet normal 0 -1 0
    outer loop
      vertex 9.52247 -27.2918 0
      vertex 10.4775 -27.2918 10
      vertex 9.52247 -27.2918 10
    endloop
  endfacet
  facet normal 0 -1 -0
    outer loop
      vertex 10.4775 -27.2918 10
      vertex 9.52247 -27.2918 0
      vertex 10.4775 -27.2918 0
    endloop
  endfacet
  facet normal 0.342021 -0.939692 0
    outer loop
      vertex 8.625 -27.6184 0
      vertex 9.52247 -27.2918 10
      vertex 8.625 -27.6184 10
    endloop
  endfacet
  facet normal 0.342021 -0.939692 0
    outer loop
      vertex 9.52247 -27.2918 10
      vertex 8.625 -27.6184 0
      vertex 9.52247 -27.2918 0
    endloop
  endfacet
  facet normal 0.642787 -0.766045 0
    outer loop
      vertex 7.89338 -28.2323 0
      vertex 8.625 -27.6184 10
      vertex 7.89338 -28.2323 10
    endloop
  endfacet
  facet normal 0.642787 -0.766045 0
    outer loop
      vertex 8.625 -27.6184 10
      vertex 7.89338 -28.2323 0
      vertex 8.625 -27.6184 0
    endloop
  endfacet
  facet normal 0.866025 0.5 0
    outer loop
      vertex 7.89338 -31.7677 10
      vertex 7.41584 -30.9406 0
      vertex 7.41584 -30.9406 10
    endloop
  endfacet
  facet normal 0.866025 0.5 0
    outer loop
      vertex 7.41584 -30.9406 0
      vertex 7.89338 -31.7677 10
      vertex 7.89338 -31.7677 0
    endloop
  endfacet
  facet normal 0.342021 0.939692 -0
    outer loop
      vertex 9.52247 -32.7082 0
      vertex 8.625 -32.3816 10
      vertex 9.52247 -32.7082 10
    endloop
  endfacet
  facet normal 0.342021 0.939692 0
    outer loop
      vertex 8.625 -32.3816 10
      vertex 9.52247 -32.7082 0
      vertex 8.625 -32.3816 0
    endloop
  endfacet
  facet normal 0.642787 0.766045 -0
    outer loop
      vertex 8.625 -32.3816 0
      vertex 7.89338 -31.7677 10
      vertex 8.625 -32.3816 10
    endloop
  endfacet
  facet normal 0.642787 0.766045 0
    outer loop
      vertex 7.89338 -31.7677 10
      vertex 8.625 -32.3816 0
      vertex 7.89338 -31.7677 0
    endloop
  endfacet
  facet normal 0.984808 0.173648 0
    outer loop
      vertex 7.41584 -30.9406 10
      vertex 7.25 -30 0
      vertex 7.25 -30 10
    endloop
  endfacet
  facet normal 0.984808 0.173648 0
    outer loop
      vertex 7.25 -30 0
      vertex 7.41584 -30.9406 10
      vertex 7.41584 -30.9406 0
    endloop
  endfacet
  facet normal 0.866025 -0.5 0
    outer loop
      vertex 7.41584 -29.0594 10
      vertex 7.89338 -28.2323 0
      vertex 7.89338 -28.2323 10
    endloop
  endfacet
  facet normal 0.866025 -0.5 0
    outer loop
      vertex 7.89338 -28.2323 0
      vertex 7.41584 -29.0594 10
      vertex 7.41584 -29.0594 0
    endloop
  endfacet
  facet normal -0.866025 0.5 0
    outer loop
      vertex 12.1066 -31.7677 0
      vertex 12.5842 -30.9406 10
      vertex 12.5842 -30.9406 0
    endloop
  endfacet
  facet normal -0.866025 0.5 0
    outer loop
      vertex 12.5842 -30.9406 10
      vertex 12.1066 -31.7677 0
      vertex 12.1066 -31.7677 10
    endloop
  endfacet
  facet normal -0.642787 0.766045 0
    outer loop
      vertex 12.1066 -31.7677 0
      vertex 11.375 -32.3816 10
      vertex 12.1066 -31.7677 10
    endloop
  endfacet
  facet normal -0.642787 0.766045 0
    outer loop
      vertex 11.375 -32.3816 10
      vertex 12.1066 -31.7677 0
      vertex 11.375 -32.3816 0
    endloop
  endfacet
  facet normal -0.984808 0.173649 0
    outer loop
      vertex 12.5842 -30.9406 0
      vertex 12.75 -30 10
      vertex 12.75 -30 0
    endloop
  endfacet
  facet normal -0.984808 0.173649 0
    outer loop
      vertex 12.75 -30 10
      vertex 12.5842 -30.9406 0
      vertex 12.5842 -30.9406 10
    endloop
  endfacet
  facet normal -0.984808 -0.173649 0
    outer loop
      vertex 12.75 -60 0
      vertex 12.5842 -59.0594 10
      vertex 12.5842 -59.0594 0
    endloop
  endfacet
  facet normal -0.984808 -0.173649 0
    outer loop
      vertex 12.5842 -59.0594 10
      vertex 12.75 -60 0
      vertex 12.75 -60 10
    endloop
  endfacet
  facet normal -0.342021 -0.939692 0
    outer loop
      vertex 10.4775 -57.2918 0
      vertex 11.375 -57.6184 10
      vertex 10.4775 -57.2918 10
    endloop
  endfacet
  facet normal -0.342021 -0.939692 -0
    outer loop
      vertex 11.375 -57.6184 10
      vertex 10.4775 -57.2918 0
      vertex 11.375 -57.6184 0
    endloop
  endfacet
  facet normal 0.984808 -0.173648 0
    outer loop
      vertex 7.25 -60 10
      vertex 7.41584 -59.0594 0
      vertex 7.41584 -59.0594 10
    endloop
  endfacet
  facet normal 0.984808 -0.173648 0
    outer loop
      vertex 7.41584 -59.0594 0
      vertex 7.25 -60 10
      vertex 7.25 -60 0
    endloop
  endfacet
  facet normal -0.342021 0.939692 0
    outer loop
      vertex 11.375 -62.3816 0
      vertex 10.4775 -62.7082 10
      vertex 11.375 -62.3816 10
    endloop
  endfacet
  facet normal -0.342021 0.939692 0
    outer loop
      vertex 10.4775 -62.7082 10
      vertex 11.375 -62.3816 0
      vertex 10.4775 -62.7082 0
    endloop
  endfacet
  facet normal 0 1 -0
    outer loop
      vertex 10.4775 -62.7082 0
      vertex 9.52247 -62.7082 10
      vertex 10.4775 -62.7082 10
    endloop
  endfacet
  facet normal 0 1 0
    outer loop
      vertex 9.52247 -62.7082 10
      vertex 10.4775 -62.7082 0
      vertex 9.52247 -62.7082 0
    endloop
  endfacet
  facet normal -0.642787 -0.766045 0
    outer loop
      vertex 11.375 -57.6184 0
      vertex 12.1066 -58.2323 10
      vertex 11.375 -57.6184 10
    endloop
  endfacet
  facet normal -0.642787 -0.766045 -0
    outer loop
      vertex 12.1066 -58.2323 10
      vertex 11.375 -57.6184 0
      vertex 12.1066 -58.2323 0
    endloop
  endfacet
  facet normal -0.866025 -0.5 0
    outer loop
      vertex 12.5842 -59.0594 0
      vertex 12.1066 -58.2323 10
      vertex 12.1066 -58.2323 0
    endloop
  endfacet
  facet normal -0.866025 -0.5 0
    outer loop
      vertex 12.1066 -58.2323 10
      vertex 12.5842 -59.0594 0
      vertex 12.5842 -59.0594 10
    endloop
  endfacet
  facet normal 0 -1 0
    outer loop
      vertex 9.52247 -57.2918 0
      vertex 10.4775 -57.2918 10
      vertex 9.52247 -57.2918 10
    endloop
  endfacet
  facet normal 0 -1 -0
    outer loop
      vertex 10.4775 -57.2918 10
      vertex 9.52247 -57.2918 0
      vertex 10.4775 -57.2918 0
    endloop
  endfacet
  facet normal 0.342021 -0.939692 0
    outer loop
      vertex 8.625 -57.6184 0
      vertex 9.52247 -57.2918 10
      vertex 8.625 -57.6184 10
    endloop
  endfacet
  facet normal 0.342021 -0.939692 0
    outer loop
      vertex 9.52247 -57.2918 10
      vertex 8.625 -57.6184 0
      vertex 9.52247 -57.2918 0
    endloop
  endfacet
  facet normal 0.642787 -0.766045 0
    outer loop
      vertex 7.89338 -58.2323 0
      vertex 8.625 -57.6184 10
      vertex 7.89338 -58.2323 10
    endloop
  endfacet
  facet normal 0.642787 -0.766045 0
    outer loop
      vertex 8.625 -57.6184 10
      vertex 7.89338 -58.2323 0
      vertex 8.625 -57.6184 0
    endloop
  endfacet
  facet normal 0.866025 0.5 0
    outer loop
      vertex 7.89338 -61.7677 10
      vertex 7.41584 -60.9406 0
      vertex 7.41584 -60.9406 10
    endloop
  endfacet
  facet normal 0.866025 0.5 0
    outer loop
      vertex 7.41584 -60.9406 0
      vertex 7.89338 -61.7677 10
      vertex 7.89338 -61.7677 0
    endloop
  endfacet
  facet normal 0.342021 0.939692 -0
    outer loop
      vertex 9.52247 -62.7082 0
      vertex 8.625 -62.3816 10
      vertex 9.52247 -62.7082 10
    endloop
  endfacet
  facet normal 0.342021 0.939692 0
    outer loop
      vertex 8.625 -62.3816 10
      vertex 9.52247 -62.7082 0
      vertex 8.625 -62.3816 0
    endloop
  endfacet
  facet normal 0.984808 0.173648 0
    outer loop
      vertex 7.41584 -60.9406 10
      vertex 7.25 -60 0
      vertex 7.25 -60 10
    endloop
  endfacet
  facet normal 0.984808 0.173648 0
    outer loop
      vertex 7.25 -60 0
      vertex 7.41584 -60.9406 10
      vertex 7.41584 -60.9406 0
    endloop
  endfacet
  facet normal 0.866025 -0.5 0
    outer loop
      vertex 7.41584 -59.0594 10
      vertex 7.89338 -58.2323 0
      vertex 7.89338 -58.2323 10
    endloop
  endfacet
  facet normal 0.866025 -0.5 0
    outer loop
      vertex 7.89338 -58.2323 0
      vertex 7.41584 -59.0594 10
      vertex 7.41584 -59.0594 0
    endloop
  endfacet
  facet normal -0.866025 0.5 0
    outer loop
      vertex 12.1066 -61.7677 0
      vertex 12.5842 -60.9406 10
      vertex 12.5842 -60.9406 0
    endloop
  endfacet
  facet normal -0.866025 0.5 0
    outer loop
      vertex 12.5842 -60.9406 10
      vertex 12.1066 -61.7677 0
      vertex 12.1066 -61.7677 10
    endloop
  endfacet
  facet normal -0.642787 0.766045 0
    outer loop
      vertex 12.1066 -61.7677 0
      vertex 11.375 -62.3816 10
      vertex 12.1066 -61.7677 10
    endloop
  endfacet
  facet normal -0.642787 0.766045 0
    outer loop
      vertex 11.375 -62.3816 10
      vertex 12.1066 -61.7677 0
      vertex 11.375 -62.3816 0
    endloop
  endfacet
  facet normal -0.984808 0.173649 0
    outer loop
      vertex 12.5842 -60.9406 0
      vertex 12.75 -60 10
      vertex 12.75 -60 0
    endloop
  endfacet
  facet normal -0.984808 0.173649 0
    outer loop
      vertex 12.75 -60 10
      vertex 12.5842 -60.9406 0
      vertex 12.5842 -60.9406 10
    endloop
  endfacet
  facet normal 0.642787 0.766045 -0
    outer loop
      vertex 8.625 -62.3816 0
      vertex 7.89338 -61.7677 10
      vertex 8.625 -62.3816 10
    endloop
  endfacet
  facet normal 0.642787 0.766045 0
    outer loop
      vertex 7.89338 -61.7677 10
      vertex 8.625 -62.3816 0
      vertex 7.89338 -61.7677 0
    endloop
  endfacet
  facet normal 0 0.994522 -0.104527
    outer loop
      vertex 10 44.5 40
      vertex 0 44.6202 41.1435
      vertex 10 44.6202 41.1435
    endloop
  endfacet
  facet normal 0 0.994522 -0.104527
    outer loop
      vertex 0 44.6202 41.1435
      vertex 10 44.5 40
      vertex 0 44.5 40
    endloop
  endfacet
  facet normal -0 0.587785 0.809017
    outer loop
      vertex 0 47.25 35.2369
      vertex 10 46.3198 35.9127
      vertex 10 47.25 35.2369
    endloop
  endfacet
  facet normal 0 0.587785 0.809017
    outer loop
      vertex 10 46.3198 35.9127
      vertex 0 47.25 35.2369
      vertex 0 46.3198 35.9127
    endloop
  endfacet
  facet normal -1 1.34204e-06 1.41051e-07
    outer loop
      vertex 10 44.9755 42.2371
      vertex 10 44.6202 38.8565
      vertex 10 44.5 40
    endloop
  endfacet
  facet normal -1 0 0
    outer loop
      vertex 10 55.3798 38.8565
      vertex 10 55.3798 41.1435
      vertex 10 55.5 40
    endloop
  endfacet
  facet normal -1 0 0
    outer loop
      vertex 10 55.0245 37.7629
      vertex 10 55.3798 41.1435
      vertex 10 55.3798 38.8565
    endloop
  endfacet
  facet normal -1 0 0
    outer loop
      vertex 10 55.0245 37.7629
      vertex 10 55.0245 42.2371
      vertex 10 55.3798 41.1435
    endloop
  endfacet
  facet normal -1 0 0
    outer loop
      vertex 10 54.4496 36.7672
      vertex 10 55.0245 42.2371
      vertex 10 55.0245 37.7629
    endloop
  endfacet
  facet normal -1 0 0
    outer loop
      vertex 10 54.4496 36.7672
      vertex 10 54.4496 43.2328
      vertex 10 55.0245 42.2371
    endloop
  endfacet
  facet normal -1 0 0
    outer loop
      vertex 10 53.6802 35.9127
      vertex 10 54.4496 43.2328
      vertex 10 54.4496 36.7672
    endloop
  endfacet
  facet normal -1 0 0
    outer loop
      vertex 10 53.6802 35.9127
      vertex 10 53.6802 44.0873
      vertex 10 54.4496 43.2328
    endloop
  endfacet
  facet normal -1 0 0
    outer loop
      vertex 10 52.75 35.2369
      vertex 10 53.6802 44.0873
      vertex 10 53.6802 35.9127
    endloop
  endfacet
  facet normal -1 0 0
    outer loop
      vertex 10 52.75 35.2369
      vertex 10 52.75 44.7631
      vertex 10 53.6802 44.0873
    endloop
  endfacet
  facet normal -1 0 0
    outer loop
      vertex 10 51.6996 34.7692
      vertex 10 52.75 44.7631
      vertex 10 52.75 35.2369
    endloop
  endfacet
  facet normal -1 0 0
    outer loop
      vertex 10 51.6996 34.7692
      vertex 10 51.6996 45.2308
      vertex 10 52.75 44.7631
    endloop
  endfacet
  facet normal -1 0 0
    outer loop
      vertex 10 51.6996 34.7692
      vertex 10 50.5749 45.4699
      vertex 10 51.6996 45.2308
    endloop
  endfacet
  facet normal -1 0 0
    outer loop
      vertex 10 51.6996 34.7692
      vertex 10 49.4251 45.4699
      vertex 10 50.5749 45.4699
    endloop
  endfacet
  facet normal -1 0 0
    outer loop
      vertex 10 51.6996 34.7692
      vertex 10 48.3004 45.2308
      vertex 10 49.4251 45.4699
    endloop
  endfacet
  facet normal -1 0 0
    outer loop
      vertex 10 51.6996 34.7692
      vertex 10 47.25 44.7631
      vertex 10 48.3004 45.2308
    endloop
  endfacet
  facet normal -1 0 0
    outer loop
      vertex 10 51.6996 34.7692
      vertex 10 46.3198 44.0873
      vertex 10 47.25 44.7631
    endloop
  endfacet
  facet normal -1 0 0
    outer loop
      vertex 10 51.6996 34.7692
      vertex 10 45.5504 43.2328
      vertex 10 46.3198 44.0873
    endloop
  endfacet
  facet normal -1 0 -0
    outer loop
      vertex 10 45.5504 43.2328
      vertex 10 51.6996 34.7692
      vertex 10 44.9755 42.2371
    endloop
  endfacet
  facet normal -1 0 3.98928e-06
    outer loop
      vertex 10 51.6996 34.7692
      vertex 10 50.5749 34.5301
      vertex 10 49.4251 34.5301
    endloop
  endfacet
  facet normal -1 3.96738e-06 -4.16981e-07
    outer loop
      vertex 10 44.6202 41.1435
      vertex 10 44.9755 42.2371
      vertex 10 44.5 40
    endloop
  endfacet
  facet normal -0 0.406739 0.913545
    outer loop
      vertex 0 48.3004 34.7692
      vertex 10 47.25 35.2369
      vertex 10 48.3004 34.7692
    endloop
  endfacet
  facet normal 0 0.406739 0.913545
    outer loop
      vertex 10 47.25 35.2369
      vertex 0 48.3004 34.7692
      vertex 0 47.25 35.2369
    endloop
  endfacet
  facet normal 0 -0.994522 -0.10453
    outer loop
      vertex 0 55.5 40
      vertex 10 55.3798 41.1435
      vertex 0 55.3798 41.1435
    endloop
  endfacet
  facet normal 0 -0.994522 -0.10453
    outer loop
      vertex 10 55.3798 41.1435
      vertex 0 55.5 40
      vertex 10 55.5 40
    endloop
  endfacet
  facet normal 0 -0.743145 -0.669131
    outer loop
      vertex 0 54.4496 43.2328
      vertex 10 53.6802 44.0873
      vertex 0 53.6802 44.0873
    endloop
  endfacet
  facet normal 0 -0.743145 -0.669131
    outer loop
      vertex 10 53.6802 44.0873
      vertex 0 54.4496 43.2328
      vertex 10 54.4496 43.2328
    endloop
  endfacet
  facet normal 0 -0.406739 -0.913545
    outer loop
      vertex 0 51.6996 45.2308
      vertex 10 52.75 44.7631
      vertex 10 51.6996 45.2308
    endloop
  endfacet
  facet normal -0 -0.406739 -0.913545
    outer loop
      vertex 10 52.75 44.7631
      vertex 0 51.6996 45.2308
      vertex 0 52.75 44.7631
    endloop
  endfacet
  facet normal 0 0.994522 0.104526
    outer loop
      vertex 10 44.6202 38.8565
      vertex 0 44.5 40
      vertex 10 44.5 40
    endloop
  endfacet
  facet normal 0 0.994522 0.104526
    outer loop
      vertex 0 44.5 40
      vertex 10 44.6202 38.8565
      vertex 0 44.6202 38.8565
    endloop
  endfacet
  facet normal 0 0.951057 -0.309017
    outer loop
      vertex 10 44.6202 41.1435
      vertex 0 44.9755 42.2371
      vertex 10 44.9755 42.2371
    endloop
  endfacet
  facet normal 0 0.951057 -0.309017
    outer loop
      vertex 0 44.9755 42.2371
      vertex 10 44.6202 41.1435
      vertex 0 44.6202 41.1435
    endloop
  endfacet
  facet normal -1 2.8056e-07 6.30144e-07
    outer loop
      vertex 10 51.6996 34.7692
      vertex 10 48.3004 34.7692
      vertex 10 47.25 35.2369
    endloop
  endfacet
  facet normal -1 2.19226e-07 1.97392e-07
    outer loop
      vertex 10 44.9755 42.2371
      vertex 10 46.3198 35.9127
      vertex 10 45.5504 36.7672
    endloop
  endfacet
  facet normal 0 -0.207912 -0.978148
    outer loop
      vertex 0 50.5749 45.4699
      vertex 10 51.6996 45.2308
      vertex 10 50.5749 45.4699
    endloop
  endfacet
  facet normal -0 -0.207912 -0.978148
    outer loop
      vertex 10 51.6996 45.2308
      vertex 0 50.5749 45.4699
      vertex 0 51.6996 45.2308
    endloop
  endfacet
  facet normal 0 -0.951056 0.309018
    outer loop
      vertex 0 55.0245 37.7629
      vertex 10 55.3798 38.8565
      vertex 0 55.3798 38.8565
    endloop
  endfacet
  facet normal 0 -0.951056 0.309018
    outer loop
      vertex 10 55.3798 38.8565
      vertex 0 55.0245 37.7629
      vertex 10 55.0245 37.7629
    endloop
  endfacet
  facet normal 0 -0.951057 -0.309017
    outer loop
      vertex 0 55.3798 41.1435
      vertex 10 55.0245 42.2371
      vertex 0 55.0245 42.2371
    endloop
  endfacet
  facet normal 0 -0.951057 -0.309017
    outer loop
      vertex 10 55.0245 42.2371
      vertex 0 55.3798 41.1435
      vertex 10 55.3798 41.1435
    endloop
  endfacet
  facet normal 0 0.951056 0.309018
    outer loop
      vertex 10 44.9755 37.7629
      vertex 0 44.6202 38.8565
      vertex 10 44.6202 38.8565
    endloop
  endfacet
  facet normal 0 0.951056 0.309018
    outer loop
      vertex 0 44.6202 38.8565
      vertex 10 44.9755 37.7629
      vertex 0 44.9755 37.7629
    endloop
  endfacet
  facet normal -1 3.69192e-07 2.13154e-07
    outer loop
      vertex 10 44.9755 42.2371
      vertex 10 45.5504 36.7672
      vertex 10 44.9755 37.7629
    endloop
  endfacet
  facet normal -1 6.5602e-07 2.13154e-07
    outer loop
      vertex 10 44.9755 42.2371
      vertex 10 44.9755 37.7629
      vertex 10 44.6202 38.8565
    endloop
  endfacet
  facet normal 0 0.207912 -0.978148
    outer loop
      vertex 0 48.3004 45.2308
      vertex 10 49.4251 45.4699
      vertex 10 48.3004 45.2308
    endloop
  endfacet
  facet normal 0 0.207912 -0.978148
    outer loop
      vertex 10 49.4251 45.4699
      vertex 0 48.3004 45.2308
      vertex 0 49.4251 45.4699
    endloop
  endfacet
  facet normal 0 0.587785 -0.809017
    outer loop
      vertex 0 46.3198 44.0873
      vertex 10 47.25 44.7631
      vertex 10 46.3198 44.0873
    endloop
  endfacet
  facet normal 0 0.587785 -0.809017
    outer loop
      vertex 10 47.25 44.7631
      vertex 0 46.3198 44.0873
      vertex 0 47.25 44.7631
    endloop
  endfacet
  facet normal 0 0.406739 -0.913545
    outer loop
      vertex 0 47.25 44.7631
      vertex 10 48.3004 45.2308
      vertex 10 47.25 44.7631
    endloop
  endfacet
  facet normal 0 0.406739 -0.913545
    outer loop
      vertex 10 48.3004 45.2308
      vertex 0 47.25 44.7631
      vertex 0 48.3004 45.2308
    endloop
  endfacet
  facet normal 0 0.743145 -0.669131
    outer loop
      vertex 10 45.5504 43.2328
      vertex 0 46.3198 44.0873
      vertex 10 46.3198 44.0873
    endloop
  endfacet
  facet normal 0 0.743145 -0.669131
    outer loop
      vertex 0 46.3198 44.0873
      vertex 10 45.5504 43.2328
      vertex 0 45.5504 43.2328
    endloop
  endfacet
  facet normal 0 0.866024 -0.500002
    outer loop
      vertex 10 44.9755 42.2371
      vertex 0 45.5504 43.2328
      vertex 10 45.5504 43.2328
    endloop
  endfacet
  facet normal 0 0.866024 -0.500002
    outer loop
      vertex 0 45.5504 43.2328
      vertex 10 44.9755 42.2371
      vertex 0 44.9755 42.2371
    endloop
  endfacet
  facet normal 0 -0.207912 0.978148
    outer loop
      vertex 0 51.6996 34.7692
      vertex 10 50.5749 34.5301
      vertex 10 51.6996 34.7692
    endloop
  endfacet
  facet normal 0 -0.207912 0.978148
    outer loop
      vertex 10 50.5749 34.5301
      vertex 0 51.6996 34.7692
      vertex 0 50.5749 34.5301
    endloop
  endfacet
  facet normal -0 0 1
    outer loop
      vertex 0 50.5749 34.5301
      vertex 10 49.4251 34.5301
      vertex 10 50.5749 34.5301
    endloop
  endfacet
  facet normal 0 0 1
    outer loop
      vertex 10 49.4251 34.5301
      vertex 0 50.5749 34.5301
      vertex 0 49.4251 34.5301
    endloop
  endfacet
  facet normal -0 0.207912 0.978148
    outer loop
      vertex 0 49.4251 34.5301
      vertex 10 48.3004 34.7692
      vertex 10 49.4251 34.5301
    endloop
  endfacet
  facet normal 0 0.207912 0.978148
    outer loop
      vertex 10 48.3004 34.7692
      vertex 0 49.4251 34.5301
      vertex 0 48.3004 34.7692
    endloop
  endfacet
  facet normal -1 2.8056e-07 1.31993e-06
    outer loop
      vertex 10 51.6996 34.7692
      vertex 10 49.4251 34.5301
      vertex 10 48.3004 34.7692
    endloop
  endfacet
  facet normal -1 2.50578e-07 3.44892e-07
    outer loop
      vertex 10 51.6996 34.7692
      vertex 10 47.25 35.2369
      vertex 10 46.3198 35.9127
    endloop
  endfacet
  facet normal -1 2.19226e-07 1.97392e-07
    outer loop
      vertex 10 44.9755 42.2371
      vertex 10 51.6996 34.7692
      vertex 10 46.3198 35.9127
    endloop
  endfacet
  facet normal 0 -0.587785 -0.809017
    outer loop
      vertex 0 52.75 44.7631
      vertex 10 53.6802 44.0873
      vertex 10 52.75 44.7631
    endloop
  endfacet
  facet normal -0 -0.587785 -0.809017
    outer loop
      vertex 10 53.6802 44.0873
      vertex 0 52.75 44.7631
      vertex 0 53.6802 44.0873
    endloop
  endfacet
  facet normal 0 -0.743145 0.669131
    outer loop
      vertex 0 53.6802 35.9127
      vertex 10 54.4496 36.7672
      vertex 0 54.4496 36.7672
    endloop
  endfacet
  facet normal 0 -0.743145 0.669131
    outer loop
      vertex 10 54.4496 36.7672
      vertex 0 53.6802 35.9127
      vertex 10 53.6802 35.9127
    endloop
  endfacet
  facet normal 0 -0.994522 0.10453
    outer loop
      vertex 0 55.3798 38.8565
      vertex 10 55.5 40
      vertex 0 55.5 40
    endloop
  endfacet
  facet normal 0 -0.994522 0.10453
    outer loop
      vertex 10 55.5 40
      vertex 0 55.3798 38.8565
      vertex 10 55.3798 38.8565
    endloop
  endfacet
  facet normal 0 -0.866025 -0.5
    outer loop
      vertex 0 55.0245 42.2371
      vertex 10 54.4496 43.2328
      vertex 0 54.4496 43.2328
    endloop
  endfacet
  facet normal 0 -0.866025 -0.5
    outer loop
      vertex 10 54.4496 43.2328
      vertex 0 55.0245 42.2371
      vertex 10 55.0245 42.2371
    endloop
  endfacet
  facet normal 0 0.743145 0.669131
    outer loop
      vertex 10 46.3198 35.9127
      vertex 0 45.5504 36.7672
      vertex 10 45.5504 36.7672
    endloop
  endfacet
  facet normal 0 0.743145 0.669131
    outer loop
      vertex 0 45.5504 36.7672
      vertex 10 46.3198 35.9127
      vertex 0 46.3198 35.9127
    endloop
  endfacet
  facet normal 0 0.866024 0.500002
    outer loop
      vertex 10 45.5504 36.7672
      vertex 0 44.9755 37.7629
      vertex 10 44.9755 37.7629
    endloop
  endfacet
  facet normal 0 0.866024 0.500002
    outer loop
      vertex 0 44.9755 37.7629
      vertex 10 45.5504 36.7672
      vertex 0 45.5504 36.7672
    endloop
  endfacet
  facet normal 0 0 -1
    outer loop
      vertex 0 49.4251 45.4699
      vertex 10 50.5749 45.4699
      vertex 10 49.4251 45.4699
    endloop
  endfacet
  facet normal -0 0 -1
    outer loop
      vertex 10 50.5749 45.4699
      vertex 0 49.4251 45.4699
      vertex 0 50.5749 45.4699
    endloop
  endfacet
  facet normal 0 -0.587785 0.809017
    outer loop
      vertex 0 53.6802 35.9127
      vertex 10 52.75 35.2369
      vertex 10 53.6802 35.9127
    endloop
  endfacet
  facet normal 0 -0.587785 0.809017
    outer loop
      vertex 10 52.75 35.2369
      vertex 0 53.6802 35.9127
      vertex 0 52.75 35.2369
    endloop
  endfacet
  facet normal 0 -0.406739 0.913545
    outer loop
      vertex 0 52.75 35.2369
      vertex 10 51.6996 34.7692
      vertex 10 52.75 35.2369
    endloop
  endfacet
  facet normal 0 -0.406739 0.913545
    outer loop
      vertex 10 51.6996 34.7692
      vertex 0 52.75 35.2369
      vertex 0 51.6996 34.7692
    endloop
  endfacet
  facet normal 0 -0.866025 0.5
    outer loop
      vertex 0 54.4496 36.7672
      vertex 10 55.0245 37.7629
      vertex 0 55.0245 37.7629
    endloop
  endfacet
  facet normal 0 -0.866025 0.5
    outer loop
      vertex 10 55.0245 37.7629
      vertex 0 54.4496 36.7672
      vertex 10 54.4496 36.7672
    endloop
  endfacet
  facet normal 1 -0 0
    outer loop
      vertex 40 -80 10
      vertex 40 -10 0
      vertex 40 -10 10
    endloop
  endfacet
  facet normal 1 0 0
    outer loop
      vertex 40 -10 0
      vertex 40 -80 10
      vertex 40 -80 0
    endloop
  endfacet
  facet normal 0 -1 0
    outer loop
      vertex 40 -10 0
      vertex 75 -10 10
      vertex 40 -10 10
    endloop
  endfacet
  facet normal 0 -1 -0
    outer loop
      vertex 75 -10 10
      vertex 40 -10 0
      vertex 75 -10 0
    endloop
  endfacet
  facet normal -0.970942 -0.239315 0
    outer loop
      vertex 62 20.75 0
      vertex 61.7709 21.6794 10
      vertex 61.7709 21.6794 0
    endloop
  endfacet
  facet normal -0.970942 -0.239315 0
    outer loop
      vertex 61.7709 21.6794 10
      vertex 62 20.75 0
      vertex 62 20.75 10
    endloop
  endfacet
  facet normal 1 -0 0
    outer loop
      vertex 58.0581 20.2714 10
      vertex 58.0581 21.2286 0
      vertex 58.0581 21.2286 10
    endloop
  endfacet
  facet normal 1 0 0
    outer loop
      vertex 58.0581 21.2286 0
      vertex 58.0581 20.2714 10
      vertex 58.0581 20.2714 0
    endloop
  endfacet
  facet normal 0.120535 -0.992709 0
    outer loop
      vertex 59.2908 22.62 0
      vertex 60.2411 22.7354 10
      vertex 59.2908 22.62 10
    endloop
  endfacet
  facet normal 0.120535 -0.992709 0
    outer loop
      vertex 60.2411 22.7354 10
      vertex 59.2908 22.62 0
      vertex 60.2411 22.7354 0
    endloop
  endfacet
  facet normal -0.748511 -0.663122 0
    outer loop
      vertex 61.7709 21.6794 0
      vertex 61.1361 22.396 10
      vertex 61.1361 22.396 0
    endloop
  endfacet
  facet normal -0.748511 -0.663122 0
    outer loop
      vertex 61.1361 22.396 10
      vertex 61.7709 21.6794 0
      vertex 61.7709 21.6794 10
    endloop
  endfacet
  facet normal -0.354603 0.935017 0
    outer loop
      vertex 61.1361 19.104 0
      vertex 60.2411 18.7646 10
      vertex 61.1361 19.104 10
    endloop
  endfacet
  facet normal -0.354603 0.935017 0
    outer loop
      vertex 60.2411 18.7646 10
      vertex 61.1361 19.104 0
      vertex 60.2411 18.7646 0
    endloop
  endfacet
  facet normal -0.354603 -0.935017 0
    outer loop
      vertex 60.2411 22.7354 0
      vertex 61.1361 22.396 10
      vertex 60.2411 22.7354 10
    endloop
  endfacet
  facet normal -0.354603 -0.935017 -0
    outer loop
      vertex 61.1361 22.396 10
      vertex 60.2411 22.7354 0
      vertex 61.1361 22.396 0
    endloop
  endfacet
  facet normal 0.885456 -0.464723 0
    outer loop
      vertex 58.0581 21.2286 10
      vertex 58.503 22.0762 0
      vertex 58.503 22.0762 10
    endloop
  endfacet
  facet normal 0.885456 -0.464723 0
    outer loop
      vertex 58.503 22.0762 0
      vertex 58.0581 21.2286 10
      vertex 58.0581 21.2286 0
    endloop
  endfacet
  facet normal 0.568066 -0.822983 0
    outer loop
      vertex 58.503 22.0762 0
      vertex 59.2908 22.62 10
      vertex 58.503 22.0762 10
    endloop
  endfacet
  facet normal 0.568066 -0.822983 0
    outer loop
      vertex 59.2908 22.62 10
      vertex 58.503 22.0762 0
      vertex 59.2908 22.62 0
    endloop
  endfacet
  facet normal -0.970942 0.239315 0
    outer loop
      vertex 61.7709 19.8206 0
      vertex 62 20.75 10
      vertex 62 20.75 0
    endloop
  endfacet
  facet normal -0.970942 0.239315 0
    outer loop
      vertex 62 20.75 10
      vertex 61.7709 19.8206 0
      vertex 61.7709 19.8206 10
    endloop
  endfacet
  facet normal -0.748512 0.663121 0
    outer loop
      vertex 61.1361 19.104 0
      vertex 61.7709 19.8206 10
      vertex 61.7709 19.8206 0
    endloop
  endfacet
  facet normal -0.748512 0.663121 0
    outer loop
      vertex 61.7709 19.8206 10
      vertex 61.1361 19.104 0
      vertex 61.1361 19.104 10
    endloop
  endfacet
  facet normal 0.120536 0.992709 -0
    outer loop
      vertex 60.2411 18.7646 0
      vertex 59.2908 18.88 10
      vertex 60.2411 18.7646 10
    endloop
  endfacet
  facet normal 0.120536 0.992709 0
    outer loop
      vertex 59.2908 18.88 10
      vertex 60.2411 18.7646 0
      vertex 59.2908 18.88 0
    endloop
  endfacet
  facet normal 0.568065 0.822984 -0
    outer loop
      vertex 59.2908 18.88 0
      vertex 58.503 19.4238 10
      vertex 59.2908 18.88 10
    endloop
  endfacet
  facet normal 0.568065 0.822984 0
    outer loop
      vertex 58.503 19.4238 10
      vertex 59.2908 18.88 0
      vertex 58.503 19.4238 0
    endloop
  endfacet
  facet normal 0.885456 0.464723 0
    outer loop
      vertex 58.503 19.4238 10
      vertex 58.0581 20.2714 0
      vertex 58.0581 20.2714 10
    endloop
  endfacet
  facet normal 0.885456 0.464723 0
    outer loop
      vertex 58.0581 20.2714 0
      vertex 58.503 19.4238 10
      vertex 58.503 19.4238 0
    endloop
  endfacet
  facet normal -0.970942 -0.239316 0
    outer loop
      vertex 42 7.75 0
      vertex 41.7709 8.67945 10
      vertex 41.7709 8.67945 0
    endloop
  endfacet
  facet normal -0.970942 -0.239316 0
    outer loop
      vertex 41.7709 8.67945 10
      vertex 42 7.75 0
      vertex 42 7.75 10
    endloop
  endfacet
  facet normal 1 -0 0
    outer loop
      vertex 38.0581 7.27137 10
      vertex 38.0581 8.22863 0
      vertex 38.0581 8.22863 10
    endloop
  endfacet
  facet normal 1 0 0
    outer loop
      vertex 38.0581 8.22863 0
      vertex 38.0581 7.27137 10
      vertex 38.0581 7.27137 0
    endloop
  endfacet
  facet normal 0.120536 -0.992709 0
    outer loop
      vertex 39.2908 9.62003 0
      vertex 40.2411 9.73542 10
      vertex 39.2908 9.62003 10
    endloop
  endfacet
  facet normal 0.120536 -0.992709 0
    outer loop
      vertex 40.2411 9.73542 10
      vertex 39.2908 9.62003 0
      vertex 40.2411 9.73542 0
    endloop
  endfacet
  facet normal -0.748512 -0.663122 0
    outer loop
      vertex 41.7709 8.67945 0
      vertex 41.1361 9.39597 10
      vertex 41.1361 9.39597 0
    endloop
  endfacet
  facet normal -0.748512 -0.663122 0
    outer loop
      vertex 41.1361 9.39597 10
      vertex 41.7709 8.67945 0
      vertex 41.7709 8.67945 10
    endloop
  endfacet
  facet normal -0.354604 0.935016 0
    outer loop
      vertex 41.1361 6.10403 0
      vertex 40.2411 5.76458 10
      vertex 41.1361 6.10403 10
    endloop
  endfacet
  facet normal -0.354604 0.935016 0
    outer loop
      vertex 40.2411 5.76458 10
      vertex 41.1361 6.10403 0
      vertex 40.2411 5.76458 0
    endloop
  endfacet
  facet normal -0.354604 -0.935016 0
    outer loop
      vertex 40.2411 9.73542 0
      vertex 41.1361 9.39597 10
      vertex 40.2411 9.73542 10
    endloop
  endfacet
  facet normal -0.354604 -0.935016 -0
    outer loop
      vertex 41.1361 9.39597 10
      vertex 40.2411 9.73542 0
      vertex 41.1361 9.39597 0
    endloop
  endfacet
  facet normal 0.885456 -0.464723 0
    outer loop
      vertex 38.0581 8.22863 10
      vertex 38.503 9.07625 0
      vertex 38.503 9.07625 10
    endloop
  endfacet
  facet normal 0.885456 -0.464723 0
    outer loop
      vertex 38.503 9.07625 0
      vertex 38.0581 8.22863 10
      vertex 38.0581 8.22863 0
    endloop
  endfacet
  facet normal 0.568065 -0.822984 0
    outer loop
      vertex 38.503 9.07625 0
      vertex 39.2908 9.62003 10
      vertex 38.503 9.07625 10
    endloop
  endfacet
  facet normal 0.568065 -0.822984 0
    outer loop
      vertex 39.2908 9.62003 10
      vertex 38.503 9.07625 0
      vertex 39.2908 9.62003 0
    endloop
  endfacet
  facet normal -0.748512 0.663122 0
    outer loop
      vertex 41.1361 6.10403 0
      vertex 41.7709 6.82055 10
      vertex 41.7709 6.82055 0
    endloop
  endfacet
  facet normal -0.748512 0.663122 0
    outer loop
      vertex 41.7709 6.82055 10
      vertex 41.1361 6.10403 0
      vertex 41.1361 6.10403 10
    endloop
  endfacet
  facet normal 0.120536 0.992709 -0
    outer loop
      vertex 40.2411 5.76458 0
      vertex 39.2908 5.87997 10
      vertex 40.2411 5.76458 10
    endloop
  endfacet
  facet normal 0.120536 0.992709 0
    outer loop
      vertex 39.2908 5.87997 10
      vertex 40.2411 5.76458 0
      vertex 39.2908 5.87997 0
    endloop
  endfacet
  facet normal -0.970942 0.239315 0
    outer loop
      vertex 41.7709 6.82055 0
      vertex 42 7.75 10
      vertex 42 7.75 0
    endloop
  endfacet
  facet normal -0.970942 0.239315 0
    outer loop
      vertex 42 7.75 10
      vertex 41.7709 6.82055 0
      vertex 41.7709 6.82055 10
    endloop
  endfacet
  facet normal 0.568065 0.822984 -0
    outer loop
      vertex 39.2908 5.87997 0
      vertex 38.503 6.42375 10
      vertex 39.2908 5.87997 10
    endloop
  endfacet
  facet normal 0.568065 0.822984 0
    outer loop
      vertex 38.503 6.42375 10
      vertex 39.2908 5.87997 0
      vertex 38.503 6.42375 0
    endloop
  endfacet
  facet normal 0.885456 0.464723 0
    outer loop
      vertex 38.503 6.42375 10
      vertex 38.0581 7.27137 0
      vertex 38.0581 7.27137 10
    endloop
  endfacet
  facet normal 0.885456 0.464723 0
    outer loop
      vertex 38.0581 7.27137 0
      vertex 38.503 6.42375 10
      vertex 38.503 6.42375 0
    endloop
  endfacet
endsolid OpenSCAD_Model
