solid OpenSCAD_Model
  facet normal -1 0 0
    outer loop
      vertex 0 -80 0
      vertex 0 -80 10
      vertex 0 -40 0
    endloop
  endfacet
  facet normal -1 0 0
    outer loop
      vertex 0 -40 0
      vertex 0 -80 10
      vertex 0 -40 10
    endloop
  endfacet
  facet normal 0 -1 0
    outer loop
      vertex 0 -80 10
      vertex 0 -80 0
      vertex 36 -80 0
    endloop
  endfacet
  facet normal 0 -1 0
    outer loop
      vertex 36 -80 10
      vertex 0 -80 10
      vertex 36 -80 0
    endloop
  endfacet
  facet normal 0 0 -1
    outer loop
      vertex 12.1066 -58.2323 0
      vertex 0 -40 0
      vertex 36 -80 0
    endloop
  endfacet
  facet normal 0 0 -1
    outer loop
      vertex 7.25 -20 0
      vertex 0 -40 0
      vertex 0 37.359 0
    endloop
  endfacet
  facet normal 0 0 -1
    outer loop
      vertex 36 -80 0
      vertex 0 37.359 0
      vertex 6.76522 42.2742 0
    endloop
  endfacet
  facet normal 0 0 -1
    outer loop
      vertex 36 -80 0
      vertex 6.76522 42.2742 0
      vertex 12.3607 48.4886 0
    endloop
  endfacet
  facet normal 0 0 -1
    outer loop
      vertex 12.3607 48.4886 0
      vertex 16.5418 55.7305 0
      vertex 36 -80 0
    endloop
  endfacet
  facet normal 0 0 -1
    outer loop
      vertex 16.5418 55.7305 0
      vertex 19.1259 63.6835 0
      vertex 36 -80 0
    endloop
  endfacet
  facet normal 0 0 -1
    outer loop
      vertex 19.1259 63.6835 0
      vertex 20 72 0
      vertex 36 -80 0
    endloop
  endfacet
  facet normal 0 0 -1
    outer loop
      vertex 54 52.5 0
      vertex 20 72 0
      vertex 76 72 0
    endloop
  endfacet
  facet normal 0 0 -1
    outer loop
      vertex 71.8189 19.7809 0
      vertex 76 72 0
      vertex 76 19.7809 0
    endloop
  endfacet
  facet normal 0 0 -1
    outer loop
      vertex 63.6393 18.0423 0
      vertex 76 72 0
      vertex 71.8189 19.7809 0
    endloop
  endfacet
  facet normal 0 0 -1
    outer loop
      vertex 9.52247 -62.7082 0
      vertex 36 -80 0
      vertex 8.625 -62.3816 0
    endloop
  endfacet
  facet normal 0 0 -1
    outer loop
      vertex 43.6393 3.51141 0
      vertex 20 72 0
      vertex 49.2348 9.72579 0
    endloop
  endfacet
  facet normal 0 0 -1
    outer loop
      vertex 39.4582 -3.73053 0
      vertex 20 72 0
      vertex 43.6393 3.51141 0
    endloop
  endfacet
  facet normal 0 0 -1
    outer loop
      vertex 36.8741 -11.6835 0
      vertex 20 72 0
      vertex 39.4582 -3.73053 0
    endloop
  endfacet
  facet normal 0 0 -1
    outer loop
      vertex 36 -20 0
      vertex 20 72 0
      vertex 36.8741 -11.6835 0
    endloop
  endfacet
  facet normal 0 0 -1
    outer loop
      vertex 36 -80 0
      vertex 20 72 0
      vertex 36 -20 0
    endloop
  endfacet
  facet normal 0 0 -1
    outer loop
      vertex 0 -80 0
      vertex 0 -40 0
      vertex 7.25 -60 0
    endloop
  endfacet
  facet normal 0 0 -1
    outer loop
      vertex 0 -80 0
      vertex 7.25 -60 0
      vertex 7.41585 -60.9406 0
    endloop
  endfacet
  facet normal 0 0 -1
    outer loop
      vertex 0 -80 0
      vertex 7.41585 -60.9406 0
      vertex 7.89338 -61.7677 0
    endloop
  endfacet
  facet normal 0 0 -1
    outer loop
      vertex 0 -80 0
      vertex 7.89338 -61.7677 0
      vertex 8.625 -62.3816 0
    endloop
  endfacet
  facet normal 0 0 -1
    outer loop
      vertex 0 -80 0
      vertex 8.625 -62.3816 0
      vertex 36 -80 0
    endloop
  endfacet
  facet normal 0 0 -1
    outer loop
      vertex 10.4775 -62.7082 0
      vertex 36 -80 0
      vertex 9.52247 -62.7082 0
    endloop
  endfacet
  facet normal 0 0 -1
    outer loop
      vertex 11.375 -62.3816 0
      vertex 36 -80 0
      vertex 10.4775 -62.7082 0
    endloop
  endfacet
  facet normal 0 0 -1
    outer loop
      vertex 8.625 -22.3816 0
      vertex 36 -80 0
      vertex 7.89338 -21.7677 0
    endloop
  endfacet
  facet normal 0 0 -1
    outer loop
      vertex 11.375 -57.6184 0
      vertex 0 -40 0
      vertex 12.1066 -58.2323 0
    endloop
  endfacet
  facet normal 0 0 -1
    outer loop
      vertex 8.625 -57.6184 0
      vertex 0 -40 0
      vertex 9.52247 -57.2918 0
    endloop
  endfacet
  facet normal 0 0 -1
    outer loop
      vertex 11.375 -62.3816 0
      vertex 12.1066 -61.7677 0
      vertex 36 -80 0
    endloop
  endfacet
  facet normal 0 0 -1
    outer loop
      vertex 12.1066 -61.7677 0
      vertex 12.5842 -60.9406 0
      vertex 36 -80 0
    endloop
  endfacet
  facet normal 0 0 -1
    outer loop
      vertex 9.52247 -57.2918 0
      vertex 0 -40 0
      vertex 10.4775 -57.2918 0
    endloop
  endfacet
  facet normal 0 0 -1
    outer loop
      vertex 12.5842 -60.9406 0
      vertex 12.75 -60 0
      vertex 36 -80 0
    endloop
  endfacet
  facet normal 0 0 -1
    outer loop
      vertex 10.4775 -57.2918 0
      vertex 0 -40 0
      vertex 11.375 -57.6184 0
    endloop
  endfacet
  facet normal 0 0 -1
    outer loop
      vertex 12.75 -60 0
      vertex 12.5842 -59.0594 0
      vertex 36 -80 0
    endloop
  endfacet
  facet normal 0 0 -1
    outer loop
      vertex 12.5842 -59.0594 0
      vertex 12.1066 -58.2323 0
      vertex 36 -80 0
    endloop
  endfacet
  facet normal 0 0 -1
    outer loop
      vertex 7.89338 -58.2323 0
      vertex 0 -40 0
      vertex 8.625 -57.6184 0
    endloop
  endfacet
  facet normal 0 0 -1
    outer loop
      vertex 7.41585 -59.0594 0
      vertex 0 -40 0
      vertex 7.89338 -58.2323 0
    endloop
  endfacet
  facet normal 0 0 -1
    outer loop
      vertex 7.25 -60 0
      vertex 0 -40 0
      vertex 7.41585 -59.0594 0
    endloop
  endfacet
  facet normal 0 0 -1
    outer loop
      vertex 7.41585 -20.9406 0
      vertex 0 -40 0
      vertex 7.25 -20 0
    endloop
  endfacet
  facet normal 0 0 -1
    outer loop
      vertex 7.41585 -19.0594 0
      vertex 7.25 -20 0
      vertex 0 37.359 0
    endloop
  endfacet
  facet normal 0 0 -1
    outer loop
      vertex 36 -80 0
      vertex 0 -40 0
      vertex 7.41585 -20.9406 0
    endloop
  endfacet
  facet normal 0 0 -1
    outer loop
      vertex 36 -80 0
      vertex 7.41585 -20.9406 0
      vertex 7.89338 -21.7677 0
    endloop
  endfacet
  facet normal 0 0 -1
    outer loop
      vertex 12.1066 -18.2323 0
      vertex 0 37.359 0
      vertex 12.5842 -19.0594 0
    endloop
  endfacet
  facet normal 0 0 -1
    outer loop
      vertex 36 -80 0
      vertex 8.625 -22.3816 0
      vertex 9.52247 -22.7082 0
    endloop
  endfacet
  facet normal 0 0 -1
    outer loop
      vertex 36 -80 0
      vertex 9.52247 -22.7082 0
      vertex 10.4775 -22.7082 0
    endloop
  endfacet
  facet normal 0 0 -1
    outer loop
      vertex 36 -80 0
      vertex 10.4775 -22.7082 0
      vertex 11.375 -22.3816 0
    endloop
  endfacet
  facet normal 0 0 -1
    outer loop
      vertex 36 -80 0
      vertex 11.375 -22.3816 0
      vertex 12.1066 -21.7677 0
    endloop
  endfacet
  facet normal 0 0 -1
    outer loop
      vertex 36 -80 0
      vertex 12.1066 -21.7677 0
      vertex 12.5842 -20.9406 0
    endloop
  endfacet
  facet normal 0 0 -1
    outer loop
      vertex 36 -80 0
      vertex 12.5842 -20.9406 0
      vertex 12.75 -20 0
    endloop
  endfacet
  facet normal 0 0 -1
    outer loop
      vertex 36 -80 0
      vertex 12.75 -20 0
      vertex 12.5842 -19.0594 0
    endloop
  endfacet
  facet normal 0 0 -1
    outer loop
      vertex 36 -80 0
      vertex 12.5842 -19.0594 0
      vertex 0 37.359 0
    endloop
  endfacet
  facet normal 0 0 -1
    outer loop
      vertex 11.375 -17.6184 0
      vertex 0 37.359 0
      vertex 12.1066 -18.2323 0
    endloop
  endfacet
  facet normal 0 0 -1
    outer loop
      vertex 10.4775 -17.2918 0
      vertex 0 37.359 0
      vertex 11.375 -17.6184 0
    endloop
  endfacet
  facet normal 0 0 -1
    outer loop
      vertex 9.52247 -17.2918 0
      vertex 0 37.359 0
      vertex 10.4775 -17.2918 0
    endloop
  endfacet
  facet normal 0 0 -1
    outer loop
      vertex 8.625 -17.6184 0
      vertex 0 37.359 0
      vertex 9.52247 -17.2918 0
    endloop
  endfacet
  facet normal 0 0 -1
    outer loop
      vertex 7.89338 -18.2323 0
      vertex 0 37.359 0
      vertex 8.625 -17.6184 0
    endloop
  endfacet
  facet normal 0 0 -1
    outer loop
      vertex 39.2322 35.2322 0
      vertex 49.2348 9.72579 0
      vertex 38.6903 36.0433 0
    endloop
  endfacet
  facet normal 0 0 -1
    outer loop
      vertex 7.89338 -18.2323 0
      vertex 7.41585 -19.0594 0
      vertex 0 37.359 0
    endloop
  endfacet
  facet normal 0 0 -1
    outer loop
      vertex 38.6903 36.0433 0
      vertex 20 72 0
      vertex 38.5 37 0
    endloop
  endfacet
  facet normal 0 0 -1
    outer loop
      vertex 49.2348 9.72579 0
      vertex 20 72 0
      vertex 38.6903 36.0433 0
    endloop
  endfacet
  facet normal 0 0 -1
    outer loop
      vertex 41 34.5 0
      vertex 56 14.641 0
      vertex 40.0433 34.6903 0
    endloop
  endfacet
  facet normal 0 0 -1
    outer loop
      vertex 49.2348 9.72579 0
      vertex 39.2322 35.2322 0
      vertex 56 14.641 0
    endloop
  endfacet
  facet normal 0 0 -1
    outer loop
      vertex 39.2322 35.2322 0
      vertex 40.0433 34.6903 0
      vertex 56 14.641 0
    endloop
  endfacet
  facet normal 0 0 -1
    outer loop
      vertex 53.0433 47.6903 0
      vertex 43.3097 37.9567 0
      vertex 52.2322 48.2322 0
    endloop
  endfacet
  facet normal 0 0 -1
    outer loop
      vertex 43.3097 36.0433 0
      vertex 56 14.641 0
      vertex 42.7678 35.2322 0
    endloop
  endfacet
  facet normal 0 0 -1
    outer loop
      vertex 38.6903 37.9567 0
      vertex 20 72 0
      vertex 39.2322 38.7678 0
    endloop
  endfacet
  facet normal 0 0 -1
    outer loop
      vertex 41 34.5 0
      vertex 41.9567 34.6903 0
      vertex 56 14.641 0
    endloop
  endfacet
  facet normal 0 0 -1
    outer loop
      vertex 39.2322 38.7678 0
      vertex 20 72 0
      vertex 40.0433 39.3097 0
    endloop
  endfacet
  facet normal 0 0 -1
    outer loop
      vertex 41.9567 34.6903 0
      vertex 42.7678 35.2322 0
      vertex 56 14.641 0
    endloop
  endfacet
  facet normal 0 0 -1
    outer loop
      vertex 40.0433 39.3097 0
      vertex 20 72 0
      vertex 41 39.5 0
    endloop
  endfacet
  facet normal 0 0 -1
    outer loop
      vertex 56.5 50 0
      vertex 76 72 0
      vertex 56.3097 49.0433 0
    endloop
  endfacet
  facet normal 0 0 -1
    outer loop
      vertex 41 39.5 0
      vertex 20 72 0
      vertex 41.9567 39.3097 0
    endloop
  endfacet
  facet normal 0 0 -1
    outer loop
      vertex 54 47.5 0
      vertex 43.3097 36.0433 0
      vertex 43.5 37 0
    endloop
  endfacet
  facet normal 0 0 -1
    outer loop
      vertex 41.9567 39.3097 0
      vertex 20 72 0
      vertex 42.7678 38.7678 0
    endloop
  endfacet
  facet normal 0 0 -1
    outer loop
      vertex 54.9567 52.3097 0
      vertex 76 72 0
      vertex 55.7678 51.7678 0
    endloop
  endfacet
  facet normal 0 0 -1
    outer loop
      vertex 38.5 37 0
      vertex 20 72 0
      vertex 38.6903 37.9567 0
    endloop
  endfacet
  facet normal 0 0 -1
    outer loop
      vertex 42.7678 38.7678 0
      vertex 20 72 0
      vertex 51.5 50 0
    endloop
  endfacet
  facet normal 0 0 -1
    outer loop
      vertex 42.7678 38.7678 0
      vertex 51.5 50 0
      vertex 51.6903 49.0433 0
    endloop
  endfacet
  facet normal 0 0 -1
    outer loop
      vertex 42.7678 38.7678 0
      vertex 51.6903 49.0433 0
      vertex 52.2322 48.2322 0
    endloop
  endfacet
  facet normal 0 0 -1
    outer loop
      vertex 43.3097 37.9567 0
      vertex 42.7678 38.7678 0
      vertex 52.2322 48.2322 0
    endloop
  endfacet
  facet normal 0 0 -1
    outer loop
      vertex 43.5 37 0
      vertex 43.3097 37.9567 0
      vertex 53.0433 47.6903 0
    endloop
  endfacet
  facet normal 0 0 -1
    outer loop
      vertex 56 14.641 0
      vertex 43.3097 36.0433 0
      vertex 54 47.5 0
    endloop
  endfacet
  facet normal 0 0 -1
    outer loop
      vertex 56 14.641 0
      vertex 54 47.5 0
      vertex 54.9567 47.6903 0
    endloop
  endfacet
  facet normal 0 0 -1
    outer loop
      vertex 56 14.641 0
      vertex 54.9567 47.6903 0
      vertex 55.7678 48.2322 0
    endloop
  endfacet
  facet normal 0 0 -1
    outer loop
      vertex 56 14.641 0
      vertex 55.7678 48.2322 0
      vertex 76 72 0
    endloop
  endfacet
  facet normal 0 0 -1
    outer loop
      vertex 55.7678 48.2322 0
      vertex 56.3097 49.0433 0
      vertex 76 72 0
    endloop
  endfacet
  facet normal 0 0 -1
    outer loop
      vertex 56.3097 50.9567 0
      vertex 76 72 0
      vertex 56.5 50 0
    endloop
  endfacet
  facet normal 0 0 -1
    outer loop
      vertex 55.7678 51.7678 0
      vertex 76 72 0
      vertex 56.3097 50.9567 0
    endloop
  endfacet
  facet normal 0 0 -1
    outer loop
      vertex 54 47.5 0
      vertex 43.5 37 0
      vertex 53.0433 47.6903 0
    endloop
  endfacet
  facet normal 0 0 -1
    outer loop
      vertex 54 52.5 0
      vertex 76 72 0
      vertex 54.9567 52.3097 0
    endloop
  endfacet
  facet normal 0 0 -1
    outer loop
      vertex 53.0433 52.3097 0
      vertex 20 72 0
      vertex 54 52.5 0
    endloop
  endfacet
  facet normal 0 0 -1
    outer loop
      vertex 52.2322 51.7678 0
      vertex 20 72 0
      vertex 53.0433 52.3097 0
    endloop
  endfacet
  facet normal 0 0 -1
    outer loop
      vertex 51.6903 50.9567 0
      vertex 20 72 0
      vertex 52.2322 51.7678 0
    endloop
  endfacet
  facet normal 0 0 -1
    outer loop
      vertex 51.5 50 0
      vertex 20 72 0
      vertex 51.6903 50.9567 0
    endloop
  endfacet
  facet normal 0 0 -1
    outer loop
      vertex 56 14.641 0
      vertex 76 72 0
      vertex 63.6393 18.0423 0
    endloop
  endfacet
  facet normal -1 0 0
    outer loop
      vertex 0 -40 0
      vertex 0 -40 10
      vertex 0 37.359 0
    endloop
  endfacet
  facet normal -1 0 0
    outer loop
      vertex 0 37.359 0
      vertex 0 -40 10
      vertex 0 0 10
    endloop
  endfacet
  facet normal -1 0 0
    outer loop
      vertex 0 5.91591 38.1105
      vertex 0 0 10
      vertex 0 0 50
    endloop
  endfacet
  facet normal -1 0 0
    outer loop
      vertex 0 11.6656 44.1804
      vertex 0 0 50
      vertex 0 20 50
    endloop
  endfacet
  facet normal -1 0 0
    outer loop
      vertex 0 37.359 0
      vertex 0 0 10
      vertex 0 20 10
    endloop
  endfacet
  facet normal -1 0 0
    outer loop
      vertex 0 5.91591 38.1105
      vertex 0 0 50
      vertex 0 5.60521 39.0326
    endloop
  endfacet
  facet normal -1 0 0
    outer loop
      vertex 0 14.4736 39.5135
      vertex 0 20 50
      vertex 0 14.2644 38.5631
    endloop
  endfacet
  facet normal -1 0 0
    outer loop
      vertex 0 5.60521 40.9674
      vertex 0 5.5 40
      vertex 0 0 50
    endloop
  endfacet
  facet normal -1 0 0
    outer loop
      vertex 0 7.89216 36.0242
      vertex 0 20 10
      vertex 0 7.08676 36.5703
    endloop
  endfacet
  facet normal -1 0 0
    outer loop
      vertex 0 5.5 40
      vertex 0 5.60521 39.0326
      vertex 0 0 50
    endloop
  endfacet
  facet normal -1 0 0
    outer loop
      vertex 0 20 10
      vertex 0 0 10
      vertex 0 5.91591 38.1105
    endloop
  endfacet
  facet normal -1 0 0
    outer loop
      vertex 0 7.08676 36.5703
      vertex 0 20 10
      vertex 0 6.41758 37.2767
    endloop
  endfacet
  facet normal -1 0 0
    outer loop
      vertex 0 37.359 10
      vertex 0 37.359 0
      vertex 0 20 10
    endloop
  endfacet
  facet normal -1 0 0
    outer loop
      vertex 0 13.8559 37.68
      vertex 0 14.2644 38.5631
      vertex 0 20 50
    endloop
  endfacet
  facet normal -1 0 0
    outer loop
      vertex 0 14.4736 40.4865
      vertex 0 20 50
      vertex 0 14.4736 39.5135
    endloop
  endfacet
  facet normal -1 0 0
    outer loop
      vertex 0 14.2644 41.4369
      vertex 0 20 50
      vertex 0 14.4736 40.4865
    endloop
  endfacet
  facet normal -1 0 0
    outer loop
      vertex 0 5.91591 41.8895
      vertex 0 0 50
      vertex 0 6.41758 42.7233
    endloop
  endfacet
  facet normal -1 0 0
    outer loop
      vertex 0 10.728 44.4407
      vertex 0 0 50
      vertex 0 11.6656 44.1804
    endloop
  endfacet
  facet normal -1 0 0
    outer loop
      vertex 0 8.79612 44.336
      vertex 0 0 50
      vertex 0 9.75638 44.4934
    endloop
  endfacet
  facet normal -1 0 0
    outer loop
      vertex 0 14.2644 41.4369
      vertex 0 13.8559 42.32
      vertex 0 20 50
    endloop
  endfacet
  facet normal -1 0 0
    outer loop
      vertex 0 13.8559 42.32
      vertex 0 13.267 43.0946
      vertex 0 20 50
    endloop
  endfacet
  facet normal -1 0 0
    outer loop
      vertex 0 9.75638 44.4934
      vertex 0 0 50
      vertex 0 10.728 44.4407
    endloop
  endfacet
  facet normal -1 0 0
    outer loop
      vertex 0 13.267 43.0946
      vertex 0 12.5253 43.7246
      vertex 0 20 50
    endloop
  endfacet
  facet normal -1 0 0
    outer loop
      vertex 0 12.5253 43.7246
      vertex 0 11.6656 44.1804
      vertex 0 20 50
    endloop
  endfacet
  facet normal -1 0 0
    outer loop
      vertex 0 7.89216 43.9758
      vertex 0 0 50
      vertex 0 8.79612 44.336
    endloop
  endfacet
  facet normal -1 0 0
    outer loop
      vertex 0 7.08676 43.4297
      vertex 0 0 50
      vertex 0 7.89216 43.9758
    endloop
  endfacet
  facet normal -1 0 0
    outer loop
      vertex 0 6.41758 42.7233
      vertex 0 0 50
      vertex 0 7.08676 43.4297
    endloop
  endfacet
  facet normal -1 0 0
    outer loop
      vertex 0 5.60521 40.9674
      vertex 0 0 50
      vertex 0 5.91591 41.8895
    endloop
  endfacet
  facet normal -1 0 0
    outer loop
      vertex 0 20 10
      vertex 0 7.89216 36.0242
      vertex 0 8.79612 35.664
    endloop
  endfacet
  facet normal -1 0 0
    outer loop
      vertex 0 20 10
      vertex 0 8.79612 35.664
      vertex 0 9.75638 35.5066
    endloop
  endfacet
  facet normal -1 0 0
    outer loop
      vertex 0 20 10
      vertex 0 9.75638 35.5066
      vertex 0 10.728 35.5593
    endloop
  endfacet
  facet normal -1 0 0
    outer loop
      vertex 0 20 10
      vertex 0 10.728 35.5593
      vertex 0 11.6656 35.8196
    endloop
  endfacet
  facet normal -1 0 0
    outer loop
      vertex 0 20 10
      vertex 0 11.6656 35.8196
      vertex 0 12.5253 36.2754
    endloop
  endfacet
  facet normal -1 0 0
    outer loop
      vertex 0 20 10
      vertex 0 12.5253 36.2754
      vertex 0 13.267 36.9054
    endloop
  endfacet
  facet normal -1 0 0
    outer loop
      vertex 0 20 10
      vertex 0 13.267 36.9054
      vertex 0 13.8559 37.68
    endloop
  endfacet
  facet normal -1 0 0
    outer loop
      vertex 0 20 10
      vertex 0 13.8559 37.68
      vertex 0 20 50
    endloop
  endfacet
  facet normal -1 0 0
    outer loop
      vertex 0 6.41758 37.2767
      vertex 0 20 10
      vertex 0 5.91591 38.1105
    endloop
  endfacet
  facet normal 0 0 1
    outer loop
      vertex 9.52247 -62.7082 10
      vertex 0 -80 10
      vertex 36 -80 10
    endloop
  endfacet
  facet normal 0 0 1
    outer loop
      vertex 36.8741 -11.6835 10
      vertex 0 -40 10
      vertex 36 -20 10
    endloop
  endfacet
  facet normal 0 0 1
    outer loop
      vertex 36 -20 10
      vertex 0 -40 10
      vertex 36 -80 10
    endloop
  endfacet
  facet normal 0 0 1
    outer loop
      vertex 39.4582 -3.73053 10
      vertex 0 -40 10
      vertex 36.8741 -11.6835 10
    endloop
  endfacet
  facet normal 0 0 1
    outer loop
      vertex 43.6393 3.51141 10
      vertex 0 -40 10
      vertex 39.4582 -3.73053 10
    endloop
  endfacet
  facet normal 0 0 1
    outer loop
      vertex 49.2348 9.72579 10
      vertex 0 -40 10
      vertex 43.6393 3.51141 10
    endloop
  endfacet
  facet normal 0 0 1
    outer loop
      vertex 76 72 10
      vertex 0 -40 10
      vertex 49.2348 9.72579 10
    endloop
  endfacet
  facet normal 0 0 1
    outer loop
      vertex 76 72 10
      vertex 49.2348 9.72579 10
      vertex 56 14.641 10
    endloop
  endfacet
  facet normal 0 0 1
    outer loop
      vertex 76 72 10
      vertex 56 14.641 10
      vertex 63.6393 18.0423 10
    endloop
  endfacet
  facet normal 0 0 1
    outer loop
      vertex 76 72 10
      vertex 63.6393 18.0423 10
      vertex 71.8189 19.7809 10
    endloop
  endfacet
  facet normal 0 0 1
    outer loop
      vertex 76 72 10
      vertex 71.8189 19.7809 10
      vertex 76 19.7809 10
    endloop
  endfacet
  facet normal 0 0 1
    outer loop
      vertex 12.1066 -21.7677 10
      vertex 0 -40 10
      vertex 76 72 10
    endloop
  endfacet
  facet normal 0 0 1
    outer loop
      vertex 20 72 10
      vertex 19.1259 63.6835 10
      vertex 76 72 10
    endloop
  endfacet
  facet normal 0 0 1
    outer loop
      vertex 20 0 10
      vertex 7.89338 -18.2323 10
      vertex 8.625 -17.6184 10
    endloop
  endfacet
  facet normal 0 0 1
    outer loop
      vertex 7.41585 -19.0594 10
      vertex 0 0 10
      vertex 0 -40 10
    endloop
  endfacet
  facet normal 0 0 1
    outer loop
      vertex 0 37.359 10
      vertex 0 20 10
      vertex 6.76522 42.2742 10
    endloop
  endfacet
  facet normal 0 0 1
    outer loop
      vertex 55.7678 51.7678 10
      vertex 56.3097 50.9567 10
      vertex 76 72 10
    endloop
  endfacet
  facet normal 0 0 1
    outer loop
      vertex 55.7678 48.2322 10
      vertex 20 0 10
      vertex 76 72 10
    endloop
  endfacet
  facet normal 0 0 1
    outer loop
      vertex 12.1066 -21.7677 10
      vertex 11.375 -22.3816 10
      vertex 0 -40 10
    endloop
  endfacet
  facet normal 0 0 1
    outer loop
      vertex 7.89338 -18.2323 10
      vertex 0 0 10
      vertex 7.41585 -19.0594 10
    endloop
  endfacet
  facet normal 0 0 1
    outer loop
      vertex 9.52247 -17.2918 10
      vertex 10.4775 -17.2918 10
      vertex 20 0 10
    endloop
  endfacet
  facet normal 0 0 1
    outer loop
      vertex 0 -40 10
      vertex 0 -80 10
      vertex 7.41585 -60.9406 10
    endloop
  endfacet
  facet normal 0 0 1
    outer loop
      vertex 10.4775 -62.7082 10
      vertex 9.52247 -62.7082 10
      vertex 36 -80 10
    endloop
  endfacet
  facet normal 0 0 1
    outer loop
      vertex 0 -40 10
      vertex 7.41585 -60.9406 10
      vertex 7.25 -60 10
    endloop
  endfacet
  facet normal 0 0 1
    outer loop
      vertex 11.375 -62.3816 10
      vertex 10.4775 -62.7082 10
      vertex 36 -80 10
    endloop
  endfacet
  facet normal 0 0 1
    outer loop
      vertex 0 -40 10
      vertex 7.25 -60 10
      vertex 7.41585 -59.0594 10
    endloop
  endfacet
  facet normal 0 0 1
    outer loop
      vertex 12.1066 -61.7677 10
      vertex 11.375 -62.3816 10
      vertex 36 -80 10
    endloop
  endfacet
  facet normal 0 0 1
    outer loop
      vertex 0 -40 10
      vertex 7.41585 -59.0594 10
      vertex 7.89338 -58.2323 10
    endloop
  endfacet
  facet normal 0 0 1
    outer loop
      vertex 12.5842 -60.9406 10
      vertex 12.1066 -61.7677 10
      vertex 36 -80 10
    endloop
  endfacet
  facet normal 0 0 1
    outer loop
      vertex 0 -40 10
      vertex 7.89338 -58.2323 10
      vertex 8.625 -57.6184 10
    endloop
  endfacet
  facet normal 0 0 1
    outer loop
      vertex 10.4775 -17.2918 10
      vertex 11.375 -17.6184 10
      vertex 20 0 10
    endloop
  endfacet
  facet normal 0 0 1
    outer loop
      vertex 0 -40 10
      vertex 8.625 -57.6184 10
      vertex 9.52247 -57.2918 10
    endloop
  endfacet
  facet normal 0 0 1
    outer loop
      vertex 0 -40 10
      vertex 9.52247 -57.2918 10
      vertex 10.4775 -57.2918 10
    endloop
  endfacet
  facet normal 0 0 1
    outer loop
      vertex 12.5842 -59.0594 10
      vertex 12.75 -60 10
      vertex 36 -80 10
    endloop
  endfacet
  facet normal 0 0 1
    outer loop
      vertex 0 -40 10
      vertex 10.4775 -57.2918 10
      vertex 11.375 -57.6184 10
    endloop
  endfacet
  facet normal 0 0 1
    outer loop
      vertex 0 -40 10
      vertex 12.1066 -58.2323 10
      vertex 36 -80 10
    endloop
  endfacet
  facet normal 0 0 1
    outer loop
      vertex 0 -40 10
      vertex 11.375 -57.6184 10
      vertex 12.1066 -58.2323 10
    endloop
  endfacet
  facet normal 0 0 1
    outer loop
      vertex 8.625 -62.3816 10
      vertex 0 -80 10
      vertex 9.52247 -62.7082 10
    endloop
  endfacet
  facet normal 0 0 1
    outer loop
      vertex 7.89338 -61.7677 10
      vertex 0 -80 10
      vertex 8.625 -62.3816 10
    endloop
  endfacet
  facet normal 0 0 1
    outer loop
      vertex 7.41585 -60.9406 10
      vertex 0 -80 10
      vertex 7.89338 -61.7677 10
    endloop
  endfacet
  facet normal 0 0 1
    outer loop
      vertex 7.25 -20 10
      vertex 0 -40 10
      vertex 7.41585 -20.9406 10
    endloop
  endfacet
  facet normal 0 0 1
    outer loop
      vertex 7.41585 -19.0594 10
      vertex 0 -40 10
      vertex 7.25 -20 10
    endloop
  endfacet
  facet normal 0 0 1
    outer loop
      vertex 12.75 -60 10
      vertex 12.5842 -60.9406 10
      vertex 36 -80 10
    endloop
  endfacet
  facet normal 0 0 1
    outer loop
      vertex 12.1066 -58.2323 10
      vertex 12.5842 -59.0594 10
      vertex 36 -80 10
    endloop
  endfacet
  facet normal 0 0 1
    outer loop
      vertex 51.6903 49.0433 10
      vertex 51.5 50 10
      vertex 39.2322 38.7678 10
    endloop
  endfacet
  facet normal 0 0 1
    outer loop
      vertex 41 39.5 10
      vertex 41.9567 39.3097 10
      vertex 51.6903 49.0433 10
    endloop
  endfacet
  facet normal 0 0 1
    outer loop
      vertex 8.625 -17.6184 10
      vertex 9.52247 -17.2918 10
      vertex 20 0 10
    endloop
  endfacet
  facet normal 0 0 1
    outer loop
      vertex 20 0 10
      vertex 11.375 -17.6184 10
      vertex 76 72 10
    endloop
  endfacet
  facet normal 0 0 1
    outer loop
      vertex 11.375 -17.6184 10
      vertex 12.1066 -18.2323 10
      vertex 76 72 10
    endloop
  endfacet
  facet normal 0 0 1
    outer loop
      vertex 12.1066 -18.2323 10
      vertex 12.5842 -19.0594 10
      vertex 76 72 10
    endloop
  endfacet
  facet normal 0 0 1
    outer loop
      vertex 9.52247 -22.7082 10
      vertex 8.625 -22.3816 10
      vertex 0 -40 10
    endloop
  endfacet
  facet normal 0 0 1
    outer loop
      vertex 12.5842 -19.0594 10
      vertex 12.75 -20 10
      vertex 76 72 10
    endloop
  endfacet
  facet normal 0 0 1
    outer loop
      vertex 12.75 -20 10
      vertex 12.5842 -20.9406 10
      vertex 76 72 10
    endloop
  endfacet
  facet normal 0 0 1
    outer loop
      vertex 12.5842 -20.9406 10
      vertex 12.1066 -21.7677 10
      vertex 76 72 10
    endloop
  endfacet
  facet normal 0 0 1
    outer loop
      vertex 11.375 -22.3816 10
      vertex 10.4775 -22.7082 10
      vertex 0 -40 10
    endloop
  endfacet
  facet normal 0 0 1
    outer loop
      vertex 8.625 -22.3816 10
      vertex 7.89338 -21.7677 10
      vertex 0 -40 10
    endloop
  endfacet
  facet normal 0 0 1
    outer loop
      vertex 10.4775 -22.7082 10
      vertex 9.52247 -22.7082 10
      vertex 0 -40 10
    endloop
  endfacet
  facet normal 0 0 1
    outer loop
      vertex 38.5 37 10
      vertex 38.6903 37.9567 10
      vertex 20 20 10
    endloop
  endfacet
  facet normal 0 0 1
    outer loop
      vertex 7.41585 -20.9406 10
      vertex 0 -40 10
      vertex 7.89338 -21.7677 10
    endloop
  endfacet
  facet normal 0 0 1
    outer loop
      vertex 51.6903 49.0433 10
      vertex 39.2322 38.7678 10
      vertex 40.0433 39.3097 10
    endloop
  endfacet
  facet normal 0 0 1
    outer loop
      vertex 20 20 10
      vertex 20 0 10
      vertex 38.6903 36.0433 10
    endloop
  endfacet
  facet normal 0 0 1
    outer loop
      vertex 41.9567 39.3097 10
      vertex 42.7678 38.7678 10
      vertex 52.2322 48.2322 10
    endloop
  endfacet
  facet normal 0 0 1
    outer loop
      vertex 20 20 10
      vertex 38.6903 36.0433 10
      vertex 38.5 37 10
    endloop
  endfacet
  facet normal 0 0 1
    outer loop
      vertex 56.3097 50.9567 10
      vertex 56.5 50 10
      vertex 76 72 10
    endloop
  endfacet
  facet normal 0 0 1
    outer loop
      vertex 19.1259 63.6835 10
      vertex 20 20 10
      vertex 38.6903 37.9567 10
    endloop
  endfacet
  facet normal 0 0 1
    outer loop
      vertex 19.1259 63.6835 10
      vertex 38.6903 37.9567 10
      vertex 39.2322 38.7678 10
    endloop
  endfacet
  facet normal 0 0 1
    outer loop
      vertex 53.0433 52.3097 10
      vertex 54 52.5 10
      vertex 76 72 10
    endloop
  endfacet
  facet normal 0 0 1
    outer loop
      vertex 54.9567 47.6903 10
      vertex 54 47.5 10
      vertex 43.3097 36.0433 10
    endloop
  endfacet
  facet normal 0 0 1
    outer loop
      vertex 42.7678 35.2322 10
      vertex 20 0 10
      vertex 43.3097 36.0433 10
    endloop
  endfacet
  facet normal 0 0 1
    outer loop
      vertex 41.9567 34.6903 10
      vertex 41 34.5 10
      vertex 20 0 10
    endloop
  endfacet
  facet normal 0 0 1
    outer loop
      vertex 41 34.5 10
      vertex 40.0433 34.6903 10
      vertex 20 0 10
    endloop
  endfacet
  facet normal 0 0 1
    outer loop
      vertex 39.2322 35.2322 10
      vertex 20 0 10
      vertex 40.0433 34.6903 10
    endloop
  endfacet
  facet normal 0 0 1
    outer loop
      vertex 38.6903 36.0433 10
      vertex 20 0 10
      vertex 39.2322 35.2322 10
    endloop
  endfacet
  facet normal 0 0 1
    outer loop
      vertex 54.9567 52.3097 10
      vertex 55.7678 51.7678 10
      vertex 76 72 10
    endloop
  endfacet
  facet normal 0 0 1
    outer loop
      vertex 19.1259 63.6835 10
      vertex 39.2322 38.7678 10
      vertex 51.5 50 10
    endloop
  endfacet
  facet normal 0 0 1
    outer loop
      vertex 54 52.5 10
      vertex 54.9567 52.3097 10
      vertex 76 72 10
    endloop
  endfacet
  facet normal 0 0 1
    outer loop
      vertex 19.1259 63.6835 10
      vertex 51.5 50 10
      vertex 51.6903 50.9567 10
    endloop
  endfacet
  facet normal 0 0 1
    outer loop
      vertex 19.1259 63.6835 10
      vertex 52.2322 51.7678 10
      vertex 76 72 10
    endloop
  endfacet
  facet normal 0 0 1
    outer loop
      vertex 19.1259 63.6835 10
      vertex 51.6903 50.9567 10
      vertex 52.2322 51.7678 10
    endloop
  endfacet
  facet normal 0 0 1
    outer loop
      vertex 52.2322 51.7678 10
      vertex 53.0433 52.3097 10
      vertex 76 72 10
    endloop
  endfacet
  facet normal 0 0 1
    outer loop
      vertex 51.6903 49.0433 10
      vertex 40.0433 39.3097 10
      vertex 41 39.5 10
    endloop
  endfacet
  facet normal 0 0 1
    outer loop
      vertex 52.2322 48.2322 10
      vertex 51.6903 49.0433 10
      vertex 41.9567 39.3097 10
    endloop
  endfacet
  facet normal 0 0 1
    outer loop
      vertex 52.2322 48.2322 10
      vertex 42.7678 38.7678 10
      vertex 43.3097 37.9567 10
    endloop
  endfacet
  facet normal 0 0 1
    outer loop
      vertex 54 47.5 10
      vertex 43.5 37 10
      vertex 43.3097 36.0433 10
    endloop
  endfacet
  facet normal 0 0 1
    outer loop
      vertex 54 47.5 10
      vertex 53.0433 47.6903 10
      vertex 43.5 37 10
    endloop
  endfacet
  facet normal 0 0 1
    outer loop
      vertex 56.5 50 10
      vertex 56.3097 49.0433 10
      vertex 76 72 10
    endloop
  endfacet
  facet normal 0 0 1
    outer loop
      vertex 56.3097 49.0433 10
      vertex 55.7678 48.2322 10
      vertex 76 72 10
    endloop
  endfacet
  facet normal 0 0 1
    outer loop
      vertex 54.9567 47.6903 10
      vertex 43.3097 36.0433 10
      vertex 20 0 10
    endloop
  endfacet
  facet normal 0 0 1
    outer loop
      vertex 55.7678 48.2322 10
      vertex 54.9567 47.6903 10
      vertex 20 0 10
    endloop
  endfacet
  facet normal 0 0 1
    outer loop
      vertex 53.0433 47.6903 10
      vertex 52.2322 48.2322 10
      vertex 43.3097 37.9567 10
    endloop
  endfacet
  facet normal 0 0 1
    outer loop
      vertex 43.3097 37.9567 10
      vertex 43.5 37 10
      vertex 53.0433 47.6903 10
    endloop
  endfacet
  facet normal 0 0 1
    outer loop
      vertex 42.7678 35.2322 10
      vertex 41.9567 34.6903 10
      vertex 20 0 10
    endloop
  endfacet
  facet normal 0 0 1
    outer loop
      vertex 0 20 10
      vertex 12.3607 48.4886 10
      vertex 6.76522 42.2742 10
    endloop
  endfacet
  facet normal 0 0 1
    outer loop
      vertex 0 20 10
      vertex 16.5418 55.7305 10
      vertex 12.3607 48.4886 10
    endloop
  endfacet
  facet normal 0 0 1
    outer loop
      vertex 16.5418 55.7305 10
      vertex 20 20 10
      vertex 19.1259 63.6835 10
    endloop
  endfacet
  facet normal 0 0 1
    outer loop
      vertex 0 20 10
      vertex 20 20 10
      vertex 16.5418 55.7305 10
    endloop
  endfacet
  facet normal 0 0 1
    outer loop
      vertex 20 0 10
      vertex 0 0 10
      vertex 7.89338 -18.2323 10
    endloop
  endfacet
  facet normal 1 0 0
    outer loop
      vertex 36 -20 0
      vertex 36 -20 10
      vertex 36 -80 10
    endloop
  endfacet
  facet normal 1 0 0
    outer loop
      vertex 36 -80 0
      vertex 36 -20 0
      vertex 36 -80 10
    endloop
  endfacet
  facet normal 0.994522 -0.104528 0
    outer loop
      vertex 36.8741 -11.6835 0
      vertex 36.8741 -11.6835 10
      vertex 36 -20 10
    endloop
  endfacet
  facet normal 0.994522 -0.104528 0
    outer loop
      vertex 36 -20 0
      vertex 36.8741 -11.6835 0
      vertex 36 -20 10
    endloop
  endfacet
  facet normal 0.951057 -0.309017 0
    outer loop
      vertex 39.4582 -3.73053 0
      vertex 39.4582 -3.73053 10
      vertex 36.8741 -11.6835 10
    endloop
  endfacet
  facet normal 0.951057 -0.309017 0
    outer loop
      vertex 36.8741 -11.6835 0
      vertex 39.4582 -3.73053 0
      vertex 36.8741 -11.6835 10
    endloop
  endfacet
  facet normal 0.866025 -0.5 0
    outer loop
      vertex 43.6393 3.51141 0
      vertex 43.6393 3.51141 10
      vertex 39.4582 -3.73053 10
    endloop
  endfacet
  facet normal 0.866025 -0.5 0
    outer loop
      vertex 39.4582 -3.73053 0
      vertex 43.6393 3.51141 0
      vertex 39.4582 -3.73053 10
    endloop
  endfacet
  facet normal 0.743145 -0.669131 0
    outer loop
      vertex 49.2348 9.72579 0
      vertex 49.2348 9.72579 10
      vertex 43.6393 3.51141 10
    endloop
  endfacet
  facet normal 0.743145 -0.669131 0
    outer loop
      vertex 43.6393 3.51141 0
      vertex 49.2348 9.72579 0
      vertex 43.6393 3.51141 10
    endloop
  endfacet
  facet normal 0.587785 -0.809017 0
    outer loop
      vertex 56 14.641 0
      vertex 56 14.641 10
      vertex 49.2348 9.72579 10
    endloop
  endfacet
  facet normal 0.587785 -0.809017 0
    outer loop
      vertex 49.2348 9.72579 0
      vertex 56 14.641 0
      vertex 49.2348 9.72579 10
    endloop
  endfacet
  facet normal 0.406737 -0.913545 0
    outer loop
      vertex 63.6393 18.0423 0
      vertex 63.6393 18.0423 10
      vertex 56 14.641 10
    endloop
  endfacet
  facet normal 0.406737 -0.913545 0
    outer loop
      vertex 56 14.641 0
      vertex 63.6393 18.0423 0
      vertex 56 14.641 10
    endloop
  endfacet
  facet normal 0.207912 -0.978148 0
    outer loop
      vertex 71.8189 19.7809 0
      vertex 71.8189 19.7809 10
      vertex 63.6393 18.0423 10
    endloop
  endfacet
  facet normal 0.207912 -0.978148 0
    outer loop
      vertex 63.6393 18.0423 0
      vertex 71.8189 19.7809 0
      vertex 63.6393 18.0423 10
    endloop
  endfacet
  facet normal 0 -1 0
    outer loop
      vertex 76 19.7809 0
      vertex 76 19.7809 10
      vertex 71.8189 19.7809 10
    endloop
  endfacet
  facet normal 0 -1 0
    outer loop
      vertex 71.8189 19.7809 0
      vertex 76 19.7809 0
      vertex 71.8189 19.7809 10
    endloop
  endfacet
  facet normal 1 0 0
    outer loop
      vertex 76 19.7809 10
      vertex 76 19.7809 0
      vertex 76 72 0
    endloop
  endfacet
  facet normal 1 0 0
    outer loop
      vertex 76 72 10
      vertex 76 19.7809 10
      vertex 76 72 0
    endloop
  endfacet
  facet normal 0 1 0
    outer loop
      vertex 20 72 0
      vertex 20 72 10
      vertex 76 72 0
    endloop
  endfacet
  facet normal 0 1 0
    outer loop
      vertex 76 72 0
      vertex 20 72 10
      vertex 76 72 10
    endloop
  endfacet
  facet normal -0.994522 0.104528 0
    outer loop
      vertex 20 72 10
      vertex 20 72 0
      vertex 19.1259 63.6835 10
    endloop
  endfacet
  facet normal -0.994522 0.104528 0
    outer loop
      vertex 19.1259 63.6835 10
      vertex 20 72 0
      vertex 19.1259 63.6835 0
    endloop
  endfacet
  facet normal -0.951057 0.309017 0
    outer loop
      vertex 19.1259 63.6835 10
      vertex 19.1259 63.6835 0
      vertex 16.5418 55.7305 10
    endloop
  endfacet
  facet normal -0.951057 0.309017 0
    outer loop
      vertex 16.5418 55.7305 10
      vertex 19.1259 63.6835 0
      vertex 16.5418 55.7305 0
    endloop
  endfacet
  facet normal -0.866025 0.5 0
    outer loop
      vertex 16.5418 55.7305 10
      vertex 16.5418 55.7305 0
      vertex 12.3607 48.4886 10
    endloop
  endfacet
  facet normal -0.866025 0.5 0
    outer loop
      vertex 12.3607 48.4886 10
      vertex 16.5418 55.7305 0
      vertex 12.3607 48.4886 0
    endloop
  endfacet
  facet normal -0.743145 0.669131 0
    outer loop
      vertex 12.3607 48.4886 10
      vertex 12.3607 48.4886 0
      vertex 6.76522 42.2742 10
    endloop
  endfacet
  facet normal -0.743145 0.669131 0
    outer loop
      vertex 6.76522 42.2742 10
      vertex 12.3607 48.4886 0
      vertex 6.76522 42.2742 0
    endloop
  endfacet
  facet normal -0.587785 0.809017 0
    outer loop
      vertex 6.76522 42.2742 10
      vertex 6.76522 42.2742 0
      vertex 0 37.359 10
    endloop
  endfacet
  facet normal -0.587785 0.809017 0
    outer loop
      vertex 0 37.359 10
      vertex 6.76522 42.2742 0
      vertex 0 37.359 0
    endloop
  endfacet
  facet normal 0.984808 -0.173648 0
    outer loop
      vertex 7.41585 -59.0594 0
      vertex 7.41585 -59.0594 10
      vertex 7.25 -60 10
    endloop
  endfacet
  facet normal 0.984808 -0.173648 0
    outer loop
      vertex 7.25 -60 0
      vertex 7.41585 -59.0594 0
      vertex 7.25 -60 10
    endloop
  endfacet
  facet normal 0.984808 0.173648 0
    outer loop
      vertex 7.25 -60 10
      vertex 7.41585 -60.9406 10
      vertex 7.41585 -60.9406 0
    endloop
  endfacet
  facet normal 0.984808 0.173648 0
    outer loop
      vertex 7.25 -60 0
      vertex 7.25 -60 10
      vertex 7.41585 -60.9406 0
    endloop
  endfacet
  facet normal 0.866025 -0.5 0
    outer loop
      vertex 7.89338 -58.2323 0
      vertex 7.89338 -58.2323 10
      vertex 7.41585 -59.0594 10
    endloop
  endfacet
  facet normal 0.866025 -0.5 0
    outer loop
      vertex 7.41585 -59.0594 0
      vertex 7.89338 -58.2323 0
      vertex 7.41585 -59.0594 10
    endloop
  endfacet
  facet normal 0.642788 -0.766044 0
    outer loop
      vertex 8.625 -57.6184 0
      vertex 8.625 -57.6184 10
      vertex 7.89338 -58.2323 10
    endloop
  endfacet
  facet normal 0.642788 -0.766044 0
    outer loop
      vertex 7.89338 -58.2323 0
      vertex 8.625 -57.6184 0
      vertex 7.89338 -58.2323 10
    endloop
  endfacet
  facet normal 0.34202 -0.939693 0
    outer loop
      vertex 9.52247 -57.2918 0
      vertex 9.52247 -57.2918 10
      vertex 8.625 -57.6184 10
    endloop
  endfacet
  facet normal 0.34202 -0.939693 0
    outer loop
      vertex 8.625 -57.6184 0
      vertex 9.52247 -57.2918 0
      vertex 8.625 -57.6184 10
    endloop
  endfacet
  facet normal 0 -1 0
    outer loop
      vertex 10.4775 -57.2918 0
      vertex 10.4775 -57.2918 10
      vertex 9.52247 -57.2918 10
    endloop
  endfacet
  facet normal 0 -1 0
    outer loop
      vertex 9.52247 -57.2918 0
      vertex 10.4775 -57.2918 0
      vertex 9.52247 -57.2918 10
    endloop
  endfacet
  facet normal -0.34202 -0.939693 0
    outer loop
      vertex 11.375 -57.6184 0
      vertex 11.375 -57.6184 10
      vertex 10.4775 -57.2918 10
    endloop
  endfacet
  facet normal -0.34202 -0.939693 0
    outer loop
      vertex 10.4775 -57.2918 0
      vertex 11.375 -57.6184 0
      vertex 10.4775 -57.2918 10
    endloop
  endfacet
  facet normal -0.642788 -0.766044 0
    outer loop
      vertex 12.1066 -58.2323 0
      vertex 12.1066 -58.2323 10
      vertex 11.375 -57.6184 10
    endloop
  endfacet
  facet normal -0.642788 -0.766044 0
    outer loop
      vertex 11.375 -57.6184 0
      vertex 12.1066 -58.2323 0
      vertex 11.375 -57.6184 10
    endloop
  endfacet
  facet normal -0.866025 -0.5 0
    outer loop
      vertex 12.5842 -59.0594 10
      vertex 12.1066 -58.2323 10
      vertex 12.5842 -59.0594 0
    endloop
  endfacet
  facet normal -0.866025 -0.5 0
    outer loop
      vertex 12.5842 -59.0594 0
      vertex 12.1066 -58.2323 10
      vertex 12.1066 -58.2323 0
    endloop
  endfacet
  facet normal -0.984808 -0.173648 0
    outer loop
      vertex 12.75 -60 10
      vertex 12.5842 -59.0594 10
      vertex 12.75 -60 0
    endloop
  endfacet
  facet normal -0.984808 -0.173648 0
    outer loop
      vertex 12.75 -60 0
      vertex 12.5842 -59.0594 10
      vertex 12.5842 -59.0594 0
    endloop
  endfacet
  facet normal -0.984808 0.173648 0
    outer loop
      vertex 12.75 -60 10
      vertex 12.75 -60 0
      vertex 12.5842 -60.9406 10
    endloop
  endfacet
  facet normal -0.984808 0.173648 0
    outer loop
      vertex 12.5842 -60.9406 10
      vertex 12.75 -60 0
      vertex 12.5842 -60.9406 0
    endloop
  endfacet
  facet normal -0.866025 0.5 0
    outer loop
      vertex 12.5842 -60.9406 10
      vertex 12.5842 -60.9406 0
      vertex 12.1066 -61.7677 10
    endloop
  endfacet
  facet normal -0.866025 0.5 0
    outer loop
      vertex 12.1066 -61.7677 10
      vertex 12.5842 -60.9406 0
      vertex 12.1066 -61.7677 0
    endloop
  endfacet
  facet normal -0.642788 0.766044 0
    outer loop
      vertex 12.1066 -61.7677 10
      vertex 12.1066 -61.7677 0
      vertex 11.375 -62.3816 10
    endloop
  endfacet
  facet normal -0.642788 0.766044 0
    outer loop
      vertex 11.375 -62.3816 10
      vertex 12.1066 -61.7677 0
      vertex 11.375 -62.3816 0
    endloop
  endfacet
  facet normal -0.34202 0.939693 0
    outer loop
      vertex 11.375 -62.3816 10
      vertex 11.375 -62.3816 0
      vertex 10.4775 -62.7082 10
    endloop
  endfacet
  facet normal -0.34202 0.939693 0
    outer loop
      vertex 10.4775 -62.7082 10
      vertex 11.375 -62.3816 0
      vertex 10.4775 -62.7082 0
    endloop
  endfacet
  facet normal 0 1 0
    outer loop
      vertex 10.4775 -62.7082 10
      vertex 10.4775 -62.7082 0
      vertex 9.52247 -62.7082 10
    endloop
  endfacet
  facet normal 0 1 0
    outer loop
      vertex 9.52247 -62.7082 10
      vertex 10.4775 -62.7082 0
      vertex 9.52247 -62.7082 0
    endloop
  endfacet
  facet normal 0.34202 0.939693 0
    outer loop
      vertex 9.52247 -62.7082 10
      vertex 9.52247 -62.7082 0
      vertex 8.625 -62.3816 10
    endloop
  endfacet
  facet normal 0.34202 0.939693 0
    outer loop
      vertex 8.625 -62.3816 10
      vertex 9.52247 -62.7082 0
      vertex 8.625 -62.3816 0
    endloop
  endfacet
  facet normal 0.642788 0.766044 0
    outer loop
      vertex 8.625 -62.3816 10
      vertex 8.625 -62.3816 0
      vertex 7.89338 -61.7677 10
    endloop
  endfacet
  facet normal 0.642788 0.766044 0
    outer loop
      vertex 7.89338 -61.7677 10
      vertex 8.625 -62.3816 0
      vertex 7.89338 -61.7677 0
    endloop
  endfacet
  facet normal 0.866025 0.5 0
    outer loop
      vertex 7.41585 -60.9406 10
      vertex 7.89338 -61.7677 10
      vertex 7.89338 -61.7677 0
    endloop
  endfacet
  facet normal 0.866025 0.5 0
    outer loop
      vertex 7.41585 -60.9406 0
      vertex 7.41585 -60.9406 10
      vertex 7.89338 -61.7677 0
    endloop
  endfacet
  facet normal 0.984808 -0.173648 0
    outer loop
      vertex 7.41585 -19.0594 0
      vertex 7.41585 -19.0594 10
      vertex 7.25 -20 10
    endloop
  endfacet
  facet normal 0.984808 -0.173648 0
    outer loop
      vertex 7.25 -20 0
      vertex 7.41585 -19.0594 0
      vertex 7.25 -20 10
    endloop
  endfacet
  facet normal 0.984808 0.173648 0
    outer loop
      vertex 7.25 -20 10
      vertex 7.41585 -20.9406 10
      vertex 7.41585 -20.9406 0
    endloop
  endfacet
  facet normal 0.984808 0.173648 0
    outer loop
      vertex 7.25 -20 0
      vertex 7.25 -20 10
      vertex 7.41585 -20.9406 0
    endloop
  endfacet
  facet normal 0.866025 -0.5 0
    outer loop
      vertex 7.89338 -18.2323 0
      vertex 7.89338 -18.2323 10
      vertex 7.41585 -19.0594 10
    endloop
  endfacet
  facet normal 0.866025 -0.5 0
    outer loop
      vertex 7.41585 -19.0594 0
      vertex 7.89338 -18.2323 0
      vertex 7.41585 -19.0594 10
    endloop
  endfacet
  facet normal 0.642788 -0.766044 0
    outer loop
      vertex 8.625 -17.6184 0
      vertex 8.625 -17.6184 10
      vertex 7.89338 -18.2323 10
    endloop
  endfacet
  facet normal 0.642788 -0.766044 0
    outer loop
      vertex 7.89338 -18.2323 0
      vertex 8.625 -17.6184 0
      vertex 7.89338 -18.2323 10
    endloop
  endfacet
  facet normal 0.34202 -0.939693 0
    outer loop
      vertex 9.52247 -17.2918 0
      vertex 9.52247 -17.2918 10
      vertex 8.625 -17.6184 10
    endloop
  endfacet
  facet normal 0.34202 -0.939693 0
    outer loop
      vertex 8.625 -17.6184 0
      vertex 9.52247 -17.2918 0
      vertex 8.625 -17.6184 10
    endloop
  endfacet
  facet normal 0 -1 0
    outer loop
      vertex 10.4775 -17.2918 0
      vertex 10.4775 -17.2918 10
      vertex 9.52247 -17.2918 10
    endloop
  endfacet
  facet normal 0 -1 0
    outer loop
      vertex 9.52247 -17.2918 0
      vertex 10.4775 -17.2918 0
      vertex 9.52247 -17.2918 10
    endloop
  endfacet
  facet normal -0.34202 -0.939693 0
    outer loop
      vertex 11.375 -17.6184 0
      vertex 11.375 -17.6184 10
      vertex 10.4775 -17.2918 10
    endloop
  endfacet
  facet normal -0.34202 -0.939693 0
    outer loop
      vertex 10.4775 -17.2918 0
      vertex 11.375 -17.6184 0
      vertex 10.4775 -17.2918 10
    endloop
  endfacet
  facet normal -0.642788 -0.766044 0
    outer loop
      vertex 12.1066 -18.2323 0
      vertex 12.1066 -18.2323 10
      vertex 11.375 -17.6184 10
    endloop
  endfacet
  facet normal -0.642788 -0.766044 0
    outer loop
      vertex 11.375 -17.6184 0
      vertex 12.1066 -18.2323 0
      vertex 11.375 -17.6184 10
    endloop
  endfacet
  facet normal -0.866025 -0.5 0
    outer loop
      vertex 12.5842 -19.0594 10
      vertex 12.1066 -18.2323 10
      vertex 12.5842 -19.0594 0
    endloop
  endfacet
  facet normal -0.866025 -0.5 0
    outer loop
      vertex 12.5842 -19.0594 0
      vertex 12.1066 -18.2323 10
      vertex 12.1066 -18.2323 0
    endloop
  endfacet
  facet normal -0.984808 -0.173648 0
    outer loop
      vertex 12.75 -20 10
      vertex 12.5842 -19.0594 10
      vertex 12.75 -20 0
    endloop
  endfacet
  facet normal -0.984808 -0.173648 0
    outer loop
      vertex 12.75 -20 0
      vertex 12.5842 -19.0594 10
      vertex 12.5842 -19.0594 0
    endloop
  endfacet
  facet normal -0.984808 0.173648 0
    outer loop
      vertex 12.75 -20 10
      vertex 12.75 -20 0
      vertex 12.5842 -20.9406 10
    endloop
  endfacet
  facet normal -0.984808 0.173648 0
    outer loop
      vertex 12.5842 -20.9406 10
      vertex 12.75 -20 0
      vertex 12.5842 -20.9406 0
    endloop
  endfacet
  facet normal -0.866025 0.5 0
    outer loop
      vertex 12.5842 -20.9406 10
      vertex 12.5842 -20.9406 0
      vertex 12.1066 -21.7677 10
    endloop
  endfacet
  facet normal -0.866025 0.5 0
    outer loop
      vertex 12.1066 -21.7677 10
      vertex 12.5842 -20.9406 0
      vertex 12.1066 -21.7677 0
    endloop
  endfacet
  facet normal -0.642788 0.766044 0
    outer loop
      vertex 12.1066 -21.7677 10
      vertex 12.1066 -21.7677 0
      vertex 11.375 -22.3816 10
    endloop
  endfacet
  facet normal -0.642788 0.766044 0
    outer loop
      vertex 11.375 -22.3816 10
      vertex 12.1066 -21.7677 0
      vertex 11.375 -22.3816 0
    endloop
  endfacet
  facet normal -0.34202 0.939693 0
    outer loop
      vertex 11.375 -22.3816 10
      vertex 11.375 -22.3816 0
      vertex 10.4775 -22.7082 10
    endloop
  endfacet
  facet normal -0.34202 0.939693 0
    outer loop
      vertex 10.4775 -22.7082 10
      vertex 11.375 -22.3816 0
      vertex 10.4775 -22.7082 0
    endloop
  endfacet
  facet normal 0 1 0
    outer loop
      vertex 10.4775 -22.7082 10
      vertex 10.4775 -22.7082 0
      vertex 9.52247 -22.7082 10
    endloop
  endfacet
  facet normal 0 1 0
    outer loop
      vertex 9.52247 -22.7082 10
      vertex 10.4775 -22.7082 0
      vertex 9.52247 -22.7082 0
    endloop
  endfacet
  facet normal 0.34202 0.939693 0
    outer loop
      vertex 9.52247 -22.7082 10
      vertex 9.52247 -22.7082 0
      vertex 8.625 -22.3816 10
    endloop
  endfacet
  facet normal 0.34202 0.939693 0
    outer loop
      vertex 8.625 -22.3816 10
      vertex 9.52247 -22.7082 0
      vertex 8.625 -22.3816 0
    endloop
  endfacet
  facet normal 0.642788 0.766044 0
    outer loop
      vertex 8.625 -22.3816 10
      vertex 8.625 -22.3816 0
      vertex 7.89338 -21.7677 10
    endloop
  endfacet
  facet normal 0.642788 0.766044 0
    outer loop
      vertex 7.89338 -21.7677 10
      vertex 8.625 -22.3816 0
      vertex 7.89338 -21.7677 0
    endloop
  endfacet
  facet normal 0.866025 0.5 0
    outer loop
      vertex 7.41585 -20.9406 10
      vertex 7.89338 -21.7677 10
      vertex 7.89338 -21.7677 0
    endloop
  endfacet
  facet normal 0.866025 0.5 0
    outer loop
      vertex 7.41585 -20.9406 0
      vertex 7.41585 -20.9406 10
      vertex 7.89338 -21.7677 0
    endloop
  endfacet
  facet normal 0.980785 0.19509 0
    outer loop
      vertex 38.5 37 10
      vertex 38.6903 36.0433 10
      vertex 38.6903 36.0433 0
    endloop
  endfacet
  facet normal 0.980785 0.19509 0
    outer loop
      vertex 38.5 37 0
      vertex 38.5 37 10
      vertex 38.6903 36.0433 0
    endloop
  endfacet
  facet normal 0.980785 -0.19509 0
    outer loop
      vertex 38.6903 37.9567 0
      vertex 38.6903 37.9567 10
      vertex 38.5 37 10
    endloop
  endfacet
  facet normal 0.980785 -0.19509 0
    outer loop
      vertex 38.5 37 0
      vertex 38.6903 37.9567 0
      vertex 38.5 37 10
    endloop
  endfacet
  facet normal 0.831469 -0.55557 0
    outer loop
      vertex 39.2322 38.7678 0
      vertex 39.2322 38.7678 10
      vertex 38.6903 37.9567 10
    endloop
  endfacet
  facet normal 0.831469 -0.55557 0
    outer loop
      vertex 38.6903 37.9567 0
      vertex 39.2322 38.7678 0
      vertex 38.6903 37.9567 10
    endloop
  endfacet
  facet normal 0.55557 -0.831469 0
    outer loop
      vertex 40.0433 39.3097 0
      vertex 40.0433 39.3097 10
      vertex 39.2322 38.7678 10
    endloop
  endfacet
  facet normal 0.55557 -0.831469 0
    outer loop
      vertex 39.2322 38.7678 0
      vertex 40.0433 39.3097 0
      vertex 39.2322 38.7678 10
    endloop
  endfacet
  facet normal 0.19509 -0.980785 0
    outer loop
      vertex 41 39.5 0
      vertex 41 39.5 10
      vertex 40.0433 39.3097 10
    endloop
  endfacet
  facet normal 0.19509 -0.980785 0
    outer loop
      vertex 40.0433 39.3097 0
      vertex 41 39.5 0
      vertex 40.0433 39.3097 10
    endloop
  endfacet
  facet normal -0.19509 -0.980785 0
    outer loop
      vertex 41.9567 39.3097 0
      vertex 41.9567 39.3097 10
      vertex 41 39.5 10
    endloop
  endfacet
  facet normal -0.19509 -0.980785 0
    outer loop
      vertex 41 39.5 0
      vertex 41.9567 39.3097 0
      vertex 41 39.5 10
    endloop
  endfacet
  facet normal -0.55557 -0.831469 0
    outer loop
      vertex 42.7678 38.7678 0
      vertex 42.7678 38.7678 10
      vertex 41.9567 39.3097 10
    endloop
  endfacet
  facet normal -0.55557 -0.831469 0
    outer loop
      vertex 41.9567 39.3097 0
      vertex 42.7678 38.7678 0
      vertex 41.9567 39.3097 10
    endloop
  endfacet
  facet normal -0.831469 -0.55557 0
    outer loop
      vertex 43.3097 37.9567 10
      vertex 42.7678 38.7678 10
      vertex 43.3097 37.9567 0
    endloop
  endfacet
  facet normal -0.831469 -0.55557 0
    outer loop
      vertex 43.3097 37.9567 0
      vertex 42.7678 38.7678 10
      vertex 42.7678 38.7678 0
    endloop
  endfacet
  facet normal -0.980785 -0.19509 0
    outer loop
      vertex 43.5 37 10
      vertex 43.3097 37.9567 10
      vertex 43.5 37 0
    endloop
  endfacet
  facet normal -0.980785 -0.19509 0
    outer loop
      vertex 43.5 37 0
      vertex 43.3097 37.9567 10
      vertex 43.3097 37.9567 0
    endloop
  endfacet
  facet normal -0.980785 0.19509 0
    outer loop
      vertex 43.5 37 10
      vertex 43.5 37 0
      vertex 43.3097 36.0433 10
    endloop
  endfacet
  facet normal -0.980785 0.19509 0
    outer loop
      vertex 43.3097 36.0433 10
      vertex 43.5 37 0
      vertex 43.3097 36.0433 0
    endloop
  endfacet
  facet normal -0.831469 0.55557 0
    outer loop
      vertex 43.3097 36.0433 10
      vertex 43.3097 36.0433 0
      vertex 42.7678 35.2322 10
    endloop
  endfacet
  facet normal -0.831469 0.55557 0
    outer loop
      vertex 42.7678 35.2322 10
      vertex 43.3097 36.0433 0
      vertex 42.7678 35.2322 0
    endloop
  endfacet
  facet normal -0.55557 0.831469 0
    outer loop
      vertex 42.7678 35.2322 10
      vertex 42.7678 35.2322 0
      vertex 41.9567 34.6903 10
    endloop
  endfacet
  facet normal -0.55557 0.831469 0
    outer loop
      vertex 41.9567 34.6903 10
      vertex 42.7678 35.2322 0
      vertex 41.9567 34.6903 0
    endloop
  endfacet
  facet normal -0.19509 0.980785 0
    outer loop
      vertex 41.9567 34.6903 10
      vertex 41.9567 34.6903 0
      vertex 41 34.5 10
    endloop
  endfacet
  facet normal -0.19509 0.980785 0
    outer loop
      vertex 41 34.5 10
      vertex 41.9567 34.6903 0
      vertex 41 34.5 0
    endloop
  endfacet
  facet normal 0.19509 0.980785 0
    outer loop
      vertex 41 34.5 10
      vertex 41 34.5 0
      vertex 40.0433 34.6903 10
    endloop
  endfacet
  facet normal 0.19509 0.980785 0
    outer loop
      vertex 40.0433 34.6903 10
      vertex 41 34.5 0
      vertex 40.0433 34.6903 0
    endloop
  endfacet
  facet normal 0.55557 0.831469 0
    outer loop
      vertex 40.0433 34.6903 10
      vertex 40.0433 34.6903 0
      vertex 39.2322 35.2322 10
    endloop
  endfacet
  facet normal 0.55557 0.831469 0
    outer loop
      vertex 39.2322 35.2322 10
      vertex 40.0433 34.6903 0
      vertex 39.2322 35.2322 0
    endloop
  endfacet
  facet normal 0.831469 0.55557 0
    outer loop
      vertex 38.6903 36.0433 10
      vertex 39.2322 35.2322 10
      vertex 39.2322 35.2322 0
    endloop
  endfacet
  facet normal 0.831469 0.55557 0
    outer loop
      vertex 38.6903 36.0433 0
      vertex 38.6903 36.0433 10
      vertex 39.2322 35.2322 0
    endloop
  endfacet
  facet normal 0.980785 -0.19509 0
    outer loop
      vertex 51.6903 50.9567 0
      vertex 51.6903 50.9567 10
      vertex 51.5 50 10
    endloop
  endfacet
  facet normal 0.980785 -0.19509 0
    outer loop
      vertex 51.5 50 0
      vertex 51.6903 50.9567 0
      vertex 51.5 50 10
    endloop
  endfacet
  facet normal 0.980785 0.19509 0
    outer loop
      vertex 51.5 50 10
      vertex 51.6903 49.0433 10
      vertex 51.6903 49.0433 0
    endloop
  endfacet
  facet normal 0.980785 0.19509 0
    outer loop
      vertex 51.5 50 0
      vertex 51.5 50 10
      vertex 51.6903 49.0433 0
    endloop
  endfacet
  facet normal 0.831469 -0.55557 0
    outer loop
      vertex 52.2322 51.7678 0
      vertex 52.2322 51.7678 10
      vertex 51.6903 50.9567 10
    endloop
  endfacet
  facet normal 0.831469 -0.55557 0
    outer loop
      vertex 51.6903 50.9567 0
      vertex 52.2322 51.7678 0
      vertex 51.6903 50.9567 10
    endloop
  endfacet
  facet normal 0.55557 -0.831469 0
    outer loop
      vertex 53.0433 52.3097 0
      vertex 53.0433 52.3097 10
      vertex 52.2322 51.7678 10
    endloop
  endfacet
  facet normal 0.55557 -0.831469 0
    outer loop
      vertex 52.2322 51.7678 0
      vertex 53.0433 52.3097 0
      vertex 52.2322 51.7678 10
    endloop
  endfacet
  facet normal 0.19509 -0.980785 0
    outer loop
      vertex 54 52.5 0
      vertex 54 52.5 10
      vertex 53.0433 52.3097 10
    endloop
  endfacet
  facet normal 0.19509 -0.980785 0
    outer loop
      vertex 53.0433 52.3097 0
      vertex 54 52.5 0
      vertex 53.0433 52.3097 10
    endloop
  endfacet
  facet normal -0.19509 -0.980785 0
    outer loop
      vertex 54.9567 52.3097 0
      vertex 54.9567 52.3097 10
      vertex 54 52.5 10
    endloop
  endfacet
  facet normal -0.19509 -0.980785 0
    outer loop
      vertex 54 52.5 0
      vertex 54.9567 52.3097 0
      vertex 54 52.5 10
    endloop
  endfacet
  facet normal -0.55557 -0.831469 0
    outer loop
      vertex 55.7678 51.7678 0
      vertex 55.7678 51.7678 10
      vertex 54.9567 52.3097 10
    endloop
  endfacet
  facet normal -0.55557 -0.831469 0
    outer loop
      vertex 54.9567 52.3097 0
      vertex 55.7678 51.7678 0
      vertex 54.9567 52.3097 10
    endloop
  endfacet
  facet normal -0.831469 -0.55557 0
    outer loop
      vertex 56.3097 50.9567 10
      vertex 55.7678 51.7678 10
      vertex 56.3097 50.9567 0
    endloop
  endfacet
  facet normal -0.831469 -0.55557 0
    outer loop
      vertex 56.3097 50.9567 0
      vertex 55.7678 51.7678 10
      vertex 55.7678 51.7678 0
    endloop
  endfacet
  facet normal -0.980785 -0.19509 0
    outer loop
      vertex 56.5 50 10
      vertex 56.3097 50.9567 10
      vertex 56.5 50 0
    endloop
  endfacet
  facet normal -0.980785 -0.19509 0
    outer loop
      vertex 56.5 50 0
      vertex 56.3097 50.9567 10
      vertex 56.3097 50.9567 0
    endloop
  endfacet
  facet normal -0.980785 0.19509 0
    outer loop
      vertex 56.5 50 10
      vertex 56.5 50 0
      vertex 56.3097 49.0433 10
    endloop
  endfacet
  facet normal -0.980785 0.19509 0
    outer loop
      vertex 56.3097 49.0433 10
      vertex 56.5 50 0
      vertex 56.3097 49.0433 0
    endloop
  endfacet
  facet normal -0.831469 0.55557 0
    outer loop
      vertex 56.3097 49.0433 10
      vertex 56.3097 49.0433 0
      vertex 55.7678 48.2322 10
    endloop
  endfacet
  facet normal -0.831469 0.55557 0
    outer loop
      vertex 55.7678 48.2322 10
      vertex 56.3097 49.0433 0
      vertex 55.7678 48.2322 0
    endloop
  endfacet
  facet normal -0.55557 0.831469 0
    outer loop
      vertex 55.7678 48.2322 10
      vertex 55.7678 48.2322 0
      vertex 54.9567 47.6903 10
    endloop
  endfacet
  facet normal -0.55557 0.831469 0
    outer loop
      vertex 54.9567 47.6903 10
      vertex 55.7678 48.2322 0
      vertex 54.9567 47.6903 0
    endloop
  endfacet
  facet normal -0.19509 0.980785 0
    outer loop
      vertex 54.9567 47.6903 10
      vertex 54.9567 47.6903 0
      vertex 54 47.5 10
    endloop
  endfacet
  facet normal -0.19509 0.980785 0
    outer loop
      vertex 54 47.5 10
      vertex 54.9567 47.6903 0
      vertex 54 47.5 0
    endloop
  endfacet
  facet normal 0.19509 0.980785 0
    outer loop
      vertex 54 47.5 10
      vertex 54 47.5 0
      vertex 53.0433 47.6903 10
    endloop
  endfacet
  facet normal 0.19509 0.980785 0
    outer loop
      vertex 53.0433 47.6903 10
      vertex 54 47.5 0
      vertex 53.0433 47.6903 0
    endloop
  endfacet
  facet normal 0.55557 0.831469 0
    outer loop
      vertex 53.0433 47.6903 10
      vertex 53.0433 47.6903 0
      vertex 52.2322 48.2322 10
    endloop
  endfacet
  facet normal 0.55557 0.831469 0
    outer loop
      vertex 52.2322 48.2322 10
      vertex 53.0433 47.6903 0
      vertex 52.2322 48.2322 0
    endloop
  endfacet
  facet normal 0.831469 0.55557 0
    outer loop
      vertex 51.6903 49.0433 10
      vertex 52.2322 48.2322 10
      vertex 52.2322 48.2322 0
    endloop
  endfacet
  facet normal 0.831469 0.55557 0
    outer loop
      vertex 51.6903 49.0433 0
      vertex 51.6903 49.0433 10
      vertex 52.2322 48.2322 0
    endloop
  endfacet
  facet normal 0 1 0
    outer loop
      vertex 0 20 10
      vertex 0 20 50
      vertex 20 20 10
    endloop
  endfacet
  facet normal 0 1 0
    outer loop
      vertex 20 20 10
      vertex 0 20 50
      vertex 20 20 50
    endloop
  endfacet
  facet normal 0 0 1
    outer loop
      vertex 0 20 50
      vertex 0 0 50
      vertex 20 0 50
    endloop
  endfacet
  facet normal 0 0 1
    outer loop
      vertex 20 20 50
      vertex 0 20 50
      vertex 20 0 50
    endloop
  endfacet
  facet normal 0 -1 0
    outer loop
      vertex 0 0 50
      vertex 0 0 10
      vertex 20 0 10
    endloop
  endfacet
  facet normal 0 -1 0
    outer loop
      vertex 20 0 50
      vertex 0 0 50
      vertex 20 0 10
    endloop
  endfacet
  facet normal 1.96736e-16 0.994138 -0.108119
    outer loop
      vertex 10 5.60521 40.9674
      vertex 10 5.5 40
      vertex 0 5.60521 40.9674
    endloop
  endfacet
  facet normal 1.96736e-16 0.994138 -0.108119
    outer loop
      vertex 0 5.60521 40.9674
      vertex 10 5.5 40
      vertex 0 5.5 40
    endloop
  endfacet
  facet normal 2.4475e-16 0.994138 0.108119
    outer loop
      vertex 10 5.60521 39.0326
      vertex 0 5.60521 39.0326
      vertex 10 5.5 40
    endloop
  endfacet
  facet normal 2.4475e-16 0.994138 0.108119
    outer loop
      vertex 10 5.5 40
      vertex 0 5.60521 39.0326
      vertex 0 5.5 40
    endloop
  endfacet
  facet normal 1.39522e-16 0.947653 -0.319302
    outer loop
      vertex 10 5.91591 41.8895
      vertex 10 5.60521 40.9674
      vertex 0 5.91591 41.8895
    endloop
  endfacet
  facet normal 1.39522e-16 0.947653 -0.319302
    outer loop
      vertex 0 5.91591 41.8895
      vertex 10 5.60521 40.9674
      vertex 0 5.60521 40.9674
    endloop
  endfacet
  facet normal 7.57847e-17 0.856857 -0.515553
    outer loop
      vertex 10 6.41758 42.7233
      vertex 10 5.91591 41.8895
      vertex 0 6.41758 42.7233
    endloop
  endfacet
  facet normal 7.57847e-17 0.856857 -0.515553
    outer loop
      vertex 0 6.41758 42.7233
      vertex 10 5.91591 41.8895
      vertex 0 5.91591 41.8895
    endloop
  endfacet
  facet normal 8.50325e-18 0.725995 -0.6877
    outer loop
      vertex 10 7.08676 43.4297
      vertex 10 6.41758 42.7233
      vertex 0 7.08676 43.4297
    endloop
  endfacet
  facet normal 8.50325e-18 0.725995 -0.6877
    outer loop
      vertex 0 7.08676 43.4297
      vertex 10 6.41758 42.7233
      vertex 0 6.41758 42.7233
    endloop
  endfacet
  facet normal -5.91753e-17 0.561187 -0.827689
    outer loop
      vertex 10 7.89216 43.9758
      vertex 10 7.08676 43.4297
      vertex 0 7.89216 43.9758
    endloop
  endfacet
  facet normal -5.91753e-17 0.561187 -0.827689
    outer loop
      vertex 0 7.89216 43.9758
      vertex 10 7.08676 43.4297
      vertex 0 7.08676 43.4297
    endloop
  endfacet
  facet normal -1.24087e-16 0.370139 -0.928977
    outer loop
      vertex 10 8.79612 44.336
      vertex 10 7.89216 43.9758
      vertex 0 8.79612 44.336
    endloop
  endfacet
  facet normal -1.24087e-16 0.370139 -0.928977
    outer loop
      vertex 0 8.79612 44.336
      vertex 10 7.89216 43.9758
      vertex 0 7.89216 43.9758
    endloop
  endfacet
  facet normal -1.83197e-16 0.161782 -0.986827
    outer loop
      vertex 10 9.75637 44.4934
      vertex 10 8.79612 44.336
      vertex 0 9.75638 44.4934
    endloop
  endfacet
  facet normal -1.83197e-16 0.161782 -0.986827
    outer loop
      vertex 0 9.75638 44.4934
      vertex 10 8.79612 44.336
      vertex 0 8.79612 44.336
    endloop
  endfacet
  facet normal -2.3374e-16 -0.0541389 -0.998533
    outer loop
      vertex 10 10.728 44.4407
      vertex 10 9.75637 44.4934
      vertex 0 10.728 44.4407
    endloop
  endfacet
  facet normal -2.3374e-16 -0.0541389 -0.998533
    outer loop
      vertex 0 10.728 44.4407
      vertex 10 9.75637 44.4934
      vertex 0 9.75638 44.4934
    endloop
  endfacet
  facet normal -2.73354e-16 -0.267528 -0.96355
    outer loop
      vertex 10 11.6656 44.1804
      vertex 10 10.728 44.4407
      vertex 0 11.6656 44.1804
    endloop
  endfacet
  facet normal -2.73354e-16 -0.267528 -0.96355
    outer loop
      vertex 0 11.6656 44.1804
      vertex 10 10.728 44.4407
      vertex 0 10.728 44.4407
    endloop
  endfacet
  facet normal -3.00187e-16 -0.468409 -0.883512
    outer loop
      vertex 10 12.5253 43.7246
      vertex 10 11.6656 44.1804
      vertex 0 12.5253 43.7246
    endloop
  endfacet
  facet normal -3.00187e-16 -0.468409 -0.883512
    outer loop
      vertex 0 12.5253 43.7246
      vertex 10 11.6656 44.1804
      vertex 0 11.6656 44.1804
    endloop
  endfacet
  facet normal -3.12983e-16 -0.647386 -0.762163
    outer loop
      vertex 10 13.267 43.0946
      vertex 10 12.5253 43.7246
      vertex 0 13.267 43.0946
    endloop
  endfacet
  facet normal -3.12983e-16 -0.647386 -0.762163
    outer loop
      vertex 0 13.267 43.0946
      vertex 10 12.5253 43.7246
      vertex 0 12.5253 43.7246
    endloop
  endfacet
  facet normal -3.11144e-16 -0.796094 -0.605173
    outer loop
      vertex 0 13.8559 42.32
      vertex 10 13.8559 42.32
      vertex 10 13.267 43.0946
    endloop
  endfacet
  facet normal -3.11144e-16 -0.796094 -0.605173
    outer loop
      vertex 0 13.267 43.0946
      vertex 0 13.8559 42.32
      vertex 10 13.267 43.0946
    endloop
  endfacet
  facet normal -2.94756e-16 -0.907575 -0.419889
    outer loop
      vertex 0 14.2644 41.4369
      vertex 10 14.2644 41.4369
      vertex 10 13.8559 42.32
    endloop
  endfacet
  facet normal -2.94756e-16 -0.907575 -0.419889
    outer loop
      vertex 0 13.8559 42.32
      vertex 0 14.2644 41.4369
      vertex 10 13.8559 42.32
    endloop
  endfacet
  facet normal -2.64586e-16 -0.97662 -0.214971
    outer loop
      vertex 0 14.4736 40.4865
      vertex 10 14.4736 40.4865
      vertex 10 14.2644 41.4369
    endloop
  endfacet
  facet normal -2.64586e-16 -0.97662 -0.214971
    outer loop
      vertex 0 14.2644 41.4369
      vertex 0 14.4736 40.4865
      vertex 10 14.2644 41.4369
    endloop
  endfacet
  facet normal -2.22045e-16 -1 4.93038e-32
    outer loop
      vertex 10 14.4736 39.5135
      vertex 10 14.4736 40.4865
      vertex 0 14.4736 40.4865
    endloop
  endfacet
  facet normal -2.22045e-16 -1 4.93038e-32
    outer loop
      vertex 0 14.4736 39.5135
      vertex 10 14.4736 39.5135
      vertex 0 14.4736 40.4865
    endloop
  endfacet
  facet normal -1.6912e-16 -0.97662 0.214971
    outer loop
      vertex 10 14.2644 38.5631
      vertex 10 14.4736 39.5135
      vertex 0 14.4736 39.5135
    endloop
  endfacet
  facet normal -1.6912e-16 -0.97662 0.214971
    outer loop
      vertex 0 14.2644 38.5631
      vertex 10 14.2644 38.5631
      vertex 0 14.4736 39.5135
    endloop
  endfacet
  facet normal -1.08288e-16 -0.907575 0.419889
    outer loop
      vertex 10 13.8559 37.68
      vertex 10 14.2644 38.5631
      vertex 0 14.2644 38.5631
    endloop
  endfacet
  facet normal -1.08288e-16 -0.907575 0.419889
    outer loop
      vertex 0 13.8559 37.68
      vertex 10 13.8559 37.68
      vertex 0 14.2644 38.5631
    endloop
  endfacet
  facet normal -4.23928e-17 -0.796094 0.605173
    outer loop
      vertex 10 13.267 36.9054
      vertex 10 13.8559 37.68
      vertex 0 13.8559 37.68
    endloop
  endfacet
  facet normal -4.23928e-17 -0.796094 0.605173
    outer loop
      vertex 0 13.267 36.9054
      vertex 10 13.267 36.9054
      vertex 0 13.8559 37.68
    endloop
  endfacet
  facet normal 2.54856e-17 -0.647386 0.762163
    outer loop
      vertex 10 12.5253 36.2754
      vertex 10 13.267 36.9054
      vertex 0 13.267 36.9054
    endloop
  endfacet
  facet normal 2.54856e-17 -0.647386 0.762163
    outer loop
      vertex 0 12.5253 36.2754
      vertex 10 12.5253 36.2754
      vertex 0 13.267 36.9054
    endloop
  endfacet
  facet normal 9.21714e-17 -0.468409 0.883512
    outer loop
      vertex 10 11.6656 35.8196
      vertex 10 12.5253 36.2754
      vertex 0 12.5253 36.2754
    endloop
  endfacet
  facet normal 9.21714e-17 -0.468409 0.883512
    outer loop
      vertex 0 11.6656 35.8196
      vertex 10 11.6656 35.8196
      vertex 0 12.5253 36.2754
    endloop
  endfacet
  facet normal 1.54548e-16 -0.267528 0.96355
    outer loop
      vertex 10 10.728 35.5593
      vertex 10 11.6656 35.8196
      vertex 0 11.6656 35.8196
    endloop
  endfacet
  facet normal 1.54548e-16 -0.267528 0.96355
    outer loop
      vertex 0 10.728 35.5593
      vertex 10 10.728 35.5593
      vertex 0 11.6656 35.8196
    endloop
  endfacet
  facet normal 2.09698e-16 -0.0541389 0.998533
    outer loop
      vertex 10 9.75637 35.5066
      vertex 10 10.728 35.5593
      vertex 0 10.728 35.5593
    endloop
  endfacet
  facet normal 2.09698e-16 -0.0541389 0.998533
    outer loop
      vertex 0 9.75638 35.5066
      vertex 10 9.75637 35.5066
      vertex 0 10.728 35.5593
    endloop
  endfacet
  facet normal 2.55042e-16 0.161782 0.986827
    outer loop
      vertex 10 8.79612 35.664
      vertex 10 9.75637 35.5066
      vertex 0 9.75638 35.5066
    endloop
  endfacet
  facet normal 2.55042e-16 0.161782 0.986827
    outer loop
      vertex 0 8.79612 35.664
      vertex 10 8.79612 35.664
      vertex 0 9.75638 35.5066
    endloop
  endfacet
  facet normal 2.88461e-16 0.370139 0.928977
    outer loop
      vertex 10 7.89216 36.0242
      vertex 10 8.79612 35.664
      vertex 0 8.79612 35.664
    endloop
  endfacet
  facet normal 2.88461e-16 0.370139 0.928977
    outer loop
      vertex 0 7.89216 36.0242
      vertex 10 7.89216 36.0242
      vertex 0 8.79612 35.664
    endloop
  endfacet
  facet normal 3.08392e-16 0.561187 0.827689
    outer loop
      vertex 10 7.08676 36.5703
      vertex 10 7.89216 36.0242
      vertex 0 7.89216 36.0242
    endloop
  endfacet
  facet normal 3.08392e-16 0.561187 0.827689
    outer loop
      vertex 0 7.08676 36.5703
      vertex 10 7.08676 36.5703
      vertex 0 7.89216 36.0242
    endloop
  endfacet
  facet normal 3.13903e-16 0.725995 0.6877
    outer loop
      vertex 10 7.08676 36.5703
      vertex 0 7.08676 36.5703
      vertex 10 6.41758 37.2767
    endloop
  endfacet
  facet normal 3.13903e-16 0.725995 0.6877
    outer loop
      vertex 10 6.41758 37.2767
      vertex 0 7.08676 36.5703
      vertex 0 6.41758 37.2767
    endloop
  endfacet
  facet normal 3.04736e-16 0.856857 0.515553
    outer loop
      vertex 10 6.41758 37.2767
      vertex 0 6.41758 37.2767
      vertex 10 5.91591 38.1105
    endloop
  endfacet
  facet normal 3.04736e-16 0.856857 0.515553
    outer loop
      vertex 10 5.91591 38.1105
      vertex 0 6.41758 37.2767
      vertex 0 5.91591 38.1105
    endloop
  endfacet
  facet normal 2.81321e-16 0.947653 0.319302
    outer loop
      vertex 10 5.91591 38.1105
      vertex 0 5.91591 38.1105
      vertex 10 5.60521 39.0326
    endloop
  endfacet
  facet normal 2.81321e-16 0.947653 0.319302
    outer loop
      vertex 10 5.60521 39.0326
      vertex 0 5.91591 38.1105
      vertex 0 5.60521 39.0326
    endloop
  endfacet
  facet normal 1 0 0
    outer loop
      vertex 20 0 50
      vertex 20 0 10
      vertex 20 20 10
    endloop
  endfacet
  facet normal 1 0 0
    outer loop
      vertex 20 20 50
      vertex 20 0 50
      vertex 20 20 10
    endloop
  endfacet
  facet normal -1 2.22045e-16 2.22045e-16
    outer loop
      vertex 10 5.91591 38.1105
      vertex 10 5.60521 39.0326
      vertex 10 6.41758 37.2767
    endloop
  endfacet
  facet normal -1 2.22045e-16 2.22045e-16
    outer loop
      vertex 10 6.41758 37.2767
      vertex 10 5.60521 39.0326
      vertex 10 5.5 40
    endloop
  endfacet
  facet normal -1 2.22045e-16 2.22045e-16
    outer loop
      vertex 10 6.41758 37.2767
      vertex 10 5.5 40
      vertex 10 5.60521 40.9674
    endloop
  endfacet
  facet normal -1 2.22045e-16 2.22045e-16
    outer loop
      vertex 10 6.41758 37.2767
      vertex 10 5.60521 40.9674
      vertex 10 5.91591 41.8895
    endloop
  endfacet
  facet normal -1 2.22045e-16 2.22045e-16
    outer loop
      vertex 10 6.41758 37.2767
      vertex 10 5.91591 41.8895
      vertex 10 6.41758 42.7233
    endloop
  endfacet
  facet normal -1 2.22045e-16 2.22045e-16
    outer loop
      vertex 10 6.41758 37.2767
      vertex 10 6.41758 42.7233
      vertex 10 7.08676 43.4297
    endloop
  endfacet
  facet normal -1 2.22045e-16 2.22045e-16
    outer loop
      vertex 10 6.41758 37.2767
      vertex 10 7.08676 43.4297
      vertex 10 7.89216 43.9758
    endloop
  endfacet
  facet normal -1 2.22045e-16 2.22045e-16
    outer loop
      vertex 10 6.41758 37.2767
      vertex 10 7.89216 43.9758
      vertex 10 8.79612 44.336
    endloop
  endfacet
  facet normal -1 2.22045e-16 2.22045e-16
    outer loop
      vertex 10 6.41758 37.2767
      vertex 10 8.79612 44.336
      vertex 10 9.75637 44.4934
    endloop
  endfacet
  facet normal -1 2.22045e-16 2.22045e-16
    outer loop
      vertex 10 6.41758 37.2767
      vertex 10 9.75637 44.4934
      vertex 10 10.728 44.4407
    endloop
  endfacet
  facet normal -1 2.22045e-16 2.22045e-16
    outer loop
      vertex 10 6.41758 37.2767
      vertex 10 10.728 44.4407
      vertex 10 11.6656 44.1804
    endloop
  endfacet
  facet normal -1 2.22045e-16 2.22045e-16
    outer loop
      vertex 10 6.41758 37.2767
      vertex 10 11.6656 44.1804
      vertex 10 12.5253 43.7246
    endloop
  endfacet
  facet normal -1 2.22045e-16 2.22045e-16
    outer loop
      vertex 10 6.41758 37.2767
      vertex 10 12.5253 43.7246
      vertex 10 13.267 43.0946
    endloop
  endfacet
  facet normal -1 2.22045e-16 2.22045e-16
    outer loop
      vertex 10 6.41758 37.2767
      vertex 10 13.267 43.0946
      vertex 10 13.8559 42.32
    endloop
  endfacet
  facet normal -1 2.22045e-16 2.22045e-16
    outer loop
      vertex 10 6.41758 37.2767
      vertex 10 13.8559 42.32
      vertex 10 14.2644 41.4369
    endloop
  endfacet
  facet normal -1 2.22045e-16 2.22045e-16
    outer loop
      vertex 10 6.41758 37.2767
      vertex 10 14.2644 41.4369
      vertex 10 14.4736 40.4865
    endloop
  endfacet
  facet normal -1 2.22045e-16 2.22045e-16
    outer loop
      vertex 10 6.41758 37.2767
      vertex 10 14.4736 40.4865
      vertex 10 14.4736 39.5135
    endloop
  endfacet
  facet normal -1 2.22045e-16 2.22045e-16
    outer loop
      vertex 10 6.41758 37.2767
      vertex 10 14.4736 39.5135
      vertex 10 14.2644 38.5631
    endloop
  endfacet
  facet normal -1 2.22045e-16 2.22045e-16
    outer loop
      vertex 10 6.41758 37.2767
      vertex 10 14.2644 38.5631
      vertex 10 13.8559 37.68
    endloop
  endfacet
  facet normal -1 2.22045e-16 2.22045e-16
    outer loop
      vertex 10 6.41758 37.2767
      vertex 10 13.8559 37.68
      vertex 10 13.267 36.9054
    endloop
  endfacet
  facet normal -1 2.22045e-16 2.22045e-16
    outer loop
      vertex 10 6.41758 37.2767
      vertex 10 13.267 36.9054
      vertex 10 12.5253 36.2754
    endloop
  endfacet
  facet normal -1 2.22045e-16 2.22045e-16
    outer loop
      vertex 10 6.41758 37.2767
      vertex 10 12.5253 36.2754
      vertex 10 11.6656 35.8196
    endloop
  endfacet
  facet normal -1 2.22045e-16 2.22045e-16
    outer loop
      vertex 10 6.41758 37.2767
      vertex 10 11.6656 35.8196
      vertex 10 10.728 35.5593
    endloop
  endfacet
  facet normal -1 2.22045e-16 2.22045e-16
    outer loop
      vertex 10 6.41758 37.2767
      vertex 10 10.728 35.5593
      vertex 10 9.75637 35.5066
    endloop
  endfacet
  facet normal -1 2.22045e-16 2.22045e-16
    outer loop
      vertex 10 6.41758 37.2767
      vertex 10 9.75637 35.5066
      vertex 10 8.79612 35.664
    endloop
  endfacet
  facet normal -1 2.22045e-16 2.22045e-16
    outer loop
      vertex 10 6.41758 37.2767
      vertex 10 8.79612 35.664
      vertex 10 7.89216 36.0242
    endloop
  endfacet
  facet normal -1 2.22045e-16 2.22045e-16
    outer loop
      vertex 10 6.41758 37.2767
      vertex 10 7.89216 36.0242
      vertex 10 7.08676 36.5703
    endloop
  endfacet
endsolid OpenSCAD_Model
