solid OpenSCAD_Model
  facet normal -1 0 0
    outer loop
      vertex 0 19.5 28.5
      vertex 0 0 33
      vertex 0 30 33
    endloop
  endfacet
  facet normal -1 0 0
    outer loop
      vertex 0 70.9812 3.01914
      vertex 0 90 0
      vertex 0 70 2.9
    endloop
  endfacet
  facet normal -1 0 0
    outer loop
      vertex 0 60 33
      vertex 0 68.0946 10.6304
      vertex 0 60 14
    endloop
  endfacet
  facet normal -1 0 0
    outer loop
      vertex 0 6.5 28.5
      vertex 0 0 33
      vertex 0 11.5 28.5
    endloop
  endfacet
  facet normal -1 0 0
    outer loop
      vertex 0 66.5 28.5
      vertex 0 60 33
      vertex 0 90 33
    endloop
  endfacet
  facet normal -1 0 0
    outer loop
      vertex 0 0 0
      vertex 0 0 33
      vertex 0 6.5 28.5
    endloop
  endfacet
  facet normal -1 0 0
    outer loop
      vertex 0 0 0
      vertex 0 6.5 28.5
      vertex 0 6.5 25.5
    endloop
  endfacet
  facet normal -1 0 0
    outer loop
      vertex 0 21.9054 10.6304
      vertex 0 6.5 25.5
      vertex 0 30 14
    endloop
  endfacet
  facet normal -1 0 0
    outer loop
      vertex 0 11.5 25.5
      vertex 0 30 14
      vertex 0 6.5 25.5
    endloop
  endfacet
  facet normal -1 0 0
    outer loop
      vertex 0 15.9299 6.5058
      vertex 0 0 0
      vertex 0 15.9299 7.4942
    endloop
  endfacet
  facet normal -1 0 0
    outer loop
      vertex 0 0 0
      vertex 0 6.5 25.5
      vertex 0 15.9299 7.4942
    endloop
  endfacet
  facet normal -1 0 0
    outer loop
      vertex 0 20.9812 3.01914
      vertex 0 90 0
      vertex 0 20 2.9
    endloop
  endfacet
  facet normal -1 0 0
    outer loop
      vertex 0 0 0
      vertex 0 15.9299 6.5058
      vertex 0 16.1664 5.54612
    endloop
  endfacet
  facet normal -1 0 0
    outer loop
      vertex 0 0 0
      vertex 0 16.1664 5.54612
      vertex 0 16.6258 4.67094
    endloop
  endfacet
  facet normal -1 0 0
    outer loop
      vertex 0 0 0
      vertex 0 16.6258 4.67094
      vertex 0 17.2812 3.93111
    endloop
  endfacet
  facet normal -1 0 0
    outer loop
      vertex 0 0 0
      vertex 0 17.2812 3.93111
      vertex 0 18.0946 3.36963
    endloop
  endfacet
  facet normal -1 0 0
    outer loop
      vertex 0 0 0
      vertex 0 18.0946 3.36963
      vertex 0 19.0188 3.01914
    endloop
  endfacet
  facet normal -1 0 0
    outer loop
      vertex 0 0 0
      vertex 0 19.0188 3.01914
      vertex 0 20 2.9
    endloop
  endfacet
  facet normal -1 0 0
    outer loop
      vertex 0 0 0
      vertex 0 20 2.9
      vertex 0 90 0
    endloop
  endfacet
  facet normal -1 0 0
    outer loop
      vertex 0 21.9054 3.36963
      vertex 0 90 0
      vertex 0 20.9812 3.01914
    endloop
  endfacet
  facet normal -1 0 0
    outer loop
      vertex 0 22.7188 3.93111
      vertex 0 90 0
      vertex 0 21.9054 3.36963
    endloop
  endfacet
  facet normal -1 0 0
    outer loop
      vertex 0 23.3742 4.67094
      vertex 0 90 0
      vertex 0 22.7188 3.93111
    endloop
  endfacet
  facet normal -1 0 0
    outer loop
      vertex 0 23.8336 5.54612
      vertex 0 90 0
      vertex 0 23.3742 4.67094
    endloop
  endfacet
  facet normal -1 0 0
    outer loop
      vertex 0 24.0701 6.5058
      vertex 0 90 0
      vertex 0 23.8336 5.54612
    endloop
  endfacet
  facet normal -1 0 0
    outer loop
      vertex 0 24.0701 7.4942
      vertex 0 30 14
      vertex 0 24.0701 6.5058
    endloop
  endfacet
  facet normal -1 0 0
    outer loop
      vertex 0 21.9054 10.6304
      vertex 0 30 14
      vertex 0 22.7188 10.0689
    endloop
  endfacet
  facet normal -1 0 0
    outer loop
      vertex 0 23.8336 8.45388
      vertex 0 30 14
      vertex 0 24.0701 7.4942
    endloop
  endfacet
  facet normal -1 0 0
    outer loop
      vertex 0 23.3742 9.32906
      vertex 0 30 14
      vertex 0 23.8336 8.45388
    endloop
  endfacet
  facet normal -1 0 0
    outer loop
      vertex 0 22.7188 10.0689
      vertex 0 30 14
      vertex 0 23.3742 9.32906
    endloop
  endfacet
  facet normal -1 0 0
    outer loop
      vertex 0 20.9812 10.9809
      vertex 0 6.5 25.5
      vertex 0 21.9054 10.6304
    endloop
  endfacet
  facet normal -1 0 0
    outer loop
      vertex 0 19.5 25.5
      vertex 0 0 33
      vertex 0 19.5 28.5
    endloop
  endfacet
  facet normal -1 0 0
    outer loop
      vertex 0 20 11.1
      vertex 0 6.5 25.5
      vertex 0 20.9812 10.9809
    endloop
  endfacet
  facet normal -1 0 0
    outer loop
      vertex 0 19.0188 10.9809
      vertex 0 6.5 25.5
      vertex 0 20 11.1
    endloop
  endfacet
  facet normal -1 0 0
    outer loop
      vertex 0 18.0946 10.6304
      vertex 0 6.5 25.5
      vertex 0 19.0188 10.9809
    endloop
  endfacet
  facet normal -1 0 0
    outer loop
      vertex 0 17.2812 10.0689
      vertex 0 6.5 25.5
      vertex 0 18.0946 10.6304
    endloop
  endfacet
  facet normal -1 0 0
    outer loop
      vertex 0 16.6258 9.32906
      vertex 0 6.5 25.5
      vertex 0 17.2812 10.0689
    endloop
  endfacet
  facet normal -1 0 0
    outer loop
      vertex 0 16.1664 8.45388
      vertex 0 6.5 25.5
      vertex 0 16.6258 9.32906
    endloop
  endfacet
  facet normal -1 0 0
    outer loop
      vertex 0 15.9299 7.4942
      vertex 0 6.5 25.5
      vertex 0 16.1664 8.45388
    endloop
  endfacet
  facet normal -1 0 0
    outer loop
      vertex 0 24.5 28.5
      vertex 0 19.5 28.5
      vertex 0 30 33
    endloop
  endfacet
  facet normal -1 0 0
    outer loop
      vertex 0 30 14
      vertex 0 11.5 28.5
      vertex 0 19.5 25.5
    endloop
  endfacet
  facet normal -1 0 0
    outer loop
      vertex 0 60 14
      vertex 0 66.6258 9.32906
      vertex 0 66.1664 8.45388
    endloop
  endfacet
  facet normal -1 0 0
    outer loop
      vertex 0 30 14
      vertex 0 65.9299 7.4942
      vertex 0 65.9299 6.5058
    endloop
  endfacet
  facet normal -1 0 0
    outer loop
      vertex 0 24.0701 6.5058
      vertex 0 30 14
      vertex 0 66.1664 5.54612
    endloop
  endfacet
  facet normal -1 0 0
    outer loop
      vertex 0 24.0701 6.5058
      vertex 0 66.1664 5.54612
      vertex 0 66.6258 4.67094
    endloop
  endfacet
  facet normal -1 0 0
    outer loop
      vertex 0 24.0701 6.5058
      vertex 0 66.6258 4.67094
      vertex 0 67.2812 3.93111
    endloop
  endfacet
  facet normal -1 0 0
    outer loop
      vertex 0 24.0701 6.5058
      vertex 0 67.2812 3.93111
      vertex 0 68.0946 3.36963
    endloop
  endfacet
  facet normal -1 0 0
    outer loop
      vertex 0 24.0701 6.5058
      vertex 0 68.0946 3.36963
      vertex 0 69.0188 3.01914
    endloop
  endfacet
  facet normal -1 0 0
    outer loop
      vertex 0 24.0701 6.5058
      vertex 0 69.0188 3.01914
      vertex 0 90 0
    endloop
  endfacet
  facet normal -1 0 0
    outer loop
      vertex 0 69.0188 3.01914
      vertex 0 70 2.9
      vertex 0 90 0
    endloop
  endfacet
  facet normal -1 0 0
    outer loop
      vertex 0 71.9054 3.36963
      vertex 0 90 0
      vertex 0 70.9812 3.01914
    endloop
  endfacet
  facet normal -1 0 0
    outer loop
      vertex 0 72.7188 3.93111
      vertex 0 90 0
      vertex 0 71.9054 3.36963
    endloop
  endfacet
  facet normal -1 0 0
    outer loop
      vertex 0 73.3742 4.67094
      vertex 0 90 0
      vertex 0 72.7188 3.93111
    endloop
  endfacet
  facet normal -1 0 0
    outer loop
      vertex 0 73.8336 5.54612
      vertex 0 90 0
      vertex 0 73.3742 4.67094
    endloop
  endfacet
  facet normal -1 0 0
    outer loop
      vertex 0 60 14
      vertex 0 66.1664 8.45388
      vertex 0 65.9299 7.4942
    endloop
  endfacet
  facet normal -1 0 0
    outer loop
      vertex 0 74.0701 6.5058
      vertex 0 90 0
      vertex 0 73.8336 5.54612
    endloop
  endfacet
  facet normal -1 0 0
    outer loop
      vertex 0 60 33
      vertex 0 70 11.1
      vertex 0 69.0188 10.9809
    endloop
  endfacet
  facet normal -1 0 0
    outer loop
      vertex 0 73.3742 9.32906
      vertex 0 90 0
      vertex 0 73.8336 8.45388
    endloop
  endfacet
  facet normal -1 0 0
    outer loop
      vertex 0 90 0
      vertex 0 74.0701 7.4942
      vertex 0 73.8336 8.45388
    endloop
  endfacet
  facet normal -1 0 0
    outer loop
      vertex 0 66.5 25.5
      vertex 0 73.3742 9.32906
      vertex 0 60 33
    endloop
  endfacet
  facet normal -1 0 0
    outer loop
      vertex 0 73.3742 9.32906
      vertex 0 72.7188 10.0689
      vertex 0 60 33
    endloop
  endfacet
  facet normal -1 0 0
    outer loop
      vertex 0 11.5 28.5
      vertex 0 30 14
      vertex 0 11.5 25.5
    endloop
  endfacet
  facet normal -1 0 0
    outer loop
      vertex 0 72.7188 10.0689
      vertex 0 71.9054 10.6304
      vertex 0 60 33
    endloop
  endfacet
  facet normal -1 0 0
    outer loop
      vertex 0 67.2812 10.0689
      vertex 0 60 14
      vertex 0 68.0946 10.6304
    endloop
  endfacet
  facet normal -1 0 0
    outer loop
      vertex 0 60 33
      vertex 0 69.0188 10.9809
      vertex 0 68.0946 10.6304
    endloop
  endfacet
  facet normal -1 0 0
    outer loop
      vertex 0 66.5 25.5
      vertex 0 60 33
      vertex 0 66.5 28.5
    endloop
  endfacet
  facet normal -1 0 0
    outer loop
      vertex 0 60 14
      vertex 0 65.9299 7.4942
      vertex 0 30 14
    endloop
  endfacet
  facet normal -1 0 0
    outer loop
      vertex 0 71.5 28.5
      vertex 0 66.5 28.5
      vertex 0 90 33
    endloop
  endfacet
  facet normal -1 0 0
    outer loop
      vertex 0 90 0
      vertex 0 73.3742 9.32906
      vertex 0 66.5 25.5
    endloop
  endfacet
  facet normal -1 0 0
    outer loop
      vertex 0 71.5 25.5
      vertex 0 90 0
      vertex 0 66.5 25.5
    endloop
  endfacet
  facet normal -1 0 0
    outer loop
      vertex 0 84.5 25.5
      vertex 0 90 0
      vertex 0 79.5 25.5
    endloop
  endfacet
  facet normal -1 0 0
    outer loop
      vertex 0 79.5 28.5
      vertex 0 71.5 25.5
      vertex 0 90 33
    endloop
  endfacet
  facet normal -1 0 0
    outer loop
      vertex 0 71.5 25.5
      vertex 0 71.5 28.5
      vertex 0 90 33
    endloop
  endfacet
  facet normal -1 0 0
    outer loop
      vertex 0 79.5 25.5
      vertex 0 71.5 25.5
      vertex 0 79.5 28.5
    endloop
  endfacet
  facet normal -1 0 0
    outer loop
      vertex 0 84.5 28.5
      vertex 0 79.5 28.5
      vertex 0 90 33
    endloop
  endfacet
  facet normal -1 0 0
    outer loop
      vertex 0 90 0
      vertex 0 71.5 25.5
      vertex 0 79.5 25.5
    endloop
  endfacet
  facet normal -1 0 0
    outer loop
      vertex 0 90 0
      vertex 0 84.5 25.5
      vertex 0 90 33
    endloop
  endfacet
  facet normal -1 0 0
    outer loop
      vertex 0 84.5 25.5
      vertex 0 84.5 28.5
      vertex 0 90 33
    endloop
  endfacet
  facet normal -1 0 0
    outer loop
      vertex 0 19.5 25.5
      vertex 0 11.5 28.5
      vertex 0 0 33
    endloop
  endfacet
  facet normal -1 0 0
    outer loop
      vertex 0 66.1664 5.54612
      vertex 0 30 14
      vertex 0 65.9299 6.5058
    endloop
  endfacet
  facet normal -1 0 0
    outer loop
      vertex 0 30 14
      vertex 0 19.5 25.5
      vertex 0 24.5 25.5
    endloop
  endfacet
  facet normal -1 0 0
    outer loop
      vertex 0 30 14
      vertex 0 24.5 25.5
      vertex 0 24.5 28.5
    endloop
  endfacet
  facet normal -1 0 0
    outer loop
      vertex 0 30 14
      vertex 0 24.5 28.5
      vertex 0 30 33
    endloop
  endfacet
  facet normal -1 0 0
    outer loop
      vertex 0 60 14
      vertex 0 67.2812 10.0689
      vertex 0 66.6258 9.32906
    endloop
  endfacet
  facet normal -1 0 0
    outer loop
      vertex 0 74.0701 7.4942
      vertex 0 90 0
      vertex 0 74.0701 6.5058
    endloop
  endfacet
  facet normal -1 0 0
    outer loop
      vertex 0 60 33
      vertex 0 71.9054 10.6304
      vertex 0 70.9812 10.9809
    endloop
  endfacet
  facet normal -1 0 0
    outer loop
      vertex 0 60 33
      vertex 0 70.9812 10.9809
      vertex 0 70 11.1
    endloop
  endfacet
  facet normal 0 -1 0
    outer loop
      vertex 15 0 14
      vertex 0 0 0
      vertex 60 0 0
    endloop
  endfacet
  facet normal 0 -1 0
    outer loop
      vertex 15 0 14
      vertex 15 0 33
      vertex 0 0 33
    endloop
  endfacet
  facet normal 0 -1 0
    outer loop
      vertex 0 0 33
      vertex 0 0 0
      vertex 15 0 14
    endloop
  endfacet
  facet normal 0 -1 0
    outer loop
      vertex 60 0 14
      vertex 15 0 14
      vertex 60 0 0
    endloop
  endfacet
  facet normal 0 0 -1
    outer loop
      vertex 39.0148 49.4589 0
      vertex 0 90 0
      vertex 60 90 0
    endloop
  endfacet
  facet normal 0 0 -1
    outer loop
      vertex 0 0 0
      vertex 0 90 0
      vertex 29 45 0
    endloop
  endfacet
  facet normal 0 0 -1
    outer loop
      vertex 0 0 0
      vertex 29 45 0
      vertex 29.1311 43.7525 0
    endloop
  endfacet
  facet normal 0 0 -1
    outer loop
      vertex 0 0 0
      vertex 29.1311 43.7525 0
      vertex 29.5187 42.5596 0
    endloop
  endfacet
  facet normal 0 0 -1
    outer loop
      vertex 0 0 0
      vertex 29.5187 42.5596 0
      vertex 30.1459 41.4733 0
    endloop
  endfacet
  facet normal 0 0 -1
    outer loop
      vertex 0 0 0
      vertex 30.1459 41.4733 0
      vertex 60 0 0
    endloop
  endfacet
  facet normal 0 0 -1
    outer loop
      vertex 32 39.8038 0
      vertex 60 0 0
      vertex 30.9852 40.5411 0
    endloop
  endfacet
  facet normal 0 0 -1
    outer loop
      vertex 33.1459 39.2937 0
      vertex 60 0 0
      vertex 32 39.8038 0
    endloop
  endfacet
  facet normal 0 0 -1
    outer loop
      vertex 30.9852 40.5411 0
      vertex 60 0 0
      vertex 30.1459 41.4733 0
    endloop
  endfacet
  facet normal 0 0 -1
    outer loop
      vertex 34.3728 39.0329 0
      vertex 60 0 0
      vertex 33.1459 39.2937 0
    endloop
  endfacet
  facet normal 0 0 -1
    outer loop
      vertex 41 45 0
      vertex 60 90 0
      vertex 40.8689 43.7525 0
    endloop
  endfacet
  facet normal 0 0 -1
    outer loop
      vertex 60 0 0
      vertex 34.3728 39.0329 0
      vertex 35.6272 39.0329 0
    endloop
  endfacet
  facet normal 0 0 -1
    outer loop
      vertex 60 0 0
      vertex 35.6272 39.0329 0
      vertex 36.8541 39.2937 0
    endloop
  endfacet
  facet normal 0 0 -1
    outer loop
      vertex 60 0 0
      vertex 36.8541 39.2937 0
      vertex 38 39.8038 0
    endloop
  endfacet
  facet normal 0 0 -1
    outer loop
      vertex 60 0 0
      vertex 38 39.8038 0
      vertex 39.0148 40.5411 0
    endloop
  endfacet
  facet normal 0 0 -1
    outer loop
      vertex 60 0 0
      vertex 39.0148 40.5411 0
      vertex 39.8541 41.4733 0
    endloop
  endfacet
  facet normal 0 0 -1
    outer loop
      vertex 60 0 0
      vertex 39.8541 41.4733 0
      vertex 40.4813 42.5596 0
    endloop
  endfacet
  facet normal 0 0 -1
    outer loop
      vertex 60 0 0
      vertex 40.4813 42.5596 0
      vertex 60 90 0
    endloop
  endfacet
  facet normal 0 0 -1
    outer loop
      vertex 40.4813 42.5596 0
      vertex 40.8689 43.7525 0
      vertex 60 90 0
    endloop
  endfacet
  facet normal 0 0 -1
    outer loop
      vertex 40.8689 46.2475 0
      vertex 60 90 0
      vertex 41 45 0
    endloop
  endfacet
  facet normal 0 0 -1
    outer loop
      vertex 40.4813 47.4404 0
      vertex 60 90 0
      vertex 40.8689 46.2475 0
    endloop
  endfacet
  facet normal 0 0 -1
    outer loop
      vertex 39.8541 48.5267 0
      vertex 60 90 0
      vertex 40.4813 47.4404 0
    endloop
  endfacet
  facet normal 0 0 -1
    outer loop
      vertex 39.0148 49.4589 0
      vertex 60 90 0
      vertex 39.8541 48.5267 0
    endloop
  endfacet
  facet normal 0 0 -1
    outer loop
      vertex 38 50.1962 0
      vertex 0 90 0
      vertex 39.0148 49.4589 0
    endloop
  endfacet
  facet normal 0 0 -1
    outer loop
      vertex 29.1311 46.2475 0
      vertex 0 90 0
      vertex 29.5187 47.4404 0
    endloop
  endfacet
  facet normal 0 0 -1
    outer loop
      vertex 36.8541 50.7063 0
      vertex 0 90 0
      vertex 38 50.1962 0
    endloop
  endfacet
  facet normal 0 0 -1
    outer loop
      vertex 35.6272 50.9671 0
      vertex 0 90 0
      vertex 36.8541 50.7063 0
    endloop
  endfacet
  facet normal 0 0 -1
    outer loop
      vertex 34.3728 50.9671 0
      vertex 0 90 0
      vertex 35.6272 50.9671 0
    endloop
  endfacet
  facet normal 0 0 -1
    outer loop
      vertex 33.1459 50.7063 0
      vertex 0 90 0
      vertex 34.3728 50.9671 0
    endloop
  endfacet
  facet normal 0 0 -1
    outer loop
      vertex 32 50.1962 0
      vertex 0 90 0
      vertex 33.1459 50.7063 0
    endloop
  endfacet
  facet normal 0 0 -1
    outer loop
      vertex 30.9852 49.4589 0
      vertex 0 90 0
      vertex 32 50.1962 0
    endloop
  endfacet
  facet normal 0 0 -1
    outer loop
      vertex 30.1459 48.5267 0
      vertex 0 90 0
      vertex 30.9852 49.4589 0
    endloop
  endfacet
  facet normal 0 0 -1
    outer loop
      vertex 29.5187 47.4404 0
      vertex 0 90 0
      vertex 30.1459 48.5267 0
    endloop
  endfacet
  facet normal 0 0 -1
    outer loop
      vertex 29 45 0
      vertex 0 90 0
      vertex 29.1311 46.2475 0
    endloop
  endfacet
  facet normal 0 1 0
    outer loop
      vertex 60 90 14
      vertex 60 90 0
      vertex 15 90 14
    endloop
  endfacet
  facet normal 0 1 0
    outer loop
      vertex 0 90 0
      vertex 0 90 33
      vertex 15 90 14
    endloop
  endfacet
  facet normal 0 1 0
    outer loop
      vertex 0 90 0
      vertex 15 90 14
      vertex 60 90 0
    endloop
  endfacet
  facet normal 0 1 0
    outer loop
      vertex 15 90 14
      vertex 0 90 33
      vertex 15 90 33
    endloop
  endfacet
  facet normal 0 0 1
    outer loop
      vertex 1.19659 62 33
      vertex 0 60 33
      vertex 15 60 33
    endloop
  endfacet
  facet normal 0 0 1
    outer loop
      vertex 13.8034 62 33
      vertex 1.19659 62 33
      vertex 15 60 33
    endloop
  endfacet
  facet normal 0 0 1
    outer loop
      vertex 0 90 33
      vertex 0 60 33
      vertex 1.19659 62 33
    endloop
  endfacet
  facet normal 0 0 1
    outer loop
      vertex 15 90 33
      vertex 0 90 33
      vertex 1.19659 88 33
    endloop
  endfacet
  facet normal 0 0 1
    outer loop
      vertex 15 90 33
      vertex 13.8034 88 33
      vertex 15 60 33
    endloop
  endfacet
  facet normal 0 0 1
    outer loop
      vertex 15 90 33
      vertex 1.19659 88 33
      vertex 13.8034 88 33
    endloop
  endfacet
  facet normal 0 0 1
    outer loop
      vertex 13.8034 88 33
      vertex 13.8034 62 33
      vertex 15 60 33
    endloop
  endfacet
  facet normal 0 0 1
    outer loop
      vertex 1.19659 62 33
      vertex 1.19659 88 33
      vertex 0 90 33
    endloop
  endfacet
  facet normal 0 -1 0
    outer loop
      vertex 15 60 14
      vertex 15 60 33
      vertex 0 60 33
    endloop
  endfacet
  facet normal 0 -1 0
    outer loop
      vertex 0 60 14
      vertex 15 60 14
      vertex 0 60 33
    endloop
  endfacet
  facet normal 0 0 1
    outer loop
      vertex 15 30 14
      vertex 15 60 14
      vertex 0 60 14
    endloop
  endfacet
  facet normal 0 0 1
    outer loop
      vertex 0 30 14
      vertex 15 30 14
      vertex 0 60 14
    endloop
  endfacet
  facet normal 0 1 0
    outer loop
      vertex 15 30 33
      vertex 15 30 14
      vertex 0 30 33
    endloop
  endfacet
  facet normal 0 1 0
    outer loop
      vertex 0 30 33
      vertex 15 30 14
      vertex 0 30 14
    endloop
  endfacet
  facet normal 0 0 1
    outer loop
      vertex 1.19659 2 33
      vertex 0 0 33
      vertex 15 0 33
    endloop
  endfacet
  facet normal 0 0 1
    outer loop
      vertex 13.8034 2 33
      vertex 1.19659 2 33
      vertex 15 0 33
    endloop
  endfacet
  facet normal 0 0 1
    outer loop
      vertex 0 30 33
      vertex 0 0 33
      vertex 1.19659 2 33
    endloop
  endfacet
  facet normal 0 0 1
    outer loop
      vertex 15 30 33
      vertex 0 30 33
      vertex 1.19659 28 33
    endloop
  endfacet
  facet normal 0 0 1
    outer loop
      vertex 15 30 33
      vertex 13.8034 28 33
      vertex 15 0 33
    endloop
  endfacet
  facet normal 0 0 1
    outer loop
      vertex 15 30 33
      vertex 1.19659 28 33
      vertex 13.8034 28 33
    endloop
  endfacet
  facet normal 0 0 1
    outer loop
      vertex 13.8034 28 33
      vertex 13.8034 2 33
      vertex 15 0 33
    endloop
  endfacet
  facet normal 0 0 1
    outer loop
      vertex 1.19659 2 33
      vertex 1.19659 28 33
      vertex 0 30 33
    endloop
  endfacet
  facet normal 0 1 0
    outer loop
      vertex 15 6.5 28.5
      vertex 15 6.5 25.5
      vertex 0 6.5 28.5
    endloop
  endfacet
  facet normal 0 1 0
    outer loop
      vertex 0 6.5 28.5
      vertex 15 6.5 25.5
      vertex 0 6.5 25.5
    endloop
  endfacet
  facet normal 0 0 -1
    outer loop
      vertex 15 11.5 28.5
      vertex 15 6.5 28.5
      vertex 0 11.5 28.5
    endloop
  endfacet
  facet normal 0 0 -1
    outer loop
      vertex 0 11.5 28.5
      vertex 15 6.5 28.5
      vertex 0 6.5 28.5
    endloop
  endfacet
  facet normal 0 -1 0
    outer loop
      vertex 15 11.5 25.5
      vertex 15 11.5 28.5
      vertex 0 11.5 28.5
    endloop
  endfacet
  facet normal 0 -1 0
    outer loop
      vertex 0 11.5 25.5
      vertex 15 11.5 25.5
      vertex 0 11.5 28.5
    endloop
  endfacet
  facet normal 0 0 1
    outer loop
      vertex 15 6.5 25.5
      vertex 15 11.5 25.5
      vertex 0 11.5 25.5
    endloop
  endfacet
  facet normal 0 0 1
    outer loop
      vertex 0 6.5 25.5
      vertex 15 6.5 25.5
      vertex 0 11.5 25.5
    endloop
  endfacet
  facet normal 5.31386e-17 0.970942 -0.239315
    outer loop
      vertex 49 16.1664 8.45388
      vertex 49 15.9299 7.4942
      vertex 0 16.1664 8.45388
    endloop
  endfacet
  facet normal 5.31386e-17 0.970942 -0.239315
    outer loop
      vertex 0 16.1664 8.45388
      vertex 49 15.9299 7.4942
      vertex 0 15.9299 7.4942
    endloop
  endfacet
  facet normal 0 1 0
    outer loop
      vertex 49 15.9299 7.4942
      vertex 49 15.9299 6.5058
      vertex 0 15.9299 7.4942
    endloop
  endfacet
  facet normal 0 1 0
    outer loop
      vertex 0 15.9299 7.4942
      vertex 49 15.9299 6.5058
      vertex 0 15.9299 6.5058
    endloop
  endfacet
  facet normal 1.03189e-16 0.885456 -0.464724
    outer loop
      vertex 49 16.6258 9.32907
      vertex 49 16.1664 8.45388
      vertex 0 16.6258 9.32906
    endloop
  endfacet
  facet normal 1.03189e-16 0.885456 -0.464724
    outer loop
      vertex 0 16.6258 9.32906
      vertex 49 16.1664 8.45388
      vertex 0 16.1664 8.45388
    endloop
  endfacet
  facet normal 1.47243e-16 0.748511 -0.663122
    outer loop
      vertex 49 17.2812 10.0689
      vertex 49 16.6258 9.32907
      vertex 0 17.2812 10.0689
    endloop
  endfacet
  facet normal 1.47243e-16 0.748511 -0.663122
    outer loop
      vertex 0 17.2812 10.0689
      vertex 49 16.6258 9.32907
      vertex 0 16.6258 9.32906
    endloop
  endfacet
  facet normal 1.82739e-16 0.568065 -0.822984
    outer loop
      vertex 49 18.0946 10.6304
      vertex 49 17.2812 10.0689
      vertex 0 18.0946 10.6304
    endloop
  endfacet
  facet normal 1.82739e-16 0.568065 -0.822984
    outer loop
      vertex 0 18.0946 10.6304
      vertex 49 17.2812 10.0689
      vertex 0 17.2812 10.0689
    endloop
  endfacet
  facet normal 2.07615e-16 0.354604 -0.935017
    outer loop
      vertex 49 19.0188 10.9809
      vertex 49 18.0946 10.6304
      vertex 0 19.0188 10.9809
    endloop
  endfacet
  facet normal 2.07615e-16 0.354604 -0.935017
    outer loop
      vertex 0 19.0188 10.9809
      vertex 49 18.0946 10.6304
      vertex 0 18.0946 10.6304
    endloop
  endfacet
  facet normal 2.20426e-16 0.120537 -0.992709
    outer loop
      vertex 49 20 11.1
      vertex 49 19.0188 10.9809
      vertex 0 20 11.1
    endloop
  endfacet
  facet normal 2.20426e-16 0.120537 -0.992709
    outer loop
      vertex 0 20 11.1
      vertex 49 19.0188 10.9809
      vertex 0 19.0188 10.9809
    endloop
  endfacet
  facet normal 2.20426e-16 -0.120537 -0.992709
    outer loop
      vertex 49 20.9812 10.9809
      vertex 49 20 11.1
      vertex 0 20.9812 10.9809
    endloop
  endfacet
  facet normal 2.20426e-16 -0.120537 -0.992709
    outer loop
      vertex 0 20.9812 10.9809
      vertex 49 20 11.1
      vertex 0 20 11.1
    endloop
  endfacet
  facet normal 2.07615e-16 -0.354604 -0.935017
    outer loop
      vertex 49 21.9054 10.6304
      vertex 49 20.9812 10.9809
      vertex 0 21.9054 10.6304
    endloop
  endfacet
  facet normal 2.07615e-16 -0.354604 -0.935017
    outer loop
      vertex 0 21.9054 10.6304
      vertex 49 20.9812 10.9809
      vertex 0 20.9812 10.9809
    endloop
  endfacet
  facet normal 1.82739e-16 -0.568065 -0.822984
    outer loop
      vertex 49 22.7188 10.0689
      vertex 49 21.9054 10.6304
      vertex 0 22.7188 10.0689
    endloop
  endfacet
  facet normal 1.82739e-16 -0.568065 -0.822984
    outer loop
      vertex 0 22.7188 10.0689
      vertex 49 21.9054 10.6304
      vertex 0 21.9054 10.6304
    endloop
  endfacet
  facet normal 1.47243e-16 -0.748511 -0.663122
    outer loop
      vertex 0 23.3742 9.32906
      vertex 49 23.3742 9.32907
      vertex 49 22.7188 10.0689
    endloop
  endfacet
  facet normal 1.47243e-16 -0.748511 -0.663122
    outer loop
      vertex 0 22.7188 10.0689
      vertex 0 23.3742 9.32906
      vertex 49 22.7188 10.0689
    endloop
  endfacet
  facet normal 1.03189e-16 -0.885456 -0.464724
    outer loop
      vertex 0 23.8336 8.45388
      vertex 49 23.8336 8.45388
      vertex 49 23.3742 9.32907
    endloop
  endfacet
  facet normal 1.03189e-16 -0.885456 -0.464724
    outer loop
      vertex 0 23.3742 9.32906
      vertex 0 23.8336 8.45388
      vertex 49 23.3742 9.32907
    endloop
  endfacet
  facet normal 5.31386e-17 -0.970942 -0.239315
    outer loop
      vertex 0 24.0701 7.4942
      vertex 49 24.0701 7.4942
      vertex 49 23.8336 8.45388
    endloop
  endfacet
  facet normal 5.31386e-17 -0.970942 -0.239315
    outer loop
      vertex 0 23.8336 8.45388
      vertex 0 24.0701 7.4942
      vertex 49 23.8336 8.45388
    endloop
  endfacet
  facet normal 0 -1 0
    outer loop
      vertex 49 24.0701 6.5058
      vertex 49 24.0701 7.4942
      vertex 0 24.0701 7.4942
    endloop
  endfacet
  facet normal 0 -1 0
    outer loop
      vertex 0 24.0701 6.5058
      vertex 49 24.0701 6.5058
      vertex 0 24.0701 7.4942
    endloop
  endfacet
  facet normal -5.31386e-17 -0.970942 0.239315
    outer loop
      vertex 49 23.8336 5.54612
      vertex 49 24.0701 6.5058
      vertex 0 24.0701 6.5058
    endloop
  endfacet
  facet normal -5.31386e-17 -0.970942 0.239315
    outer loop
      vertex 0 23.8336 5.54612
      vertex 49 23.8336 5.54612
      vertex 0 24.0701 6.5058
    endloop
  endfacet
  facet normal -1.03189e-16 -0.885456 0.464724
    outer loop
      vertex 49 23.3742 4.67094
      vertex 49 23.8336 5.54612
      vertex 0 23.8336 5.54612
    endloop
  endfacet
  facet normal -1.03189e-16 -0.885456 0.464724
    outer loop
      vertex 0 23.3742 4.67094
      vertex 49 23.3742 4.67094
      vertex 0 23.8336 5.54612
    endloop
  endfacet
  facet normal -1.47243e-16 -0.748511 0.663122
    outer loop
      vertex 49 22.7188 3.93111
      vertex 49 23.3742 4.67094
      vertex 0 23.3742 4.67094
    endloop
  endfacet
  facet normal -1.47243e-16 -0.748511 0.663122
    outer loop
      vertex 0 22.7188 3.93111
      vertex 49 22.7188 3.93111
      vertex 0 23.3742 4.67094
    endloop
  endfacet
  facet normal -1.82739e-16 -0.568065 0.822984
    outer loop
      vertex 49 21.9054 3.36963
      vertex 49 22.7188 3.93111
      vertex 0 22.7188 3.93111
    endloop
  endfacet
  facet normal -1.82739e-16 -0.568065 0.822984
    outer loop
      vertex 0 21.9054 3.36963
      vertex 49 21.9054 3.36963
      vertex 0 22.7188 3.93111
    endloop
  endfacet
  facet normal -2.07615e-16 -0.354604 0.935017
    outer loop
      vertex 49 20.9812 3.01914
      vertex 49 21.9054 3.36963
      vertex 0 21.9054 3.36963
    endloop
  endfacet
  facet normal -2.07615e-16 -0.354604 0.935017
    outer loop
      vertex 0 20.9812 3.01914
      vertex 49 20.9812 3.01914
      vertex 0 21.9054 3.36963
    endloop
  endfacet
  facet normal -2.20426e-16 -0.120537 0.992709
    outer loop
      vertex 49 20 2.9
      vertex 49 20.9812 3.01914
      vertex 0 20.9812 3.01914
    endloop
  endfacet
  facet normal -2.20426e-16 -0.120537 0.992709
    outer loop
      vertex 0 20 2.9
      vertex 49 20 2.9
      vertex 0 20.9812 3.01914
    endloop
  endfacet
  facet normal -2.20426e-16 0.120537 0.992709
    outer loop
      vertex 49 19.0188 3.01914
      vertex 49 20 2.9
      vertex 0 20 2.9
    endloop
  endfacet
  facet normal -2.20426e-16 0.120537 0.992709
    outer loop
      vertex 0 19.0188 3.01914
      vertex 49 19.0188 3.01914
      vertex 0 20 2.9
    endloop
  endfacet
  facet normal -2.07615e-16 0.354604 0.935017
    outer loop
      vertex 49 18.0946 3.36963
      vertex 49 19.0188 3.01914
      vertex 0 19.0188 3.01914
    endloop
  endfacet
  facet normal -2.07615e-16 0.354604 0.935017
    outer loop
      vertex 0 18.0946 3.36963
      vertex 49 18.0946 3.36963
      vertex 0 19.0188 3.01914
    endloop
  endfacet
  facet normal -1.82739e-16 0.568065 0.822984
    outer loop
      vertex 49 17.2812 3.93111
      vertex 49 18.0946 3.36963
      vertex 0 18.0946 3.36963
    endloop
  endfacet
  facet normal -1.82739e-16 0.568065 0.822984
    outer loop
      vertex 0 17.2812 3.93111
      vertex 49 17.2812 3.93111
      vertex 0 18.0946 3.36963
    endloop
  endfacet
  facet normal -1.47243e-16 0.748511 0.663122
    outer loop
      vertex 49 17.2812 3.93111
      vertex 0 17.2812 3.93111
      vertex 49 16.6258 4.67094
    endloop
  endfacet
  facet normal -1.47243e-16 0.748511 0.663122
    outer loop
      vertex 49 16.6258 4.67094
      vertex 0 17.2812 3.93111
      vertex 0 16.6258 4.67094
    endloop
  endfacet
  facet normal -1.03189e-16 0.885456 0.464724
    outer loop
      vertex 49 16.6258 4.67094
      vertex 0 16.6258 4.67094
      vertex 49 16.1664 5.54612
    endloop
  endfacet
  facet normal -1.03189e-16 0.885456 0.464724
    outer loop
      vertex 49 16.1664 5.54612
      vertex 0 16.6258 4.67094
      vertex 0 16.1664 5.54612
    endloop
  endfacet
  facet normal -5.31386e-17 0.970942 0.239315
    outer loop
      vertex 49 16.1664 5.54612
      vertex 0 16.1664 5.54612
      vertex 49 15.9299 6.5058
    endloop
  endfacet
  facet normal -5.31386e-17 0.970942 0.239315
    outer loop
      vertex 49 15.9299 6.5058
      vertex 0 16.1664 5.54612
      vertex 0 15.9299 6.5058
    endloop
  endfacet
  facet normal 0 1 0
    outer loop
      vertex 15 19.5 28.5
      vertex 15 19.5 25.5
      vertex 0 19.5 28.5
    endloop
  endfacet
  facet normal 0 1 0
    outer loop
      vertex 0 19.5 28.5
      vertex 15 19.5 25.5
      vertex 0 19.5 25.5
    endloop
  endfacet
  facet normal 0 0 -1
    outer loop
      vertex 15 24.5 28.5
      vertex 15 19.5 28.5
      vertex 0 24.5 28.5
    endloop
  endfacet
  facet normal 0 0 -1
    outer loop
      vertex 0 24.5 28.5
      vertex 15 19.5 28.5
      vertex 0 19.5 28.5
    endloop
  endfacet
  facet normal 0 -1 0
    outer loop
      vertex 15 24.5 25.5
      vertex 15 24.5 28.5
      vertex 0 24.5 28.5
    endloop
  endfacet
  facet normal 0 -1 0
    outer loop
      vertex 0 24.5 25.5
      vertex 15 24.5 25.5
      vertex 0 24.5 28.5
    endloop
  endfacet
  facet normal 0 0 1
    outer loop
      vertex 15 19.5 25.5
      vertex 15 24.5 25.5
      vertex 0 24.5 25.5
    endloop
  endfacet
  facet normal 0 0 1
    outer loop
      vertex 0 19.5 25.5
      vertex 15 19.5 25.5
      vertex 0 24.5 25.5
    endloop
  endfacet
  facet normal 5.31386e-17 0.970942 -0.239315
    outer loop
      vertex 49 66.1664 8.45388
      vertex 49 65.9299 7.4942
      vertex 0 66.1664 8.45388
    endloop
  endfacet
  facet normal 5.31386e-17 0.970942 -0.239315
    outer loop
      vertex 0 66.1664 8.45388
      vertex 49 65.9299 7.4942
      vertex 0 65.9299 7.4942
    endloop
  endfacet
  facet normal 0 1 0
    outer loop
      vertex 49 65.9299 7.4942
      vertex 49 65.9299 6.5058
      vertex 0 65.9299 7.4942
    endloop
  endfacet
  facet normal 0 1 0
    outer loop
      vertex 0 65.9299 7.4942
      vertex 49 65.9299 6.5058
      vertex 0 65.9299 6.5058
    endloop
  endfacet
  facet normal 1.03189e-16 0.885456 -0.464724
    outer loop
      vertex 49 66.6258 9.32907
      vertex 49 66.1664 8.45388
      vertex 0 66.6258 9.32906
    endloop
  endfacet
  facet normal 1.03189e-16 0.885456 -0.464724
    outer loop
      vertex 0 66.6258 9.32906
      vertex 49 66.1664 8.45388
      vertex 0 66.1664 8.45388
    endloop
  endfacet
  facet normal 1.47243e-16 0.748511 -0.663122
    outer loop
      vertex 49 67.2812 10.0689
      vertex 49 66.6258 9.32907
      vertex 0 67.2812 10.0689
    endloop
  endfacet
  facet normal 1.47243e-16 0.748511 -0.663122
    outer loop
      vertex 0 67.2812 10.0689
      vertex 49 66.6258 9.32907
      vertex 0 66.6258 9.32906
    endloop
  endfacet
  facet normal 1.82739e-16 0.568065 -0.822984
    outer loop
      vertex 49 68.0946 10.6304
      vertex 49 67.2812 10.0689
      vertex 0 68.0946 10.6304
    endloop
  endfacet
  facet normal 1.82739e-16 0.568065 -0.822984
    outer loop
      vertex 0 68.0946 10.6304
      vertex 49 67.2812 10.0689
      vertex 0 67.2812 10.0689
    endloop
  endfacet
  facet normal 2.07615e-16 0.354604 -0.935017
    outer loop
      vertex 49 69.0188 10.9809
      vertex 49 68.0946 10.6304
      vertex 0 69.0188 10.9809
    endloop
  endfacet
  facet normal 2.07615e-16 0.354604 -0.935017
    outer loop
      vertex 0 69.0188 10.9809
      vertex 49 68.0946 10.6304
      vertex 0 68.0946 10.6304
    endloop
  endfacet
  facet normal 2.20426e-16 0.120537 -0.992709
    outer loop
      vertex 49 70 11.1
      vertex 49 69.0188 10.9809
      vertex 0 70 11.1
    endloop
  endfacet
  facet normal 2.20426e-16 0.120537 -0.992709
    outer loop
      vertex 0 70 11.1
      vertex 49 69.0188 10.9809
      vertex 0 69.0188 10.9809
    endloop
  endfacet
  facet normal 2.20426e-16 -0.120537 -0.992709
    outer loop
      vertex 49 70.9812 10.9809
      vertex 49 70 11.1
      vertex 0 70.9812 10.9809
    endloop
  endfacet
  facet normal 2.20426e-16 -0.120537 -0.992709
    outer loop
      vertex 0 70.9812 10.9809
      vertex 49 70 11.1
      vertex 0 70 11.1
    endloop
  endfacet
  facet normal 2.07615e-16 -0.354604 -0.935017
    outer loop
      vertex 49 71.9054 10.6304
      vertex 49 70.9812 10.9809
      vertex 0 71.9054 10.6304
    endloop
  endfacet
  facet normal 2.07615e-16 -0.354604 -0.935017
    outer loop
      vertex 0 71.9054 10.6304
      vertex 49 70.9812 10.9809
      vertex 0 70.9812 10.9809
    endloop
  endfacet
  facet normal 1.82739e-16 -0.568065 -0.822984
    outer loop
      vertex 49 72.7188 10.0689
      vertex 49 71.9054 10.6304
      vertex 0 72.7188 10.0689
    endloop
  endfacet
  facet normal 1.82739e-16 -0.568065 -0.822984
    outer loop
      vertex 0 72.7188 10.0689
      vertex 49 71.9054 10.6304
      vertex 0 71.9054 10.6304
    endloop
  endfacet
  facet normal 1.47243e-16 -0.748511 -0.663122
    outer loop
      vertex 0 73.3742 9.32906
      vertex 49 73.3742 9.32907
      vertex 49 72.7188 10.0689
    endloop
  endfacet
  facet normal 1.47243e-16 -0.748511 -0.663122
    outer loop
      vertex 0 72.7188 10.0689
      vertex 0 73.3742 9.32906
      vertex 49 72.7188 10.0689
    endloop
  endfacet
  facet normal 1.03189e-16 -0.885456 -0.464724
    outer loop
      vertex 0 73.8336 8.45388
      vertex 49 73.8336 8.45388
      vertex 49 73.3742 9.32907
    endloop
  endfacet
  facet normal 1.03189e-16 -0.885456 -0.464724
    outer loop
      vertex 0 73.3742 9.32906
      vertex 0 73.8336 8.45388
      vertex 49 73.3742 9.32907
    endloop
  endfacet
  facet normal 5.31386e-17 -0.970942 -0.239315
    outer loop
      vertex 0 74.0701 7.4942
      vertex 49 74.0701 7.4942
      vertex 49 73.8336 8.45388
    endloop
  endfacet
  facet normal 5.31386e-17 -0.970942 -0.239315
    outer loop
      vertex 0 73.8336 8.45388
      vertex 0 74.0701 7.4942
      vertex 49 73.8336 8.45388
    endloop
  endfacet
  facet normal 0 -1 0
    outer loop
      vertex 49 74.0701 6.5058
      vertex 49 74.0701 7.4942
      vertex 0 74.0701 7.4942
    endloop
  endfacet
  facet normal 0 -1 0
    outer loop
      vertex 0 74.0701 6.5058
      vertex 49 74.0701 6.5058
      vertex 0 74.0701 7.4942
    endloop
  endfacet
  facet normal -5.31386e-17 -0.970942 0.239315
    outer loop
      vertex 49 73.8336 5.54612
      vertex 49 74.0701 6.5058
      vertex 0 74.0701 6.5058
    endloop
  endfacet
  facet normal -5.31386e-17 -0.970942 0.239315
    outer loop
      vertex 0 73.8336 5.54612
      vertex 49 73.8336 5.54612
      vertex 0 74.0701 6.5058
    endloop
  endfacet
  facet normal -1.03189e-16 -0.885456 0.464724
    outer loop
      vertex 49 73.3742 4.67094
      vertex 49 73.8336 5.54612
      vertex 0 73.8336 5.54612
    endloop
  endfacet
  facet normal -1.03189e-16 -0.885456 0.464724
    outer loop
      vertex 0 73.3742 4.67094
      vertex 49 73.3742 4.67094
      vertex 0 73.8336 5.54612
    endloop
  endfacet
  facet normal -1.47243e-16 -0.748511 0.663122
    outer loop
      vertex 49 72.7188 3.93111
      vertex 49 73.3742 4.67094
      vertex 0 73.3742 4.67094
    endloop
  endfacet
  facet normal -1.47243e-16 -0.748511 0.663122
    outer loop
      vertex 0 72.7188 3.93111
      vertex 49 72.7188 3.93111
      vertex 0 73.3742 4.67094
    endloop
  endfacet
  facet normal -1.82739e-16 -0.568065 0.822984
    outer loop
      vertex 49 71.9054 3.36963
      vertex 49 72.7188 3.93111
      vertex 0 72.7188 3.93111
    endloop
  endfacet
  facet normal -1.82739e-16 -0.568065 0.822984
    outer loop
      vertex 0 71.9054 3.36963
      vertex 49 71.9054 3.36963
      vertex 0 72.7188 3.93111
    endloop
  endfacet
  facet normal -2.07615e-16 -0.354604 0.935017
    outer loop
      vertex 49 70.9812 3.01914
      vertex 49 71.9054 3.36963
      vertex 0 71.9054 3.36963
    endloop
  endfacet
  facet normal -2.07615e-16 -0.354604 0.935017
    outer loop
      vertex 0 70.9812 3.01914
      vertex 49 70.9812 3.01914
      vertex 0 71.9054 3.36963
    endloop
  endfacet
  facet normal -2.20426e-16 -0.120537 0.992709
    outer loop
      vertex 49 70 2.9
      vertex 49 70.9812 3.01914
      vertex 0 70.9812 3.01914
    endloop
  endfacet
  facet normal -2.20426e-16 -0.120537 0.992709
    outer loop
      vertex 0 70 2.9
      vertex 49 70 2.9
      vertex 0 70.9812 3.01914
    endloop
  endfacet
  facet normal -2.20426e-16 0.120537 0.992709
    outer loop
      vertex 49 69.0188 3.01914
      vertex 49 70 2.9
      vertex 0 70 2.9
    endloop
  endfacet
  facet normal -2.20426e-16 0.120537 0.992709
    outer loop
      vertex 0 69.0188 3.01914
      vertex 49 69.0188 3.01914
      vertex 0 70 2.9
    endloop
  endfacet
  facet normal -2.07615e-16 0.354604 0.935017
    outer loop
      vertex 49 68.0946 3.36963
      vertex 49 69.0188 3.01914
      vertex 0 69.0188 3.01914
    endloop
  endfacet
  facet normal -2.07615e-16 0.354604 0.935017
    outer loop
      vertex 0 68.0946 3.36963
      vertex 49 68.0946 3.36963
      vertex 0 69.0188 3.01914
    endloop
  endfacet
  facet normal -1.82739e-16 0.568065 0.822984
    outer loop
      vertex 49 67.2812 3.93111
      vertex 49 68.0946 3.36963
      vertex 0 68.0946 3.36963
    endloop
  endfacet
  facet normal -1.82739e-16 0.568065 0.822984
    outer loop
      vertex 0 67.2812 3.93111
      vertex 49 67.2812 3.93111
      vertex 0 68.0946 3.36963
    endloop
  endfacet
  facet normal -1.47243e-16 0.748511 0.663122
    outer loop
      vertex 49 67.2812 3.93111
      vertex 0 67.2812 3.93111
      vertex 49 66.6258 4.67094
    endloop
  endfacet
  facet normal -1.47243e-16 0.748511 0.663122
    outer loop
      vertex 49 66.6258 4.67094
      vertex 0 67.2812 3.93111
      vertex 0 66.6258 4.67094
    endloop
  endfacet
  facet normal -1.03189e-16 0.885456 0.464724
    outer loop
      vertex 49 66.6258 4.67094
      vertex 0 66.6258 4.67094
      vertex 49 66.1664 5.54612
    endloop
  endfacet
  facet normal -1.03189e-16 0.885456 0.464724
    outer loop
      vertex 49 66.1664 5.54612
      vertex 0 66.6258 4.67094
      vertex 0 66.1664 5.54612
    endloop
  endfacet
  facet normal -5.31386e-17 0.970942 0.239315
    outer loop
      vertex 49 66.1664 5.54612
      vertex 0 66.1664 5.54612
      vertex 49 65.9299 6.5058
    endloop
  endfacet
  facet normal -5.31386e-17 0.970942 0.239315
    outer loop
      vertex 49 65.9299 6.5058
      vertex 0 66.1664 5.54612
      vertex 0 65.9299 6.5058
    endloop
  endfacet
  facet normal 0 1 0
    outer loop
      vertex 15 66.5 28.5
      vertex 15 66.5 25.5
      vertex 0 66.5 28.5
    endloop
  endfacet
  facet normal 0 1 0
    outer loop
      vertex 0 66.5 28.5
      vertex 15 66.5 25.5
      vertex 0 66.5 25.5
    endloop
  endfacet
  facet normal 0 0 -1
    outer loop
      vertex 15 71.5 28.5
      vertex 15 66.5 28.5
      vertex 0 71.5 28.5
    endloop
  endfacet
  facet normal 0 0 -1
    outer loop
      vertex 0 71.5 28.5
      vertex 15 66.5 28.5
      vertex 0 66.5 28.5
    endloop
  endfacet
  facet normal 0 -1 0
    outer loop
      vertex 15 71.5 25.5
      vertex 15 71.5 28.5
      vertex 0 71.5 28.5
    endloop
  endfacet
  facet normal 0 -1 0
    outer loop
      vertex 0 71.5 25.5
      vertex 15 71.5 25.5
      vertex 0 71.5 28.5
    endloop
  endfacet
  facet normal 0 0 1
    outer loop
      vertex 15 66.5 25.5
      vertex 15 71.5 25.5
      vertex 0 71.5 25.5
    endloop
  endfacet
  facet normal 0 0 1
    outer loop
      vertex 0 66.5 25.5
      vertex 15 66.5 25.5
      vertex 0 71.5 25.5
    endloop
  endfacet
  facet normal 0 1 0
    outer loop
      vertex 15 79.5 28.5
      vertex 15 79.5 25.5
      vertex 0 79.5 28.5
    endloop
  endfacet
  facet normal 0 1 0
    outer loop
      vertex 0 79.5 28.5
      vertex 15 79.5 25.5
      vertex 0 79.5 25.5
    endloop
  endfacet
  facet normal 0 0 -1
    outer loop
      vertex 15 84.5 28.5
      vertex 15 79.5 28.5
      vertex 0 84.5 28.5
    endloop
  endfacet
  facet normal 0 0 -1
    outer loop
      vertex 0 84.5 28.5
      vertex 15 79.5 28.5
      vertex 0 79.5 28.5
    endloop
  endfacet
  facet normal 0 -1 0
    outer loop
      vertex 15 84.5 25.5
      vertex 15 84.5 28.5
      vertex 0 84.5 28.5
    endloop
  endfacet
  facet normal 0 -1 0
    outer loop
      vertex 0 84.5 25.5
      vertex 15 84.5 25.5
      vertex 0 84.5 28.5
    endloop
  endfacet
  facet normal 0 0 1
    outer loop
      vertex 15 79.5 25.5
      vertex 15 84.5 25.5
      vertex 0 84.5 25.5
    endloop
  endfacet
  facet normal 0 0 1
    outer loop
      vertex 0 79.5 25.5
      vertex 15 79.5 25.5
      vertex 0 84.5 25.5
    endloop
  endfacet
  facet normal 1 0 0
    outer loop
      vertex 15 6.5 25.5
      vertex 15 0 14
      vertex 15 30 14
    endloop
  endfacet
  facet normal 1 0 0
    outer loop
      vertex 15 11.5 28.5
      vertex 15 11.5 25.5
      vertex 15 30 14
    endloop
  endfacet
  facet normal 1 0 0
    outer loop
      vertex 15 0 33
      vertex 15 0 14
      vertex 15 6.5 25.5
    endloop
  endfacet
  facet normal 1 0 0
    outer loop
      vertex 15 0 33
      vertex 15 6.5 25.5
      vertex 15 6.5 28.5
    endloop
  endfacet
  facet normal 1 0 0
    outer loop
      vertex 15 19.5 25.5
      vertex 15 11.5 28.5
      vertex 15 30 14
    endloop
  endfacet
  facet normal 1 0 0
    outer loop
      vertex 15 30 33
      vertex 15 0 33
      vertex 15 11.5 28.5
    endloop
  endfacet
  facet normal 1 0 0
    outer loop
      vertex 15 19.5 28.5
      vertex 15 24.5 28.5
      vertex 15 30 33
    endloop
  endfacet
  facet normal 1 0 0
    outer loop
      vertex 15 24.5 25.5
      vertex 15 19.5 25.5
      vertex 15 30 14
    endloop
  endfacet
  facet normal 1 0 0
    outer loop
      vertex 15 19.5 28.5
      vertex 15 11.5 28.5
      vertex 15 19.5 25.5
    endloop
  endfacet
  facet normal 1 0 0
    outer loop
      vertex 15 30 33
      vertex 15 11.5 28.5
      vertex 15 19.5 28.5
    endloop
  endfacet
  facet normal 1 0 0
    outer loop
      vertex 15 30 33
      vertex 15 24.5 28.5
      vertex 15 30 14
    endloop
  endfacet
  facet normal 1 0 0
    outer loop
      vertex 15 24.5 28.5
      vertex 15 24.5 25.5
      vertex 15 30 14
    endloop
  endfacet
  facet normal 1 0 0
    outer loop
      vertex 15 11.5 25.5
      vertex 15 6.5 25.5
      vertex 15 30 14
    endloop
  endfacet
  facet normal 1 0 0
    outer loop
      vertex 15 6.5 28.5
      vertex 15 11.5 28.5
      vertex 15 0 33
    endloop
  endfacet
  facet normal 0 0 1
    outer loop
      vertex 15 30 14
      vertex 15 0 14
      vertex 60 0 14
    endloop
  endfacet
  facet normal 0 0 1
    outer loop
      vertex 15 60 14
      vertex 15 30 14
      vertex 60 90 14
    endloop
  endfacet
  facet normal 0 0 1
    outer loop
      vertex 33.503 43.6738 14
      vertex 15 30 14
      vertex 60 0 14
    endloop
  endfacet
  facet normal 0 0 1
    outer loop
      vertex 15 90 14
      vertex 15 60 14
      vertex 60 90 14
    endloop
  endfacet
  facet normal 0 0 1
    outer loop
      vertex 33.0581 45.4786 14
      vertex 15 30 14
      vertex 33.0581 44.5214 14
    endloop
  endfacet
  facet normal 0 0 1
    outer loop
      vertex 33.503 46.3262 14
      vertex 15 30 14
      vertex 33.0581 45.4786 14
    endloop
  endfacet
  facet normal 0 0 1
    outer loop
      vertex 34.2908 46.87 14
      vertex 35.2411 46.9854 14
      vertex 60 90 14
    endloop
  endfacet
  facet normal 0 0 1
    outer loop
      vertex 60 90 14
      vertex 15 30 14
      vertex 33.503 46.3262 14
    endloop
  endfacet
  facet normal 0 0 1
    outer loop
      vertex 34.2908 43.13 14
      vertex 33.503 43.6738 14
      vertex 60 0 14
    endloop
  endfacet
  facet normal 0 0 1
    outer loop
      vertex 60 90 14
      vertex 35.2411 46.9854 14
      vertex 36.1361 46.646 14
    endloop
  endfacet
  facet normal 0 0 1
    outer loop
      vertex 60 90 14
      vertex 36.7709 45.9294 14
      vertex 60 0 14
    endloop
  endfacet
  facet normal 0 0 1
    outer loop
      vertex 60 90 14
      vertex 36.1361 46.646 14
      vertex 36.7709 45.9294 14
    endloop
  endfacet
  facet normal 0 0 1
    outer loop
      vertex 36.7709 45.9294 14
      vertex 37 45 14
      vertex 60 0 14
    endloop
  endfacet
  facet normal 0 0 1
    outer loop
      vertex 36.7709 44.0706 14
      vertex 36.1361 43.354 14
      vertex 60 0 14
    endloop
  endfacet
  facet normal 0 0 1
    outer loop
      vertex 36.1361 43.354 14
      vertex 35.2411 43.0146 14
      vertex 60 0 14
    endloop
  endfacet
  facet normal 0 0 1
    outer loop
      vertex 35.2411 43.0146 14
      vertex 34.2908 43.13 14
      vertex 60 0 14
    endloop
  endfacet
  facet normal 0 0 1
    outer loop
      vertex 33.0581 44.5214 14
      vertex 15 30 14
      vertex 33.503 43.6738 14
    endloop
  endfacet
  facet normal 0 0 1
    outer loop
      vertex 33.503 46.3262 14
      vertex 34.2908 46.87 14
      vertex 60 90 14
    endloop
  endfacet
  facet normal 0 0 1
    outer loop
      vertex 37 45 14
      vertex 36.7709 44.0706 14
      vertex 60 0 14
    endloop
  endfacet
  facet normal 1 0 0
    outer loop
      vertex 60 0 14
      vertex 60 0 0
      vertex 60 90 0
    endloop
  endfacet
  facet normal 1 0 0
    outer loop
      vertex 60 90 14
      vertex 60 0 14
      vertex 60 90 0
    endloop
  endfacet
  facet normal 0.994522 0.104528 0
    outer loop
      vertex 29 45 5
      vertex 29.1311 43.7525 5
      vertex 29.1311 43.7525 0
    endloop
  endfacet
  facet normal 0.994522 0.104528 0
    outer loop
      vertex 29 45 0
      vertex 29 45 5
      vertex 29.1311 43.7525 0
    endloop
  endfacet
  facet normal 0.994522 -0.104528 0
    outer loop
      vertex 29.1311 46.2475 0
      vertex 29.1311 46.2475 5
      vertex 29 45 5
    endloop
  endfacet
  facet normal 0.994522 -0.104528 0
    outer loop
      vertex 29 45 0
      vertex 29.1311 46.2475 0
      vertex 29 45 5
    endloop
  endfacet
  facet normal 0.951057 -0.309017 0
    outer loop
      vertex 29.5187 47.4404 0
      vertex 29.5187 47.4404 5
      vertex 29.1311 46.2475 5
    endloop
  endfacet
  facet normal 0.951057 -0.309017 0
    outer loop
      vertex 29.1311 46.2475 0
      vertex 29.5187 47.4404 0
      vertex 29.1311 46.2475 5
    endloop
  endfacet
  facet normal 0.866025 -0.5 0
    outer loop
      vertex 30.1459 48.5267 0
      vertex 30.1459 48.5267 5
      vertex 29.5187 47.4404 5
    endloop
  endfacet
  facet normal 0.866025 -0.5 0
    outer loop
      vertex 29.5187 47.4404 0
      vertex 30.1459 48.5267 0
      vertex 29.5187 47.4404 5
    endloop
  endfacet
  facet normal 0.743145 -0.669131 0
    outer loop
      vertex 30.9852 49.4589 0
      vertex 30.9852 49.4589 5
      vertex 30.1459 48.5267 5
    endloop
  endfacet
  facet normal 0.743145 -0.669131 0
    outer loop
      vertex 30.1459 48.5267 0
      vertex 30.9852 49.4589 0
      vertex 30.1459 48.5267 5
    endloop
  endfacet
  facet normal 0.587785 -0.809017 0
    outer loop
      vertex 32 50.1962 0
      vertex 32 50.1962 5
      vertex 30.9852 49.4589 5
    endloop
  endfacet
  facet normal 0.587785 -0.809017 0
    outer loop
      vertex 30.9852 49.4589 0
      vertex 32 50.1962 0
      vertex 30.9852 49.4589 5
    endloop
  endfacet
  facet normal 0.406737 -0.913545 0
    outer loop
      vertex 33.1459 50.7063 0
      vertex 33.1459 50.7063 5
      vertex 32 50.1962 5
    endloop
  endfacet
  facet normal 0.406737 -0.913545 0
    outer loop
      vertex 32 50.1962 0
      vertex 33.1459 50.7063 0
      vertex 32 50.1962 5
    endloop
  endfacet
  facet normal 0.207912 -0.978148 0
    outer loop
      vertex 34.3728 50.9671 0
      vertex 34.3728 50.9671 5
      vertex 33.1459 50.7063 5
    endloop
  endfacet
  facet normal 0.207912 -0.978148 0
    outer loop
      vertex 33.1459 50.7063 0
      vertex 34.3728 50.9671 0
      vertex 33.1459 50.7063 5
    endloop
  endfacet
  facet normal 0 -1 0
    outer loop
      vertex 35.6272 50.9671 0
      vertex 35.6272 50.9671 5
      vertex 34.3728 50.9671 5
    endloop
  endfacet
  facet normal 0 -1 0
    outer loop
      vertex 34.3728 50.9671 0
      vertex 35.6272 50.9671 0
      vertex 34.3728 50.9671 5
    endloop
  endfacet
  facet normal -0.207912 -0.978148 0
    outer loop
      vertex 36.8541 50.7063 0
      vertex 36.8541 50.7063 5
      vertex 35.6272 50.9671 5
    endloop
  endfacet
  facet normal -0.207912 -0.978148 0
    outer loop
      vertex 35.6272 50.9671 0
      vertex 36.8541 50.7063 0
      vertex 35.6272 50.9671 5
    endloop
  endfacet
  facet normal -0.406737 -0.913545 0
    outer loop
      vertex 38 50.1962 0
      vertex 38 50.1962 5
      vertex 36.8541 50.7063 5
    endloop
  endfacet
  facet normal -0.406737 -0.913545 0
    outer loop
      vertex 36.8541 50.7063 0
      vertex 38 50.1962 0
      vertex 36.8541 50.7063 5
    endloop
  endfacet
  facet normal -0.587785 -0.809017 0
    outer loop
      vertex 39.0148 49.4589 0
      vertex 39.0148 49.4589 5
      vertex 38 50.1962 5
    endloop
  endfacet
  facet normal -0.587785 -0.809017 0
    outer loop
      vertex 38 50.1962 0
      vertex 39.0148 49.4589 0
      vertex 38 50.1962 5
    endloop
  endfacet
  facet normal -0.743145 -0.669131 0
    outer loop
      vertex 39.8541 48.5267 5
      vertex 39.0148 49.4589 5
      vertex 39.8541 48.5267 0
    endloop
  endfacet
  facet normal -0.743145 -0.669131 0
    outer loop
      vertex 39.8541 48.5267 0
      vertex 39.0148 49.4589 5
      vertex 39.0148 49.4589 0
    endloop
  endfacet
  facet normal -0.866025 -0.5 0
    outer loop
      vertex 40.4813 47.4404 5
      vertex 39.8541 48.5267 5
      vertex 40.4813 47.4404 0
    endloop
  endfacet
  facet normal -0.866025 -0.5 0
    outer loop
      vertex 40.4813 47.4404 0
      vertex 39.8541 48.5267 5
      vertex 39.8541 48.5267 0
    endloop
  endfacet
  facet normal -0.951057 -0.309017 0
    outer loop
      vertex 40.8689 46.2475 5
      vertex 40.4813 47.4404 5
      vertex 40.8689 46.2475 0
    endloop
  endfacet
  facet normal -0.951057 -0.309017 0
    outer loop
      vertex 40.8689 46.2475 0
      vertex 40.4813 47.4404 5
      vertex 40.4813 47.4404 0
    endloop
  endfacet
  facet normal -0.994522 -0.104528 0
    outer loop
      vertex 41 45 5
      vertex 40.8689 46.2475 5
      vertex 41 45 0
    endloop
  endfacet
  facet normal -0.994522 -0.104528 0
    outer loop
      vertex 41 45 0
      vertex 40.8689 46.2475 5
      vertex 40.8689 46.2475 0
    endloop
  endfacet
  facet normal -0.994522 0.104528 0
    outer loop
      vertex 41 45 5
      vertex 41 45 0
      vertex 40.8689 43.7525 5
    endloop
  endfacet
  facet normal -0.994522 0.104528 0
    outer loop
      vertex 40.8689 43.7525 5
      vertex 41 45 0
      vertex 40.8689 43.7525 0
    endloop
  endfacet
  facet normal -0.951057 0.309017 0
    outer loop
      vertex 40.8689 43.7525 5
      vertex 40.8689 43.7525 0
      vertex 40.4813 42.5596 5
    endloop
  endfacet
  facet normal -0.951057 0.309017 0
    outer loop
      vertex 40.4813 42.5596 5
      vertex 40.8689 43.7525 0
      vertex 40.4813 42.5596 0
    endloop
  endfacet
  facet normal -0.866025 0.5 0
    outer loop
      vertex 40.4813 42.5596 5
      vertex 40.4813 42.5596 0
      vertex 39.8541 41.4733 5
    endloop
  endfacet
  facet normal -0.866025 0.5 0
    outer loop
      vertex 39.8541 41.4733 5
      vertex 40.4813 42.5596 0
      vertex 39.8541 41.4733 0
    endloop
  endfacet
  facet normal -0.743145 0.669131 0
    outer loop
      vertex 39.8541 41.4733 5
      vertex 39.8541 41.4733 0
      vertex 39.0148 40.5411 5
    endloop
  endfacet
  facet normal -0.743145 0.669131 0
    outer loop
      vertex 39.0148 40.5411 5
      vertex 39.8541 41.4733 0
      vertex 39.0148 40.5411 0
    endloop
  endfacet
  facet normal -0.587785 0.809017 0
    outer loop
      vertex 39.0148 40.5411 5
      vertex 39.0148 40.5411 0
      vertex 38 39.8038 5
    endloop
  endfacet
  facet normal -0.587785 0.809017 0
    outer loop
      vertex 38 39.8038 5
      vertex 39.0148 40.5411 0
      vertex 38 39.8038 0
    endloop
  endfacet
  facet normal -0.406737 0.913545 0
    outer loop
      vertex 38 39.8038 5
      vertex 38 39.8038 0
      vertex 36.8541 39.2937 5
    endloop
  endfacet
  facet normal -0.406737 0.913545 0
    outer loop
      vertex 36.8541 39.2937 5
      vertex 38 39.8038 0
      vertex 36.8541 39.2937 0
    endloop
  endfacet
  facet normal -0.207912 0.978148 0
    outer loop
      vertex 36.8541 39.2937 5
      vertex 36.8541 39.2937 0
      vertex 35.6272 39.0329 5
    endloop
  endfacet
  facet normal -0.207912 0.978148 0
    outer loop
      vertex 35.6272 39.0329 5
      vertex 36.8541 39.2937 0
      vertex 35.6272 39.0329 0
    endloop
  endfacet
  facet normal 0 1 0
    outer loop
      vertex 35.6272 39.0329 5
      vertex 35.6272 39.0329 0
      vertex 34.3728 39.0329 5
    endloop
  endfacet
  facet normal 0 1 0
    outer loop
      vertex 34.3728 39.0329 5
      vertex 35.6272 39.0329 0
      vertex 34.3728 39.0329 0
    endloop
  endfacet
  facet normal 0.207912 0.978148 0
    outer loop
      vertex 34.3728 39.0329 5
      vertex 34.3728 39.0329 0
      vertex 33.1459 39.2937 5
    endloop
  endfacet
  facet normal 0.207912 0.978148 0
    outer loop
      vertex 33.1459 39.2937 5
      vertex 34.3728 39.0329 0
      vertex 33.1459 39.2937 0
    endloop
  endfacet
  facet normal 0.406737 0.913545 0
    outer loop
      vertex 33.1459 39.2937 5
      vertex 33.1459 39.2937 0
      vertex 32 39.8038 5
    endloop
  endfacet
  facet normal 0.406737 0.913545 0
    outer loop
      vertex 32 39.8038 5
      vertex 33.1459 39.2937 0
      vertex 32 39.8038 0
    endloop
  endfacet
  facet normal 0.587785 0.809017 0
    outer loop
      vertex 32 39.8038 5
      vertex 32 39.8038 0
      vertex 30.9852 40.5411 5
    endloop
  endfacet
  facet normal 0.587785 0.809017 0
    outer loop
      vertex 30.9852 40.5411 5
      vertex 32 39.8038 0
      vertex 30.9852 40.5411 0
    endloop
  endfacet
  facet normal 0.743145 0.669131 0
    outer loop
      vertex 30.1459 41.4733 5
      vertex 30.9852 40.5411 5
      vertex 30.9852 40.5411 0
    endloop
  endfacet
  facet normal 0.743145 0.669131 0
    outer loop
      vertex 30.1459 41.4733 0
      vertex 30.1459 41.4733 5
      vertex 30.9852 40.5411 0
    endloop
  endfacet
  facet normal 0.866025 0.5 0
    outer loop
      vertex 29.5187 42.5596 5
      vertex 30.1459 41.4733 5
      vertex 30.1459 41.4733 0
    endloop
  endfacet
  facet normal 0.866025 0.5 0
    outer loop
      vertex 29.5187 42.5596 0
      vertex 29.5187 42.5596 5
      vertex 30.1459 41.4733 0
    endloop
  endfacet
  facet normal 0.951057 0.309017 0
    outer loop
      vertex 29.1311 43.7525 5
      vertex 29.5187 42.5596 5
      vertex 29.5187 42.5596 0
    endloop
  endfacet
  facet normal 0.951057 0.309017 0
    outer loop
      vertex 29.1311 43.7525 0
      vertex 29.1311 43.7525 5
      vertex 29.5187 42.5596 0
    endloop
  endfacet
  facet normal 1 0 0
    outer loop
      vertex 15 66.5 25.5
      vertex 15 60 14
      vertex 15 90 14
    endloop
  endfacet
  facet normal 1 0 0
    outer loop
      vertex 15 71.5 28.5
      vertex 15 71.5 25.5
      vertex 15 90 14
    endloop
  endfacet
  facet normal 1 0 0
    outer loop
      vertex 15 60 33
      vertex 15 60 14
      vertex 15 66.5 25.5
    endloop
  endfacet
  facet normal 1 0 0
    outer loop
      vertex 15 60 33
      vertex 15 66.5 25.5
      vertex 15 66.5 28.5
    endloop
  endfacet
  facet normal 1 0 0
    outer loop
      vertex 15 79.5 25.5
      vertex 15 71.5 28.5
      vertex 15 90 14
    endloop
  endfacet
  facet normal 1 0 0
    outer loop
      vertex 15 90 33
      vertex 15 60 33
      vertex 15 71.5 28.5
    endloop
  endfacet
  facet normal 1 0 0
    outer loop
      vertex 15 79.5 28.5
      vertex 15 84.5 28.5
      vertex 15 90 33
    endloop
  endfacet
  facet normal 1 0 0
    outer loop
      vertex 15 84.5 25.5
      vertex 15 79.5 25.5
      vertex 15 90 14
    endloop
  endfacet
  facet normal 1 0 0
    outer loop
      vertex 15 79.5 28.5
      vertex 15 71.5 28.5
      vertex 15 79.5 25.5
    endloop
  endfacet
  facet normal 1 0 0
    outer loop
      vertex 15 90 33
      vertex 15 71.5 28.5
      vertex 15 79.5 28.5
    endloop
  endfacet
  facet normal 1 0 0
    outer loop
      vertex 15 90 33
      vertex 15 84.5 28.5
      vertex 15 90 14
    endloop
  endfacet
  facet normal 1 0 0
    outer loop
      vertex 15 84.5 28.5
      vertex 15 84.5 25.5
      vertex 15 90 14
    endloop
  endfacet
  facet normal 1 0 0
    outer loop
      vertex 15 71.5 25.5
      vertex 15 66.5 25.5
      vertex 15 90 14
    endloop
  endfacet
  facet normal 1 0 0
    outer loop
      vertex 15 66.5 28.5
      vertex 15 71.5 28.5
      vertex 15 60 33
    endloop
  endfacet
  facet normal 0 1 2.22045e-16
    outer loop
      vertex 13.5676 62 32.5916
      vertex 12.5185 62 31.4264
      vertex 13.8034 62 33
    endloop
  endfacet
  facet normal 0 1 2.22045e-16
    outer loop
      vertex 13.8034 62 33
      vertex 12.5185 62 31.4264
      vertex 11.25 62 30.5048
    endloop
  endfacet
  facet normal 0 1 2.22045e-16
    outer loop
      vertex 13.8034 62 33
      vertex 11.25 62 30.5048
      vertex 9.81763 62 29.8671
    endloop
  endfacet
  facet normal 0 1 2.22045e-16
    outer loop
      vertex 13.8034 62 33
      vertex 9.81763 62 29.8671
      vertex 8.28396 62 29.5411
    endloop
  endfacet
  facet normal 0 1 2.22045e-16
    outer loop
      vertex 13.8034 62 33
      vertex 8.28396 62 29.5411
      vertex 6.71604 62 29.5411
    endloop
  endfacet
  facet normal 0 1 2.22045e-16
    outer loop
      vertex 13.8034 62 33
      vertex 6.71604 62 29.5411
      vertex 5.18237 62 29.8671
    endloop
  endfacet
  facet normal 0 1 2.22045e-16
    outer loop
      vertex 13.8034 62 33
      vertex 5.18237 62 29.8671
      vertex 3.75 62 30.5048
    endloop
  endfacet
  facet normal 0 1 2.22045e-16
    outer loop
      vertex 13.8034 62 33
      vertex 3.75 62 30.5048
      vertex 2.48152 62 31.4264
    endloop
  endfacet
  facet normal 0 1 2.22045e-16
    outer loop
      vertex 13.8034 62 33
      vertex 2.48152 62 31.4264
      vertex 1.43237 62 32.5916
    endloop
  endfacet
  facet normal 0 1 2.22045e-16
    outer loop
      vertex 13.8034 62 33
      vertex 1.43237 62 32.5916
      vertex 1.19659 62 33
    endloop
  endfacet
  facet normal 0.866025 -1.11022e-16 0.5
    outer loop
      vertex 1.43237 62 32.5916
      vertex 1.43237 88 32.5916
      vertex 1.19659 88 33
    endloop
  endfacet
  facet normal 0.866025 -1.11022e-16 0.5
    outer loop
      vertex 1.19659 62 33
      vertex 1.43237 62 32.5916
      vertex 1.19659 88 33
    endloop
  endfacet
  facet normal -0.866025 -1.11022e-16 0.5
    outer loop
      vertex 13.8034 88 33
      vertex 13.5676 88 32.5916
      vertex 13.8034 62 33
    endloop
  endfacet
  facet normal -0.866025 -1.11022e-16 0.5
    outer loop
      vertex 13.8034 62 33
      vertex 13.5676 88 32.5916
      vertex 13.5676 62 32.5916
    endloop
  endfacet
  facet normal 0 -1 -2.22045e-16
    outer loop
      vertex 1.43237 88 32.5916
      vertex 2.48152 88 31.4264
      vertex 3.75 88 30.5048
    endloop
  endfacet
  facet normal 0 -1 -2.22045e-16
    outer loop
      vertex 6.71604 88 29.5411
      vertex 1.43237 88 32.5916
      vertex 5.18237 88 29.8671
    endloop
  endfacet
  facet normal 0 -1 -2.22045e-16
    outer loop
      vertex 5.18237 88 29.8671
      vertex 1.43237 88 32.5916
      vertex 3.75 88 30.5048
    endloop
  endfacet
  facet normal 0 -1 -2.22045e-16
    outer loop
      vertex 8.28396 88 29.5411
      vertex 1.43237 88 32.5916
      vertex 6.71604 88 29.5411
    endloop
  endfacet
  facet normal 0 -1 -2.22045e-16
    outer loop
      vertex 9.81763 88 29.8671
      vertex 1.43237 88 32.5916
      vertex 8.28396 88 29.5411
    endloop
  endfacet
  facet normal 0 -1 -2.22045e-16
    outer loop
      vertex 11.25 88 30.5048
      vertex 1.43237 88 32.5916
      vertex 9.81763 88 29.8671
    endloop
  endfacet
  facet normal 0 -1 -2.22045e-16
    outer loop
      vertex 12.5185 88 31.4264
      vertex 1.43237 88 32.5916
      vertex 11.25 88 30.5048
    endloop
  endfacet
  facet normal 0 -1 -2.22045e-16
    outer loop
      vertex 13.5676 88 32.5916
      vertex 1.43237 88 32.5916
      vertex 12.5185 88 31.4264
    endloop
  endfacet
  facet normal 0 -1 -2.22045e-16
    outer loop
      vertex 13.8034 88 33
      vertex 1.43237 88 32.5916
      vertex 13.5676 88 32.5916
    endloop
  endfacet
  facet normal 0 -1 -2.22045e-16
    outer loop
      vertex 1.19659 88 33
      vertex 1.43237 88 32.5916
      vertex 13.8034 88 33
    endloop
  endfacet
  facet normal 0 1 2.22045e-16
    outer loop
      vertex 13.5676 2 32.5916
      vertex 12.5185 2 31.4264
      vertex 13.8034 2 33
    endloop
  endfacet
  facet normal 0 1 2.22045e-16
    outer loop
      vertex 13.8034 2 33
      vertex 12.5185 2 31.4264
      vertex 11.25 2 30.5048
    endloop
  endfacet
  facet normal 0 1 2.22045e-16
    outer loop
      vertex 13.8034 2 33
      vertex 11.25 2 30.5048
      vertex 9.81763 2 29.8671
    endloop
  endfacet
  facet normal 0 1 2.22045e-16
    outer loop
      vertex 13.8034 2 33
      vertex 9.81763 2 29.8671
      vertex 8.28396 2 29.5411
    endloop
  endfacet
  facet normal 0 1 2.22045e-16
    outer loop
      vertex 13.8034 2 33
      vertex 8.28396 2 29.5411
      vertex 6.71604 2 29.5411
    endloop
  endfacet
  facet normal 0 1 2.22045e-16
    outer loop
      vertex 13.8034 2 33
      vertex 6.71604 2 29.5411
      vertex 5.18237 2 29.8671
    endloop
  endfacet
  facet normal 0 1 2.22045e-16
    outer loop
      vertex 13.8034 2 33
      vertex 5.18237 2 29.8671
      vertex 3.75 2 30.5048
    endloop
  endfacet
  facet normal 0 1 2.22045e-16
    outer loop
      vertex 13.8034 2 33
      vertex 3.75 2 30.5048
      vertex 2.48152 2 31.4264
    endloop
  endfacet
  facet normal 0 1 2.22045e-16
    outer loop
      vertex 13.8034 2 33
      vertex 2.48152 2 31.4264
      vertex 1.43237 2 32.5916
    endloop
  endfacet
  facet normal 0 1 2.22045e-16
    outer loop
      vertex 13.8034 2 33
      vertex 1.43237 2 32.5916
      vertex 1.19659 2 33
    endloop
  endfacet
  facet normal 0.866025 -1.11022e-16 0.5
    outer loop
      vertex 1.43237 2 32.5916
      vertex 1.43237 28 32.5916
      vertex 1.19659 28 33
    endloop
  endfacet
  facet normal 0.866025 -1.11022e-16 0.5
    outer loop
      vertex 1.19659 2 33
      vertex 1.43237 2 32.5916
      vertex 1.19659 28 33
    endloop
  endfacet
  facet normal -0.866025 -1.11022e-16 0.5
    outer loop
      vertex 13.8034 28 33
      vertex 13.5676 28 32.5916
      vertex 13.8034 2 33
    endloop
  endfacet
  facet normal -0.866025 -1.11022e-16 0.5
    outer loop
      vertex 13.8034 2 33
      vertex 13.5676 28 32.5916
      vertex 13.5676 2 32.5916
    endloop
  endfacet
  facet normal 0 -1 -2.22045e-16
    outer loop
      vertex 1.43237 28 32.5916
      vertex 2.48152 28 31.4264
      vertex 3.75 28 30.5048
    endloop
  endfacet
  facet normal 0 -1 -2.22045e-16
    outer loop
      vertex 6.71604 28 29.5411
      vertex 1.43237 28 32.5916
      vertex 5.18237 28 29.8671
    endloop
  endfacet
  facet normal 0 -1 -2.22045e-16
    outer loop
      vertex 5.18237 28 29.8671
      vertex 1.43237 28 32.5916
      vertex 3.75 28 30.5048
    endloop
  endfacet
  facet normal 0 -1 -2.22045e-16
    outer loop
      vertex 8.28396 28 29.5411
      vertex 1.43237 28 32.5916
      vertex 6.71604 28 29.5411
    endloop
  endfacet
  facet normal 0 -1 -2.22045e-16
    outer loop
      vertex 9.81763 28 29.8671
      vertex 1.43237 28 32.5916
      vertex 8.28396 28 29.5411
    endloop
  endfacet
  facet normal 0 -1 -2.22045e-16
    outer loop
      vertex 11.25 28 30.5048
      vertex 1.43237 28 32.5916
      vertex 9.81763 28 29.8671
    endloop
  endfacet
  facet normal 0 -1 -2.22045e-16
    outer loop
      vertex 12.5185 28 31.4264
      vertex 1.43237 28 32.5916
      vertex 11.25 28 30.5048
    endloop
  endfacet
  facet normal 0 -1 -2.22045e-16
    outer loop
      vertex 13.5676 28 32.5916
      vertex 1.43237 28 32.5916
      vertex 12.5185 28 31.4264
    endloop
  endfacet
  facet normal 0 -1 -2.22045e-16
    outer loop
      vertex 13.8034 28 33
      vertex 1.43237 28 32.5916
      vertex 13.5676 28 32.5916
    endloop
  endfacet
  facet normal 0 -1 -2.22045e-16
    outer loop
      vertex 1.19659 28 33
      vertex 1.43237 28 32.5916
      vertex 13.8034 28 33
    endloop
  endfacet
  facet normal -1 0 -2.22045e-16
    outer loop
      vertex 49 21.9054 10.6304
      vertex 49 22.7188 10.0689
      vertex 49 20.9812 10.9809
    endloop
  endfacet
  facet normal -1 0 -2.22045e-16
    outer loop
      vertex 49 20.9812 10.9809
      vertex 49 22.7188 10.0689
      vertex 49 23.3742 9.32907
    endloop
  endfacet
  facet normal -1 0 -2.22045e-16
    outer loop
      vertex 49 20.9812 10.9809
      vertex 49 23.3742 9.32907
      vertex 49 23.8336 8.45388
    endloop
  endfacet
  facet normal -1 0 -2.22045e-16
    outer loop
      vertex 49 20.9812 10.9809
      vertex 49 23.8336 8.45388
      vertex 49 24.0701 7.4942
    endloop
  endfacet
  facet normal -1 0 -2.22045e-16
    outer loop
      vertex 49 20.9812 10.9809
      vertex 49 24.0701 7.4942
      vertex 49 24.0701 6.5058
    endloop
  endfacet
  facet normal -1 0 -2.22045e-16
    outer loop
      vertex 49 20.9812 10.9809
      vertex 49 24.0701 6.5058
      vertex 49 23.8336 5.54612
    endloop
  endfacet
  facet normal -1 0 -2.22045e-16
    outer loop
      vertex 49 20.9812 10.9809
      vertex 49 23.8336 5.54612
      vertex 49 23.3742 4.67094
    endloop
  endfacet
  facet normal -1 0 -2.22045e-16
    outer loop
      vertex 49 20.9812 10.9809
      vertex 49 23.3742 4.67094
      vertex 49 22.7188 3.93111
    endloop
  endfacet
  facet normal -1 0 -2.22045e-16
    outer loop
      vertex 49 20.9812 10.9809
      vertex 49 22.7188 3.93111
      vertex 49 21.9054 3.36963
    endloop
  endfacet
  facet normal -1 0 -2.22045e-16
    outer loop
      vertex 49 20.9812 10.9809
      vertex 49 21.9054 3.36963
      vertex 49 20.9812 3.01914
    endloop
  endfacet
  facet normal -1 0 -2.22045e-16
    outer loop
      vertex 49 20.9812 10.9809
      vertex 49 20.9812 3.01914
      vertex 49 20 2.9
    endloop
  endfacet
  facet normal -1 0 -2.22045e-16
    outer loop
      vertex 49 20.9812 10.9809
      vertex 49 20 2.9
      vertex 49 19.0188 3.01914
    endloop
  endfacet
  facet normal -1 0 -2.22045e-16
    outer loop
      vertex 49 20.9812 10.9809
      vertex 49 19.0188 3.01914
      vertex 49 18.0946 3.36963
    endloop
  endfacet
  facet normal -1 0 -2.22045e-16
    outer loop
      vertex 49 20.9812 10.9809
      vertex 49 18.0946 3.36963
      vertex 49 17.2812 3.93111
    endloop
  endfacet
  facet normal -1 0 -2.22045e-16
    outer loop
      vertex 49 20.9812 10.9809
      vertex 49 17.2812 3.93111
      vertex 49 16.6258 4.67094
    endloop
  endfacet
  facet normal -1 0 -2.22045e-16
    outer loop
      vertex 49 20.9812 10.9809
      vertex 49 16.6258 4.67094
      vertex 49 16.1664 5.54612
    endloop
  endfacet
  facet normal -1 0 -2.22045e-16
    outer loop
      vertex 49 20.9812 10.9809
      vertex 49 16.1664 5.54612
      vertex 49 15.9299 6.5058
    endloop
  endfacet
  facet normal -1 0 -2.22045e-16
    outer loop
      vertex 49 20.9812 10.9809
      vertex 49 15.9299 6.5058
      vertex 49 15.9299 7.4942
    endloop
  endfacet
  facet normal -1 0 -2.22045e-16
    outer loop
      vertex 49 20.9812 10.9809
      vertex 49 15.9299 7.4942
      vertex 49 16.1664 8.45388
    endloop
  endfacet
  facet normal -1 0 -2.22045e-16
    outer loop
      vertex 49 20.9812 10.9809
      vertex 49 16.1664 8.45388
      vertex 49 16.6258 9.32907
    endloop
  endfacet
  facet normal -1 0 -2.22045e-16
    outer loop
      vertex 49 20.9812 10.9809
      vertex 49 16.6258 9.32907
      vertex 49 17.2812 10.0689
    endloop
  endfacet
  facet normal -1 0 -2.22045e-16
    outer loop
      vertex 49 20.9812 10.9809
      vertex 49 17.2812 10.0689
      vertex 49 18.0946 10.6304
    endloop
  endfacet
  facet normal -1 0 -2.22045e-16
    outer loop
      vertex 49 20.9812 10.9809
      vertex 49 18.0946 10.6304
      vertex 49 19.0188 10.9809
    endloop
  endfacet
  facet normal -1 0 -2.22045e-16
    outer loop
      vertex 49 20.9812 10.9809
      vertex 49 19.0188 10.9809
      vertex 49 20 11.1
    endloop
  endfacet
  facet normal -1 0 -2.22045e-16
    outer loop
      vertex 49 71.9054 10.6304
      vertex 49 72.7188 10.0689
      vertex 49 70.9812 10.9809
    endloop
  endfacet
  facet normal -1 0 -2.22045e-16
    outer loop
      vertex 49 70.9812 10.9809
      vertex 49 72.7188 10.0689
      vertex 49 73.3742 9.32907
    endloop
  endfacet
  facet normal -1 0 -2.22045e-16
    outer loop
      vertex 49 70.9812 10.9809
      vertex 49 73.3742 9.32907
      vertex 49 73.8336 8.45388
    endloop
  endfacet
  facet normal -1 0 -2.22045e-16
    outer loop
      vertex 49 70.9812 10.9809
      vertex 49 73.8336 8.45388
      vertex 49 74.0701 7.4942
    endloop
  endfacet
  facet normal -1 0 -2.22045e-16
    outer loop
      vertex 49 70.9812 10.9809
      vertex 49 74.0701 7.4942
      vertex 49 74.0701 6.5058
    endloop
  endfacet
  facet normal -1 0 -2.22045e-16
    outer loop
      vertex 49 70.9812 10.9809
      vertex 49 74.0701 6.5058
      vertex 49 73.8336 5.54612
    endloop
  endfacet
  facet normal -1 0 -2.22045e-16
    outer loop
      vertex 49 70.9812 10.9809
      vertex 49 73.8336 5.54612
      vertex 49 73.3742 4.67094
    endloop
  endfacet
  facet normal -1 0 -2.22045e-16
    outer loop
      vertex 49 70.9812 10.9809
      vertex 49 73.3742 4.67094
      vertex 49 72.7188 3.93111
    endloop
  endfacet
  facet normal -1 0 -2.22045e-16
    outer loop
      vertex 49 70.9812 10.9809
      vertex 49 72.7188 3.93111
      vertex 49 71.9054 3.36963
    endloop
  endfacet
  facet normal -1 0 -2.22045e-16
    outer loop
      vertex 49 70.9812 10.9809
      vertex 49 71.9054 3.36963
      vertex 49 70.9812 3.01914
    endloop
  endfacet
  facet normal -1 0 -2.22045e-16
    outer loop
      vertex 49 70.9812 10.9809
      vertex 49 70.9812 3.01914
      vertex 49 70 2.9
    endloop
  endfacet
  facet normal -1 0 -2.22045e-16
    outer loop
      vertex 49 70.9812 10.9809
      vertex 49 70 2.9
      vertex 49 69.0188 3.01914
    endloop
  endfacet
  facet normal -1 0 -2.22045e-16
    outer loop
      vertex 49 70.9812 10.9809
      vertex 49 69.0188 3.01914
      vertex 49 68.0946 3.36963
    endloop
  endfacet
  facet normal -1 0 -2.22045e-16
    outer loop
      vertex 49 70.9812 10.9809
      vertex 49 68.0946 3.36963
      vertex 49 67.2812 3.93111
    endloop
  endfacet
  facet normal -1 0 -2.22045e-16
    outer loop
      vertex 49 70.9812 10.9809
      vertex 49 67.2812 3.93111
      vertex 49 66.6258 4.67094
    endloop
  endfacet
  facet normal -1 0 -2.22045e-16
    outer loop
      vertex 49 70.9812 10.9809
      vertex 49 66.6258 4.67094
      vertex 49 66.1664 5.54612
    endloop
  endfacet
  facet normal -1 0 -2.22045e-16
    outer loop
      vertex 49 70.9812 10.9809
      vertex 49 66.1664 5.54612
      vertex 49 65.9299 6.5058
    endloop
  endfacet
  facet normal -1 0 -2.22045e-16
    outer loop
      vertex 49 70.9812 10.9809
      vertex 49 65.9299 6.5058
      vertex 49 65.9299 7.4942
    endloop
  endfacet
  facet normal -1 0 -2.22045e-16
    outer loop
      vertex 49 70.9812 10.9809
      vertex 49 65.9299 7.4942
      vertex 49 66.1664 8.45388
    endloop
  endfacet
  facet normal -1 0 -2.22045e-16
    outer loop
      vertex 49 70.9812 10.9809
      vertex 49 66.1664 8.45388
      vertex 49 66.6258 9.32907
    endloop
  endfacet
  facet normal -1 0 -2.22045e-16
    outer loop
      vertex 49 70.9812 10.9809
      vertex 49 66.6258 9.32907
      vertex 49 67.2812 10.0689
    endloop
  endfacet
  facet normal -1 0 -2.22045e-16
    outer loop
      vertex 49 70.9812 10.9809
      vertex 49 67.2812 10.0689
      vertex 49 68.0946 10.6304
    endloop
  endfacet
  facet normal -1 0 -2.22045e-16
    outer loop
      vertex 49 70.9812 10.9809
      vertex 49 68.0946 10.6304
      vertex 49 69.0188 10.9809
    endloop
  endfacet
  facet normal -1 0 -2.22045e-16
    outer loop
      vertex 49 70.9812 10.9809
      vertex 49 69.0188 10.9809
      vertex 49 70 11.1
    endloop
  endfacet
  facet normal 1 0 0
    outer loop
      vertex 33.0581 45.4786 5
      vertex 33.0581 45.4786 14
      vertex 33.0581 44.5214 14
    endloop
  endfacet
  facet normal 1 0 0
    outer loop
      vertex 33.0581 44.5214 5
      vertex 33.0581 45.4786 5
      vertex 33.0581 44.5214 14
    endloop
  endfacet
  facet normal 0.885456 0.464724 0
    outer loop
      vertex 33.0581 44.5214 14
      vertex 33.503 43.6738 14
      vertex 33.503 43.6738 5
    endloop
  endfacet
  facet normal 0.885456 0.464724 0
    outer loop
      vertex 33.0581 44.5214 5
      vertex 33.0581 44.5214 14
      vertex 33.503 43.6738 5
    endloop
  endfacet
  facet normal 0.568065 0.822984 0
    outer loop
      vertex 34.2908 43.13 14
      vertex 34.2908 43.13 5
      vertex 33.503 43.6738 14
    endloop
  endfacet
  facet normal 0.568065 0.822984 0
    outer loop
      vertex 33.503 43.6738 14
      vertex 34.2908 43.13 5
      vertex 33.503 43.6738 5
    endloop
  endfacet
  facet normal 0.120537 0.992709 0
    outer loop
      vertex 35.2411 43.0146 14
      vertex 35.2411 43.0146 5
      vertex 34.2908 43.13 14
    endloop
  endfacet
  facet normal 0.120537 0.992709 0
    outer loop
      vertex 34.2908 43.13 14
      vertex 35.2411 43.0146 5
      vertex 34.2908 43.13 5
    endloop
  endfacet
  facet normal -0.354605 0.935016 0
    outer loop
      vertex 36.1361 43.354 14
      vertex 36.1361 43.354 5
      vertex 35.2411 43.0146 14
    endloop
  endfacet
  facet normal -0.354605 0.935016 0
    outer loop
      vertex 35.2411 43.0146 14
      vertex 36.1361 43.354 5
      vertex 35.2411 43.0146 5
    endloop
  endfacet
  facet normal -0.748511 0.663123 0
    outer loop
      vertex 36.7709 44.0706 14
      vertex 36.7709 44.0706 5
      vertex 36.1361 43.354 14
    endloop
  endfacet
  facet normal -0.748511 0.663123 0
    outer loop
      vertex 36.1361 43.354 14
      vertex 36.7709 44.0706 5
      vertex 36.1361 43.354 5
    endloop
  endfacet
  facet normal -0.970942 0.239316 0
    outer loop
      vertex 37 45 14
      vertex 37 45 5
      vertex 36.7709 44.0706 14
    endloop
  endfacet
  facet normal -0.970942 0.239316 0
    outer loop
      vertex 36.7709 44.0706 14
      vertex 37 45 5
      vertex 36.7709 44.0706 5
    endloop
  endfacet
  facet normal -0.970942 -0.239316 0
    outer loop
      vertex 37 45 14
      vertex 36.7709 45.9294 14
      vertex 37 45 5
    endloop
  endfacet
  facet normal -0.970942 -0.239316 0
    outer loop
      vertex 37 45 5
      vertex 36.7709 45.9294 14
      vertex 36.7709 45.9294 5
    endloop
  endfacet
  facet normal -0.748511 -0.663123 0
    outer loop
      vertex 36.7709 45.9294 14
      vertex 36.1361 46.646 14
      vertex 36.7709 45.9294 5
    endloop
  endfacet
  facet normal -0.748511 -0.663123 0
    outer loop
      vertex 36.7709 45.9294 5
      vertex 36.1361 46.646 14
      vertex 36.1361 46.646 5
    endloop
  endfacet
  facet normal -0.354605 -0.935016 0
    outer loop
      vertex 36.1361 46.646 5
      vertex 36.1361 46.646 14
      vertex 35.2411 46.9854 14
    endloop
  endfacet
  facet normal -0.354605 -0.935016 0
    outer loop
      vertex 35.2411 46.9854 5
      vertex 36.1361 46.646 5
      vertex 35.2411 46.9854 14
    endloop
  endfacet
  facet normal 0.120537 -0.992709 0
    outer loop
      vertex 35.2411 46.9854 5
      vertex 35.2411 46.9854 14
      vertex 34.2908 46.87 14
    endloop
  endfacet
  facet normal 0.120537 -0.992709 0
    outer loop
      vertex 34.2908 46.87 5
      vertex 35.2411 46.9854 5
      vertex 34.2908 46.87 14
    endloop
  endfacet
  facet normal 0.568065 -0.822984 0
    outer loop
      vertex 34.2908 46.87 5
      vertex 34.2908 46.87 14
      vertex 33.503 46.3262 14
    endloop
  endfacet
  facet normal 0.568065 -0.822984 0
    outer loop
      vertex 33.503 46.3262 5
      vertex 34.2908 46.87 5
      vertex 33.503 46.3262 14
    endloop
  endfacet
  facet normal 0.885456 -0.464724 0
    outer loop
      vertex 33.503 46.3262 5
      vertex 33.503 46.3262 14
      vertex 33.0581 45.4786 14
    endloop
  endfacet
  facet normal 0.885456 -0.464724 0
    outer loop
      vertex 33.0581 45.4786 5
      vertex 33.503 46.3262 5
      vertex 33.0581 45.4786 14
    endloop
  endfacet
  facet normal 0 0 -1
    outer loop
      vertex 29.5187 47.4404 5
      vertex 30.1459 48.5267 5
      vertex 29.1311 46.2475 5
    endloop
  endfacet
  facet normal 0 0 -1
    outer loop
      vertex 29.1311 46.2475 5
      vertex 30.1459 48.5267 5
      vertex 30.9852 49.4589 5
    endloop
  endfacet
  facet normal 0 0 -1
    outer loop
      vertex 29.1311 46.2475 5
      vertex 30.9852 49.4589 5
      vertex 32 50.1962 5
    endloop
  endfacet
  facet normal 0 0 -1
    outer loop
      vertex 29.1311 46.2475 5
      vertex 32 50.1962 5
      vertex 33.1459 50.7063 5
    endloop
  endfacet
  facet normal 0 0 -1
    outer loop
      vertex 29.1311 46.2475 5
      vertex 33.1459 50.7063 5
      vertex 34.3728 50.9671 5
    endloop
  endfacet
  facet normal 0 0 -1
    outer loop
      vertex 29.1311 46.2475 5
      vertex 34.3728 50.9671 5
      vertex 35.6272 50.9671 5
    endloop
  endfacet
  facet normal 0 0 -1
    outer loop
      vertex 29.1311 46.2475 5
      vertex 35.6272 50.9671 5
      vertex 36.8541 50.7063 5
    endloop
  endfacet
  facet normal 0 0 -1
    outer loop
      vertex 29.1311 46.2475 5
      vertex 36.8541 50.7063 5
      vertex 38 50.1962 5
    endloop
  endfacet
  facet normal 0 0 -1
    outer loop
      vertex 29.1311 46.2475 5
      vertex 38 50.1962 5
      vertex 39.0148 49.4589 5
    endloop
  endfacet
  facet normal 0 0 -1
    outer loop
      vertex 29.1311 46.2475 5
      vertex 39.0148 49.4589 5
      vertex 39.8541 48.5267 5
    endloop
  endfacet
  facet normal 0 0 -1
    outer loop
      vertex 35.2411 46.9854 5
      vertex 39.8541 48.5267 5
      vertex 40.4813 47.4404 5
    endloop
  endfacet
  facet normal 0 0 -1
    outer loop
      vertex 36.1361 46.646 5
      vertex 40.4813 47.4404 5
      vertex 40.8689 46.2475 5
    endloop
  endfacet
  facet normal 0 0 -1
    outer loop
      vertex 36.7709 45.9294 5
      vertex 40.8689 46.2475 5
      vertex 41 45 5
    endloop
  endfacet
  facet normal 0 0 -1
    outer loop
      vertex 37 45 5
      vertex 41 45 5
      vertex 40.8689 43.7525 5
    endloop
  endfacet
  facet normal 0 0 -1
    outer loop
      vertex 36.7709 44.0706 5
      vertex 40.8689 43.7525 5
      vertex 40.4813 42.5596 5
    endloop
  endfacet
  facet normal 0 0 -1
    outer loop
      vertex 36.1361 43.354 5
      vertex 40.4813 42.5596 5
      vertex 39.8541 41.4733 5
    endloop
  endfacet
  facet normal 0 0 -1
    outer loop
      vertex 35.2411 43.0146 5
      vertex 39.8541 41.4733 5
      vertex 39.0148 40.5411 5
    endloop
  endfacet
  facet normal 0 0 -1
    outer loop
      vertex 34.2908 43.13 5
      vertex 39.0148 40.5411 5
      vertex 38 39.8038 5
    endloop
  endfacet
  facet normal 0 0 -1
    outer loop
      vertex 29.1311 46.2475 5
      vertex 38 39.8038 5
      vertex 36.8541 39.2937 5
    endloop
  endfacet
  facet normal 0 0 -1
    outer loop
      vertex 29.1311 46.2475 5
      vertex 36.8541 39.2937 5
      vertex 35.6272 39.0329 5
    endloop
  endfacet
  facet normal 0 0 -1
    outer loop
      vertex 29.1311 46.2475 5
      vertex 35.6272 39.0329 5
      vertex 34.3728 39.0329 5
    endloop
  endfacet
  facet normal 0 0 -1
    outer loop
      vertex 29.1311 46.2475 5
      vertex 34.3728 39.0329 5
      vertex 33.1459 39.2937 5
    endloop
  endfacet
  facet normal 0 0 -1
    outer loop
      vertex 29.1311 46.2475 5
      vertex 33.1459 39.2937 5
      vertex 32 39.8038 5
    endloop
  endfacet
  facet normal 0 0 -1
    outer loop
      vertex 29.1311 46.2475 5
      vertex 32 39.8038 5
      vertex 30.9852 40.5411 5
    endloop
  endfacet
  facet normal 0 0 -1
    outer loop
      vertex 29.1311 46.2475 5
      vertex 30.9852 40.5411 5
      vertex 30.1459 41.4733 5
    endloop
  endfacet
  facet normal 0 0 -1
    outer loop
      vertex 29.1311 46.2475 5
      vertex 30.1459 41.4733 5
      vertex 29.5187 42.5596 5
    endloop
  endfacet
  facet normal 0 0 -1
    outer loop
      vertex 29.1311 46.2475 5
      vertex 29.5187 42.5596 5
      vertex 29.1311 43.7525 5
    endloop
  endfacet
  facet normal 0 0 -1
    outer loop
      vertex 29.1311 46.2475 5
      vertex 29.1311 43.7525 5
      vertex 29 45 5
    endloop
  endfacet
  facet normal 0 0 -1
    outer loop
      vertex 33.503 43.6738 5
      vertex 29.1311 46.2475 5
      vertex 33.0581 44.5214 5
    endloop
  endfacet
  facet normal 0 0 -1
    outer loop
      vertex 35.2411 43.0146 5
      vertex 39.0148 40.5411 5
      vertex 34.2908 43.13 5
    endloop
  endfacet
  facet normal 0 0 -1
    outer loop
      vertex 29.1311 46.2475 5
      vertex 33.503 43.6738 5
      vertex 38 39.8038 5
    endloop
  endfacet
  facet normal 0 0 -1
    outer loop
      vertex 33.503 43.6738 5
      vertex 34.2908 43.13 5
      vertex 38 39.8038 5
    endloop
  endfacet
  facet normal 0 0 -1
    outer loop
      vertex 36.7709 44.0706 5
      vertex 40.4813 42.5596 5
      vertex 36.1361 43.354 5
    endloop
  endfacet
  facet normal 0 0 -1
    outer loop
      vertex 36.1361 43.354 5
      vertex 39.8541 41.4733 5
      vertex 35.2411 43.0146 5
    endloop
  endfacet
  facet normal 0 0 -1
    outer loop
      vertex 36.7709 45.9294 5
      vertex 41 45 5
      vertex 37 45 5
    endloop
  endfacet
  facet normal 0 0 -1
    outer loop
      vertex 36.1361 46.646 5
      vertex 40.8689 46.2475 5
      vertex 36.7709 45.9294 5
    endloop
  endfacet
  facet normal 0 0 -1
    outer loop
      vertex 35.2411 46.9854 5
      vertex 40.4813 47.4404 5
      vertex 36.1361 46.646 5
    endloop
  endfacet
  facet normal 0 0 -1
    outer loop
      vertex 29.1311 46.2475 5
      vertex 39.8541 48.5267 5
      vertex 35.2411 46.9854 5
    endloop
  endfacet
  facet normal 0 0 -1
    outer loop
      vertex 33.503 46.3262 5
      vertex 29.1311 46.2475 5
      vertex 34.2908 46.87 5
    endloop
  endfacet
  facet normal 0 0 -1
    outer loop
      vertex 29.1311 46.2475 5
      vertex 35.2411 46.9854 5
      vertex 34.2908 46.87 5
    endloop
  endfacet
  facet normal 0 0 -1
    outer loop
      vertex 33.0581 45.4786 5
      vertex 29.1311 46.2475 5
      vertex 33.503 46.3262 5
    endloop
  endfacet
  facet normal 0 0 -1
    outer loop
      vertex 33.0581 44.5214 5
      vertex 29.1311 46.2475 5
      vertex 33.0581 45.4786 5
    endloop
  endfacet
  facet normal 0 0 -1
    outer loop
      vertex 37 45 5
      vertex 40.8689 43.7525 5
      vertex 36.7709 44.0706 5
    endloop
  endfacet
  facet normal 0.743145 -1.48577e-16 0.66913
    outer loop
      vertex 2.48152 62 31.4264
      vertex 2.48152 88 31.4264
      vertex 1.43237 88 32.5916
    endloop
  endfacet
  facet normal 0.743145 -1.48577e-16 0.66913
    outer loop
      vertex 1.43237 62 32.5916
      vertex 2.48152 62 31.4264
      vertex 1.43237 88 32.5916
    endloop
  endfacet
  facet normal 0.587785 -1.79638e-16 0.809017
    outer loop
      vertex 3.75 62 30.5048
      vertex 3.75 88 30.5048
      vertex 2.48152 88 31.4264
    endloop
  endfacet
  facet normal 0.587785 -1.79638e-16 0.809017
    outer loop
      vertex 2.48152 62 31.4264
      vertex 3.75 62 30.5048
      vertex 2.48152 88 31.4264
    endloop
  endfacet
  facet normal 0.406736 -2.02848e-16 0.913546
    outer loop
      vertex 5.18237 62 29.8671
      vertex 5.18237 88 29.8671
      vertex 3.75 88 30.5048
    endloop
  endfacet
  facet normal 0.406736 -2.02848e-16 0.913546
    outer loop
      vertex 3.75 62 30.5048
      vertex 5.18237 62 29.8671
      vertex 3.75 88 30.5048
    endloop
  endfacet
  facet normal 0.207911 -2.17192e-16 0.978148
    outer loop
      vertex 6.71604 62 29.5411
      vertex 6.71604 88 29.5411
      vertex 5.18237 88 29.8671
    endloop
  endfacet
  facet normal 0.207911 -2.17192e-16 0.978148
    outer loop
      vertex 5.18237 62 29.8671
      vertex 6.71604 62 29.5411
      vertex 5.18237 88 29.8671
    endloop
  endfacet
  facet normal 0 -2.22045e-16 1
    outer loop
      vertex 8.28396 62 29.5411
      vertex 8.28396 88 29.5411
      vertex 6.71604 88 29.5411
    endloop
  endfacet
  facet normal 0 -2.22045e-16 1
    outer loop
      vertex 6.71604 62 29.5411
      vertex 8.28396 62 29.5411
      vertex 6.71604 88 29.5411
    endloop
  endfacet
  facet normal -0.207911 -2.17192e-16 0.978148
    outer loop
      vertex 9.81763 62 29.8671
      vertex 9.81763 88 29.8671
      vertex 8.28396 88 29.5411
    endloop
  endfacet
  facet normal -0.207911 -2.17192e-16 0.978148
    outer loop
      vertex 8.28396 62 29.5411
      vertex 9.81763 62 29.8671
      vertex 8.28396 88 29.5411
    endloop
  endfacet
  facet normal -0.406736 -2.02848e-16 0.913546
    outer loop
      vertex 11.25 62 30.5048
      vertex 11.25 88 30.5048
      vertex 9.81763 88 29.8671
    endloop
  endfacet
  facet normal -0.406736 -2.02848e-16 0.913546
    outer loop
      vertex 9.81763 62 29.8671
      vertex 11.25 62 30.5048
      vertex 9.81763 88 29.8671
    endloop
  endfacet
  facet normal -0.587785 -1.79638e-16 0.809017
    outer loop
      vertex 12.5185 62 31.4264
      vertex 12.5185 88 31.4264
      vertex 11.25 88 30.5048
    endloop
  endfacet
  facet normal -0.587785 -1.79638e-16 0.809017
    outer loop
      vertex 11.25 62 30.5048
      vertex 12.5185 62 31.4264
      vertex 11.25 88 30.5048
    endloop
  endfacet
  facet normal -0.743145 -1.48577e-16 0.66913
    outer loop
      vertex 13.5676 88 32.5916
      vertex 12.5185 88 31.4264
      vertex 13.5676 62 32.5916
    endloop
  endfacet
  facet normal -0.743145 -1.48577e-16 0.66913
    outer loop
      vertex 13.5676 62 32.5916
      vertex 12.5185 88 31.4264
      vertex 12.5185 62 31.4264
    endloop
  endfacet
  facet normal 0.743145 -1.48577e-16 0.66913
    outer loop
      vertex 2.48152 2 31.4264
      vertex 2.48152 28 31.4264
      vertex 1.43237 28 32.5916
    endloop
  endfacet
  facet normal 0.743145 -1.48577e-16 0.66913
    outer loop
      vertex 1.43237 2 32.5916
      vertex 2.48152 2 31.4264
      vertex 1.43237 28 32.5916
    endloop
  endfacet
  facet normal 0.587785 -1.79638e-16 0.809017
    outer loop
      vertex 3.75 2 30.5048
      vertex 3.75 28 30.5048
      vertex 2.48152 28 31.4264
    endloop
  endfacet
  facet normal 0.587785 -1.79638e-16 0.809017
    outer loop
      vertex 2.48152 2 31.4264
      vertex 3.75 2 30.5048
      vertex 2.48152 28 31.4264
    endloop
  endfacet
  facet normal 0.406736 -2.02848e-16 0.913546
    outer loop
      vertex 5.18237 2 29.8671
      vertex 5.18237 28 29.8671
      vertex 3.75 28 30.5048
    endloop
  endfacet
  facet normal 0.406736 -2.02848e-16 0.913546
    outer loop
      vertex 3.75 2 30.5048
      vertex 5.18237 2 29.8671
      vertex 3.75 28 30.5048
    endloop
  endfacet
  facet normal 0.207911 -2.17192e-16 0.978148
    outer loop
      vertex 6.71604 2 29.5411
      vertex 6.71604 28 29.5411
      vertex 5.18237 28 29.8671
    endloop
  endfacet
  facet normal 0.207911 -2.17192e-16 0.978148
    outer loop
      vertex 5.18237 2 29.8671
      vertex 6.71604 2 29.5411
      vertex 5.18237 28 29.8671
    endloop
  endfacet
  facet normal 0 -2.22045e-16 1
    outer loop
      vertex 8.28396 2 29.5411
      vertex 8.28396 28 29.5411
      vertex 6.71604 28 29.5411
    endloop
  endfacet
  facet normal 0 -2.22045e-16 1
    outer loop
      vertex 6.71604 2 29.5411
      vertex 8.28396 2 29.5411
      vertex 6.71604 28 29.5411
    endloop
  endfacet
  facet normal -0.207911 -2.17192e-16 0.978148
    outer loop
      vertex 9.81763 2 29.8671
      vertex 9.81763 28 29.8671
      vertex 8.28396 28 29.5411
    endloop
  endfacet
  facet normal -0.207911 -2.17192e-16 0.978148
    outer loop
      vertex 8.28396 2 29.5411
      vertex 9.81763 2 29.8671
      vertex 8.28396 28 29.5411
    endloop
  endfacet
  facet normal -0.406736 -2.02848e-16 0.913546
    outer loop
      vertex 11.25 2 30.5048
      vertex 11.25 28 30.5048
      vertex 9.81763 28 29.8671
    endloop
  endfacet
  facet normal -0.406736 -2.02848e-16 0.913546
    outer loop
      vertex 9.81763 2 29.8671
      vertex 11.25 2 30.5048
      vertex 9.81763 28 29.8671
    endloop
  endfacet
  facet normal -0.587785 -1.79638e-16 0.809017
    outer loop
      vertex 12.5185 2 31.4264
      vertex 12.5185 28 31.4264
      vertex 11.25 28 30.5048
    endloop
  endfacet
  facet normal -0.587785 -1.79638e-16 0.809017
    outer loop
      vertex 11.25 2 30.5048
      vertex 12.5185 2 31.4264
      vertex 11.25 28 30.5048
    endloop
  endfacet
  facet normal -0.743145 -1.48577e-16 0.66913
    outer loop
      vertex 13.5676 28 32.5916
      vertex 12.5185 28 31.4264
      vertex 13.5676 2 32.5916
    endloop
  endfacet
  facet normal -0.743145 -1.48577e-16 0.66913
    outer loop
      vertex 13.5676 2 32.5916
      vertex 12.5185 28 31.4264
      vertex 12.5185 2 31.4264
    endloop
  endfacet
endsolid OpenSCAD_Model
