solid OpenSCAD_Model
  facet normal -1 0 0
    outer loop
      vertex 0 0 0
      vertex 0 0 6
      vertex 0 50 0
    endloop
  endfacet
  facet normal -1 0 0
    outer loop
      vertex 0 50 0
      vertex 0 0 6
      vertex 0 50 6
    endloop
  endfacet
  facet normal 0 -1 0
    outer loop
      vertex 0 0 6
      vertex 0 0 0
      vertex 26 0 0
    endloop
  endfacet
  facet normal 0 -1 0
    outer loop
      vertex 26 0 6
      vertex 0 0 6
      vertex 26 0 0
    endloop
  endfacet
  facet normal 0 0 -1
    outer loop
      vertex 17.7509 46.7322 0
      vertex 0 50 0
      vertex 26 50 0
    endloop
  endfacet
  facet normal 0 0 -1
    outer loop
      vertex 0 0 0
      vertex 0 50 0
      vertex 3 16 0
    endloop
  endfacet
  facet normal 0 0 -1
    outer loop
      vertex 4.5 18.5981 0
      vertex 3 34 0
      vertex 7.5 18.5981 0
    endloop
  endfacet
  facet normal 0 0 -1
    outer loop
      vertex 0 0 0
      vertex 3 16 0
      vertex 4.5 13.4019 0
    endloop
  endfacet
  facet normal 0 0 -1
    outer loop
      vertex 7.5 31.4019 0
      vertex 9 16 0
      vertex 4.5 31.4019 0
    endloop
  endfacet
  facet normal 0 0 -1
    outer loop
      vertex 19.4722 5.94612 0
      vertex 9 16 0
      vertex 26 0 0
    endloop
  endfacet
  facet normal 0 0 -1
    outer loop
      vertex 4.5 31.4019 0
      vertex 7.5 18.5981 0
      vertex 3 34 0
    endloop
  endfacet
  facet normal 0 0 -1
    outer loop
      vertex 3 16 0
      vertex 0 50 0
      vertex 4.5 18.5981 0
    endloop
  endfacet
  facet normal 0 0 -1
    outer loop
      vertex 4.5 18.5981 0
      vertex 0 50 0
      vertex 3 34 0
    endloop
  endfacet
  facet normal 0 0 -1
    outer loop
      vertex 3 34 0
      vertex 0 50 0
      vertex 4.5 36.5981 0
    endloop
  endfacet
  facet normal 0 0 -1
    outer loop
      vertex 7.5 18.5981 0
      vertex 4.5 31.4019 0
      vertex 9 16 0
    endloop
  endfacet
  facet normal 0 0 -1
    outer loop
      vertex 16.3209 5.49303 0
      vertex 4.5 13.4019 0
      vertex 16.854 6.32256 0
    endloop
  endfacet
  facet normal 0 0 -1
    outer loop
      vertex 9 16 0
      vertex 7.5 31.4019 0
      vertex 26 0 0
    endloop
  endfacet
  facet normal 0 0 -1
    outer loop
      vertex 7.5 36.5981 0
      vertex 0 50 0
      vertex 9 34 0
    endloop
  endfacet
  facet normal 0 0 -1
    outer loop
      vertex 26 0 0
      vertex 9 34 0
      vertex 26 50 0
    endloop
  endfacet
  facet normal 0 0 -1
    outer loop
      vertex 4.5 36.5981 0
      vertex 0 50 0
      vertex 7.5 36.5981 0
    endloop
  endfacet
  facet normal 0 0 -1
    outer loop
      vertex 9 34 0
      vertex 26 0 0
      vertex 7.5 31.4019 0
    endloop
  endfacet
  facet normal 0 0 -1
    outer loop
      vertex 0 0 0
      vertex 4.5 13.4019 0
      vertex 16.3209 5.49303 0
    endloop
  endfacet
  facet normal 0 0 -1
    outer loop
      vertex 19.75 45 0
      vertex 26 50 0
      vertex 19.4722 44.0539 0
    endloop
  endfacet
  facet normal 0 0 -1
    outer loop
      vertex 0 0 0
      vertex 16.3209 5.49303 0
      vertex 16.3209 4.50697 0
    endloop
  endfacet
  facet normal 0 0 -1
    outer loop
      vertex 0 0 0
      vertex 16.3209 4.50697 0
      vertex 16.854 3.67744 0
    endloop
  endfacet
  facet normal 0 0 -1
    outer loop
      vertex 0 0 0
      vertex 16.854 3.67744 0
      vertex 17.7509 3.26781 0
    endloop
  endfacet
  facet normal 0 0 -1
    outer loop
      vertex 0 0 0
      vertex 17.7509 3.26781 0
      vertex 26 0 0
    endloop
  endfacet
  facet normal 0 0 -1
    outer loop
      vertex 19.4722 4.05388 0
      vertex 26 0 0
      vertex 18.727 3.40814 0
    endloop
  endfacet
  facet normal 0 0 -1
    outer loop
      vertex 18.727 3.40814 0
      vertex 26 0 0
      vertex 17.7509 3.26781 0
    endloop
  endfacet
  facet normal 0 0 -1
    outer loop
      vertex 19.75 5 0
      vertex 26 0 0
      vertex 19.4722 4.05388 0
    endloop
  endfacet
  facet normal 0 0 -1
    outer loop
      vertex 16.854 6.32256 0
      vertex 7.5 13.4019 0
      vertex 17.7509 6.73219 0
    endloop
  endfacet
  facet normal 0 0 -1
    outer loop
      vertex 17.7509 6.73219 0
      vertex 9 16 0
      vertex 18.727 6.59186 0
    endloop
  endfacet
  facet normal 0 0 -1
    outer loop
      vertex 18.727 6.59186 0
      vertex 9 16 0
      vertex 19.4722 5.94612 0
    endloop
  endfacet
  facet normal 0 0 -1
    outer loop
      vertex 19.75 5 0
      vertex 19.4722 5.94612 0
      vertex 26 0 0
    endloop
  endfacet
  facet normal 0 0 -1
    outer loop
      vertex 7.5 13.4019 0
      vertex 9 16 0
      vertex 17.7509 6.73219 0
    endloop
  endfacet
  facet normal 0 0 -1
    outer loop
      vertex 9 34 0
      vertex 0 50 0
      vertex 16.3209 45.493 0
    endloop
  endfacet
  facet normal 0 0 -1
    outer loop
      vertex 9 34 0
      vertex 16.3209 45.493 0
      vertex 16.3209 44.507 0
    endloop
  endfacet
  facet normal 0 0 -1
    outer loop
      vertex 9 34 0
      vertex 16.3209 44.507 0
      vertex 16.854 43.6774 0
    endloop
  endfacet
  facet normal 0 0 -1
    outer loop
      vertex 9 34 0
      vertex 16.854 43.6774 0
      vertex 17.7509 43.2678 0
    endloop
  endfacet
  facet normal 0 0 -1
    outer loop
      vertex 9 34 0
      vertex 17.7509 43.2678 0
      vertex 18.727 43.4081 0
    endloop
  endfacet
  facet normal 0 0 -1
    outer loop
      vertex 9 34 0
      vertex 18.727 43.4081 0
      vertex 19.4722 44.0539 0
    endloop
  endfacet
  facet normal 0 0 -1
    outer loop
      vertex 9 34 0
      vertex 19.4722 44.0539 0
      vertex 26 50 0
    endloop
  endfacet
  facet normal 0 0 -1
    outer loop
      vertex 19.4722 45.9461 0
      vertex 26 50 0
      vertex 19.75 45 0
    endloop
  endfacet
  facet normal 0 0 -1
    outer loop
      vertex 18.727 46.5919 0
      vertex 26 50 0
      vertex 19.4722 45.9461 0
    endloop
  endfacet
  facet normal 0 0 -1
    outer loop
      vertex 17.7509 46.7322 0
      vertex 26 50 0
      vertex 18.727 46.5919 0
    endloop
  endfacet
  facet normal 0 0 -1
    outer loop
      vertex 16.854 46.3226 0
      vertex 0 50 0
      vertex 17.7509 46.7322 0
    endloop
  endfacet
  facet normal 0 0 -1
    outer loop
      vertex 16.3209 45.493 0
      vertex 0 50 0
      vertex 16.854 46.3226 0
    endloop
  endfacet
  facet normal 0 0 -1
    outer loop
      vertex 7.5 13.4019 0
      vertex 16.854 6.32256 0
      vertex 4.5 13.4019 0
    endloop
  endfacet
  facet normal 0 1 0
    outer loop
      vertex 0 50 0
      vertex 0 50 6
      vertex 26 50 0
    endloop
  endfacet
  facet normal 0 1 0
    outer loop
      vertex 26 50 0
      vertex 0 50 6
      vertex 26 50 6
    endloop
  endfacet
  facet normal 0 0 1
    outer loop
      vertex 17.7509 3.26781 6
      vertex 0 0 6
      vertex 26 0 6
    endloop
  endfacet
  facet normal 0 0 1
    outer loop
      vertex 16.3209 44.507 6
      vertex 0 50 6
      vertex 26 0 6
    endloop
  endfacet
  facet normal 0 0 1
    outer loop
      vertex 4.5 34 6
      vertex 4.78647 34.8817 6
      vertex 0 50 6
    endloop
  endfacet
  facet normal 0 0 1
    outer loop
      vertex 4.5 16 6
      vertex 0 0 6
      vertex 4.78647 15.1183 6
    endloop
  endfacet
  facet normal 0 0 1
    outer loop
      vertex 0 50 6
      vertex 0 0 6
      vertex 4.5 16 6
    endloop
  endfacet
  facet normal 0 0 1
    outer loop
      vertex 17.7509 6.73219 6
      vertex 18.727 6.59186 6
      vertex 7.21352 16.8817 6
    endloop
  endfacet
  facet normal 0 0 1
    outer loop
      vertex 0 50 6
      vertex 4.78647 16.8817 6
      vertex 5.53647 17.4266 6
    endloop
  endfacet
  facet normal 0 0 1
    outer loop
      vertex 19.4722 5.94612 6
      vertex 19.75 5 6
      vertex 26 0 6
    endloop
  endfacet
  facet normal 0 0 1
    outer loop
      vertex 0 50 6
      vertex 5.53647 17.4266 6
      vertex 6.46352 17.4266 6
    endloop
  endfacet
  facet normal 0 0 1
    outer loop
      vertex 0 50 6
      vertex 6.46352 17.4266 6
      vertex 7.21352 16.8817 6
    endloop
  endfacet
  facet normal 0 0 1
    outer loop
      vertex 19.75 5 6
      vertex 19.4722 4.05388 6
      vertex 26 0 6
    endloop
  endfacet
  facet normal 0 0 1
    outer loop
      vertex 4.78647 15.1183 6
      vertex 0 0 6
      vertex 5.53647 14.5734 6
    endloop
  endfacet
  facet normal 0 0 1
    outer loop
      vertex 5.53647 32.5734 6
      vertex 4.78647 33.1183 6
      vertex 26 0 6
    endloop
  endfacet
  facet normal 0 0 1
    outer loop
      vertex 4.5 34 6
      vertex 7.21352 16.8817 6
      vertex 4.78647 33.1183 6
    endloop
  endfacet
  facet normal 0 0 1
    outer loop
      vertex 7.5 34 6
      vertex 7.21352 33.1183 6
      vertex 26 0 6
    endloop
  endfacet
  facet normal 0 0 1
    outer loop
      vertex 0 50 6
      vertex 7.21352 16.8817 6
      vertex 4.5 34 6
    endloop
  endfacet
  facet normal 0 0 1
    outer loop
      vertex 19.4722 4.05388 6
      vertex 18.727 3.40814 6
      vertex 26 0 6
    endloop
  endfacet
  facet normal 0 0 1
    outer loop
      vertex 6.46352 32.5734 6
      vertex 5.53647 32.5734 6
      vertex 26 0 6
    endloop
  endfacet
  facet normal 0 0 1
    outer loop
      vertex 0 50 6
      vertex 4.78647 34.8817 6
      vertex 5.53647 35.4266 6
    endloop
  endfacet
  facet normal 0 0 1
    outer loop
      vertex 7.21352 33.1183 6
      vertex 6.46352 32.5734 6
      vertex 26 0 6
    endloop
  endfacet
  facet normal 0 0 1
    outer loop
      vertex 0 50 6
      vertex 5.53647 35.4266 6
      vertex 6.46352 35.4266 6
    endloop
  endfacet
  facet normal 0 0 1
    outer loop
      vertex 0 50 6
      vertex 7.21352 34.8817 6
      vertex 26 0 6
    endloop
  endfacet
  facet normal 0 0 1
    outer loop
      vertex 0 50 6
      vertex 6.46352 35.4266 6
      vertex 7.21352 34.8817 6
    endloop
  endfacet
  facet normal 0 0 1
    outer loop
      vertex 7.21352 34.8817 6
      vertex 7.5 34 6
      vertex 26 0 6
    endloop
  endfacet
  facet normal 0 0 1
    outer loop
      vertex 5.53647 14.5734 6
      vertex 0 0 6
      vertex 16.3209 4.50697 6
    endloop
  endfacet
  facet normal 0 0 1
    outer loop
      vertex 18.727 3.40814 6
      vertex 17.7509 3.26781 6
      vertex 26 0 6
    endloop
  endfacet
  facet normal 0 0 1
    outer loop
      vertex 5.53647 14.5734 6
      vertex 16.3209 4.50697 6
      vertex 16.3209 5.49303 6
    endloop
  endfacet
  facet normal 0 0 1
    outer loop
      vertex 5.53647 14.5734 6
      vertex 16.3209 5.49303 6
      vertex 16.854 6.32256 6
    endloop
  endfacet
  facet normal 0 0 1
    outer loop
      vertex 17.7509 46.7322 6
      vertex 18.727 46.5919 6
      vertex 26 50 6
    endloop
  endfacet
  facet normal 0 0 1
    outer loop
      vertex 4.78647 33.1183 6
      vertex 7.21352 16.8817 6
      vertex 18.727 6.59186 6
    endloop
  endfacet
  facet normal 0 0 1
    outer loop
      vertex 4.78647 33.1183 6
      vertex 19.4722 5.94612 6
      vertex 26 0 6
    endloop
  endfacet
  facet normal 0 0 1
    outer loop
      vertex 4.78647 33.1183 6
      vertex 18.727 6.59186 6
      vertex 19.4722 5.94612 6
    endloop
  endfacet
  facet normal 0 0 1
    outer loop
      vertex 17.7509 6.73219 6
      vertex 7.21352 16.8817 6
      vertex 7.5 16 6
    endloop
  endfacet
  facet normal 0 0 1
    outer loop
      vertex 16.854 3.67744 6
      vertex 0 0 6
      vertex 17.7509 3.26781 6
    endloop
  endfacet
  facet normal 0 0 1
    outer loop
      vertex 16.3209 4.50697 6
      vertex 0 0 6
      vertex 16.854 3.67744 6
    endloop
  endfacet
  facet normal 0 0 1
    outer loop
      vertex 16.854 43.6774 6
      vertex 16.3209 44.507 6
      vertex 26 0 6
    endloop
  endfacet
  facet normal 0 0 1
    outer loop
      vertex 16.3209 45.493 6
      vertex 0 50 6
      vertex 16.3209 44.507 6
    endloop
  endfacet
  facet normal 0 0 1
    outer loop
      vertex 16.854 46.3226 6
      vertex 0 50 6
      vertex 16.3209 45.493 6
    endloop
  endfacet
  facet normal 0 0 1
    outer loop
      vertex 18.727 46.5919 6
      vertex 19.4722 45.9461 6
      vertex 26 50 6
    endloop
  endfacet
  facet normal 0 0 1
    outer loop
      vertex 17.7509 46.7322 6
      vertex 0 50 6
      vertex 16.854 46.3226 6
    endloop
  endfacet
  facet normal 0 0 1
    outer loop
      vertex 26 50 6
      vertex 0 50 6
      vertex 17.7509 46.7322 6
    endloop
  endfacet
  facet normal 0 0 1
    outer loop
      vertex 19.75 45 6
      vertex 19.4722 44.0539 6
      vertex 26 0 6
    endloop
  endfacet
  facet normal 0 0 1
    outer loop
      vertex 26 50 6
      vertex 19.75 45 6
      vertex 26 0 6
    endloop
  endfacet
  facet normal 0 0 1
    outer loop
      vertex 26 50 6
      vertex 19.4722 45.9461 6
      vertex 19.75 45 6
    endloop
  endfacet
  facet normal 0 0 1
    outer loop
      vertex 19.4722 44.0539 6
      vertex 18.727 43.4081 6
      vertex 26 0 6
    endloop
  endfacet
  facet normal 0 0 1
    outer loop
      vertex 18.727 43.4081 6
      vertex 17.7509 43.2678 6
      vertex 26 0 6
    endloop
  endfacet
  facet normal 0 0 1
    outer loop
      vertex 17.7509 43.2678 6
      vertex 16.854 43.6774 6
      vertex 26 0 6
    endloop
  endfacet
  facet normal 0 0 1
    outer loop
      vertex 4.5 16 6
      vertex 4.78647 16.8817 6
      vertex 0 50 6
    endloop
  endfacet
  facet normal 0 0 1
    outer loop
      vertex 7.5 16 6
      vertex 7.21352 15.1183 6
      vertex 17.7509 6.73219 6
    endloop
  endfacet
  facet normal 0 0 1
    outer loop
      vertex 16.854 6.32256 6
      vertex 6.46352 14.5734 6
      vertex 5.53647 14.5734 6
    endloop
  endfacet
  facet normal 0 0 1
    outer loop
      vertex 16.854 6.32256 6
      vertex 7.21352 15.1183 6
      vertex 6.46352 14.5734 6
    endloop
  endfacet
  facet normal 0 0 1
    outer loop
      vertex 16.854 6.32256 6
      vertex 17.7509 6.73219 6
      vertex 7.21352 15.1183 6
    endloop
  endfacet
  facet normal 1 0 0
    outer loop
      vertex 26 0 6
      vertex 26 0 0
      vertex 26 50 0
    endloop
  endfacet
  facet normal 1 0 0
    outer loop
      vertex 26 50 6
      vertex 26 0 6
      vertex 26 50 0
    endloop
  endfacet
  facet normal 0.866025 -0.5 0
    outer loop
      vertex 4.5 18.5981 0
      vertex 4.5 18.5981 4
      vertex 3 16 4
    endloop
  endfacet
  facet normal 0.866025 -0.5 0
    outer loop
      vertex 3 16 0
      vertex 4.5 18.5981 0
      vertex 3 16 4
    endloop
  endfacet
  facet normal 0.866025 0.5 0
    outer loop
      vertex 3 16 4
      vertex 4.5 13.4019 4
      vertex 4.5 13.4019 0
    endloop
  endfacet
  facet normal 0.866025 0.5 0
    outer loop
      vertex 3 16 0
      vertex 3 16 4
      vertex 4.5 13.4019 0
    endloop
  endfacet
  facet normal 0 -1 0
    outer loop
      vertex 7.5 18.5981 0
      vertex 7.5 18.5981 4
      vertex 4.5 18.5981 4
    endloop
  endfacet
  facet normal 0 -1 0
    outer loop
      vertex 4.5 18.5981 0
      vertex 7.5 18.5981 0
      vertex 4.5 18.5981 4
    endloop
  endfacet
  facet normal -0.866025 -0.5 0
    outer loop
      vertex 9 16 4
      vertex 7.5 18.5981 4
      vertex 9 16 0
    endloop
  endfacet
  facet normal -0.866025 -0.5 0
    outer loop
      vertex 9 16 0
      vertex 7.5 18.5981 4
      vertex 7.5 18.5981 0
    endloop
  endfacet
  facet normal -0.866025 0.5 0
    outer loop
      vertex 9 16 4
      vertex 9 16 0
      vertex 7.5 13.4019 4
    endloop
  endfacet
  facet normal -0.866025 0.5 0
    outer loop
      vertex 7.5 13.4019 4
      vertex 9 16 0
      vertex 7.5 13.4019 0
    endloop
  endfacet
  facet normal 0 1 0
    outer loop
      vertex 7.5 13.4019 4
      vertex 7.5 13.4019 0
      vertex 4.5 13.4019 4
    endloop
  endfacet
  facet normal 0 1 0
    outer loop
      vertex 4.5 13.4019 4
      vertex 7.5 13.4019 0
      vertex 4.5 13.4019 0
    endloop
  endfacet
  facet normal 0.866025 -0.5 0
    outer loop
      vertex 4.5 36.5981 0
      vertex 4.5 36.5981 4
      vertex 3 34 4
    endloop
  endfacet
  facet normal 0.866025 -0.5 0
    outer loop
      vertex 3 34 0
      vertex 4.5 36.5981 0
      vertex 3 34 4
    endloop
  endfacet
  facet normal 0.866025 0.5 0
    outer loop
      vertex 3 34 4
      vertex 4.5 31.4019 4
      vertex 4.5 31.4019 0
    endloop
  endfacet
  facet normal 0.866025 0.5 0
    outer loop
      vertex 3 34 0
      vertex 3 34 4
      vertex 4.5 31.4019 0
    endloop
  endfacet
  facet normal 0 -1 0
    outer loop
      vertex 7.5 36.5981 0
      vertex 7.5 36.5981 4
      vertex 4.5 36.5981 4
    endloop
  endfacet
  facet normal 0 -1 0
    outer loop
      vertex 4.5 36.5981 0
      vertex 7.5 36.5981 0
      vertex 4.5 36.5981 4
    endloop
  endfacet
  facet normal -0.866025 -0.5 0
    outer loop
      vertex 9 34 4
      vertex 7.5 36.5981 4
      vertex 9 34 0
    endloop
  endfacet
  facet normal -0.866025 -0.5 0
    outer loop
      vertex 9 34 0
      vertex 7.5 36.5981 4
      vertex 7.5 36.5981 0
    endloop
  endfacet
  facet normal -0.866025 0.5 0
    outer loop
      vertex 9 34 4
      vertex 9 34 0
      vertex 7.5 31.4019 4
    endloop
  endfacet
  facet normal -0.866025 0.5 0
    outer loop
      vertex 7.5 31.4019 4
      vertex 9 34 0
      vertex 7.5 31.4019 0
    endloop
  endfacet
  facet normal 0 1 0
    outer loop
      vertex 7.5 31.4019 4
      vertex 7.5 31.4019 0
      vertex 4.5 31.4019 4
    endloop
  endfacet
  facet normal 0 1 0
    outer loop
      vertex 4.5 31.4019 4
      vertex 7.5 31.4019 0
      vertex 4.5 31.4019 0
    endloop
  endfacet
  facet normal 1 0 0
    outer loop
      vertex 16.3209 5.49303 0
      vertex 16.3209 5.49303 6
      vertex 16.3209 4.50697 6
    endloop
  endfacet
  facet normal 1 0 0
    outer loop
      vertex 16.3209 4.50697 0
      vertex 16.3209 5.49303 0
      vertex 16.3209 4.50697 6
    endloop
  endfacet
  facet normal 0.841253 -0.540641 0
    outer loop
      vertex 16.854 6.32256 0
      vertex 16.854 6.32256 6
      vertex 16.3209 5.49303 6
    endloop
  endfacet
  facet normal 0.841253 -0.540641 0
    outer loop
      vertex 16.3209 5.49303 0
      vertex 16.854 6.32256 0
      vertex 16.3209 5.49303 6
    endloop
  endfacet
  facet normal 0.415415 -0.909632 0
    outer loop
      vertex 17.7509 6.73219 0
      vertex 17.7509 6.73219 6
      vertex 16.854 6.32256 6
    endloop
  endfacet
  facet normal 0.415415 -0.909632 0
    outer loop
      vertex 16.854 6.32256 0
      vertex 17.7509 6.73219 0
      vertex 16.854 6.32256 6
    endloop
  endfacet
  facet normal -0.142315 -0.989821 0
    outer loop
      vertex 18.727 6.59186 0
      vertex 18.727 6.59186 6
      vertex 17.7509 6.73219 6
    endloop
  endfacet
  facet normal -0.142315 -0.989821 0
    outer loop
      vertex 17.7509 6.73219 0
      vertex 18.727 6.59186 0
      vertex 17.7509 6.73219 6
    endloop
  endfacet
  facet normal -0.654861 -0.75575 0
    outer loop
      vertex 19.4722 5.94612 0
      vertex 19.4722 5.94612 6
      vertex 18.727 6.59186 6
    endloop
  endfacet
  facet normal -0.654861 -0.75575 0
    outer loop
      vertex 18.727 6.59186 0
      vertex 19.4722 5.94612 0
      vertex 18.727 6.59186 6
    endloop
  endfacet
  facet normal -0.959493 -0.281732 0
    outer loop
      vertex 19.75 5 6
      vertex 19.4722 5.94612 6
      vertex 19.75 5 0
    endloop
  endfacet
  facet normal -0.959493 -0.281732 0
    outer loop
      vertex 19.75 5 0
      vertex 19.4722 5.94612 6
      vertex 19.4722 5.94612 0
    endloop
  endfacet
  facet normal -0.959493 0.281732 0
    outer loop
      vertex 19.75 5 6
      vertex 19.75 5 0
      vertex 19.4722 4.05388 6
    endloop
  endfacet
  facet normal -0.959493 0.281732 0
    outer loop
      vertex 19.4722 4.05388 6
      vertex 19.75 5 0
      vertex 19.4722 4.05388 0
    endloop
  endfacet
  facet normal -0.654861 0.75575 0
    outer loop
      vertex 19.4722 4.05388 6
      vertex 19.4722 4.05388 0
      vertex 18.727 3.40814 6
    endloop
  endfacet
  facet normal -0.654861 0.75575 0
    outer loop
      vertex 18.727 3.40814 6
      vertex 19.4722 4.05388 0
      vertex 18.727 3.40814 0
    endloop
  endfacet
  facet normal -0.142315 0.989821 0
    outer loop
      vertex 18.727 3.40814 6
      vertex 18.727 3.40814 0
      vertex 17.7509 3.26781 6
    endloop
  endfacet
  facet normal -0.142315 0.989821 0
    outer loop
      vertex 17.7509 3.26781 6
      vertex 18.727 3.40814 0
      vertex 17.7509 3.26781 0
    endloop
  endfacet
  facet normal 0.415415 0.909632 0
    outer loop
      vertex 17.7509 3.26781 6
      vertex 17.7509 3.26781 0
      vertex 16.854 3.67744 6
    endloop
  endfacet
  facet normal 0.415415 0.909632 0
    outer loop
      vertex 16.854 3.67744 6
      vertex 17.7509 3.26781 0
      vertex 16.854 3.67744 0
    endloop
  endfacet
  facet normal 0.841253 0.540641 0
    outer loop
      vertex 16.3209 4.50697 6
      vertex 16.854 3.67744 6
      vertex 16.854 3.67744 0
    endloop
  endfacet
  facet normal 0.841253 0.540641 0
    outer loop
      vertex 16.3209 4.50697 0
      vertex 16.3209 4.50697 6
      vertex 16.854 3.67744 0
    endloop
  endfacet
  facet normal 1 0 0
    outer loop
      vertex 16.3209 45.493 0
      vertex 16.3209 45.493 6
      vertex 16.3209 44.507 6
    endloop
  endfacet
  facet normal 1 0 0
    outer loop
      vertex 16.3209 44.507 0
      vertex 16.3209 45.493 0
      vertex 16.3209 44.507 6
    endloop
  endfacet
  facet normal 0.841253 -0.540641 0
    outer loop
      vertex 16.854 46.3226 0
      vertex 16.854 46.3226 6
      vertex 16.3209 45.493 6
    endloop
  endfacet
  facet normal 0.841253 -0.540641 0
    outer loop
      vertex 16.3209 45.493 0
      vertex 16.854 46.3226 0
      vertex 16.3209 45.493 6
    endloop
  endfacet
  facet normal 0.415415 -0.909632 0
    outer loop
      vertex 17.7509 46.7322 0
      vertex 17.7509 46.7322 6
      vertex 16.854 46.3226 6
    endloop
  endfacet
  facet normal 0.415415 -0.909632 0
    outer loop
      vertex 16.854 46.3226 0
      vertex 17.7509 46.7322 0
      vertex 16.854 46.3226 6
    endloop
  endfacet
  facet normal -0.142315 -0.989821 0
    outer loop
      vertex 18.727 46.5919 0
      vertex 18.727 46.5919 6
      vertex 17.7509 46.7322 6
    endloop
  endfacet
  facet normal -0.142315 -0.989821 0
    outer loop
      vertex 17.7509 46.7322 0
      vertex 18.727 46.5919 0
      vertex 17.7509 46.7322 6
    endloop
  endfacet
  facet normal -0.654861 -0.75575 0
    outer loop
      vertex 19.4722 45.9461 0
      vertex 19.4722 45.9461 6
      vertex 18.727 46.5919 6
    endloop
  endfacet
  facet normal -0.654861 -0.75575 0
    outer loop
      vertex 18.727 46.5919 0
      vertex 19.4722 45.9461 0
      vertex 18.727 46.5919 6
    endloop
  endfacet
  facet normal -0.959493 -0.281732 0
    outer loop
      vertex 19.75 45 6
      vertex 19.4722 45.9461 6
      vertex 19.75 45 0
    endloop
  endfacet
  facet normal -0.959493 -0.281732 0
    outer loop
      vertex 19.75 45 0
      vertex 19.4722 45.9461 6
      vertex 19.4722 45.9461 0
    endloop
  endfacet
  facet normal -0.959493 0.281732 0
    outer loop
      vertex 19.75 45 6
      vertex 19.75 45 0
      vertex 19.4722 44.0539 6
    endloop
  endfacet
  facet normal -0.959493 0.281732 0
    outer loop
      vertex 19.4722 44.0539 6
      vertex 19.75 45 0
      vertex 19.4722 44.0539 0
    endloop
  endfacet
  facet normal -0.654861 0.75575 0
    outer loop
      vertex 19.4722 44.0539 6
      vertex 19.4722 44.0539 0
      vertex 18.727 43.4081 6
    endloop
  endfacet
  facet normal -0.654861 0.75575 0
    outer loop
      vertex 18.727 43.4081 6
      vertex 19.4722 44.0539 0
      vertex 18.727 43.4081 0
    endloop
  endfacet
  facet normal -0.142315 0.989821 0
    outer loop
      vertex 18.727 43.4081 6
      vertex 18.727 43.4081 0
      vertex 17.7509 43.2678 6
    endloop
  endfacet
  facet normal -0.142315 0.989821 0
    outer loop
      vertex 17.7509 43.2678 6
      vertex 18.727 43.4081 0
      vertex 17.7509 43.2678 0
    endloop
  endfacet
  facet normal 0.415415 0.909632 0
    outer loop
      vertex 17.7509 43.2678 6
      vertex 17.7509 43.2678 0
      vertex 16.854 43.6774 6
    endloop
  endfacet
  facet normal 0.415415 0.909632 0
    outer loop
      vertex 16.854 43.6774 6
      vertex 17.7509 43.2678 0
      vertex 16.854 43.6774 0
    endloop
  endfacet
  facet normal 0.841253 0.540641 0
    outer loop
      vertex 16.3209 44.507 6
      vertex 16.854 43.6774 6
      vertex 16.854 43.6774 0
    endloop
  endfacet
  facet normal 0.841253 0.540641 0
    outer loop
      vertex 16.3209 44.507 0
      vertex 16.3209 44.507 6
      vertex 16.854 43.6774 0
    endloop
  endfacet
  facet normal 0.587785 0.809017 0
    outer loop
      vertex 5.53647 14.5734 6
      vertex 5.53647 14.5734 4
      vertex 4.78647 15.1183 6
    endloop
  endfacet
  facet normal 0.587785 0.809017 0
    outer loop
      vertex 4.78647 15.1183 6
      vertex 5.53647 14.5734 4
      vertex 4.78647 15.1183 4
    endloop
  endfacet
  facet normal 0.951056 0.309017 0
    outer loop
      vertex 4.5 16 6
      vertex 4.78647 15.1183 6
      vertex 4.78647 15.1183 4
    endloop
  endfacet
  facet normal 0.951056 0.309017 0
    outer loop
      vertex 4.5 16 4
      vertex 4.5 16 6
      vertex 4.78647 15.1183 4
    endloop
  endfacet
  facet normal 0 1 0
    outer loop
      vertex 6.46352 14.5734 6
      vertex 6.46352 14.5734 4
      vertex 5.53647 14.5734 6
    endloop
  endfacet
  facet normal 0 1 0
    outer loop
      vertex 5.53647 14.5734 6
      vertex 6.46352 14.5734 4
      vertex 5.53647 14.5734 4
    endloop
  endfacet
  facet normal -0.587785 0.809017 0
    outer loop
      vertex 7.21352 15.1183 6
      vertex 7.21352 15.1183 4
      vertex 6.46352 14.5734 6
    endloop
  endfacet
  facet normal -0.587785 0.809017 0
    outer loop
      vertex 6.46352 14.5734 6
      vertex 7.21352 15.1183 4
      vertex 6.46352 14.5734 4
    endloop
  endfacet
  facet normal -0.951056 0.309017 0
    outer loop
      vertex 7.5 16 6
      vertex 7.5 16 4
      vertex 7.21352 15.1183 6
    endloop
  endfacet
  facet normal -0.951056 0.309017 0
    outer loop
      vertex 7.21352 15.1183 6
      vertex 7.5 16 4
      vertex 7.21352 15.1183 4
    endloop
  endfacet
  facet normal -0.951056 -0.309017 0
    outer loop
      vertex 7.5 16 6
      vertex 7.21352 16.8817 6
      vertex 7.5 16 4
    endloop
  endfacet
  facet normal -0.951056 -0.309017 0
    outer loop
      vertex 7.5 16 4
      vertex 7.21352 16.8817 6
      vertex 7.21352 16.8817 4
    endloop
  endfacet
  facet normal -0.587785 -0.809017 0
    outer loop
      vertex 7.21352 16.8817 4
      vertex 7.21352 16.8817 6
      vertex 6.46352 17.4266 6
    endloop
  endfacet
  facet normal -0.587785 -0.809017 0
    outer loop
      vertex 6.46352 17.4266 4
      vertex 7.21352 16.8817 4
      vertex 6.46352 17.4266 6
    endloop
  endfacet
  facet normal 0 -1 0
    outer loop
      vertex 6.46352 17.4266 4
      vertex 6.46352 17.4266 6
      vertex 5.53647 17.4266 6
    endloop
  endfacet
  facet normal 0 -1 0
    outer loop
      vertex 5.53647 17.4266 4
      vertex 6.46352 17.4266 4
      vertex 5.53647 17.4266 6
    endloop
  endfacet
  facet normal 0.587785 -0.809017 0
    outer loop
      vertex 5.53647 17.4266 4
      vertex 5.53647 17.4266 6
      vertex 4.78647 16.8817 6
    endloop
  endfacet
  facet normal 0.587785 -0.809017 0
    outer loop
      vertex 4.78647 16.8817 4
      vertex 5.53647 17.4266 4
      vertex 4.78647 16.8817 6
    endloop
  endfacet
  facet normal 0.951056 -0.309017 0
    outer loop
      vertex 4.78647 16.8817 4
      vertex 4.78647 16.8817 6
      vertex 4.5 16 6
    endloop
  endfacet
  facet normal 0.951056 -0.309017 0
    outer loop
      vertex 4.5 16 4
      vertex 4.78647 16.8817 4
      vertex 4.5 16 6
    endloop
  endfacet
  facet normal 0.587785 0.809017 0
    outer loop
      vertex 5.53647 32.5734 6
      vertex 5.53647 32.5734 4
      vertex 4.78647 33.1183 6
    endloop
  endfacet
  facet normal 0.587785 0.809017 0
    outer loop
      vertex 4.78647 33.1183 6
      vertex 5.53647 32.5734 4
      vertex 4.78647 33.1183 4
    endloop
  endfacet
  facet normal 0.951056 0.309017 0
    outer loop
      vertex 4.5 34 6
      vertex 4.78647 33.1183 6
      vertex 4.78647 33.1183 4
    endloop
  endfacet
  facet normal 0.951056 0.309017 0
    outer loop
      vertex 4.5 34 4
      vertex 4.5 34 6
      vertex 4.78647 33.1183 4
    endloop
  endfacet
  facet normal 0 1 0
    outer loop
      vertex 6.46352 32.5734 6
      vertex 6.46352 32.5734 4
      vertex 5.53647 32.5734 6
    endloop
  endfacet
  facet normal 0 1 0
    outer loop
      vertex 5.53647 32.5734 6
      vertex 6.46352 32.5734 4
      vertex 5.53647 32.5734 4
    endloop
  endfacet
  facet normal -0.587785 0.809017 0
    outer loop
      vertex 7.21352 33.1183 6
      vertex 7.21352 33.1183 4
      vertex 6.46352 32.5734 6
    endloop
  endfacet
  facet normal -0.587785 0.809017 0
    outer loop
      vertex 6.46352 32.5734 6
      vertex 7.21352 33.1183 4
      vertex 6.46352 32.5734 4
    endloop
  endfacet
  facet normal -0.951056 0.309017 0
    outer loop
      vertex 7.5 34 6
      vertex 7.5 34 4
      vertex 7.21352 33.1183 6
    endloop
  endfacet
  facet normal -0.951056 0.309017 0
    outer loop
      vertex 7.21352 33.1183 6
      vertex 7.5 34 4
      vertex 7.21352 33.1183 4
    endloop
  endfacet
  facet normal -0.951056 -0.309017 0
    outer loop
      vertex 7.5 34 6
      vertex 7.21352 34.8817 6
      vertex 7.5 34 4
    endloop
  endfacet
  facet normal -0.951056 -0.309017 0
    outer loop
      vertex 7.5 34 4
      vertex 7.21352 34.8817 6
      vertex 7.21352 34.8817 4
    endloop
  endfacet
  facet normal -0.587785 -0.809017 0
    outer loop
      vertex 7.21352 34.8817 4
      vertex 7.21352 34.8817 6
      vertex 6.46352 35.4266 6
    endloop
  endfacet
  facet normal -0.587785 -0.809017 0
    outer loop
      vertex 6.46352 35.4266 4
      vertex 7.21352 34.8817 4
      vertex 6.46352 35.4266 6
    endloop
  endfacet
  facet normal 0 -1 0
    outer loop
      vertex 6.46352 35.4266 4
      vertex 6.46352 35.4266 6
      vertex 5.53647 35.4266 6
    endloop
  endfacet
  facet normal 0 -1 0
    outer loop
      vertex 5.53647 35.4266 4
      vertex 6.46352 35.4266 4
      vertex 5.53647 35.4266 6
    endloop
  endfacet
  facet normal 0.587785 -0.809017 0
    outer loop
      vertex 5.53647 35.4266 4
      vertex 5.53647 35.4266 6
      vertex 4.78647 34.8817 6
    endloop
  endfacet
  facet normal 0.587785 -0.809017 0
    outer loop
      vertex 4.78647 34.8817 4
      vertex 5.53647 35.4266 4
      vertex 4.78647 34.8817 6
    endloop
  endfacet
  facet normal 0.951056 -0.309017 0
    outer loop
      vertex 4.78647 34.8817 4
      vertex 4.78647 34.8817 6
      vertex 4.5 34 6
    endloop
  endfacet
  facet normal 0.951056 -0.309017 0
    outer loop
      vertex 4.5 34 4
      vertex 4.78647 34.8817 4
      vertex 4.5 34 6
    endloop
  endfacet
  facet normal 0 0 -1
    outer loop
      vertex 7.5 18.5981 4
      vertex 9 16 4
      vertex 4.5 18.5981 4
    endloop
  endfacet
  facet normal 0 0 -1
    outer loop
      vertex 7.21352 15.1183 4
      vertex 9 16 4
      vertex 7.5 13.4019 4
    endloop
  endfacet
  facet normal 0 0 -1
    outer loop
      vertex 5.53647 14.5734 4
      vertex 7.5 13.4019 4
      vertex 4.5 13.4019 4
    endloop
  endfacet
  facet normal 0 0 -1
    outer loop
      vertex 4.5 16 4
      vertex 4.5 13.4019 4
      vertex 3 16 4
    endloop
  endfacet
  facet normal 0 0 -1
    outer loop
      vertex 7.21352 15.1183 4
      vertex 7.5 13.4019 4
      vertex 6.46352 14.5734 4
    endloop
  endfacet
  facet normal 0 0 -1
    outer loop
      vertex 4.78647 15.1183 4
      vertex 5.53647 14.5734 4
      vertex 4.5 13.4019 4
    endloop
  endfacet
  facet normal 0 0 -1
    outer loop
      vertex 7.5 16 4
      vertex 9 16 4
      vertex 7.21352 15.1183 4
    endloop
  endfacet
  facet normal 0 0 -1
    outer loop
      vertex 5.53647 17.4266 4
      vertex 4.5 18.5981 4
      vertex 6.46352 17.4266 4
    endloop
  endfacet
  facet normal 0 0 -1
    outer loop
      vertex 7.21352 16.8817 4
      vertex 9 16 4
      vertex 7.5 16 4
    endloop
  endfacet
  facet normal 0 0 -1
    outer loop
      vertex 6.46352 17.4266 4
      vertex 9 16 4
      vertex 7.21352 16.8817 4
    endloop
  endfacet
  facet normal 0 0 -1
    outer loop
      vertex 4.5 18.5981 4
      vertex 9 16 4
      vertex 6.46352 17.4266 4
    endloop
  endfacet
  facet normal 0 0 -1
    outer loop
      vertex 4.78647 16.8817 4
      vertex 4.5 18.5981 4
      vertex 5.53647 17.4266 4
    endloop
  endfacet
  facet normal 0 0 -1
    outer loop
      vertex 4.5 16 4
      vertex 4.5 18.5981 4
      vertex 4.78647 16.8817 4
    endloop
  endfacet
  facet normal 0 0 -1
    outer loop
      vertex 4.78647 15.1183 4
      vertex 4.5 13.4019 4
      vertex 4.5 16 4
    endloop
  endfacet
  facet normal 0 0 -1
    outer loop
      vertex 4.5 18.5981 4
      vertex 4.5 16 4
      vertex 3 16 4
    endloop
  endfacet
  facet normal 0 0 -1
    outer loop
      vertex 6.46352 14.5734 4
      vertex 7.5 13.4019 4
      vertex 5.53647 14.5734 4
    endloop
  endfacet
  facet normal 0 0 -1
    outer loop
      vertex 7.5 36.5981 4
      vertex 9 34 4
      vertex 4.5 36.5981 4
    endloop
  endfacet
  facet normal 0 0 -1
    outer loop
      vertex 7.21352 33.1183 4
      vertex 9 34 4
      vertex 7.5 31.4019 4
    endloop
  endfacet
  facet normal 0 0 -1
    outer loop
      vertex 5.53647 32.5734 4
      vertex 7.5 31.4019 4
      vertex 4.5 31.4019 4
    endloop
  endfacet
  facet normal 0 0 -1
    outer loop
      vertex 4.5 34 4
      vertex 4.5 31.4019 4
      vertex 3 34 4
    endloop
  endfacet
  facet normal 0 0 -1
    outer loop
      vertex 7.21352 33.1183 4
      vertex 7.5 31.4019 4
      vertex 6.46352 32.5734 4
    endloop
  endfacet
  facet normal 0 0 -1
    outer loop
      vertex 4.78647 33.1183 4
      vertex 5.53647 32.5734 4
      vertex 4.5 31.4019 4
    endloop
  endfacet
  facet normal 0 0 -1
    outer loop
      vertex 7.5 34 4
      vertex 9 34 4
      vertex 7.21352 33.1183 4
    endloop
  endfacet
  facet normal 0 0 -1
    outer loop
      vertex 5.53647 35.4266 4
      vertex 4.5 36.5981 4
      vertex 6.46352 35.4266 4
    endloop
  endfacet
  facet normal 0 0 -1
    outer loop
      vertex 7.21352 34.8817 4
      vertex 9 34 4
      vertex 7.5 34 4
    endloop
  endfacet
  facet normal 0 0 -1
    outer loop
      vertex 6.46352 35.4266 4
      vertex 9 34 4
      vertex 7.21352 34.8817 4
    endloop
  endfacet
  facet normal 0 0 -1
    outer loop
      vertex 4.5 36.5981 4
      vertex 9 34 4
      vertex 6.46352 35.4266 4
    endloop
  endfacet
  facet normal 0 0 -1
    outer loop
      vertex 4.78647 34.8817 4
      vertex 4.5 36.5981 4
      vertex 5.53647 35.4266 4
    endloop
  endfacet
  facet normal 0 0 -1
    outer loop
      vertex 4.5 34 4
      vertex 4.5 36.5981 4
      vertex 4.78647 34.8817 4
    endloop
  endfacet
  facet normal 0 0 -1
    outer loop
      vertex 4.78647 33.1183 4
      vertex 4.5 31.4019 4
      vertex 4.5 34 4
    endloop
  endfacet
  facet normal 0 0 -1
    outer loop
      vertex 4.5 36.5981 4
      vertex 4.5 34 4
      vertex 3 34 4
    endloop
  endfacet
  facet normal 0 0 -1
    outer loop
      vertex 6.46352 32.5734 4
      vertex 7.5 31.4019 4
      vertex 5.53647 32.5734 4
    endloop
  endfacet
endsolid OpenSCAD_Model
