solid OpenSCAD_Model
  facet normal -1 0 0
    outer loop
      vertex -25 -17.5 0
      vertex -25 -17.5 7
      vertex -25 7.5 0
    endloop
  endfacet
  facet normal -1 0 0
    outer loop
      vertex -25 7.5 0
      vertex -25 -17.5 7
      vertex -25 7.5 7
    endloop
  endfacet
  facet normal 0 -1 0
    outer loop
      vertex -25 -17.5 7
      vertex -25 -17.5 0
      vertex 25 -17.5 0
    endloop
  endfacet
  facet normal 0 -1 0
    outer loop
      vertex 25 -17.5 7
      vertex -25 -17.5 7
      vertex 25 -17.5 0
    endloop
  endfacet
  facet normal 0 0 -1
    outer loop
      vertex -8.81571 3.92501 0
      vertex -25 7.5 0
      vertex -10.5987 7.5 0
    endloop
  endfacet
  facet normal 0 0 -1
    outer loop
      vertex -7.80701 5.67213 0
      vertex -10.5987 7.5 0
      vertex -10.5172 7.64121 0
    endloop
  endfacet
  facet normal 0 0 -1
    outer loop
      vertex -6.45711 7.17135 0
      vertex -10.5172 7.64121 0
      vertex -8.6987 9.66088 0
    endloop
  endfacet
  facet normal 0 0 -1
    outer loop
      vertex -4.825 8.35714 0
      vertex -8.6987 9.66088 0
      vertex -6.5 11.2583 0
    endloop
  endfacet
  facet normal 0 0 -1
    outer loop
      vertex -2 9.38643 0
      vertex -6.5 11.2583 0
      vertex -4.01722 12.3637 0
    endloop
  endfacet
  facet normal 0 0 -1
    outer loop
      vertex -2.98201 9.17769 0
      vertex -6.5 11.2583 0
      vertex -2 9.38643 0
    endloop
  endfacet
  facet normal 0 0 -1
    outer loop
      vertex -4.825 8.35714 0
      vertex -6.5 11.2583 0
      vertex -2.98201 9.17769 0
    endloop
  endfacet
  facet normal 0 0 -1
    outer loop
      vertex 9.43912 -2.00635 0
      vertex 25 -17.5 0
      vertex 8.81571 -3.92501 0
    endloop
  endfacet
  facet normal 0 0 -1
    outer loop
      vertex -6.45711 7.17135 0
      vertex -8.6987 9.66088 0
      vertex -4.825 8.35714 0
    endloop
  endfacet
  facet normal 0 0 -1
    outer loop
      vertex -7.80701 5.67213 0
      vertex -10.5172 7.64121 0
      vertex -6.45711 7.17135 0
    endloop
  endfacet
  facet normal 0 0 -1
    outer loop
      vertex -8.81571 3.92501 0
      vertex -10.5987 7.5 0
      vertex -7.80701 5.67213 0
    endloop
  endfacet
  facet normal 0 0 -1
    outer loop
      vertex -9.43912 2.00635 0
      vertex -25 7.5 0
      vertex -8.81571 3.92501 0
    endloop
  endfacet
  facet normal 0 0 -1
    outer loop
      vertex -9.43912 -2.00635 0
      vertex -25 7.5 0
      vertex -9.65 0 0
    endloop
  endfacet
  facet normal 0 0 -1
    outer loop
      vertex -9.65 0 0
      vertex -25 7.5 0
      vertex -9.43912 2.00635 0
    endloop
  endfacet
  facet normal 0 0 -1
    outer loop
      vertex -16.8639 1.64597 0
      vertex -25 7.5 0
      vertex -9.43912 -2.00635 0
    endloop
  endfacet
  facet normal 0 0 -1
    outer loop
      vertex -25 -17.5 0
      vertex -9.43912 -2.00635 0
      vertex -8.81571 -3.92501 0
    endloop
  endfacet
  facet normal 0 0 -1
    outer loop
      vertex -25 -17.5 0
      vertex -8.81571 -3.92501 0
      vertex -7.80701 -5.67213 0
    endloop
  endfacet
  facet normal 0 0 -1
    outer loop
      vertex -25 -17.5 0
      vertex -7.80701 -5.67213 0
      vertex -6.45711 -7.17135 0
    endloop
  endfacet
  facet normal 0 0 -1
    outer loop
      vertex -25 -17.5 0
      vertex -6.45711 -7.17135 0
      vertex -4.825 -8.35714 0
    endloop
  endfacet
  facet normal 0 0 -1
    outer loop
      vertex -25 -17.5 0
      vertex -4.825 -8.35714 0
      vertex -2.98201 -9.17769 0
    endloop
  endfacet
  facet normal 0 0 -1
    outer loop
      vertex -25 -17.5 0
      vertex -2.98201 -9.17769 0
      vertex 25 -17.5 0
    endloop
  endfacet
  facet normal 0 0 -1
    outer loop
      vertex -2.98201 -9.17769 0
      vertex -1.0087 -9.59714 0
      vertex 25 -17.5 0
    endloop
  endfacet
  facet normal 0 0 -1
    outer loop
      vertex 2.98201 -9.17769 0
      vertex 25 -17.5 0
      vertex 1.0087 -9.59714 0
    endloop
  endfacet
  facet normal 0 0 -1
    outer loop
      vertex 4.825 -8.35714 0
      vertex 25 -17.5 0
      vertex 2.98201 -9.17769 0
    endloop
  endfacet
  facet normal 0 0 -1
    outer loop
      vertex 1.0087 -9.59714 0
      vertex 25 -17.5 0
      vertex -1.0087 -9.59714 0
    endloop
  endfacet
  facet normal 0 0 -1
    outer loop
      vertex 6.45711 -7.17135 0
      vertex 25 -17.5 0
      vertex 4.825 -8.35714 0
    endloop
  endfacet
  facet normal 0 0 -1
    outer loop
      vertex 7.80701 -5.67213 0
      vertex 25 -17.5 0
      vertex 6.45711 -7.17135 0
    endloop
  endfacet
  facet normal 0 0 -1
    outer loop
      vertex 8.81571 -3.92501 0
      vertex 25 -17.5 0
      vertex 7.80701 -5.67213 0
    endloop
  endfacet
  facet normal 0 0 -1
    outer loop
      vertex 9.65 0 0
      vertex 25 -17.5 0
      vertex 9.43912 -2.00635 0
    endloop
  endfacet
  facet normal 0 0 -1
    outer loop
      vertex -16.8639 -1.64597 0
      vertex -9.43912 -2.00635 0
      vertex -17.7589 -1.98542 0
    endloop
  endfacet
  facet normal 0 0 -1
    outer loop
      vertex 25 -17.5 0
      vertex 9.65 0 0
      vertex 9.43912 2.00635 0
    endloop
  endfacet
  facet normal 0 0 -1
    outer loop
      vertex 2 12.7925 0
      vertex 4.825 8.35714 0
      vertex 2.98201 9.17769 0
    endloop
  endfacet
  facet normal 0 0 -1
    outer loop
      vertex 9.43912 2.00635 0
      vertex 8.81571 3.92501 0
      vertex 25 -17.5 0
    endloop
  endfacet
  facet normal 0 0 -1
    outer loop
      vertex 2 12.7925 0
      vertex 2.98201 9.17769 0
      vertex 2 9.38643 0
    endloop
  endfacet
  facet normal 0 0 -1
    outer loop
      vertex 8.81571 3.92501 0
      vertex 7.80701 5.67213 0
      vertex 25 -17.5 0
    endloop
  endfacet
  facet normal 0 0 -1
    outer loop
      vertex 6.45711 7.17135 0
      vertex 4.825 8.35714 0
      vertex 2 12.7925 0
    endloop
  endfacet
  facet normal 0 0 -1
    outer loop
      vertex 6.45711 7.17135 0
      vertex 2 12.7925 0
      vertex 7.80701 5.67213 0
    endloop
  endfacet
  facet normal 0 0 -1
    outer loop
      vertex 7.80701 5.67213 0
      vertex 2 12.7925 0
      vertex 4.01722 12.3637 0
    endloop
  endfacet
  facet normal 0 0 -1
    outer loop
      vertex 7.80701 5.67213 0
      vertex 4.01722 12.3637 0
      vertex 25 -17.5 0
    endloop
  endfacet
  facet normal 0 0 -1
    outer loop
      vertex 25 -17.5 0
      vertex 4.01722 12.3637 0
      vertex 6.5 11.2583 0
    endloop
  endfacet
  facet normal 0 0 -1
    outer loop
      vertex 25 -17.5 0
      vertex 6.5 11.2583 0
      vertex 8.6987 9.66088 0
    endloop
  endfacet
  facet normal 0 0 -1
    outer loop
      vertex 25 -17.5 0
      vertex 8.6987 9.66088 0
      vertex 10.5172 7.64121 0
    endloop
  endfacet
  facet normal 0 0 -1
    outer loop
      vertex 25 -17.5 0
      vertex 10.5172 7.64121 0
      vertex 10.5987 7.5 0
    endloop
  endfacet
  facet normal 0 0 -1
    outer loop
      vertex 17.2908 1.87003 0
      vertex 10.5987 7.5 0
      vertex 25 7.5 0
    endloop
  endfacet
  facet normal 0 0 -1
    outer loop
      vertex -25 -17.5 0
      vertex -25 7.5 0
      vertex -19.9419 0.478631 0
    endloop
  endfacet
  facet normal 0 0 -1
    outer loop
      vertex -25 -17.5 0
      vertex -19.9419 0.478631 0
      vertex -19.9419 -0.478631 0
    endloop
  endfacet
  facet normal 0 0 -1
    outer loop
      vertex -25 -17.5 0
      vertex -19.9419 -0.478631 0
      vertex -19.497 -1.32624 0
    endloop
  endfacet
  facet normal 0 0 -1
    outer loop
      vertex -25 -17.5 0
      vertex -19.497 -1.32624 0
      vertex -18.7092 -1.87003 0
    endloop
  endfacet
  facet normal 0 0 -1
    outer loop
      vertex -25 -17.5 0
      vertex -18.7092 -1.87003 0
      vertex -17.7589 -1.98542 0
    endloop
  endfacet
  facet normal 0 0 -1
    outer loop
      vertex -25 -17.5 0
      vertex -17.7589 -1.98542 0
      vertex -9.43912 -2.00635 0
    endloop
  endfacet
  facet normal 0 0 -1
    outer loop
      vertex -16.2291 -0.929446 0
      vertex -9.43912 -2.00635 0
      vertex -16.8639 -1.64597 0
    endloop
  endfacet
  facet normal 0 0 -1
    outer loop
      vertex -16 0 0
      vertex -9.43912 -2.00635 0
      vertex -16.2291 -0.929446 0
    endloop
  endfacet
  facet normal 0 0 -1
    outer loop
      vertex 17.2908 -1.87003 0
      vertex 25 -17.5 0
      vertex 16.503 -1.32624 0
    endloop
  endfacet
  facet normal 0 0 -1
    outer loop
      vertex -17.7589 1.98542 0
      vertex -25 7.5 0
      vertex -16.8639 1.64597 0
    endloop
  endfacet
  facet normal 0 0 -1
    outer loop
      vertex -18.7092 1.87003 0
      vertex -25 7.5 0
      vertex -17.7589 1.98542 0
    endloop
  endfacet
  facet normal 0 0 -1
    outer loop
      vertex -16 0 0
      vertex -16.2291 0.929446 0
      vertex -9.43912 -2.00635 0
    endloop
  endfacet
  facet normal 0 0 -1
    outer loop
      vertex -16.2291 0.929446 0
      vertex -16.8639 1.64597 0
      vertex -9.43912 -2.00635 0
    endloop
  endfacet
  facet normal 0 0 -1
    outer loop
      vertex -19.497 1.32624 0
      vertex -25 7.5 0
      vertex -18.7092 1.87003 0
    endloop
  endfacet
  facet normal 0 0 -1
    outer loop
      vertex -19.9419 0.478631 0
      vertex -25 7.5 0
      vertex -19.497 1.32624 0
    endloop
  endfacet
  facet normal 0 0 -1
    outer loop
      vertex 16.0581 -0.478631 0
      vertex 10.5987 7.5 0
      vertex 16.0581 0.478631 0
    endloop
  endfacet
  facet normal 0 0 -1
    outer loop
      vertex 16.503 -1.32624 0
      vertex 10.5987 7.5 0
      vertex 16.0581 -0.478631 0
    endloop
  endfacet
  facet normal 0 0 -1
    outer loop
      vertex 25 -17.5 0
      vertex 10.5987 7.5 0
      vertex 16.503 -1.32624 0
    endloop
  endfacet
  facet normal 0 0 -1
    outer loop
      vertex 20 0 0
      vertex 25 7.5 0
      vertex 19.7709 -0.929446 0
    endloop
  endfacet
  facet normal 0 0 -1
    outer loop
      vertex 25 -17.5 0
      vertex 17.2908 -1.87003 0
      vertex 18.2411 -1.98542 0
    endloop
  endfacet
  facet normal 0 0 -1
    outer loop
      vertex 25 -17.5 0
      vertex 18.2411 -1.98542 0
      vertex 19.1361 -1.64597 0
    endloop
  endfacet
  facet normal 0 0 -1
    outer loop
      vertex 25 -17.5 0
      vertex 19.1361 -1.64597 0
      vertex 19.7709 -0.929446 0
    endloop
  endfacet
  facet normal 0 0 -1
    outer loop
      vertex 25 -17.5 0
      vertex 19.7709 -0.929446 0
      vertex 25 7.5 0
    endloop
  endfacet
  facet normal 0 0 -1
    outer loop
      vertex 19.7709 0.929446 0
      vertex 25 7.5 0
      vertex 20 0 0
    endloop
  endfacet
  facet normal 0 0 -1
    outer loop
      vertex 19.1361 1.64597 0
      vertex 25 7.5 0
      vertex 19.7709 0.929446 0
    endloop
  endfacet
  facet normal 0 0 -1
    outer loop
      vertex 17.2908 1.87003 0
      vertex 25 7.5 0
      vertex 18.2411 1.98542 0
    endloop
  endfacet
  facet normal 0 0 -1
    outer loop
      vertex 19.1361 1.64597 0
      vertex 18.2411 1.98542 0
      vertex 25 7.5 0
    endloop
  endfacet
  facet normal 0 0 -1
    outer loop
      vertex 16.503 1.32624 0
      vertex 10.5987 7.5 0
      vertex 17.2908 1.87003 0
    endloop
  endfacet
  facet normal 0 0 -1
    outer loop
      vertex 16.0581 0.478631 0
      vertex 10.5987 7.5 0
      vertex 16.503 1.32624 0
    endloop
  endfacet
  facet normal 0 0 -1
    outer loop
      vertex -2 9.38643 0
      vertex -4.01722 12.3637 0
      vertex -2 12.7925 0
    endloop
  endfacet
  facet normal 0 1 0
    outer loop
      vertex -25 7.5 0
      vertex -25 7.5 7
      vertex -10.5987 7.5 0
    endloop
  endfacet
  facet normal 0 1 0
    outer loop
      vertex -10.5987 7.5 0
      vertex -25 7.5 7
      vertex -10.5987 7.5 7
    endloop
  endfacet
  facet normal 0 0 1
    outer loop
      vertex 1.35887 -12.9288 7
      vertex -25 -17.5 7
      vertex 25 -17.5 7
    endloop
  endfacet
  facet normal 0 0 1
    outer loop
      vertex 1.35887 -12.9288 7
      vertex -1.35887 -12.9288 7
      vertex -25 -17.5 7
    endloop
  endfacet
  facet normal 0 0 1
    outer loop
      vertex 10.5172 -7.64121 7
      vertex 8.6987 -9.66088 7
      vertex 25 -17.5 7
    endloop
  endfacet
  facet normal 0 0 1
    outer loop
      vertex 16.503 -1.32624 7
      vertex 11.8761 5.28758 7
      vertex 25 -17.5 7
    endloop
  endfacet
  facet normal 0 0 1
    outer loop
      vertex 25 7.5 7
      vertex 10.5987 7.5 7
      vertex 11.8761 5.28758 7
    endloop
  endfacet
  facet normal 0 0 1
    outer loop
      vertex -16.2291 -0.929446 7
      vertex -10.5172 -7.64121 7
      vertex -11.8761 -5.28758 7
    endloop
  endfacet
  facet normal 0 0 1
    outer loop
      vertex 12.7159 2.70285 7
      vertex 13 0 7
      vertex 25 -17.5 7
    endloop
  endfacet
  facet normal 0 0 1
    outer loop
      vertex 13 0 7
      vertex 12.7159 -2.70285 7
      vertex 25 -17.5 7
    endloop
  endfacet
  facet normal 0 0 1
    outer loop
      vertex -11.8761 5.28758 7
      vertex -10.5987 7.5 7
      vertex -25 7.5 7
    endloop
  endfacet
  facet normal 0 0 1
    outer loop
      vertex 12.7159 -2.70285 7
      vertex 11.8761 -5.28758 7
      vertex 25 -17.5 7
    endloop
  endfacet
  facet normal 0 0 1
    outer loop
      vertex -16.8639 -1.64597 7
      vertex -17.7589 -1.98542 7
      vertex -8.6987 -9.66088 7
    endloop
  endfacet
  facet normal 0 0 1
    outer loop
      vertex 11.8761 -5.28758 7
      vertex 10.5172 -7.64121 7
      vertex 25 -17.5 7
    endloop
  endfacet
  facet normal 0 0 1
    outer loop
      vertex 8.6987 -9.66088 7
      vertex 6.5 -11.2583 7
      vertex 25 -17.5 7
    endloop
  endfacet
  facet normal 0 0 1
    outer loop
      vertex -18.7092 1.87003 7
      vertex -17.7589 1.98542 7
      vertex -25 7.5 7
    endloop
  endfacet
  facet normal 0 0 1
    outer loop
      vertex 6.5 -11.2583 7
      vertex 4.01722 -12.3637 7
      vertex 25 -17.5 7
    endloop
  endfacet
  facet normal 0 0 1
    outer loop
      vertex 4.01722 -12.3637 7
      vertex 1.35887 -12.9288 7
      vertex 25 -17.5 7
    endloop
  endfacet
  facet normal 0 0 1
    outer loop
      vertex -6.5 -11.2583 7
      vertex -25 -17.5 7
      vertex -4.01722 -12.3637 7
    endloop
  endfacet
  facet normal 0 0 1
    outer loop
      vertex -8.6987 -9.66088 7
      vertex -25 -17.5 7
      vertex -6.5 -11.2583 7
    endloop
  endfacet
  facet normal 0 0 1
    outer loop
      vertex -18.7092 -1.87003 7
      vertex -25 -17.5 7
      vertex -8.6987 -9.66088 7
    endloop
  endfacet
  facet normal 0 0 1
    outer loop
      vertex -16.2291 -0.929446 7
      vertex -16.8639 -1.64597 7
      vertex -10.5172 -7.64121 7
    endloop
  endfacet
  facet normal 0 0 1
    outer loop
      vertex -12.7159 2.70285 7
      vertex -11.8761 5.28758 7
      vertex -25 7.5 7
    endloop
  endfacet
  facet normal 0 0 1
    outer loop
      vertex -16.2291 0.929446 7
      vertex -12.7159 -2.70285 7
      vertex -13 0 7
    endloop
  endfacet
  facet normal 0 0 1
    outer loop
      vertex 17.2908 1.87003 7
      vertex 18.2411 1.98542 7
      vertex 25 7.5 7
    endloop
  endfacet
  facet normal 0 0 1
    outer loop
      vertex -25 7.5 7
      vertex -25 -17.5 7
      vertex -19.9419 -0.478631 7
    endloop
  endfacet
  facet normal 0 0 1
    outer loop
      vertex -17.7589 -1.98542 7
      vertex -18.7092 -1.87003 7
      vertex -8.6987 -9.66088 7
    endloop
  endfacet
  facet normal 0 0 1
    outer loop
      vertex -25 7.5 7
      vertex -19.9419 -0.478631 7
      vertex -19.9419 0.478631 7
    endloop
  endfacet
  facet normal 0 0 1
    outer loop
      vertex -25 7.5 7
      vertex -19.9419 0.478631 7
      vertex -19.497 1.32624 7
    endloop
  endfacet
  facet normal 0 0 1
    outer loop
      vertex -10.5172 -7.64121 7
      vertex -16.8639 -1.64597 7
      vertex -8.6987 -9.66088 7
    endloop
  endfacet
  facet normal 0 0 1
    outer loop
      vertex -16.2291 0.929446 7
      vertex -16 0 7
      vertex -12.7159 -2.70285 7
    endloop
  endfacet
  facet normal 0 0 1
    outer loop
      vertex -25 7.5 7
      vertex -16.8639 1.64597 7
      vertex -13 0 7
    endloop
  endfacet
  facet normal 0 0 1
    outer loop
      vertex -25 7.5 7
      vertex -17.7589 1.98542 7
      vertex -16.8639 1.64597 7
    endloop
  endfacet
  facet normal 0 0 1
    outer loop
      vertex -16 0 7
      vertex -11.8761 -5.28758 7
      vertex -12.7159 -2.70285 7
    endloop
  endfacet
  facet normal 0 0 1
    outer loop
      vertex -16.8639 1.64597 7
      vertex -16.2291 0.929446 7
      vertex -13 0 7
    endloop
  endfacet
  facet normal 0 0 1
    outer loop
      vertex -16 0 7
      vertex -16.2291 -0.929446 7
      vertex -11.8761 -5.28758 7
    endloop
  endfacet
  facet normal 0 0 1
    outer loop
      vertex -13 0 7
      vertex -12.7159 2.70285 7
      vertex -25 7.5 7
    endloop
  endfacet
  facet normal 0 0 1
    outer loop
      vertex -19.497 -1.32624 7
      vertex -25 -17.5 7
      vertex -18.7092 -1.87003 7
    endloop
  endfacet
  facet normal 0 0 1
    outer loop
      vertex -19.9419 -0.478631 7
      vertex -25 -17.5 7
      vertex -19.497 -1.32624 7
    endloop
  endfacet
  facet normal 0 0 1
    outer loop
      vertex 16.0581 0.478631 7
      vertex 11.8761 5.28758 7
      vertex 16.0581 -0.478631 7
    endloop
  endfacet
  facet normal 0 0 1
    outer loop
      vertex 16.503 1.32624 7
      vertex 11.8761 5.28758 7
      vertex 16.0581 0.478631 7
    endloop
  endfacet
  facet normal 0 0 1
    outer loop
      vertex 25 7.5 7
      vertex 11.8761 5.28758 7
      vertex 16.503 1.32624 7
    endloop
  endfacet
  facet normal 0 0 1
    outer loop
      vertex 18.2411 1.98542 7
      vertex 19.1361 1.64597 7
      vertex 25 7.5 7
    endloop
  endfacet
  facet normal 0 0 1
    outer loop
      vertex 25 7.5 7
      vertex 16.503 1.32624 7
      vertex 17.2908 1.87003 7
    endloop
  endfacet
  facet normal 0 0 1
    outer loop
      vertex 20 0 7
      vertex 19.7709 -0.929446 7
      vertex 25 -17.5 7
    endloop
  endfacet
  facet normal 0 0 1
    outer loop
      vertex 17.2908 -1.87003 7
      vertex 16.503 -1.32624 7
      vertex 25 -17.5 7
    endloop
  endfacet
  facet normal 0 0 1
    outer loop
      vertex 25 7.5 7
      vertex 19.7709 0.929446 7
      vertex 25 -17.5 7
    endloop
  endfacet
  facet normal 0 0 1
    outer loop
      vertex 25 7.5 7
      vertex 19.1361 1.64597 7
      vertex 19.7709 0.929446 7
    endloop
  endfacet
  facet normal 0 0 1
    outer loop
      vertex 19.7709 0.929446 7
      vertex 20 0 7
      vertex 25 -17.5 7
    endloop
  endfacet
  facet normal 0 0 1
    outer loop
      vertex 19.7709 -0.929446 7
      vertex 19.1361 -1.64597 7
      vertex 25 -17.5 7
    endloop
  endfacet
  facet normal 0 0 1
    outer loop
      vertex 19.1361 -1.64597 7
      vertex 18.2411 -1.98542 7
      vertex 25 -17.5 7
    endloop
  endfacet
  facet normal 0 0 1
    outer loop
      vertex 18.2411 -1.98542 7
      vertex 17.2908 -1.87003 7
      vertex 25 -17.5 7
    endloop
  endfacet
  facet normal 0 0 1
    outer loop
      vertex 16.0581 -0.478631 7
      vertex 11.8761 5.28758 7
      vertex 16.503 -1.32624 7
    endloop
  endfacet
  facet normal 0 0 1
    outer loop
      vertex 11.8761 5.28758 7
      vertex 12.7159 2.70285 7
      vertex 25 -17.5 7
    endloop
  endfacet
  facet normal 0 0 1
    outer loop
      vertex -1.35887 -12.9288 7
      vertex -4.01722 -12.3637 7
      vertex -25 -17.5 7
    endloop
  endfacet
  facet normal 0 0 1
    outer loop
      vertex -19.497 1.32624 7
      vertex -18.7092 1.87003 7
      vertex -25 7.5 7
    endloop
  endfacet
  facet normal 1 0 0
    outer loop
      vertex 25 -17.5 7
      vertex 25 -17.5 0
      vertex 25 7.5 0
    endloop
  endfacet
  facet normal 1 0 0
    outer loop
      vertex 25 7.5 7
      vertex 25 -17.5 7
      vertex 25 7.5 0
    endloop
  endfacet
  facet normal 0 1 0
    outer loop
      vertex 10.5987 7.5 0
      vertex 10.5987 7.5 7
      vertex 25 7.5 0
    endloop
  endfacet
  facet normal 0 1 0
    outer loop
      vertex 25 7.5 0
      vertex 10.5987 7.5 7
      vertex 25 7.5 7
    endloop
  endfacet
  facet normal 0.866025 0.5 0
    outer loop
      vertex 10.5987 7.5 0
      vertex 10.5172 7.64121 0
      vertex 10.5172 7.64121 34
    endloop
  endfacet
  facet normal 0.866025 0.5 0
    outer loop
      vertex 10.5987 7.5 7
      vertex 10.5987 7.5 0
      vertex 10.5172 7.64121 34
    endloop
  endfacet
  facet normal 0.866025 0.5 0
    outer loop
      vertex 11.8761 5.28758 34
      vertex 10.5987 7.5 7
      vertex 10.5172 7.64121 34
    endloop
  endfacet
  facet normal 0.866025 0.5 0
    outer loop
      vertex 11.8761 5.28758 7
      vertex 10.5987 7.5 7
      vertex 11.8761 5.28758 34
    endloop
  endfacet
  facet normal 0.743145 0.66913 0
    outer loop
      vertex 10.5172 7.64121 0
      vertex 8.6987 9.66088 0
      vertex 8.6987 9.66088 34
    endloop
  endfacet
  facet normal 0.743145 0.66913 0
    outer loop
      vertex 10.5172 7.64121 34
      vertex 10.5172 7.64121 0
      vertex 8.6987 9.66088 34
    endloop
  endfacet
  facet normal 0.587785 0.809017 0
    outer loop
      vertex 6.5 11.2583 0
      vertex 6.5 11.2583 34
      vertex 8.6987 9.66088 0
    endloop
  endfacet
  facet normal 0.587785 0.809017 0
    outer loop
      vertex 8.6987 9.66088 0
      vertex 6.5 11.2583 34
      vertex 8.6987 9.66088 34
    endloop
  endfacet
  facet normal 0.406737 0.913545 0
    outer loop
      vertex 4.01722 12.3637 0
      vertex 4.01722 12.3637 34
      vertex 6.5 11.2583 0
    endloop
  endfacet
  facet normal 0.406737 0.913545 0
    outer loop
      vertex 6.5 11.2583 0
      vertex 4.01722 12.3637 34
      vertex 6.5 11.2583 34
    endloop
  endfacet
  facet normal 0.207912 0.978148 0
    outer loop
      vertex 2 12.7925 0
      vertex 2 12.7925 34
      vertex 4.01722 12.3637 0
    endloop
  endfacet
  facet normal 0.207912 0.978148 0
    outer loop
      vertex 4.01722 12.3637 0
      vertex 2 12.7925 34
      vertex 4.01722 12.3637 34
    endloop
  endfacet
  facet normal -1 0 0
    outer loop
      vertex 2 8.87806 30
      vertex 2 8.87806 34
      vertex 2 9.38643 30
    endloop
  endfacet
  facet normal -1 0 0
    outer loop
      vertex 2 12.7925 34
      vertex 2 12.7925 0
      vertex 2 9.38643 30
    endloop
  endfacet
  facet normal -1 0 0
    outer loop
      vertex 2 12.7925 34
      vertex 2 9.38643 30
      vertex 2 8.87806 34
    endloop
  endfacet
  facet normal -1 0 0
    outer loop
      vertex 2 9.38643 30
      vertex 2 12.7925 0
      vertex 2 9.38643 0
    endloop
  endfacet
  facet normal -0.207912 -0.978148 0
    outer loop
      vertex 2.98201 9.17769 0
      vertex 2.98201 9.17769 30
      vertex 2 9.38643 30
    endloop
  endfacet
  facet normal -0.207912 -0.978148 0
    outer loop
      vertex 2 9.38643 0
      vertex 2.98201 9.17769 0
      vertex 2 9.38643 30
    endloop
  endfacet
  facet normal -0.406737 -0.913546 0
    outer loop
      vertex 4.825 8.35714 0
      vertex 4.825 8.35714 30
      vertex 2.98201 9.17769 30
    endloop
  endfacet
  facet normal -0.406737 -0.913546 0
    outer loop
      vertex 2.98201 9.17769 0
      vertex 4.825 8.35714 0
      vertex 2.98201 9.17769 30
    endloop
  endfacet
  facet normal -0.587785 -0.809017 0
    outer loop
      vertex 6.45711 7.17135 0
      vertex 6.45711 7.17135 30
      vertex 4.825 8.35714 30
    endloop
  endfacet
  facet normal -0.587785 -0.809017 0
    outer loop
      vertex 4.825 8.35714 0
      vertex 6.45711 7.17135 0
      vertex 4.825 8.35714 30
    endloop
  endfacet
  facet normal -0.743145 -0.669131 0
    outer loop
      vertex 7.80701 5.67213 30
      vertex 6.45711 7.17135 30
      vertex 7.80701 5.67213 0
    endloop
  endfacet
  facet normal -0.743145 -0.669131 0
    outer loop
      vertex 7.80701 5.67213 0
      vertex 6.45711 7.17135 30
      vertex 6.45711 7.17135 0
    endloop
  endfacet
  facet normal -0.866025 -0.5 0
    outer loop
      vertex 8.81571 3.92501 30
      vertex 7.80701 5.67213 30
      vertex 8.81571 3.92501 0
    endloop
  endfacet
  facet normal -0.866025 -0.5 0
    outer loop
      vertex 8.81571 3.92501 0
      vertex 7.80701 5.67213 30
      vertex 7.80701 5.67213 0
    endloop
  endfacet
  facet normal -0.951057 -0.309017 0
    outer loop
      vertex 9.43912 2.00635 30
      vertex 8.81571 3.92501 30
      vertex 9.43912 2.00635 0
    endloop
  endfacet
  facet normal -0.951057 -0.309017 0
    outer loop
      vertex 9.43912 2.00635 0
      vertex 8.81571 3.92501 30
      vertex 8.81571 3.92501 0
    endloop
  endfacet
  facet normal -0.994522 -0.104529 0
    outer loop
      vertex 9.65 0 30
      vertex 9.43912 2.00635 30
      vertex 9.65 0 0
    endloop
  endfacet
  facet normal -0.994522 -0.104529 0
    outer loop
      vertex 9.65 0 0
      vertex 9.43912 2.00635 30
      vertex 9.43912 2.00635 0
    endloop
  endfacet
  facet normal -0.994522 0.104529 0
    outer loop
      vertex 9.65 0 30
      vertex 9.65 0 0
      vertex 9.43912 -2.00635 30
    endloop
  endfacet
  facet normal -0.994522 0.104529 0
    outer loop
      vertex 9.43912 -2.00635 30
      vertex 9.65 0 0
      vertex 9.43912 -2.00635 0
    endloop
  endfacet
  facet normal -0.951057 0.309017 0
    outer loop
      vertex 9.43912 -2.00635 30
      vertex 9.43912 -2.00635 0
      vertex 8.81571 -3.92501 30
    endloop
  endfacet
  facet normal -0.951057 0.309017 0
    outer loop
      vertex 8.81571 -3.92501 30
      vertex 9.43912 -2.00635 0
      vertex 8.81571 -3.92501 0
    endloop
  endfacet
  facet normal -0.866025 0.5 0
    outer loop
      vertex 8.81571 -3.92501 30
      vertex 8.81571 -3.92501 0
      vertex 7.80701 -5.67213 30
    endloop
  endfacet
  facet normal -0.866025 0.5 0
    outer loop
      vertex 7.80701 -5.67213 30
      vertex 8.81571 -3.92501 0
      vertex 7.80701 -5.67213 0
    endloop
  endfacet
  facet normal -0.743145 0.669131 0
    outer loop
      vertex 7.80701 -5.67213 30
      vertex 7.80701 -5.67213 0
      vertex 6.45711 -7.17135 30
    endloop
  endfacet
  facet normal -0.743145 0.669131 0
    outer loop
      vertex 6.45711 -7.17135 30
      vertex 7.80701 -5.67213 0
      vertex 6.45711 -7.17135 0
    endloop
  endfacet
  facet normal -0.587785 0.809017 0
    outer loop
      vertex 6.45711 -7.17135 30
      vertex 6.45711 -7.17135 0
      vertex 4.825 -8.35714 30
    endloop
  endfacet
  facet normal -0.587785 0.809017 0
    outer loop
      vertex 4.825 -8.35714 30
      vertex 6.45711 -7.17135 0
      vertex 4.825 -8.35714 0
    endloop
  endfacet
  facet normal -0.406737 0.913546 0
    outer loop
      vertex 4.825 -8.35714 30
      vertex 4.825 -8.35714 0
      vertex 2.98201 -9.17769 30
    endloop
  endfacet
  facet normal -0.406737 0.913546 0
    outer loop
      vertex 2.98201 -9.17769 30
      vertex 4.825 -8.35714 0
      vertex 2.98201 -9.17769 0
    endloop
  endfacet
  facet normal -0.207912 0.978148 0
    outer loop
      vertex 2.98201 -9.17769 30
      vertex 2.98201 -9.17769 0
      vertex 1.0087 -9.59714 30
    endloop
  endfacet
  facet normal -0.207912 0.978148 0
    outer loop
      vertex 1.0087 -9.59714 30
      vertex 2.98201 -9.17769 0
      vertex 1.0087 -9.59714 0
    endloop
  endfacet
  facet normal 0 1 0
    outer loop
      vertex 1.0087 -9.59714 30
      vertex 1.0087 -9.59714 0
      vertex -1.0087 -9.59714 30
    endloop
  endfacet
  facet normal 0 1 0
    outer loop
      vertex -1.0087 -9.59714 30
      vertex 1.0087 -9.59714 0
      vertex -1.0087 -9.59714 0
    endloop
  endfacet
  facet normal 0.207912 0.978148 0
    outer loop
      vertex -1.0087 -9.59714 30
      vertex -1.0087 -9.59714 0
      vertex -2.98201 -9.17769 30
    endloop
  endfacet
  facet normal 0.207912 0.978148 0
    outer loop
      vertex -2.98201 -9.17769 30
      vertex -1.0087 -9.59714 0
      vertex -2.98201 -9.17769 0
    endloop
  endfacet
  facet normal 0.406737 0.913546 0
    outer loop
      vertex -2.98201 -9.17769 30
      vertex -2.98201 -9.17769 0
      vertex -4.825 -8.35714 30
    endloop
  endfacet
  facet normal 0.406737 0.913546 0
    outer loop
      vertex -4.825 -8.35714 30
      vertex -2.98201 -9.17769 0
      vertex -4.825 -8.35714 0
    endloop
  endfacet
  facet normal 0.587785 0.809017 0
    outer loop
      vertex -4.825 -8.35714 30
      vertex -4.825 -8.35714 0
      vertex -6.45711 -7.17135 30
    endloop
  endfacet
  facet normal 0.587785 0.809017 0
    outer loop
      vertex -6.45711 -7.17135 30
      vertex -4.825 -8.35714 0
      vertex -6.45711 -7.17135 0
    endloop
  endfacet
  facet normal 0.743145 0.669131 0
    outer loop
      vertex -7.80701 -5.67213 30
      vertex -6.45711 -7.17135 30
      vertex -6.45711 -7.17135 0
    endloop
  endfacet
  facet normal 0.743145 0.669131 0
    outer loop
      vertex -7.80701 -5.67213 0
      vertex -7.80701 -5.67213 30
      vertex -6.45711 -7.17135 0
    endloop
  endfacet
  facet normal 0.866025 0.5 0
    outer loop
      vertex -8.81571 -3.92501 30
      vertex -7.80701 -5.67213 30
      vertex -7.80701 -5.67213 0
    endloop
  endfacet
  facet normal 0.866025 0.5 0
    outer loop
      vertex -8.81571 -3.92501 0
      vertex -8.81571 -3.92501 30
      vertex -7.80701 -5.67213 0
    endloop
  endfacet
  facet normal 0.951057 0.309017 0
    outer loop
      vertex -9.43912 -2.00635 30
      vertex -8.81571 -3.92501 30
      vertex -8.81571 -3.92501 0
    endloop
  endfacet
  facet normal 0.951057 0.309017 0
    outer loop
      vertex -9.43912 -2.00635 0
      vertex -9.43912 -2.00635 30
      vertex -8.81571 -3.92501 0
    endloop
  endfacet
  facet normal 0.994522 0.104529 0
    outer loop
      vertex -9.65 0 30
      vertex -9.43912 -2.00635 30
      vertex -9.43912 -2.00635 0
    endloop
  endfacet
  facet normal 0.994522 0.104529 0
    outer loop
      vertex -9.65 0 0
      vertex -9.65 0 30
      vertex -9.43912 -2.00635 0
    endloop
  endfacet
  facet normal 0.994522 -0.104529 0
    outer loop
      vertex -9.43912 2.00635 0
      vertex -9.43912 2.00635 30
      vertex -9.65 0 30
    endloop
  endfacet
  facet normal 0.994522 -0.104529 0
    outer loop
      vertex -9.65 0 0
      vertex -9.43912 2.00635 0
      vertex -9.65 0 30
    endloop
  endfacet
  facet normal 0.951057 -0.309017 0
    outer loop
      vertex -8.81571 3.92501 0
      vertex -8.81571 3.92501 30
      vertex -9.43912 2.00635 30
    endloop
  endfacet
  facet normal 0.951057 -0.309017 0
    outer loop
      vertex -9.43912 2.00635 0
      vertex -8.81571 3.92501 0
      vertex -9.43912 2.00635 30
    endloop
  endfacet
  facet normal 0.866025 -0.5 0
    outer loop
      vertex -7.80701 5.67213 0
      vertex -7.80701 5.67213 30
      vertex -8.81571 3.92501 30
    endloop
  endfacet
  facet normal 0.866025 -0.5 0
    outer loop
      vertex -8.81571 3.92501 0
      vertex -7.80701 5.67213 0
      vertex -8.81571 3.92501 30
    endloop
  endfacet
  facet normal 0.743145 -0.669131 0
    outer loop
      vertex -6.45711 7.17135 0
      vertex -6.45711 7.17135 30
      vertex -7.80701 5.67213 30
    endloop
  endfacet
  facet normal 0.743145 -0.669131 0
    outer loop
      vertex -7.80701 5.67213 0
      vertex -6.45711 7.17135 0
      vertex -7.80701 5.67213 30
    endloop
  endfacet
  facet normal 0.587785 -0.809017 0
    outer loop
      vertex -4.825 8.35714 0
      vertex -4.825 8.35714 30
      vertex -6.45711 7.17135 30
    endloop
  endfacet
  facet normal 0.587785 -0.809017 0
    outer loop
      vertex -6.45711 7.17135 0
      vertex -4.825 8.35714 0
      vertex -6.45711 7.17135 30
    endloop
  endfacet
  facet normal 0.406737 -0.913546 0
    outer loop
      vertex -2.98201 9.17769 0
      vertex -2.98201 9.17769 30
      vertex -4.825 8.35714 30
    endloop
  endfacet
  facet normal 0.406737 -0.913546 0
    outer loop
      vertex -4.825 8.35714 0
      vertex -2.98201 9.17769 0
      vertex -4.825 8.35714 30
    endloop
  endfacet
  facet normal 0.207912 -0.978148 0
    outer loop
      vertex -2 9.38643 0
      vertex -2 9.38643 30
      vertex -2.98201 9.17769 30
    endloop
  endfacet
  facet normal 0.207912 -0.978148 0
    outer loop
      vertex -2.98201 9.17769 0
      vertex -2 9.38643 0
      vertex -2.98201 9.17769 30
    endloop
  endfacet
  facet normal 1 0 0
    outer loop
      vertex -2 9.38643 30
      vertex -2 9.38643 0
      vertex -2 12.7925 0
    endloop
  endfacet
  facet normal 1 0 0
    outer loop
      vertex -2 8.87806 34
      vertex -2 9.38643 30
      vertex -2 12.7925 34
    endloop
  endfacet
  facet normal 1 0 0
    outer loop
      vertex -2 12.7925 34
      vertex -2 9.38643 30
      vertex -2 12.7925 0
    endloop
  endfacet
  facet normal 1 0 0
    outer loop
      vertex -2 8.87806 30
      vertex -2 9.38643 30
      vertex -2 8.87806 34
    endloop
  endfacet
  facet normal -0.207912 0.978148 0
    outer loop
      vertex -4.01722 12.3637 0
      vertex -4.01722 12.3637 34
      vertex -2 12.7925 0
    endloop
  endfacet
  facet normal -0.207912 0.978148 0
    outer loop
      vertex -2 12.7925 0
      vertex -4.01722 12.3637 34
      vertex -2 12.7925 34
    endloop
  endfacet
  facet normal -0.406737 0.913545 0
    outer loop
      vertex -6.5 11.2583 0
      vertex -6.5 11.2583 34
      vertex -4.01722 12.3637 0
    endloop
  endfacet
  facet normal -0.406737 0.913545 0
    outer loop
      vertex -4.01722 12.3637 0
      vertex -6.5 11.2583 34
      vertex -4.01722 12.3637 34
    endloop
  endfacet
  facet normal -0.587785 0.809017 0
    outer loop
      vertex -8.6987 9.66088 0
      vertex -8.6987 9.66088 34
      vertex -6.5 11.2583 0
    endloop
  endfacet
  facet normal -0.587785 0.809017 0
    outer loop
      vertex -6.5 11.2583 0
      vertex -8.6987 9.66088 34
      vertex -6.5 11.2583 34
    endloop
  endfacet
  facet normal -0.743145 0.66913 0
    outer loop
      vertex -10.5172 7.64121 0
      vertex -10.5172 7.64121 34
      vertex -8.6987 9.66088 0
    endloop
  endfacet
  facet normal -0.743145 0.66913 0
    outer loop
      vertex -8.6987 9.66088 0
      vertex -10.5172 7.64121 34
      vertex -8.6987 9.66088 34
    endloop
  endfacet
  facet normal -0.866025 0.5 0
    outer loop
      vertex -11.8761 5.28758 7
      vertex -11.8761 5.28758 34
      vertex -10.5987 7.5 7
    endloop
  endfacet
  facet normal -0.866025 0.5 0
    outer loop
      vertex -10.5987 7.5 7
      vertex -11.8761 5.28758 34
      vertex -10.5172 7.64121 34
    endloop
  endfacet
  facet normal -0.866025 0.5 0
    outer loop
      vertex -10.5987 7.5 7
      vertex -10.5172 7.64121 34
      vertex -10.5172 7.64121 0
    endloop
  endfacet
  facet normal -0.866025 0.5 0
    outer loop
      vertex -10.5987 7.5 7
      vertex -10.5172 7.64121 0
      vertex -10.5987 7.5 0
    endloop
  endfacet
  facet normal 1 0 0
    outer loop
      vertex -19.9419 0.478631 0
      vertex -19.9419 0.478631 7
      vertex -19.9419 -0.478631 7
    endloop
  endfacet
  facet normal 1 0 0
    outer loop
      vertex -19.9419 -0.478631 0
      vertex -19.9419 0.478631 0
      vertex -19.9419 -0.478631 7
    endloop
  endfacet
  facet normal 0.885456 -0.464724 0
    outer loop
      vertex -19.497 1.32624 0
      vertex -19.497 1.32624 7
      vertex -19.9419 0.478631 7
    endloop
  endfacet
  facet normal 0.885456 -0.464724 0
    outer loop
      vertex -19.9419 0.478631 0
      vertex -19.497 1.32624 0
      vertex -19.9419 0.478631 7
    endloop
  endfacet
  facet normal 0.568065 -0.822984 0
    outer loop
      vertex -18.7092 1.87003 0
      vertex -18.7092 1.87003 7
      vertex -19.497 1.32624 7
    endloop
  endfacet
  facet normal 0.568065 -0.822984 0
    outer loop
      vertex -19.497 1.32624 0
      vertex -18.7092 1.87003 0
      vertex -19.497 1.32624 7
    endloop
  endfacet
  facet normal 0.120537 -0.992709 0
    outer loop
      vertex -17.7589 1.98542 0
      vertex -17.7589 1.98542 7
      vertex -18.7092 1.87003 7
    endloop
  endfacet
  facet normal 0.120537 -0.992709 0
    outer loop
      vertex -18.7092 1.87003 0
      vertex -17.7589 1.98542 0
      vertex -18.7092 1.87003 7
    endloop
  endfacet
  facet normal -0.354605 -0.935016 0
    outer loop
      vertex -16.8639 1.64597 0
      vertex -16.8639 1.64597 7
      vertex -17.7589 1.98542 7
    endloop
  endfacet
  facet normal -0.354605 -0.935016 0
    outer loop
      vertex -17.7589 1.98542 0
      vertex -16.8639 1.64597 0
      vertex -17.7589 1.98542 7
    endloop
  endfacet
  facet normal -0.748511 -0.663123 0
    outer loop
      vertex -16.2291 0.929446 7
      vertex -16.8639 1.64597 7
      vertex -16.2291 0.929446 0
    endloop
  endfacet
  facet normal -0.748511 -0.663123 0
    outer loop
      vertex -16.2291 0.929446 0
      vertex -16.8639 1.64597 7
      vertex -16.8639 1.64597 0
    endloop
  endfacet
  facet normal -0.970942 -0.239316 0
    outer loop
      vertex -16 0 7
      vertex -16.2291 0.929446 7
      vertex -16 0 0
    endloop
  endfacet
  facet normal -0.970942 -0.239316 0
    outer loop
      vertex -16 0 0
      vertex -16.2291 0.929446 7
      vertex -16.2291 0.929446 0
    endloop
  endfacet
  facet normal -0.970942 0.239316 0
    outer loop
      vertex -16 0 7
      vertex -16 0 0
      vertex -16.2291 -0.929446 7
    endloop
  endfacet
  facet normal -0.970942 0.239316 0
    outer loop
      vertex -16.2291 -0.929446 7
      vertex -16 0 0
      vertex -16.2291 -0.929446 0
    endloop
  endfacet
  facet normal -0.748511 0.663123 0
    outer loop
      vertex -16.2291 -0.929446 7
      vertex -16.2291 -0.929446 0
      vertex -16.8639 -1.64597 7
    endloop
  endfacet
  facet normal -0.748511 0.663123 0
    outer loop
      vertex -16.8639 -1.64597 7
      vertex -16.2291 -0.929446 0
      vertex -16.8639 -1.64597 0
    endloop
  endfacet
  facet normal -0.354605 0.935016 0
    outer loop
      vertex -16.8639 -1.64597 7
      vertex -16.8639 -1.64597 0
      vertex -17.7589 -1.98542 7
    endloop
  endfacet
  facet normal -0.354605 0.935016 0
    outer loop
      vertex -17.7589 -1.98542 7
      vertex -16.8639 -1.64597 0
      vertex -17.7589 -1.98542 0
    endloop
  endfacet
  facet normal 0.120537 0.992709 0
    outer loop
      vertex -17.7589 -1.98542 7
      vertex -17.7589 -1.98542 0
      vertex -18.7092 -1.87003 7
    endloop
  endfacet
  facet normal 0.120537 0.992709 0
    outer loop
      vertex -18.7092 -1.87003 7
      vertex -17.7589 -1.98542 0
      vertex -18.7092 -1.87003 0
    endloop
  endfacet
  facet normal 0.568065 0.822984 0
    outer loop
      vertex -18.7092 -1.87003 7
      vertex -18.7092 -1.87003 0
      vertex -19.497 -1.32624 7
    endloop
  endfacet
  facet normal 0.568065 0.822984 0
    outer loop
      vertex -19.497 -1.32624 7
      vertex -18.7092 -1.87003 0
      vertex -19.497 -1.32624 0
    endloop
  endfacet
  facet normal 0.885456 0.464724 0
    outer loop
      vertex -19.9419 -0.478631 7
      vertex -19.497 -1.32624 7
      vertex -19.497 -1.32624 0
    endloop
  endfacet
  facet normal 0.885456 0.464724 0
    outer loop
      vertex -19.9419 -0.478631 0
      vertex -19.9419 -0.478631 7
      vertex -19.497 -1.32624 0
    endloop
  endfacet
  facet normal 1 0 0
    outer loop
      vertex 16.0581 0.478631 0
      vertex 16.0581 0.478631 7
      vertex 16.0581 -0.478631 7
    endloop
  endfacet
  facet normal 1 0 0
    outer loop
      vertex 16.0581 -0.478631 0
      vertex 16.0581 0.478631 0
      vertex 16.0581 -0.478631 7
    endloop
  endfacet
  facet normal 0.885456 -0.464724 0
    outer loop
      vertex 16.503 1.32624 0
      vertex 16.503 1.32624 7
      vertex 16.0581 0.478631 7
    endloop
  endfacet
  facet normal 0.885456 -0.464724 0
    outer loop
      vertex 16.0581 0.478631 0
      vertex 16.503 1.32624 0
      vertex 16.0581 0.478631 7
    endloop
  endfacet
  facet normal 0.568065 -0.822984 0
    outer loop
      vertex 17.2908 1.87003 0
      vertex 17.2908 1.87003 7
      vertex 16.503 1.32624 7
    endloop
  endfacet
  facet normal 0.568065 -0.822984 0
    outer loop
      vertex 16.503 1.32624 0
      vertex 17.2908 1.87003 0
      vertex 16.503 1.32624 7
    endloop
  endfacet
  facet normal 0.120537 -0.992709 0
    outer loop
      vertex 18.2411 1.98542 0
      vertex 18.2411 1.98542 7
      vertex 17.2908 1.87003 7
    endloop
  endfacet
  facet normal 0.120537 -0.992709 0
    outer loop
      vertex 17.2908 1.87003 0
      vertex 18.2411 1.98542 0
      vertex 17.2908 1.87003 7
    endloop
  endfacet
  facet normal -0.354605 -0.935016 0
    outer loop
      vertex 19.1361 1.64597 0
      vertex 19.1361 1.64597 7
      vertex 18.2411 1.98542 7
    endloop
  endfacet
  facet normal -0.354605 -0.935016 0
    outer loop
      vertex 18.2411 1.98542 0
      vertex 19.1361 1.64597 0
      vertex 18.2411 1.98542 7
    endloop
  endfacet
  facet normal -0.748511 -0.663123 0
    outer loop
      vertex 19.7709 0.929446 7
      vertex 19.1361 1.64597 7
      vertex 19.7709 0.929446 0
    endloop
  endfacet
  facet normal -0.748511 -0.663123 0
    outer loop
      vertex 19.7709 0.929446 0
      vertex 19.1361 1.64597 7
      vertex 19.1361 1.64597 0
    endloop
  endfacet
  facet normal -0.970942 -0.239316 0
    outer loop
      vertex 20 0 7
      vertex 19.7709 0.929446 7
      vertex 20 0 0
    endloop
  endfacet
  facet normal -0.970942 -0.239316 0
    outer loop
      vertex 20 0 0
      vertex 19.7709 0.929446 7
      vertex 19.7709 0.929446 0
    endloop
  endfacet
  facet normal -0.970942 0.239316 0
    outer loop
      vertex 20 0 7
      vertex 20 0 0
      vertex 19.7709 -0.929446 7
    endloop
  endfacet
  facet normal -0.970942 0.239316 0
    outer loop
      vertex 19.7709 -0.929446 7
      vertex 20 0 0
      vertex 19.7709 -0.929446 0
    endloop
  endfacet
  facet normal -0.748511 0.663123 0
    outer loop
      vertex 19.7709 -0.929446 7
      vertex 19.7709 -0.929446 0
      vertex 19.1361 -1.64597 7
    endloop
  endfacet
  facet normal -0.748511 0.663123 0
    outer loop
      vertex 19.1361 -1.64597 7
      vertex 19.7709 -0.929446 0
      vertex 19.1361 -1.64597 0
    endloop
  endfacet
  facet normal -0.354605 0.935016 0
    outer loop
      vertex 19.1361 -1.64597 7
      vertex 19.1361 -1.64597 0
      vertex 18.2411 -1.98542 7
    endloop
  endfacet
  facet normal -0.354605 0.935016 0
    outer loop
      vertex 18.2411 -1.98542 7
      vertex 19.1361 -1.64597 0
      vertex 18.2411 -1.98542 0
    endloop
  endfacet
  facet normal 0.120537 0.992709 0
    outer loop
      vertex 18.2411 -1.98542 7
      vertex 18.2411 -1.98542 0
      vertex 17.2908 -1.87003 7
    endloop
  endfacet
  facet normal 0.120537 0.992709 0
    outer loop
      vertex 17.2908 -1.87003 7
      vertex 18.2411 -1.98542 0
      vertex 17.2908 -1.87003 0
    endloop
  endfacet
  facet normal 0.568065 0.822984 0
    outer loop
      vertex 17.2908 -1.87003 7
      vertex 17.2908 -1.87003 0
      vertex 16.503 -1.32624 7
    endloop
  endfacet
  facet normal 0.568065 0.822984 0
    outer loop
      vertex 16.503 -1.32624 7
      vertex 17.2908 -1.87003 0
      vertex 16.503 -1.32624 0
    endloop
  endfacet
  facet normal 0.885456 0.464724 0
    outer loop
      vertex 16.0581 -0.478631 7
      vertex 16.503 -1.32624 7
      vertex 16.503 -1.32624 0
    endloop
  endfacet
  facet normal 0.885456 0.464724 0
    outer loop
      vertex 16.0581 -0.478631 0
      vertex 16.0581 -0.478631 7
      vertex 16.503 -1.32624 0
    endloop
  endfacet
  facet normal -0.951056 0.309017 0
    outer loop
      vertex -12.7159 2.70285 7
      vertex -12.7159 2.70285 34
      vertex -11.8761 5.28758 7
    endloop
  endfacet
  facet normal -0.951056 0.309017 0
    outer loop
      vertex -11.8761 5.28758 7
      vertex -12.7159 2.70285 34
      vertex -11.8761 5.28758 34
    endloop
  endfacet
  facet normal -0.994522 0.104528 0
    outer loop
      vertex -13 0 7
      vertex -13 0 34
      vertex -12.7159 2.70285 7
    endloop
  endfacet
  facet normal -0.994522 0.104528 0
    outer loop
      vertex -12.7159 2.70285 7
      vertex -13 0 34
      vertex -12.7159 2.70285 34
    endloop
  endfacet
  facet normal -0.994522 -0.104528 0
    outer loop
      vertex -13 0 7
      vertex -12.7159 -2.70285 7
      vertex -13 0 34
    endloop
  endfacet
  facet normal -0.994522 -0.104528 0
    outer loop
      vertex -13 0 34
      vertex -12.7159 -2.70285 7
      vertex -12.7159 -2.70285 34
    endloop
  endfacet
  facet normal -0.951056 -0.309017 0
    outer loop
      vertex -12.7159 -2.70285 7
      vertex -11.8761 -5.28758 7
      vertex -12.7159 -2.70285 34
    endloop
  endfacet
  facet normal -0.951056 -0.309017 0
    outer loop
      vertex -12.7159 -2.70285 34
      vertex -11.8761 -5.28758 7
      vertex -11.8761 -5.28758 34
    endloop
  endfacet
  facet normal -0.866025 -0.5 0
    outer loop
      vertex -11.8761 -5.28758 7
      vertex -10.5172 -7.64121 7
      vertex -11.8761 -5.28758 34
    endloop
  endfacet
  facet normal -0.866025 -0.5 0
    outer loop
      vertex -11.8761 -5.28758 34
      vertex -10.5172 -7.64121 7
      vertex -10.5172 -7.64121 34
    endloop
  endfacet
  facet normal -0.743145 -0.66913 0
    outer loop
      vertex -10.5172 -7.64121 7
      vertex -8.6987 -9.66088 7
      vertex -10.5172 -7.64121 34
    endloop
  endfacet
  facet normal -0.743145 -0.66913 0
    outer loop
      vertex -10.5172 -7.64121 34
      vertex -8.6987 -9.66088 7
      vertex -8.6987 -9.66088 34
    endloop
  endfacet
  facet normal -0.587785 -0.809017 0
    outer loop
      vertex -8.6987 -9.66088 34
      vertex -8.6987 -9.66088 7
      vertex -6.5 -11.2583 7
    endloop
  endfacet
  facet normal -0.587785 -0.809017 0
    outer loop
      vertex -6.5 -11.2583 34
      vertex -8.6987 -9.66088 34
      vertex -6.5 -11.2583 7
    endloop
  endfacet
  facet normal -0.406737 -0.913545 0
    outer loop
      vertex -6.5 -11.2583 34
      vertex -6.5 -11.2583 7
      vertex -4.01722 -12.3637 7
    endloop
  endfacet
  facet normal -0.406737 -0.913545 0
    outer loop
      vertex -4.01722 -12.3637 34
      vertex -6.5 -11.2583 34
      vertex -4.01722 -12.3637 7
    endloop
  endfacet
  facet normal -0.207912 -0.978148 0
    outer loop
      vertex -4.01722 -12.3637 34
      vertex -4.01722 -12.3637 7
      vertex -1.35887 -12.9288 7
    endloop
  endfacet
  facet normal -0.207912 -0.978148 0
    outer loop
      vertex -1.35887 -12.9288 34
      vertex -4.01722 -12.3637 34
      vertex -1.35887 -12.9288 7
    endloop
  endfacet
  facet normal 0 -1 0
    outer loop
      vertex -1.35887 -12.9288 34
      vertex -1.35887 -12.9288 7
      vertex 1.35887 -12.9288 7
    endloop
  endfacet
  facet normal 0 -1 0
    outer loop
      vertex 1.35887 -12.9288 34
      vertex -1.35887 -12.9288 34
      vertex 1.35887 -12.9288 7
    endloop
  endfacet
  facet normal 0.207912 -0.978148 0
    outer loop
      vertex 1.35887 -12.9288 34
      vertex 1.35887 -12.9288 7
      vertex 4.01722 -12.3637 7
    endloop
  endfacet
  facet normal 0.207912 -0.978148 0
    outer loop
      vertex 4.01722 -12.3637 34
      vertex 1.35887 -12.9288 34
      vertex 4.01722 -12.3637 7
    endloop
  endfacet
  facet normal 0.406737 -0.913545 0
    outer loop
      vertex 4.01722 -12.3637 34
      vertex 4.01722 -12.3637 7
      vertex 6.5 -11.2583 7
    endloop
  endfacet
  facet normal 0.406737 -0.913545 0
    outer loop
      vertex 6.5 -11.2583 34
      vertex 4.01722 -12.3637 34
      vertex 6.5 -11.2583 7
    endloop
  endfacet
  facet normal 0.587785 -0.809017 0
    outer loop
      vertex 6.5 -11.2583 34
      vertex 6.5 -11.2583 7
      vertex 8.6987 -9.66088 7
    endloop
  endfacet
  facet normal 0.587785 -0.809017 0
    outer loop
      vertex 8.6987 -9.66088 34
      vertex 6.5 -11.2583 34
      vertex 8.6987 -9.66088 7
    endloop
  endfacet
  facet normal 0.743145 -0.66913 0
    outer loop
      vertex 8.6987 -9.66088 34
      vertex 8.6987 -9.66088 7
      vertex 10.5172 -7.64121 7
    endloop
  endfacet
  facet normal 0.743145 -0.66913 0
    outer loop
      vertex 10.5172 -7.64121 34
      vertex 8.6987 -9.66088 34
      vertex 10.5172 -7.64121 7
    endloop
  endfacet
  facet normal 0.866025 -0.5 0
    outer loop
      vertex 10.5172 -7.64121 34
      vertex 10.5172 -7.64121 7
      vertex 11.8761 -5.28758 7
    endloop
  endfacet
  facet normal 0.866025 -0.5 0
    outer loop
      vertex 11.8761 -5.28758 34
      vertex 10.5172 -7.64121 34
      vertex 11.8761 -5.28758 7
    endloop
  endfacet
  facet normal 0.951056 -0.309017 0
    outer loop
      vertex 11.8761 -5.28758 34
      vertex 11.8761 -5.28758 7
      vertex 12.7159 -2.70285 7
    endloop
  endfacet
  facet normal 0.951056 -0.309017 0
    outer loop
      vertex 12.7159 -2.70285 34
      vertex 11.8761 -5.28758 34
      vertex 12.7159 -2.70285 7
    endloop
  endfacet
  facet normal 0.994522 -0.104528 0
    outer loop
      vertex 12.7159 -2.70285 34
      vertex 12.7159 -2.70285 7
      vertex 13 0 7
    endloop
  endfacet
  facet normal 0.994522 -0.104528 0
    outer loop
      vertex 13 0 34
      vertex 12.7159 -2.70285 34
      vertex 13 0 7
    endloop
  endfacet
  facet normal 0.994522 0.104528 0
    outer loop
      vertex 13 0 7
      vertex 12.7159 2.70285 7
      vertex 12.7159 2.70285 34
    endloop
  endfacet
  facet normal 0.994522 0.104528 0
    outer loop
      vertex 13 0 34
      vertex 13 0 7
      vertex 12.7159 2.70285 34
    endloop
  endfacet
  facet normal 0.951056 0.309017 0
    outer loop
      vertex 12.7159 2.70285 7
      vertex 11.8761 5.28758 7
      vertex 11.8761 5.28758 34
    endloop
  endfacet
  facet normal 0.951056 0.309017 0
    outer loop
      vertex 12.7159 2.70285 34
      vertex 12.7159 2.70285 7
      vertex 11.8761 5.28758 34
    endloop
  endfacet
  facet normal 0 0 1
    outer loop
      vertex -12.7159 2.70285 34
      vertex -13 0 34
      vertex -12.7159 -2.70285 34
    endloop
  endfacet
  facet normal 0 0 1
    outer loop
      vertex -10.5172 -7.64121 34
      vertex -12.7159 2.70285 34
      vertex -11.8761 -5.28758 34
    endloop
  endfacet
  facet normal 0 0 1
    outer loop
      vertex -11.8761 -5.28758 34
      vertex -12.7159 2.70285 34
      vertex -12.7159 -2.70285 34
    endloop
  endfacet
  facet normal 0 0 1
    outer loop
      vertex -8.6987 -9.66088 34
      vertex -12.7159 2.70285 34
      vertex -10.5172 -7.64121 34
    endloop
  endfacet
  facet normal 0 0 1
    outer loop
      vertex -6.5 -11.2583 34
      vertex -12.7159 2.70285 34
      vertex -8.6987 -9.66088 34
    endloop
  endfacet
  facet normal 0 0 1
    outer loop
      vertex -4.01722 -12.3637 34
      vertex -12.7159 2.70285 34
      vertex -6.5 -11.2583 34
    endloop
  endfacet
  facet normal 0 0 1
    outer loop
      vertex -7.4025 -5.37824 34
      vertex -12.7159 2.70285 34
      vertex -4.01722 -12.3637 34
    endloop
  endfacet
  facet normal 0 0 1
    outer loop
      vertex -4.575 -7.92413 34
      vertex -6.12254 -6.79977 34
      vertex -1.35887 -12.9288 34
    endloop
  endfacet
  facet normal 0 0 1
    outer loop
      vertex -0.956435 -9.09987 34
      vertex -2.8275 -8.70217 34
      vertex 1.35887 -12.9288 34
    endloop
  endfacet
  facet normal 0 0 1
    outer loop
      vertex 0.956435 -9.09987 34
      vertex -0.956435 -9.09987 34
      vertex 4.01722 -12.3637 34
    endloop
  endfacet
  facet normal 0 0 1
    outer loop
      vertex 4.575 -7.92413 34
      vertex 2.8275 -8.70217 34
      vertex 6.5 -11.2583 34
    endloop
  endfacet
  facet normal 0 0 1
    outer loop
      vertex 6.12254 -6.79977 34
      vertex 4.575 -7.92413 34
      vertex 8.6987 -9.66088 34
    endloop
  endfacet
  facet normal 0 0 1
    outer loop
      vertex 7.4025 -5.37824 34
      vertex 6.12254 -6.79977 34
      vertex 10.5172 -7.64121 34
    endloop
  endfacet
  facet normal 0 0 1
    outer loop
      vertex -8.35894 -3.72164 34
      vertex -8.95005 -1.90239 34
      vertex -12.7159 2.70285 34
    endloop
  endfacet
  facet normal 0 0 1
    outer loop
      vertex 8.95005 1.90239 34
      vertex 9.15 0 34
      vertex 13 0 34
    endloop
  endfacet
  facet normal 0 0 1
    outer loop
      vertex 8.35894 3.72164 34
      vertex 8.95005 1.90239 34
      vertex 12.7159 2.70285 34
    endloop
  endfacet
  facet normal 0 0 1
    outer loop
      vertex 7.4025 5.37824 34
      vertex 8.35894 3.72164 34
      vertex 11.8761 5.28758 34
    endloop
  endfacet
  facet normal 0 0 1
    outer loop
      vertex 6.12254 6.79977 34
      vertex 7.4025 5.37824 34
      vertex 10.5172 7.64121 34
    endloop
  endfacet
  facet normal 0 0 1
    outer loop
      vertex 2.8275 8.70217 34
      vertex 4.575 7.92413 34
      vertex 8.6987 9.66088 34
    endloop
  endfacet
  facet normal 0 0 1
    outer loop
      vertex -9.15 0 34
      vertex -8.95005 1.90239 34
      vertex -12.7159 2.70285 34
    endloop
  endfacet
  facet normal 0 0 1
    outer loop
      vertex 6.5 11.2583 34
      vertex 2 8.87806 34
      vertex 8.6987 9.66088 34
    endloop
  endfacet
  facet normal 0 0 1
    outer loop
      vertex -4.575 7.92413 34
      vertex -2 12.7925 34
      vertex -12.7159 2.70285 34
    endloop
  endfacet
  facet normal 0 0 1
    outer loop
      vertex 2 8.87806 34
      vertex 2.8275 8.70217 34
      vertex 8.6987 9.66088 34
    endloop
  endfacet
  facet normal 0 0 1
    outer loop
      vertex -7.4025 5.37824 34
      vertex -6.12254 6.79977 34
      vertex -12.7159 2.70285 34
    endloop
  endfacet
  facet normal 0 0 1
    outer loop
      vertex 8.6987 9.66088 34
      vertex 4.575 7.92413 34
      vertex 10.5172 7.64121 34
    endloop
  endfacet
  facet normal 0 0 1
    outer loop
      vertex 4.575 7.92413 34
      vertex 6.12254 6.79977 34
      vertex 10.5172 7.64121 34
    endloop
  endfacet
  facet normal 0 0 1
    outer loop
      vertex 10.5172 7.64121 34
      vertex 7.4025 5.37824 34
      vertex 11.8761 5.28758 34
    endloop
  endfacet
  facet normal 0 0 1
    outer loop
      vertex 11.8761 5.28758 34
      vertex 8.35894 3.72164 34
      vertex 12.7159 2.70285 34
    endloop
  endfacet
  facet normal 0 0 1
    outer loop
      vertex -8.35894 3.72164 34
      vertex -7.4025 5.37824 34
      vertex -12.7159 2.70285 34
    endloop
  endfacet
  facet normal 0 0 1
    outer loop
      vertex 12.7159 2.70285 34
      vertex 8.95005 1.90239 34
      vertex 13 0 34
    endloop
  endfacet
  facet normal 0 0 1
    outer loop
      vertex -2 8.87806 34
      vertex -2 12.7925 34
      vertex -2.8275 8.70217 34
    endloop
  endfacet
  facet normal 0 0 1
    outer loop
      vertex 13 0 34
      vertex 9.15 0 34
      vertex 12.7159 -2.70285 34
    endloop
  endfacet
  facet normal 0 0 1
    outer loop
      vertex 9.15 0 34
      vertex 8.95005 -1.90239 34
      vertex 12.7159 -2.70285 34
    endloop
  endfacet
  facet normal 0 0 1
    outer loop
      vertex 12.7159 -2.70285 34
      vertex 8.35894 -3.72164 34
      vertex 11.8761 -5.28758 34
    endloop
  endfacet
  facet normal 0 0 1
    outer loop
      vertex 11.8761 -5.28758 34
      vertex 7.4025 -5.37824 34
      vertex 10.5172 -7.64121 34
    endloop
  endfacet
  facet normal 0 0 1
    outer loop
      vertex 10.5172 -7.64121 34
      vertex 6.12254 -6.79977 34
      vertex 8.6987 -9.66088 34
    endloop
  endfacet
  facet normal 0 0 1
    outer loop
      vertex 8.6987 -9.66088 34
      vertex 4.575 -7.92413 34
      vertex 6.5 -11.2583 34
    endloop
  endfacet
  facet normal 0 0 1
    outer loop
      vertex 6.5 -11.2583 34
      vertex 2.8275 -8.70217 34
      vertex 4.01722 -12.3637 34
    endloop
  endfacet
  facet normal 0 0 1
    outer loop
      vertex 2.8275 -8.70217 34
      vertex 0.956435 -9.09987 34
      vertex 4.01722 -12.3637 34
    endloop
  endfacet
  facet normal 0 0 1
    outer loop
      vertex 4.01722 -12.3637 34
      vertex -0.956435 -9.09987 34
      vertex 1.35887 -12.9288 34
    endloop
  endfacet
  facet normal 0 0 1
    outer loop
      vertex 1.35887 -12.9288 34
      vertex -2.8275 -8.70217 34
      vertex -1.35887 -12.9288 34
    endloop
  endfacet
  facet normal 0 0 1
    outer loop
      vertex -2.8275 -8.70217 34
      vertex -4.575 -7.92413 34
      vertex -1.35887 -12.9288 34
    endloop
  endfacet
  facet normal 0 0 1
    outer loop
      vertex -1.35887 -12.9288 34
      vertex -6.12254 -6.79977 34
      vertex -4.01722 -12.3637 34
    endloop
  endfacet
  facet normal 0 0 1
    outer loop
      vertex -6.12254 -6.79977 34
      vertex -7.4025 -5.37824 34
      vertex -4.01722 -12.3637 34
    endloop
  endfacet
  facet normal 0 0 1
    outer loop
      vertex -8.35894 -3.72164 34
      vertex -12.7159 2.70285 34
      vertex -7.4025 -5.37824 34
    endloop
  endfacet
  facet normal 0 0 1
    outer loop
      vertex 8.35894 -3.72164 34
      vertex 7.4025 -5.37824 34
      vertex 11.8761 -5.28758 34
    endloop
  endfacet
  facet normal 0 0 1
    outer loop
      vertex -2.8275 8.70217 34
      vertex -2 12.7925 34
      vertex -4.575 7.92413 34
    endloop
  endfacet
  facet normal 0 0 1
    outer loop
      vertex 8.95005 -1.90239 34
      vertex 8.35894 -3.72164 34
      vertex 12.7159 -2.70285 34
    endloop
  endfacet
  facet normal 0 0 1
    outer loop
      vertex -4.575 7.92413 34
      vertex -12.7159 2.70285 34
      vertex -6.12254 6.79977 34
    endloop
  endfacet
  facet normal 0 0 1
    outer loop
      vertex -8.95005 1.90239 34
      vertex -8.35894 3.72164 34
      vertex -12.7159 2.70285 34
    endloop
  endfacet
  facet normal 0 0 1
    outer loop
      vertex -8.95005 -1.90239 34
      vertex -9.15 0 34
      vertex -12.7159 2.70285 34
    endloop
  endfacet
  facet normal 0 0 1
    outer loop
      vertex -4.01722 12.3637 34
      vertex -12.7159 2.70285 34
      vertex -2 12.7925 34
    endloop
  endfacet
  facet normal 0 0 1
    outer loop
      vertex -6.5 11.2583 34
      vertex -12.7159 2.70285 34
      vertex -4.01722 12.3637 34
    endloop
  endfacet
  facet normal 0 0 1
    outer loop
      vertex -8.6987 9.66088 34
      vertex -12.7159 2.70285 34
      vertex -6.5 11.2583 34
    endloop
  endfacet
  facet normal 0 0 1
    outer loop
      vertex -10.5172 7.64121 34
      vertex -12.7159 2.70285 34
      vertex -8.6987 9.66088 34
    endloop
  endfacet
  facet normal 0 0 1
    outer loop
      vertex -11.8761 5.28758 34
      vertex -12.7159 2.70285 34
      vertex -10.5172 7.64121 34
    endloop
  endfacet
  facet normal 0 0 1
    outer loop
      vertex 2 12.7925 34
      vertex 6.5 11.2583 34
      vertex 4.01722 12.3637 34
    endloop
  endfacet
  facet normal 0 0 1
    outer loop
      vertex 2 12.7925 34
      vertex 2 8.87806 34
      vertex 6.5 11.2583 34
    endloop
  endfacet
  facet normal -0.207912 -0.978148 0
    outer loop
      vertex 2.8275 8.70217 30
      vertex 2.8275 8.70217 34
      vertex 2 8.87806 34
    endloop
  endfacet
  facet normal -0.207912 -0.978148 0
    outer loop
      vertex 2 8.87806 30
      vertex 2.8275 8.70217 30
      vertex 2 8.87806 34
    endloop
  endfacet
  facet normal 0 0 -1
    outer loop
      vertex -8.81571 3.92501 30
      vertex -7.80701 5.67213 30
      vertex -9.43912 2.00635 30
    endloop
  endfacet
  facet normal 0 0 -1
    outer loop
      vertex -9.43912 2.00635 30
      vertex -7.80701 5.67213 30
      vertex -6.45711 7.17135 30
    endloop
  endfacet
  facet normal 0 0 -1
    outer loop
      vertex -6.12254 6.79977 30
      vertex -6.45711 7.17135 30
      vertex -4.825 8.35714 30
    endloop
  endfacet
  facet normal 0 0 -1
    outer loop
      vertex -4.575 7.92413 30
      vertex -4.825 8.35714 30
      vertex -2.98201 9.17769 30
    endloop
  endfacet
  facet normal 0 0 -1
    outer loop
      vertex -2.8275 8.70217 30
      vertex -2.98201 9.17769 30
      vertex -2 9.38643 30
    endloop
  endfacet
  facet normal 0 0 -1
    outer loop
      vertex -4.575 7.92413 30
      vertex -2.98201 9.17769 30
      vertex -2.8275 8.70217 30
    endloop
  endfacet
  facet normal 0 0 -1
    outer loop
      vertex -6.12254 6.79977 30
      vertex -4.825 8.35714 30
      vertex -4.575 7.92413 30
    endloop
  endfacet
  facet normal 0 0 -1
    outer loop
      vertex -7.4025 5.37824 30
      vertex -6.45711 7.17135 30
      vertex -6.12254 6.79977 30
    endloop
  endfacet
  facet normal 0 0 -1
    outer loop
      vertex -8.95005 1.90239 30
      vertex -9.43912 2.00635 30
      vertex -8.35894 3.72164 30
    endloop
  endfacet
  facet normal 0 0 -1
    outer loop
      vertex -9.43912 2.00635 30
      vertex -6.45711 7.17135 30
      vertex -7.4025 5.37824 30
    endloop
  endfacet
  facet normal 0 0 -1
    outer loop
      vertex -9.43912 2.00635 30
      vertex -7.4025 5.37824 30
      vertex -8.35894 3.72164 30
    endloop
  endfacet
  facet normal 0 0 -1
    outer loop
      vertex -9.43912 2.00635 30
      vertex -8.95005 1.90239 30
      vertex -9.15 0 30
    endloop
  endfacet
  facet normal 0 0 -1
    outer loop
      vertex -9.15 0 30
      vertex -8.95005 -1.90239 30
      vertex -9.43912 2.00635 30
    endloop
  endfacet
  facet normal 0 0 -1
    outer loop
      vertex 2.8275 8.70217 30
      vertex 2 8.87806 30
      vertex 2 9.38643 30
    endloop
  endfacet
  facet normal 0 0 -1
    outer loop
      vertex 2.8275 8.70217 30
      vertex 2 9.38643 30
      vertex 4.575 7.92413 30
    endloop
  endfacet
  facet normal 0 0 -1
    outer loop
      vertex 4.575 7.92413 30
      vertex 2 9.38643 30
      vertex 2.98201 9.17769 30
    endloop
  endfacet
  facet normal 0 0 -1
    outer loop
      vertex 4.575 7.92413 30
      vertex 2.98201 9.17769 30
      vertex 6.12254 6.79977 30
    endloop
  endfacet
  facet normal 0 0 -1
    outer loop
      vertex 6.12254 6.79977 30
      vertex 2.98201 9.17769 30
      vertex 4.825 8.35714 30
    endloop
  endfacet
  facet normal 0 0 -1
    outer loop
      vertex 6.12254 6.79977 30
      vertex 4.825 8.35714 30
      vertex 7.4025 5.37824 30
    endloop
  endfacet
  facet normal 0 0 -1
    outer loop
      vertex 7.4025 5.37824 30
      vertex 4.825 8.35714 30
      vertex 6.45711 7.17135 30
    endloop
  endfacet
  facet normal 0 0 -1
    outer loop
      vertex 7.4025 5.37824 30
      vertex 6.45711 7.17135 30
      vertex 8.35894 3.72164 30
    endloop
  endfacet
  facet normal 0 0 -1
    outer loop
      vertex 8.35894 3.72164 30
      vertex 6.45711 7.17135 30
      vertex 7.80701 5.67213 30
    endloop
  endfacet
  facet normal 0 0 -1
    outer loop
      vertex 8.35894 3.72164 30
      vertex 7.80701 5.67213 30
      vertex 8.95005 1.90239 30
    endloop
  endfacet
  facet normal 0 0 -1
    outer loop
      vertex 8.95005 1.90239 30
      vertex 7.80701 5.67213 30
      vertex 8.81571 3.92501 30
    endloop
  endfacet
  facet normal 0 0 -1
    outer loop
      vertex 8.95005 1.90239 30
      vertex 8.81571 3.92501 30
      vertex 9.15 0 30
    endloop
  endfacet
  facet normal 0 0 -1
    outer loop
      vertex 9.15 0 30
      vertex 8.81571 3.92501 30
      vertex 9.43912 2.00635 30
    endloop
  endfacet
  facet normal 0 0 -1
    outer loop
      vertex 9.15 0 30
      vertex 9.43912 2.00635 30
      vertex 8.95005 -1.90239 30
    endloop
  endfacet
  facet normal 0 0 -1
    outer loop
      vertex 8.95005 -1.90239 30
      vertex 9.43912 2.00635 30
      vertex 9.65 0 30
    endloop
  endfacet
  facet normal 0 0 -1
    outer loop
      vertex 8.95005 -1.90239 30
      vertex 9.65 0 30
      vertex 8.35894 -3.72164 30
    endloop
  endfacet
  facet normal 0 0 -1
    outer loop
      vertex 8.35894 -3.72164 30
      vertex 9.65 0 30
      vertex 9.43912 -2.00635 30
    endloop
  endfacet
  facet normal 0 0 -1
    outer loop
      vertex 8.35894 -3.72164 30
      vertex 9.43912 -2.00635 30
      vertex 7.4025 -5.37824 30
    endloop
  endfacet
  facet normal 0 0 -1
    outer loop
      vertex 7.4025 -5.37824 30
      vertex 9.43912 -2.00635 30
      vertex 8.81571 -3.92501 30
    endloop
  endfacet
  facet normal 0 0 -1
    outer loop
      vertex 7.4025 -5.37824 30
      vertex 8.81571 -3.92501 30
      vertex 6.12254 -6.79977 30
    endloop
  endfacet
  facet normal 0 0 -1
    outer loop
      vertex 6.12254 -6.79977 30
      vertex 8.81571 -3.92501 30
      vertex 7.80701 -5.67213 30
    endloop
  endfacet
  facet normal 0 0 -1
    outer loop
      vertex 6.12254 -6.79977 30
      vertex 7.80701 -5.67213 30
      vertex 4.575 -7.92413 30
    endloop
  endfacet
  facet normal 0 0 -1
    outer loop
      vertex 4.575 -7.92413 30
      vertex 7.80701 -5.67213 30
      vertex 6.45711 -7.17135 30
    endloop
  endfacet
  facet normal 0 0 -1
    outer loop
      vertex 4.575 -7.92413 30
      vertex 6.45711 -7.17135 30
      vertex 2.8275 -8.70217 30
    endloop
  endfacet
  facet normal 0 0 -1
    outer loop
      vertex 2.8275 -8.70217 30
      vertex 6.45711 -7.17135 30
      vertex 4.825 -8.35714 30
    endloop
  endfacet
  facet normal 0 0 -1
    outer loop
      vertex 2.8275 -8.70217 30
      vertex 4.825 -8.35714 30
      vertex 0.956435 -9.09987 30
    endloop
  endfacet
  facet normal 0 0 -1
    outer loop
      vertex 0.956435 -9.09987 30
      vertex 4.825 -8.35714 30
      vertex 2.98201 -9.17769 30
    endloop
  endfacet
  facet normal 0 0 -1
    outer loop
      vertex 0.956435 -9.09987 30
      vertex 2.98201 -9.17769 30
      vertex -0.956435 -9.09987 30
    endloop
  endfacet
  facet normal 0 0 -1
    outer loop
      vertex -0.956435 -9.09987 30
      vertex 2.98201 -9.17769 30
      vertex 1.0087 -9.59714 30
    endloop
  endfacet
  facet normal 0 0 -1
    outer loop
      vertex -0.956435 -9.09987 30
      vertex 1.0087 -9.59714 30
      vertex -2.8275 -8.70217 30
    endloop
  endfacet
  facet normal 0 0 -1
    outer loop
      vertex -2.8275 -8.70217 30
      vertex 1.0087 -9.59714 30
      vertex -1.0087 -9.59714 30
    endloop
  endfacet
  facet normal 0 0 -1
    outer loop
      vertex -2.8275 -8.70217 30
      vertex -1.0087 -9.59714 30
      vertex -4.575 -7.92413 30
    endloop
  endfacet
  facet normal 0 0 -1
    outer loop
      vertex -4.575 -7.92413 30
      vertex -1.0087 -9.59714 30
      vertex -2.98201 -9.17769 30
    endloop
  endfacet
  facet normal 0 0 -1
    outer loop
      vertex -4.575 -7.92413 30
      vertex -2.98201 -9.17769 30
      vertex -6.12254 -6.79977 30
    endloop
  endfacet
  facet normal 0 0 -1
    outer loop
      vertex -6.12254 -6.79977 30
      vertex -2.98201 -9.17769 30
      vertex -4.825 -8.35714 30
    endloop
  endfacet
  facet normal 0 0 -1
    outer loop
      vertex -6.12254 -6.79977 30
      vertex -4.825 -8.35714 30
      vertex -7.4025 -5.37824 30
    endloop
  endfacet
  facet normal 0 0 -1
    outer loop
      vertex -7.4025 -5.37824 30
      vertex -4.825 -8.35714 30
      vertex -6.45711 -7.17135 30
    endloop
  endfacet
  facet normal 0 0 -1
    outer loop
      vertex -7.4025 -5.37824 30
      vertex -6.45711 -7.17135 30
      vertex -8.35894 -3.72164 30
    endloop
  endfacet
  facet normal 0 0 -1
    outer loop
      vertex -8.35894 -3.72164 30
      vertex -6.45711 -7.17135 30
      vertex -7.80701 -5.67213 30
    endloop
  endfacet
  facet normal 0 0 -1
    outer loop
      vertex -8.35894 -3.72164 30
      vertex -7.80701 -5.67213 30
      vertex -8.95005 -1.90239 30
    endloop
  endfacet
  facet normal 0 0 -1
    outer loop
      vertex -8.95005 -1.90239 30
      vertex -7.80701 -5.67213 30
      vertex -8.81571 -3.92501 30
    endloop
  endfacet
  facet normal 0 0 -1
    outer loop
      vertex -8.95005 -1.90239 30
      vertex -8.81571 -3.92501 30
      vertex -9.43912 2.00635 30
    endloop
  endfacet
  facet normal 0 0 -1
    outer loop
      vertex -9.43912 2.00635 30
      vertex -8.81571 -3.92501 30
      vertex -9.43912 -2.00635 30
    endloop
  endfacet
  facet normal 0 0 -1
    outer loop
      vertex -9.43912 2.00635 30
      vertex -9.43912 -2.00635 30
      vertex -9.65 0 30
    endloop
  endfacet
  facet normal 0 0 -1
    outer loop
      vertex -2.8275 8.70217 30
      vertex -2 9.38643 30
      vertex -2 8.87806 30
    endloop
  endfacet
  facet normal 0.207912 -0.978148 0
    outer loop
      vertex -2 8.87806 30
      vertex -2 8.87806 34
      vertex -2.8275 8.70217 34
    endloop
  endfacet
  facet normal 0.207912 -0.978148 0
    outer loop
      vertex -2.8275 8.70217 30
      vertex -2 8.87806 30
      vertex -2.8275 8.70217 34
    endloop
  endfacet
  facet normal 0.406737 -0.913545 0
    outer loop
      vertex -2.8275 8.70217 30
      vertex -2.8275 8.70217 34
      vertex -4.575 7.92413 34
    endloop
  endfacet
  facet normal 0.406737 -0.913545 0
    outer loop
      vertex -4.575 7.92413 30
      vertex -2.8275 8.70217 30
      vertex -4.575 7.92413 34
    endloop
  endfacet
  facet normal 0.587785 -0.809017 0
    outer loop
      vertex -4.575 7.92413 30
      vertex -4.575 7.92413 34
      vertex -6.12254 6.79977 34
    endloop
  endfacet
  facet normal 0.587785 -0.809017 0
    outer loop
      vertex -6.12254 6.79977 30
      vertex -4.575 7.92413 30
      vertex -6.12254 6.79977 34
    endloop
  endfacet
  facet normal 0.743145 -0.669131 0
    outer loop
      vertex -6.12254 6.79977 30
      vertex -6.12254 6.79977 34
      vertex -7.4025 5.37824 34
    endloop
  endfacet
  facet normal 0.743145 -0.669131 0
    outer loop
      vertex -7.4025 5.37824 30
      vertex -6.12254 6.79977 30
      vertex -7.4025 5.37824 34
    endloop
  endfacet
  facet normal 0.866025 -0.5 0
    outer loop
      vertex -7.4025 5.37824 30
      vertex -7.4025 5.37824 34
      vertex -8.35894 3.72164 34
    endloop
  endfacet
  facet normal 0.866025 -0.5 0
    outer loop
      vertex -8.35894 3.72164 30
      vertex -7.4025 5.37824 30
      vertex -8.35894 3.72164 34
    endloop
  endfacet
  facet normal 0.951056 -0.309017 0
    outer loop
      vertex -8.35894 3.72164 30
      vertex -8.35894 3.72164 34
      vertex -8.95005 1.90239 34
    endloop
  endfacet
  facet normal 0.951056 -0.309017 0
    outer loop
      vertex -8.95005 1.90239 30
      vertex -8.35894 3.72164 30
      vertex -8.95005 1.90239 34
    endloop
  endfacet
  facet normal 0.994522 -0.104528 0
    outer loop
      vertex -8.95005 1.90239 30
      vertex -8.95005 1.90239 34
      vertex -9.15 0 34
    endloop
  endfacet
  facet normal 0.994522 -0.104528 0
    outer loop
      vertex -9.15 0 30
      vertex -8.95005 1.90239 30
      vertex -9.15 0 34
    endloop
  endfacet
  facet normal 0.994522 0.104528 0
    outer loop
      vertex -9.15 0 34
      vertex -8.95005 -1.90239 34
      vertex -8.95005 -1.90239 30
    endloop
  endfacet
  facet normal 0.994522 0.104528 0
    outer loop
      vertex -9.15 0 30
      vertex -9.15 0 34
      vertex -8.95005 -1.90239 30
    endloop
  endfacet
  facet normal 0.951056 0.309017 0
    outer loop
      vertex -8.95005 -1.90239 34
      vertex -8.35894 -3.72164 34
      vertex -8.35894 -3.72164 30
    endloop
  endfacet
  facet normal 0.951056 0.309017 0
    outer loop
      vertex -8.95005 -1.90239 30
      vertex -8.95005 -1.90239 34
      vertex -8.35894 -3.72164 30
    endloop
  endfacet
  facet normal 0.866025 0.5 0
    outer loop
      vertex -8.35894 -3.72164 34
      vertex -7.4025 -5.37824 34
      vertex -7.4025 -5.37824 30
    endloop
  endfacet
  facet normal 0.866025 0.5 0
    outer loop
      vertex -8.35894 -3.72164 30
      vertex -8.35894 -3.72164 34
      vertex -7.4025 -5.37824 30
    endloop
  endfacet
  facet normal 0.743145 0.669131 0
    outer loop
      vertex -7.4025 -5.37824 34
      vertex -6.12254 -6.79977 34
      vertex -6.12254 -6.79977 30
    endloop
  endfacet
  facet normal 0.743145 0.669131 0
    outer loop
      vertex -7.4025 -5.37824 30
      vertex -7.4025 -5.37824 34
      vertex -6.12254 -6.79977 30
    endloop
  endfacet
  facet normal 0.587785 0.809017 0
    outer loop
      vertex -4.575 -7.92413 34
      vertex -4.575 -7.92413 30
      vertex -6.12254 -6.79977 34
    endloop
  endfacet
  facet normal 0.587785 0.809017 0
    outer loop
      vertex -6.12254 -6.79977 34
      vertex -4.575 -7.92413 30
      vertex -6.12254 -6.79977 30
    endloop
  endfacet
  facet normal 0.406737 0.913545 0
    outer loop
      vertex -2.8275 -8.70217 34
      vertex -2.8275 -8.70217 30
      vertex -4.575 -7.92413 34
    endloop
  endfacet
  facet normal 0.406737 0.913545 0
    outer loop
      vertex -4.575 -7.92413 34
      vertex -2.8275 -8.70217 30
      vertex -4.575 -7.92413 30
    endloop
  endfacet
  facet normal 0.207912 0.978148 0
    outer loop
      vertex -0.956435 -9.09987 34
      vertex -0.956435 -9.09987 30
      vertex -2.8275 -8.70217 34
    endloop
  endfacet
  facet normal 0.207912 0.978148 0
    outer loop
      vertex -2.8275 -8.70217 34
      vertex -0.956435 -9.09987 30
      vertex -2.8275 -8.70217 30
    endloop
  endfacet
  facet normal 0 1 0
    outer loop
      vertex 0.956435 -9.09987 34
      vertex 0.956435 -9.09987 30
      vertex -0.956435 -9.09987 34
    endloop
  endfacet
  facet normal 0 1 0
    outer loop
      vertex -0.956435 -9.09987 34
      vertex 0.956435 -9.09987 30
      vertex -0.956435 -9.09987 30
    endloop
  endfacet
  facet normal -0.207912 0.978148 0
    outer loop
      vertex 2.8275 -8.70217 34
      vertex 2.8275 -8.70217 30
      vertex 0.956435 -9.09987 34
    endloop
  endfacet
  facet normal -0.207912 0.978148 0
    outer loop
      vertex 0.956435 -9.09987 34
      vertex 2.8275 -8.70217 30
      vertex 0.956435 -9.09987 30
    endloop
  endfacet
  facet normal -0.406737 0.913545 0
    outer loop
      vertex 4.575 -7.92413 34
      vertex 4.575 -7.92413 30
      vertex 2.8275 -8.70217 34
    endloop
  endfacet
  facet normal -0.406737 0.913545 0
    outer loop
      vertex 2.8275 -8.70217 34
      vertex 4.575 -7.92413 30
      vertex 2.8275 -8.70217 30
    endloop
  endfacet
  facet normal -0.587785 0.809017 0
    outer loop
      vertex 6.12254 -6.79977 34
      vertex 6.12254 -6.79977 30
      vertex 4.575 -7.92413 34
    endloop
  endfacet
  facet normal -0.587785 0.809017 0
    outer loop
      vertex 4.575 -7.92413 34
      vertex 6.12254 -6.79977 30
      vertex 4.575 -7.92413 30
    endloop
  endfacet
  facet normal -0.743145 0.669131 0
    outer loop
      vertex 7.4025 -5.37824 34
      vertex 7.4025 -5.37824 30
      vertex 6.12254 -6.79977 34
    endloop
  endfacet
  facet normal -0.743145 0.669131 0
    outer loop
      vertex 6.12254 -6.79977 34
      vertex 7.4025 -5.37824 30
      vertex 6.12254 -6.79977 30
    endloop
  endfacet
  facet normal -0.866025 0.5 0
    outer loop
      vertex 8.35894 -3.72164 34
      vertex 8.35894 -3.72164 30
      vertex 7.4025 -5.37824 34
    endloop
  endfacet
  facet normal -0.866025 0.5 0
    outer loop
      vertex 7.4025 -5.37824 34
      vertex 8.35894 -3.72164 30
      vertex 7.4025 -5.37824 30
    endloop
  endfacet
  facet normal -0.951056 0.309017 0
    outer loop
      vertex 8.95005 -1.90239 34
      vertex 8.95005 -1.90239 30
      vertex 8.35894 -3.72164 34
    endloop
  endfacet
  facet normal -0.951056 0.309017 0
    outer loop
      vertex 8.35894 -3.72164 34
      vertex 8.95005 -1.90239 30
      vertex 8.35894 -3.72164 30
    endloop
  endfacet
  facet normal -0.994522 0.104528 0
    outer loop
      vertex 9.15 0 34
      vertex 9.15 0 30
      vertex 8.95005 -1.90239 34
    endloop
  endfacet
  facet normal -0.994522 0.104528 0
    outer loop
      vertex 8.95005 -1.90239 34
      vertex 9.15 0 30
      vertex 8.95005 -1.90239 30
    endloop
  endfacet
  facet normal -0.994522 -0.104528 0
    outer loop
      vertex 9.15 0 34
      vertex 8.95005 1.90239 34
      vertex 9.15 0 30
    endloop
  endfacet
  facet normal -0.994522 -0.104528 0
    outer loop
      vertex 9.15 0 30
      vertex 8.95005 1.90239 34
      vertex 8.95005 1.90239 30
    endloop
  endfacet
  facet normal -0.951056 -0.309017 0
    outer loop
      vertex 8.95005 1.90239 34
      vertex 8.35894 3.72164 34
      vertex 8.95005 1.90239 30
    endloop
  endfacet
  facet normal -0.951056 -0.309017 0
    outer loop
      vertex 8.95005 1.90239 30
      vertex 8.35894 3.72164 34
      vertex 8.35894 3.72164 30
    endloop
  endfacet
  facet normal -0.866025 -0.5 0
    outer loop
      vertex 8.35894 3.72164 34
      vertex 7.4025 5.37824 34
      vertex 8.35894 3.72164 30
    endloop
  endfacet
  facet normal -0.866025 -0.5 0
    outer loop
      vertex 8.35894 3.72164 30
      vertex 7.4025 5.37824 34
      vertex 7.4025 5.37824 30
    endloop
  endfacet
  facet normal -0.743145 -0.669131 0
    outer loop
      vertex 7.4025 5.37824 34
      vertex 6.12254 6.79977 34
      vertex 7.4025 5.37824 30
    endloop
  endfacet
  facet normal -0.743145 -0.669131 0
    outer loop
      vertex 7.4025 5.37824 30
      vertex 6.12254 6.79977 34
      vertex 6.12254 6.79977 30
    endloop
  endfacet
  facet normal -0.587785 -0.809017 0
    outer loop
      vertex 6.12254 6.79977 30
      vertex 6.12254 6.79977 34
      vertex 4.575 7.92413 34
    endloop
  endfacet
  facet normal -0.587785 -0.809017 0
    outer loop
      vertex 4.575 7.92413 30
      vertex 6.12254 6.79977 30
      vertex 4.575 7.92413 34
    endloop
  endfacet
  facet normal -0.406737 -0.913545 0
    outer loop
      vertex 4.575 7.92413 30
      vertex 4.575 7.92413 34
      vertex 2.8275 8.70217 34
    endloop
  endfacet
  facet normal -0.406737 -0.913545 0
    outer loop
      vertex 2.8275 8.70217 30
      vertex 4.575 7.92413 30
      vertex 2.8275 8.70217 34
    endloop
  endfacet
endsolid OpenSCAD_Model
